<svg width="16" height="16" viewBox="0 0 16 16" fill="none" xmlns="http://www.w3.org/2000/svg">
<path d="M7.79733 7.95361H7.31641V8.43453H7.79733V7.95361Z" fill="#C69D67"/>
<path d="M7.79733 8.58203H7.31641V9.06295H7.79733V8.58203Z" fill="#C69D67"/>
<path d="M8.4458 7.95361H7.96484V8.43453H8.4458V7.95361Z" fill="#C69D67"/>
<path d="M8.4458 8.58203H7.96484V9.06295H8.4458V8.58203Z" fill="#C69D67"/>
<path d="M7.79733 7.95361H7.31641V8.43453H7.79733V7.95361Z" fill="#2F2F2F"/>
<path d="M8.46526 7.96375H7.98438V8.44466H8.46526V7.96375Z" fill="#D48D2F"/>
<path d="M7.81686 8.59204H7.33594V9.07295H7.81686V8.59204Z" fill="#D48D2F"/>
<path d="M8.4458 8.58203H7.96484V9.06295H8.4458V8.58203Z" fill="#2F2F2F"/>
<path d="M12.4581 7.14974L8.61048 3.30197C8.20784 2.89934 7.5527 2.89934 7.14974 3.30197L3.30197 7.14974C2.89934 7.55226 2.89934 8.2075 3.30197 8.61001L4.55623 9.86427V8.62361L3.92252 7.9899C3.86162 7.92934 3.86162 7.83074 3.92252 7.76974L7.77018 3.92207C7.80041 3.89185 7.84034 3.87646 7.88024 3.87646C7.92016 3.87646 7.95968 3.89185 7.99032 3.92207L9.88792 5.81964L11.838 7.76974C11.8986 7.83074 11.8986 7.92934 11.838 7.9899L10.3752 9.45273C10.3563 9.47158 10.3698 9.5037 10.3962 9.5037H11.5643L12.4581 8.61001C12.8606 8.20738 12.8606 7.55226 12.4581 7.14974Z" fill="#2F2F2F"/>
<path d="M10.8076 10.044C10.8878 10.044 10.9281 10.1412 10.8713 10.198L8.61165 12.4576C8.41029 12.6594 8.14589 12.7598 7.88141 12.7598C7.617 12.7598 7.35256 12.6594 7.15081 12.4576L6.15484 11.4617H7.3955L7.77136 11.8376C7.83192 11.8984 7.93053 11.8984 7.99149 11.8376L8.90765 10.9214H5.97997C5.7414 10.9214 5.52481 10.8268 5.36599 10.6728C5.35942 10.6667 5.35283 10.6601 5.34626 10.6531C5.19234 10.4944 5.09766 10.2781 5.09766 10.0391V7.66543L7.79857 4.96496C7.8443 4.91923 7.91861 4.91923 7.96429 4.96496L10.843 7.8441C10.8529 7.85402 10.8459 7.87109 10.8318 7.87109H9.62989L7.88141 6.12219L5.97461 8.0289V9.79576C5.97461 9.93306 6.08603 10.0444 6.22366 10.0444H9.78461L9.78501 10.0439H10.8076V10.044Z" fill="#D58D2F"/>
</svg>
