<svg width="32" height="32" viewBox="0 0 32 32" fill="none" xmlns="http://www.w3.org/2000/svg">
<path d="M15.5947 15.9073H14.6328V16.8692H15.5947V15.9073Z" fill="#C69D67"/>
<path d="M15.5947 17.1641H14.6328V18.1259H15.5947V17.1641Z" fill="#C69D67"/>
<path d="M16.8916 15.9073H15.9297V16.8692H16.8916V15.9073Z" fill="#C69D67"/>
<path d="M16.8916 17.1641H15.9297V18.1259H16.8916V17.1641Z" fill="#C69D67"/>
<path d="M15.5947 15.9073H14.6328V16.8692H15.5947V15.9073Z" fill="#2F2F2F"/>
<path d="M16.9266 15.9275H15.9648V16.8893H16.9266V15.9275Z" fill="#D48D2F"/>
<path d="M15.6298 17.1842H14.668V18.146H15.6298V17.1842Z" fill="#D48D2F"/>
<path d="M16.8916 17.1641H15.9297V18.1259H16.8916V17.1641Z" fill="#2F2F2F"/>
<path d="M24.9162 14.2995L17.221 6.60394C16.4157 5.79869 15.1054 5.79869 14.2995 6.60394L6.60394 14.2995C5.79869 15.1045 5.79869 16.415 6.60394 17.22L9.11246 19.7285V17.2472L7.84504 15.9798C7.72325 15.8587 7.72325 15.6615 7.84504 15.5395L15.5404 7.84414C15.6008 7.7837 15.6807 7.75291 15.7605 7.75291C15.8403 7.75291 15.9194 7.7837 15.9806 7.84414L19.7758 11.6393L23.676 15.5395C23.7971 15.6615 23.7971 15.8587 23.676 15.9798L20.7504 18.9055C20.7126 18.9432 20.7395 19.0074 20.7925 19.0074H23.1286L24.9162 17.22C25.7213 16.4148 25.7213 15.1045 24.9162 14.2995Z" fill="#2F2F2F"/>
<path d="M21.6151 20.0882C21.7756 20.0882 21.8563 20.2824 21.7427 20.396L17.2233 24.9154C16.8206 25.3189 16.2918 25.5197 15.7628 25.5197C15.234 25.5197 14.7051 25.3189 14.3016 24.9154L12.3097 22.9236H14.791L15.5427 23.6752C15.6638 23.797 15.8611 23.797 15.983 23.6752L17.8153 21.8429H11.9599C11.4828 21.8429 11.0496 21.6536 10.732 21.3458C10.7188 21.3335 10.7057 21.3204 10.6925 21.3063C10.3847 20.9888 10.1953 20.5564 10.1953 20.0783V15.331L15.5971 9.93004C15.6886 9.83859 15.8372 9.83859 15.9286 9.93004L21.686 15.6883C21.7059 15.7082 21.6918 15.7423 21.6636 15.7423H19.2598L15.7628 12.2445L11.9492 16.0579V19.5916C11.9492 19.8662 12.1721 20.0888 12.4473 20.0888H19.5692L19.57 20.0879H21.6151V20.0882Z" fill="#D58D2F"/>
</svg>
