<svg width="882" height="882" viewBox="0 0 882 882" fill="none" xmlns="http://www.w3.org/2000/svg">
<g clip-path="url(#clip0_127_2704)">
<path d="M292 717L90 646.225V337.362L292 258V717Z" fill="#A237EE"/>
<path d="M601 717L792 646.225V337.362L601 258V717Z" fill="#A237EE"/>
<path d="M575 554V731.667L447.007 777L319 731.667V643.196L575 554Z" fill="#A237EE"/>
<path d="M319 436V248.707L575 153V343.78L319 436Z" fill="#A237EE"/>
<path d="M575 443.16L319 529V451.84L575 366V443.16Z" fill="#A237EE" fill-opacity="0.75"/>
<path d="M575 537.106L319 624V545.894L575 459V537.106Z" fill="#A237EE" fill-opacity="0.75"/>
<path d="M563 137.688L409 200V0L563 97.4874V137.688Z" fill="#A7A9AC"/>
<path d="M420 882L0 716.318V624L420 789.681V882Z" fill="#A237EE"/>
<path d="M447 882L882 716.318V624L447 789.681V882Z" fill="#A237EE"/>
</g>
<defs>
<clipPath id="clip0_127_2704">
<rect width="882" height="882" fill="white"/>
</clipPath>
</defs>
</svg>
