<svg width="40" height="40" viewBox="0 0 40 40" fill="none" xmlns="http://www.w3.org/2000/svg">
<path d="M19.7921 14.9841H18.5898V16.1864H19.7921V14.9841Z" fill="#C69D67"/>
<path d="M19.7921 16.5549H18.5898V17.7572H19.7921V16.5549Z" fill="#C69D67"/>
<path d="M21.4133 14.9841H20.2109V16.1864H21.4133V14.9841Z" fill="#C69D67"/>
<path d="M21.4133 16.5549H20.2109V17.7572H21.4133V16.5549Z" fill="#C69D67"/>
<path d="M19.7921 14.9841H18.5898V16.1864H19.7921V14.9841Z" fill="#2F2F2F"/>
<path d="M21.46 15.0094H20.2578V16.2117H21.46V15.0094Z" fill="#D48D2F"/>
<path d="M19.839 16.5802H18.6367V17.7825H19.839V16.5802Z" fill="#D48D2F"/>
<path d="M21.4133 16.5549H20.2109V17.7572H21.4133V16.5549Z" fill="#2F2F2F"/>
<path d="M31.446 12.9743L21.827 3.3549C20.8204 2.34834 19.1825 2.34834 18.1751 3.3549L8.5557 12.9743C7.54914 13.9806 7.54914 15.6187 8.5557 16.625L11.6914 19.7607V16.659L10.1071 15.0747C9.95484 14.9233 9.95484 14.6768 10.1071 14.5243L19.7262 4.90516C19.8018 4.8296 19.9016 4.79112 20.0014 4.79112C20.1012 4.79112 20.2 4.8296 20.2766 4.90516L25.0206 9.64907L29.8958 14.5243C30.0472 14.6768 30.0472 14.9233 29.8958 15.0747L26.2388 18.7318C26.1916 18.7789 26.2252 18.8592 26.2914 18.8592H29.2116L31.446 16.625C32.4524 15.6184 32.4524 13.9806 31.446 12.9743Z" fill="#2F2F2F"/>
<path d="M27.3177 20.2102C27.5183 20.2102 27.6191 20.453 27.4771 20.595L21.8279 26.2442C21.3245 26.7486 20.6635 26.9996 20.0023 26.9996C19.3413 26.9996 18.6802 26.7486 18.1758 26.2442L15.6859 23.7544H18.7876L19.7272 24.694C19.8786 24.8462 20.1251 24.8462 20.2775 24.694L22.5679 22.4036H15.2487C14.6523 22.4036 14.1108 22.167 13.7138 21.7822C13.6974 21.7668 13.6809 21.7504 13.6645 21.7328C13.2797 21.336 13.043 20.7954 13.043 20.1978V14.2637L19.7952 7.5125C19.9096 7.39818 20.0953 7.39818 20.2095 7.5125L27.4063 14.7104C27.4311 14.7352 27.4135 14.7778 27.3783 14.7778H24.3735L20.0023 10.4056L15.2353 15.1724V19.5895C15.2353 19.9327 15.5139 20.211 15.858 20.211H24.7603L24.7613 20.2098H27.3177V20.2102Z" fill="#D58D2F"/>
<path d="M5.21388 34.4839L4.36182 33.2529H4.31124H3.4211V34.4839H2.39844V30.0649H4.31124C4.70272 30.0649 5.04226 30.1303 5.33088 30.2605C5.61916 30.3909 5.84102 30.5761 5.9968 30.8161C6.15258 31.0559 6.23046 31.3401 6.23046 31.6683C6.23046 31.9963 6.15156 32.2795 5.99376 32.5173C5.83596 32.7549 5.61174 32.9371 5.32144 33.0635L6.3124 34.4837L5.21388 34.4839ZM4.95492 31.0971C4.7951 30.9645 4.56144 30.8981 4.25426 30.8981H3.4211V32.4383H4.25426C4.56144 32.4383 4.7951 32.3709 4.95492 32.2363C5.11474 32.1019 5.19466 31.9123 5.19466 31.6683C5.195 31.4201 5.11508 31.2295 4.95492 31.0971Z" fill="#2F2F2F"/>
<path d="M10.5947 33.0635H8.02546C8.07164 33.2739 8.18122 33.4401 8.35386 33.5621C8.5265 33.6843 8.74094 33.7453 8.99788 33.7453C9.17456 33.7453 9.33134 33.7189 9.46824 33.6663C9.6048 33.6137 9.73224 33.5305 9.85026 33.4169L10.3742 33.9851C10.0542 34.3511 9.58726 34.5343 8.97292 34.5343C8.58988 34.5343 8.25102 34.4597 7.95666 34.3101C7.66198 34.1607 7.43472 33.9533 7.2749 33.6883C7.11474 33.4233 7.03516 33.1221 7.03516 32.7857C7.03516 32.4531 7.11406 32.1535 7.27186 31.8861C7.42966 31.6191 7.64646 31.4107 7.92194 31.2609C8.19742 31.1115 8.50592 31.0367 8.84682 31.0367C9.17928 31.0367 9.48004 31.1081 9.74944 31.2515C10.0188 31.3945 10.2303 31.5999 10.384 31.8669C10.5374 32.1343 10.6143 32.4445 10.6143 32.7981C10.6136 32.8109 10.6072 32.8993 10.5947 33.0635ZM8.29048 31.9713C8.13908 32.0975 8.04636 32.2701 8.01264 32.4889H9.68538C9.65166 32.2741 9.55928 32.1029 9.40754 31.9745C9.25614 31.8459 9.0707 31.7819 8.85188 31.7819C8.62934 31.7823 8.4422 31.8453 8.29048 31.9713Z" fill="#2F2F2F"/>
<path d="M14.0722 31.4126C14.354 31.6632 14.495 32.0408 14.495 32.5458V34.484H13.5735V34.0612C13.3884 34.3768 13.0431 34.5346 12.5383 34.5346C12.2774 34.5346 12.0511 34.4904 11.8596 34.402C11.6681 34.3138 11.5218 34.1916 11.4209 34.0358C11.3198 33.88 11.2695 33.7034 11.2695 33.5054C11.2695 33.1898 11.3882 32.9418 11.6263 32.7606C11.864 32.58 12.2312 32.4892 12.7278 32.4892H13.5108C13.5108 32.2744 13.4454 32.1096 13.3152 31.9936C13.1847 31.878 12.9891 31.82 12.7282 31.82C12.5471 31.82 12.3694 31.8482 12.1948 31.9052C12.0201 31.9622 11.8717 32.0388 11.7497 32.1356L11.3956 31.4474C11.5808 31.3168 11.803 31.216 12.0616 31.1442C12.3205 31.0728 12.5866 31.037 12.86 31.037C13.386 31.037 13.7899 31.1624 14.0722 31.4126ZM13.2326 33.7546C13.3631 33.6768 13.4555 33.5622 13.5104 33.4108V33.0634H12.8351C12.4311 33.0634 12.2292 33.196 12.2292 33.461C12.2292 33.5874 12.2787 33.6872 12.3775 33.7608C12.4763 33.8342 12.6122 33.8714 12.7848 33.8714C12.9524 33.8716 13.1021 33.8326 13.2326 33.7546Z" fill="#2F2F2F"/>
<path d="M15.6992 29.8H16.6841V34.484H15.6992V29.8Z" fill="#2F2F2F"/>
<path d="M18.1484 34.5999V30.0909H21.1867V30.8769H19.1018V31.9513H21.0305V32.7373H19.1018V33.8139H21.1955V34.5999H18.1484ZM24.9269 32.1825L24.0683 32.2353C24.0535 32.1619 24.0219 32.0959 23.9735 32.0371C23.9251 31.9769 23.8613 31.9293 23.7819 31.8941C23.7041 31.8573 23.6109 31.8389 23.5023 31.8389C23.3571 31.8389 23.2345 31.8697 23.1347 31.9315C23.0349 31.9917 22.9849 32.0723 22.9849 32.1737C22.9849 32.2543 23.0173 32.3227 23.0819 32.3783C23.1465 32.4341 23.2573 32.4789 23.4143 32.5127L24.0263 32.6359C24.3551 32.7035 24.6003 32.8121 24.7617 32.9619C24.9233 33.1115 25.0039 33.3083 25.0039 33.5519C25.0039 33.7735 24.9387 33.9681 24.8079 34.1353C24.6789 34.3027 24.5013 34.4333 24.2751 34.5273C24.0505 34.6197 23.7915 34.6659 23.4979 34.6659C23.0503 34.6659 22.6937 34.5727 22.4279 34.3863C22.1637 34.1985 22.0089 33.9431 21.9633 33.6201L22.8859 33.5717C22.9137 33.7083 22.9813 33.8125 23.0885 33.8843C23.1955 33.9549 23.3329 33.9901 23.5001 33.9901C23.6645 33.9901 23.7967 33.9585 23.8965 33.8953C23.9977 33.8307 24.0491 33.7479 24.0505 33.6465C24.0491 33.5615 24.0131 33.4917 23.9427 33.4375C23.8723 33.3817 23.7637 33.3391 23.6169 33.3097L23.0313 33.1931C22.7009 33.1269 22.4551 33.0125 22.2937 32.8495C22.1337 32.6867 22.0537 32.4789 22.0537 32.2265C22.0537 32.0093 22.1123 31.8221 22.2297 31.6651C22.3487 31.5079 22.5153 31.3869 22.7295 31.3017C22.9453 31.2167 23.1977 31.1741 23.4869 31.1741C23.9141 31.1741 24.2503 31.2643 24.4953 31.4449C24.7419 31.6253 24.8857 31.8713 24.9269 32.1825ZM27.5793 31.2181V31.9227H25.5427V31.2181H27.5793ZM26.0051 30.4079H26.9431V33.5607C26.9431 33.6473 26.9563 33.7149 26.9827 33.7633C27.0091 33.8103 27.0457 33.8433 27.0927 33.8623C27.1411 33.8815 27.1969 33.8909 27.2601 33.8909C27.3041 33.8909 27.3481 33.8873 27.3921 33.8799C27.4363 33.8711 27.4699 33.8645 27.4935 33.8601L27.6409 34.5581C27.5941 34.5727 27.5279 34.5897 27.4429 34.6087C27.3577 34.6293 27.2543 34.6417 27.1323 34.6461C26.9063 34.6549 26.7081 34.6249 26.5379 34.5559C26.3691 34.4869 26.2377 34.3797 26.1439 34.2345C26.0499 34.0891 26.0037 33.9057 26.0051 33.6839V30.4079ZM29.3407 34.6637C29.1249 34.6637 28.9325 34.6263 28.7639 34.5515C28.5951 34.4751 28.4615 34.3629 28.3631 34.2147C28.2663 34.0649 28.2177 33.8785 28.2177 33.6553C28.2177 33.4675 28.2523 33.3097 28.3213 33.1821C28.3903 33.0543 28.4841 32.9515 28.6031 32.8737C28.7219 32.7959 28.8571 32.7373 29.0081 32.6977C29.1609 32.6579 29.3209 32.6301 29.4881 32.6139C29.6849 32.5935 29.8433 32.5743 29.9637 32.5567C30.0841 32.5377 30.1715 32.5097 30.2257 32.4731C30.2801 32.4363 30.3071 32.3821 30.3071 32.3101V32.2969C30.3071 32.1575 30.2631 32.0495 30.1751 31.9733C30.0885 31.8969 29.9651 31.8587 29.8053 31.8587C29.6365 31.8587 29.5021 31.8963 29.4023 31.9711C29.3025 32.0445 29.2365 32.1369 29.2041 32.2485L28.3367 32.1781C28.3807 31.9725 28.4673 31.7949 28.5965 31.6453C28.7257 31.4941 28.8923 31.3781 29.0963 31.2973C29.3017 31.2151 29.5395 31.1741 29.8097 31.1741C29.9975 31.1741 30.1773 31.1961 30.3491 31.2401C30.5223 31.2841 30.6757 31.3523 30.8091 31.4449C30.9443 31.5373 31.0507 31.6563 31.1285 31.8015C31.2063 31.9453 31.2451 32.1179 31.2451 32.3189V34.5999H30.3557V34.1309H30.3293C30.2749 34.2367 30.2023 34.3299 30.1113 34.4105C30.0203 34.4899 29.9109 34.5521 29.7831 34.5977C29.6555 34.6417 29.5079 34.6637 29.3407 34.6637ZM29.6093 34.0165C29.7473 34.0165 29.8691 33.9893 29.9747 33.9349C30.0805 33.8793 30.1633 33.8043 30.2235 33.7105C30.2837 33.6165 30.3139 33.5101 30.3139 33.3911V33.0323C30.2845 33.0513 30.2441 33.0689 30.1927 33.0851C30.1429 33.0999 30.0863 33.1137 30.0231 33.1269C29.9601 33.1387 29.8969 33.1497 29.8339 33.1599C29.7707 33.1687 29.7135 33.1769 29.6621 33.1843C29.5521 33.2003 29.4559 33.2261 29.3737 33.2613C29.2915 33.2965 29.2277 33.3441 29.1821 33.4043C29.1367 33.4631 29.1139 33.5365 29.1139 33.6245C29.1139 33.7523 29.1601 33.8499 29.2525 33.9173C29.3465 33.9835 29.4655 34.0165 29.6093 34.0165ZM33.9575 31.2181V31.9227H31.9211V31.2181H33.9575ZM32.3833 30.4079H33.3213V33.5607C33.3213 33.6473 33.3345 33.7149 33.3609 33.7633C33.3873 33.8103 33.4241 33.8433 33.4711 33.8623C33.5195 33.8815 33.5753 33.8909 33.6383 33.8909C33.6823 33.8909 33.7265 33.8873 33.7705 33.8799C33.8145 33.8711 33.8483 33.8645 33.8717 33.8601L34.0193 34.5581C33.9723 34.5727 33.9063 34.5897 33.8211 34.6087C33.7359 34.6293 33.6325 34.6417 33.5107 34.6461C33.2845 34.6549 33.0865 34.6249 32.9161 34.5559C32.7473 34.4869 32.6161 34.3797 32.5221 34.2345C32.4281 34.0891 32.3819 33.9057 32.3833 33.6839V30.4079ZM36.2595 34.6659C35.9115 34.6659 35.6121 34.5955 35.3611 34.4545C35.1115 34.3123 34.9193 34.1111 34.7843 33.8513C34.6493 33.5901 34.5817 33.2811 34.5817 32.9245C34.5817 32.5765 34.6493 32.2713 34.7843 32.0085C34.9193 31.7457 35.1093 31.5409 35.3545 31.3943C35.6011 31.2475 35.8903 31.1741 36.2219 31.1741C36.4451 31.1741 36.6527 31.2101 36.8451 31.2819C37.0389 31.3523 37.2077 31.4589 37.3515 31.6011C37.4967 31.7435 37.6097 31.9227 37.6905 32.1383C37.7713 32.3527 37.8117 32.6037 37.8117 32.8913V33.1489H34.9561V32.5677H36.9287C36.9287 32.4327 36.8993 32.3131 36.8407 32.2089C36.7819 32.1047 36.7005 32.0231 36.5963 31.9645C36.4935 31.9043 36.3739 31.8741 36.2375 31.8741C36.0951 31.8741 35.9687 31.9073 35.8587 31.9733C35.7501 32.0379 35.6649 32.1251 35.6033 32.2353C35.5417 32.3439 35.5101 32.4649 35.5087 32.5985V33.1511C35.5087 33.3185 35.5395 33.4631 35.6011 33.5849C35.6643 33.7067 35.7531 33.8007 35.8675 33.8667C35.9821 33.9327 36.1177 33.9659 36.2749 33.9659C36.3791 33.9659 36.4745 33.9511 36.5611 33.9217C36.6477 33.8925 36.7217 33.8483 36.7835 33.7897C36.8451 33.7309 36.8921 33.6591 36.9243 33.5739L37.7919 33.6311C37.7477 33.8395 37.6575 34.0215 37.5209 34.1771C37.3859 34.3313 37.2113 34.4517 36.9969 34.5383C36.7841 34.6233 36.5383 34.6659 36.2595 34.6659Z" fill="#D48D2F"/>
</svg>
