<svg width="300" height="85" viewBox="0 0 300 85" fill="none" xmlns="http://www.w3.org/2000/svg">
<path d="M30.0645 65.955L14.334 59.9707V33.8551L30.0645 27.1447V65.955Z" fill="#DB8918"/>
<path d="M54.1099 65.955L69.8414 59.9707V33.8551L54.1099 27.1447V65.955Z" fill="#DB8918"/>
<path d="M51.8634 51.8693V66.8485L42.2003 70.6706L32.5361 66.8485V59.3895L51.8634 51.8693Z" fill="#DB8918"/>
<path d="M32.5361 41.6734V26.0569L51.8634 18.0769V33.9841L32.5361 41.6734Z" fill="#DB8918"/>
<path d="M51.8853 42.2069L32.584 49.6601V42.9606L51.8853 35.5074V42.2069Z" fill="#DB8918" fill-opacity="0.75"/>
<path d="M51.8853 50.3301L32.584 57.7833V51.0838L51.8853 43.6306V50.3301Z" fill="#DB8918" fill-opacity="0.75"/>
<path d="M51.47 16.4975L39.0176 21.6897V5.02466L51.47 13.1478V16.4975Z" fill="#DB8918"/>
<path d="M40.4267 79.9846L6.43359 66.1576V58.4532L40.4267 72.2801V79.9846Z" fill="#DB8918"/>
<path d="M42.6494 79.9846L76.6425 66.1576V58.4532L42.6494 72.2801V79.9846Z" fill="#DB8918"/>
<path d="M112.68 42.2164H108.495V26.072L102.196 42.2164H100.044L93.7114 26.072V42.2164H90.3687V23.7748H96.7858L101.546 35.656L106.229 23.7809H112.684L112.68 42.2164Z" fill="#DB8918"/>
<path d="M86.4636 41.4415H82V25.8504V23H86.4608V25.8504L86.4636 41.4415Z" fill="#DB8918"/>
<path d="M94.914 65.2222H91.759L89.185 59.7879H84.985V65.2222H82V52H89.187C91.185 52 92.654 52.36 93.593 53.0801C94.532 53.8001 95.001 54.7318 95 55.8753C95 57.5724 94.005 58.7411 92.015 59.3813L94.914 65.2222ZM84.986 57.8815H88.7C89.777 57.8815 90.578 57.701 91.104 57.3399C91.351 57.1833 91.554 56.9632 91.692 56.7014C91.831 56.4396 91.9 56.1453 91.892 55.8478C91.892 55.2662 91.634 54.7967 91.116 54.4392C90.598 54.0817 89.874 53.9023 88.944 53.9008H84.986V57.8815Z" fill="#DB8918"/>
<path d="M108 65.2222H98V52H107.898V53.9667H100.774V57.5519H106.5V59.4692H100.774V63.1698H108V65.2222Z" fill="#DB8918"/>
<path d="M123 65.2222H119.967L118.71 62.0743H112.655L111.422 65.2222H109L114.224 52H117.718L123 65.2222ZM117.948 60.168L115.654 54.2689L113.359 60.168H117.948Z" fill="#DB8918"/>
<path d="M134.996 65.2222H125V52H128.084V63.0621H135L134.996 65.2222Z" fill="#DB8918"/>
<path d="M157 65.2222H146V52H156.888V53.9667H149.049V57.5519H155.35V59.4692H149.049V63.1698H156.999L157 65.2222Z" fill="#DB8918"/>
<path d="M159 61.9316L162.036 61.453C162.4 62.725 163.796 63.3607 166.226 63.36C167.336 63.36 168.189 63.1972 168.785 62.8718C169.382 62.5463 169.68 62.1423 169.68 61.6598C169.675 61.2948 169.53 60.9461 169.275 60.6865C169.004 60.3895 168.424 60.1564 167.535 59.9873L164.219 59.3477C163.085 59.1281 162.247 58.8794 161.706 58.6015C161.174 58.3333 160.725 57.9261 160.404 57.4226C160.086 56.941 159.915 56.3755 159.915 55.797C159.915 54.65 160.491 53.7304 161.642 53.0382C162.793 52.3461 164.266 52 166.061 52C167.552 52 168.883 52.2413 170.055 52.7238C171.227 53.2063 171.974 53.8892 172.297 54.7726L169.326 55.3173C168.868 54.3458 167.801 53.8605 166.124 53.8612C165.151 53.8612 164.41 54.0115 163.901 54.3121C163.392 54.6127 163.135 54.9946 163.132 55.458C163.132 56.1914 163.936 56.7052 165.545 56.9994L168.491 57.5441C170.277 57.8767 171.475 58.367 172.085 59.0151C172.695 59.6632 173 60.3792 173 61.163C173 62.4216 172.359 63.4129 171.076 64.1371C169.793 64.8612 168.131 65.2229 166.091 65.2222C164.372 65.2222 162.867 64.9561 161.576 64.4238C160.286 63.8915 159.427 63.0608 159 61.9316Z" fill="#DB8918"/>
<path d="M182.6 65.2222H179.401V54.0437H175V52H187V54.0437H182.6V65.2222Z" fill="#DB8918"/>
<path d="M203 65.2222H199.751L198.403 62.0743H191.913L190.591 65.2222H188L193.597 52H197.341L203 65.2222ZM197.588 60.168L195.129 54.2667L192.671 60.1658L197.588 60.168Z" fill="#DB8918"/>
<path d="M211.6 65.2222H208.4V54.0437H204V52H216V54.0437H211.6V65.2222Z" fill="#DB8918"/>
<path d="M230 65.2222H219V52H229.888V53.9667H222.051V57.5519H228.351V59.4692H222.051V63.1698H230V65.2222Z" fill="#DB8918"/>
<path d="M230 65.2222H219V52H229.888V53.9667H222.051V57.5519H228.351V59.4692H222.051V63.1698H230V65.2222Z" fill="#DB8918"/>
<path d="M131.063 29.7526C130.897 29.2792 130.668 28.8557 130.375 28.4816C130.089 28.1018 129.743 27.7775 129.339 27.5088C128.94 27.2398 128.481 27.0383 127.962 26.9039C127.445 26.7637 126.88 26.6935 126.268 26.6935C125.172 26.6935 124.195 26.9361 123.337 27.421C122.481 27.9061 121.806 28.619 121.314 29.5597C120.83 30.4946 120.587 31.6341 120.587 32.9781C120.587 34.3338 120.83 35.4819 121.314 36.4227C121.799 37.3634 122.474 38.0793 123.337 38.5701C124.202 39.0551 125.205 39.2976 126.349 39.2976C127.385 39.2976 128.282 39.1223 129.039 38.7717C129.803 38.4212 130.392 37.9244 130.803 37.2817C131.216 36.633 131.421 35.8734 131.421 35.0028L132.26 35.1168H126.717V32.5749H135V34.731C135 36.2678 134.628 37.5972 133.884 38.7191C133.14 39.841 132.116 40.7059 130.813 41.3136C129.512 41.9154 128.015 42.2164 126.328 42.2164C124.448 42.2164 122.796 41.8453 121.374 41.1033C119.959 40.3553 118.852 39.2947 118.054 37.9214C117.263 36.5425 116.869 34.9063 116.869 33.0131C116.869 31.564 117.102 30.2696 117.566 29.1303C118.039 27.9908 118.696 27.0237 119.54 26.2291C120.383 25.4285 121.374 24.8208 122.51 24.4059C123.647 23.9852 124.883 23.7748 126.219 23.7748C127.349 23.7748 128.402 23.9209 129.378 24.2131C130.356 24.4993 131.222 24.9084 131.981 25.4402C132.744 25.9719 133.373 26.603 133.864 27.3334C134.356 28.0639 134.678 28.8702 134.831 29.7526H131.063Z" fill="#DB8918"/>
</svg>
