<svg width="100" height="80" viewBox="0 0 100 80" fill="none" xmlns="http://www.w3.org/2000/svg">
<path d="M62.3047 38.9911V60.5285H45.1172V41.0729H29.4922V60.5285H12.3047V27.281L6.71484 31.2833L1.20703 26.3577L37.4531 0.620728L48.2422 8.44002V1.85291H57.6172V15.2124L73.2148 26.7283L67.6836 31.5304L62.3047 27.5281V36.3804C66.5691 37.2843 73.5523 39.7051 76.5031 41.6386L73.8133 43.1549C71.2832 41.7387 66.0125 39.8907 62.3047 38.9911ZM83.273 38.0347L76.4855 41.6155C79.2715 43.238 81.7652 45.2404 83.1598 47.3521C83.2211 47.3502 83.2824 47.3481 83.3445 47.3481C86.0965 47.3422 88.3336 49.0932 88.3406 51.2587C88.3488 53.6594 85.6133 55.5617 82.4578 55.1282C80.4141 54.8471 78.7781 53.5461 78.443 51.9276C78.1402 50.4662 78.8668 49.1229 80.143 48.2742C79.1137 46.8398 77.3074 45.3003 74.902 43.8547C74.5145 43.6219 74.1262 43.4014 73.7391 43.1908L67.7734 46.3253V78.44H98.6328V46.3253L83.273 38.0347Z" fill="url(#paint0_linear_80_111)"/>
<path d="M27.4501 14.9998C27.4501 19.2751 23.9853 22.7406 19.7114 22.7406C15.438 22.7406 11.9727 19.2751 11.9727 14.9998C11.9727 10.7246 15.438 7.25916 19.7114 7.25916C23.9853 7.25916 27.4501 10.7246 27.4501 14.9998Z" fill="white" stroke="#C5842F" stroke-width="3"/>
<path d="M25.7708 14.3298H20.866V9.42407H19.0409V14.3298H14.1367V16.1552H19.0409V21.061H20.866V16.1552H25.7708V14.3298Z" fill="black"/>
<defs>
<linearGradient id="paint0_linear_80_111" x1="49.9199" y1="0.620728" x2="49.9199" y2="78.44" gradientUnits="userSpaceOnUse">
<stop stop-color="#D58D2F"/>
<stop offset="1" stop-color="#2F2F2F"/>
</linearGradient>
</defs>
</svg>
