<svg width="156" height="150" viewBox="0 0 156 150" fill="none" xmlns="http://www.w3.org/2000/svg">
<g clip-path="url(#clip0_86_1292)">
<mask id="mask0_86_1292" style="mask-type:luminance" maskUnits="userSpaceOnUse" x="0" y="0" width="156" height="150">
<path d="M156 0H0V150H156V0Z" fill="white"/>
</mask>
<g mask="url(#mask0_86_1292)">
<path d="M128.822 94.7557C117.32 120.32 86.9581 131.301 63.1696 129.428C56.6744 128.917 43.6057 127.889 33.4014 118.713C13.8055 101.091 16.8233 64.2567 35.5824 42.571C37.9981 39.7784 54.72 21.0676 80.7778 21.3179C99.8561 21.5015 113.247 31.7492 114.875 33.026C116.932 34.6388 121.469 38.4713 125.557 44.5513C135.165 58.8369 136.009 78.7805 128.822 94.7557Z" fill="url(#paint0_linear_86_1292)"/>
<path d="M121.051 38.7199C121.759 37.6412 123.497 38.2493 123.32 39.5128C122.411 46.0266 121.331 57.3963 123.462 64.8272C126.594 75.7533 132.226 107.892 100.465 116.028C100.465 116.029 103.49 65.5056 121.051 38.7199Z" fill="#91B3FA"/>
<path d="M118.372 52.2231C118.372 52.2231 118.342 52.2838 118.294 52.4006C118.245 52.5171 118.174 52.695 118.092 52.9282C117.923 53.394 117.713 54.0914 117.502 54.9898C117.293 55.8886 117.084 56.9904 116.939 58.2652C116.793 59.5392 116.681 60.9826 116.676 62.5602C116.651 63.3482 116.7 64.1702 116.711 65.0192C116.73 65.4437 116.761 65.8756 116.786 66.3134C116.799 66.5326 116.812 66.7529 116.825 66.9753C116.843 67.1972 116.868 67.4208 116.889 67.6456C116.934 68.0952 116.979 68.5513 117.024 69.0126C117.048 69.2313 117.084 69.4743 117.113 69.706C117.143 69.9405 117.169 70.1786 117.206 70.4107C117.338 71.3427 117.497 72.3061 117.666 73.2838C117.834 74.2622 118.016 75.2584 118.182 76.272C118.264 76.7795 118.348 77.2893 118.422 77.8048C118.46 78.0623 118.499 78.3203 118.537 78.5791C118.571 78.8386 118.606 79.099 118.641 79.3598C118.715 79.8801 118.767 80.4074 118.829 80.9342C118.888 81.4614 118.926 81.9935 118.976 82.5251C119.008 83.0588 119.044 83.5929 119.061 84.1295L119.079 84.9348L119.088 85.3375L119.083 85.741C119.069 87.8916 118.877 90.0494 118.457 92.1353C118.034 94.2203 117.392 96.2285 116.588 98.094C116.488 98.3273 116.389 98.5598 116.289 98.7915C116.177 99.0171 116.065 99.2419 115.954 99.4654C115.73 99.9114 115.521 100.36 115.269 100.781C115.025 101.205 114.795 101.631 114.546 102.04C114.288 102.443 114.033 102.841 113.782 103.234C112.738 104.781 111.651 106.177 110.56 107.39C110.29 107.694 110.025 107.992 109.766 108.284C109.492 108.562 109.225 108.835 108.964 109.1C108.703 109.365 108.449 109.622 108.202 109.873C107.944 110.113 107.693 110.346 107.45 110.572C106.496 111.491 105.591 112.216 104.867 112.833C104.51 113.147 104.161 113.394 103.871 113.623C103.577 113.848 103.328 114.04 103.126 114.195C102.721 114.506 102.506 114.672 102.506 114.672C102.475 114.695 102.431 114.69 102.406 114.661C102.383 114.632 102.386 114.592 102.413 114.568L102.415 114.566C102.415 114.566 102.619 114.387 102.999 114.051C103.189 113.883 103.424 113.676 103.7 113.433C103.838 113.311 103.986 113.181 104.143 113.041C104.221 112.971 104.305 112.901 104.387 112.825C104.468 112.748 104.552 112.669 104.638 112.588C104.981 112.264 105.361 111.905 105.774 111.514C105.877 111.416 105.982 111.317 106.09 111.215C106.197 111.113 106.299 111.003 106.406 110.893C106.621 110.675 106.843 110.448 107.072 110.214C107.301 109.98 107.538 109.739 107.781 109.49C108.013 109.232 108.251 108.966 108.496 108.693C108.74 108.42 108.991 108.14 109.248 107.854C109.492 107.558 109.741 107.255 109.996 106.946C110.123 106.791 110.252 106.635 110.382 106.477C110.447 106.398 110.512 106.319 110.578 106.239C110.639 106.157 110.701 106.074 110.763 105.99C111.011 105.657 111.264 105.317 111.521 104.973C111.786 104.633 112.018 104.263 112.267 103.896C112.39 103.713 112.515 103.528 112.641 103.342C112.704 103.249 112.767 103.155 112.83 103.061C112.891 102.966 112.948 102.868 113.007 102.771C113.242 102.382 113.479 101.988 113.72 101.588C113.951 101.184 114.163 100.764 114.389 100.346C114.623 99.9308 114.812 99.4901 115.018 99.0522C115.12 98.8327 115.223 98.6123 115.325 98.3912C115.417 98.1656 115.509 97.9388 115.601 97.7107C116.35 95.8929 116.936 93.9458 117.311 91.9278C117.693 89.9111 117.877 87.8269 117.875 85.7378C117.876 83.6483 117.709 81.5556 117.452 79.4997C117.419 79.2425 117.386 78.9862 117.354 78.7303C117.318 78.4743 117.282 78.2188 117.246 77.9645C117.175 77.4551 117.095 76.9481 117.018 76.4439C116.861 75.4327 116.707 74.4336 116.555 73.4512C116.404 72.465 116.262 71.4955 116.145 70.5292C116.084 70.0452 116.041 69.5879 115.998 69.1072C115.966 68.6366 115.935 68.172 115.905 67.7132C115.891 67.4839 115.873 67.2567 115.862 67.0303C115.856 66.8039 115.85 66.5786 115.843 66.3555C115.832 65.9091 115.815 65.47 115.81 65.0378C115.821 64.1726 115.821 63.3373 115.878 62.5363C115.889 62.3362 115.9 62.1381 115.911 61.942C115.917 61.8441 115.922 61.7467 115.928 61.6497C115.937 61.553 115.945 61.4568 115.954 61.361C115.99 60.9789 116.026 60.6053 116.061 60.2415C116.097 59.878 116.156 59.5254 116.202 59.1822C116.226 59.0107 116.25 58.8417 116.274 58.6755C116.304 58.5098 116.334 58.3468 116.363 58.1863C116.423 57.8657 116.469 57.554 116.537 57.2564C116.603 56.9588 116.667 56.6718 116.728 56.396C116.871 55.849 116.997 55.346 117.143 54.8993C117.415 54.0017 117.692 53.3152 117.901 52.8567C118.004 52.6262 118.09 52.4536 118.151 52.3363C118.212 52.2187 118.245 52.1617 118.245 52.1617L118.246 52.1605C118.266 52.1277 118.309 52.116 118.343 52.1346C118.375 52.1528 118.387 52.1912 118.372 52.2231Z" fill="#BDD0FB"/>
<path d="M105.59 115.828C105.59 115.828 119.854 120.577 130.511 105.571C140.521 91.4759 134.506 73.8519 130.09 63.7833C129.86 63.2589 129.058 63.3563 128.97 63.9191C127.645 72.3964 121.482 105.545 104.828 115.801L105.59 115.828Z" fill="#BDD0FB"/>
<path d="M107.081 116.019C107.081 116.019 107.122 116.011 107.203 115.996C107.282 115.981 107.401 115.955 107.556 115.921C107.864 115.848 108.316 115.739 108.881 115.566C109.166 115.487 109.475 115.38 109.814 115.273C110.148 115.152 110.514 115.032 110.894 114.877C111.661 114.586 112.506 114.209 113.404 113.758C114.306 113.314 115.244 112.764 116.209 112.147C116.681 111.824 117.173 111.503 117.646 111.136C117.767 111.047 117.887 110.956 118.008 110.866L118.191 110.73L118.367 110.585C118.603 110.391 118.84 110.195 119.079 109.998C120.012 109.182 120.943 108.302 121.79 107.324C121.897 107.203 122.005 107.081 122.113 106.96L122.275 106.778L122.426 106.587C122.627 106.332 122.829 106.076 123.032 105.82C123.241 105.569 123.421 105.296 123.609 105.029L124.171 104.225L124.687 103.392L124.944 102.976C124.986 102.907 125.032 102.839 125.071 102.768L125.187 102.553C125.341 102.267 125.495 101.982 125.648 101.698C125.725 101.556 125.802 101.414 125.878 101.272C125.946 101.126 126.014 100.981 126.082 100.836C126.217 100.545 126.351 100.255 126.485 99.9676C126.55 99.8228 126.622 99.6817 126.681 99.535C126.738 99.3882 126.796 99.2414 126.853 99.0955C126.968 98.8035 127.082 98.5137 127.196 98.2254C127.253 98.0814 127.313 97.9391 127.366 97.7952C127.414 97.6496 127.463 97.5045 127.511 97.3597C127.607 97.0707 127.702 96.784 127.796 96.4998C127.889 96.2151 127.992 95.9366 128.061 95.6511C128.217 95.0855 128.37 94.5324 128.518 93.9938C128.647 93.4504 128.754 92.9172 128.87 92.4041C128.926 92.1469 128.992 91.8963 129.036 91.646C129.078 91.3957 129.119 91.1499 129.16 90.9093C129.24 90.4278 129.319 89.9661 129.399 89.5274C129.46 89.0863 129.506 88.6662 129.556 88.272C129.608 87.8774 129.655 87.5083 129.7 87.1666C129.742 86.8246 129.755 86.5088 129.784 86.2242C129.833 85.6545 129.873 85.2065 129.904 84.9005C129.933 84.5944 129.949 84.4314 129.949 84.4314L129.95 84.4282C129.954 84.3906 129.988 84.3631 130.027 84.3663C130.064 84.3696 130.091 84.3991 130.091 84.4335C130.091 84.4335 130.094 84.5976 130.099 84.9049C130.105 85.2126 130.108 85.6638 130.11 86.2391C130.109 86.5266 130.118 86.846 130.102 87.1921C130.083 87.5386 130.062 87.913 130.041 88.3133C130.014 88.7135 129.992 89.1401 129.957 89.5893C129.907 90.0368 129.849 90.507 129.787 90.9983C129.756 91.2437 129.724 91.4948 129.693 91.7503C129.659 92.0058 129.603 92.2626 129.558 92.5262C129.459 93.0514 129.36 93.5952 129.245 94.1519C129.106 94.7042 128.963 95.2715 128.817 95.8513C128.749 96.1428 128.647 96.4286 128.555 96.7201C128.461 97.0112 128.366 97.3052 128.27 97.6011C128.222 97.7495 128.174 97.8983 128.126 98.0475C128.073 98.1955 128.013 98.3414 127.956 98.4894C127.84 98.7841 127.722 99.0809 127.604 99.3797C127.545 99.5289 127.485 99.6785 127.425 99.8285C127.365 99.9785 127.29 100.123 127.223 100.271C127.084 100.566 126.945 100.862 126.806 101.159C126.736 101.308 126.665 101.457 126.595 101.606C126.516 101.751 126.437 101.896 126.358 102.042C126.199 102.333 126.04 102.625 125.88 102.917L125.76 103.137C125.72 103.209 125.673 103.279 125.629 103.35L125.363 103.776L124.828 104.627L124.24 105.446C124.043 105.718 123.854 105.995 123.636 106.251C123.424 106.511 123.213 106.771 123.003 107.03L122.845 107.224L122.676 107.409C122.564 107.533 122.452 107.656 122.34 107.778C121.46 108.774 120.481 109.655 119.508 110.47C119.258 110.667 119.01 110.862 118.765 111.055L118.582 111.2L118.392 111.336C118.266 111.425 118.14 111.515 118.016 111.604C117.524 111.97 117.009 112.281 116.518 112.597C116.271 112.752 116.017 112.89 115.772 113.034C115.649 113.105 115.527 113.176 115.406 113.246C115.283 113.314 115.159 113.376 115.037 113.44C114.793 113.568 114.553 113.693 114.317 113.816C114.076 113.929 113.84 114.04 113.609 114.148C112.677 114.571 111.805 114.917 111.015 115.18C110.624 115.321 110.249 115.427 109.906 115.536C109.558 115.631 109.241 115.726 108.95 115.794C108.37 115.938 107.907 116.023 107.591 116.079C107.433 116.106 107.312 116.125 107.228 116.136C107.146 116.147 107.104 116.153 107.104 116.153C107.065 116.158 107.029 116.132 107.024 116.094C107.019 116.058 107.044 116.025 107.08 116.018L107.081 116.019Z" fill="url(#paint1_linear_86_1292)"/>
<path d="M44.5955 30.7857L105.634 31.7855C109.001 31.8405 111.733 34.4237 111.847 37.6602L114.845 122.825C114.934 125.357 112.824 127.458 110.189 127.461L40.2095 127.537C37.7333 127.54 35.7359 125.589 35.778 123.208L37.2955 37.5692C37.3632 33.7582 40.6312 30.721 44.5955 30.7857Z" fill="#D58D2F"/>
<path d="M50.464 126.234C50.4623 126.234 50.4611 126.234 50.4594 126.234L42.6333 126.009C40.0301 125.933 37.9483 123.835 37.9929 121.331L38.1943 109.967C38.1956 109.893 38.2591 109.833 38.3364 109.833C38.3373 109.833 38.3381 109.833 38.339 109.833C38.4176 109.834 38.4798 109.897 38.4785 109.972L38.2771 121.336C38.2355 123.691 40.1937 125.665 42.6422 125.736L50.4682 125.961C50.5464 125.964 50.6082 126.026 50.6061 126.102C50.6036 126.176 50.5405 126.234 50.464 126.234Z" fill="#91B3FA"/>
<path d="M38.4 106.586C38.3991 106.586 38.3983 106.586 38.3974 106.586C38.3188 106.585 38.2566 106.523 38.2578 106.448L38.2906 104.607C38.2919 104.532 38.3613 104.47 38.4349 104.473C38.5135 104.474 38.5757 104.536 38.5745 104.612L38.5417 106.452C38.5408 106.527 38.4773 106.586 38.4 106.586Z" fill="#91B3FA"/>
<path d="M44.7968 30.0991C53.1127 31.3226 81.7162 35.1535 105.445 33.7925C106.528 33.7303 107.452 34.5332 107.491 35.5748L110.701 121.122C110.745 122.295 109.796 123.282 108.577 123.331C98.5995 123.735 57.5135 125.255 42.8987 123.541C42.0094 123.436 41.3459 122.704 41.3556 121.842L42.3971 32.0593C42.4109 30.8402 43.5429 29.9148 44.7968 30.0991Z" fill="#91B3FA"/>
<path d="M45.6482 32.3309C53.6513 33.5083 81.1775 37.1952 104.013 35.8853C105.055 35.8254 105.944 36.5981 105.982 37.6003L109.07 119.926C109.113 121.055 108.2 122.005 107.026 122.052C97.4251 122.441 57.886 123.903 43.8212 122.254C42.9651 122.153 42.3264 121.448 42.336 120.619L43.3385 34.2175C43.3519 33.0441 44.4414 32.1534 45.6482 32.3309Z" fill="#BDD0FB"/>
<g opacity="0.6">
<path d="M103.262 43.1019C103.575 43.1072 103.818 42.8658 103.803 42.5654L103.798 42.4724C103.783 42.1724 103.515 41.9205 103.202 41.9128L51.3418 40.6704C51.0293 40.6627 50.9297 40.8515 51.1202 41.0901L51.7118 41.83C51.9023 42.0681 52.3139 42.2674 52.6263 42.2727L103.262 43.1019Z" fill="white"/>
</g>
<g opacity="0.6">
<path d="M51.2832 43.9573C50.9707 43.9496 50.8711 44.1384 51.0616 44.3769L51.6532 45.1168C51.8437 45.355 52.2553 45.5543 52.5677 45.5595L103.204 46.3892C103.516 46.3945 103.76 46.1531 103.744 45.8527L103.74 45.7597C103.724 45.4597 103.456 45.2078 103.144 45.2001L51.2832 43.9573Z" fill="white"/>
</g>
<path d="M59.7154 73.9804C59.7091 73.9804 59.7028 73.9808 59.6965 73.9808L52.8257 74.0188C51.8355 74.024 51.008 73.3808 50.9007 72.5224L50.2082 66.989C50.167 66.6599 50.2683 66.3324 50.4933 66.0668C50.7447 65.77 51.1291 65.5808 51.5479 65.5468C52.1269 65.5003 52.9237 65.4231 53.8008 65.3382C55.7103 65.1534 57.8745 64.944 59.1473 64.9096C59.157 64.9096 59.1662 64.9092 59.1755 64.9088C60.0862 64.8955 60.8784 65.4178 61.108 66.1864C61.4869 67.4556 61.4936 69.8653 61.4667 72.4331C61.4575 73.2757 60.6737 73.9662 59.7154 73.9804ZM51.595 66.0842C51.3267 66.1056 51.0837 66.2232 50.9281 66.4072C50.8003 66.558 50.7422 66.742 50.7649 66.9243L51.4575 72.4577C51.5306 73.044 52.1176 73.4835 52.8228 73.4794L59.6935 73.4414C59.6977 73.4414 59.7023 73.4414 59.707 73.4414C60.3638 73.4317 60.9003 72.9793 60.9066 72.4282C60.9335 69.9021 60.9276 67.5352 60.5694 66.3356C60.4104 65.8048 59.807 65.417 59.1637 65.449C57.9111 65.4825 55.6636 65.7001 53.8576 65.8747C52.9767 65.9596 52.1761 66.0373 51.595 66.0842Z" fill="white"/>
<path opacity="0.6" d="M52.3414 66.6292C53.7828 66.5131 56.9146 66.1606 58.4018 66.1209C59.0321 66.104 59.5909 66.4622 59.7469 66.9854C60.0501 68.0018 60.0446 70.0371 60.0249 71.9155C60.019 72.4783 59.4888 72.9352 58.8328 72.9385L53.3425 72.9688C52.6672 72.9724 52.0996 72.5382 52.0277 71.9624L51.4743 67.5409C51.4171 67.084 51.8069 66.6724 52.3414 66.6292Z" fill="white"/>
<g opacity="0.6">
<path d="M65.6578 68.1402C65.3454 68.1377 65.1587 68.3722 65.2428 68.6617L65.8942 70.8968C65.9787 71.1862 66.3033 71.4191 66.6157 71.4147L101.196 70.9048C101.509 70.9004 101.755 70.6509 101.743 70.3505L101.69 68.9795C101.679 68.6791 101.414 68.4313 101.101 68.4288L65.6578 68.1402Z" fill="white"/>
</g>
<path d="M60.1177 59.1482C60.1114 59.1482 60.1051 59.1486 60.0988 59.1486L53.2281 59.1866C52.2378 59.1919 51.4103 58.5486 51.3031 57.6903L50.6106 52.1569C50.5693 51.8277 50.6707 51.5002 50.8956 51.2346C51.1471 50.9378 51.5314 50.7486 51.9502 50.7147C52.5292 50.6682 53.3261 50.591 54.2032 50.506C56.1126 50.3213 58.2768 50.1118 59.5496 50.0775C59.5593 50.0775 59.5686 50.0771 59.5778 50.0767C60.4886 50.0633 61.2808 50.5857 61.5104 51.3543C61.8892 52.6234 61.896 55.0331 61.869 57.6009C61.8602 58.4435 61.0764 59.1341 60.1177 59.1482ZM51.9977 51.252C51.7295 51.2738 51.4864 51.3911 51.3308 51.575C51.203 51.7259 51.145 51.9098 51.1677 52.0922L51.8602 57.6256C51.9334 58.2118 52.5204 58.6513 53.2256 58.6473L60.0963 58.6093C60.1005 58.6093 60.1055 58.6093 60.1097 58.6089C60.7665 58.5992 61.3031 58.1467 61.3094 57.5957C61.3363 55.0695 61.3304 52.7027 60.9722 51.5031C60.8132 50.9722 60.2098 50.5845 59.566 50.6164C58.3134 50.65 56.0659 50.8675 54.2599 51.0422C53.379 51.1279 52.5788 51.2051 51.9977 51.252Z" fill="white"/>
<path opacity="0.6" d="M52.7436 51.7974C54.185 51.6813 57.3168 51.3288 58.8041 51.2892C59.4344 51.2722 59.9928 51.6304 60.1492 52.1536C60.4524 53.17 60.4469 55.2053 60.4272 57.0838C60.4213 57.6466 59.891 58.1034 59.2351 58.1071L53.7448 58.1374C53.0695 58.141 52.5023 57.7068 52.4299 57.1311L51.8766 52.7095C51.8198 52.2518 52.2096 51.8402 52.7436 51.7974Z" fill="white"/>
<g opacity="0.6">
<path d="M66.0602 53.3084C65.7478 53.3059 65.5611 53.5404 65.6452 53.8299L66.2965 56.065C66.381 56.3545 66.7056 56.5873 67.018 56.5829L101.599 56.0731C101.911 56.0686 102.158 55.8187 102.146 55.5187L102.093 54.1477C102.081 53.8473 101.816 53.5995 101.503 53.597L66.0602 53.3084Z" fill="white"/>
</g>
<path d="M59.9419 88.137C59.9356 88.137 59.9293 88.1374 59.923 88.1374L53.0523 88.1754C52.0621 88.1806 51.2345 87.5374 51.1273 86.679L50.4348 81.146C50.3936 80.8165 50.4949 80.489 50.7199 80.2237C50.9713 79.927 51.3556 79.7378 51.7744 79.7038C52.3534 79.6573 53.1503 79.5801 54.0274 79.4952C55.9368 79.3104 58.1011 79.101 59.3739 79.0666C59.3831 79.0666 59.3928 79.0662 59.402 79.0658C60.3128 79.0525 61.105 79.5748 61.3346 80.3438C61.7134 81.613 61.7206 84.0227 61.6933 86.5901C61.6844 87.4326 60.9002 88.1228 59.9419 88.137ZM51.8215 80.2407C51.5537 80.2622 51.3106 80.3798 51.1546 80.5638C51.0268 80.7146 50.9688 80.8985 50.9915 81.0809L51.684 86.6139C51.7572 87.2002 52.3442 87.6392 53.0493 87.6356L59.9201 87.5976C59.9243 87.5976 59.9289 87.5976 59.9335 87.5972C60.5903 87.5875 61.1269 87.1355 61.1328 86.584C61.1597 84.0578 61.1538 81.691 60.7959 80.4914C60.637 79.9597 60.0336 79.5793 59.3898 79.6043C58.1372 79.6379 55.8897 79.8554 54.0837 80.0301C53.2028 80.1166 52.4026 80.1938 51.8215 80.2407Z" fill="white"/>
<path opacity="0.6" d="M52.5679 80.7861C54.0093 80.6701 57.1411 80.3175 58.6284 80.2779C59.2587 80.2609 59.8171 80.6192 59.9735 81.1423C60.2771 82.1588 60.2712 84.1941 60.2514 86.0725C60.2456 86.6353 59.7153 87.0922 59.0594 87.0958L53.5691 87.1262C52.8938 87.1298 52.3266 86.6956 52.2542 86.1202L51.7009 81.6987C51.6437 81.2406 52.0335 80.8294 52.5679 80.7861Z" fill="white"/>
<g opacity="0.6">
<path d="M65.8844 82.2971C65.572 82.2947 65.3853 82.5292 65.4694 82.8187L66.1207 85.0537C66.2052 85.3432 66.5299 85.5761 66.8423 85.5717L101.423 85.0618C101.735 85.0574 101.982 84.8079 101.97 84.5075L101.917 83.1365C101.905 82.8361 101.64 82.5882 101.328 82.5858L65.8844 82.2971Z" fill="white"/>
</g>
<path d="M59.5153 101.741C59.5094 101.741 59.5031 101.741 59.4972 101.741L52.6265 101.779C51.6367 101.785 50.8092 101.141 50.7015 100.283L50.009 94.7495C49.9678 94.4204 50.0691 94.0929 50.2941 93.8273C50.5455 93.5305 50.9299 93.3413 51.3487 93.3069C51.9272 93.2604 52.7232 93.1836 53.5995 93.0987C55.4156 92.9228 57.6753 92.7045 58.9485 92.6701C59.8521 92.6523 60.6767 93.1703 60.9088 93.9469C61.2877 95.2161 61.2944 97.6258 61.2675 100.193C61.2587 101.036 60.4744 101.726 59.5153 101.741ZM51.3958 93.8442C51.1279 93.8657 50.8849 93.9837 50.7289 94.1677C50.601 94.3189 50.543 94.5025 50.5657 94.6848L51.2583 100.218C51.3314 100.804 51.9184 101.244 52.6231 101.24L59.4939 101.202C60.1414 101.181 60.7007 100.743 60.707 100.188C60.7339 97.6622 60.728 95.2957 60.3697 94.0957C60.2112 93.5645 59.6078 93.1909 58.9636 93.2091C57.7106 93.2422 55.4618 93.4601 53.655 93.6348C52.7762 93.7201 51.9764 93.7973 51.3958 93.8442Z" fill="white"/>
<path opacity="0.6" d="M52.1425 94.3897C53.5839 94.2736 56.7157 93.9211 58.2029 93.8814C58.8332 93.8645 59.3916 94.2227 59.5481 94.7459C59.8512 95.7623 59.8458 97.7976 59.826 99.6761C59.8201 100.239 59.2899 100.695 58.6339 100.699L53.1432 100.729C52.4679 100.733 51.9007 100.299 51.8284 99.7229L51.275 95.3014C51.2183 94.8441 51.608 94.4325 52.1425 94.3897Z" fill="white"/>
<g opacity="0.6">
<path d="M65.4586 95.9007C65.1462 95.8982 64.9595 96.1327 65.0436 96.4222L65.6949 98.6573C65.7795 98.9468 66.1041 99.1796 66.4165 99.1752L100.997 98.6653C101.31 98.6609 101.556 98.411 101.544 98.111L101.491 96.74C101.479 96.4396 101.215 96.1918 100.902 96.1893L65.4586 95.9007Z" fill="white"/>
</g>
<path d="M58.9576 115.771C58.9513 115.771 58.945 115.771 58.9386 115.771L52.0679 115.809C51.0777 115.815 50.2502 115.171 50.1429 114.313L49.4504 108.78C49.4092 108.45 49.5105 108.123 49.7355 107.857C49.9869 107.561 50.3713 107.371 50.7901 107.337C51.3691 107.291 52.1659 107.214 53.043 107.129C54.9524 106.944 57.1167 106.735 58.3899 106.7C59.3234 106.698 60.1185 107.201 60.3502 107.977C60.7291 109.246 60.7362 111.656 60.7089 114.224C60.7001 115.066 59.9163 115.757 58.9576 115.771ZM50.8372 107.875C50.5693 107.896 50.3263 108.014 50.1703 108.198C50.042 108.349 49.9844 108.533 50.0071 108.715L50.6997 114.248C50.7728 114.835 51.3598 115.274 52.065 115.27L58.9357 115.232C58.9399 115.232 58.9445 115.232 58.9492 115.232C59.606 115.222 60.1425 114.77 60.1484 114.218C60.1753 111.692 60.1694 109.325 59.8116 108.126C59.6526 107.595 59.0497 107.227 58.4055 107.239C57.1528 107.273 54.9053 107.49 53.0989 107.665C52.2189 107.751 51.4183 107.828 50.8372 107.875Z" fill="white"/>
<path opacity="0.6" d="M51.5875 108.42C53.0289 108.304 56.1607 107.952 57.6479 107.912C58.2782 107.895 58.837 108.253 58.993 108.776C59.2962 109.793 59.2907 111.828 59.271 113.707C59.2651 114.269 58.7349 114.726 58.0789 114.73L52.5886 114.76C51.9133 114.764 51.3457 114.33 51.2738 113.754L50.7204 109.332C50.6632 108.875 51.053 108.463 51.5875 108.42Z" fill="white"/>
<g opacity="0.6">
<path d="M64.9039 109.931C64.5915 109.929 64.4048 110.163 64.4889 110.453L65.1402 112.688C65.2248 112.977 65.5494 113.21 65.8618 113.206L100.442 112.696C100.755 112.691 101.001 112.442 100.99 112.141L100.937 110.77C100.925 110.47 100.66 110.222 100.347 110.22L64.9039 109.931Z" fill="white"/>
</g>
<path d="M79.1074 19.7459C76.9288 18.235 75.011 18.233 73.6549 18.5936C72.4179 18.9227 71.5996 20.0524 71.6951 21.2835L72.1689 27.4012L79.0838 28.1055C79.0834 28.1059 83.3799 22.7091 79.1074 19.7459ZM75.9743 24.6239C75.0207 24.6082 74.2609 23.8521 74.2768 22.9351C74.2932 22.0181 75.0795 21.2871 76.0332 21.3029C76.9869 21.3187 77.7471 22.0747 77.7307 22.9917C77.7143 23.9087 76.928 24.6397 75.9743 24.6239Z" fill="#D58D2F"/>
<path d="M72.783 24.9903C72.6632 24.9458 72.5745 24.8383 72.5644 24.7069L72.4891 23.7325C72.4752 23.5509 72.6165 23.3928 72.8057 23.3791C72.9945 23.3653 73.1594 23.5012 73.1732 23.6835L73.2485 24.6579C73.2624 24.8395 73.1207 24.9976 72.9319 25.0113C72.8793 25.0153 72.8289 25.0073 72.783 24.9903ZM72.635 23.0811C72.5152 23.0366 72.4265 22.9291 72.4164 22.7977L72.3592 22.0578C72.2621 20.8048 73.1018 19.6534 74.3552 19.3198C75.2134 19.0914 76.0944 19.0711 76.9732 19.2592C77.1552 19.3012 77.2747 19.4751 77.2335 19.653C77.1922 19.8308 77.0089 19.9428 76.8239 19.9032C76.0561 19.7387 75.2866 19.7565 74.5381 19.9554C73.5992 20.2052 72.9706 21.0684 73.0433 22.0089L73.1005 22.7488C73.1144 22.9303 72.9727 23.0884 72.7839 23.1021C72.7317 23.1058 72.6809 23.0981 72.635 23.0811Z" fill="white"/>
<path d="M62.6445 31.194L62.6988 28.1228C62.7173 27.0627 63.6465 26.2286 64.7474 26.2828L86.7547 27.3688C87.7315 27.4169 88.5098 28.1717 88.5515 29.1109L88.6831 32.0648L62.6445 31.194Z" fill="#D58D2F"/>
<path d="M70.925 27.5175C70.9242 27.5175 70.9233 27.5175 70.9225 27.5175L69.9756 27.5022C69.8969 27.5009 69.8347 27.4387 69.836 27.3635C69.8372 27.2887 69.9007 27.2292 69.9781 27.2292C69.9789 27.2292 69.9798 27.2292 69.9806 27.2292L70.9275 27.2446C71.0062 27.2458 71.0684 27.3081 71.0671 27.3833C71.0659 27.4577 71.0024 27.5175 70.925 27.5175Z" fill="white"/>
<path d="M63.7352 30.3962C63.6048 30.3477 63.5132 30.2252 63.5157 30.0829L63.5375 28.8404C63.5464 28.3302 63.7617 27.8543 64.143 27.4997C64.5244 27.1451 65.0269 26.9543 65.5576 26.9632L69.0392 27.0202C69.2275 27.0238 69.3798 27.1734 69.3764 27.3558C69.373 27.5381 69.217 27.6829 69.0274 27.68L65.5458 27.6226C64.8289 27.6109 64.2355 28.162 64.2234 28.8517L64.2015 30.0942C64.1981 30.2765 64.0421 30.4213 63.8525 30.4184C63.8113 30.4176 63.7718 30.4095 63.7352 30.3962Z" fill="#F8F8F8"/>
<path d="M55.7643 29.9568L94.2707 30.5868C95.6553 30.6094 96.8222 31.5866 97.0349 32.9027L97.0644 33.0842C97.2977 34.5252 96.1237 35.8206 94.6071 35.7959L55.1016 35.1486C54.1938 35.1337 53.4836 34.3922 53.5425 33.5213L53.6577 31.8223C53.73 30.7598 54.6572 29.9386 55.7643 29.9568Z" fill="black"/>
<path d="M81.0247 79.9145C80.7779 88.3901 79.9773 117.625 80.3595 127.985C80.3999 129.083 81.4334 129.963 82.7226 129.999C89.0993 130.177 112.475 130.627 122.905 130.255C125.077 130.177 126.805 128.679 126.85 126.828C127.067 117.932 127.545 92.9115 126.409 81.4493C126.272 80.0758 125.006 78.9821 123.395 78.8451C116.451 78.2536 92.9745 76.8082 83.9635 77.3059C82.3387 77.3952 81.0651 78.5285 81.0247 79.9145Z" fill="url(#paint2_linear_86_1292)"/>
<path d="M83.8715 81.8888C83.5284 83.8699 82.4456 90.4598 82.7891 92.897C82.8392 93.2532 83.9783 93.5411 85.4214 93.5621C91.3641 93.6478 111.639 93.837 120.355 93.6648C121.925 93.6336 123.157 93.3207 123.241 92.9334C123.683 90.9122 124.951 84.776 124.622 82.3663C124.569 81.9818 123.361 81.668 121.807 81.6337C115.378 81.4913 93.834 81.1529 86.4272 81.2524C85.0366 81.271 83.9308 81.5459 83.8715 81.8888Z" fill="url(#paint3_linear_86_1292)"/>
<path opacity="0.2" d="M121.913 83.6099C121.598 83.2962 121.165 83.1162 120.712 83.109L87.3162 82.5987C86.4235 82.585 85.67 83.2343 85.5867 84.089L84.8929 91.213C84.8362 91.7964 85.834 92.2873 87.1064 92.3022L119.939 92.6847C121.209 92.6997 122.259 92.2335 122.27 91.6505L122.394 84.7808C122.402 84.345 122.229 83.9237 121.913 83.6099Z" fill="white"/>
<path d="M91.8558 100.696C91.8558 101.963 90.7873 102.991 89.4695 102.991H86.5699C85.2521 102.991 84.1836 101.963 84.1836 100.696V100.64C84.1836 99.3733 85.2521 98.3459 86.5699 98.3459H89.4695C90.7873 98.3459 91.8558 99.3733 91.8558 100.64V100.696Z" fill="url(#paint4_linear_86_1292)"/>
<path d="M102.657 100.696C102.657 101.963 101.588 102.991 100.27 102.991H97.3706C96.0528 102.991 94.9844 101.963 94.9844 100.696V100.64C94.9844 99.3733 96.0528 98.3459 97.3706 98.3459H100.27C101.588 98.3459 102.657 99.3733 102.657 100.64V100.696Z" fill="url(#paint5_linear_86_1292)"/>
<path d="M113.028 100.696C113.028 101.963 111.959 102.991 110.641 102.991H107.742C106.424 102.991 105.355 101.963 105.355 100.696V100.64C105.355 99.3733 106.424 98.3459 107.742 98.3459H110.641C111.959 98.3459 113.028 99.3733 113.028 100.64V100.696Z" fill="url(#paint6_linear_86_1292)"/>
<path d="M123.462 100.947C123.462 102.235 122.376 103.279 121.037 103.279H118.23C116.89 103.279 115.805 102.235 115.805 100.947C115.805 99.6592 116.89 98.6152 118.23 98.6152H121.037C122.376 98.6152 123.462 99.6592 123.462 100.947Z" fill="url(#paint7_linear_86_1292)"/>
<path opacity="0.63" d="M91.8558 107.937C91.8558 109.204 90.7873 110.231 89.4695 110.231H86.5699C85.2521 110.231 84.1836 109.204 84.1836 107.937V107.881C84.1836 106.614 85.2521 105.586 86.5699 105.586H89.4695C90.7873 105.586 91.8558 106.614 91.8558 107.881V107.937Z" fill="url(#paint8_linear_86_1292)"/>
<path opacity="0.63" d="M102.657 107.937C102.657 109.204 101.588 110.231 100.27 110.231H97.3706C96.0528 110.231 94.9844 109.204 94.9844 107.937V107.881C94.9844 106.614 96.0528 105.586 97.3706 105.586H100.27C101.588 105.586 102.657 106.614 102.657 107.881V107.937Z" fill="url(#paint9_linear_86_1292)"/>
<path opacity="0.63" d="M113.028 107.937C113.028 109.204 111.959 110.231 110.641 110.231H107.742C106.424 110.231 105.355 109.204 105.355 107.937V107.881C105.355 106.614 106.424 105.586 107.742 105.586H110.641C111.959 105.586 113.028 106.614 113.028 107.881V107.937Z" fill="url(#paint10_linear_86_1292)"/>
<path d="M123.684 107.937C123.684 109.204 122.615 110.231 121.298 110.231H118.398C117.08 110.231 116.012 109.204 116.012 107.937V107.881C116.012 106.614 117.08 105.586 118.398 105.586H121.298C122.615 105.586 123.684 106.614 123.684 107.881V107.937Z" fill="url(#paint11_linear_86_1292)"/>
<path opacity="0.63" d="M91.8558 114.631C91.8558 115.898 90.7873 116.925 89.4695 116.925H86.5699C85.2521 116.925 84.1836 115.898 84.1836 114.631V114.575C84.1836 113.308 85.2521 112.281 86.5699 112.281H89.4695C90.7873 112.281 91.8558 113.308 91.8558 114.575V114.631Z" fill="url(#paint12_linear_86_1292)"/>
<path opacity="0.63" d="M102.657 114.631C102.657 115.898 101.588 116.925 100.27 116.925H97.3706C96.0528 116.925 94.9844 115.898 94.9844 114.631V114.575C94.9844 113.308 96.0528 112.281 97.3706 112.281H100.27C101.588 112.281 102.657 113.308 102.657 114.575V114.631Z" fill="url(#paint13_linear_86_1292)"/>
<path opacity="0.63" d="M113.028 114.631C113.028 115.898 111.959 116.925 110.641 116.925H107.742C106.424 116.925 105.355 115.898 105.355 114.631V114.575C105.355 113.308 106.424 112.281 107.742 112.281H110.641C111.959 112.281 113.028 113.308 113.028 114.575V114.631Z" fill="url(#paint14_linear_86_1292)"/>
<path opacity="0.63" d="M91.8558 121.598C91.8558 122.865 90.7873 123.892 89.4695 123.892H86.5699C85.2521 123.892 84.1836 122.865 84.1836 121.598V121.542C84.1836 120.275 85.2521 119.248 86.5699 119.248H89.4695C90.7873 119.248 91.8558 120.275 91.8558 121.542V121.598Z" fill="url(#paint15_linear_86_1292)"/>
<path opacity="0.63" d="M102.657 121.598C102.657 122.865 101.588 123.892 100.27 123.892H97.3706C96.0528 123.892 94.9844 122.865 94.9844 121.598V121.542C94.9844 120.275 96.0528 119.248 97.3706 119.248H100.27C101.588 119.248 102.657 120.275 102.657 121.542V121.598Z" fill="url(#paint16_linear_86_1292)"/>
<path opacity="0.63" d="M113.028 121.598C113.028 122.865 111.959 123.892 110.641 123.892H107.742C106.424 123.892 105.355 122.865 105.355 121.598V121.542C105.355 120.275 106.424 119.248 107.742 119.248H110.641C111.959 119.248 113.028 120.275 113.028 121.542V121.598Z" fill="url(#paint17_linear_86_1292)"/>
<path d="M122.689 120.988C122.689 122.592 121.337 123.892 119.669 123.892H119.458C117.79 123.892 116.438 122.592 116.438 120.988V115.458C116.438 113.854 117.79 112.553 119.458 112.553H119.669C121.337 112.553 122.689 113.854 122.689 115.458V120.988Z" fill="black"/>
<path d="M72.5149 56.1717C75.2283 56.1717 77.4283 54.0563 77.4283 51.4473C77.4283 48.8383 75.2283 46.7229 72.5149 46.7229C69.8015 46.7229 67.6016 48.8383 67.6016 51.4473C67.6016 54.0563 69.8015 56.1717 72.5149 56.1717Z" fill="url(#paint18_linear_86_1292)"/>
<path opacity="0.78" d="M68.4624 49.6213C68.4409 49.6213 68.4191 49.6165 68.3985 49.6068C68.3282 49.5728 68.3001 49.4907 68.3358 49.4232C69.1368 47.8973 70.7381 46.9492 72.5142 46.9492C72.7976 46.9492 73.0818 46.9739 73.3581 47.0224C73.435 47.0357 73.4863 47.1069 73.4725 47.1813C73.4586 47.2557 73.3842 47.3058 73.3072 47.2913C73.0478 47.2456 72.7808 47.2225 72.5146 47.2225C70.8461 47.2225 69.3425 48.1128 68.5898 49.5461C68.5641 49.5938 68.5141 49.6213 68.4624 49.6213Z" fill="white"/>
<path opacity="0.78" d="M76.6714 52.475C77.1991 50.3261 75.8153 48.1723 73.58 47.6649C71.3447 47.1571 69.1048 48.4881 68.577 50.6374C68.0493 52.7868 69.4336 54.9401 71.6685 55.4479C73.9038 55.9554 76.1437 54.6244 76.6714 52.475Z" fill="white"/>
<path d="M72.2126 54.5229V54.0879C71.7408 54.0697 71.2745 53.9625 70.9431 53.823C70.825 53.7733 70.7644 53.6456 70.7985 53.5259L70.9133 53.1208C70.9553 52.972 71.1235 52.8951 71.2715 52.9546C71.6004 53.0872 72.0061 53.1919 72.4438 53.1919C72.898 53.1919 73.2369 53.0439 73.2369 52.7403C73.2369 52.4666 72.9749 52.3036 72.3438 52.1407C71.4431 51.9038 70.796 51.5261 70.796 50.7636C70.796 50.0751 71.3195 49.5495 72.2281 49.4088V48.9737C72.2281 48.8338 72.3463 48.7202 72.4918 48.7202H72.7575C72.903 48.7202 73.0212 48.8338 73.0212 48.9737V49.3643C73.4576 49.3813 73.7751 49.4528 74.0274 49.5381C74.1565 49.5818 74.2271 49.7156 74.1914 49.8426L74.0858 50.2174C74.0451 50.3617 73.8844 50.441 73.7389 50.388C73.5068 50.3035 73.1784 50.2158 72.7521 50.2158C72.213 50.2158 72.0591 50.4305 72.0591 50.6229C72.0591 50.8598 72.3825 51.0228 73.083 51.2302C74.0842 51.5189 74.4996 51.9187 74.4996 52.6368C74.4996 53.2958 73.9912 53.8881 73.006 54.0361V54.5229C73.006 54.6628 72.8879 54.7764 72.7424 54.7764H72.4766C72.3303 54.7764 72.2126 54.6628 72.2126 54.5229Z" fill="url(#paint19_linear_86_1292)"/>
<path d="M86.9832 53.8768C91.7073 53.8768 95.5367 50.1947 95.5367 45.6523C95.5367 41.1098 91.7073 37.4277 86.9832 37.4277C82.259 37.4277 78.4297 41.1098 78.4297 45.6523C78.4297 50.1947 82.259 53.8768 86.9832 53.8768Z" fill="url(#paint20_linear_86_1292)"/>
<path opacity="0.78" d="M79.9272 42.3725C79.9058 42.3725 79.8839 42.3676 79.8633 42.3579C79.7931 42.324 79.7649 42.2419 79.8007 42.1744C81.1769 39.5524 83.9282 37.9238 86.9805 37.9238C87.4678 37.9238 87.956 37.9659 88.4303 38.0492C88.5072 38.0625 88.5585 38.1337 88.5447 38.2081C88.5304 38.2821 88.4572 38.3326 88.3794 38.318C87.9215 38.238 87.451 38.1971 86.9805 38.1971C84.0358 38.1971 81.3821 39.7683 80.0542 42.2977C80.0294 42.345 79.9794 42.3725 79.9272 42.3725Z" fill="white"/>
<path opacity="0.78" d="M92.2882 50.7534C95.1155 48.0352 95.1155 43.6278 92.2882 40.9092C89.4608 38.1908 84.8771 38.1908 82.0502 40.9092C79.2229 43.6278 79.2229 48.0352 82.0502 50.7534C84.8771 53.472 89.4608 53.472 92.2882 50.7534Z" fill="white"/>
<path d="M86.4588 51.0061V50.2489C85.6376 50.2173 84.8257 50.0309 84.2488 49.7879C84.0427 49.7014 83.9376 49.479 83.9969 49.2704L84.197 48.5649C84.2706 48.3061 84.5633 48.1723 84.8202 48.2758C85.3925 48.5063 86.0989 48.689 86.8608 48.689C87.6518 48.689 88.2413 48.4311 88.2413 47.9026C88.2413 47.4259 87.7855 47.1421 86.6863 46.8587C85.1179 46.4463 83.9923 45.7889 83.9923 44.4615C83.9923 43.2627 84.9039 42.3478 86.4853 42.1032V41.3459C86.4853 41.1021 86.6909 40.9048 86.9441 40.9048H87.407C87.6606 40.9048 87.8658 41.1025 87.8658 41.3459V42.0259C88.6256 42.0551 89.1785 42.18 89.6175 42.3284C89.8425 42.4044 89.9653 42.6373 89.903 42.8584L89.7189 43.511C89.6478 43.7625 89.3682 43.9003 89.1146 43.8082C88.7105 43.6614 88.1391 43.5082 87.3965 43.5082C86.4584 43.5082 86.1901 43.8817 86.1901 44.2169C86.1901 44.6293 86.7532 44.9127 87.973 45.2738C89.7155 45.7763 90.4392 46.4722 90.4392 47.7227C90.4392 48.8697 89.5544 49.9007 87.8389 50.1587V51.0061C87.8389 51.2499 87.6333 51.4472 87.3801 51.4472H86.9172C86.6645 51.4472 86.4588 51.2499 86.4588 51.0061Z" fill="url(#paint21_linear_86_1292)"/>
<path d="M93.0824 73.116C97.9432 73.116 101.884 69.3272 101.884 64.6533C101.884 59.9795 97.9432 56.1907 93.0824 56.1907C88.2216 56.1907 84.2812 59.9795 84.2812 64.6533C84.2812 69.3272 88.2216 73.116 93.0824 73.116Z" fill="url(#paint22_linear_86_1292)"/>
<path opacity="0.78" d="M85.8257 61.2749C85.8042 61.2749 85.7824 61.2701 85.7618 61.2603C85.6915 61.2264 85.6634 61.1443 85.6991 61.0768C87.1145 58.38 89.9443 56.705 93.0832 56.705C93.5845 56.705 94.0861 56.7486 94.5743 56.8339C94.6512 56.8473 94.7025 56.9184 94.6886 56.9928C94.6748 57.0668 94.6003 57.1169 94.5234 57.1028C94.0516 57.0199 93.5672 56.9783 93.0832 56.9783C90.052 56.9783 87.3197 58.5959 85.9527 61.1997C85.9274 61.2474 85.8774 61.2749 85.8257 61.2749Z" fill="white"/>
<path opacity="0.78" d="M98.5411 69.903C101.45 67.1059 101.45 62.5708 98.5411 59.7733C95.6317 56.9763 90.9151 56.9763 88.0062 59.7733C85.0969 62.5708 85.0969 67.1059 88.0062 69.903C90.9151 72.7004 95.6317 72.7004 98.5411 69.903Z" fill="white"/>
<path d="M92.546 70.1629V69.3838C91.7012 69.3514 90.8653 69.1594 90.272 68.9095C90.0601 68.8202 89.952 68.5917 90.013 68.3771L90.219 67.6513C90.2947 67.3849 90.5958 67.2474 90.8603 67.3541C91.449 67.5915 92.176 67.7791 92.9598 67.7791C93.7734 67.7791 94.3802 67.5139 94.3802 66.97C94.3802 66.4792 93.9113 66.1877 92.7802 65.8958C91.1664 65.4713 90.008 64.7948 90.008 63.4291C90.008 62.1955 90.9461 61.2543 92.5733 61.002V60.2225C92.5733 59.9718 92.7848 59.7684 93.0455 59.7684H93.5215C93.7822 59.7684 93.9937 59.9718 93.9937 60.2225V60.9223C94.7754 60.9523 95.3447 61.0808 95.7963 61.2337C96.0276 61.3117 96.1542 61.5515 96.0898 61.7791L95.9006 62.4502C95.8275 62.709 95.5399 62.8509 95.2792 62.7559C94.8633 62.6047 94.2755 62.4474 93.5114 62.4474C92.546 62.4474 92.2702 62.8319 92.2702 63.1768C92.2702 63.6013 92.8496 63.8928 94.1043 64.2644C95.8973 64.7815 96.6419 65.4975 96.6419 66.7841C96.6419 67.9643 95.7316 69.0252 93.9664 69.2904V70.1625C93.9664 70.4132 93.7549 70.6165 93.4942 70.6165H93.0178C92.7575 70.6169 92.546 70.4136 92.546 70.1629Z" fill="url(#paint23_linear_86_1292)"/>
<path d="M104.761 58.9295C108.323 58.9295 111.21 56.1535 111.21 52.729C111.21 49.3045 108.323 46.5284 104.761 46.5284C101.2 46.5284 98.3125 49.3045 98.3125 52.729C98.3125 56.1535 101.2 58.9295 104.761 58.9295Z" fill="url(#paint24_linear_86_1292)"/>
<path opacity="0.78" d="M99.4468 50.2897C99.4253 50.2897 99.4034 50.2849 99.3828 50.2751C99.3126 50.2412 99.2845 50.1591 99.3202 50.0916C100.364 48.1036 102.45 46.8684 104.765 46.8684C105.134 46.8684 105.504 46.9004 105.864 46.9634C105.941 46.9768 105.992 47.0479 105.979 47.1223C105.965 47.1963 105.89 47.2468 105.813 47.2323C105.471 47.1725 105.118 47.1417 104.765 47.1417C102.558 47.1417 100.569 48.3191 99.5746 50.2145C99.5489 50.2622 99.4989 50.2897 99.4468 50.2897Z" fill="white"/>
<path opacity="0.78" d="M108.762 56.5751C110.894 54.5257 110.894 51.203 108.762 49.1536C106.631 47.1041 103.175 47.1041 101.044 49.1536C98.9125 51.203 98.9125 54.5257 101.044 56.5751C103.175 58.6246 106.631 58.6246 108.762 56.5751Z" fill="white"/>
<path d="M104.368 56.7655V56.1946C103.749 56.1708 103.137 56.0305 102.702 55.8473C102.547 55.7818 102.468 55.6145 102.513 55.4572L102.663 54.9255C102.719 54.7302 102.939 54.6296 103.134 54.7076C103.565 54.8814 104.098 55.0189 104.672 55.0189C105.268 55.0189 105.713 54.8244 105.713 54.4262C105.713 54.0667 105.369 53.8529 104.541 53.639C103.358 53.3281 102.509 52.8324 102.509 51.8317C102.509 50.9281 103.196 50.2383 104.389 50.0535V49.4827C104.389 49.2991 104.543 49.1499 104.735 49.1499H105.084C105.275 49.1499 105.43 49.2987 105.43 49.4827V49.9953C106.003 50.0172 106.42 50.1114 106.751 50.2233C106.92 50.2808 107.013 50.4562 106.966 50.6228L106.827 51.1149C106.774 51.3045 106.563 51.4084 106.372 51.3389C106.067 51.2281 105.636 51.1128 105.077 51.1128C104.369 51.1128 104.167 51.3946 104.167 51.6473C104.167 51.9583 104.591 52.1721 105.511 52.4442C106.825 52.8231 107.37 53.3479 107.37 54.2903C107.37 55.1552 106.703 55.9326 105.41 56.1267V56.7655C105.41 56.9491 105.255 57.0983 105.064 57.0983H104.715C104.523 57.0983 104.368 56.9491 104.368 56.7655Z" fill="url(#paint25_linear_86_1292)"/>
<path d="M36.7024 127.471C36.7024 127.471 36.4459 128.867 36.3202 130.249C36.271 130.789 36.7041 131.258 37.2676 131.28C39.1816 131.357 43.2754 131.506 44.7446 131.443C44.9653 131.433 45.11 131.216 45.028 131.018C44.9594 130.853 44.8274 130.719 44.6592 130.644L37.8966 127.656L36.7024 127.471Z" fill="url(#paint26_linear_86_1292)"/>
<path d="M36.4922 126.651L36.6982 128.32C36.6982 128.32 37.8827 128.851 38.6917 128.254L38.201 126.393L36.4922 126.651Z" fill="url(#paint27_linear_86_1292)"/>
<path d="M36.6445 95.257C36.5553 95.6932 36.1668 117.018 38.5375 126.574C38.5762 126.73 38.4938 126.891 38.3395 126.951C37.9757 127.094 37.263 127.301 36.4086 127.329C36.1441 127.337 35.907 127.172 35.8321 126.928C35.1543 124.71 31.9073 113.601 31.4839 102.989C31.0104 91.1317 31.4839 102.586 31.4839 102.586L31.7614 95.2557L36.6445 95.257Z" fill="#2F2F2F"/>
<path d="M28.9214 128.199C28.9214 128.199 28.5131 128.904 28.1179 130.777C28.0464 131.115 28.2924 131.438 28.6493 131.472C29.2813 131.532 30.2543 131.609 31.0335 131.604C31.3926 131.601 31.6731 131.301 31.6297 130.958C31.5435 130.274 31.2744 129.152 30.4436 128.278L28.9214 128.199Z" fill="url(#paint28_linear_86_1292)"/>
<path d="M28.5625 126.051L29.044 128.576C29.044 128.576 29.5199 128.917 30.4618 128.67L30.2322 125.953L28.5625 126.051Z" fill="url(#paint29_linear_86_1292)"/>
<path d="M27.262 95.9115C25.3232 107.163 27.6825 123.72 28.4785 126.96C28.5273 127.159 28.6938 127.311 28.9028 127.344C29.2581 127.401 29.8425 127.447 30.4194 127.286C30.6179 127.23 30.7575 127.058 30.7659 126.859C30.8727 124.239 30.6806 108.156 32.487 101.799C32.5786 101.477 32.783 101.196 33.066 101.003L36.5724 98.6059L36.8411 94.7313L27.262 95.9115Z" fill="#2F2F2F"/>
<path d="M39.6174 74.5925C33.8071 74.5003 27.396 76.0593 27.396 76.0593C25.664 85.7766 27.0933 96.985 27.0933 96.985C31.5916 98.1191 36.666 96.2916 36.666 96.2916C37.4136 92.2298 40.902 80.7995 40.902 80.7995C43.7411 80.4607 46.0794 79.6731 48.0056 78.632C46.5364 76.9945 45.8439 74.9111 45.5433 73.6796C43.4883 74.2933 41.4095 74.6212 39.6174 74.5925Z" fill="url(#paint30_linear_86_1292)"/>
<path d="M56.7804 66.3636C56.2098 65.7005 55.4874 66.0142 55.4874 66.0142C54.6326 69.4873 50.149 72.3029 45.543 73.6796C45.8436 74.9111 46.5362 76.9946 48.0053 78.632C55.6493 74.4991 56.7804 66.3636 56.7804 66.3636Z" fill="url(#paint31_linear_86_1292)"/>
<path d="M56.6428 66.5321C56.7025 66.7149 56.0108 66.9926 55.6037 66.2459C55.5894 65.888 55.3632 64.3549 55.5857 64.0634C56.7702 62.5108 59.0664 60.5645 59.0664 60.5645C59.4546 60.9328 59.135 61.2942 59.135 61.2942L58.0211 62.4101C58.2541 62.8149 58.5383 63.1569 58.6716 63.6465C58.7725 64.0173 58.7107 64.4135 58.516 64.7511C58.3205 65.0899 58.0535 65.5302 57.8016 65.8747C57.3231 66.5269 56.6428 66.5321 56.6428 66.5321Z" fill="url(#paint32_linear_86_1292)"/>
<path d="M57.533 63.1343L56.5179 63.9619L56.1992 64.7859L57.1045 65.7514C57.1045 65.7514 57.409 64.1168 57.6352 63.763C57.8614 63.4092 57.7432 63.2378 57.533 63.1343Z" fill="url(#paint33_linear_86_1292)"/>
<path d="M29.6227 81.4695L27.3941 76.0598C27.3941 76.0598 21.9669 79.6056 21.0742 84.1012C22.0998 84.174 23.9659 84.4303 25.7921 85.317C26.1936 83.1939 29.6227 81.4695 29.6227 81.4695Z" fill="url(#paint34_linear_86_1292)"/>
<path d="M34.368 86.5598C34.368 86.5598 28.2747 89.8711 26.2186 87.0438C25.7918 86.4567 25.6896 85.8733 25.7947 85.317C23.9681 84.4303 22.102 84.1736 21.0769 84.1012C20.8078 85.4565 20.9499 86.8978 21.7782 88.3546C25.3797 94.6893 35.1745 88.0044 35.1745 88.0044L34.368 86.5598Z" fill="url(#paint35_linear_86_1292)"/>
<path d="M33.6344 90.7489L36.96 79.5818C36.9979 79.4548 37.1101 79.3626 37.2464 79.3473C37.8489 79.2798 39.5948 79.0901 41.6106 78.926C44.0389 78.7287 46.8586 78.5686 48.5435 78.7044C48.7832 78.7238 48.9278 78.9672 48.8215 79.1746C47.8632 81.0385 43.922 88.621 41.9482 91.1047C41.8827 91.1872 41.7817 91.2349 41.6741 91.2341L33.9582 91.1649C33.7336 91.1637 33.5726 90.9563 33.6344 90.7489Z" fill="#7D97F4"/>
<path d="M41.9568 77.9581L44.3678 77.5719C44.496 77.5513 44.6016 77.6694 44.5604 77.7882L44.3215 78.4837C44.3009 78.5443 44.2458 78.588 44.1802 78.5965L41.8601 78.8944C41.7402 78.9098 41.641 78.8051 41.6688 78.6915L41.8164 78.0842C41.8323 78.0187 41.8878 77.969 41.9568 77.9581Z" fill="#D58D2F"/>
<path d="M40.1488 79.9206L40.3473 78.9256C40.3671 78.8257 40.4529 78.7505 40.558 78.74L45.428 78.2649C45.592 78.2487 45.7232 78.3935 45.6849 78.5475L45.3754 79.7871C45.3506 79.8862 45.2611 79.9582 45.1551 79.963L40.3965 80.1935C40.2409 80.2012 40.1198 80.0673 40.1488 79.9206Z" fill="#D58D2F"/>
<path d="M34.438 88.0509C34.438 88.0509 33.9746 86.2194 34.1617 85.5697C34.3484 84.9199 34.7104 84.0842 35.9172 84.2698C37.124 84.4554 38.5478 84.9442 38.5478 84.9442C38.5478 84.9442 38.4759 85.7908 37.5588 85.5175L38.1277 85.9408C38.1277 85.9408 38.0466 86.6185 37.2716 86.2566L37.8006 86.8178C37.8006 86.8178 37.468 87.3745 36.8978 87.0175C36.3276 86.6605 36.0543 88.2717 34.438 88.0509Z" fill="url(#paint36_linear_86_1292)"/>
<path d="M33.7307 70.057L31.8819 75.1978C31.8512 75.2832 31.8878 75.3774 31.9698 75.421C32.4739 75.6891 34.2896 76.4633 36.4774 75.1295C36.7053 74.9904 36.8604 74.764 36.8949 74.5065L37.4937 70.057H33.7307Z" fill="url(#paint37_linear_86_1292)"/>
<path d="M38.5032 65.4967C38.5444 65.5776 39.242 71.4906 39.242 71.4906L35.7221 71.802L34.1953 66.292C34.1949 66.292 37.8106 64.1451 38.5032 65.4967Z" fill="url(#paint38_linear_86_1292)"/>
<path d="M35.3401 67.2684L35.9077 70.2296C35.9149 70.2676 35.9271 70.3036 35.9447 70.3384C36.0532 70.5506 36.4813 71.2541 37.2033 70.7892C37.8584 70.3671 38.463 69.9915 38.9655 69.983C39.1913 69.9793 39.3826 70.1403 39.4079 70.3562C39.4709 70.8935 39.5903 72.1068 39.5264 73.1758C39.5134 73.3929 39.3284 73.5624 39.1026 73.5692C38.4218 73.589 36.985 73.5927 35.8283 73.3351C35.6714 73.3004 35.547 73.1876 35.5041 73.0384C35.2934 72.3118 34.6442 70.1063 34.3646 69.5184C34.1018 68.9669 33.2545 68.8521 32.895 68.8283C32.7772 68.8206 32.6687 68.7672 32.5931 68.6799C32.326 68.3714 31.8458 67.6141 32.8075 66.9413C33.0089 66.8006 33.0484 66.5301 32.8962 66.3409C32.5926 65.9641 32.3054 65.3346 33.0165 64.716C33.7389 64.0873 34.5172 64.3234 34.9772 64.5692C35.1631 64.6687 35.3918 64.621 35.528 64.4637C35.6054 64.3739 35.7244 64.3153 35.9069 64.359C36.1525 64.4176 36.3951 64.2494 36.43 64.0084C36.4973 63.5455 36.7655 62.9884 37.6397 62.8659C39.1909 62.6487 39.8864 64.1621 39.8086 65.2008C39.7312 66.2394 38.0354 66.383 37.088 66.1675C36.3673 66.0037 35.7118 66.6163 35.4385 66.9195C35.3514 67.0149 35.3161 67.1435 35.3401 67.2684Z" fill="url(#paint39_linear_86_1292)"/>
<path d="M34.5838 70.5943C34.5838 70.5943 34.6381 68.7793 33.8829 68.5747C33.1277 68.3701 32.2783 68.8642 32.8792 69.9793C33.626 71.3661 34.5838 70.5943 34.5838 70.5943Z" fill="url(#paint40_linear_86_1292)"/>
</g>
<path d="M99.0093 85.3906V89.5928C99.0076 89.6973 98.9557 89.797 98.8654 89.8702C98.7752 89.9431 98.6545 89.9839 98.5276 89.9831C98.4659 89.9839 98.4033 89.9742 98.3461 89.9548C98.2889 89.9357 98.2362 89.9068 98.1924 89.8705C98.1486 89.8341 98.1137 89.7906 98.0905 89.7429C98.0672 89.6952 98.0547 89.6442 98.0565 89.5928V86.0894L97.7124 86.2556C97.6391 86.2931 97.5551 86.3124 97.4693 86.3111C97.3665 86.3093 97.2673 86.28 97.1859 86.2277C97.1037 86.1753 97.0456 86.1026 97.0179 86.0204C96.9902 85.9383 96.9947 85.851 97.0313 85.7713C97.068 85.6917 97.1341 85.6238 97.2208 85.5778L98.2791 85.0502C98.2791 85.0502 98.305 85.0502 98.3139 85.0369C98.3238 85.0236 98.3399 85.0211 98.3551 85.0158H98.4069C98.4176 85.0122 98.431 85.0122 98.4418 85.0158C98.4614 85.0119 98.482 85.0119 98.5025 85.0158H98.6295C98.6491 85.0161 98.6679 85.0216 98.684 85.0316H98.7162C98.7224 85.0316 98.751 85.0527 98.7698 85.0527C98.7778 85.0624 98.7886 85.0696 98.802 85.0738C98.802 85.0738 98.8306 85.0896 98.8368 85.0977C98.8431 85.1057 98.8628 85.1187 98.8717 85.124C98.8824 85.1326 98.8905 85.1426 98.8976 85.1531L98.9325 85.182V85.2188C98.9325 85.2269 98.9521 85.2399 98.9521 85.2532V85.2876C98.9512 85.2998 98.9512 85.312 98.9521 85.3245C98.9504 85.3334 98.9504 85.3423 98.953 85.3508C98.9557 85.3595 98.9611 85.3675 98.9673 85.3747L99.0093 85.3906ZM103.99 89.5953C103.991 89.6468 103.979 89.6979 103.956 89.7456C103.933 89.7933 103.898 89.8366 103.854 89.8729C103.81 89.9094 103.757 89.9381 103.7 89.9575C103.642 89.9769 103.58 89.9864 103.519 89.9859H100.449C100.382 89.9869 100.316 89.9758 100.255 89.9534C100.194 89.9312 100.139 89.8982 100.095 89.8566C100.01 89.7801 99.9657 89.6789 99.9702 89.5752C99.9747 89.4714 100.029 89.3733 100.121 89.3024L102.67 87.3925C102.788 87.3075 102.881 87.2023 102.944 87.0844C103.007 86.9663 103.037 86.8383 103.034 86.7094C103.034 86.4808 102.933 86.2603 102.75 86.0894C102.645 85.994 102.518 85.9181 102.375 85.8667C102.232 85.8154 102.077 85.7897 101.921 85.7913C101.647 85.7922 101.382 85.8757 101.176 86.0263L100.908 86.2268C100.862 86.2617 100.808 86.2889 100.749 86.3064C100.69 86.324 100.627 86.3317 100.565 86.3289C100.502 86.3263 100.44 86.3133 100.384 86.2908C100.328 86.2681 100.277 86.2365 100.236 86.1976C100.152 86.1197 100.108 86.0176 100.115 85.9133C100.121 85.809 100.178 85.7112 100.271 85.641L100.539 85.4432C100.915 85.1556 101.409 84.9972 101.921 85C102.211 85.0003 102.496 85.0505 102.761 85.1478C103.024 85.2451 103.261 85.3869 103.454 85.5644C103.8 85.8767 103.991 86.2859 103.987 86.7094C103.987 86.9483 103.926 87.1846 103.809 87.403C103.692 87.6215 103.521 87.8174 103.308 87.9783L101.683 89.1945H103.515C103.579 89.1945 103.641 89.2048 103.699 89.225C103.757 89.2453 103.81 89.2749 103.855 89.3124C103.899 89.3498 103.933 89.3939 103.957 89.4425C103.98 89.4911 103.992 89.5431 103.99 89.5953ZM108.441 86.9743C108.643 87.1356 108.804 87.3291 108.913 87.5429C109.023 87.7569 109.078 87.987 109.078 88.2193C109.079 88.481 109.009 88.7395 108.875 88.9761C108.74 89.2128 108.544 89.4218 108.3 89.5881C108.056 89.7543 107.771 89.8736 107.463 89.9374C107.157 90.0011 106.837 90.0077 106.527 89.9567C106.113 89.8885 105.731 89.7198 105.432 89.4724C105.387 89.435 105.351 89.3906 105.326 89.3418C105.302 89.293 105.288 89.2406 105.288 89.1873C105.288 89.1343 105.302 89.0819 105.326 89.0331C105.351 88.9842 105.387 88.9398 105.432 88.9025C105.524 88.8278 105.648 88.786 105.777 88.786C105.905 88.786 106.029 88.8278 106.121 88.9025C106.228 88.9915 106.355 89.0619 106.495 89.1099C106.635 89.158 106.786 89.1826 106.937 89.182C107.246 89.1817 107.542 89.0814 107.762 88.9025C107.872 88.8134 107.959 88.7072 108.018 88.5899C108.077 88.4725 108.108 88.3463 108.107 88.2193C108.108 88.0932 108.078 87.9683 108.019 87.8521C107.96 87.7359 107.873 87.631 107.762 87.544C107.656 87.4538 107.529 87.3822 107.389 87.3334C107.249 87.2846 107.098 87.2591 106.947 87.2591C106.879 87.2619 106.812 87.2516 106.751 87.2291C106.69 87.2066 106.635 87.1726 106.593 87.1299C106.548 87.0927 106.512 87.0483 106.487 86.9998C106.463 86.9511 106.45 86.8988 106.45 86.8461C106.45 86.7934 106.463 86.7413 106.487 86.6928C106.511 86.6442 106.548 86.5999 106.593 86.5626L107.469 85.8212H106.076C105.954 85.8133 105.84 85.7672 105.757 85.6926C105.674 85.6179 105.628 85.5203 105.628 85.4191C105.628 85.3178 105.675 85.2202 105.758 85.1457C105.841 85.0713 105.954 85.0252 106.076 85.0167H108.626C108.74 85.0267 108.845 85.07 108.925 85.1386C109.003 85.2072 109.05 85.2968 109.056 85.3914C109.055 85.4585 109.034 85.5245 108.996 85.5838C108.972 85.62 108.943 85.6537 108.909 85.6843L107.826 86.6101C108.058 86.6964 108.268 86.8202 108.441 86.9743ZM115.031 88.6633C115.031 88.7153 115.019 88.7668 114.995 88.8145C114.97 88.8625 114.935 88.9059 114.89 88.9424C114.844 88.9787 114.792 89.0073 114.733 89.0264C114.675 89.0455 114.612 89.0548 114.549 89.0539H114.473V89.5973C114.473 89.7021 114.423 89.8028 114.333 89.8771C114.243 89.9515 114.122 89.993 113.995 89.993C113.868 89.9928 113.747 89.951 113.657 89.8769C113.568 89.8027 113.517 89.7022 113.517 89.5973V89.0539H110.808C110.701 89.057 110.596 89.0267 110.515 88.9693C110.465 88.9381 110.424 88.899 110.393 88.8542C110.362 88.8093 110.342 88.7599 110.335 88.7086C110.328 88.6573 110.333 88.6053 110.351 88.5558C110.369 88.5061 110.399 88.4603 110.439 88.4207L113.641 85.1312C113.652 85.123 113.661 85.1131 113.666 85.1021C113.684 85.099 113.699 85.0918 113.711 85.081C113.711 85.081 113.737 85.081 113.743 85.0599C113.759 85.0513 113.778 85.0466 113.798 85.0466C113.798 85.0308 113.814 85.0256 113.829 85.0256C113.845 85.0256 113.855 85.0256 113.884 85.0097C113.912 84.9939 113.909 85.0097 113.916 85.0097H114.062C114.077 85.0133 114.092 85.0133 114.107 85.0097C114.107 85.0097 114.142 85.0097 114.158 85.0256H114.193C114.209 85.0413 114.228 85.0466 114.234 85.0546L114.279 85.0757C114.279 85.0757 114.307 85.0757 114.307 85.0888L114.339 85.1179C114.349 85.127 114.357 85.1367 114.365 85.147C114.379 85.1568 114.39 85.1683 114.4 85.1811C114.402 85.1925 114.408 85.2031 114.419 85.2102C114.419 85.2261 114.419 85.2313 114.435 85.2524C114.451 85.2735 114.435 85.2735 114.435 85.2815C114.439 85.2954 114.439 85.3098 114.435 85.3237V88.2623H114.521C114.587 88.2587 114.653 88.2665 114.716 88.285C114.777 88.3037 114.835 88.3327 114.882 88.3702C114.93 88.4077 114.968 88.4534 114.994 88.5039C115.02 88.5543 115.032 88.6087 115.031 88.6633ZM113.517 86.5132L111.805 88.2704H113.517V86.5132ZM119.318 86.9743C119.52 87.137 119.681 87.3321 119.79 87.5473C119.9 87.7626 119.956 87.9938 119.955 88.2273C119.954 88.4592 119.896 88.6886 119.786 88.9025C119.677 89.116 119.518 89.3096 119.318 89.4724C119.122 89.6388 118.888 89.7712 118.631 89.8618C118.371 89.9523 118.094 89.9994 117.814 90H117.795C117.515 89.9995 117.239 89.9525 116.982 89.8618C116.726 89.7712 116.494 89.6388 116.3 89.4724C116.252 89.4361 116.215 89.392 116.189 89.3429C116.163 89.294 116.149 89.2411 116.149 89.1876C116.149 89.134 116.163 89.0811 116.189 89.032C116.215 88.9829 116.252 88.9388 116.3 88.9025C116.391 88.8278 116.514 88.7863 116.642 88.7863C116.771 88.7863 116.894 88.8281 116.985 88.9025C117.092 88.9928 117.22 89.0645 117.361 89.1136C117.503 89.1624 117.655 89.1876 117.807 89.1876C117.96 89.1876 118.111 89.1624 118.253 89.1136C118.395 89.0645 118.523 88.9928 118.63 88.9025C118.846 88.7233 118.97 88.481 118.974 88.2273C118.974 88.1009 118.944 87.9758 118.886 87.8591C118.828 87.7421 118.742 87.6359 118.635 87.5464C118.527 87.4572 118.399 87.3862 118.258 87.3376C118.118 87.2892 117.967 87.2643 117.814 87.2643C117.506 87.2582 117.209 87.353 116.985 87.5282C116.94 87.566 116.887 87.5959 116.828 87.6163C116.77 87.6367 116.706 87.6471 116.642 87.6469C116.578 87.6469 116.515 87.6364 116.457 87.6161C116.398 87.5957 116.344 87.5658 116.3 87.5282C116.265 87.5018 116.239 87.4649 116.204 87.4358C116.169 87.4066 116.204 87.4147 116.204 87.4147C116.209 87.4036 116.209 87.3914 116.204 87.3803V87.3146C116.198 87.2752 116.198 87.2353 116.204 87.1958L116.462 85.3492C116.486 85.2344 116.564 85.1321 116.679 85.0644H116.714C116.723 85.0644 116.73 85.0644 116.739 85.0511C116.808 85.0207 116.885 85.0053 116.963 85.0061H119.512C119.576 85.0061 119.64 85.0165 119.699 85.0369C119.758 85.0572 119.811 85.087 119.857 85.1245C119.948 85.2003 120 85.3029 120 85.4099C120 85.517 119.948 85.6196 119.857 85.6954C119.811 85.7329 119.758 85.7626 119.699 85.7829C119.64 85.8031 119.576 85.8136 119.512 85.8135H117.342L117.24 86.5177C117.428 86.475 117.622 86.4528 117.816 86.452C118.096 86.4516 118.373 86.4978 118.632 86.5876C118.889 86.6772 119.122 86.8087 119.318 86.9743Z" fill="white"/>
</g>
<defs>
<linearGradient id="paint0_linear_86_1292" x1="140.118" y1="144.075" x2="60.4062" y2="54.5957" gradientUnits="userSpaceOnUse">
<stop stop-color="#DAE3FE"/>
<stop offset="1" stop-color="#E9EFFD"/>
</linearGradient>
<linearGradient id="paint1_linear_86_1292" x1="107.022" y1="100.261" x2="130.11" y2="100.261" gradientUnits="userSpaceOnUse">
<stop stop-color="#DAE3FE"/>
<stop offset="1" stop-color="#E9EFFD"/>
</linearGradient>
<linearGradient id="paint2_linear_86_1292" x1="77.7189" y1="64.6848" x2="119.168" y2="134.577" gradientUnits="userSpaceOnUse">
<stop stop-color="#D58D2F"/>
<stop offset="0.433876" stop-color="#D58D2F"/>
<stop offset="1" stop-color="#D58D2F"/>
</linearGradient>
<linearGradient id="paint3_linear_86_1292" x1="100.412" y1="99.9409" x2="104.513" y2="82.2646" gradientUnits="userSpaceOnUse">
<stop/>
<stop offset="1" stop-color="#040404"/>
</linearGradient>
<linearGradient id="paint4_linear_86_1292" x1="84.1836" y1="100.668" x2="91.8558" y2="100.668" gradientUnits="userSpaceOnUse">
<stop offset="0.9999"/>
<stop offset="1" stop-color="#1A0F91"/>
</linearGradient>
<linearGradient id="paint5_linear_86_1292" x1="94.9844" y1="100.668" x2="102.657" y2="100.668" gradientUnits="userSpaceOnUse">
<stop offset="0.9999"/>
<stop offset="1" stop-color="#1A0F91"/>
</linearGradient>
<linearGradient id="paint6_linear_86_1292" x1="105.355" y1="100.668" x2="113.027" y2="100.668" gradientUnits="userSpaceOnUse">
<stop offset="0.9999" stop-color="#010101"/>
<stop offset="1" stop-color="#1A0F91"/>
</linearGradient>
<linearGradient id="paint7_linear_86_1292" x1="120.625" y1="72.4534" x2="119.443" y2="109.205" gradientUnits="userSpaceOnUse">
<stop stop-color="white"/>
<stop offset="1" stop-color="white"/>
</linearGradient>
<linearGradient id="paint8_linear_86_1292" x1="84.1836" y1="107.909" x2="91.8558" y2="107.909" gradientUnits="userSpaceOnUse">
<stop stop-color="#2F2F2F"/>
<stop offset="1" stop-color="#2F2F2F"/>
</linearGradient>
<linearGradient id="paint9_linear_86_1292" x1="94.9844" y1="107.909" x2="102.657" y2="107.909" gradientUnits="userSpaceOnUse">
<stop stop-color="#2F2F2F"/>
<stop offset="1" stop-color="#2F2F2F"/>
</linearGradient>
<linearGradient id="paint10_linear_86_1292" x1="105.355" y1="107.909" x2="113.027" y2="107.909" gradientUnits="userSpaceOnUse">
<stop stop-color="#2F2F2F"/>
<stop offset="1" stop-color="#2F2F2F"/>
</linearGradient>
<linearGradient id="paint11_linear_86_1292" x1="116.012" y1="107.909" x2="123.684" y2="107.909" gradientUnits="userSpaceOnUse">
<stop stop-color="#D58D2F"/>
<stop offset="0.0001" stop-color="#2F2F2F"/>
<stop offset="0.601837" stop-color="#2F2F2F"/>
</linearGradient>
<linearGradient id="paint12_linear_86_1292" x1="84.1836" y1="114.603" x2="91.8558" y2="114.603" gradientUnits="userSpaceOnUse">
<stop stop-color="#2F2F2F"/>
<stop offset="1" stop-color="#2F2F2F"/>
</linearGradient>
<linearGradient id="paint13_linear_86_1292" x1="94.9844" y1="114.603" x2="102.657" y2="114.603" gradientUnits="userSpaceOnUse">
<stop stop-color="#2F2F2F"/>
<stop offset="1" stop-color="#2F2F2F"/>
</linearGradient>
<linearGradient id="paint14_linear_86_1292" x1="105.355" y1="114.603" x2="113.027" y2="114.603" gradientUnits="userSpaceOnUse">
<stop stop-color="#2F2F2F"/>
<stop offset="1" stop-color="#2F2F2F"/>
</linearGradient>
<linearGradient id="paint15_linear_86_1292" x1="84.1836" y1="121.57" x2="91.8558" y2="121.57" gradientUnits="userSpaceOnUse">
<stop stop-color="#2F2F2F"/>
<stop offset="1" stop-color="#2F2F2F"/>
</linearGradient>
<linearGradient id="paint16_linear_86_1292" x1="94.9844" y1="121.57" x2="102.657" y2="121.57" gradientUnits="userSpaceOnUse">
<stop stop-color="#2F2F2F"/>
<stop offset="1" stop-color="#2F2F2F"/>
</linearGradient>
<linearGradient id="paint17_linear_86_1292" x1="105.355" y1="121.57" x2="113.027" y2="121.57" gradientUnits="userSpaceOnUse">
<stop stop-color="#2F2F2F"/>
<stop offset="1" stop-color="#2F2F2F"/>
</linearGradient>
<linearGradient id="paint18_linear_86_1292" x1="76.2291" y1="46.0517" x2="57.1534" y2="76.023" gradientUnits="userSpaceOnUse">
<stop stop-color="#FF928E"/>
<stop offset="1" stop-color="#FE7062"/>
</linearGradient>
<linearGradient id="paint19_linear_86_1292" x1="75.6265" y1="46.8907" x2="65.5025" y2="64.5676" gradientUnits="userSpaceOnUse">
<stop stop-color="#FF928E"/>
<stop offset="1" stop-color="#FE7062"/>
</linearGradient>
<linearGradient id="paint20_linear_86_1292" x1="93.4494" y1="36.2594" x2="60.2416" y2="88.4338" gradientUnits="userSpaceOnUse">
<stop stop-color="#FF928E"/>
<stop offset="1" stop-color="#FE7062"/>
</linearGradient>
<linearGradient id="paint21_linear_86_1292" x1="92.4024" y1="37.7199" x2="74.778" y2="68.4917" gradientUnits="userSpaceOnUse">
<stop stop-color="#FF928E"/>
<stop offset="1" stop-color="#FE7062"/>
</linearGradient>
<linearGradient id="paint22_linear_86_1292" x1="99.7358" y1="54.9887" x2="65.5654" y2="108.675" gradientUnits="userSpaceOnUse">
<stop stop-color="#FF928E"/>
<stop offset="1" stop-color="#FE7062"/>
</linearGradient>
<linearGradient id="paint23_linear_86_1292" x1="98.662" y1="56.4915" x2="80.5267" y2="88.1554" gradientUnits="userSpaceOnUse">
<stop stop-color="#FF928E"/>
<stop offset="1" stop-color="#FE7062"/>
</linearGradient>
<linearGradient id="paint24_linear_86_1292" x1="109.636" y1="45.6474" x2="84.5998" y2="84.9835" gradientUnits="userSpaceOnUse">
<stop stop-color="#FF928E"/>
<stop offset="1" stop-color="#FE7062"/>
</linearGradient>
<linearGradient id="paint25_linear_86_1292" x1="108.849" y1="46.7487" x2="95.5612" y2="69.9484" gradientUnits="userSpaceOnUse">
<stop stop-color="#FF928E"/>
<stop offset="1" stop-color="#FE7062"/>
</linearGradient>
<linearGradient id="paint26_linear_86_1292" x1="44.5301" y1="125.541" x2="20.8151" y2="152.369" gradientUnits="userSpaceOnUse">
<stop stop-color="#D58D2F"/>
<stop offset="1" stop-color="#2F2F2F"/>
</linearGradient>
<linearGradient id="paint27_linear_86_1292" x1="36.4923" y1="127.465" x2="38.6919" y2="127.465" gradientUnits="userSpaceOnUse">
<stop stop-color="#FF928E"/>
<stop offset="1" stop-color="#FEB3B1"/>
</linearGradient>
<linearGradient id="paint28_linear_86_1292" x1="38.9728" y1="120.63" x2="15.2576" y2="147.458" gradientUnits="userSpaceOnUse">
<stop stop-color="#D58D2F"/>
<stop offset="1" stop-color="#2F2F2F"/>
</linearGradient>
<linearGradient id="paint29_linear_86_1292" x1="28.5625" y1="127.356" x2="30.4617" y2="127.356" gradientUnits="userSpaceOnUse">
<stop stop-color="#FF928E"/>
<stop offset="1" stop-color="#FEB3B1"/>
</linearGradient>
<linearGradient id="paint30_linear_86_1292" x1="46.938" y1="60.7682" x2="28.9461" y2="95.6906" gradientUnits="userSpaceOnUse">
<stop stop-color="#D58D2F"/>
<stop offset="1"/>
</linearGradient>
<linearGradient id="paint31_linear_86_1292" x1="55.0476" y1="59.6964" x2="51.4296" y2="70.4471" gradientUnits="userSpaceOnUse">
<stop stop-color="#FF928E"/>
<stop offset="1" stop-color="#FEB3B1"/>
</linearGradient>
<linearGradient id="paint32_linear_86_1292" x1="71.0932" y1="60.1149" x2="54.141" y2="64.9634" gradientUnits="userSpaceOnUse">
<stop stop-color="#FF928E"/>
<stop offset="1" stop-color="#FEB3B1"/>
</linearGradient>
<linearGradient id="paint33_linear_86_1292" x1="55.3835" y1="67.6246" x2="58.1274" y2="61.8688" gradientUnits="userSpaceOnUse">
<stop stop-color="#FF928E"/>
<stop offset="1" stop-color="#FEB3B1"/>
</linearGradient>
<linearGradient id="paint34_linear_86_1292" x1="39.5292" y1="56.952" x2="21.537" y2="91.8747" gradientUnits="userSpaceOnUse">
<stop stop-color="#D58D2F"/>
<stop offset="0.867773" stop-color="#1C1306"/>
<stop offset="1"/>
</linearGradient>
<linearGradient id="paint35_linear_86_1292" x1="20.9532" y1="87.5916" x2="35.1745" y2="87.5916" gradientUnits="userSpaceOnUse">
<stop stop-color="#FF928E"/>
<stop offset="1" stop-color="#FEB3B1"/>
</linearGradient>
<linearGradient id="paint36_linear_86_1292" x1="34.1171" y1="86.1579" x2="38.5477" y2="86.1579" gradientUnits="userSpaceOnUse">
<stop stop-color="#FF928E"/>
<stop offset="1" stop-color="#FEB3B1"/>
</linearGradient>
<linearGradient id="paint37_linear_86_1292" x1="35.9795" y1="66.7433" x2="34.2236" y2="76.4221" gradientUnits="userSpaceOnUse">
<stop stop-color="#FF928E"/>
<stop offset="1" stop-color="#FEB3B1"/>
</linearGradient>
<linearGradient id="paint38_linear_86_1292" x1="37.2711" y1="66.1242" x2="35.2123" y2="77.2727" gradientUnits="userSpaceOnUse">
<stop stop-color="#FF928E"/>
<stop offset="1" stop-color="#FEB3B1"/>
</linearGradient>
<linearGradient id="paint39_linear_86_1292" x1="39.0581" y1="64.5381" x2="31.6378" y2="77.1831" gradientUnits="userSpaceOnUse">
<stop/>
<stop offset="1"/>
</linearGradient>
<linearGradient id="paint40_linear_86_1292" x1="31.229" y1="76.9581" x2="33.5836" y2="69.4441" gradientUnits="userSpaceOnUse">
<stop stop-color="#FF928E"/>
<stop offset="1" stop-color="#FEB3B1"/>
</linearGradient>
<clipPath id="clip0_86_1292">
<rect width="156" height="150" fill="white"/>
</clipPath>
</defs>
</svg>
