<svg width="526" height="326" viewBox="0 0 526 326" fill="none" xmlns="http://www.w3.org/2000/svg">
<path d="M476.84 302.507H252.9V171.699L251.871 171.04L288.221 135.797C306.595 117.92 331.214 107.828 356.906 107.639L423.729 107.031L423.825 107.145L476.996 170.112L476.839 171.855L476.84 302.507Z" fill="#A89EC7"/>
<path d="M429.01 131.719H295.078V132.98H429.01V131.719ZM415.709 144.958H281.777V146.219H415.709V144.958ZM493.563 231.637H469.217V253.057H493.563V231.637ZM493.563 194.562H469.217V215.642H493.563V194.562Z" fill="white"/>
<path d="M462.257 109.156H440.426V184.368H462.257V109.156Z" fill="#AA7126"/>
<path d="M476.846 302.505H357.004V215.82C357.017 195.76 364.198 176.364 377.252 161.132L423.643 106.992L476.846 170.04V302.505Z" fill="#766899"/>
<path d="M437.611 237.314H413.266V258.735H437.611V237.314ZM437.611 200.238H413.266V221.319H437.611V200.238ZM321.322 231.63H296.977V253.05H321.322V231.63ZM321.322 194.555H296.977V215.635H321.322V194.555Z" fill="#D58D2F"/>
<path d="M287.652 67.8906H261.16V159.179H287.652V67.8906Z" fill="#AA7126"/>
<path d="M305.289 302.505H33.6182V143.772L32.4102 142.998L32.6952 142.721L82.3162 94.6088C100.856 76.5688 125.699 66.3838 151.625 66.1938L240.858 65.3828L240.954 65.4968L305.473 141.901L305.288 143.989L305.289 302.506V302.505Z" fill="#A89EC7"/>
<path d="M305.293 302.506H159.969V185.952C159.975 169.001 166.045 152.607 177.091 139.707L240.784 65.375L305.293 141.818V302.506Z" fill="#44336B" fill-opacity="0.5"/>
<path d="M257.321 223.447H233.821V244.124H257.321V223.447ZM257.321 187.512H233.821V208.188H257.321V187.512ZM116.596 216.548H87.0469V242.547H116.596V216.548ZM116.596 171.547H87.0469V197.133H116.596V171.547Z" fill="#AA7126"/>
<path d="M522.643 301.531H3.30859V302.792H522.643V301.531Z" fill="#666276"/>
<path d="M142.5 283C151.613 283 159 270.912 159 256C159 241.088 151.613 229 142.5 229C133.387 229 126 241.088 126 256C126 270.912 133.387 283 142.5 283Z" fill="#005128"/>
<path d="M144.728 302.433C138.096 270.818 144.662 239.314 144.728 239L146.019 239.173C145.952 239.486 139.424 270.823 146.019 302.262L144.728 302.433Z" fill="white"/>
<path d="M157.776 251.719L142.801 258.083L143.418 259L158.393 252.636L157.776 251.719ZM127.617 254.907L127 255.823L141.972 262.191L142.59 261.274L127.617 254.907Z" fill="white"/>
<path d="M40.5131 263.905C57.2981 263.905 70.9051 236.267 70.9051 202.175C70.9051 168.083 57.2981 140.445 40.5131 140.445C23.7281 140.445 10.1211 168.083 10.1211 202.175C10.1211 236.267 23.7281 263.905 40.5131 263.905Z" fill="#005128"/>
<path d="M43.8989 303.125C31.7429 230.522 43.7759 158.183 43.8989 157.461L45.1089 157.665C44.9859 158.386 32.9879 230.53 45.1089 302.925L43.8989 303.125Z" fill="white"/>
<path d="M67.5476 189.422L40.0636 204.056L40.6426 205.134L68.1266 190.5L67.5476 189.422ZM11.6386 196.756L11.0586 197.834L38.5386 212.475L39.1176 211.398L11.6386 196.756Z" fill="white"/>
<path d="M422.463 77.9351L429.125 72.6301C423.95 72.0631 421.823 74.8711 420.955 77.0951C416.912 75.4241 412.51 77.6141 412.51 77.6141L425.839 82.4311C425.166 80.6414 423.995 79.0812 422.465 77.9341L422.463 77.9351ZM302.07 37.0821L308.732 31.7771C303.557 31.2101 301.43 34.0181 300.562 36.2421C296.519 34.5711 292.117 36.7611 292.117 36.7611L305.446 41.5781C304.773 39.7901 303.602 38.2311 302.07 37.0821Z" fill="#AA7126"/>
<path d="M469.755 46.9561L476.417 41.6521C471.241 41.0851 469.114 43.8931 468.247 46.1171C464.203 44.4461 459.801 46.6361 459.801 46.6361L473.131 51.4531C472.457 49.6629 471.286 48.1023 469.756 46.9551L469.755 46.9561Z" fill="#AA7126"/>
<path d="M31.585 131.901L38 127.067C33.0159 126.551 30.9677 129.11 30.1329 131.137C26.2388 129.614 22 131.61 22 131.61L34.8358 136C34.1872 134.368 33.0588 132.946 31.585 131.901Z" fill="#AA7126"/>
<path d="M235.585 43.9015L242 39.0674C237.016 38.5507 234.968 41.1099 234.133 43.1368C230.239 41.6139 226 43.6098 226 43.6098L238.836 48C238.187 46.3684 237.06 44.9461 235.586 43.9006L235.585 43.9015Z" fill="#AA7126"/>
<path d="M376.585 47.9015L383 43.0674C378.016 42.5507 375.968 45.1099 375.133 47.1368C371.239 45.6139 367 47.6098 367 47.6098L379.836 52C379.187 50.3684 378.06 48.9461 376.586 47.9006L376.585 47.9015Z" fill="#AA7126"/>
<path d="M182.159 292.557C180.388 292.557 178.648 293.022 177.114 293.905C175.554 292.503 173.623 291.582 171.552 291.253C169.479 290.924 167.356 291.201 165.437 292.05C163.52 292.898 161.891 294.283 160.748 296.036C159.605 297.789 158.998 299.833 159 301.923H192.255C192.072 299.378 190.929 296.997 189.058 295.263C187.182 293.524 184.717 292.558 182.159 292.557ZM471.747 292.557C469.976 292.557 468.236 293.022 466.702 293.905C465.142 292.503 463.211 291.582 461.14 291.253C459.067 290.924 456.944 291.201 455.026 292.05C453.109 292.897 451.48 294.282 450.336 296.036C449.194 297.788 448.586 299.833 448.589 301.923H481.843C481.66 299.378 480.518 296.997 478.646 295.262C476.773 293.524 474.308 292.558 471.747 292.557ZM269.926 285.33H222.688V286.847H230.055V294.052V301.257H231.578V286.847H260.272V294.052V301.257H261.796V286.847H269.925L269.926 285.33ZM270.018 280.792H222.781V282.309H270.018V280.792ZM270.019 277H222.781V278.517H270.019V277Z" fill="#666276"/>
<path d="M483.514 234.125L483.162 234.779L499.842 243.665L500.194 243.011L483.514 234.125ZM517.448 238.579L500.767 247.465L501.119 248.119L517.8 239.234L517.448 238.579ZM447.285 285.989H400.047V287.506H407.414V301.916H408.938V287.506H437.632V301.916H439.156V287.506H447.284L447.285 285.989ZM447.378 281.451H400.14V282.968H447.378V281.451ZM447.378 277.659H400.14V279.176H447.378V277.659Z" fill="white"/>
<path d="M499.918 279.327C510.103 279.327 518.36 262.557 518.36 241.87C518.36 221.183 510.103 204.414 499.918 204.414C489.733 204.414 481.477 221.184 481.477 241.87C481.477 262.556 489.733 279.327 499.918 279.327Z" fill="#005128"/>
<path d="M497.864 303.122C505.24 259.068 497.938 215.176 497.864 214.734L497.129 214.86C497.203 215.297 504.484 259.073 497.129 303.001L497.864 303.122Z" fill="white"/>
<path d="M483.514 234.125L483.162 234.779L499.842 243.665L500.194 243.011L483.514 234.125ZM517.448 238.579L500.767 247.465L501.119 248.119L517.8 239.234L517.448 238.579ZM447.285 285.989H400.047V287.506H407.414V301.916H408.938V287.506H437.632V301.916H439.156V287.506H447.284L447.285 285.989ZM447.378 281.451H400.14V282.968H447.378V281.451ZM447.378 277.659H400.14V279.176H447.378V277.659Z" fill="white"/>
<path d="M257.566 116.015L251.887 102.898L240.486 103.101L233.57 116.177L233.709 116.352H233.659V143.552H257.551V116.352L257.566 116.015ZM435.131 148.846L430.541 139.259L421.328 139.407L415.739 148.965L415.852 149.092H415.812V168.974H435.119V149.092L435.131 148.846Z" fill="black"/>
<path d="M213.412 97.1721H79.4797V98.4331H213.412V97.1721ZM200.112 110.411H66.1797V111.672H200.113V110.411H200.112ZM462.258 112.801H440.427V114.062H462.258V112.801ZM462.258 126.04H440.427V127.301H462.258V126.04ZM287.654 72.4531H261.162V73.7141H287.654V72.4531ZM287.654 85.6921H261.162V86.9531H287.654V85.6921Z" fill="white"/>
</svg>
