<svg width="526" height="500" viewBox="0 0 526 500" fill="none" xmlns="http://www.w3.org/2000/svg">
<path d="M473.789 226.508H437.411V270.692H428.048V245.675H381.781V285.283H375.659V192.328H335.451V217.85H314.843V249.588H308.604V229.621H272.047V289.207H261.359V240.762H227.926V203.984H205.193V183.039H178.903V275.952H170.066V237.175H126.745V292.678H120.759V247.379H76.8279V206.562H52.2109V396.658H473.789V226.508Z" fill="#F5F4F8"/>
<path d="M463.176 240.51H469.33V232.062H463.176V240.51Z" fill="white"/>
<path d="M452.508 240.51H458.663V232.062H452.508V240.51Z" fill="white"/>
<path d="M441.828 240.51H447.982V232.062H441.828V240.51Z" fill="white"/>
<path d="M463.176 253.221H469.33V244.773H463.176V253.221Z" fill="white"/>
<path d="M452.508 253.221H458.663V244.773H452.508V253.221Z" fill="white"/>
<path d="M441.828 253.221H447.982V244.773H441.828V253.221Z" fill="white"/>
<path d="M463.176 265.925H469.33V257.477H463.176V265.925Z" fill="white"/>
<path d="M452.508 265.925H458.663V257.477H452.508V265.925Z" fill="white"/>
<path d="M441.828 265.925H447.982V257.477H441.828V265.925Z" fill="white"/>
<path d="M463.176 278.643H469.33V270.195H463.176V278.643Z" fill="white"/>
<path d="M452.508 278.643H458.663V270.195H452.508V278.643Z" fill="white"/>
<path d="M441.828 278.643H447.982V270.195H441.828V278.643Z" fill="white"/>
<path d="M250.07 253.86H256.224V246.812H250.07V253.86Z" fill="white"/>
<path d="M239.402 253.86H245.556V246.812H239.402V253.86Z" fill="white"/>
<path d="M228.727 253.86H234.881V246.812H228.727V253.86Z" fill="white"/>
<path d="M250.07 264.454H256.224V257.406H250.07V264.454Z" fill="white"/>
<path d="M239.402 264.454H245.556V257.406H239.402V264.454Z" fill="white"/>
<path d="M228.727 264.454H234.881V257.406H228.727V264.454Z" fill="white"/>
<path d="M250.07 275.056H256.224V268.008H250.07V275.056Z" fill="white"/>
<path d="M239.402 275.056H245.556V268.008H239.402V275.056Z" fill="white"/>
<path d="M228.727 275.056H234.881V268.008H228.727V275.056Z" fill="white"/>
<path d="M250.07 285.657H256.224V278.609H250.07V285.657Z" fill="white"/>
<path d="M239.402 285.657H245.556V278.609H239.402V285.657Z" fill="white"/>
<path d="M228.727 285.657H234.881V278.609H228.727V285.657Z" fill="white"/>
<path d="M250.07 296.526H256.224V289.477H250.07V296.526Z" fill="white"/>
<path d="M239.402 296.526H245.556V289.477H239.402V296.526Z" fill="white"/>
<path d="M228.727 296.526H234.881V289.477H228.727V296.526Z" fill="white"/>
<path d="M250.07 307.393H256.224V300.344H250.07V307.393Z" fill="white"/>
<path d="M239.402 307.393H245.556V300.344H239.402V307.393Z" fill="white"/>
<path d="M228.727 307.393H234.881V300.344H228.727V307.393Z" fill="white"/>
<path d="M250.07 318.251H256.224V311.203H250.07V318.251Z" fill="white"/>
<path d="M239.402 318.251H245.556V311.203H239.402V318.251Z" fill="white"/>
<path d="M228.727 318.251H234.881V311.203H228.727V318.251Z" fill="white"/>
<path d="M250.07 329.119H256.224V322.07H250.07V329.119Z" fill="white"/>
<path d="M239.402 329.119H245.556V322.07H239.402V329.119Z" fill="white"/>
<path d="M228.727 329.119H234.881V322.07H228.727V329.119Z" fill="white"/>
<path d="M387.355 256.375H422.786V251.094H387.355V256.375Z" fill="white"/>
<path d="M387.355 266.633H422.786V261.352H387.355V266.633Z" fill="white"/>
<path d="M387.355 276.875H422.786V271.594H387.355V276.875Z" fill="white"/>
<path d="M387.355 287.125H422.786V281.844H387.355V287.125Z" fill="white"/>
<path d="M387.355 297.383H422.786V292.102H387.355V297.383Z" fill="white"/>
<path d="M387.355 307.625H422.786V302.344H387.355V307.625Z" fill="white"/>
<path d="M387.355 317.883H422.786V312.602H387.355V317.883Z" fill="white"/>
<path d="M387.355 328.117H422.786V322.836H387.355V328.117Z" fill="white"/>
<path d="M132.238 247.383H164.818V242.102H132.238V247.383Z" fill="white"/>
<path d="M132.238 257.633H164.818V252.352H132.238V257.633Z" fill="white"/>
<path d="M132.238 267.89H164.818V262.609H132.238V267.89Z" fill="white"/>
<path d="M132.238 278.14H164.818V272.859H132.238V278.14Z" fill="white"/>
<path d="M132.238 288.383H164.818V283.102H132.238V288.383Z" fill="white"/>
<path d="M132.238 298.64H164.818V293.359H132.238V298.64Z" fill="white"/>
<path d="M132.238 308.89H164.818V303.609H132.238V308.89Z" fill="white"/>
<path d="M132.238 319.148H164.818V313.867H132.238V319.148Z" fill="white"/>
<path d="M132.238 328.875H164.818V323.594H132.238V328.875Z" fill="white"/>
<path d="M132.238 338.617H164.818V333.336H132.238V338.617Z" fill="white"/>
<path d="M132.238 348.359H164.818V343.078H132.238V348.359Z" fill="white"/>
<path d="M132.238 358.094H164.818V352.812H132.238V358.094Z" fill="white"/>
<path d="M132.238 367.836H164.818V362.555H132.238V367.836Z" fill="white"/>
<path d="M79.5742 259.758H113.985V254.477H79.5752L79.5742 259.758Z" fill="white"/>
<path d="M79.5742 270.015H113.985V264.734H79.5752L79.5742 270.015Z" fill="white"/>
<path d="M79.5742 280.273H113.985V274.992H79.5752L79.5742 280.273Z" fill="white"/>
<path d="M79.5742 290.523H113.985V285.242H79.5752L79.5742 290.523Z" fill="white"/>
<path d="M79.5742 300.765H113.985V295.484H79.5752L79.5742 300.765Z" fill="white"/>
<path d="M79.5742 311.023H113.985V305.742H79.5752L79.5742 311.023Z" fill="white"/>
<path d="M79.5742 321.273H113.985V315.992H79.5752L79.5742 321.273Z" fill="white"/>
<path d="M79.5742 331.531H113.985V326.25H79.5752L79.5742 331.531Z" fill="white"/>
<path d="M79.5742 340.703H113.985V335.422H79.5752L79.5742 340.703Z" fill="white"/>
<path d="M79.5742 349.875H113.985V344.594H79.5752L79.5742 349.875Z" fill="white"/>
<path d="M79.5742 359.047H113.985V353.766H79.5752L79.5742 359.047Z" fill="white"/>
<path d="M286.965 239.508H297.906V234.406H286.965V239.508Z" fill="white"/>
<path d="M286.965 249.408H297.906V244.305H286.965V249.408Z" fill="white"/>
<path d="M286.965 259.305H297.906V254.203H286.965V259.305Z" fill="white"/>
<path d="M286.965 269.211H297.906V264.109H286.965V269.211Z" fill="white"/>
<path d="M286.965 279.111H297.906V274.008H286.965V279.111Z" fill="white"/>
<path d="M286.965 289.008H297.906V283.906H286.965V289.008Z" fill="white"/>
<path d="M286.965 298.907H297.906V293.805H286.965V298.907Z" fill="white"/>
<path d="M286.965 308.806H297.906V303.703H286.965V308.806Z" fill="white"/>
<path d="M272.078 239.508H283.019V234.406H272.078V239.508Z" fill="white"/>
<path d="M272.078 249.408H283.019V244.305H272.078V249.408Z" fill="white"/>
<path d="M272.078 259.305H283.019V254.203H272.078V259.305Z" fill="white"/>
<path d="M272.078 269.211H283.019V264.109H272.078V269.211Z" fill="white"/>
<path d="M272.078 279.111H283.019V274.008H272.078V279.111Z" fill="white"/>
<path d="M272.078 289.008H283.019V283.906H272.078V289.008Z" fill="white"/>
<path d="M272.078 298.907H283.019V293.805H272.078V298.907Z" fill="white"/>
<path d="M272.078 308.806H283.019V303.703H272.078V308.806Z" fill="white"/>
<path d="M358.152 205.727H369.555V197.68H358.152V205.727Z" fill="white"/>
<path d="M341.164 205.727H352.567V197.68H341.164V205.727Z" fill="white"/>
<path d="M358.152 217.548H369.555V209.5H358.152V217.548Z" fill="white"/>
<path d="M341.164 217.548H352.567V209.5H341.164V217.548Z" fill="white"/>
<path d="M358.152 229.368H369.555V221.32H358.152V229.368Z" fill="white"/>
<path d="M341.164 229.368H352.567V221.32H341.164V229.368Z" fill="white"/>
<path d="M358.152 241.181H369.555V233.133H358.152V241.181Z" fill="white"/>
<path d="M341.164 241.181H352.567V233.133H341.164V241.181Z" fill="white"/>
<path d="M358.152 253.008H369.555V244.961H358.152V253.008Z" fill="white"/>
<path d="M341.164 253.008H352.567V244.961H341.164V253.008Z" fill="white"/>
<path d="M358.152 264.829H369.555V256.781H358.152V264.829Z" fill="white"/>
<path d="M341.164 264.829H352.567V256.781H341.164V264.829Z" fill="white"/>
<path d="M358.152 276.65H369.555V268.602H358.152V276.65Z" fill="white"/>
<path d="M341.164 276.65H352.567V268.602H341.164V276.65Z" fill="white"/>
<path d="M358.152 288.469H369.555V280.422H358.152V288.469Z" fill="white"/>
<path d="M341.164 288.469H352.567V280.422H341.164V288.469Z" fill="white"/>
<path d="M320.094 229.368H331.498V221.32H320.094V229.368Z" fill="white"/>
<path d="M320.094 241.181H331.498V233.133H320.094V241.181Z" fill="white"/>
<path d="M320.094 253.008H331.498V244.961H320.094V253.008Z" fill="white"/>
<path d="M320.094 264.829H331.498V256.781H320.094V264.829Z" fill="white"/>
<path d="M320.094 276.65H331.498V268.602H320.094V276.65Z" fill="white"/>
<path d="M320.094 288.469H331.498V280.422H320.094V288.469ZM358.156 300.147H369.559V292.099H358.156V300.147ZM341.166 300.147H352.569V292.099H341.166V300.147ZM320.094 300.147H331.498V292.099H320.094V300.147Z" fill="white"/>
<path d="M358.152 311.814H369.555V303.766H358.152V311.814Z" fill="white"/>
<path d="M341.164 311.814H352.567V303.766H341.164V311.814Z" fill="white"/>
<path d="M320.094 311.814H331.498V303.766H320.094V311.814Z" fill="white"/>
<path d="M358.152 323.492H369.555V315.445H358.152V323.492Z" fill="white"/>
<path d="M341.164 323.492H352.567V315.445H341.164V323.492Z" fill="white"/>
<path d="M320.094 323.492H331.498V315.445H320.094V323.492Z" fill="white"/>
<path d="M358.152 335.165H369.555V327.117H358.152V335.165Z" fill="white"/>
<path d="M341.164 335.165H352.567V327.117H341.164V335.165Z" fill="white"/>
<path d="M320.094 335.165H331.498V327.117H320.094V335.165Z" fill="white"/>
<path d="M358.152 346.845H369.555V338.797H358.152V346.845Z" fill="white"/>
<path d="M341.164 346.845H352.567V338.797H341.164V346.845Z" fill="white"/>
<path d="M320.094 346.845H331.498V338.797H320.094V346.845Z" fill="white"/>
<path d="M217.133 216.204H223.287V209.156H217.133V216.204Z" fill="white"/>
<path d="M206.465 216.204H212.619V209.156H206.465V216.204Z" fill="white"/>
<path d="M217.133 226.815H223.287V219.766H217.133V226.815Z" fill="white"/>
<path d="M206.465 226.815H212.619V219.766H206.465V226.815Z" fill="white"/>
<path d="M217.133 237.416H223.287V230.367H217.133V237.416Z" fill="white"/>
<path d="M206.465 237.416H212.619V230.367H206.465V237.416Z" fill="white"/>
<path d="M217.133 248.032H223.287V240.984H217.133V248.032Z" fill="white"/>
<path d="M206.465 248.032H212.619V240.984H206.465V248.032Z" fill="white"/>
<path d="M217.133 258.901H223.287V251.852H217.133V258.901Z" fill="white"/>
<path d="M206.465 258.901H212.619V251.852H206.465V258.901Z" fill="white"/>
<path d="M217.133 269.751H223.287V262.703H217.133V269.751Z" fill="white"/>
<path d="M206.465 269.751H212.619V262.703H206.465V269.751Z" fill="white"/>
<path d="M217.133 280.618H223.287V273.57H217.133V280.618Z" fill="white"/>
<path d="M206.465 280.618H212.619V273.57H206.465V280.618Z" fill="white"/>
<path d="M217.133 291.486H223.287V284.438H217.133V291.486Z" fill="white"/>
<path d="M206.465 291.486H212.619V284.438H206.465V291.486Z" fill="white"/>
<path d="M217.133 302.47H223.287V295.422H217.133V302.47Z" fill="white"/>
<path d="M206.465 302.47H212.619V295.422H206.465V302.47Z" fill="white"/>
<path d="M217.133 313.447H223.287V306.398H217.133V313.447Z" fill="white"/>
<path d="M206.465 313.447H212.619V306.398H206.465V313.447Z" fill="white"/>
<path d="M217.133 324.432H223.287V317.383H217.133V324.432Z" fill="white"/>
<path d="M206.465 324.432H212.619V317.383H206.465V324.432Z" fill="white"/>
<path d="M217.133 335.423H223.287V328.375H217.133V335.423Z" fill="white"/>
<path d="M206.465 335.423H212.619V328.375H206.465V335.423Z" fill="white"/>
<path d="M66.8125 218.605H72.9665V210.305H66.8125V218.605Z" fill="white"/>
<path d="M56.1562 218.605H62.3103V210.305H56.1562V218.605Z" fill="white"/>
<path d="M66.8125 231.106H72.9665V222.805H66.8125V231.106Z" fill="white"/>
<path d="M56.1562 231.106H62.3103V222.805H56.1562V231.106Z" fill="white"/>
<path d="M66.8125 243.589H72.9665V235.289H66.8125V243.589Z" fill="white"/>
<path d="M56.1562 243.589H62.3103V235.289H56.1562V243.589Z" fill="white"/>
<path d="M66.8125 256.089H72.9665V247.789H66.8125V256.089Z" fill="white"/>
<path d="M56.1562 256.089H62.3103V247.789H56.1562V256.089Z" fill="white"/>
<path d="M66.8125 268.895H72.9665V260.594H66.8125V268.895Z" fill="white"/>
<path d="M56.1562 268.895H62.3103V260.594H56.1562V268.895Z" fill="white"/>
<path d="M66.8125 281.698H72.9665V273.398H66.8125V281.698Z" fill="white"/>
<path d="M56.1562 281.698H62.3103V273.398H56.1562V281.698Z" fill="white"/>
<path d="M66.8125 294.488H72.9665V286.188H66.8125V294.488Z" fill="white"/>
<path d="M56.1562 294.488H62.3103V286.188H56.1562V294.488Z" fill="white"/>
<path d="M66.8125 307.3H72.9665V299H66.8125V307.3Z" fill="white"/>
<path d="M56.1562 307.3H62.3103V299H56.1562V307.3Z" fill="white"/>
<path d="M66.8125 320.238H72.9665V311.938H66.8125V320.238Z" fill="white"/>
<path d="M56.1562 320.238H62.3103V311.938H56.1562V320.238Z" fill="white"/>
<path d="M66.8125 333.167H72.9665V324.867H66.8125V333.167Z" fill="white"/>
<path d="M56.1562 333.167H62.3103V324.867H56.1562V333.167Z" fill="white"/>
<path d="M66.8125 346.113H72.9665V337.812H66.8125V346.113Z" fill="white"/>
<path d="M56.1562 346.113H62.3103V337.812H56.1562V346.113Z" fill="white"/>
<path d="M66.8125 359.05H72.9665V350.75H66.8125V359.05Z" fill="white"/>
<path d="M56.1562 359.05H62.3103V350.75H56.1562V359.05Z" fill="white"/>
<path d="M194.305 216.204H200.459V209.156H194.305V216.204Z" fill="white"/>
<path d="M183.637 216.204H189.791V209.156H183.637V216.204Z" fill="white"/>
<path d="M194.305 205.345H200.459V198.297H194.305V205.345Z" fill="white"/>
<path d="M183.637 205.345H189.791V198.297H183.637V205.345Z" fill="white"/>
<path d="M194.305 194.478H200.459V187.43H194.305V194.478Z" fill="white"/>
<path d="M183.637 194.478H189.791V187.43H183.637V194.478Z" fill="white"/>
<path d="M194.305 226.815H200.459V219.766H194.305V226.815Z" fill="white"/>
<path d="M183.637 226.815H189.791V219.766H183.637V226.815Z" fill="white"/>
<path d="M194.305 237.416H200.459V230.367H194.305V237.416Z" fill="white"/>
<path d="M183.637 237.416H189.791V230.367H183.637V237.416Z" fill="white"/>
<path d="M194.305 248.032H200.459V240.984H194.305V248.032Z" fill="white"/>
<path d="M183.637 248.032H189.791V240.984H183.637V248.032Z" fill="white"/>
<path d="M194.305 258.901H200.459V251.852H194.305V258.901Z" fill="white"/>
<path d="M183.637 258.901H189.791V251.852H183.637V258.901Z" fill="white"/>
<path d="M194.305 269.751H200.459V262.703H194.305V269.751Z" fill="white"/>
<path d="M183.637 269.751H189.791V262.703H183.637V269.751Z" fill="white"/>
<path d="M194.305 280.618H200.459V273.57H194.305V280.618Z" fill="white"/>
<path d="M183.637 280.618H189.791V273.57H183.637V280.618Z" fill="white"/>
<path d="M194.305 291.486H200.459V284.438H194.305V291.486Z" fill="white"/>
<path d="M183.637 291.486H189.791V284.438H183.637V291.486Z" fill="white"/>
<path d="M194.305 302.47H200.459V295.422H194.305V302.47Z" fill="white"/>
<path d="M183.637 302.47H189.791V295.422H183.637V302.47Z" fill="white"/>
<path d="M194.305 313.447H200.459V306.398H194.305V313.447Z" fill="white"/>
<path d="M183.637 313.447H189.791V306.398H183.637V313.447Z" fill="white"/>
<path d="M194.305 324.432H200.459V317.383H194.305V324.432Z" fill="white"/>
<path d="M183.637 324.432H189.791V317.383H183.637V324.432Z" fill="white"/>
<path d="M194.305 335.423H200.459V328.375H194.305V335.423Z" fill="white"/>
<path d="M183.637 335.423H189.791V328.375H183.637V335.423Z" fill="white"/>
<path d="M469.308 167.892H356.039C356.039 167.892 367.274 137.216 384.559 137.216C401.844 137.216 407.25 158.393 407.25 158.393C407.25 158.393 418.917 146.884 428.501 146.884C438.085 146.884 446.385 162.085 446.385 162.085C446.385 162.085 459.945 153.911 469.308 167.892ZM405.914 107.223H352.978C352.978 107.223 364.802 90.0859 374.123 90.0859C383.444 90.0859 386.2 101.511 386.2 101.511C386.2 101.511 392.775 96.1769 398.824 97.1349C404.873 98.0929 405.914 107.223 405.914 107.223ZM159.799 158.761H56.7031C56.7031 158.761 70.8211 127.201 85.9281 125.265C101.035 123.329 108.252 148.683 108.252 148.683C108.252 148.683 117.993 139.709 125.652 139.709C133.311 139.709 139.233 151.533 139.233 151.533C139.233 151.533 154.54 143.433 159.8 158.761H159.799ZM257.793 80.7339H188.14C188.14 80.7339 200.101 57.8949 213.083 57.5899C226.065 57.2849 232.881 74.8739 232.881 74.8739C232.881 74.8739 253.069 58.6419 257.793 80.7339ZM305.354 451.333C400.081 451.333 476.872 446.251 476.872 439.981C476.872 433.711 400.081 428.63 305.354 428.63C210.627 428.63 133.836 433.712 133.836 439.981C133.836 446.25 210.627 451.333 305.354 451.333Z" fill="#EFECF3"/>
<path d="M509.525 396.659L447.888 396.912L386.262 397.006L262.999 397.175L139.736 397.006L78.1097 396.912L16.4727 396.659L78.1097 396.396L139.736 396.301L262.999 396.133L386.262 396.301L447.888 396.396L509.525 396.659Z" fill="#1F1B2D"/>
<path d="M255.31 233.944C273.109 252.46 326.582 334.863 330.748 337.324C330.748 337.324 330.748 391.218 300.966 380.456C271.184 369.694 243.885 273.005 238.057 242.181C234.985 225.907 240.771 218.838 255.31 233.944Z" fill="#E3A59D"/>
<path d="M250.777 297.654L305.355 291.448C305.355 291.448 271.502 246.538 254.007 230.505C235.765 213.799 226.823 216.145 235.281 247.79C243.782 279.623 250.777 297.654 250.777 297.654Z" fill="#FF9812"/>
<path d="M248.211 267.928C247.611 269.434 247.228 271.017 247.074 272.63C248.978 269.999 250.164 266.917 250.514 263.688C249.541 264.98 248.764 266.408 248.211 267.928ZM278.866 269.159C277.364 268.558 275.784 268.175 274.174 268.023C276.8 269.929 279.879 271.115 283.105 271.463C281.815 270.487 280.386 269.71 278.866 269.159ZM270.734 290.388C270.092 288.904 269.242 287.519 268.209 286.275C268.451 287.872 268.918 289.427 269.598 290.893C270.219 292.386 271.063 293.776 272.101 295.017C271.866 293.417 271.405 291.859 270.734 290.388ZM238.711 222.008L237.848 220.293C237.474 220.257 237.097 220.257 236.723 220.293L237.575 222.534C238.207 224.024 239.054 225.414 240.089 226.658C239.852 225.051 239.388 223.485 238.711 222.008ZM301.61 286.538L300.558 286.959C299.069 287.599 297.677 288.445 296.424 289.473C298.028 289.235 299.589 288.771 301.063 288.095L302.304 287.485L301.61 286.538ZM259.53 243.185C258.045 243.822 256.657 244.665 255.406 245.689C257.01 245.458 258.573 244.998 260.046 244.321C261.532 243.683 262.921 242.836 264.169 241.807C262.557 242.038 260.988 242.502 259.509 243.185H259.53ZM255.869 243.279L255.69 243.416H255.88C255.88 243.416 255.848 243.311 255.848 243.279H255.869Z" fill="white"/>
<path d="M253.394 287.843C254.667 287.549 256.003 287.433 257.297 287.254L261.315 286.697L269.447 285.645L285.743 283.814L290.235 283.404L294.969 283.172C295.064 283.172 295.064 283.309 294.969 283.32L290.971 284.035C290.971 284.035 288.215 284.435 286.837 284.603L278.694 285.571L262.63 287.233L258.149 287.612L253.415 287.969C253.403 287.965 253.392 287.957 253.384 287.947C253.376 287.937 253.37 287.925 253.368 287.912C253.366 287.899 253.367 287.887 253.371 287.874C253.375 287.861 253.384 287.851 253.394 287.843Z" fill="#1F1B2D"/>
<path opacity="0.1" d="M277.255 294.643L250.787 297.651C250.787 297.651 243.791 279.62 235.28 247.787C231.693 234.363 231.241 226.21 233.303 222.539L277.255 294.643Z" fill="#1F1B2D"/>
<path d="M265.913 409.905H182.899L180.89 402.015L178.67 393.304L178.186 391.421L176.577 385.109L175.641 381.406L174.704 377.756L174.462 376.819L174.21 375.767L173.894 374.537L173.568 373.264L172.968 370.907L172.116 367.572L171.759 366.163L171.191 363.943L170.833 362.523L169.465 357.158L169.129 355.864L168.603 353.76L168.287 352.529L167.298 348.647L167.067 347.763L166.551 345.733L166.372 345.049L166.204 344.386C166.204 344.239 166.13 344.092 166.099 343.965L165.952 343.397C165.953 343.309 165.931 343.222 165.889 343.145L165.699 342.398H246.503L253.425 366.363L256.224 376.072L265.913 409.905Z" fill="#454056"/>
<path d="M196.494 409.906H194.39L185.459 371.687L183.355 362.366L183.165 361.493C183.162 361.463 183.169 361.432 183.186 361.407C183.203 361.382 183.229 361.364 183.259 361.356C183.289 361.348 183.32 361.352 183.347 361.365C183.374 361.378 183.396 361.402 183.407 361.43C183.407 361.524 183.46 361.619 183.491 361.714L186.279 371.739L196.494 409.906Z" fill="#1F1B2D"/>
<path d="M243.884 342.408L240.318 360.292L237.393 374.936L232.417 399.89L231.902 402.446L231.049 406.707L230.387 409.905H182.889L180.89 402.015L178.67 393.304L178.186 391.421L176.577 385.109L175.641 381.406L174.704 377.756L174.462 376.819L174.21 375.767L173.894 374.537L173.568 373.264L172.968 370.907L172.116 367.572L171.759 366.163L171.191 363.943L170.833 362.523L169.465 357.158L169.129 355.864L168.603 353.76L168.287 352.529L167.298 348.647L167.067 347.763L166.551 345.733L166.372 345.049L166.204 344.386C166.204 344.239 166.13 344.092 166.099 343.965L165.952 343.397C165.953 343.309 165.931 343.222 165.889 343.145L165.699 342.398L243.884 342.408Z" fill="#1F1B2D"/>
<path d="M243.896 342.376C243.896 342.818 243.56 347.636 242.781 355L241.992 362.027C241.519 366.014 240.94 370.443 240.204 375.062C238.962 383.173 237.342 392.02 235.238 400.667C234.501 403.759 233.687 406.832 232.798 409.883H128.492L131.743 368.276L133.847 342.344H228.463L243.896 342.376Z" fill="#454056"/>
<path d="M243.676 351.956L243.161 363.128C242.908 367.157 242.54 371.176 242.014 375.194C242.014 375.342 242.014 375.489 241.962 375.636C241.471 379.402 240.906 383.159 240.268 386.903C239.668 390.396 239.216 394.162 237.68 397.423C237.096 398.674 236.266 399.794 235.239 400.716C234.3 401.576 233.149 402.171 231.904 402.441C231.701 402.492 231.493 402.528 231.284 402.546H231.105C231.143 402.568 231.175 402.601 231.195 402.64C231.215 402.679 231.225 402.723 231.221 402.767C231.221 404.019 231.221 405.292 231.073 406.533V406.691C230.947 407.743 230.747 408.848 230.547 409.921H228.759V409.858C229.075 408.679 229.338 407.491 229.632 406.302C229.926 405.113 230.348 403.903 230.632 402.673C230.647 402.626 230.677 402.586 230.716 402.557C229.581 402.611 228.456 402.316 227.493 401.713C226.53 401.109 225.775 400.225 225.329 399.18C224.881 397.58 224.852 395.892 225.245 394.278L226.213 387.871C226.823 383.947 227.612 380.065 228.317 376.162L228.633 374.384C230.032 366.442 231.494 358.499 233.251 350.63C233.314 350.304 233.388 349.978 233.461 349.652C233.534 349.326 233.861 349.494 233.84 349.704L233.672 351.293L232.62 360.319C232.115 363.843 231.768 367.388 231.273 370.913L230.758 374.511L228.117 391.879C227.654 394.562 226.013 399.369 229.843 400.2C230.727 400.396 231.653 400.281 232.462 399.874C234.167 398.847 235.442 397.236 236.049 395.34C236.997 392.183 237.683 388.953 238.101 385.683C238.735 382.157 239.296 378.618 239.784 375.068L241.762 361.802L242.814 355.049L243.319 351.893C243.329 351.672 243.676 351.735 243.676 351.956ZM151.374 379.686C155.718 379.641 160.04 379.058 164.24 377.95L169.994 376.215C171.881 375.694 173.647 374.808 175.191 373.606C178.116 371.081 179.473 367.115 180.746 363.58C182.128 359.6 183.249 355.535 184.102 351.409C184.102 351.209 184.438 351.282 184.449 351.472C184.55 356.137 183.958 360.792 182.692 365.284C181.64 369.103 180.23 373.353 177.148 376.025C174.066 378.697 169.51 379.834 165.355 380.339C160.696 380.881 155.985 380.817 151.342 380.149C151.312 380.147 151.282 380.139 151.255 380.125C151.227 380.112 151.203 380.093 151.183 380.07C151.143 380.024 151.123 379.963 151.127 379.902C151.131 379.841 151.159 379.783 151.206 379.743C151.229 379.723 151.255 379.707 151.284 379.698C151.313 379.688 151.344 379.684 151.374 379.686ZM144.126 351.535L143.389 369.061L141.422 409.9H139.465L142.295 368.998L143.621 351.524C143.622 351.457 143.65 351.394 143.698 351.347C143.722 351.324 143.75 351.306 143.781 351.294C143.812 351.282 143.845 351.276 143.878 351.277C143.945 351.278 144.009 351.306 144.055 351.355C144.101 351.404 144.127 351.468 144.126 351.535Z" fill="#1F1B2D"/>
<path d="M261.853 385.581L120.348 374.85C120.348 374.85 148.815 262.023 205.024 220.543C219.394 209.949 235.122 216.745 242.202 224.667C260.191 244.844 262.274 385.128 261.853 385.581Z" fill="#FF9812"/>
<path d="M211.567 225.679C210.974 227.183 210.591 228.762 210.431 230.371C211.4 229.086 212.179 227.669 212.746 226.163C213.339 224.659 213.722 223.08 213.882 221.471C212.917 222.758 212.138 224.175 211.567 225.679ZM196.208 286.547C195.603 288.051 195.224 289.635 195.082 291.25C196.978 288.615 198.159 285.534 198.512 282.308C197.546 283.604 196.77 285.031 196.208 286.547ZM145.649 312.647C145.05 314.153 144.668 315.737 144.513 317.35C146.417 314.719 147.602 311.637 147.953 308.408C146.995 309.709 146.22 311.136 145.649 312.647ZM186.456 351.098C185.845 352.597 185.462 354.178 185.32 355.79C187.215 353.155 188.396 350.074 188.749 346.848C187.784 348.147 187.012 349.579 186.456 351.098ZM248.208 267.906C247.609 269.412 247.226 270.995 247.072 272.608C248.976 269.977 250.162 266.895 250.512 263.666C249.537 264.964 248.76 266.4 248.208 267.927V267.906ZM223.024 344.439C222.412 345.938 222.025 347.519 221.877 349.131C222.844 347.847 223.62 346.429 224.181 344.923C224.779 343.42 225.162 341.841 225.317 340.231C224.353 341.515 223.581 342.933 223.024 344.439ZM172.033 265.044C171.433 266.546 171.051 268.126 170.897 269.736C172.804 267.107 173.987 264.024 174.327 260.794C173.358 262.091 172.585 263.523 172.033 265.044ZM228.568 244.846C227.068 244.24 225.487 243.857 223.876 243.71C225.162 244.671 226.579 245.443 228.084 246.003C229.587 246.612 231.171 246.994 232.786 247.139C231.498 246.175 230.077 245.403 228.568 244.846ZM244.6 295.563C243.099 294.959 241.519 294.577 239.908 294.427C241.191 295.392 242.609 296.165 244.116 296.72C245.616 297.327 247.197 297.713 248.808 297.867C247.523 296.912 246.105 296.15 244.6 295.605V295.563ZM248.903 356.179C247.401 355.579 245.821 355.197 244.211 355.043C245.494 356.012 246.912 356.788 248.419 357.347C249.922 357.944 251.501 358.327 253.111 358.483C251.821 357.536 250.404 356.775 248.903 356.221V356.179ZM148.174 351.193C146.672 350.592 145.092 350.209 143.482 350.057C146.108 351.963 149.187 353.149 152.413 353.497C151.116 352.544 149.688 351.782 148.174 351.235V351.193ZM184.584 312.269C183.082 311.666 181.502 311.279 179.892 311.122C181.177 312.09 182.594 312.869 184.1 313.436C185.604 314.03 187.183 314.412 188.792 314.573C187.504 313.619 186.087 312.854 184.584 312.3V312.269ZM238.709 221.976L238.257 221.05L236.626 219.914C236.886 220.795 237.203 221.66 237.573 222.502C238.205 223.992 239.052 225.381 240.087 226.625C239.847 225.029 239.383 223.474 238.709 222.007V221.976ZM197.355 254.693C196.72 253.204 195.874 251.815 194.841 250.569C195.346 253.778 196.689 256.797 198.733 259.322C198.501 257.72 198.037 256.161 197.355 254.693ZM233.87 379.176C233.235 377.689 232.392 376.301 231.366 375.052C231.599 376.652 232.059 378.211 232.734 379.681C233.333 381.064 234.107 382.365 235.037 383.552H235.206C234.963 382.039 234.514 380.567 233.87 379.176ZM220.436 305.862C219.796 304.376 218.949 302.988 217.921 301.738C218.444 304.94 219.781 307.954 221.803 310.491C221.57 308.891 221.11 307.332 220.436 305.862ZM124.051 361.765L123.852 362.418L124.241 362.87C124.199 362.509 124.135 362.151 124.051 361.797V361.765ZM166.131 333.698C165.493 332.214 164.646 330.829 163.617 329.585C164.126 332.79 165.468 335.805 167.51 338.327C167.259 336.736 166.784 335.188 166.1 333.729L166.131 333.698ZM175.158 374.2C174.519 372.713 173.673 371.325 172.643 370.076C173.164 373.284 174.505 376.302 176.536 378.839C176.288 377.247 175.814 375.699 175.126 374.242L175.158 374.2ZM245.926 325.471C244.44 326.112 243.052 326.958 241.802 327.986C243.403 327.749 244.962 327.285 246.431 326.607C247.923 325.973 249.315 325.126 250.565 324.093C248.948 324.334 247.374 324.809 245.894 325.503L245.926 325.471ZM134.308 331.615L133.772 333.067C134.906 332.519 135.967 331.83 136.928 331.015C136.025 331.133 135.136 331.345 134.277 331.647L134.308 331.615ZM206.455 366.668C204.968 367.301 203.579 368.144 202.331 369.171C203.934 368.937 205.496 368.477 206.97 367.804C208.456 367.159 209.844 366.309 211.094 365.279C209.475 365.517 207.901 365.996 206.423 366.699L206.455 366.668ZM141.935 376.051L141.21 376.399L143.682 376.588C144.715 376.066 145.683 375.424 146.564 374.673C144.952 374.92 143.383 375.395 141.904 376.083L141.935 376.051ZM166.721 289.545C165.239 290.193 163.851 291.039 162.597 292.06C165.803 291.542 168.822 290.205 171.36 288.178C169.743 288.415 168.17 288.886 166.689 289.577L166.721 289.545ZM202.994 329.837C201.506 330.479 200.118 331.329 198.87 332.362C202.079 331.847 205.099 330.505 207.633 328.469C206.017 328.711 204.444 329.182 202.962 329.869L202.994 329.837ZM221.93 274.449C220.446 275.094 219.058 275.94 217.806 276.964C221.012 276.455 224.029 275.117 226.558 273.082C224.935 273.32 223.355 273.791 221.866 274.481L221.93 274.449Z" fill="white"/>
<path d="M234.185 248.245C226.022 247.035 217.732 230.561 216.301 219.326C216.207 218.547 228.925 194.277 230.914 189.217C231.324 188.165 259.686 209.584 259.686 209.584C259.686 209.584 252.322 218.968 248.882 227.836C248.64 228.573 242.075 249.402 234.185 248.245Z" fill="#E3A59D"/>
<path opacity="0.4" d="M259.729 209.583C259.729 209.583 252.364 218.967 248.913 227.825L247.735 231.17C233.154 223.806 227.211 210.656 224.812 201.977L230.956 189.216C231.366 188.175 259.729 209.583 259.729 209.583Z" fill="#1F1B2D"/>
<path d="M237.469 149.793C229.168 159.398 220.868 194.04 225.613 204.686C232.503 220.108 250.861 229.377 265.715 219.519C280.159 209.957 290.174 164.615 284.209 154.222C275.435 138.905 249.714 135.612 237.469 149.793Z" fill="#E3A59D"/>
<path d="M259.646 177.934C258.594 178.018 257.542 177.934 256.49 177.934C255.373 178.086 254.237 177.864 253.26 177.303C252.987 177.066 252.801 176.746 252.728 176.392C252.656 176.038 252.702 175.671 252.86 175.346C253.271 174.753 253.833 174.28 254.488 173.977C255.142 173.673 255.866 173.55 256.584 173.621C258.06 173.534 259.515 173.999 260.666 174.925C260.91 175.155 261.082 175.449 261.163 175.774C261.244 176.099 261.23 176.44 261.123 176.757C261.015 177.074 260.819 177.354 260.557 177.562C260.295 177.77 259.979 177.9 259.646 177.934ZM258.72 183.015C258.72 182.92 258.51 183.089 258.489 183.194C258.099 185.561 257.247 188.212 254.964 188.57C254.891 188.57 254.87 188.696 254.964 188.706C257.626 188.854 258.72 185.329 258.72 183.015Z" fill="#1F1B2D"/>
<path d="M257.099 180.139C253.364 179.087 251.555 186.65 254.995 187.608C258.435 188.566 260.223 181.012 257.099 180.139ZM272.29 185.935C272.29 185.851 272.448 186.093 272.426 186.188C271.795 188.502 271.459 191.269 273.384 192.5C273.447 192.5 273.384 192.657 273.331 192.626C270.838 191.7 271.322 188.039 272.29 185.935Z" fill="#1F1B2D"/>
<path d="M274.963 184C278.792 184.611 277.288 192.216 273.743 191.648C270.198 191.08 271.754 183.485 274.963 184ZM278.845 180.255C277.878 179.806 276.937 179.304 276.025 178.751C274.956 178.356 274.049 177.615 273.448 176.647C273.316 176.308 273.301 175.936 273.403 175.587C273.506 175.239 273.722 174.935 274.016 174.722C275.31 173.88 276.804 174.269 278.129 174.922C279.481 175.537 280.557 176.631 281.149 177.993C281.273 178.314 281.301 178.663 281.229 178.999C281.156 179.335 280.987 179.642 280.742 179.883C280.497 180.124 280.186 180.287 279.849 180.354C279.512 180.42 279.163 180.385 278.845 180.255ZM250.893 203.273C251.314 203.957 251.693 204.84 252.524 205.114C253.401 205.303 254.308 205.303 255.185 205.114C255.203 205.112 255.221 205.116 255.236 205.125C255.251 205.134 255.263 205.148 255.27 205.165C255.277 205.182 255.279 205.199 255.275 205.217C255.271 205.235 255.262 205.25 255.248 205.261C254.806 205.64 254.269 205.891 253.695 205.989C253.121 206.088 252.53 206.029 251.987 205.819C251.539 205.583 251.172 205.218 250.932 204.772C250.692 204.326 250.591 203.819 250.641 203.315C250.641 203.178 250.83 203.168 250.893 203.273ZM255.017 196.866C255.392 197.931 255.983 198.908 256.752 199.735C257.521 200.563 258.453 201.222 259.488 201.674C260.388 202.08 261.34 202.356 262.318 202.495C262.501 202.536 262.688 202.557 262.875 202.558C263.054 202.569 263.233 202.569 263.412 202.558C263.542 202.566 263.671 202.529 263.778 202.455C263.885 202.38 263.963 202.272 264.001 202.147C264.006 202.063 264.006 201.979 264.001 201.895V201.684C264.474 199.896 264.958 197.119 264.958 197.119C265.537 197.603 268.525 199.917 268.703 198.96C270.103 191.07 271.649 182.296 271.376 174.143C271.376 174.085 271.352 174.028 271.311 173.987C271.291 173.966 271.266 173.95 271.239 173.939C271.212 173.927 271.184 173.922 271.155 173.922C271.125 173.922 271.097 173.927 271.07 173.939C271.043 173.95 271.018 173.966 270.998 173.987C270.957 174.028 270.934 174.085 270.934 174.143C269.293 181.675 268.987 189.45 267.452 197.045C266.423 196.2 265.279 195.506 264.054 194.983C263.78 194.983 263.223 200.369 262.938 201.148C262.941 201.176 262.941 201.204 262.938 201.232C259.782 200.895 257.763 199.433 255.311 196.709C255.154 196.53 254.922 196.645 255.017 196.866Z" fill="#1F1B2D"/>
<path d="M261.477 201.321C260.181 202.367 258.638 203.062 256.996 203.341C256.097 203.466 255.181 203.308 254.376 202.888C252.63 201.952 252.988 200.227 253.682 198.838C254.06 198.106 254.522 197.421 255.06 196.797C256.661 198.952 258.91 200.537 261.477 201.321Z" fill="#1F1B2D"/>
<path d="M256.996 203.347C256.097 203.472 255.181 203.314 254.376 202.894C252.63 201.958 252.988 200.233 253.682 198.844C255.639 199.528 257.29 201.369 256.996 203.347Z" fill="#FF548A"/>
<path d="M287.384 167.714C272.656 173.879 257.76 156.826 257.76 156.826C256.072 159.414 253.593 161.388 250.693 162.453C247.793 163.519 244.626 163.619 241.664 162.738C241.664 162.738 234.595 184.062 228.83 182.779C220.067 180.906 223.57 150.546 227.536 145.265C231.502 139.984 239.287 140.005 239.287 140.005C239.287 140.005 240.77 135.576 247.061 132.557C254.004 129.211 273.361 139.7 273.361 139.7C275.118 137.18 277.442 135.108 280.146 133.651C280.799 133.284 281.519 133.053 282.264 132.973C283.009 132.893 283.762 132.964 284.478 133.184C285.194 133.403 285.858 133.765 286.43 134.249C287.002 134.733 287.47 135.327 287.805 135.997C286.368 137.379 285.264 139.07 284.575 140.941C282.208 147.127 287.437 148.21 288.604 142.393C289.112 140.234 288.828 137.964 287.805 135.997C291.171 132.735 295.642 132.378 297.778 134.945C301.702 139.647 299.64 162.602 287.384 167.714Z" fill="#1F1B2D"/>
<path d="M251.259 194.73C249.447 194.149 247.834 193.07 246.605 191.618C245.376 190.165 244.579 188.396 244.305 186.513C244.032 184.63 244.292 182.708 245.058 180.965C245.823 179.223 247.062 177.73 248.634 176.658C250.206 175.585 252.048 174.976 253.95 174.899C255.851 174.822 257.736 175.28 259.39 176.221C261.044 177.163 262.4 178.55 263.304 180.224C264.208 181.898 264.624 183.794 264.504 185.693C264.405 187.235 263.955 188.735 263.189 190.077C262.424 191.42 261.363 192.571 260.086 193.442C258.809 194.313 257.351 194.881 255.821 195.105C254.292 195.329 252.731 195.2 251.259 194.73ZM257.066 176.688C256.384 176.467 255.678 176.329 254.962 176.278C252.72 176.118 250.502 176.821 248.759 178.242C247.017 179.662 245.882 181.694 245.588 183.923C245.293 186.151 245.859 188.408 247.171 190.233C248.483 192.058 250.442 193.315 252.648 193.745C254.854 194.174 257.141 193.746 259.043 192.548C260.945 191.349 262.318 189.471 262.882 187.295C263.446 185.119 263.158 182.81 262.077 180.838C260.996 178.866 259.204 177.383 257.066 176.688ZM273.677 198.98C270.037 197.612 268.144 192.668 269.469 187.503C270.034 185.032 271.363 182.801 273.267 181.127C274.036 180.351 274.994 179.789 276.046 179.494C277.097 179.199 278.208 179.183 279.268 179.446C280.328 179.709 281.302 180.243 282.094 180.995C282.886 181.747 283.469 182.691 283.787 183.736C284.679 186.11 284.807 188.703 284.155 191.153C282.809 196.581 278.422 200.19 274.372 199.18C274.135 199.134 273.902 199.067 273.677 198.98ZM279.369 180.938L278.874 180.791C278.024 180.619 277.146 180.655 276.312 180.895C275.479 181.135 274.716 181.572 274.088 182.169C272.407 183.66 271.234 185.639 270.732 187.829C269.564 192.542 271.3 197.044 274.635 197.865C277.97 198.686 281.609 195.529 282.777 190.827C283.363 188.656 283.252 186.356 282.462 184.252C282.208 183.514 281.801 182.837 281.268 182.266C280.735 181.695 280.088 181.242 279.369 180.938Z" fill="#454056"/>
<path d="M263.947 186.784L263.295 185.595C265.052 184.617 268.881 183.607 270.806 186.647L269.649 187.363C267.934 184.638 264.105 186.689 263.947 186.784ZM219.048 180.577L217.996 179.736C218.396 179.241 221.941 174.897 225.002 175.002C227.874 175.107 245.401 180.262 246.148 180.525L245.758 181.829C240.73 180.335 227.18 176.432 224.96 176.359C222.919 176.285 220.005 179.378 219.048 180.577Z" fill="#454056"/>
<path d="M232.587 180.802C232.587 180.802 229.757 167.252 223.908 167.831C218.059 168.41 217.07 185.841 221.752 190.291C222.311 190.903 222.988 191.395 223.742 191.739C224.496 192.082 225.312 192.269 226.141 192.289C226.969 192.308 227.793 192.16 228.563 191.853C229.333 191.546 230.033 191.086 230.62 190.502L232.587 180.802Z" fill="#E3A59D"/>
<path d="M223.75 172.834C223.665 172.781 223.592 172.897 223.655 172.97C226.885 176.21 227.379 180.703 227.221 185.058C226.674 183.122 225.432 181.649 222.907 182.207C222.781 182.207 222.812 182.428 222.907 182.459C223.686 182.531 224.423 182.845 225.015 183.356C225.607 183.867 226.026 184.55 226.211 185.31C226.52 186.579 226.691 187.877 226.726 189.182C226.726 189.613 227.462 189.697 227.504 189.182C227.499 189.147 227.499 189.111 227.504 189.076C229.755 184.216 228.873 175.611 223.75 172.834Z" fill="#1F1B2D"/>
<path d="M304.713 275.896C307.375 268.89 369.085 281.577 366.624 292.318C357.587 331.663 332.402 366.82 326.037 374.858C317.685 385.378 301.063 383.042 295.003 376.667C286.219 367.42 302.083 282.839 304.713 275.896Z" fill="#E3A59D"/>
<path d="M300.367 295.214C298.995 298.984 297.908 302.853 297.116 306.786C296.222 310.678 295.443 314.592 294.812 318.526C293.564 326.485 292.861 334.52 292.708 342.575C292.592 347.077 292.708 351.569 292.708 356.072C292.708 356.177 292.876 356.167 292.876 356.072C292.876 352.085 293.118 348.066 293.444 344.09C293.77 340.114 294.17 336.063 294.686 332.076C295.685 324.239 296.79 316.412 298.21 308.637L299.441 302.115C299.893 299.864 300.409 297.623 300.703 295.34C300.703 295.172 300.44 295.024 300.367 295.214Z" fill="#1F1B2D"/>
<path d="M289.826 165.007C289.419 170.364 288.619 175.684 287.428 180.923L286.786 183.638C285.903 187.235 284.851 190.854 283.63 194.336C283.35 195.178 283.055 196.009 282.747 196.83C279.012 206.918 274.077 215.597 268.523 219.279C267.112 220.225 265.616 221.035 264.053 221.699C256.09 217.055 249.439 210.462 244.727 202.539C240.015 194.616 237.398 185.624 237.12 176.41L235.438 175.948L236.238 174.675C236.539 174.172 236.829 173.663 237.11 173.149C237.531 159.605 243.003 146.708 252.449 136.992C265.673 133.436 281.504 138.517 288.163 150.121C289.784 152.993 290.278 158.4 289.826 165.007Z" fill="#E3A59D"/>
<path d="M262.106 175.236C260.989 175.294 259.868 175.294 258.751 175.236C257.457 175.236 256.426 175.331 255.321 174.563C255.024 174.311 254.82 173.966 254.744 173.584C254.668 173.202 254.723 172.806 254.9 172.459C255.71 171.028 257.288 170.66 258.845 170.628C260.407 170.536 261.948 171.027 263.169 172.007C263.44 172.246 263.634 172.56 263.728 172.909C263.823 173.258 263.813 173.627 263.7 173.971C263.587 174.315 263.375 174.617 263.092 174.842C262.809 175.067 262.467 175.204 262.106 175.236ZM261.128 180.675C261.128 180.58 260.907 180.759 260.886 180.854C260.476 183.368 259.571 186.177 257.151 186.556C257.078 186.556 257.057 186.692 257.151 186.703C259.971 186.808 261.128 183.074 261.128 180.675Z" fill="#1F1B2D"/>
<path d="M259.412 177.565C255.457 176.46 253.542 184.455 257.203 185.476C260.864 186.497 262.726 178.49 259.412 177.565ZM275.508 183.698C275.508 183.614 275.676 183.866 275.645 183.971C274.971 186.422 274.593 189.347 276.697 190.704C276.76 190.704 276.697 190.872 276.644 190.841C273.972 189.799 274.477 185.928 275.508 183.698Z" fill="#1F1B2D"/>
<path d="M278.339 181.648C282.389 182.301 280.79 190.359 277.034 189.759C273.278 189.159 274.941 181.101 278.339 181.648ZM282.442 177.682C281.39 177.23 280.474 176.63 279.464 176.094C278.337 175.68 277.376 174.907 276.729 173.895C276.591 173.538 276.575 173.145 276.684 172.778C276.792 172.411 277.019 172.09 277.329 171.865C278.707 170.971 280.285 171.381 281.684 172.075C283.102 172.731 284.227 173.889 284.84 175.326C284.96 175.659 284.981 176.019 284.902 176.364C284.823 176.709 284.647 177.024 284.395 177.272C284.142 177.52 283.824 177.69 283.478 177.763C283.132 177.836 282.772 177.807 282.442 177.682ZM252.838 202.068C253.291 202.783 253.69 203.719 254.574 204.014C255.499 204.219 256.458 204.219 257.383 204.014C257.401 204.013 257.42 204.018 257.436 204.028C257.452 204.038 257.464 204.052 257.472 204.068C257.48 204.084 257.482 204.104 257.48 204.122C257.477 204.14 257.469 204.158 257.457 204.172C256.987 204.574 256.417 204.841 255.807 204.944C255.198 205.048 254.572 204.985 253.995 204.761C253.523 204.509 253.136 204.123 252.883 203.651C252.63 203.179 252.523 202.643 252.575 202.11C252.565 201.962 252.765 201.962 252.838 202.068ZM257.215 195.272C257.607 196.402 258.229 197.439 259.042 198.317C259.855 199.195 260.841 199.896 261.938 200.374C262.891 200.804 263.901 201.094 264.936 201.237C265.133 201.281 265.334 201.306 265.536 201.31C265.722 201.322 265.908 201.322 266.093 201.31C266.232 201.319 266.369 201.282 266.483 201.203C266.597 201.124 266.683 201.011 266.725 200.879C266.736 200.795 266.736 200.71 266.725 200.627V200.406L267.777 195.566C268.387 196.082 271.553 198.533 271.732 197.523C273.216 189.107 274.888 179.86 274.573 171.223C274.573 171.162 274.548 171.103 274.505 171.059C274.462 171.015 274.403 170.992 274.341 170.992C274.311 170.992 274.281 170.998 274.253 171.009C274.225 171.021 274.199 171.038 274.178 171.059C274.134 171.103 274.11 171.162 274.11 171.223C272.363 179.197 272.006 187.434 270.417 195.419C269.291 194.548 268.048 193.84 266.725 193.315C266.441 193.315 265.841 199.017 265.546 199.848C265.551 199.876 265.551 199.904 265.546 199.932C262.254 199.574 260.066 198.039 257.478 195.135C257.351 194.925 257.109 195.04 257.215 195.272Z" fill="#1F1B2D"/>
<path d="M264.054 200.009C262.68 201.107 261.045 201.832 259.309 202.113C258.359 202.249 257.39 202.08 256.542 201.629C254.68 200.64 255.07 198.809 255.806 197.347C256.203 196.57 256.69 195.843 257.258 195.18C258.949 197.474 261.331 199.167 264.054 200.009Z" fill="#1F1B2D"/>
<path d="M259.298 202.14C258.347 202.277 257.378 202.107 256.531 201.656C254.669 200.668 255.058 198.837 255.794 197.375C257.856 198.101 259.613 200.036 259.298 202.14Z" fill="#FF548A"/>
<path d="M291.488 164.41L289.826 165.01C274.761 169.681 260.107 152.87 260.107 152.87C258.327 155.62 255.706 157.72 252.634 158.858C249.562 159.996 246.205 160.109 243.064 159.182C241.43 163.996 239.429 168.677 237.078 173.184C237.361 164.238 239.849 155.501 244.319 147.747C248.789 139.993 255.105 133.463 262.705 128.737C267.504 130.421 272.173 132.453 276.676 134.817C278.541 132.149 281.005 129.955 283.871 128.411C284.562 128.022 285.324 127.777 286.112 127.691C286.9 127.605 287.698 127.68 288.456 127.911C289.214 128.142 289.918 128.524 290.524 129.035C291.13 129.546 291.626 130.175 291.982 130.883C295.552 127.453 300.283 127.076 302.502 129.841C306.647 134.702 304.48 158.992 291.488 164.41ZM263.389 174.509C261.638 173.05 259.468 172.188 257.193 172.048C256.508 172.003 255.821 172.028 255.141 172.121C253.436 172.342 251.809 172.968 250.396 173.947C248.983 174.926 247.825 176.23 247.02 177.749C246.787 178.174 246.59 178.617 246.431 179.075C246.065 180.047 245.849 181.068 245.789 182.105C245.642 184.492 246.293 186.86 247.639 188.837C248.985 190.814 250.951 192.287 253.226 193.024C254.08 193.293 254.963 193.459 255.856 193.519H256.53C259.109 193.524 261.604 192.604 263.563 190.927C265.522 189.25 266.815 186.926 267.208 184.377C267.208 184.072 267.281 183.767 267.302 183.451C267.323 183.135 267.302 182.988 267.302 182.767C267.299 181.188 266.946 179.628 266.27 178.2C265.594 176.772 264.609 175.512 263.389 174.509ZM255.941 192.078C253.679 191.934 251.547 190.97 249.944 189.367C248.342 187.764 247.378 185.632 247.234 183.37C247.09 181.108 247.775 178.871 249.16 177.078C250.546 175.284 252.537 174.057 254.762 173.626C255.534 173.476 256.323 173.426 257.108 173.478C257.881 173.529 258.644 173.674 259.381 173.91C260.32 174.212 261.204 174.663 262 175.246C263.635 176.43 264.841 178.113 265.437 180.042C266.032 181.971 265.984 184.041 265.3 185.94C264.617 187.839 263.334 189.465 261.646 190.572C259.957 191.679 257.955 192.208 255.941 192.078ZM287.616 181.379L287.427 180.926C286.783 179.447 285.675 178.218 284.271 177.423C283.818 177.171 283.333 176.98 282.83 176.855C282.097 176.677 281.337 176.634 280.589 176.729C279.064 176.942 277.634 177.597 276.476 178.612C275.606 179.353 274.854 180.222 274.246 181.189C273.782 181.906 273.391 182.667 273.078 183.462C272.863 183.974 272.687 184.501 272.552 185.04C272.514 185.147 272.482 185.256 272.457 185.366C271.833 187.751 271.899 190.265 272.646 192.614C272.958 193.702 273.508 194.707 274.255 195.557C275.003 196.407 275.93 197.08 276.97 197.527C277.191 197.608 277.415 197.678 277.643 197.737C278.515 197.935 279.417 197.957 280.296 197.802C281.176 197.646 282.016 197.317 282.767 196.833C285.446 195.082 287.334 192.352 288.027 189.227C288.713 186.632 288.57 183.888 287.616 181.379ZM286.564 188.88C286.086 190.932 285.065 192.817 283.608 194.34C282.922 195.139 282.038 195.744 281.045 196.095C280.052 196.446 278.984 196.53 277.949 196.338C274.414 195.465 272.573 190.7 273.814 185.713C274.345 183.395 275.584 181.299 277.359 179.717C278.028 179.085 278.838 178.622 279.722 178.367C280.606 178.113 281.538 178.074 282.441 178.254C282.616 178.296 282.788 178.349 282.956 178.412C283.718 178.737 284.403 179.217 284.968 179.822C285.534 180.427 285.966 181.144 286.238 181.926C286.463 182.479 286.632 183.054 286.743 183.641C287.079 185.376 287.033 187.164 286.607 188.88H286.564Z" fill="#1F1B2D"/>
<path d="M266.661 184.605L265.977 183.343C267.839 182.291 271.9 181.239 273.93 184.5L272.71 185.258C270.89 182.333 266.839 184.511 266.661 184.605ZM247.798 177.978L247.388 179.356L246.431 179.072L237.089 176.4L235.406 175.937L236.205 174.664L237.057 174.906L247.02 177.746L247.798 177.978Z" fill="#1F1B2D"/>
<g opacity="0.3">
<path opacity="0.54" d="M302.977 227.794C292.495 230.102 281.565 229.251 271.568 225.347C261.571 221.443 252.956 214.663 246.812 205.862C240.668 197.061 237.273 186.638 237.054 175.908C236.836 165.178 239.804 154.623 245.584 145.58C251.363 136.537 259.695 129.411 269.524 125.103C279.354 120.795 290.241 119.498 300.807 121.378C311.374 123.258 321.146 128.228 328.887 135.661C336.628 143.094 341.992 152.657 344.299 163.138C345.832 170.097 345.979 177.289 344.732 184.305C343.485 191.321 340.868 198.022 337.031 204.026C333.194 210.03 328.211 215.219 322.368 219.297C316.525 223.376 309.936 226.263 302.977 227.794Z" fill="white"/>
<path opacity="0.5" d="M243.716 200.852C250.59 213.399 262.138 222.726 275.851 226.806C289.563 230.886 304.332 229.388 316.946 222.639L243.716 200.852ZM245.273 146.117L345.571 175.962C345.658 171.653 345.234 167.348 344.309 163.138C343.26 158.309 341.542 153.649 339.206 149.294L265.167 127.254C257.032 131.737 250.182 138.232 245.273 146.117ZM237.446 181.138L332.979 209.542C335.255 206.808 337.26 203.859 338.964 200.737L237.236 170.46C236.943 174.017 237.013 177.595 237.446 181.138ZM241.802 152.681L344.898 183.368L345.171 181.411L242.622 150.903L241.802 152.681ZM282.335 121.3L328.097 134.913L324.363 131.757L287.196 120.711C285.566 120.824 283.944 121.021 282.335 121.3Z" fill="white"/>
</g>
<path d="M310.444 294.87L324.376 291.802L310.884 230.539L296.953 233.607L310.444 294.87Z" fill="#EFECF3"/>
<path d="M350.232 161.834C347.667 150.182 341.704 139.554 333.097 131.291C324.49 123.028 313.628 117.504 301.882 115.416C290.136 113.327 278.034 114.769 267.107 119.558C256.18 124.347 246.919 132.269 240.494 142.322C234.069 152.374 230.77 164.106 231.013 176.034C231.256 187.962 235.03 199.55 241.859 209.333C248.688 219.116 258.264 226.654 269.377 230.994C280.49 235.334 292.64 236.282 304.292 233.717C319.913 230.272 333.528 220.765 342.143 207.286C350.758 193.807 353.667 177.458 350.232 161.834ZM302.977 227.794C292.496 230.105 281.565 229.255 271.567 225.353C261.568 221.45 252.952 214.671 246.807 205.871C240.662 197.071 237.265 186.648 237.045 175.917C236.825 165.186 239.791 154.632 245.57 145.588C251.349 136.544 259.68 129.416 269.51 125.107C279.34 120.798 290.226 119.501 300.793 121.38C311.36 123.259 321.133 128.228 328.875 135.661C336.617 143.094 341.981 152.656 344.289 163.138C345.822 170.096 345.969 177.288 344.723 184.303C343.476 191.318 340.86 198.019 337.024 204.023C333.188 210.027 328.207 215.216 322.365 219.295C316.523 223.374 309.935 226.262 302.977 227.794Z" fill="#666276"/>
<path d="M316.199 337.978L337.271 333.338L325.32 279.023L304.238 283.663L316.199 337.978Z" fill="#454056"/>
<path opacity="0.2" d="M325.395 180.094C325.372 180.156 325.355 180.219 325.342 180.283C325.09 181.188 325.616 179.41 325.426 179.999L324.7 182.103C323.78 184.544 322.654 186.902 321.334 189.152L320.776 190.099C320.713 190.204 321.239 189.362 320.776 190.025L320.408 190.593L318.914 192.697C317.775 194.237 316.534 195.699 315.201 197.073L314.233 198.041C313.791 198.473 314.748 197.568 314.138 198.125L313.528 198.683L311.088 200.661L308.289 202.586L306.953 203.375C306.175 203.827 307.29 203.217 306.711 203.512L305.88 203.932C303.367 205.169 300.738 206.156 298.032 206.878H297.895L297.601 206.941L296.391 207.204L294.024 207.614L288.985 208.077C288.517 208.13 288.063 208.275 287.651 208.504C287.239 208.733 286.875 209.039 286.582 209.408C285.989 210.153 285.716 211.103 285.824 212.049C285.932 212.995 286.41 213.859 287.155 214.452C287.9 215.044 288.849 215.317 289.795 215.21C300.544 214.877 310.823 210.726 318.788 203.501C324.08 198.545 328.218 192.487 330.907 185.754C331.523 184.251 332.036 182.708 332.443 181.136C332.589 180.196 332.356 179.236 331.796 178.468C331.236 177.7 330.395 177.183 329.455 177.033C328.518 176.907 327.569 177.147 326.805 177.704C326.041 178.261 325.52 179.09 325.353 180.02L325.395 180.094Z" fill="white"/>
<path d="M326.866 178.261C326.972 178.953 327.282 179.597 327.755 180.113C328.229 180.628 328.845 180.992 329.525 181.157C330.205 181.322 330.919 181.282 331.576 181.041C332.233 180.8 332.804 180.369 333.216 179.803C333.628 179.237 333.863 178.562 333.891 177.863C333.919 177.164 333.738 176.472 333.373 175.875C333.007 175.278 332.472 174.803 331.836 174.511C331.2 174.218 330.492 174.121 329.801 174.232C328.878 174.378 328.051 174.885 327.501 175.64C326.951 176.395 326.722 177.338 326.866 178.261Z" fill="white"/>
<path d="M362.478 304.617C362.478 304.617 377.542 279.853 358.785 256.225C351.064 246.504 332.843 229.073 295.876 231.503C287.102 232.081 275.014 239.119 289.679 243.38C300.094 246.409 307.616 245.179 313.36 248.04C313.36 248.04 299.042 258.823 299.968 267.586C300.378 271.5 300.683 280.052 302.945 288.195C302.945 288.195 305.912 290.299 308.321 289.941C308.321 289.941 314.812 308.667 338.156 314.421L362.478 304.617Z" fill="#E3A59D"/>
<path d="M350.865 253.048C344.826 250.639 331.929 245.757 319.988 245.421C306.723 245.052 281.064 247.924 280.907 257.718C280.78 264.904 290.669 264.662 290.669 264.662C290.669 264.662 280.317 268.081 281.633 274.593C282.821 280.526 290.459 279.853 290.459 279.853C290.459 279.853 284.536 283.009 286.787 288.5C289.491 295.107 301.452 287.448 309.931 291.74C311.888 292.75 350.865 253.048 350.865 253.048Z" fill="#E3A59D"/>
<path d="M321.912 259.498C315.863 258.173 301.334 258.678 290.793 264.432C290.551 264.559 290.52 264.811 290.793 264.737C300.922 261.784 311.371 260.067 321.912 259.625C322.006 259.625 322.006 259.572 321.912 259.498ZM321.175 272.88C315.831 272.27 300.882 273.458 290.404 279.655C290.162 279.791 290.152 280.044 290.404 279.96C300.372 276.486 310.702 274.153 321.196 273.006C321.213 273.003 321.228 272.994 321.238 272.98C321.248 272.966 321.252 272.949 321.249 272.932C321.246 272.915 321.237 272.901 321.223 272.891C321.209 272.881 321.192 272.877 321.175 272.88ZM342.71 316.033C337.354 314.762 332.185 312.807 327.329 310.215C322.44 307.569 318.113 303.996 314.59 299.695C313.538 298.38 312.486 297.013 311.57 295.614C310.654 294.215 309.645 292.626 308.562 291.237C308.478 291.132 308.278 291.237 308.341 291.332C309.56 294.252 311.061 297.046 312.822 299.674C314.402 302.132 316.29 304.376 318.44 306.354C322.685 310.132 327.715 312.92 333.168 314.518C336.264 315.38 339.434 315.954 342.636 316.233C342.794 316.275 342.857 316.064 342.71 316.033Z" fill="#1F1B2D"/>
<path d="M189.151 236.788C162.052 273.176 116.826 368.014 110.178 381.964C105.665 391.432 155.14 416.364 157.234 409.484C159.927 400.668 204.163 284.296 210.36 241.869C213.747 218.609 198.525 224.195 189.151 236.788Z" fill="#E3A59D"/>
<path d="M158.571 404.75C157.424 413.324 151.596 430.598 147.262 433.238C142.928 435.878 120.152 435.342 108.674 435.342C97.1958 435.342 94.9978 432.134 95.1348 428.189C95.2718 424.244 119.405 423.486 119.405 423.486C119.405 423.486 87.2338 432.66 79.1448 434.206C71.0558 435.752 52.4238 440.413 49.6888 433.712C48.4788 430.682 53.5808 427.62 53.5808 427.62C53.5808 427.62 45.7648 429.903 44.5128 426.021C43.1028 421.592 49.3208 419.162 49.3208 419.162C49.3208 419.162 44.4288 420.141 44.3138 416.532C44.1038 408.432 74.6958 404.476 74.6958 404.476C74.6958 404.476 51.2788 415.88 50.4998 409.295C49.4478 400.195 97.4608 390.211 102.458 386.245C106.094 383.214 109.494 379.912 112.631 376.367L158.572 404.75H158.571Z" fill="#E3A59D"/>
<path d="M95.3026 430.14C95.2216 429.582 95.2746 429.011 95.4576 428.477C95.6406 427.943 95.9481 427.46 96.3546 427.068C97.1795 426.313 98.1253 425.701 99.1526 425.259C101.275 424.357 103.476 423.653 105.728 423.155C110.251 422.008 114.891 421.198 119.509 419.999C114.748 419.928 109.998 420.458 105.37 421.577C103.005 422.119 100.728 422.99 98.6056 424.165C97.5064 424.769 96.5431 425.593 95.7756 426.585C95.3983 427.087 95.1567 427.678 95.0738 428.301C94.991 428.923 95.0698 429.557 95.3026 430.14ZM53.6546 427.573C56.9686 426.763 60.2296 425.838 63.4806 424.891L73.2116 421.977L82.9006 418.947C86.1306 417.895 89.3596 416.927 92.6206 415.949C89.2348 416.321 85.8781 416.922 82.5736 417.748C79.2496 418.505 75.9876 419.452 72.7376 420.441C69.4876 421.43 66.2676 422.545 63.0906 423.723C59.9136 424.901 56.7056 426.143 53.6546 427.573ZM84.8146 407.901C81.694 408.097 78.5923 408.526 75.5356 409.184C72.4684 409.794 69.4374 410.574 66.4566 411.52C63.4686 412.446 60.5358 413.542 57.6726 414.802C54.7991 416.03 52.0182 417.465 49.3516 419.094L58.1256 415.938L66.9416 413.045L75.8306 410.373L84.8146 407.901ZM80.0806 400.242C75.0546 400.647 70.1032 401.708 65.3526 403.398C60.556 404.987 55.9897 407.202 51.7716 409.984L65.8786 404.924L80.0806 400.242Z" fill="#1F1B2D"/>
<path d="M200.669 299.157L145.754 297.642C145.754 297.642 175.684 250.007 191.716 232.534C208.453 214.334 217.564 215.901 211.851 248.145C206.097 280.61 200.669 299.157 200.669 299.157Z" fill="#FF9812"/>
<path d="M166.69 289.579C165.208 290.227 163.821 291.073 162.566 292.093C165.773 291.576 168.791 290.238 171.329 288.211C169.725 288.442 168.163 288.902 166.69 289.579ZM197.356 254.695C196.722 253.206 195.875 251.817 194.842 250.571C195.347 253.78 196.69 256.799 198.734 259.324C198.503 257.722 198.038 256.162 197.356 254.695ZM172.034 265.046C171.434 266.548 171.052 268.128 170.898 269.738C172.805 267.109 173.988 264.026 174.328 260.796C173.359 262.093 172.586 263.525 172.034 265.046ZM196.23 286.549C195.625 288.053 195.246 289.637 195.105 291.252C197 288.617 198.181 285.536 198.534 282.31C197.561 283.605 196.778 285.032 196.209 286.549H196.23ZM212.326 224.008L211.589 225.681C210.996 227.185 210.613 228.764 210.453 230.373C211.422 229.088 212.201 227.671 212.768 226.165L212.904 225.765C212.754 225.163 212.554 224.576 212.305 224.008H212.326Z" fill="white"/>
<path d="M197.231 289.61C195.926 289.42 194.59 289.42 193.286 289.357L189.235 289.136L181.04 288.81L164.65 288.379H160.137L155.403 288.547C155.308 288.547 155.319 288.694 155.403 288.694L159.453 289.063L163.609 289.283L171.814 289.546L187.952 289.83H192.518L197.252 289.778C197.294 289.746 197.315 289.62 197.231 289.61ZM211.317 263.446C211.317 263.341 211.191 263.278 211.138 263.383C210.119 265.259 209.247 267.211 208.529 269.222L209.118 266.339L210.875 257.04C210.868 257.021 210.856 257.005 210.84 256.994C210.824 256.982 210.805 256.976 210.786 256.976C210.766 256.976 210.747 256.982 210.731 256.994C210.715 257.006 210.703 257.022 210.696 257.04C209.276 262.363 207.624 267.633 206.362 272.999L202.648 289.115C202.007 292.092 201.428 295.806 200.776 298.773C199.187 298.962 197.146 298.773 195.432 298.993C195.284 298.993 195.326 299.256 195.432 299.256C197.241 299.309 199.398 299.719 201.302 299.604C201.544 299.604 206.151 280.468 208.066 271.305C209.244 268.696 210.338 266.087 211.317 263.446ZM250.378 233.696L247.737 241.123C246.903 243.312 245.878 245.424 244.676 247.435C242.403 251.022 238.911 253.989 234.482 253.978C230.274 253.978 226.424 251.538 223.73 248.424C220.785 245.026 218.828 240.765 217.071 236.662C216.019 234.127 214.967 231.539 214.126 228.92C213.694 227.594 213.242 226.269 212.863 224.922C212.484 223.575 212.158 222.218 211.696 220.903C211.696 220.798 211.464 220.809 211.496 220.903C212.274 223.933 214.536 233.527 215.441 235.968C217.103 240.439 218.975 245.057 221.974 248.824C224.814 252.379 228.675 255.072 233.293 255.514C237.911 255.956 241.867 253.526 244.413 249.865C245.91 247.559 247.078 245.056 247.884 242.427C248.863 239.545 249.683 236.589 250.43 233.633C250.472 233.675 250.378 233.664 250.378 233.696Z" fill="#1F1B2D"/>
<path d="M422.754 437.888H347.315L343.949 371.57H422.754V437.888Z" fill="#EFECF3"/>
<path d="M422.758 371.568L449.858 337.641L471.424 371.568L468.058 437.886H422.758V371.568Z" fill="#EFECF3"/>
<path d="M370.282 326.867H450.812L479.858 374.249H470.506L450.812 341.448L428.1 378.163H337.301L370.282 326.867Z" fill="#BBB7C5"/>
<path d="M379.616 341.859H362.299L353.062 352.927H373.051L379.616 341.859Z" fill="#D5D2DC"/>
<path d="M366.496 351.036V364.512H356.859V351.036L361.677 345.008L366.496 351.036Z" fill="#EFECF3"/>
<path d="M366.496 351.023H374.071L366.496 364.51V351.023Z" fill="#EFECF3"/>
<path d="M364.172 351.242H358.691V360.489H364.172V351.242Z" fill="white"/>
<path d="M361.13 351.883H359.363V354.86H361.13V351.883ZM363.487 351.883H361.719V354.86H363.487V351.883ZM361.13 355.397H359.363V359.805H361.13V355.397ZM363.487 355.397H361.719V359.805H363.487V355.397Z" fill="#FF9812"/>
<path d="M422.007 341.859H404.692L396.023 352.927H415.401L422.007 341.859Z" fill="#D5D2DC"/>
<path d="M408.89 351.036V364.512H399.254V351.036L404.072 345.008L408.89 351.036Z" fill="#EFECF3"/>
<path d="M408.891 351.023H416.476L408.891 364.51V351.023Z" fill="#EFECF3"/>
<path d="M406.567 351.242H401.086V360.489H406.567V351.242Z" fill="white"/>
<path d="M403.525 351.883H401.758V354.86H403.525V351.883ZM405.892 351.883H404.125V354.86H405.892V351.883ZM403.525 355.397H401.758V359.805H403.525V355.397ZM405.892 355.397H404.125V359.805H405.892V355.397Z" fill="#FF9812"/>
<path d="M436.37 324.953H426.734V337.64H436.37V324.953Z" fill="#EFECF3"/>
<path d="M436.367 324.953H443.942V326.994L436.367 337.64V324.953Z" fill="#EFECF3"/>
<path d="M436.368 320.641H425.648V324.954H436.368V320.641Z" fill="#BBB7C5"/>
<path d="M444.773 320.641H436.367V324.954H444.773V320.641Z" fill="#D5D2DC"/>
<path d="M367.222 383.594H355.293V403.74H367.222V383.594Z" fill="white"/>
<path d="M360.606 384.992H356.766V391.483H360.606V384.992Z" fill="#F5F4F8"/>
<path d="M365.75 384.992H361.91V391.483H365.75V384.992Z" fill="#F5F4F8"/>
<path d="M360.606 392.648H356.766V402.263H360.606V392.648Z" fill="#F5F4F8"/>
<path d="M365.75 392.648H361.91V402.263H365.75V392.648Z" fill="#F5F4F8"/>
<path d="M411.532 383.594H399.602V403.74H411.532V383.594Z" fill="white"/>
<path d="M404.914 384.992H401.074V391.483H404.914V384.992Z" fill="#FF9812"/>
<path d="M410.059 384.992H406.219V391.483H410.059V384.992Z" fill="#FF9812"/>
<path d="M404.914 392.648H401.074V402.263H404.914V392.648Z" fill="#FF9812"/>
<path d="M410.059 392.648H406.219V402.263H410.059V392.648Z" fill="#FF9812"/>
<path d="M367.222 411.586H355.293V431.732H367.222V411.586Z" fill="white"/>
<path d="M360.606 412.984H356.766V419.475H360.606V412.984Z" fill="#F5F4F8"/>
<path d="M365.75 412.984H361.91V419.475H365.75V412.984Z" fill="#F5F4F8"/>
<path d="M360.606 420.641H356.766V430.256H360.606V420.641Z" fill="#F5F4F8"/>
<path d="M365.75 420.641H361.91V430.256H365.75V420.641Z" fill="#F5F4F8"/>
<path d="M411.532 411.586H399.602V431.732H411.532V411.586Z" fill="white"/>
<path d="M404.914 412.984H401.074V419.475H404.914V412.984Z" fill="#FF9812"/>
<path d="M410.059 412.984H406.219V419.475H410.059V412.984Z" fill="#FF9812"/>
<path d="M404.914 420.641H401.074V430.256H404.914V420.641Z" fill="#FF9812"/>
<path d="M410.059 420.641H406.219V430.256H410.059V420.641Z" fill="#FF9812"/>
<path d="M389.312 383.594H377.383V403.74H389.312V383.594Z" fill="white"/>
<path d="M382.695 384.992H378.855V391.483H382.695V384.992Z" fill="#F5F4F8"/>
<path d="M387.852 384.992H384.012V391.483H387.852V384.992Z" fill="#F5F4F8"/>
<path d="M382.695 392.648H378.855V402.263H382.695V392.648Z" fill="#F5F4F8"/>
<path d="M387.852 392.648H384.012V402.263H387.852V392.648Z" fill="#F5F4F8"/>
<path d="M389.312 411.727H377.383V431.873H389.312V411.727Z" fill="white"/>
<path d="M382.695 413.109H378.855V419.6H382.695V413.109Z" fill="#F5F4F8"/>
<path d="M387.852 413.109H384.012V419.6H387.852V413.109Z" fill="#F5F4F8"/>
<path d="M382.695 420.781H378.855V430.396H382.695V420.781Z" fill="#F5F4F8"/>
<path d="M387.852 420.781H384.012V430.396H387.852V420.781Z" fill="#F5F4F8"/>
<path d="M444.195 403.74H456.125V383.594H444.195V403.74Z" fill="white"/>
<path d="M454.653 384.992H450.812V391.483H454.653V384.992Z" fill="#FF9812"/>
<path d="M449.496 384.992H445.656V391.483H449.496V384.992Z" fill="#FF9812"/>
<path d="M454.653 392.648H450.812V402.263H454.653V392.648Z" fill="#FF9812"/>
<path d="M449.496 392.648H445.656V402.263H449.496V392.648Z" fill="#FF9812"/>
<path d="M444.195 372.6H456.125V355.547H444.195V372.6Z" fill="white"/>
<path d="M454.651 356.938H450.811V363.427H454.651V356.938ZM449.496 356.938H445.656V363.427H449.496V356.938Z" fill="#FF9812"/>
<path d="M454.653 364.664H450.812V371.155H454.653V364.664Z" fill="#FF9812"/>
<path d="M449.496 364.664H445.656V371.155H449.496V364.664Z" fill="#FF9812"/>
<path d="M442.5 438.01L456.965 438.079L457.088 411.81L442.624 411.742L442.5 438.01Z" fill="white"/>
<path d="M448.276 413.56L448.258 417.494L451.371 417.509L451.389 413.575L448.276 413.56ZM444.207 413.539L444.188 417.473L447.302 417.488L447.32 413.553L444.207 413.539Z" fill="#FF9812"/>
<path d="M446.471 431.779L453.046 431.81L453.051 430.864L446.476 430.833L446.471 431.779ZM450.225 411.555V415.489H453.339V411.555H450.225ZM448.268 418.528L448.249 422.462L451.363 422.477L451.381 418.543L448.268 418.528ZM444.167 418.496L444.148 422.431L447.262 422.445L447.28 418.511L444.167 418.496ZM452.347 418.549L452.329 422.484L455.443 422.498L455.461 418.564L452.347 418.549ZM448.246 423.506L448.228 427.441L451.342 427.455L451.36 423.521L448.246 423.506ZM444.156 423.485L444.137 427.419L447.251 427.434L447.27 423.5L444.156 423.485ZM452.326 423.527L452.308 427.462L455.422 427.476L455.44 423.542L452.326 423.527Z" fill="#FF9812"/>
<path d="M215.132 438.069H148.119L145.121 405.594H215.132V438.069Z" fill="#EFECF3"/>
<path d="M215.113 405.552L239.182 375.422L258.35 405.552L255.352 438.027H215.113V405.552Z" fill="#EFECF3"/>
<path d="M168.12 365.891H240.908L267.87 411.453H260.517L239.919 377.158L220.131 411.453H139.484L168.12 365.891Z" fill="#BBB7C5"/>
<path d="M165.963 417.648H155.359V432.796H165.963V417.648Z" fill="white"/>
<path d="M160.072 418.891H156.664V424.656H160.072V418.891Z" fill="#FF9812"/>
<path d="M164.646 418.891H161.238V424.656H164.646V418.891Z" fill="#FF9812"/>
<path d="M160.072 425.742H156.664V431.507H160.072V425.742Z" fill="#FF9812"/>
<path d="M164.646 425.742H161.238V431.507H164.646V425.742Z" fill="#FF9812"/>
<path d="M204.909 417.648H194.305V432.796H204.909V417.648Z" fill="white"/>
<path d="M199.017 418.891H195.609V424.656H199.017V418.891Z" fill="#FF9812"/>
<path d="M203.592 418.891H200.184V424.656H203.592V418.891Z" fill="#FF9812"/>
<path d="M199.017 425.742H195.609V431.507H199.017V425.742Z" fill="#FF9812"/>
<path d="M203.592 425.742H200.184V431.507H203.592V425.742Z" fill="#FF9812"/>
<path d="M185.5 416.836H173.812V438.066H185.5V416.836Z" fill="white"/>
<path d="M180.912 418.297H178.398V421.474H180.912V418.297Z" fill="#FF9812"/>
<path d="M184.213 418.297H181.699V421.474H184.213V418.297Z" fill="#FF9812"/>
<path d="M182.312 432.234H177V433.002H182.312V432.234Z" fill="#EFECF3"/>
<path d="M177.608 418.297H175.094V421.474H177.608V418.297Z" fill="#FF9812"/>
<path d="M180.912 422.312H178.398V425.49H180.912V422.312Z" fill="#FF9812"/>
<path d="M184.213 422.312H181.699V425.49H184.213V422.312Z" fill="#FF9812"/>
<path d="M177.608 422.312H175.094V425.49H177.608V422.312Z" fill="#FF9812"/>
<path d="M180.912 426.336H178.398V429.513H180.912V426.336Z" fill="#FF9812"/>
<path d="M184.213 426.336H181.699V429.513H184.213V426.336Z" fill="#FF9812"/>
<path d="M177.608 426.336H175.094V429.513H177.608V426.336Z" fill="#FF9812"/>
<path d="M183.52 364.07H174.957V375.337H183.52V364.07Z" fill="#EFECF3"/>
<path d="M183.52 364.07H190.253V365.88L183.52 375.337V364.07Z" fill="#EFECF3"/>
<path d="M183.52 360.227H174V364.057H183.52V360.227Z" fill="#BBB7C5"/>
<path d="M190.989 360.227H183.52V364.057H190.989V360.227Z" fill="#D5D2DC"/>
<path d="M241.621 438.077H263.355L265.428 415.68H241.621V438.077Z" fill="#EFECF3"/>
<path d="M241.624 415.677L230.883 410.828L231.125 438.074H241.624V415.677Z" fill="#EFECF3"/>
<path d="M258.267 421.477H249.125V438.067H258.267V421.477Z" fill="white"/>
<path d="M254.677 422.609H252.71V425.092H254.677V422.609ZM257.255 422.609H255.288V425.092H257.255V422.609ZM255.771 432.393H251.616V432.992H255.771V432.393ZM252.1 422.609H250.133V425.092H252.1V422.609Z" fill="#EFECF3"/>
<path d="M229.242 409.711H260.823L271.027 417.474H240.709L229.242 409.711Z" fill="#BBB7C5"/>
<path d="M240.709 417.474H229.242V409.711L240.709 417.474Z" fill="#EFECF3"/>
<path d="M233.922 398.362C233.922 399.434 234.24 400.482 234.836 401.373C235.432 402.264 236.278 402.959 237.269 403.369C238.26 403.779 239.35 403.885 240.401 403.675C241.452 403.465 242.418 402.948 243.175 402.19C243.932 401.431 244.447 400.465 244.655 399.413C244.863 398.362 244.754 397.272 244.343 396.282C243.931 395.292 243.235 394.447 242.343 393.853C241.45 393.258 240.402 392.943 239.33 392.945C238.619 392.946 237.916 393.087 237.26 393.36C236.604 393.632 236.008 394.032 235.506 394.535C234.492 395.551 233.923 396.927 233.922 398.362Z" fill="white"/>
<path d="M235.133 398.361C235.133 399.477 235.577 400.548 236.366 401.337C237.155 402.126 238.225 402.569 239.341 402.569C239.696 402.572 240.05 402.526 240.393 402.433C241.373 402.167 242.224 401.555 242.788 400.711C243.352 399.867 243.593 398.848 243.465 397.841C243.337 396.834 242.849 395.906 242.091 395.231C241.333 394.556 240.357 394.176 239.341 394.164C238.986 394.162 238.632 394.208 238.289 394.301C237.799 394.42 237.338 394.634 236.932 394.932C236.38 395.318 235.929 395.831 235.616 396.428C235.303 397.025 235.137 397.687 235.133 398.361Z" fill="#FF9812"/>
<path d="M238.75 403.309H239.918V393.336H238.75V403.309Z" fill="white"/>
<path d="M244.328 398.902V397.734H234.355V398.902H244.328Z" fill="white"/>
<path d="M272.592 438.071H238.728L236.414 413.023H272.592V438.071Z" fill="#D5D2DC"/>
<path opacity="0.2" d="M272.592 438.071H238.728L236.414 413.023H272.592V438.071Z" fill="#1F1B2D"/>
<path d="M272.594 413.03L291.162 389.781L305.942 413.03L303.638 438.078H272.594V413.03Z" fill="#D5D2DC"/>
<path d="M274.835 416.085H228.883L256.835 380.938H291.351L312.097 416.085H306.826L291.351 392.004L274.835 416.085Z" fill="#D5D2DC"/>
<path opacity="0.4" d="M274.835 416.085H228.883L256.835 380.938H291.351L312.097 416.085H306.826L291.351 392.004L274.835 416.085Z" fill="#1F1B2D"/>
<path d="M321.206 349.852H311.633V362.455H321.206V349.852Z" fill="#D5D2DC"/>
<path opacity="0.2" d="M321.206 349.852H311.633V362.455H321.206V349.852Z" fill="#1F1B2D"/>
<path d="M328.741 349.855H321.208V362.458H328.741V349.855ZM321.208 345.562H310.562V349.844H321.208V345.562Z" fill="#D5D2DC"/>
<path opacity="0.5" d="M321.208 345.562H310.562V349.844H321.208V345.562Z" fill="#1F1B2D"/>
<path d="M329.56 345.562H321.207V349.844H329.56V345.562Z" fill="#D5D2DC"/>
<path opacity="0.4" d="M329.56 345.562H321.207V349.844H329.56V345.562Z" fill="#1F1B2D"/>
<path d="M354.85 438.045H279.895L276.539 401.719H354.85V438.045Z" fill="#D5D2DC"/>
<path opacity="0.2" d="M354.85 438.045H279.895L276.539 401.719H354.85V438.045Z" fill="#1F1B2D"/>
<path d="M354.852 401.716L381.773 368L403.212 401.716L399.856 438.042H354.852V401.716Z" fill="#D5D2DC"/>
<path d="M381.445 370.139L403.579 404.371H411.312L382.108 357.305H302.377L261.98 408.274H359.364L381.445 370.139Z" fill="#D5D2DC"/>
<path opacity="0.5" d="M381.445 370.139L403.579 404.371H411.312L382.108 357.305H302.377L261.98 408.274H359.364L381.445 370.139Z" fill="black"/>
<path d="M374.773 406.823H386.629V389.875H374.773V406.823Z" fill="white"/>
<path d="M385.17 391.25H381.352V397.699H385.17V391.25Z" fill="#FF9812"/>
<path d="M380.057 391.25H376.238V397.699H380.057V391.25Z" fill="#FF9812"/>
<path d="M385.17 398.93H381.352V405.379H385.17V398.93Z" fill="#FF9812"/>
<path d="M380.057 398.93H376.238V405.379H380.057V398.93Z" fill="#FF9812"/>
<path d="M299.84 415.195H287.984V432.143H299.84V415.195Z" fill="white"/>
<path d="M293.264 416.586H289.445V423.035H293.264V416.586Z" fill="#FF9812"/>
<path d="M298.389 416.586H294.57V423.035H298.389V416.586Z" fill="#FF9812"/>
<path d="M293.264 424.266H289.445V430.714H293.264V424.266Z" fill="#FF9812"/>
<path d="M298.389 424.266H294.57V430.714H298.389V424.266Z" fill="#FF9812"/>
<path d="M321.629 415.195H309.773V432.143H321.629V415.195Z" fill="white"/>
<path d="M315.042 416.586H311.223V423.035H315.042V416.586Z" fill="#FF9812"/>
<path d="M320.166 416.586H316.348V423.035H320.166V416.586Z" fill="#FF9812"/>
<path d="M315.042 424.266H311.223V430.714H315.042V424.266Z" fill="#FF9812"/>
<path d="M320.166 424.266H316.348V430.714H320.166V424.266Z" fill="#FF9812"/>
<path d="M343.403 415.195H331.547V432.143H343.403V415.195Z" fill="white"/>
<path d="M336.831 416.586H333.012V423.035H336.831V416.586Z" fill="#FF9812"/>
<path d="M341.94 416.586H338.121V423.035H341.94V416.586Z" fill="#FF9812"/>
<path d="M336.831 424.266H333.012V430.714H336.831V424.266Z" fill="#FF9812"/>
<path d="M341.94 424.266H338.121V430.714H341.94V424.266Z" fill="#FF9812"/>
<path d="M374.164 438.032H387.241V414.289H374.164V438.032Z" fill="white"/>
<path d="M382.117 415.93H379.297V419.486H382.117V415.93Z" fill="#FF9812"/>
<path d="M378.424 415.93H375.605V419.486H378.424V415.93ZM377.73 432.383H383.674V431.52H377.73V432.383Z" fill="#FF9812"/>
<path d="M385.8 415.93H382.98V419.486H385.8V415.93Z" fill="#FF9812"/>
<path d="M382.117 420.422H379.297V423.978H382.117V420.422Z" fill="#FF9812"/>
<path d="M378.424 420.422H375.605V423.978H378.424V420.422Z" fill="#FF9812"/>
<path d="M385.8 420.422H382.98V423.978H385.8V420.422Z" fill="#FF9812"/>
<path d="M382.117 424.914H379.297V428.47H382.117V424.914Z" fill="#FF9812"/>
<path d="M378.424 424.914H375.605V428.47H378.424V424.914Z" fill="#FF9812"/>
<path d="M385.8 424.914H382.98V428.47H385.8V424.914Z" fill="#FF9812"/>
<path d="M333.242 369.508H316.031L307.184 380.554H326.667L333.242 369.508Z" fill="#D5D2DC"/>
<path opacity="0.4" d="M333.242 369.508H316.031L307.184 380.554H326.667L333.242 369.508Z" fill="#1F1B2D"/>
<path d="M320.208 378.619V392.011H310.625V378.619L315.422 372.633L320.208 378.619Z" fill="#D5D2DC"/>
<path opacity="0.2" d="M320.208 378.619V392.011H310.625V378.619L315.422 372.633L320.208 378.619Z" fill="#1F1B2D"/>
<path d="M320.207 378.617H327.74L320.207 392.009V378.617Z" fill="#D5D2DC"/>
<path d="M317.884 378.828H312.445V388.012H317.884V378.828Z" fill="white"/>
<path d="M314.874 379.461H313.117V382.417H314.874V379.461ZM317.22 379.461H315.463V382.417H317.22V379.461ZM314.874 382.964H313.117V387.351H314.874V382.964ZM317.22 382.964H315.463V387.351H317.22V382.964Z" fill="#FF9812"/>
<path d="M433.025 241.608C437.71 245.592 441.196 250.8 443.093 256.65C444.99 262.5 445.224 268.763 443.768 274.738C442.312 280.713 439.225 286.167 434.85 290.489C430.474 294.811 424.984 297.832 418.991 299.215L411.627 314.29L404.484 299.32C399.143 298.176 394.171 295.717 390.019 292.167C386.699 289.342 383.969 285.892 381.982 282.012C379.996 278.132 378.794 273.899 378.443 269.554C378.093 265.209 378.602 260.838 379.941 256.69C381.28 252.542 383.423 248.699 386.248 245.379C391.952 238.675 400.086 234.511 408.861 233.803C413.206 233.453 417.577 233.962 421.725 235.301C425.873 236.64 429.716 238.783 433.036 241.608H433.025Z" fill="white"/>
<path d="M433.025 241.605C437.709 245.59 441.201 250.793 443.114 256.638C443.593 258.092 443.979 259.574 444.271 261.077C444.523 262.588 444.681 264.113 444.744 265.643C444.887 268.712 444.601 271.785 443.892 274.774C443.196 277.771 442.088 280.656 440.599 283.348C439.847 284.69 438.999 285.977 438.064 287.198C437.161 288.445 436.162 289.62 435.076 290.712C430.689 295.131 425.154 298.235 419.097 299.675L419.423 299.423L412.143 314.54L411.617 315.645L411.091 314.54L403.895 299.602L404.337 299.949C398.068 298.59 392.32 295.464 387.772 290.941C383.223 286.417 380.066 280.686 378.673 274.425C377.28 268.164 377.709 261.634 379.91 255.609C382.111 249.584 385.991 244.315 391.092 240.427C395.138 237.394 399.811 235.302 404.768 234.304C409.724 233.301 414.842 233.437 419.737 234.701C424.632 235.965 429.176 238.327 433.025 241.605ZM433.025 241.605C429.202 238.341 424.681 235.999 419.81 234.758C414.939 233.518 409.848 233.413 404.929 234.45C400.011 235.488 395.397 237.641 391.442 240.744C387.487 243.847 384.297 247.816 382.119 252.346C379.947 256.824 378.824 261.739 378.836 266.716C378.898 271.669 380.032 276.55 382.161 281.023C384.319 285.474 387.459 289.377 391.345 292.437C395.237 295.484 399.763 297.619 404.589 298.686L404.905 298.76L405.031 299.044L412.132 314.035H411.08L418.56 299.012L418.655 298.802H418.876C424.823 297.5 430.288 294.564 434.656 290.323C435.741 289.265 436.743 288.125 437.654 286.914C438.596 285.726 439.45 284.471 440.21 283.159C441.735 280.527 442.883 277.694 443.619 274.743C444.381 271.791 444.707 268.743 444.586 265.696C444.532 264.174 444.388 262.656 444.155 261.151C443.871 259.653 443.495 258.174 443.03 256.722C441.155 250.856 437.692 245.623 433.025 241.605Z" fill="#666276"/>
<path d="M420.538 258.455C420.17 258.08 419.761 257.748 419.317 257.466C418.731 257.086 418.115 256.752 417.476 256.467C415.931 255.766 414.276 255.339 412.585 255.204V264.672L413.458 264.851C414.965 265.211 416.45 265.653 417.908 266.177C419.109 266.599 420.24 267.198 421.264 267.954C422.154 268.64 422.874 269.522 423.368 270.532C423.895 271.701 424.15 272.974 424.115 274.256C424.157 275.68 423.861 277.093 423.252 278.38C422.689 279.509 421.867 280.49 420.853 281.241C419.78 282.024 418.571 282.602 417.287 282.945C415.868 283.336 414.404 283.545 412.932 283.566V288.363H410.565V283.471C408.41 283.341 406.285 282.906 404.253 282.177C402.295 281.473 400.463 280.461 398.824 279.179L401.149 274.803C401.589 275.254 402.08 275.653 402.612 275.992C403.324 276.456 404.07 276.867 404.842 277.222C405.751 277.642 406.69 277.994 407.651 278.275C408.682 278.58 409.738 278.795 410.807 278.916V269.448L410.239 269.29C410.046 269.25 409.857 269.198 409.671 269.133C408.244 268.764 406.839 268.314 405.463 267.786C404.379 267.383 403.37 266.803 402.475 266.071C401.705 265.436 401.089 264.634 400.676 263.725C400.233 262.693 400.021 261.576 400.055 260.454C400.026 259.091 400.292 257.738 400.834 256.488C401.339 255.346 402.086 254.326 403.022 253.5C403.99 252.642 405.11 251.975 406.325 251.533C407.679 251.04 409.096 250.742 410.533 250.649V246.031H412.9V250.649C414.78 250.745 416.631 251.146 418.381 251.838C419.953 252.451 421.441 253.26 422.81 254.247L420.538 258.455ZM405.473 259.633C405.436 260.188 405.54 260.744 405.775 261.248C406.011 261.752 406.37 262.188 406.82 262.516C408.075 263.305 409.455 263.874 410.901 264.199V255.204C409.423 255.168 407.975 255.627 406.788 256.509C406.35 256.899 406.005 257.382 405.778 257.922C405.551 258.462 405.446 259.047 405.473 259.633ZM418.697 274.792C418.725 274.191 418.591 273.592 418.31 273.06C418.029 272.528 417.61 272.079 417.098 271.763C415.701 270.932 414.192 270.309 412.616 269.911V278.948C414.186 279.024 415.746 278.66 417.119 277.896C417.631 277.562 418.046 277.1 418.323 276.555C418.6 276.01 418.729 275.403 418.697 274.792Z" fill="#FF9812"/>
</svg>
