<svg width="526" height="460" viewBox="0 0 526 460" fill="none" xmlns="http://www.w3.org/2000/svg">
<path d="M480.446 129.3H361.058C361.058 129.3 372.9 96.9663 391.118 96.9663C409.336 96.9663 415.036 119.287 415.036 119.287C415.036 119.287 427.333 107.156 437.434 107.156C447.535 107.156 456.285 123.179 456.285 123.179C456.285 123.179 470.577 114.563 480.446 129.3ZM402.432 71.1352H346.636C346.636 71.1352 359.099 53.0723 368.923 53.0723C378.747 53.0723 381.653 65.1143 381.653 65.1143C381.653 65.1143 388.583 59.4924 394.959 60.5015C401.335 61.5106 402.432 71.1352 402.432 71.1352ZM154.216 119.674H45.5501C45.5501 119.674 60.4307 86.4092 76.3536 84.369C92.2765 82.3288 99.8831 109.051 99.8831 109.051C99.8831 109.051 110.151 99.5933 118.223 99.5933C126.295 99.5933 132.538 112.056 132.538 112.056C132.538 112.056 148.672 103.518 154.216 119.674ZM257.505 48.1095H184.089C184.089 48.1095 196.696 24.0366 210.379 23.7151C224.062 23.3936 231.248 41.9333 231.248 41.9333C231.248 41.9333 252.526 24.8239 257.505 48.1095ZM208.839 406.342C111.217 406.342 32.0781 401.105 32.0781 394.644C32.0781 388.183 111.217 382.946 208.839 382.946C306.461 382.946 385.601 388.184 385.601 394.644C385.601 401.104 306.462 406.342 208.839 406.342Z" fill="#F5F4F8"/>
<path d="M29 338.883L87.5051 339.122L146.001 339.212L263.001 339.372L380.001 339.212L438.496 339.122L497.001 338.883L438.496 338.633L380.001 338.543L263.001 338.383L146.001 338.543L87.5051 338.633L29 338.883Z" fill="#1F1B2D"/>
<path d="M270.297 184.436C253.402 202.01 202.646 280.226 198.691 282.563C198.691 282.563 198.691 333.719 226.96 323.504C255.229 313.289 281.142 221.512 286.674 192.254C289.589 176.807 284.097 170.096 270.297 184.436Z" fill="#E7A793"/>
<path d="M274.602 244.909L222.797 239.018C222.797 239.018 254.93 196.39 271.536 181.172C288.851 165.315 297.339 167.542 289.31 197.578C281.242 227.794 274.602 244.909 274.602 244.909Z" fill="#FF9812"/>
<path d="M277.04 216.693C277.61 218.122 277.973 219.625 278.119 221.157C276.311 218.659 275.186 215.734 274.853 212.669C275.778 213.895 276.515 215.251 277.04 216.693ZM247.942 217.861C249.368 217.291 250.868 216.928 252.396 216.783C249.903 218.592 246.981 219.718 243.918 220.048C245.143 219.122 246.499 218.385 247.942 217.861ZM255.661 238.012C256.271 236.604 257.078 235.289 258.058 234.108C257.828 235.624 257.385 237.1 256.74 238.492C256.15 239.909 255.348 241.229 254.363 242.406C254.587 240.888 255.024 239.408 255.661 238.012ZM286.057 173.106L286.876 171.479C287.231 171.444 287.589 171.444 287.944 171.479L287.135 173.606C286.536 175.02 285.732 176.339 284.749 177.52C284.974 175.994 285.414 174.508 286.057 173.106ZM226.354 234.358L227.352 234.757C228.765 235.365 230.086 236.168 231.277 237.143C229.754 236.918 228.272 236.477 226.873 235.835L225.695 235.256L226.354 234.358ZM266.296 193.207C267.706 193.812 269.023 194.612 270.21 195.584C268.687 195.365 267.204 194.928 265.806 194.286C264.395 193.68 263.077 192.876 261.892 191.899C263.422 192.119 264.912 192.56 266.316 193.207H266.296ZM269.771 193.297C269.83 193.337 269.886 193.381 269.94 193.427H269.761C269.761 193.427 269.791 193.327 269.791 193.297H269.771Z" fill="white"/>
<path d="M272.116 235.59C270.908 235.31 269.639 235.2 268.411 235.031L264.597 234.501L256.878 233.503L241.41 231.765L237.147 231.376L232.653 231.156C232.563 231.156 232.563 231.286 232.653 231.296L236.448 231.975C236.448 231.975 239.064 232.354 240.372 232.514L248.101 233.433L263.349 235.011L267.602 235.37L272.096 235.71C272.107 235.705 272.118 235.698 272.126 235.689C272.134 235.68 272.139 235.668 272.141 235.655C272.143 235.642 272.141 235.631 272.137 235.619C272.133 235.607 272.125 235.598 272.116 235.59Z" fill="#1F1B2D"/>
<path opacity="0.1" d="M249.469 242.049L274.593 244.905C274.593 244.905 281.233 227.79 289.311 197.574C292.716 184.832 293.146 177.094 291.189 173.609L249.469 242.049Z" fill="black"/>
<path d="M260.234 351.452H339.029L340.936 343.963L343.043 335.695L343.503 333.908L345.03 327.917L345.919 324.402L346.808 320.937L347.038 320.048L347.277 319.049L347.577 317.881L347.886 316.673L348.455 314.436L349.264 311.271L349.604 309.933L350.143 307.826L350.483 306.478L351.781 301.385L352.1 300.157L352.599 298.16L352.899 296.991L353.838 293.307L354.057 292.468L354.547 290.541L354.716 289.892L354.876 289.263C354.876 289.123 354.946 288.983 354.976 288.863L355.116 288.324C355.116 288.238 355.136 288.158 355.176 288.084L355.355 287.375H278.657L272.086 310.122L269.43 319.339L260.234 351.452Z" fill="#1F1B2D"/>
<path d="M326.129 351.454H328.126L336.604 315.176L338.601 306.329L338.78 305.5C338.784 305.472 338.777 305.443 338.76 305.419C338.743 305.395 338.72 305.378 338.692 305.371C338.664 305.364 338.634 305.366 338.608 305.379C338.582 305.392 338.562 305.414 338.551 305.441C338.551 305.53 338.501 305.62 338.471 305.71L335.825 315.226L326.129 351.454Z" fill="#1F1B2D"/>
<path d="M281.145 287.385L284.53 304.361L287.306 318.261L292.029 341.946L292.519 344.373L293.327 348.417L293.957 351.452H339.041L340.938 343.963L343.045 335.695L343.505 333.908L345.032 327.917L345.921 324.402L346.81 320.937L347.04 320.048L347.279 319.049L347.579 317.881L347.888 316.673L348.457 314.436L349.266 311.271L349.606 309.933L350.145 307.826L350.485 306.478L351.783 301.385L352.102 300.157L352.601 298.16L352.901 296.991L353.84 293.307L354.059 292.468L354.549 290.541L354.718 289.892L354.878 289.263C354.878 289.123 354.948 288.983 354.978 288.863L355.118 288.324C355.118 288.238 355.138 288.158 355.178 288.084L355.357 287.375L281.145 287.385Z" fill="#1F1B2D"/>
<path d="M281.133 287.358C281.133 287.777 281.452 292.35 282.191 299.34L282.94 306.011C283.39 309.795 283.939 313.999 284.638 318.383C285.816 326.081 287.354 334.479 289.351 342.687C290.06 345.683 290.839 348.569 291.668 351.435H390.674L387.588 311.942L385.591 287.328H295.782L281.133 287.358Z" fill="#1F1B2D"/>
<path d="M281.344 296.454C281.454 299.999 281.603 303.534 281.833 307.059C282.073 310.883 282.422 314.698 282.921 318.512C282.921 318.652 282.921 318.792 282.971 318.932C283.437 322.506 283.973 326.071 284.579 329.626C285.148 332.941 285.578 336.516 287.035 339.612C287.59 340.799 288.377 341.862 289.352 342.737C290.244 343.553 291.336 344.118 292.518 344.375C292.711 344.423 292.908 344.457 293.107 344.475H293.276C293.24 344.495 293.21 344.526 293.191 344.563C293.172 344.6 293.163 344.642 293.167 344.684C293.167 345.873 293.167 347.081 293.306 348.259V348.409C293.426 349.407 293.616 350.456 293.806 351.474H295.503V351.414C295.204 350.296 294.954 349.168 294.674 348.039C294.394 346.91 293.995 345.763 293.726 344.594C293.711 344.551 293.683 344.512 293.646 344.485C294.723 344.536 295.791 344.257 296.705 343.684C297.619 343.111 298.336 342.272 298.758 341.279C299.185 339.761 299.212 338.158 298.838 336.626L297.92 330.545C297.341 326.82 296.592 323.136 295.923 319.431L295.623 317.743C294.295 310.204 292.907 302.665 291.239 295.196C291.179 294.887 291.11 294.577 291.04 294.267C290.97 293.957 290.66 294.118 290.68 294.317L290.84 295.825L291.839 304.393C292.318 307.738 292.647 311.103 293.117 314.448L293.606 317.863L296.112 334.349C296.552 336.896 298.109 341.459 294.475 342.248C293.635 342.434 292.757 342.325 291.988 341.938C290.37 340.963 289.16 339.434 288.583 337.634C287.684 334.637 287.033 331.572 286.636 328.468C286.037 325.139 285.504 321.781 285.038 318.392L283.161 305.801L282.163 299.39L281.683 296.394C281.673 296.185 281.344 296.245 281.344 296.454ZM368.958 322.776C364.835 322.733 360.733 322.179 356.746 321.128C354.909 320.659 353.091 320.07 351.284 319.48C349.493 318.986 347.817 318.145 346.351 317.004C343.575 314.607 342.287 310.843 341.079 307.488C339.767 303.71 338.703 299.851 337.893 295.935C337.893 295.745 337.574 295.815 337.564 295.994C337.468 300.423 338.03 304.842 339.231 309.105C340.23 312.73 341.568 316.764 344.494 319.301C347.42 321.838 351.743 322.915 355.688 323.395C360.11 323.909 364.581 323.849 368.988 323.215C369.046 323.211 369.101 323.184 369.139 323.14C369.177 323.096 369.197 323.039 369.193 322.98C369.189 322.921 369.162 322.868 369.118 322.829C369.074 322.79 369.016 322.772 368.958 322.776ZM375.836 296.054L376.535 312.69L378.403 351.454H380.26L377.574 312.63L376.316 296.044C376.314 295.981 376.288 295.92 376.242 295.876C376.196 295.832 376.135 295.808 376.071 295.81C376.007 295.812 375.947 295.837 375.903 295.883C375.859 295.929 375.835 295.991 375.836 296.054Z" fill="#1F1B2D"/>
<path d="M264.087 328.372L398.402 318.187C398.402 318.187 371.382 211.092 318.029 171.719C304.389 161.664 289.461 168.115 282.74 175.634C265.665 194.786 263.688 327.943 264.087 328.372Z" fill="#FF9812"/>
<path d="M311.82 176.589C312.384 178.016 312.746 179.515 312.898 181.042C311.979 179.823 311.239 178.478 310.702 177.048C310.138 175.621 309.775 174.122 309.623 172.595C310.539 173.817 311.278 175.161 311.82 176.589ZM326.399 234.365C326.973 235.792 327.333 237.296 327.467 238.828C325.668 236.327 324.547 233.403 324.212 230.341C325.129 231.571 325.865 232.926 326.399 234.365ZM374.389 259.139C374.957 260.568 375.32 262.071 375.468 263.602C373.66 261.105 372.535 258.18 372.202 255.115C373.111 256.35 373.847 257.704 374.389 259.139ZM335.655 295.636C336.235 297.058 336.599 298.559 336.734 300.089C334.935 297.588 333.814 294.664 333.479 291.602C334.394 292.835 335.127 294.194 335.655 295.636ZM277.04 216.671C277.61 218.1 277.973 219.603 278.119 221.134C276.312 218.637 275.186 215.711 274.854 212.646C275.78 213.878 276.517 215.241 277.04 216.691V216.671ZM300.946 289.315C301.527 290.738 301.893 292.239 302.034 293.769C301.116 292.55 300.38 291.204 299.847 289.774C299.279 288.348 298.916 286.849 298.769 285.321C299.684 286.54 300.417 287.885 300.946 289.315ZM349.346 213.955C349.915 215.38 350.278 216.88 350.424 218.408C348.614 215.913 347.492 212.986 347.169 209.92C348.088 211.151 348.822 212.51 349.346 213.955ZM295.683 194.782C297.107 194.207 298.608 193.844 300.137 193.704C298.916 194.616 297.571 195.349 296.143 195.881C294.716 196.458 293.212 196.822 291.679 196.959C292.902 196.044 294.251 195.311 295.683 194.782ZM280.465 242.922C281.89 242.35 283.39 241.986 284.919 241.844C283.701 242.761 282.355 243.494 280.925 244.021C279.501 244.597 278.001 244.964 276.471 245.109C277.691 244.203 279.037 243.48 280.465 242.962V242.922ZM276.381 300.459C277.807 299.89 279.307 299.526 280.835 299.38C279.617 300.3 278.272 301.037 276.841 301.567C275.414 302.134 273.915 302.497 272.387 302.646C273.612 301.747 274.956 301.024 276.381 300.499V300.459ZM371.993 295.726C373.418 295.155 374.918 294.792 376.446 294.647C373.954 296.457 371.031 297.582 367.968 297.913C369.2 297.008 370.555 296.285 371.993 295.766V295.726ZM337.433 258.779C338.858 258.207 340.358 257.84 341.886 257.691C340.666 258.61 339.321 259.349 337.892 259.888C336.465 260.451 334.966 260.814 333.439 260.966C334.661 260.061 336.006 259.335 337.433 258.809V258.779ZM286.057 173.074L286.487 172.195L288.035 171.117C287.787 171.954 287.487 172.774 287.136 173.573C286.536 174.988 285.732 176.306 284.749 177.487C284.977 175.972 285.417 174.496 286.057 173.104V173.074ZM325.31 204.129C325.912 202.715 326.716 201.397 327.697 200.214C327.217 203.26 325.942 206.126 324.002 208.522C324.222 207.002 324.663 205.522 325.31 204.129ZM290.651 322.287C291.253 320.876 292.053 319.558 293.027 318.373C292.806 319.892 292.369 321.371 291.729 322.767C291.16 324.08 290.425 325.315 289.542 326.441H289.383C289.613 325.005 290.04 323.607 290.651 322.287ZM303.402 252.698C304.01 251.288 304.813 249.97 305.789 248.784C305.292 251.823 304.024 254.684 302.104 257.092C302.325 255.573 302.762 254.093 303.402 252.698ZM394.889 305.761L395.079 306.38L394.71 306.81C394.75 306.467 394.81 306.127 394.889 305.791V305.761ZM354.947 279.12C355.554 277.712 356.357 276.397 357.334 275.216C356.851 278.258 355.577 281.119 353.639 283.513C353.877 282.003 354.328 280.534 354.977 279.15L354.947 279.12ZM346.38 317.564C346.986 316.153 347.789 314.835 348.766 313.65C348.272 316.694 346.999 319.56 345.072 321.968C345.307 320.457 345.757 318.987 346.41 317.604L346.38 317.564ZM279.207 271.311C280.617 271.92 281.935 272.723 283.122 273.698C281.602 273.473 280.123 273.033 278.728 272.39C277.312 271.787 275.99 270.983 274.804 270.003C276.339 270.231 277.832 270.682 279.237 271.341L279.207 271.311ZM385.154 277.143L385.663 278.521C384.586 278.001 383.579 277.347 382.667 276.574C383.524 276.686 384.368 276.886 385.183 277.173L385.154 277.143ZM316.673 310.414C318.085 311.015 319.403 311.816 320.587 312.791C319.065 312.569 317.583 312.132 316.184 311.493C314.773 310.881 313.456 310.074 312.269 309.096C313.806 309.323 315.3 309.777 316.703 310.444L316.673 310.414ZM377.914 319.322L378.603 319.651L376.256 319.831C375.276 319.336 374.357 318.726 373.52 318.013C375.051 318.247 376.54 318.698 377.944 319.351L377.914 319.322ZM354.388 237.211C355.795 237.826 357.112 238.628 358.303 239.597C355.259 239.106 352.394 237.837 349.985 235.913C351.519 236.138 353.013 236.585 354.418 237.241L354.388 237.211ZM319.958 275.455C321.37 276.065 322.688 276.872 323.872 277.852C320.826 277.363 317.96 276.089 315.555 274.157C317.088 274.386 318.581 274.833 319.988 275.485L319.958 275.455ZM301.984 222.882C303.392 223.494 304.71 224.297 305.899 225.268C302.855 224.785 299.991 223.515 297.591 221.583C299.131 221.81 300.631 222.257 302.044 222.912L301.984 222.882Z" fill="white"/>
<path d="M290.353 198.01C298.102 196.861 305.971 181.224 307.329 170.56C307.418 169.821 295.346 146.784 293.459 141.981C293.069 140.982 266.148 161.313 266.148 161.313C266.148 161.313 273.138 170.22 276.404 178.638C276.633 179.337 282.864 199.108 290.353 198.01Z" fill="#E7A793"/>
<path opacity="0.4" d="M266.109 161.312C266.109 161.312 273.099 170.219 276.374 178.627L277.493 181.802C291.332 174.812 296.974 162.33 299.251 154.092L293.419 141.98C293.03 140.991 266.109 161.312 266.109 161.312Z" fill="#1F1B2D"/>
<path d="M287.238 104.561C295.116 113.677 302.995 146.56 298.491 156.665C291.951 171.304 274.526 180.101 260.426 170.744C246.716 161.668 237.21 118.63 242.872 108.764C251.2 94.2256 275.614 91.1001 287.238 104.561Z" fill="#E7A793"/>
<path d="M266.189 131.276C267.187 131.356 268.186 131.276 269.184 131.276C270.244 131.42 271.322 131.21 272.25 130.677C272.509 130.452 272.686 130.148 272.755 129.813C272.824 129.478 272.779 129.128 272.629 128.819C272.239 128.256 271.706 127.808 271.085 127.52C270.464 127.232 269.776 127.115 269.094 127.182C267.694 127.099 266.313 127.541 265.22 128.42C264.989 128.638 264.825 128.918 264.748 129.226C264.671 129.534 264.685 129.858 264.787 130.159C264.889 130.46 265.075 130.725 265.324 130.923C265.573 131.121 265.873 131.244 266.189 131.276ZM267.064 136.099C267.064 136.009 267.263 136.169 267.283 136.269C267.653 138.515 268.461 141.032 270.628 141.371C270.698 141.371 270.718 141.491 270.628 141.501C268.102 141.641 267.064 138.296 267.064 136.099Z" fill="#1F1B2D"/>
<path d="M268.602 133.361C272.147 132.362 273.864 139.542 270.599 140.45C267.334 141.358 265.636 134.189 268.602 133.361ZM254.185 138.863C254.185 138.783 254.035 139.013 254.055 139.103C254.654 141.3 254.974 143.926 253.146 145.094C253.086 145.094 253.146 145.244 253.196 145.214C255.563 144.335 255.104 140.86 254.185 138.863Z" fill="#1F1B2D"/>
<path d="M251.646 137.028C248.011 137.607 249.439 144.826 252.804 144.287C256.169 143.748 254.692 136.538 251.646 137.028ZM247.964 133.472C248.881 133.046 249.775 132.569 250.64 132.044C251.655 131.669 252.516 130.967 253.086 130.047C253.211 129.726 253.226 129.372 253.129 129.042C253.032 128.712 252.827 128.422 252.547 128.22C251.319 127.421 249.901 127.791 248.643 128.41C247.36 128.994 246.339 130.033 245.777 131.325C245.659 131.629 245.633 131.961 245.701 132.28C245.769 132.599 245.93 132.891 246.163 133.119C246.396 133.347 246.69 133.503 247.011 133.566C247.332 133.629 247.662 133.596 247.964 133.472ZM274.496 155.321C274.096 155.97 273.737 156.809 272.948 157.069C272.115 157.248 271.254 157.248 270.422 157.069C270.405 157.067 270.388 157.071 270.373 157.079C270.358 157.087 270.347 157.101 270.341 157.117C270.335 157.133 270.332 157.149 270.336 157.166C270.34 157.183 270.349 157.197 270.362 157.208C270.782 157.568 271.292 157.806 271.836 157.899C272.38 157.992 272.941 157.937 273.457 157.738C273.882 157.514 274.231 157.168 274.459 156.744C274.687 156.32 274.783 155.839 274.735 155.361C274.735 155.231 274.556 155.221 274.496 155.321ZM270.578 149.239C270.222 150.251 269.661 151.178 268.931 151.963C268.201 152.748 267.317 153.374 266.334 153.803C265.48 154.188 264.576 154.45 263.648 154.582C263.474 154.621 263.297 154.641 263.119 154.642C262.949 154.652 262.779 154.652 262.609 154.642C262.486 154.649 262.364 154.615 262.262 154.544C262.16 154.473 262.086 154.37 262.05 154.252C262.045 154.172 262.045 154.092 262.05 154.012V153.813C261.601 152.115 261.141 149.479 261.141 149.479C260.592 149.938 257.756 152.135 257.587 151.226C256.259 143.737 254.791 135.409 255.05 127.671C255.05 127.615 255.072 127.562 255.112 127.522C255.152 127.482 255.204 127.461 255.26 127.461C255.316 127.461 255.369 127.483 255.408 127.522C255.447 127.561 255.47 127.615 255.47 127.671C257.027 134.82 257.317 142.2 258.775 149.409C259.752 148.607 260.838 147.948 262 147.452C262.26 147.452 262.789 152.565 263.059 153.303C263.056 153.33 263.056 153.357 263.059 153.383C266.054 153.064 267.972 151.676 270.298 149.09C270.448 148.92 270.668 149.03 270.578 149.239Z" fill="#1F1B2D"/>
<path d="M264.449 153.474C265.679 154.467 267.144 155.127 268.703 155.391C269.556 155.51 270.425 155.36 271.189 154.962C272.847 154.073 272.507 152.435 271.848 151.117C271.49 150.423 271.05 149.773 270.54 149.18C269.021 151.226 266.886 152.73 264.449 153.474Z" fill="#1F1B2D"/>
<path d="M268.7 155.391C269.553 155.51 270.422 155.36 271.186 154.962C272.844 154.073 272.504 152.435 271.845 151.117C269.988 151.766 268.42 153.514 268.7 155.391Z" fill="#FF97B8"/>
<path d="M239.858 121.567C253.837 127.418 267.977 111.232 267.977 111.232C269.579 113.689 271.932 115.562 274.685 116.573C277.438 117.584 280.443 117.679 283.255 116.844C283.255 116.844 289.965 137.084 295.437 135.866C303.755 134.089 300.43 105.271 296.665 100.258C292.9 95.245 285.511 95.2651 285.511 95.2651C285.511 95.2651 284.103 91.0612 278.132 88.1954C271.542 85.02 253.168 94.9755 253.168 94.9755C251.501 92.5838 249.294 90.6172 246.728 89.2339C246.108 88.8856 245.424 88.6668 244.717 88.5906C244.01 88.5144 243.296 88.5825 242.616 88.7907C241.936 88.9989 241.306 89.3429 240.763 89.8018C240.22 90.2607 239.777 90.8251 239.458 91.4606C240.822 92.7728 241.87 94.3775 242.524 96.1538C244.771 102.025 239.808 103.054 238.699 97.5318C238.218 95.4825 238.487 93.3284 239.458 91.4606C236.263 88.3651 232.019 88.0256 229.992 90.4621C226.267 94.9256 228.225 116.714 239.858 121.567Z" fill="#1F1B2D"/>
<path d="M274.143 147.214C275.863 146.663 277.394 145.639 278.561 144.261C279.728 142.883 280.484 141.203 280.744 139.415C281.004 137.627 280.756 135.803 280.029 134.149C279.302 132.495 278.126 131.079 276.634 130.061C275.142 129.043 273.394 128.464 271.589 128.391C269.784 128.318 267.995 128.753 266.425 129.646C264.855 130.539 263.568 131.857 262.71 133.446C261.852 135.035 261.457 136.834 261.571 138.637C261.665 140.101 262.092 141.524 262.819 142.798C263.546 144.072 264.553 145.165 265.765 145.992C266.977 146.819 268.361 147.358 269.813 147.57C271.265 147.782 272.745 147.66 274.143 147.214ZM268.631 130.089C269.278 129.88 269.949 129.749 270.628 129.7C272.756 129.549 274.862 130.215 276.516 131.564C278.17 132.913 279.246 134.841 279.526 136.956C279.806 139.071 279.269 141.214 278.024 142.947C276.779 144.68 274.919 145.871 272.824 146.28C270.729 146.689 268.559 146.282 266.754 145.144C264.949 144.006 263.646 142.223 263.111 140.157C262.576 138.091 262.849 135.9 263.875 134.029C264.901 132.158 266.602 130.749 268.631 130.089ZM252.862 151.248C256.317 149.95 258.114 145.257 256.856 140.354C256.32 138.008 255.059 135.891 253.251 134.303C252.521 133.567 251.613 133.033 250.614 132.753C249.615 132.473 248.562 132.457 247.556 132.707C246.55 132.957 245.625 133.463 244.873 134.177C244.121 134.891 243.567 135.787 243.266 136.779C242.42 139.032 242.297 141.493 242.916 143.819C244.194 148.971 248.358 152.396 252.203 151.438C252.428 151.394 252.648 151.331 252.862 151.248ZM247.46 134.123L247.929 133.983C248.736 133.82 249.57 133.854 250.361 134.082C251.152 134.31 251.876 134.724 252.472 135.291C254.068 136.707 255.181 138.585 255.658 140.663C256.766 145.137 255.119 149.411 251.953 150.19C248.787 150.969 245.333 147.973 244.224 143.509C243.669 141.449 243.773 139.266 244.524 137.268C244.765 136.567 245.151 135.925 245.657 135.383C246.163 134.841 246.777 134.412 247.46 134.123Z" fill="#FDBC31"/>
<path d="M262.105 139.669L262.724 138.541C261.056 137.612 257.421 136.654 255.594 139.54L256.692 140.219C258.32 137.632 261.955 139.579 262.105 139.669ZM304.721 133.778L305.72 132.979C305.34 132.51 301.975 128.386 299.069 128.486C296.343 128.585 279.707 133.478 278.999 133.728L279.368 134.966C284.141 133.548 297.002 129.844 299.109 129.774C301.047 129.704 303.813 132.64 304.721 133.778Z" fill="#FDBC31"/>
<path d="M291.871 133.993C291.871 133.993 294.557 121.132 300.109 121.681C305.661 122.23 306.599 138.776 302.156 143C301.625 143.58 300.982 144.048 300.266 144.374C299.55 144.7 298.776 144.877 297.99 144.896C297.204 144.915 296.421 144.774 295.69 144.482C294.959 144.19 294.296 143.754 293.738 143.2L291.871 133.993Z" fill="#E7A793"/>
<path d="M300.254 126.435C300.334 126.385 300.404 126.494 300.344 126.564C297.278 129.64 296.809 133.904 296.959 138.038C297.478 136.2 298.656 134.802 301.053 135.332C301.173 135.332 301.143 135.541 301.053 135.571C300.313 135.64 299.614 135.937 299.052 136.422C298.49 136.907 298.093 137.556 297.917 138.277C297.625 139.481 297.461 140.713 297.428 141.952C297.428 142.361 296.729 142.441 296.689 141.952C296.694 141.919 296.694 141.885 296.689 141.852C294.552 137.239 295.391 129.071 300.254 126.435Z" fill="#1F1B2D"/>
<path d="M223.407 224.263C220.88 217.613 162.305 229.655 164.642 239.85C173.22 277.196 197.125 310.568 203.166 318.197C211.095 328.182 226.872 325.965 232.623 319.914C240.961 311.137 225.903 230.853 223.407 224.263Z" fill="#E7A793"/>
<path d="M227.53 242.592C228.832 246.171 229.864 249.842 230.616 253.576C231.465 257.27 232.204 260.985 232.803 264.719C233.987 272.274 234.654 279.901 234.8 287.546C234.91 291.82 234.8 296.084 234.8 300.358C234.8 300.458 234.64 300.448 234.64 300.358C234.64 296.573 234.41 292.759 234.101 288.984C233.792 285.209 233.412 281.365 232.923 277.581C231.974 270.142 230.925 262.712 229.577 255.333L228.409 249.142C227.98 247.005 227.49 244.878 227.211 242.711C227.211 242.552 227.46 242.412 227.53 242.592Z" fill="#1F1B2D"/>
<path d="M237.538 119.003C237.923 124.088 238.684 129.138 239.815 134.111L240.424 136.688C241.263 140.102 242.261 143.537 243.42 146.842C243.686 147.641 243.965 148.43 244.258 149.209C247.803 158.785 252.486 167.023 257.759 170.518C259.098 171.416 260.519 172.185 262.003 172.815C269.561 168.407 275.873 162.148 280.345 154.628C284.817 147.108 287.301 138.573 287.565 129.827L289.163 129.388L288.404 128.18C288.155 127.76 287.845 127.231 287.575 126.732C287.175 113.876 281.982 101.634 273.017 92.4119C260.465 89.0368 245.437 93.8598 239.116 104.873C237.578 107.599 237.109 112.732 237.538 119.003Z" fill="#E7A793"/>
<path d="M263.847 128.704C264.908 128.759 265.971 128.759 267.032 128.704C268.26 128.704 269.239 128.794 270.287 128.065C270.57 127.826 270.763 127.499 270.835 127.136C270.907 126.773 270.856 126.397 270.687 126.068C269.918 124.71 268.42 124.361 266.942 124.331C265.459 124.243 263.997 124.709 262.838 125.639C262.581 125.866 262.397 126.164 262.307 126.496C262.217 126.828 262.227 127.177 262.335 127.503C262.443 127.829 262.642 128.117 262.911 128.33C263.18 128.543 263.505 128.674 263.847 128.704ZM264.775 133.868C264.775 133.778 264.984 133.948 265.004 134.037C265.394 136.424 266.253 139.09 268.549 139.45C268.619 139.45 268.639 139.579 268.549 139.589C265.873 139.689 264.775 136.144 264.775 133.868Z" fill="#1F1B2D"/>
<path d="M266.406 130.927C270.16 129.878 271.978 137.467 268.503 138.436C265.028 139.405 263.26 131.806 266.406 130.927ZM251.13 136.749C251.13 136.669 250.971 136.909 251.001 137.009C251.64 139.335 251.999 142.111 250.002 143.399C249.942 143.399 250.002 143.559 250.052 143.529C252.588 142.541 252.109 138.866 251.13 136.749Z" fill="#1F1B2D"/>
<path d="M248.439 134.802C244.594 135.421 246.112 143.071 249.677 142.502C253.242 141.933 251.664 134.283 248.439 134.802ZM244.544 131.037C245.543 130.608 246.412 130.04 247.37 129.53C248.441 129.137 249.353 128.404 249.966 127.443C250.097 127.104 250.113 126.731 250.01 126.382C249.907 126.033 249.691 125.73 249.397 125.516C248.089 124.667 246.591 125.056 245.263 125.715C243.917 126.337 242.85 127.437 242.268 128.8C242.154 129.116 242.134 129.459 242.209 129.787C242.284 130.115 242.451 130.412 242.69 130.647C242.929 130.882 243.232 131.045 243.56 131.114C243.888 131.183 244.23 131.156 244.544 131.037ZM272.643 154.185C272.214 154.864 271.834 155.753 270.996 156.033C270.118 156.227 269.208 156.227 268.33 156.033C268.312 156.032 268.295 156.037 268.28 156.046C268.265 156.055 268.253 156.068 268.245 156.084C268.237 156.1 268.235 156.118 268.238 156.136C268.241 156.154 268.248 156.168 268.26 156.181C268.706 156.563 269.247 156.817 269.825 156.916C270.403 157.015 270.998 156.954 271.545 156.742C271.993 156.503 272.361 156.136 272.601 155.688C272.841 155.24 272.943 154.73 272.893 154.224C272.903 154.085 272.713 154.086 272.643 154.185ZM268.49 147.733C268.118 148.806 267.527 149.791 266.755 150.625C265.983 151.459 265.048 152.122 264.007 152.576C263.102 152.984 262.144 153.261 261.161 153.396C260.974 153.438 260.783 153.462 260.592 153.466C260.415 153.477 260.239 153.477 260.062 153.466C259.931 153.474 259.801 153.438 259.692 153.364C259.583 153.29 259.503 153.182 259.463 153.056C259.453 152.977 259.453 152.896 259.463 152.817V152.606L258.465 148.013C257.885 148.502 254.88 150.83 254.71 149.871C253.302 141.883 251.714 133.105 252.014 124.907C252.014 124.849 252.037 124.793 252.078 124.752C252.119 124.711 252.175 124.688 252.234 124.688C252.293 124.688 252.348 124.711 252.389 124.752C252.43 124.793 252.453 124.849 252.453 124.907C254.111 132.476 254.45 140.294 255.958 147.873C257.027 147.046 258.207 146.375 259.463 145.877C259.733 145.877 260.302 151.289 260.582 152.078C260.577 152.104 260.577 152.131 260.582 152.158C263.707 151.818 265.784 150.36 268.24 147.604C268.36 147.405 268.59 147.513 268.49 147.733Z" fill="#1F1B2D"/>
<path d="M262.004 152.224C263.308 153.266 264.859 153.954 266.507 154.221C267.409 154.351 268.329 154.19 269.134 153.762C270.901 152.823 270.532 151.086 269.833 149.698C269.456 148.96 268.993 148.27 268.455 147.641C266.849 149.818 264.589 151.425 262.004 152.224Z" fill="#1F1B2D"/>
<path d="M266.515 154.25C267.417 154.379 268.337 154.219 269.141 153.791C270.909 152.852 270.539 151.115 269.84 149.727C267.883 150.416 266.216 152.253 266.515 154.25Z" fill="#FF97B8"/>
<path d="M235.959 118.433L237.536 119.003C251.835 123.436 265.745 107.479 265.745 107.479C267.434 110.089 269.922 112.083 272.838 113.163C275.754 114.243 278.94 114.351 281.922 113.471C283.472 118.04 285.372 122.483 287.604 126.761C287.335 118.27 284.974 109.977 280.731 102.617C276.488 95.2569 270.493 89.0592 263.279 84.5725C258.724 86.1708 254.292 88.0998 250.018 90.3441C248.248 87.8111 245.909 85.7284 243.188 84.2629C242.533 83.8936 241.809 83.6611 241.061 83.5796C240.313 83.4981 239.556 83.5691 238.836 83.7884C238.116 84.0077 237.449 84.3709 236.874 84.8558C236.299 85.3407 235.827 85.9373 235.489 86.6095C236.93 88.0104 238.039 89.7164 238.735 91.6022C241.111 97.8132 235.859 98.9017 234.69 93.0601C234.174 90.887 234.458 88.6007 235.489 86.6195C232.104 83.3542 227.611 82.9947 225.504 85.6209C221.569 90.2342 223.626 113.291 235.959 118.433Z" fill="#1F1B2D"/>
<g opacity="0.3">
<path opacity="0.3" d="M211.905 184.356C222.387 186.665 233.317 185.813 243.314 181.909C253.311 178.005 261.926 171.225 268.07 162.425C274.214 153.625 277.609 143.2 277.828 132.47C278.047 121.74 275.078 111.186 269.299 102.143C263.52 93.0995 255.187 85.9729 245.358 81.6649C235.529 77.3569 224.641 76.0606 214.075 77.94C203.509 79.8194 193.736 84.79 185.995 92.2232C178.254 99.6564 172.89 109.219 170.583 119.7C169.05 126.659 168.903 133.852 170.15 140.867C171.397 147.882 174.014 154.584 177.851 160.588C181.688 166.592 186.671 171.781 192.514 175.86C198.357 179.939 204.946 182.825 211.905 184.356Z" fill="white"/>
<path opacity="0.3" d="M271.168 157.416C264.294 169.963 252.746 179.29 239.034 183.369C225.322 187.448 210.553 185.952 197.938 179.202L271.168 157.416ZM269.609 102.68L169.312 132.525C169.225 128.216 169.648 123.911 170.574 119.702C171.623 114.872 173.34 110.212 175.676 105.857L249.716 83.8174C257.851 88.3001 264.701 94.7944 269.609 102.68ZM277.436 137.701L181.904 166.105C179.628 163.371 177.623 160.422 175.918 157.3L277.647 127.023C277.94 130.58 277.87 134.158 277.436 137.701ZM273.082 109.244L169.986 139.931L169.713 137.974L272.261 107.466L273.082 109.244ZM232.547 77.8626L186.785 91.4754L190.52 88.3194L227.687 77.2734C229.316 77.3863 230.938 77.583 232.547 77.8626Z" fill="#F5F4F8"/>
</g>
<path d="M217.966 242.266L204.742 239.354L217.549 181.203L230.772 184.116L217.966 242.266Z" fill="#F5F4F8"/>
<path d="M180.199 115.983C182.634 104.924 188.294 94.8348 196.463 86.9923C204.632 79.1498 214.943 73.9057 226.093 71.9233C237.243 69.9409 248.729 71.3091 259.101 75.855C269.473 80.4009 278.263 87.9202 284.362 97.4621C290.461 107.004 293.592 118.14 293.361 129.462C293.13 140.784 289.548 151.783 283.066 161.069C276.584 170.355 267.495 177.51 256.946 181.63C246.397 185.75 234.865 186.649 223.806 184.214C208.978 180.944 196.055 171.92 187.878 159.126C179.701 146.332 176.939 130.813 180.199 115.983ZM225.054 178.592C235.002 180.785 245.378 179.979 254.868 176.275C264.358 172.571 272.537 166.136 278.369 157.783C284.201 149.43 287.427 139.537 287.636 129.351C287.845 119.165 285.029 109.148 279.544 100.563C274.059 91.9776 266.151 85.2127 256.82 81.1226C247.489 77.0325 237.156 75.8011 227.126 77.5842C217.096 79.3673 207.82 84.085 200.471 91.1403C193.122 98.1956 188.031 107.272 185.841 117.221C184.385 123.826 184.245 130.652 185.428 137.311C186.611 143.97 189.095 150.33 192.736 156.029C196.377 161.728 201.106 166.653 206.651 170.525C212.196 174.397 218.449 177.138 225.054 178.592Z" fill="#666276"/>
<path d="M212.505 283.185L192.504 278.782L203.847 227.227L223.858 231.63L212.505 283.185Z" fill="#454056"/>
<path d="M203.777 121.549C203.798 121.491 203.815 121.43 203.827 121.368C204.067 120.51 203.567 122.198 203.747 121.639L204.436 119.642C205.31 117.325 206.379 115.086 207.632 112.951L208.161 112.053C208.221 111.953 207.721 112.752 208.161 112.123L208.51 111.584L209.928 109.587C211.01 108.125 212.187 106.738 213.453 105.433L214.372 104.514C214.791 104.105 213.882 104.963 214.462 104.434L215.041 103.905L217.357 102.028L220.014 100.2L221.282 99.4508C222.021 99.0214 220.962 99.6006 221.511 99.321L222.3 98.9216C224.686 97.7478 227.181 96.8113 229.749 96.1256H229.879L230.159 96.0657L231.307 95.8161L233.554 95.4266C235.14 95.1997 236.736 95.0531 238.337 94.9873C238.781 94.9368 239.212 94.7992 239.603 94.5825C239.994 94.3658 240.339 94.074 240.618 93.724C241.181 93.017 241.44 92.1155 241.338 91.2177C241.236 90.3199 240.781 89.4995 240.074 88.9367C239.367 88.3739 238.466 88.1151 237.568 88.2171C227.365 88.5327 217.609 92.4729 210.048 99.331C205.025 104.035 201.098 109.786 198.545 116.177C197.96 117.604 197.473 119.068 197.087 120.561C196.949 121.453 197.17 122.363 197.701 123.093C198.232 123.823 199.031 124.313 199.923 124.455C200.812 124.575 201.713 124.347 202.439 123.818C203.165 123.289 203.658 122.501 203.817 121.618L203.777 121.549ZM202.375 131.583C202.274 132.24 201.98 132.853 201.53 133.342C201.08 133.831 200.496 134.176 199.851 134.333C199.206 134.49 198.528 134.452 197.904 134.223C197.28 133.994 196.738 133.585 196.347 133.048C195.956 132.511 195.733 131.87 195.706 131.206C195.679 130.542 195.851 129.885 196.198 129.318C196.545 128.751 197.053 128.302 197.657 128.025C198.261 127.748 198.933 127.655 199.589 127.76C200.464 127.9 201.249 128.38 201.771 129.096C202.293 129.812 202.51 130.707 202.375 131.583Z" fill="white"/>
<path d="M168.58 251.516C168.58 251.516 154.281 228.01 172.085 205.582C179.414 196.356 196.709 179.81 231.798 182.116C240.126 182.666 251.6 189.346 237.68 193.39C227.794 196.266 220.654 195.098 215.202 197.814C215.202 197.814 228.793 208.049 227.914 216.367C227.524 220.081 227.235 228.199 225.088 235.928C225.088 235.928 222.272 237.925 219.985 237.586C219.985 237.586 213.824 255.36 191.667 260.822L168.58 251.516Z" fill="#E7A793"/>
<path d="M179.598 202.573C185.33 200.287 197.572 195.653 208.906 195.334C221.497 194.984 245.852 197.71 246.002 207.007C246.122 213.827 236.735 213.597 236.735 213.597C236.735 213.597 246.561 216.843 245.313 223.024C244.184 228.656 236.935 228.016 236.935 228.016C236.935 228.016 242.557 231.012 240.42 236.225C237.854 242.495 226.5 235.226 218.452 239.3C216.594 240.259 179.598 202.573 179.598 202.573Z" fill="#E7A793"/>
<path d="M207.082 208.694C212.824 207.436 226.614 207.915 236.619 213.377C236.849 213.497 236.879 213.737 236.619 213.667C227.005 210.863 217.087 209.233 207.082 208.814C206.992 208.814 206.992 208.764 207.082 208.694ZM207.782 221.395C212.855 220.816 227.044 221.945 236.99 227.826C237.22 227.956 237.23 228.195 236.99 228.116C227.528 224.818 217.723 222.604 207.762 221.515C207.747 221.513 207.732 221.504 207.723 221.491C207.714 221.478 207.71 221.461 207.713 221.445C207.716 221.429 207.724 221.415 207.737 221.406C207.75 221.397 207.767 221.393 207.782 221.395ZM187.341 262.356C192.424 261.149 197.33 259.293 201.939 256.834C206.58 254.322 210.688 250.931 214.032 246.848C215.03 245.6 216.029 244.302 216.898 242.974C217.767 241.646 218.725 240.138 219.753 238.82C219.833 238.72 220.023 238.82 219.963 238.91C218.806 241.681 217.382 244.334 215.709 246.828C214.21 249.161 212.418 251.292 210.377 253.169C206.348 256.754 201.573 259.401 196.397 260.918C193.458 261.736 190.45 262.281 187.41 262.545C187.261 262.585 187.201 262.386 187.341 262.356Z" fill="#1F1B2D"/>
<path d="M333.093 187.132C358.815 221.672 401.743 311.692 408.054 324.932C412.338 333.919 365.376 357.585 363.389 351.054C360.833 342.687 318.844 232.227 312.962 191.955C309.747 169.877 324.196 175.18 333.093 187.132Z" fill="#E7A793"/>
<path d="M362.125 346.558C363.213 354.696 368.745 371.092 372.859 373.598C376.973 376.104 398.592 375.595 409.486 375.595C420.38 375.595 422.467 372.55 422.337 368.805C422.207 365.06 399.301 364.342 399.301 364.342C399.301 364.342 429.836 373.049 437.515 374.517C445.194 375.985 462.878 380.408 465.475 374.048C466.623 371.172 461.78 368.266 461.78 368.266C461.78 368.266 469.199 370.433 470.388 366.748C471.726 362.544 465.824 360.238 465.824 360.238C465.824 360.238 470.467 361.166 470.577 357.741C470.777 350.052 441.739 346.298 441.739 346.298C441.739 346.298 463.967 357.122 464.706 350.871C465.704 342.234 420.13 332.758 415.387 328.993C411.936 326.116 408.708 322.982 405.731 319.617L362.125 346.558Z" fill="#E7A793"/>
<path d="M422.179 370.668C422.256 370.138 422.206 369.597 422.032 369.09C421.858 368.583 421.567 368.124 421.181 367.752C420.398 367.035 419.5 366.455 418.525 366.035C416.51 365.179 414.421 364.51 412.284 364.038C407.99 362.949 403.586 362.181 399.203 361.042C403.721 360.974 408.231 361.478 412.623 362.54C414.868 363.055 417.029 363.882 419.044 364.996C420.087 365.57 421.001 366.352 421.73 367.293C422.088 367.77 422.318 368.331 422.396 368.922C422.474 369.513 422.4 370.114 422.179 370.668ZM461.712 368.231L452.385 365.685L443.149 362.919L433.952 360.043L424.726 357.197C427.939 357.551 431.125 358.121 434.262 358.905L443.598 361.461L452.755 364.577L461.712 368.231ZM432.137 349.558C435.099 349.744 438.043 350.151 440.944 350.776C443.855 351.355 446.732 352.095 449.561 352.993C452.398 353.873 455.181 354.913 457.899 356.109C460.627 357.274 463.267 358.636 465.798 360.183L457.47 357.187L449.102 354.441L440.664 351.905L432.137 349.558ZM436.63 342.289C441.401 342.673 446.101 343.68 450.61 345.285C455.163 346.793 459.497 348.895 463.501 351.536L450.11 346.733L436.63 342.289Z" fill="#1F1B2D"/>
<path d="M322.161 246.335L374.285 244.897C374.285 244.897 345.876 199.682 330.658 183.097C314.772 165.822 306.124 167.309 311.546 197.915C317.008 228.73 322.161 246.335 322.161 246.335Z" fill="#FF9812"/>
<path d="M354.418 237.24C355.824 237.855 357.141 238.658 358.332 239.627C355.288 239.135 352.423 237.866 350.014 235.942C351.537 236.16 353.02 236.598 354.418 237.24ZM325.31 204.128C325.912 202.715 326.716 201.396 327.697 200.214C327.216 203.26 325.942 206.125 324.002 208.522C324.222 207.001 324.662 205.521 325.31 204.128ZM349.345 213.954C349.914 215.38 350.278 216.879 350.424 218.407C348.614 215.912 347.491 212.985 347.168 209.92C348.088 211.15 348.821 212.51 349.345 213.954ZM326.378 234.364C326.953 235.791 327.313 237.295 327.447 238.828C325.648 236.327 324.527 233.403 324.192 230.34C325.115 231.569 325.859 232.925 326.398 234.364H326.378ZM311.101 175L311.8 176.588C312.363 178.016 312.726 179.515 312.878 181.042C311.959 179.822 311.219 178.477 310.681 177.048L310.551 176.668C310.694 176.097 310.884 175.539 311.121 175H311.101Z" fill="white"/>
<path d="M325.43 237.271C326.668 237.092 327.937 237.092 329.175 237.032L333.019 236.822L340.798 236.512L356.355 236.103H360.639L365.133 236.263C365.222 236.263 365.212 236.403 365.133 236.403L361.288 236.752L357.344 236.962L349.555 237.211L334.237 237.481H329.904C328.416 237.481 326.908 237.561 325.41 237.431C325.37 237.401 325.35 237.281 325.43 237.271ZM312.059 212.437C312.059 212.338 312.179 212.278 312.229 212.378C313.196 214.158 314.023 216.011 314.705 217.919L314.146 215.183L312.478 206.356C312.484 206.339 312.496 206.323 312.511 206.313C312.526 206.303 312.545 206.296 312.563 206.296C312.581 206.296 312.6 206.302 312.615 206.313C312.63 206.324 312.642 206.339 312.648 206.356C313.996 211.409 315.564 216.412 316.762 221.504L320.287 236.802C320.896 239.628 321.445 243.153 322.064 245.969C323.572 246.149 325.509 245.969 327.137 246.178C327.277 246.178 327.237 246.428 327.137 246.428C325.42 246.478 323.373 246.867 321.565 246.758C321.335 246.758 316.962 228.594 315.144 219.897C314.026 217.42 312.988 214.944 312.059 212.437ZM274.986 184.198L277.493 191.248C278.285 193.326 279.257 195.331 280.398 197.24C282.555 200.645 285.871 203.46 290.074 203.451C294.069 203.451 297.723 201.134 300.28 198.178C303.076 194.953 304.933 190.909 306.6 187.014C307.599 184.608 308.598 182.151 309.396 179.665C309.806 178.407 310.235 177.149 310.595 175.871C310.955 174.593 311.264 173.304 311.703 172.056C311.703 171.956 311.923 171.966 311.893 172.056C311.154 174.932 309.007 184.039 308.148 186.355C306.57 190.599 304.793 194.983 301.947 198.558C299.251 201.933 295.586 204.489 291.203 204.908C286.82 205.327 283.065 203.021 280.648 199.546C279.227 197.357 278.118 194.981 277.353 192.486C276.424 189.75 275.645 186.944 274.936 184.139C274.896 184.178 274.986 184.168 274.986 184.198Z" fill="#1F1B2D"/>
<path d="M87.8438 392.486H165.589L169.059 324.141H87.8438V392.486Z" fill="#EFECF3"/>
<path d="M87.8486 324.144L59.9206 289.18L37.6953 324.144L41.1646 392.489H87.8486V324.144Z" fill="#D5D2DC"/>
<path d="M141.926 278.07H58.9336L29 326.901H38.6381L58.9336 293.097L82.3406 330.934H175.914L141.926 278.07Z" fill="#BBB7C5"/>
<path d="M132.309 293.523H150.154L159.673 304.928H139.074L132.309 293.523Z" fill="#D5D2DC"/>
<path d="M145.828 302.978V316.866H155.759V302.978L150.793 296.766L145.828 302.978Z" fill="#EFECF3"/>
<path d="M145.826 302.969H138.02L145.826 316.868V302.969Z" fill="#D5D2DC"/>
<path d="M148.223 303.195H153.871V312.725H148.223V303.195Z" fill="white"/>
<path d="M151.355 303.859H153.177V306.927H151.355V303.859ZM148.926 303.859H150.747V306.927H148.926V303.859ZM151.355 307.481H153.177V312.024H151.355V307.481ZM148.926 307.481H150.747V312.024H148.926V307.481Z" fill="#F5F4F8"/>
<path d="M88.6172 293.523H106.462L115.396 304.928H95.4257L88.6172 293.523Z" fill="#D5D2DC"/>
<path d="M102.137 302.978V316.866H112.067V302.978L107.102 296.766L102.137 302.978Z" fill="#EFECF3"/>
<path d="M102.137 302.969H94.3203L102.137 316.868V302.969Z" fill="#D5D2DC"/>
<path d="M104.531 303.195H110.18V312.725H104.531V303.195Z" fill="white"/>
<path d="M107.665 303.859H109.486V306.927H107.665V303.859ZM105.227 303.859H107.049V306.927H105.227V303.859ZM107.665 307.481H109.486V312.024H107.665V307.481ZM105.227 307.481H107.049V312.024H105.227V307.481Z" fill="#F5F4F8"/>
<path d="M73.8203 276.102H83.7512V289.177H73.8203V276.102Z" fill="#EFECF3"/>
<path d="M73.8177 276.102H66.0117V278.205L73.8177 289.177V276.102Z" fill="#D5D2DC"/>
<path d="M73.8203 271.656H84.8679V276.101H73.8203V271.656Z" fill="#D5D2DC"/>
<path d="M65.1523 271.656H73.8148V276.101H65.1523V271.656Z" fill="#BBB7C5"/>
<path d="M145.078 336.531H157.372V357.292H145.078V336.531Z" fill="#F9F8FA"/>
<path d="M151.898 337.977H155.855V344.666H151.898V337.977Z" fill="#F5F4F8"/>
<path d="M146.594 337.977H150.551V344.666H146.594V337.977Z" fill="#F5F4F8"/>
<path d="M151.898 345.867H155.855V355.776H151.898V345.867Z" fill="#F5F4F8"/>
<path d="M146.594 345.867H150.551V355.776H146.594V345.867Z" fill="#F5F4F8"/>
<path d="M99.418 336.531H111.712V357.292H99.418V336.531Z" fill="white"/>
<path d="M106.234 337.977H110.191V344.666H106.234V337.977Z" fill="#F5F4F8"/>
<path d="M100.934 337.977H104.892V344.666H100.934V337.977Z" fill="#F5F4F8"/>
<path d="M106.234 345.867H110.191V355.776H106.234V345.867Z" fill="#F5F4F8"/>
<path d="M100.934 345.867H104.892V355.776H100.934V345.867Z" fill="#F5F4F8"/>
<path d="M145.078 365.383H157.372V386.145H145.078V365.383Z" fill="#F9F8FA"/>
<path d="M151.898 366.82H155.855V373.509H151.898V366.82Z" fill="#F5F4F8"/>
<path d="M146.594 366.82H150.551V373.509H146.594V366.82Z" fill="#F5F4F8"/>
<path d="M151.898 374.719H155.855V384.629H151.898V374.719ZM146.594 374.719H150.551V384.629H146.594V374.719Z" fill="#F5F4F8"/>
<path d="M99.418 365.383H111.712V386.145H99.418V365.383Z" fill="white"/>
<path d="M106.234 366.82H110.191V373.509H106.234V366.82Z" fill="#F5F4F8"/>
<path d="M100.934 366.82H104.892V373.509H100.934V366.82ZM106.235 374.712H110.192V384.622H106.235V374.712ZM100.934 374.712H104.892V384.622H100.934V374.712Z" fill="#F5F4F8"/>
<path d="M122.312 336.531H134.606V357.292H122.312V336.531Z" fill="#F9F8FA"/>
<path d="M129.133 337.977H133.09V344.666H129.133V337.977Z" fill="#F5F4F8"/>
<path d="M123.816 337.977H127.773V344.666H123.816V337.977Z" fill="#F5F4F8"/>
<path d="M129.133 345.867H133.09V355.776H129.133V345.867Z" fill="#F5F4F8"/>
<path d="M123.816 345.867H127.773V355.776H123.816V345.867Z" fill="#F5F4F8"/>
<path d="M122.309 365.523H134.604V386.285H122.309V365.523Z" fill="#F9F8FA"/>
<path d="M129.133 366.953H133.09V373.642H129.133V366.953Z" fill="#F5F4F8"/>
<path d="M123.816 366.953H127.773V373.642H123.816V366.953Z" fill="#F5F4F8"/>
<path d="M129.133 374.859H133.09V384.768H129.133V374.859Z" fill="#F5F4F8"/>
<path d="M123.816 374.859H127.773V384.768H123.816V374.859Z" fill="#F5F4F8"/>
<path d="M65.7514 357.292H53.457V336.531H65.7514V357.292Z" fill="white"/>
<path d="M54.9727 337.977H58.9299V344.666H54.9727V337.977ZM60.2852 337.977H64.2424V344.666H60.2852V337.977ZM54.9727 345.87H58.9299V355.779H54.9727V345.87ZM60.2852 345.87H64.2424V355.779H60.2852V345.87Z" fill="#F5F4F8"/>
<path d="M65.7514 325.207H53.457V307.633H65.7514V325.207Z" fill="white"/>
<path d="M54.9727 309.062H58.9299V315.751H54.9727V309.062ZM60.2852 309.062H64.2424V315.751H60.2852V309.062ZM54.9727 317.031H58.9299V323.72H54.9727V317.031ZM60.2852 317.031H64.2424V323.72H60.2852V317.031Z" fill="#F5F4F8"/>
<path d="M67.4955 392.61L52.5884 392.68L52.4609 365.609L67.3679 365.539L67.4955 392.61Z" fill="white"/>
<path d="M61.5489 367.413L61.568 371.468L58.3589 371.483L58.3398 367.429L61.5489 367.413ZM65.7403 367.391L65.7594 371.446L62.5503 371.461L62.5312 367.407L65.7403 367.391Z" fill="#F5F4F8"/>
<path d="M63.4064 386.195L56.6305 386.227L56.6259 385.251L63.4018 385.219L63.4064 386.195ZM59.5368 365.352V369.407H56.3276V365.352H59.5368ZM61.5567 372.539L61.5758 376.593L58.3668 376.608L58.3476 372.554L61.5567 372.539ZM65.7833 372.506L65.8024 376.561L62.5933 376.576L62.5742 372.521L65.7833 372.506ZM57.3536 372.561L57.3727 376.615L54.1636 376.63L54.1445 372.576L57.3536 372.561ZM61.5801 377.668L61.5993 381.723L58.3902 381.738L58.371 377.684L61.5801 377.668ZM65.795 377.648L65.8141 381.703L62.605 381.718L62.5859 377.663L65.795 377.648ZM57.377 377.69L57.3961 381.745L54.1871 381.76L54.168 377.706L57.377 377.69Z" fill="#F5F4F8"/>
<path d="M301.812 392.671H370.874L373.964 359.203H301.812V392.671Z" fill="#EFECF3"/>
<path d="M301.836 359.159L277.03 328.109L257.277 359.159L260.367 392.627H301.836V359.159Z" fill="#D5D2DC"/>
<path d="M350.266 318.289H275.253L247.465 365.244H255.044L276.272 329.9L296.665 365.244H379.776L350.266 318.289Z" fill="#BBB7C5"/>
<path d="M352.488 371.625H363.416V387.237H352.488V371.625Z" fill="white"/>
<path d="M358.563 372.906H362.075V378.847H358.563V372.906ZM353.848 372.906H357.36V378.847H353.848V372.906ZM358.563 379.975H362.075V385.916H358.563V379.975ZM353.848 379.975H357.36V385.916H353.848V379.975Z" fill="#EFECF3"/>
<path d="M312.348 371.625H323.276V387.237H312.348V371.625Z" fill="white"/>
<path d="M318.426 372.906H321.939V378.847H318.426V372.906ZM313.707 372.906H317.22V378.847H313.707V372.906ZM318.426 379.975H321.939V385.916H318.426V379.975ZM313.707 379.975H317.22V385.916H313.707V379.975Z" fill="#EFECF3"/>
<path d="M332.355 370.789H344.4V392.668H332.355V370.789Z" fill="white"/>
<path d="M337.087 372.302H339.678V375.576H337.087V372.302ZM333.68 372.302H336.272V375.576H333.68V372.302ZM335.644 386.667H341.119V387.458H335.644V386.667ZM340.493 372.302H343.084V375.576H340.493V372.302ZM337.087 376.444H339.678V379.719H337.087V376.444ZM333.68 376.444H336.272V379.719H333.68V376.444ZM340.493 376.444H343.084V379.719H340.493V376.444ZM337.087 380.586H339.678V383.86H337.087V380.586ZM333.68 380.586H336.272V383.86H333.68V380.586ZM340.493 380.586H343.084V383.86H340.493V380.586ZM334.4 316.414H343.225V328.026H334.4V316.414Z" fill="#EFECF3"/>
<path d="M334.396 316.411H327.457V318.276L334.396 328.023V316.411ZM334.396 312.453H344.208V316.4H334.396V312.453Z" fill="#D5D2DC"/>
<path d="M326.695 312.453H334.393V316.4H326.695V312.453Z" fill="#BBB7C5"/>
<path d="M274.519 392.683H252.12L249.984 369.602H274.519V392.683Z" fill="#D5D2DC"/>
<path d="M274.512 369.6L285.581 364.602L285.332 392.681H274.512V369.6Z" fill="#EFECF3"/>
<path d="M257.367 375.57H266.788V392.667H257.367V375.57Z" fill="#F9F8FA"/>
<path d="M261.063 376.742H263.09V379.301H261.063V376.742ZM258.406 376.742H260.434V379.301H258.406V376.742ZM259.932 386.823H264.215V387.441H259.932V386.823ZM263.719 376.742H265.746V379.301H263.719V376.742Z" fill="#EFECF3"/>
<path d="M287.277 363.453H254.731L244.215 371.454H275.46L287.277 363.453Z" fill="#9691A4"/>
<path d="M275.461 371.454H287.278V363.453L275.461 371.454Z" fill="#D5D2DC"/>
<path d="M282.456 351.755C282.456 352.86 282.128 353.94 281.514 354.858C280.9 355.776 280.028 356.493 279.007 356.915C277.986 357.337 276.863 357.447 275.779 357.231C274.695 357.015 273.701 356.482 272.921 355.7C272.141 354.918 271.609 353.922 271.395 352.838C271.181 351.754 271.293 350.631 271.717 349.611C272.141 348.591 272.859 347.72 273.779 347.108C274.699 346.496 275.779 346.17 276.883 346.172C278.362 346.175 279.78 346.764 280.825 347.811C281.87 348.858 282.456 350.276 282.456 351.755Z" fill="#F9F8FA"/>
<path d="M281.204 351.756C281.204 352.906 280.747 354.009 279.934 354.822C279.121 355.635 278.018 356.093 276.867 356.093C276.501 356.095 276.137 356.048 275.783 355.952C274.773 355.678 273.897 355.048 273.315 354.178C272.733 353.308 272.485 352.257 272.617 351.219C272.749 350.181 273.252 349.226 274.034 348.53C274.816 347.834 275.821 347.443 276.867 347.43C277.234 347.429 277.598 347.476 277.952 347.571C278.456 347.694 278.931 347.915 279.35 348.222C279.92 348.619 280.385 349.148 280.708 349.763C281.031 350.378 281.201 351.062 281.204 351.756Z" fill="#D5D2DC"/>
<path d="M277.481 356.848H276.277V346.57H277.481V356.848Z" fill="#F9F8FA"/>
<path d="M271.73 352.305V351.102H282.008V352.305H271.73Z" fill="#F9F8FA"/>
<path d="M242.598 392.68H277.497L279.882 366.867H242.598V392.68Z" fill="#EFECF3"/>
<path d="M242.598 366.866L223.462 342.906L208.23 366.866L210.604 392.679H242.598V366.866Z" fill="#BBB7C5"/>
<path d="M240.288 370.027H287.645L258.838 333.805H223.267L201.887 370.027H207.319L223.267 345.21L240.288 370.027Z" fill="#9691A4"/>
<path d="M192.5 301.766H202.366V314.754H192.5V301.766Z" fill="#D5D2DC"/>
<path d="M184.738 301.767H192.501V314.755H184.738V301.767ZM192.502 297.344H203.474V301.756H192.502V297.344Z" fill="#9691A4"/>
<path d="M183.891 297.344H192.499V301.756H183.891V297.344Z" fill="#666276"/>
<path d="M157.824 392.647H235.071L238.529 355.211H157.824V392.647Z" fill="#D5D2DC"/>
<path d="M157.831 355.217L130.087 320.469L107.992 355.217L111.451 392.653H157.831V355.217Z" fill="#BBB7C5"/>
<path d="M130.424 322.664L107.613 357.943H99.6445L129.741 309.438H211.909L253.541 361.965H153.18L130.424 322.664Z" fill="#666276"/>
<path d="M137.297 360.474H125.078V343.008H137.297V360.474Z" fill="white"/>
<path d="M126.578 344.422H130.514V351.068H126.578V344.422Z" fill="#FF9812"/>
<path d="M131.855 344.422H135.79V351.068H131.855V344.422Z" fill="#FF9812"/>
<path d="M126.578 352.336H130.514V358.982H126.578V352.336Z" fill="#FF9812"/>
<path d="M131.855 352.336H135.79V358.982H131.855V352.336Z" fill="#FF9812"/>
<path d="M214.516 369.102H226.734V386.568H214.516V369.102Z" fill="white"/>
<path d="M221.289 370.531H225.225V377.177H221.289V370.531Z" fill="#FF9812"/>
<path d="M216.02 370.531H219.955V377.177H216.02V370.531Z" fill="#FF9812"/>
<path d="M221.289 378.445H225.225V385.091H221.289V378.445Z" fill="#FF9812"/>
<path d="M216.02 378.445H219.955V385.091H216.02V378.445Z" fill="#FF9812"/>
<path d="M192.066 369.102H204.284V386.568H192.066V369.102Z" fill="white"/>
<path d="M198.855 370.531H202.79V377.177H198.855V370.531Z" fill="#FF9812"/>
<path d="M193.574 370.531H197.51V377.177H193.574V370.531Z" fill="#FF9812"/>
<path d="M198.855 378.445H202.79V385.091H198.855V378.445Z" fill="#FF9812"/>
<path d="M193.574 378.445H197.51V385.091H193.574V378.445Z" fill="#FF9812"/>
<path d="M169.621 369.102H181.84V386.568H169.621V369.102Z" fill="white"/>
<path d="M176.398 370.531H180.334V377.177H176.398V370.531Z" fill="#FF9812"/>
<path d="M171.133 370.531H175.068V377.177H171.133V370.531Z" fill="#FF9812"/>
<path d="M176.398 378.445H180.334V385.091H176.398V378.445Z" fill="#FF9812"/>
<path d="M171.133 378.445H175.068V385.091H171.133V378.445Z" fill="#FF9812"/>
<path d="M137.925 392.641H124.449V368.172H137.925V392.641Z" fill="white"/>
<path d="M129.727 369.859H132.633V373.524H129.727V369.859Z" fill="#FF9812"/>
<path d="M133.527 369.859H136.433V373.524H133.527V369.859Z" fill="#FF9812"/>
<path d="M134.247 386.819H128.121V385.93H134.247V386.819Z" fill="#FF9812"/>
<path d="M125.93 369.859H128.836V373.524H125.93V369.859Z" fill="#FF9812"/>
<path d="M129.727 374.492H132.633V378.156H129.727V374.492ZM133.528 374.492H136.434V378.156H133.528V374.492ZM125.93 374.492H128.836V378.156H125.93V374.492Z" fill="#FF9812"/>
<path d="M129.727 379.117H132.633V382.782H129.727V379.117Z" fill="#FF9812"/>
<path d="M133.527 379.117H136.433V382.782H133.527V379.117Z" fill="#FF9812"/>
<path d="M125.93 379.117H128.836V382.782H125.93V379.117Z" fill="#FF9812"/>
<path d="M180.098 322.016H197.834L206.952 333.4H186.873L180.098 322.016Z" fill="#9691A4"/>
<path d="M193.531 331.403V345.205H203.408V331.403L198.464 325.234L193.531 331.403Z" fill="#D5D2DC"/>
<path d="M193.532 331.406H185.77L193.532 345.208V331.406Z" fill="#BBB7C5"/>
<path d="M195.926 331.625H201.531V341.089H195.926V331.625Z" fill="white"/>
<path d="M199.023 332.273H200.834V335.32H199.023V332.273ZM196.605 332.273H198.416V335.32H196.605V332.273ZM199.023 335.884H200.834V340.405H199.023V335.884ZM196.605 335.884H198.416V340.405H196.605V335.884Z" fill="#FDBC31"/>
<path d="M79.3073 181.346C74.8601 185.128 71.5514 190.071 69.7506 195.624C67.9498 201.177 67.728 207.121 69.1097 212.793C70.4914 218.465 73.4224 223.641 77.5753 227.744C81.7282 231.847 86.9397 234.714 92.6279 236.027L99.6179 250.336L106.398 236.127C111.468 235.04 116.187 232.707 120.128 229.337C123.279 226.656 125.871 223.38 127.757 219.697C129.643 216.014 130.783 211.997 131.116 207.873C131.787 199.544 129.122 191.29 123.708 184.926C118.294 178.562 110.573 174.61 102.244 173.938C93.9149 173.266 85.6612 175.932 79.2972 181.346H79.3073Z" fill="white"/>
<path d="M79.3102 181.347C74.8638 185.13 71.5497 190.068 69.7341 195.616C69.2793 196.996 68.9124 198.404 68.6357 199.83C68.3966 201.264 68.2465 202.711 68.1863 204.164C68.0504 207.076 68.3227 209.994 68.9951 212.831C69.6561 215.675 70.708 218.414 72.1206 220.969C72.835 222.243 73.6392 223.464 74.5271 224.624C75.3848 225.807 76.3329 226.922 77.363 227.959C81.5271 232.153 86.7808 235.1 92.531 236.467L92.2214 236.227L99.1314 250.576L99.6307 251.625L100.13 250.576L106.96 236.397L106.541 236.726C112.491 235.437 117.948 232.469 122.265 228.176C126.582 223.883 129.579 218.442 130.901 212.499C132.223 206.556 131.816 200.358 129.727 194.64C127.638 188.922 123.955 183.92 119.113 180.228C115.272 177.35 110.837 175.364 106.132 174.417C101.427 173.47 96.5693 173.594 91.9229 174.794C87.2765 175.994 82.9637 178.235 79.3102 181.347ZM79.3102 181.347C82.9389 178.249 87.2305 176.026 91.8542 174.848C96.4779 173.67 101.31 173.571 105.979 174.556C110.648 175.541 115.027 177.585 118.781 180.53C122.535 183.475 125.562 187.242 127.63 191.542C129.692 195.793 130.758 200.458 130.746 205.182C130.688 209.884 129.611 214.517 127.59 218.763C125.542 222.987 122.561 226.691 118.873 229.597C115.178 232.488 110.882 234.515 106.301 235.528L106.002 235.598L105.882 235.868L99.1414 250.097H100.14L93.0402 235.838L92.9504 235.638H92.7407C87.0958 234.402 81.9082 231.615 77.7624 227.59C76.7326 226.585 75.7813 225.504 74.9166 224.354C74.0229 223.226 73.212 222.035 72.4901 220.79C71.0424 218.292 69.9533 215.603 69.2548 212.801C68.5307 209.999 68.2212 207.106 68.3361 204.214C68.3879 202.769 68.5245 201.329 68.7455 199.9C69.0156 198.478 69.3724 197.074 69.8139 195.696C71.5932 190.128 74.8801 185.161 79.3102 181.347Z" fill="#454056"/>
<path d="M108.376 197.34C108.027 196.984 107.638 196.669 107.217 196.401C106.66 196.04 106.076 195.723 105.47 195.452C104.003 194.787 102.432 194.382 100.827 194.254V203.241L101.655 203.411C103.086 203.752 104.496 204.172 105.879 204.669C107.019 205.07 108.093 205.638 109.065 206.357C109.91 207.007 110.594 207.845 111.062 208.803C111.562 209.913 111.805 211.121 111.771 212.338C111.811 213.689 111.53 215.03 110.952 216.252C110.418 217.324 109.638 218.255 108.675 218.968C107.656 219.711 106.509 220.26 105.29 220.586C103.943 220.957 102.554 221.155 101.156 221.175V225.728H98.9095V221.085C96.8642 220.962 94.8469 220.548 92.9181 219.857C91.0601 219.189 89.3207 218.228 87.7656 217.011L89.9724 212.857C90.3901 213.286 90.8558 213.664 91.3604 213.985C92.0366 214.426 92.7441 214.817 93.4773 215.154C94.3402 215.552 95.2314 215.886 96.1435 216.152C97.1224 216.442 98.1248 216.646 99.1391 216.761V207.775L98.5999 207.625C98.4171 207.587 98.237 207.537 98.0607 207.475C96.7062 207.125 95.3727 206.698 94.0665 206.197C93.0382 205.814 92.08 205.264 91.2306 204.569C90.4995 203.966 89.9155 203.205 89.5231 202.342C89.1022 201.363 88.9011 200.303 88.9339 199.237C88.9064 197.944 89.1585 196.659 89.6729 195.472C90.1526 194.388 90.8611 193.421 91.7499 192.637C92.6684 191.823 93.7321 191.189 94.8853 190.769C96.1701 190.301 97.515 190.019 98.8795 189.93V185.547H101.126V189.93C102.91 190.021 104.667 190.402 106.329 191.059C107.821 191.641 109.233 192.409 110.533 193.345L108.376 197.34ZM94.0765 198.458C94.041 198.985 94.1397 199.512 94.3632 199.991C94.5867 200.47 94.9278 200.883 95.3546 201.194C96.5457 201.943 97.856 202.484 99.229 202.792V194.254C97.8259 194.22 96.4515 194.656 95.3247 195.492C94.9093 195.863 94.5817 196.321 94.3658 196.834C94.1499 197.347 94.051 197.902 94.0765 198.458ZM106.628 212.847C106.655 212.276 106.528 211.708 106.261 211.202C105.994 210.696 105.597 210.272 105.11 209.971C103.785 209.183 102.352 208.591 100.857 208.214V216.791C102.347 216.864 103.827 216.518 105.13 215.793C105.617 215.477 106.011 215.038 106.274 214.521C106.537 214.004 106.659 213.426 106.628 212.847Z" fill="#FF9812"/>
</svg>
