<svg width="526" height="460" viewBox="0 0 526 460" fill="none" xmlns="http://www.w3.org/2000/svg">
<path d="M480.447 129.3H361.059C361.059 129.3 372.901 96.9658 391.119 96.9658C409.337 96.9658 415.037 119.287 415.037 119.287C415.037 119.287 427.334 107.156 437.435 107.156C447.536 107.156 456.286 123.179 456.286 123.179C456.286 123.179 470.578 114.563 480.447 129.3ZM402.433 71.1347H346.637C346.637 71.1347 359.1 53.0718 368.924 53.0718C378.748 53.0718 381.654 65.1138 381.654 65.1138C381.654 65.1138 388.584 59.4919 394.96 60.501C401.336 61.5101 402.433 71.1347 402.433 71.1347ZM154.217 119.674H45.5508C45.5508 119.674 60.4314 86.4087 76.3543 84.3685C92.2772 82.3283 99.8838 109.051 99.8838 109.051C99.8838 109.051 110.152 99.5928 118.224 99.5928C126.296 99.5928 132.539 112.056 132.539 112.056C132.539 112.056 148.673 103.518 154.217 119.674ZM257.506 48.109H184.09C184.09 48.109 196.697 24.0361 210.38 23.7146C224.063 23.3931 231.249 41.9328 231.249 41.9328C231.249 41.9328 252.527 24.8234 257.506 48.109ZM208.84 406.342C111.218 406.342 32.0788 401.105 32.0788 394.644C32.0788 388.183 111.218 382.946 208.84 382.946C306.462 382.946 385.602 388.184 385.602 394.644C385.602 401.104 306.463 406.342 208.84 406.342Z" fill="#F5F4F8"/>
<path d="M28.9994 338.882L87.5045 339.121L146 339.211L263 339.371L380 339.211L438.495 339.121L497 338.882L438.495 338.632L380 338.542L263 338.382L146 338.542L87.5045 338.632L28.9994 338.882Z" fill="#1F1B2D"/>
<path d="M270.298 184.437C253.403 202.011 202.647 280.227 198.692 282.564C198.692 282.564 198.692 333.72 226.961 323.505C255.23 313.29 281.143 221.513 286.675 192.255C289.59 176.808 284.098 170.097 270.298 184.437Z" fill="#E7A793"/>
<path d="M274.603 244.908L222.798 239.017C222.798 239.017 254.931 196.389 271.537 181.171C288.852 165.314 297.34 167.541 289.311 197.577C281.243 227.793 274.603 244.908 274.603 244.908Z" fill="#A237EE"/>
<path d="M277.041 216.69C277.611 218.119 277.974 219.622 278.12 221.154C276.312 218.656 275.187 215.731 274.854 212.666C275.779 213.892 276.516 215.248 277.041 216.69ZM247.943 217.858C249.369 217.288 250.869 216.925 252.397 216.78C249.904 218.589 246.982 219.715 243.919 220.045C245.144 219.119 246.5 218.382 247.943 217.858ZM255.662 238.009C256.272 236.601 257.079 235.286 258.059 234.105C257.829 235.621 257.386 237.097 256.741 238.489C256.151 239.906 255.349 241.226 254.364 242.403C254.588 240.885 255.025 239.405 255.662 238.009ZM286.058 173.103L286.877 171.476C287.232 171.441 287.59 171.441 287.945 171.476L287.136 173.603C286.537 175.017 285.733 176.336 284.75 177.517C284.975 175.991 285.415 174.505 286.058 173.103ZM226.355 234.355L227.353 234.754C228.766 235.362 230.087 236.165 231.278 237.14C229.755 236.915 228.273 236.474 226.874 235.832L225.696 235.253L226.355 234.355ZM266.297 193.204C267.707 193.809 269.024 194.609 270.211 195.581C268.688 195.362 267.205 194.925 265.807 194.283C264.396 193.677 263.078 192.873 261.893 191.896C263.423 192.116 264.913 192.557 266.317 193.204H266.297ZM269.772 193.294C269.831 193.334 269.887 193.378 269.941 193.424H269.762C269.762 193.424 269.792 193.324 269.792 193.294H269.772Z" fill="white"/>
<path d="M272.115 235.593C270.907 235.313 269.638 235.203 268.41 235.034L264.596 234.504L256.877 233.506L241.409 231.768L237.146 231.379L232.652 231.159C232.562 231.159 232.562 231.289 232.652 231.299L236.447 231.978C236.447 231.978 239.063 232.357 240.371 232.517L248.1 233.436L263.348 235.014L267.601 235.373L272.095 235.713C272.106 235.708 272.117 235.701 272.125 235.692C272.133 235.683 272.138 235.671 272.14 235.658C272.142 235.645 272.14 235.634 272.136 235.622C272.132 235.61 272.124 235.601 272.115 235.593Z" fill="#1F1B2D"/>
<path opacity="0.1" d="M249.47 242.053L274.594 244.909C274.594 244.909 281.234 227.794 289.312 197.578C292.717 184.836 293.147 177.098 291.19 173.613L249.47 242.053Z" fill="black"/>
<path d="M260.234 351.454H339.029L340.936 343.965L343.043 335.697L343.503 333.91L345.03 327.919L345.919 324.404L346.808 320.939L347.038 320.05L347.277 319.051L347.577 317.883L347.886 316.675L348.455 314.438L349.264 311.273L349.604 309.935L350.143 307.828L350.483 306.48L351.781 301.387L352.1 300.159L352.599 298.162L352.899 296.993L353.838 293.309L354.057 292.47L354.547 290.543L354.716 289.894L354.876 289.265C354.876 289.125 354.946 288.985 354.976 288.865L355.116 288.326C355.116 288.24 355.136 288.16 355.176 288.086L355.355 287.377H278.657L272.086 310.124L269.43 319.341L260.234 351.454Z" fill="#1F1B2D"/>
<path d="M326.129 351.454H328.126L336.604 315.176L338.601 306.329L338.78 305.5C338.784 305.472 338.777 305.443 338.76 305.419C338.743 305.395 338.72 305.378 338.692 305.371C338.664 305.364 338.634 305.366 338.608 305.379C338.582 305.392 338.562 305.414 338.551 305.441C338.551 305.53 338.501 305.62 338.471 305.71L335.825 315.226L326.129 351.454Z" fill="#1F1B2D"/>
<path d="M281.143 287.387L284.528 304.363L287.304 318.263L292.027 341.948L292.517 344.375L293.325 348.419L293.955 351.454H339.039L340.936 343.965L343.043 335.697L343.503 333.91L345.03 327.919L345.919 324.404L346.808 320.939L347.038 320.05L347.277 319.051L347.577 317.883L347.886 316.675L348.455 314.438L349.264 311.273L349.604 309.935L350.143 307.828L350.483 306.48L351.781 301.387L352.1 300.159L352.599 298.162L352.899 296.993L353.838 293.309L354.057 292.47L354.547 290.543L354.716 289.894L354.876 289.265C354.876 289.125 354.946 288.985 354.976 288.865L355.116 288.326C355.116 288.24 355.136 288.16 355.176 288.086L355.355 287.377L281.143 287.387Z" fill="#1F1B2D"/>
<path d="M281.131 287.358C281.131 287.777 281.45 292.35 282.189 299.34L282.938 306.011C283.388 309.795 283.937 313.999 284.636 318.383C285.814 326.081 287.352 334.479 289.349 342.687C290.058 345.683 290.837 348.569 291.666 351.435H390.672L387.586 311.942L385.589 287.328H295.78L281.131 287.358Z" fill="#1F1B2D"/>
<path d="M281.342 296.454C281.452 299.999 281.601 303.534 281.831 307.059C282.071 310.883 282.42 314.698 282.919 318.512C282.919 318.652 282.919 318.792 282.969 318.932C283.435 322.506 283.971 326.071 284.577 329.626C285.146 332.941 285.576 336.516 287.033 339.612C287.588 340.799 288.375 341.862 289.35 342.737C290.242 343.553 291.334 344.118 292.516 344.375C292.709 344.423 292.906 344.457 293.105 344.475H293.274C293.238 344.495 293.208 344.526 293.189 344.563C293.17 344.6 293.161 344.642 293.165 344.684C293.165 345.873 293.165 347.081 293.304 348.259V348.409C293.424 349.407 293.614 350.456 293.804 351.474H295.501V351.414C295.202 350.296 294.952 349.168 294.672 348.039C294.392 346.91 293.993 345.763 293.724 344.594C293.709 344.551 293.681 344.512 293.644 344.485C294.721 344.536 295.789 344.257 296.703 343.684C297.617 343.111 298.334 342.272 298.756 341.279C299.183 339.761 299.21 338.158 298.836 336.626L297.918 330.545C297.339 326.82 296.59 323.136 295.921 319.431L295.621 317.743C294.293 310.204 292.905 302.665 291.237 295.196C291.177 294.887 291.108 294.577 291.038 294.267C290.968 293.957 290.658 294.118 290.678 294.317L290.838 295.825L291.837 304.393C292.316 307.738 292.645 311.103 293.115 314.448L293.604 317.863L296.11 334.349C296.55 336.896 298.107 341.459 294.473 342.248C293.633 342.434 292.755 342.325 291.986 341.938C290.368 340.963 289.158 339.434 288.581 337.634C287.682 334.637 287.031 331.572 286.634 328.468C286.035 325.139 285.502 321.781 285.036 318.392L283.159 305.801L282.161 299.39L281.681 296.394C281.671 296.185 281.342 296.245 281.342 296.454ZM368.956 322.776C364.833 322.733 360.731 322.179 356.744 321.128C354.907 320.659 353.089 320.07 351.282 319.48C349.491 318.986 347.815 318.145 346.349 317.004C343.573 314.607 342.285 310.843 341.077 307.488C339.765 303.71 338.701 299.851 337.891 295.935C337.891 295.745 337.572 295.815 337.562 295.994C337.466 300.423 338.028 304.842 339.229 309.105C340.228 312.73 341.566 316.764 344.492 319.301C347.418 321.838 351.741 322.915 355.686 323.395C360.108 323.909 364.579 323.849 368.986 323.215C369.044 323.211 369.099 323.184 369.137 323.14C369.175 323.096 369.195 323.039 369.191 322.98C369.187 322.921 369.16 322.868 369.116 322.829C369.072 322.79 369.014 322.772 368.956 322.776ZM375.834 296.054L376.533 312.69L378.401 351.454H380.258L377.572 312.63L376.314 296.044C376.312 295.981 376.286 295.92 376.24 295.876C376.194 295.832 376.133 295.808 376.069 295.81C376.005 295.812 375.945 295.837 375.901 295.883C375.857 295.929 375.833 295.991 375.834 296.054Z" fill="#1F1B2D"/>
<path d="M264.087 328.368L398.402 318.183C398.402 318.183 371.382 211.088 318.029 171.715C304.389 161.66 289.461 168.111 282.74 175.63C265.665 194.782 263.688 327.939 264.087 328.368Z" fill="#A237EE"/>
<path d="M311.819 176.589C312.383 178.016 312.745 179.515 312.897 181.042C311.978 179.823 311.238 178.478 310.701 177.048C310.137 175.621 309.774 174.122 309.622 172.595C310.538 173.817 311.277 175.161 311.819 176.589ZM326.398 234.365C326.972 235.792 327.332 237.296 327.466 238.828C325.667 236.327 324.546 233.403 324.211 230.341C325.128 231.571 325.864 232.926 326.398 234.365ZM374.388 259.139C374.956 260.568 375.319 262.071 375.467 263.602C373.659 261.105 372.534 258.18 372.201 255.115C373.11 256.35 373.846 257.704 374.388 259.139ZM335.654 295.636C336.234 297.058 336.598 298.559 336.733 300.089C334.934 297.588 333.813 294.664 333.478 291.602C334.393 292.835 335.126 294.194 335.654 295.636ZM277.039 216.671C277.609 218.1 277.972 219.603 278.118 221.134C276.311 218.637 275.185 215.711 274.853 212.646C275.779 213.878 276.516 215.241 277.039 216.691V216.671ZM300.945 289.315C301.526 290.738 301.892 292.239 302.033 293.769C301.115 292.55 300.379 291.204 299.846 289.774C299.278 288.348 298.915 286.849 298.768 285.321C299.683 286.54 300.416 287.885 300.945 289.315ZM349.345 213.955C349.914 215.38 350.277 216.88 350.423 218.408C348.613 215.913 347.491 212.986 347.168 209.92C348.087 211.151 348.821 212.51 349.345 213.955ZM295.682 194.782C297.106 194.207 298.607 193.844 300.136 193.704C298.915 194.616 297.57 195.349 296.142 195.881C294.715 196.458 293.211 196.822 291.678 196.959C292.901 196.044 294.25 195.311 295.682 194.782ZM280.464 242.922C281.889 242.35 283.389 241.986 284.918 241.844C283.7 242.761 282.354 243.494 280.924 244.021C279.5 244.597 278 244.964 276.47 245.109C277.69 244.203 279.036 243.48 280.464 242.962V242.922ZM276.38 300.459C277.806 299.89 279.306 299.526 280.834 299.38C279.616 300.3 278.271 301.037 276.84 301.567C275.413 302.134 273.914 302.497 272.386 302.646C273.611 301.747 274.955 301.024 276.38 300.499V300.459ZM371.992 295.726C373.417 295.155 374.917 294.792 376.445 294.647C373.953 296.457 371.03 297.582 367.967 297.913C369.199 297.008 370.554 296.285 371.992 295.766V295.726ZM337.432 258.779C338.857 258.207 340.357 257.84 341.885 257.691C340.665 258.61 339.32 259.349 337.891 259.888C336.464 260.451 334.965 260.814 333.438 260.966C334.66 260.061 336.005 259.335 337.432 258.809V258.779ZM286.056 173.074L286.486 172.195L288.034 171.117C287.786 171.954 287.486 172.774 287.135 173.573C286.535 174.988 285.731 176.306 284.748 177.487C284.976 175.972 285.416 174.496 286.056 173.104V173.074ZM325.309 204.129C325.911 202.715 326.715 201.397 327.696 200.214C327.216 203.26 325.941 206.126 324.001 208.522C324.221 207.002 324.662 205.522 325.309 204.129ZM290.65 322.287C291.252 320.876 292.052 319.558 293.026 318.373C292.805 319.892 292.368 321.371 291.728 322.767C291.159 324.08 290.424 325.315 289.541 326.441H289.382C289.612 325.005 290.039 323.607 290.65 322.287ZM303.401 252.698C304.009 251.288 304.812 249.97 305.788 248.784C305.291 251.823 304.023 254.684 302.103 257.092C302.324 255.573 302.761 254.093 303.401 252.698ZM394.888 305.761L395.078 306.38L394.709 306.81C394.749 306.467 394.809 306.127 394.888 305.791V305.761ZM354.946 279.12C355.553 277.712 356.356 276.397 357.333 275.216C356.85 278.258 355.576 281.119 353.638 283.513C353.876 282.003 354.327 280.534 354.976 279.15L354.946 279.12ZM346.379 317.564C346.985 316.153 347.788 314.835 348.765 313.65C348.271 316.694 346.998 319.56 345.071 321.968C345.306 320.457 345.756 318.987 346.409 317.604L346.379 317.564ZM279.206 271.311C280.616 271.92 281.934 272.723 283.121 273.698C281.601 273.473 280.122 273.033 278.727 272.39C277.311 271.787 275.989 270.983 274.803 270.003C276.338 270.231 277.831 270.682 279.236 271.341L279.206 271.311ZM385.153 277.143L385.662 278.521C384.585 278.001 383.578 277.347 382.666 276.574C383.523 276.686 384.367 276.886 385.182 277.173L385.153 277.143ZM316.672 310.414C318.084 311.015 319.402 311.816 320.586 312.791C319.064 312.569 317.582 312.132 316.183 311.493C314.772 310.881 313.455 310.074 312.268 309.096C313.805 309.323 315.299 309.777 316.702 310.444L316.672 310.414ZM377.913 319.322L378.602 319.651L376.255 319.831C375.275 319.336 374.356 318.726 373.519 318.013C375.05 318.247 376.539 318.698 377.943 319.351L377.913 319.322ZM354.387 237.211C355.794 237.826 357.111 238.628 358.302 239.597C355.258 239.106 352.393 237.837 349.984 235.913C351.518 236.138 353.012 236.585 354.417 237.241L354.387 237.211ZM319.957 275.455C321.369 276.065 322.687 276.872 323.871 277.852C320.825 277.363 317.959 276.089 315.554 274.157C317.087 274.386 318.58 274.833 319.987 275.485L319.957 275.455ZM301.983 222.882C303.391 223.494 304.709 224.297 305.898 225.268C302.854 224.785 299.99 223.515 297.59 221.583C299.13 221.81 300.63 222.257 302.043 222.912L301.983 222.882Z" fill="white"/>
<path d="M290.352 198.007C298.101 196.858 305.97 181.221 307.328 170.557C307.417 169.818 295.345 146.781 293.458 141.978C293.068 140.979 266.147 161.31 266.147 161.31C266.147 161.31 273.137 170.217 276.403 178.635C276.632 179.334 282.863 199.105 290.352 198.007Z" fill="#E7A793"/>
<path opacity="0.4" d="M266.108 161.311C266.108 161.311 273.098 170.218 276.373 178.626L277.492 181.801C291.331 174.811 296.973 162.329 299.25 154.091L293.418 141.979C293.029 140.99 266.108 161.311 266.108 161.311Z" fill="#1F1B2D"/>
<path d="M287.236 104.563C295.114 113.679 302.993 146.562 298.489 156.667C291.949 171.306 274.524 180.103 260.424 170.746C246.714 161.67 237.208 118.632 242.87 108.766C251.198 94.2276 275.612 91.1021 287.236 104.563Z" fill="#E7A793"/>
<path d="M266.188 131.274C267.186 131.354 268.185 131.274 269.183 131.274C270.243 131.418 271.321 131.208 272.249 130.675C272.508 130.45 272.685 130.146 272.754 129.811C272.823 129.476 272.778 129.126 272.628 128.817C272.238 128.254 271.705 127.806 271.084 127.518C270.463 127.23 269.775 127.113 269.093 127.18C267.693 127.097 266.312 127.539 265.219 128.418C264.988 128.636 264.824 128.916 264.747 129.224C264.67 129.532 264.684 129.856 264.786 130.157C264.888 130.458 265.074 130.723 265.323 130.921C265.572 131.119 265.872 131.242 266.188 131.274ZM267.063 136.097C267.063 136.007 267.262 136.167 267.282 136.267C267.652 138.513 268.46 141.03 270.627 141.369C270.697 141.369 270.717 141.489 270.627 141.499C268.101 141.639 267.063 138.294 267.063 136.097Z" fill="#1F1B2D"/>
<path d="M268.601 133.361C272.146 132.362 273.863 139.542 270.598 140.45C267.333 141.358 265.635 134.189 268.601 133.361ZM254.184 138.863C254.184 138.783 254.034 139.013 254.054 139.103C254.653 141.3 254.973 143.926 253.145 145.094C253.085 145.094 253.145 145.244 253.195 145.214C255.562 144.335 255.103 140.86 254.184 138.863Z" fill="#1F1B2D"/>
<path d="M251.645 137.026C248.01 137.605 249.438 144.824 252.803 144.285C256.168 143.746 254.691 136.536 251.645 137.026ZM247.963 133.47C248.88 133.044 249.774 132.567 250.639 132.042C251.654 131.667 252.515 130.965 253.085 130.045C253.21 129.724 253.225 129.37 253.128 129.04C253.031 128.71 252.826 128.42 252.546 128.218C251.318 127.419 249.9 127.789 248.642 128.408C247.359 128.992 246.338 130.031 245.776 131.323C245.658 131.627 245.632 131.959 245.7 132.278C245.768 132.597 245.929 132.889 246.162 133.117C246.395 133.345 246.689 133.501 247.01 133.564C247.331 133.627 247.661 133.594 247.963 133.47ZM274.495 155.319C274.095 155.968 273.736 156.807 272.947 157.067C272.114 157.246 271.253 157.246 270.421 157.067C270.404 157.065 270.387 157.069 270.372 157.077C270.357 157.085 270.346 157.099 270.34 157.115C270.334 157.131 270.331 157.147 270.335 157.164C270.339 157.181 270.348 157.195 270.361 157.206C270.781 157.566 271.291 157.804 271.835 157.897C272.379 157.99 272.94 157.935 273.456 157.736C273.881 157.512 274.23 157.166 274.458 156.742C274.686 156.318 274.782 155.837 274.734 155.359C274.734 155.229 274.555 155.219 274.495 155.319ZM270.577 149.237C270.221 150.249 269.66 151.176 268.93 151.961C268.2 152.746 267.316 153.372 266.333 153.801C265.479 154.186 264.575 154.448 263.647 154.58C263.473 154.619 263.296 154.639 263.118 154.64C262.948 154.65 262.778 154.65 262.608 154.64C262.485 154.647 262.363 154.613 262.261 154.542C262.159 154.471 262.085 154.368 262.049 154.25C262.044 154.17 262.044 154.09 262.049 154.01V153.811C261.6 152.113 261.14 149.477 261.14 149.477C260.591 149.936 257.755 152.133 257.586 151.224C256.258 143.735 254.79 135.407 255.049 127.669C255.049 127.613 255.071 127.56 255.111 127.52C255.151 127.48 255.203 127.459 255.259 127.459C255.315 127.459 255.368 127.481 255.407 127.52C255.446 127.559 255.469 127.613 255.469 127.669C257.026 134.818 257.316 142.198 258.774 149.407C259.751 148.605 260.837 147.946 261.999 147.45C262.259 147.45 262.788 152.563 263.058 153.301C263.055 153.328 263.055 153.355 263.058 153.381C266.053 153.062 267.971 151.674 270.297 149.088C270.447 148.918 270.667 149.028 270.577 149.237Z" fill="#1F1B2D"/>
<path d="M264.448 153.472C265.678 154.465 267.143 155.125 268.702 155.389C269.555 155.508 270.424 155.358 271.188 154.96C272.846 154.071 272.506 152.433 271.847 151.115C271.489 150.421 271.049 149.771 270.539 149.178C269.02 151.224 266.885 152.728 264.448 153.472Z" fill="#1F1B2D"/>
<path d="M268.702 155.389C269.555 155.508 270.424 155.358 271.188 154.96C272.846 154.071 272.506 152.433 271.847 151.115C269.99 151.764 268.422 153.512 268.702 155.389Z" fill="#FF97B8"/>
<path d="M239.856 121.569C253.835 127.42 267.975 111.234 267.975 111.234C269.577 113.691 271.93 115.564 274.683 116.575C277.436 117.586 280.441 117.681 283.253 116.846C283.253 116.846 289.963 137.086 295.435 135.868C303.753 134.091 300.428 105.273 296.663 100.26C292.898 95.247 285.509 95.2671 285.509 95.2671C285.509 95.2671 284.101 91.0632 278.13 88.1974C271.54 85.022 253.166 94.9775 253.166 94.9775C251.499 92.5858 249.292 90.6192 246.726 89.2359C246.106 88.8876 245.422 88.6688 244.715 88.5926C244.008 88.5164 243.294 88.5845 242.614 88.7927C241.934 89.0009 241.304 89.3449 240.761 89.8038C240.218 90.2627 239.775 90.8271 239.456 91.4626C240.82 92.7748 241.868 94.3795 242.522 96.1558C244.769 102.027 239.806 103.056 238.697 97.5338C238.216 95.4845 238.485 93.3304 239.456 91.4626C236.261 88.3671 232.017 88.0276 229.99 90.4641C226.265 94.9276 228.223 116.716 239.856 121.569Z" fill="#1F1B2D"/>
<path d="M274.143 147.211C275.863 146.66 277.394 145.636 278.561 144.258C279.728 142.88 280.484 141.2 280.744 139.412C281.004 137.624 280.756 135.8 280.029 134.146C279.302 132.492 278.126 131.076 276.634 130.058C275.142 129.04 273.394 128.461 271.589 128.388C269.784 128.315 267.995 128.75 266.425 129.643C264.855 130.536 263.568 131.854 262.71 133.443C261.852 135.032 261.457 136.831 261.571 138.634C261.665 140.098 262.092 141.521 262.819 142.795C263.546 144.069 264.553 145.162 265.765 145.989C266.977 146.816 268.361 147.355 269.813 147.567C271.265 147.779 272.745 147.657 274.143 147.211ZM268.631 130.086C269.278 129.877 269.949 129.746 270.628 129.697C272.756 129.546 274.862 130.212 276.516 131.561C278.17 132.91 279.246 134.838 279.526 136.953C279.806 139.068 279.269 141.211 278.024 142.944C276.779 144.677 274.919 145.868 272.824 146.277C270.729 146.686 268.559 146.279 266.754 145.141C264.949 144.003 263.646 142.22 263.111 140.154C262.576 138.088 262.849 135.897 263.875 134.026C264.901 132.155 266.602 130.746 268.631 130.086ZM252.862 151.245C256.317 149.947 258.114 145.254 256.856 140.351C256.32 138.005 255.059 135.888 253.251 134.3C252.521 133.564 251.613 133.03 250.614 132.75C249.615 132.47 248.562 132.454 247.556 132.704C246.55 132.954 245.625 133.46 244.873 134.174C244.121 134.888 243.567 135.784 243.266 136.776C242.42 139.029 242.297 141.49 242.916 143.816C244.194 148.968 248.358 152.393 252.203 151.435C252.428 151.391 252.648 151.328 252.862 151.245ZM247.46 134.12L247.929 133.98C248.736 133.817 249.57 133.851 250.361 134.079C251.152 134.307 251.876 134.721 252.472 135.288C254.068 136.704 255.181 138.582 255.658 140.66C256.766 145.134 255.119 149.408 251.953 150.187C248.787 150.966 245.333 147.97 244.224 143.506C243.669 141.446 243.773 139.263 244.524 137.265C244.765 136.564 245.151 135.922 245.657 135.38C246.163 134.838 246.777 134.409 247.46 134.12Z" fill="#FDBC31"/>
<path d="M262.104 139.671L262.723 138.543C261.055 137.614 257.42 136.656 255.593 139.542L256.691 140.221C258.319 137.634 261.954 139.581 262.104 139.671ZM304.72 133.78L305.719 132.981C305.339 132.512 301.974 128.388 299.068 128.488C296.342 128.587 279.706 133.48 278.998 133.73L279.367 134.968C284.14 133.55 297.001 129.846 299.108 129.776C301.046 129.706 303.812 132.642 304.72 133.78Z" fill="#FDBC31"/>
<path d="M291.872 133.99C291.872 133.99 294.558 121.129 300.11 121.678C305.662 122.227 306.6 138.773 302.157 142.997C301.626 143.577 300.983 144.045 300.267 144.371C299.551 144.697 298.777 144.874 297.991 144.893C297.205 144.912 296.422 144.771 295.691 144.479C294.96 144.187 294.297 143.751 293.739 143.197L291.872 133.99Z" fill="#E7A793"/>
<path d="M300.255 126.431C300.335 126.381 300.405 126.49 300.345 126.56C297.279 129.636 296.81 133.9 296.96 138.034C297.479 136.196 298.657 134.798 301.054 135.328C301.174 135.328 301.144 135.537 301.054 135.567C300.314 135.636 299.615 135.933 299.053 136.418C298.491 136.903 298.094 137.552 297.918 138.273C297.626 139.477 297.462 140.709 297.429 141.948C297.429 142.357 296.73 142.437 296.69 141.948C296.695 141.915 296.695 141.881 296.69 141.848C294.553 137.235 295.392 129.067 300.255 126.431Z" fill="#1F1B2D"/>
<path d="M223.406 224.259C220.879 217.609 162.304 229.651 164.641 239.846C173.219 277.192 197.124 310.564 203.165 318.193C211.094 328.178 226.871 325.961 232.622 319.91C240.96 311.133 225.902 230.849 223.406 224.259Z" fill="#E7A793"/>
<path d="M227.529 242.593C228.831 246.172 229.863 249.843 230.615 253.577C231.464 257.271 232.203 260.986 232.802 264.72C233.986 272.275 234.653 279.902 234.799 287.547C234.909 291.821 234.799 296.085 234.799 300.359C234.799 300.459 234.639 300.449 234.639 300.359C234.639 296.574 234.409 292.76 234.1 288.985C233.791 285.21 233.411 281.366 232.922 277.582C231.973 270.143 230.924 262.713 229.576 255.334L228.408 249.143C227.979 247.006 227.489 244.879 227.21 242.712C227.21 242.553 227.459 242.413 227.529 242.593Z" fill="#1F1B2D"/>
<path d="M237.539 119.002C237.924 124.087 238.685 129.137 239.816 134.11L240.425 136.686C241.264 140.101 242.262 143.536 243.421 146.841C243.687 147.64 243.966 148.429 244.259 149.208C247.804 158.784 252.487 167.022 257.76 170.517C259.099 171.415 260.52 172.184 262.004 172.814C269.562 168.406 275.874 162.147 280.346 154.627C284.818 147.107 287.302 138.572 287.566 129.826L289.164 129.387L288.405 128.179C288.156 127.759 287.846 127.23 287.576 126.731C287.176 113.875 281.983 101.633 273.018 92.4104C260.466 89.0353 245.438 93.8583 239.117 104.872C237.579 107.598 237.11 112.731 237.539 119.002Z" fill="#E7A793"/>
<path d="M263.847 128.707C264.908 128.762 265.971 128.762 267.032 128.707C268.26 128.707 269.239 128.797 270.287 128.068C270.57 127.829 270.763 127.502 270.835 127.139C270.907 126.776 270.856 126.4 270.687 126.071C269.918 124.713 268.42 124.364 266.942 124.334C265.459 124.246 263.997 124.712 262.838 125.642C262.581 125.869 262.397 126.167 262.307 126.499C262.217 126.831 262.227 127.18 262.335 127.506C262.443 127.832 262.642 128.12 262.911 128.333C263.18 128.546 263.505 128.677 263.847 128.707ZM264.775 133.871C264.775 133.781 264.984 133.951 265.004 134.04C265.394 136.427 266.253 139.093 268.549 139.453C268.619 139.453 268.639 139.582 268.549 139.592C265.873 139.692 264.775 136.147 264.775 133.871Z" fill="#1F1B2D"/>
<path d="M266.405 130.925C270.159 129.876 271.977 137.465 268.502 138.434C265.027 139.403 263.259 131.804 266.405 130.925ZM251.129 136.747C251.129 136.667 250.97 136.907 251 137.007C251.639 139.333 251.998 142.109 250.001 143.397C249.941 143.397 250.001 143.557 250.051 143.527C252.587 142.539 252.108 138.864 251.129 136.747Z" fill="#1F1B2D"/>
<path d="M248.44 134.799C244.595 135.418 246.113 143.067 249.678 142.498C253.243 141.929 251.665 134.28 248.44 134.799ZM244.545 131.034C245.544 130.605 246.413 130.036 247.371 129.526C248.442 129.133 249.354 128.4 249.967 127.439C250.098 127.1 250.114 126.728 250.011 126.379C249.908 126.03 249.692 125.726 249.398 125.512C248.09 124.663 246.592 125.053 245.264 125.712C243.918 126.334 242.851 127.434 242.269 128.797C242.155 129.113 242.135 129.455 242.21 129.783C242.285 130.111 242.452 130.409 242.691 130.644C242.93 130.879 243.233 131.041 243.561 131.11C243.889 131.179 244.231 131.153 244.545 131.034ZM272.644 154.181C272.215 154.86 271.835 155.749 270.997 156.029C270.119 156.223 269.209 156.223 268.331 156.029C268.313 156.028 268.296 156.033 268.281 156.042C268.266 156.051 268.254 156.065 268.246 156.081C268.238 156.097 268.236 156.114 268.239 156.132C268.242 156.15 268.249 156.165 268.261 156.178C268.707 156.56 269.248 156.813 269.826 156.912C270.404 157.011 270.999 156.95 271.546 156.738C271.994 156.499 272.362 156.132 272.602 155.684C272.842 155.236 272.944 154.727 272.894 154.221C272.904 154.082 272.714 154.082 272.644 154.181ZM268.491 147.73C268.119 148.803 267.528 149.787 266.756 150.621C265.984 151.455 265.049 152.119 264.008 152.573C263.103 152.981 262.145 153.257 261.162 153.392C260.975 153.434 260.784 153.458 260.593 153.462C260.416 153.473 260.24 153.473 260.063 153.462C259.932 153.47 259.802 153.434 259.693 153.36C259.584 153.286 259.504 153.178 259.464 153.052C259.454 152.973 259.454 152.892 259.464 152.813V152.603L258.466 148.01C257.886 148.499 254.881 150.826 254.711 149.867C253.303 141.879 251.715 133.101 252.015 124.903C252.015 124.845 252.038 124.789 252.079 124.748C252.12 124.707 252.176 124.684 252.235 124.684C252.294 124.684 252.349 124.707 252.39 124.748C252.431 124.789 252.454 124.845 252.454 124.903C254.112 132.472 254.451 140.291 255.959 147.87C257.028 147.043 258.208 146.371 259.464 145.873C259.734 145.873 260.303 151.285 260.583 152.074C260.578 152.1 260.578 152.127 260.583 152.154C263.708 151.814 265.785 150.356 268.241 147.6C268.361 147.401 268.591 147.51 268.491 147.73Z" fill="#1F1B2D"/>
<path d="M262.002 152.224C263.306 153.266 264.857 153.954 266.505 154.221C267.407 154.351 268.327 154.19 269.132 153.762C270.899 152.823 270.53 151.086 269.831 149.698C269.454 148.96 268.991 148.27 268.453 147.641C266.847 149.818 264.587 151.425 262.002 152.224Z" fill="#1F1B2D"/>
<path d="M266.517 154.251C267.419 154.38 268.339 154.22 269.143 153.792C270.911 152.853 270.541 151.116 269.842 149.728C267.885 150.417 266.218 152.254 266.517 154.251Z" fill="#FF97B8"/>
<path d="M235.957 118.432L237.534 119.002C251.833 123.435 265.743 107.478 265.743 107.478C267.432 110.088 269.92 112.082 272.836 113.162C275.752 114.242 278.938 114.35 281.92 113.47C283.47 118.039 285.37 122.482 287.602 126.76C287.333 118.269 284.972 109.976 280.729 102.616C276.486 95.256 270.491 89.0583 263.277 84.5716C258.722 86.1699 254.29 88.0989 250.016 90.3432C248.246 87.8102 245.907 85.7275 243.186 84.262C242.531 83.8927 241.807 83.6602 241.059 83.5787C240.311 83.4972 239.554 83.5682 238.834 83.7875C238.114 84.0068 237.447 84.37 236.872 84.8549C236.297 85.3398 235.825 85.9364 235.487 86.6086C236.928 88.0095 238.037 89.7155 238.733 91.6013C241.109 97.8123 235.857 98.9008 234.688 93.0592C234.172 90.8861 234.456 88.5998 235.487 86.6186C232.102 83.3533 227.609 82.9938 225.502 85.62C221.567 90.2333 223.624 113.29 235.957 118.432Z" fill="#1F1B2D"/>
<g opacity="0.3">
<path opacity="0.3" d="M211.906 184.356C222.388 186.665 233.318 185.813 243.315 181.909C253.312 178.005 261.927 171.225 268.071 162.425C274.215 153.625 277.61 143.2 277.829 132.47C278.048 121.74 275.079 111.186 269.3 102.143C263.521 93.1 255.188 85.9734 245.359 81.6654C235.53 77.3574 224.642 76.0611 214.076 77.9405C203.51 79.8199 193.737 84.7905 185.996 92.2237C178.255 99.6569 172.891 109.219 170.584 119.7C169.051 126.659 168.904 133.852 170.151 140.867C171.398 147.882 174.015 154.584 177.852 160.588C181.689 166.592 186.672 171.781 192.515 175.86C198.358 179.939 204.947 182.825 211.906 184.356Z" fill="white"/>
<path opacity="0.3" d="M271.168 157.415C264.294 169.962 252.746 179.289 239.034 183.368C225.322 187.447 210.553 185.951 197.938 179.201L271.168 157.415ZM269.609 102.679L169.312 132.524C169.225 128.215 169.648 123.91 170.574 119.701C171.623 114.871 173.34 110.211 175.676 105.856L249.716 83.8169C257.851 88.2996 264.701 94.7939 269.609 102.679ZM277.436 137.7L181.904 166.104C179.628 163.37 177.623 160.421 175.918 157.299L277.647 127.022C277.94 130.579 277.87 134.157 277.436 137.7ZM273.082 109.243L169.986 139.93L169.713 137.973L272.261 107.465L273.082 109.243ZM232.547 77.8621L186.785 91.4749L190.52 88.3189L227.687 77.2729C229.316 77.3858 230.938 77.5825 232.547 77.8621Z" fill="#F5F4F8"/>
</g>
<path d="M217.966 242.265L204.742 239.353L217.549 181.202L230.772 184.115L217.966 242.265Z" fill="#F5F4F8"/>
<path d="M180.201 115.986C182.636 104.927 188.296 94.8382 196.465 86.9957C204.634 79.1532 214.945 73.9091 226.095 71.9267C237.245 69.9443 248.731 71.3125 259.103 75.8584C269.475 80.4043 278.265 87.9236 284.364 97.4655C290.463 107.007 293.594 118.143 293.363 129.465C293.132 140.787 289.55 151.786 283.068 161.072C276.586 170.358 267.497 177.513 256.948 181.633C246.399 185.753 234.867 186.652 223.808 184.217C208.98 180.947 196.057 171.923 187.88 159.129C179.703 146.335 176.941 130.816 180.201 115.986ZM225.056 178.595C235.004 180.788 245.38 179.982 254.87 176.278C264.36 172.574 272.539 166.139 278.371 157.786C284.203 149.433 287.429 139.54 287.638 129.354C287.847 119.168 285.031 109.151 279.546 100.566C274.061 91.981 266.153 85.2161 256.822 81.126C247.491 77.0359 237.158 75.8045 227.128 77.5876C217.098 79.3707 207.822 84.0884 200.473 91.1437C193.124 98.199 188.033 107.275 185.843 117.224C184.387 123.829 184.247 130.655 185.43 137.314C186.613 143.973 189.097 150.333 192.738 156.032C196.379 161.731 201.108 166.656 206.653 170.528C212.198 174.4 218.451 177.141 225.056 178.595Z" fill="#666276"/>
<path d="M212.506 283.183L192.505 278.78L203.848 227.225L223.859 231.628L212.506 283.183Z" fill="#454056"/>
<path d="M203.777 121.548C203.798 121.49 203.815 121.43 203.827 121.368C204.067 120.51 203.567 122.197 203.747 121.638L204.436 119.641C205.31 117.324 206.379 115.086 207.632 112.951L208.161 112.052C208.221 111.952 207.721 112.751 208.161 112.122L208.51 111.583L209.928 109.586C211.01 108.124 212.187 106.737 213.453 105.432L214.372 104.513C214.791 104.104 213.882 104.962 214.462 104.433L215.041 103.904L217.357 102.027L220.014 100.199L221.282 99.4503C222.021 99.0209 220.962 99.6001 221.511 99.3205L222.3 98.9211C224.686 97.7473 227.181 96.8108 229.749 96.1251H229.879L230.159 96.0652L231.307 95.8156L233.554 95.4261C235.14 95.1992 236.736 95.0526 238.337 94.9868C238.781 94.9363 239.212 94.7987 239.603 94.582C239.994 94.3653 240.339 94.0735 240.618 93.7235C241.181 93.0165 241.44 92.115 241.338 91.2172C241.236 90.3194 240.781 89.499 240.074 88.9362C239.367 88.3734 238.466 88.1146 237.568 88.2166C227.365 88.5322 217.609 92.4724 210.048 99.3305C205.025 104.034 201.098 109.785 198.545 116.176C197.96 117.603 197.473 119.067 197.087 120.56C196.949 121.452 197.17 122.362 197.701 123.092C198.232 123.822 199.031 124.312 199.923 124.454C200.812 124.574 201.713 124.346 202.439 123.817C203.165 123.288 203.658 122.501 203.817 121.618L203.777 121.548ZM202.375 131.583C202.274 132.24 201.98 132.852 201.53 133.341C201.08 133.83 200.496 134.175 199.851 134.332C199.206 134.489 198.528 134.451 197.904 134.222C197.28 133.993 196.738 133.584 196.347 133.047C195.956 132.51 195.733 131.869 195.706 131.205C195.679 130.541 195.851 129.885 196.198 129.318C196.545 128.751 197.053 128.301 197.657 128.024C198.261 127.747 198.933 127.654 199.589 127.759C200.464 127.899 201.249 128.38 201.771 129.096C202.293 129.812 202.51 130.707 202.375 131.583Z" fill="white"/>
<path d="M168.578 251.52C168.578 251.52 154.279 228.014 172.083 205.586C179.412 196.36 196.707 179.814 231.796 182.12C240.124 182.67 251.598 189.35 237.678 193.394C227.792 196.27 220.652 195.102 215.2 197.818C215.2 197.818 228.791 208.053 227.912 216.371C227.522 220.085 227.233 228.203 225.086 235.932C225.086 235.932 222.27 237.929 219.983 237.59C219.983 237.59 213.822 255.364 191.665 260.826L168.578 251.52Z" fill="#E7A793"/>
<path d="M179.599 202.57C185.331 200.284 197.573 195.65 208.907 195.331C221.498 194.981 245.853 197.707 246.003 207.004C246.123 213.824 236.736 213.594 236.736 213.594C236.736 213.594 246.562 216.84 245.314 223.021C244.185 228.653 236.936 228.013 236.936 228.013C236.936 228.013 242.558 231.009 240.421 236.222C237.855 242.492 226.501 235.223 218.453 239.297C216.595 240.256 179.599 202.57 179.599 202.57Z" fill="#E7A793"/>
<path d="M207.08 208.692C212.822 207.434 226.612 207.913 236.617 213.375C236.847 213.495 236.877 213.735 236.617 213.665C227.003 210.861 217.085 209.231 207.08 208.812C206.99 208.812 206.99 208.762 207.08 208.692ZM207.78 221.393C212.853 220.814 227.042 221.943 236.988 227.824C237.218 227.954 237.228 228.193 236.988 228.114C227.526 224.816 217.721 222.602 207.76 221.513C207.745 221.511 207.73 221.502 207.721 221.489C207.712 221.476 207.708 221.459 207.711 221.443C207.714 221.427 207.722 221.413 207.735 221.404C207.748 221.395 207.765 221.391 207.78 221.393ZM187.339 262.354C192.422 261.147 197.328 259.291 201.937 256.832C206.578 254.32 210.686 250.929 214.03 246.846C215.028 245.598 216.027 244.3 216.896 242.972C217.765 241.644 218.723 240.136 219.751 238.818C219.831 238.718 220.021 238.818 219.961 238.908C218.804 241.679 217.38 244.332 215.707 246.826C214.208 249.159 212.416 251.29 210.375 253.167C206.346 256.752 201.571 259.399 196.395 260.916C193.456 261.734 190.448 262.279 187.408 262.543C187.259 262.583 187.199 262.384 187.339 262.354Z" fill="#1F1B2D"/>
<path d="M333.095 187.132C358.817 221.672 401.745 311.692 408.056 324.932C412.34 333.919 365.378 357.585 363.391 351.054C360.835 342.687 318.846 232.227 312.964 191.955C309.749 169.877 324.198 175.18 333.095 187.132Z" fill="#E7A793"/>
<path d="M362.126 346.562C363.214 354.7 368.746 371.096 372.86 373.602C376.974 376.108 398.593 375.599 409.487 375.599C420.381 375.599 422.468 372.554 422.338 368.809C422.208 365.064 399.302 364.346 399.302 364.346C399.302 364.346 429.837 373.053 437.516 374.521C445.195 375.989 462.879 380.412 465.476 374.052C466.624 371.176 461.781 368.27 461.781 368.27C461.781 368.27 469.2 370.437 470.389 366.752C471.727 362.548 465.825 360.242 465.825 360.242C465.825 360.242 470.468 361.17 470.578 357.745C470.778 350.056 441.74 346.302 441.74 346.302C441.74 346.302 463.968 357.126 464.707 350.875C465.705 342.238 420.131 332.762 415.388 328.997C411.937 326.12 408.709 322.986 405.732 319.621L362.126 346.562Z" fill="#E7A793"/>
<path d="M422.178 370.667C422.255 370.137 422.205 369.596 422.031 369.089C421.857 368.582 421.566 368.123 421.18 367.751C420.397 367.034 419.499 366.454 418.524 366.034C416.509 365.178 414.42 364.509 412.283 364.037C407.989 362.948 403.585 362.18 399.202 361.041C403.72 360.973 408.23 361.477 412.622 362.539C414.867 363.054 417.028 363.881 419.043 364.995C420.086 365.569 421 366.351 421.729 367.292C422.087 367.769 422.317 368.33 422.395 368.921C422.473 369.512 422.399 370.113 422.178 370.667ZM461.711 368.23L452.384 365.684L443.148 362.918L433.951 360.042L424.725 357.196C427.938 357.55 431.124 358.12 434.261 358.904L443.597 361.46L452.754 364.576L461.711 368.23ZM432.136 349.557C435.098 349.743 438.042 350.15 440.943 350.775C443.854 351.354 446.731 352.094 449.56 352.992C452.397 353.872 455.18 354.912 457.898 356.108C460.626 357.273 463.266 358.635 465.797 360.182L457.469 357.186L449.101 354.44L440.663 351.904L432.136 349.557ZM436.629 342.288C441.4 342.672 446.1 343.679 450.609 345.284C455.162 346.792 459.496 348.894 463.5 351.535L450.109 346.732L436.629 342.288Z" fill="#1F1B2D"/>
<path d="M322.161 246.337L374.285 244.899C374.285 244.899 345.876 199.684 330.658 183.099C314.772 165.824 306.124 167.311 311.546 197.917C317.008 228.732 322.161 246.337 322.161 246.337Z" fill="#A237EE"/>
<path d="M354.418 237.24C355.824 237.855 357.141 238.658 358.332 239.627C355.288 239.135 352.423 237.866 350.014 235.942C351.537 236.16 353.02 236.598 354.418 237.24ZM325.31 204.128C325.912 202.715 326.716 201.396 327.697 200.214C327.216 203.26 325.942 206.125 324.002 208.522C324.222 207.001 324.662 205.521 325.31 204.128ZM349.345 213.954C349.914 215.38 350.278 216.879 350.424 218.407C348.614 215.912 347.491 212.985 347.168 209.92C348.088 211.15 348.821 212.51 349.345 213.954ZM326.378 234.364C326.953 235.791 327.313 237.295 327.447 238.828C325.648 236.327 324.527 233.403 324.192 230.34C325.115 231.569 325.859 232.925 326.398 234.364H326.378ZM311.101 175L311.8 176.588C312.363 178.016 312.726 179.515 312.878 181.042C311.959 179.822 311.219 178.477 310.681 177.048L310.551 176.668C310.694 176.097 310.884 175.539 311.121 175H311.101Z" fill="white"/>
<path d="M325.429 237.27C326.667 237.091 327.936 237.091 329.174 237.031L333.018 236.821L340.797 236.511L356.354 236.102H360.638L365.132 236.262C365.221 236.262 365.211 236.402 365.132 236.402L361.287 236.751L357.343 236.961L349.554 237.21L334.236 237.48H329.903C328.415 237.48 326.907 237.56 325.409 237.43C325.369 237.4 325.349 237.28 325.429 237.27ZM312.058 212.436C312.058 212.337 312.178 212.277 312.228 212.377C313.195 214.157 314.022 216.01 314.704 217.918L314.145 215.182L312.477 206.355C312.483 206.338 312.495 206.322 312.51 206.312C312.525 206.302 312.544 206.295 312.562 206.295C312.58 206.295 312.599 206.301 312.614 206.312C312.629 206.323 312.641 206.338 312.647 206.355C313.995 211.408 315.563 216.411 316.761 221.503L320.286 236.801C320.895 239.627 321.444 243.152 322.063 245.968C323.571 246.148 325.508 245.968 327.136 246.177C327.276 246.177 327.236 246.427 327.136 246.427C325.419 246.477 323.372 246.866 321.564 246.757C321.334 246.757 316.961 228.593 315.143 219.896C314.025 217.419 312.987 214.943 312.058 212.436ZM274.985 184.197L277.492 191.247C278.284 193.325 279.256 195.33 280.397 197.239C282.554 200.644 285.87 203.459 290.073 203.45C294.068 203.45 297.722 201.133 300.279 198.177C303.075 194.952 304.932 190.908 306.599 187.013C307.598 184.607 308.597 182.15 309.395 179.664C309.805 178.406 310.234 177.148 310.594 175.87C310.954 174.592 311.263 173.303 311.702 172.055C311.702 171.955 311.922 171.965 311.892 172.055C311.153 174.931 309.006 184.038 308.147 186.354C306.569 190.598 304.792 194.982 301.946 198.557C299.25 201.932 295.585 204.488 291.202 204.907C286.819 205.326 283.064 203.02 280.647 199.545C279.226 197.356 278.117 194.98 277.352 192.485C276.423 189.749 275.644 186.943 274.935 184.138C274.895 184.177 274.985 184.167 274.985 184.197Z" fill="#1F1B2D"/>
<path d="M87.8442 392.486H165.589L169.059 324.141H87.8442V392.486Z" fill="#EFECF3"/>
<path d="M87.8477 324.141L59.9197 289.177L37.6944 324.141L41.1637 392.486H87.8477V324.141Z" fill="#D5D2DC"/>
<path d="M141.926 278.074H58.9332L28.9996 326.905H38.6377L58.9332 293.101L82.3402 330.938H175.914L141.926 278.074Z" fill="#BBB7C5"/>
<path d="M132.308 293.525H150.153L159.672 304.93H139.073L132.308 293.525Z" fill="#D5D2DC"/>
<path d="M145.827 302.978V316.866H155.758V302.978L150.792 296.766L145.827 302.978Z" fill="#EFECF3"/>
<path d="M145.824 302.968H138.018L145.824 316.867V302.968Z" fill="#D5D2DC"/>
<path d="M148.223 303.194H153.871V312.724H148.223V303.194Z" fill="white"/>
<path d="M151.354 303.856H153.176V306.924H151.354V303.856ZM148.925 303.856H150.746V306.924H148.925V303.856ZM151.354 307.478H153.176V312.021H151.354V307.478ZM148.925 307.478H150.746V312.021H148.925V307.478Z" fill="#F5F4F8"/>
<path d="M88.6158 293.525H106.461L115.395 304.93H95.4243L88.6158 293.525Z" fill="#D5D2DC"/>
<path d="M102.136 302.978V316.866H112.066V302.978L107.101 296.766L102.136 302.978Z" fill="#EFECF3"/>
<path d="M102.137 302.968H94.3199L102.137 316.867V302.968Z" fill="#D5D2DC"/>
<path d="M104.531 303.194H110.18V312.724H104.531V303.194Z" fill="white"/>
<path d="M107.663 303.856H109.484V306.924H107.663V303.856ZM105.225 303.856H107.047V306.924H105.225V303.856ZM107.663 307.478H109.484V312.021H107.663V307.478ZM105.225 307.478H107.047V312.021H105.225V307.478Z" fill="#F5F4F8"/>
<path d="M73.8191 276.102H83.75V289.177H73.8191V276.102Z" fill="#EFECF3"/>
<path d="M73.8164 276.102H66.0104V278.205L73.8164 289.177V276.102Z" fill="#D5D2DC"/>
<path d="M73.8196 271.657H84.8672V276.102H73.8196V271.657Z" fill="#D5D2DC"/>
<path d="M65.1539 271.657H73.8164V276.102H65.1539V271.657Z" fill="#BBB7C5"/>
<path d="M145.077 336.534H157.371V357.295H145.077V336.534Z" fill="#F9F8FA"/>
<path d="M151.898 337.975H155.855V344.664H151.898V337.975Z" fill="#F5F4F8"/>
<path d="M146.594 337.975H150.551V344.664H146.594V337.975Z" fill="#F5F4F8"/>
<path d="M151.898 345.868H155.855V355.777H151.898V345.868Z" fill="#F5F4F8"/>
<path d="M146.594 345.868H150.551V355.777H146.594V345.868Z" fill="#F5F4F8"/>
<path d="M99.4166 336.534H111.711V357.295H99.4166V336.534Z" fill="white"/>
<path d="M106.234 337.975H110.191V344.664H106.234V337.975Z" fill="#F5F4F8"/>
<path d="M100.933 337.975H104.891V344.664H100.933V337.975Z" fill="#F5F4F8"/>
<path d="M106.234 345.868H110.191V355.777H106.234V345.868Z" fill="#F5F4F8"/>
<path d="M100.933 345.868H104.891V355.777H100.933V345.868Z" fill="#F5F4F8"/>
<path d="M145.077 365.381H157.371V386.143H145.077V365.381Z" fill="#F9F8FA"/>
<path d="M151.898 366.824H155.855V373.513H151.898V366.824Z" fill="#F5F4F8"/>
<path d="M146.594 366.824H150.551V373.513H146.594V366.824Z" fill="#F5F4F8"/>
<path d="M151.898 374.716H155.855V384.626H151.898V374.716ZM146.594 374.716H150.551V384.626H146.594V374.716Z" fill="#F5F4F8"/>
<path d="M99.4166 365.381H111.711V386.143H99.4166V365.381Z" fill="white"/>
<path d="M106.234 366.824H110.191V373.513H106.234V366.824Z" fill="#F5F4F8"/>
<path d="M100.933 366.824H104.891V373.513H100.933V366.824ZM106.234 374.716H110.191V384.626H106.234V374.716ZM100.933 374.716H104.891V384.626H100.933V374.716Z" fill="#F5F4F8"/>
<path d="M122.311 336.534H134.605V357.295H122.311V336.534Z" fill="#F9F8FA"/>
<path d="M129.133 337.975H133.09V344.664H129.133V337.975Z" fill="#F5F4F8"/>
<path d="M123.816 337.975H127.773V344.664H123.816V337.975Z" fill="#F5F4F8"/>
<path d="M129.133 345.868H133.09V355.777H129.133V345.868Z" fill="#F5F4F8"/>
<path d="M123.816 345.868H127.773V355.777H123.816V345.868Z" fill="#F5F4F8"/>
<path d="M122.307 365.523H134.602V386.285H122.307V365.523Z" fill="#F9F8FA"/>
<path d="M129.133 366.954H133.09V373.643H129.133V366.954Z" fill="#F5F4F8"/>
<path d="M123.816 366.954H127.773V373.643H123.816V366.954Z" fill="#F5F4F8"/>
<path d="M129.133 374.858H133.09V384.767H129.133V374.858Z" fill="#F5F4F8"/>
<path d="M123.816 374.858H127.773V384.767H123.816V374.858Z" fill="#F5F4F8"/>
<path d="M65.7514 357.294H53.457V336.533H65.7514V357.294Z" fill="white"/>
<path d="M54.9725 337.975H58.9297V344.664H54.9725V337.975ZM60.285 337.975H64.2422V344.664H60.285V337.975ZM54.9725 345.868H58.9297V355.777H54.9725V345.868ZM60.285 345.868H64.2422V355.777H60.285V345.868Z" fill="#F5F4F8"/>
<path d="M65.7514 325.204H53.457V307.63H65.7514V325.204Z" fill="white"/>
<path d="M54.9725 309.061H58.9297V315.75H54.9725V309.061ZM60.285 309.061H64.2422V315.75H60.285V309.061ZM54.9725 317.03H58.9297V323.719H54.9725V317.03ZM60.285 317.03H64.2422V323.719H60.285V317.03Z" fill="#F5F4F8"/>
<path d="M67.4969 392.613L52.5898 392.683L52.4623 365.612L67.3693 365.542L67.4969 392.613Z" fill="white"/>
<path d="M61.5473 367.416L61.5664 371.471L58.3573 371.486L58.3382 367.432L61.5473 367.416ZM65.7387 367.394L65.7578 371.449L62.5487 371.464L62.5296 367.41L65.7387 367.394Z" fill="#F5F4F8"/>
<path d="M63.4048 386.193L56.6289 386.225L56.6243 385.249L63.4002 385.217L63.4048 386.193ZM59.5352 365.35V369.405H56.326V365.35H59.5352ZM61.5551 372.537L61.5742 376.591L58.3652 376.606L58.346 372.552L61.5551 372.537ZM65.7817 372.504L65.8008 376.559L62.5917 376.574L62.5726 372.519L65.7817 372.504ZM57.352 372.559L57.3711 376.613L54.162 376.628L54.1429 372.574L57.352 372.559ZM61.5785 377.666L61.5977 381.721L58.3886 381.736L58.3694 377.682L61.5785 377.666ZM65.7934 377.646L65.8125 381.701L62.6034 381.716L62.5843 377.661L65.7934 377.646ZM57.3754 377.688L57.3945 381.743L54.1855 381.758L54.1664 377.704L57.3754 377.688Z" fill="#F5F4F8"/>
<path d="M301.814 392.671H370.875L373.965 359.203H301.814V392.671Z" fill="#EFECF3"/>
<path d="M301.836 359.158L277.03 328.108L257.277 359.158L260.367 392.626H301.836V359.158Z" fill="#D5D2DC"/>
<path d="M350.267 318.286H275.254L247.466 365.241H255.045L276.273 329.897L296.666 365.241H379.777L350.267 318.286Z" fill="#BBB7C5"/>
<path d="M352.49 371.626H363.418V387.238H352.49V371.626Z" fill="white"/>
<path d="M358.562 372.906H362.074V378.847H358.562V372.906ZM353.847 372.906H357.359V378.847H353.847V372.906ZM358.562 379.975H362.074V385.916H358.562V379.975ZM353.847 379.975H357.359V385.916H353.847V379.975Z" fill="#EFECF3"/>
<path d="M312.349 371.626H323.277V387.238H312.349V371.626Z" fill="white"/>
<path d="M318.425 372.906H321.938V378.847H318.425V372.906ZM313.706 372.906H317.219V378.847H313.706V372.906ZM318.425 379.975H321.938V385.916H318.425V379.975ZM313.706 379.975H317.219V385.916H313.706V379.975Z" fill="#EFECF3"/>
<path d="M332.357 370.792H344.402V392.671H332.357V370.792Z" fill="white"/>
<path d="M337.085 372.299H339.676V375.573H337.085V372.299ZM333.678 372.299H336.27V375.573H333.678V372.299ZM335.642 386.664H341.117V387.455H335.642V386.664ZM340.491 372.299H343.082V375.573H340.491V372.299ZM337.085 376.441H339.676V379.716H337.085V376.441ZM333.678 376.441H336.27V379.716H333.678V376.441ZM340.491 376.441H343.082V379.716H340.491V376.441ZM337.085 380.583H339.676V383.857H337.085V380.583ZM333.678 380.583H336.27V383.857H333.678V380.583ZM340.491 380.583H343.082V383.857H340.491V380.583ZM334.398 316.411H343.223V328.023H334.398V316.411Z" fill="#EFECF3"/>
<path d="M334.395 316.411H327.456V318.276L334.395 328.023V316.411ZM334.395 312.453H344.207V316.4H334.395V312.453Z" fill="#D5D2DC"/>
<path d="M326.697 312.453H334.395V316.4H326.697V312.453Z" fill="#BBB7C5"/>
<path d="M274.52 392.683H252.121L249.985 369.602H274.52V392.683Z" fill="#D5D2DC"/>
<path d="M274.513 369.6L285.582 364.602L285.333 392.681H274.513V369.6Z" fill="#EFECF3"/>
<path d="M257.368 375.573H266.789V392.67H257.368V375.573Z" fill="#F9F8FA"/>
<path d="M261.063 376.745H263.09V379.304H261.063V376.745ZM258.406 376.745H260.434V379.304H258.406V376.745ZM259.932 386.826H264.215V387.444H259.932V386.826ZM263.719 376.745H265.746V379.304H263.719V376.745Z" fill="#EFECF3"/>
<path d="M287.277 363.452H254.731L244.215 371.453H275.46L287.277 363.452Z" fill="#9691A4"/>
<path d="M275.46 371.453H287.277V363.452L275.46 371.453Z" fill="#D5D2DC"/>
<path d="M282.457 351.754C282.457 352.859 282.129 353.939 281.515 354.857C280.901 355.775 280.029 356.492 279.008 356.914C277.987 357.336 276.864 357.446 275.78 357.23C274.696 357.014 273.702 356.481 272.922 355.699C272.142 354.917 271.61 353.921 271.396 352.837C271.182 351.753 271.294 350.63 271.718 349.61C272.142 348.59 272.86 347.719 273.78 347.107C274.7 346.495 275.78 346.169 276.884 346.171C278.363 346.174 279.781 346.763 280.826 347.81C281.871 348.857 282.457 350.275 282.457 351.754Z" fill="#F9F8FA"/>
<path d="M281.203 351.754C281.203 352.904 280.746 354.007 279.933 354.82C279.12 355.633 278.017 356.091 276.866 356.091C276.5 356.093 276.136 356.046 275.782 355.95C274.772 355.676 273.896 355.046 273.314 354.176C272.732 353.306 272.484 352.255 272.616 351.217C272.748 350.179 273.251 349.224 274.033 348.528C274.815 347.832 275.82 347.441 276.866 347.428C277.233 347.427 277.597 347.474 277.951 347.569C278.455 347.692 278.93 347.913 279.349 348.22C279.919 348.617 280.384 349.146 280.707 349.761C281.03 350.376 281.2 351.06 281.203 351.754Z" fill="#D5D2DC"/>
<path d="M277.481 356.85H276.277V346.572H277.481V356.85Z" fill="#F9F8FA"/>
<path d="M271.73 352.307V351.104H282.008V352.307H271.73Z" fill="#F9F8FA"/>
<path d="M242.599 392.681H277.498L279.883 366.868H242.599V392.681Z" fill="#EFECF3"/>
<path d="M242.598 366.868L223.462 342.908L208.23 366.868L210.604 392.681H242.598V366.868Z" fill="#BBB7C5"/>
<path d="M240.288 370.023H287.645L258.838 333.801H223.267L201.887 370.023H207.319L223.267 345.206L240.288 370.023Z" fill="#9691A4"/>
<path d="M192.501 301.764H202.367V314.752H192.501V301.764Z" fill="#D5D2DC"/>
<path d="M184.737 301.764H192.5V314.752H184.737V301.764ZM192.501 297.341H203.473V301.753H192.501V297.341Z" fill="#9691A4"/>
<path d="M183.892 297.341H192.5V301.753H183.892V297.341Z" fill="#666276"/>
<path d="M157.826 392.649H235.073L238.531 355.213H157.826V392.649Z" fill="#D5D2DC"/>
<path d="M157.832 355.213L130.088 320.465L107.993 355.213L111.452 392.649H157.832V355.213Z" fill="#BBB7C5"/>
<path d="M130.422 322.667L107.611 357.945H99.6426L129.739 309.44H211.907L253.539 361.968H153.178L130.422 322.667Z" fill="#666276"/>
<path d="M137.297 360.47H125.078V343.004H137.297V360.47Z" fill="white"/>
<path d="M126.58 344.425H130.516V351.071H126.58V344.425Z" fill="#A237EE" fill-opacity="0.75"/>
<path d="M131.854 344.425H135.789V351.071H131.854V344.425Z" fill="#A237EE" fill-opacity="0.75"/>
<path d="M126.58 352.339H130.516V358.985H126.58V352.339Z" fill="#A237EE" fill-opacity="0.75"/>
<path d="M131.854 352.339H135.789V358.985H131.854V352.339Z" fill="#A237EE" fill-opacity="0.75"/>
<path d="M214.516 369.101H226.734V386.567H214.516V369.101Z" fill="white"/>
<path d="M221.291 370.532H225.227V377.178H221.291V370.532Z" fill="#A237EE" fill-opacity="0.75"/>
<path d="M216.018 370.532H219.953V377.178H216.018V370.532Z" fill="#A237EE" fill-opacity="0.75"/>
<path d="M221.291 378.447H225.227V385.093H221.291V378.447Z" fill="#A237EE" fill-opacity="0.75"/>
<path d="M216.018 378.447H219.953V385.093H216.018V378.447Z" fill="#A237EE" fill-opacity="0.75"/>
<path d="M192.067 369.101H204.285V386.567H192.067V369.101Z" fill="white"/>
<path d="M198.854 370.532H202.789V377.178H198.854V370.532Z" fill="#A237EE" fill-opacity="0.75"/>
<path d="M193.576 370.532H197.512V377.178H193.576V370.532Z" fill="#A237EE" fill-opacity="0.75"/>
<path d="M198.854 378.447H202.789V385.093H198.854V378.447Z" fill="#A237EE" fill-opacity="0.75"/>
<path d="M193.576 378.447H197.512V385.093H193.576V378.447Z" fill="#A237EE" fill-opacity="0.75"/>
<path d="M169.621 369.101H181.84V386.567H169.621V369.101Z" fill="white"/>
<path d="M176.4 370.532H180.336V377.178H176.4V370.532Z" fill="#A237EE" fill-opacity="0.75"/>
<path d="M171.131 370.532H175.066V377.178H171.131V370.532Z" fill="#A237EE" fill-opacity="0.75"/>
<path d="M176.4 378.447H180.336V385.093H176.4V378.447Z" fill="#A237EE" fill-opacity="0.75"/>
<path d="M171.131 378.447H175.066V385.093H171.131V378.447Z" fill="#A237EE" fill-opacity="0.75"/>
<path d="M137.925 392.638H124.449V368.169H137.925V392.638Z" fill="white"/>
<path d="M129.727 369.86H132.633V373.525H129.727V369.86Z" fill="#A237EE" fill-opacity="0.75"/>
<path d="M133.528 369.86H136.434V373.525H133.528V369.86Z" fill="#A237EE" fill-opacity="0.75"/>
<path d="M134.247 386.815H128.121V385.926H134.247V386.815Z" fill="#A237EE" fill-opacity="0.75"/>
<path d="M125.93 369.86H128.836V373.525H125.93V369.86Z" fill="#A237EE" fill-opacity="0.75"/>
<path d="M129.727 374.49H132.633V378.154H129.727V374.49ZM133.528 374.49H136.434V378.154H133.528V374.49ZM125.93 374.49H128.836V378.154H125.93V374.49Z" fill="#A237EE" fill-opacity="0.75"/>
<path d="M129.727 379.119H132.633V382.784H129.727V379.119Z" fill="#A237EE" fill-opacity="0.75"/>
<path d="M133.528 379.119H136.434V382.784H133.528V379.119Z" fill="#A237EE" fill-opacity="0.75"/>
<path d="M125.93 379.119H128.836V382.784H125.93V379.119Z" fill="#A237EE" fill-opacity="0.75"/>
<path d="M180.099 322.015H197.835L206.953 333.399H186.874L180.099 322.015Z" fill="#9691A4"/>
<path d="M193.533 331.406V345.208H203.41V331.406L198.466 325.237L193.533 331.406Z" fill="#D5D2DC"/>
<path d="M193.531 331.404H185.769L193.531 345.206V331.404Z" fill="#BBB7C5"/>
<path d="M195.926 331.622H201.531V341.086H195.926V331.622Z" fill="white"/>
<path d="M199.025 332.272H200.836V335.319H199.025V332.272ZM196.607 332.272H198.418V335.319H196.607V332.272ZM199.025 335.883H200.836V340.404H199.025V335.883ZM196.607 335.883H198.418V340.404H196.607V335.883Z" fill="#FDBC31"/>
<path d="M79.3084 181.346C74.8612 185.128 71.5526 190.071 69.7518 195.624C67.951 201.177 67.7292 207.121 69.1109 212.793C70.4926 218.465 73.4236 223.641 77.5765 227.744C81.7294 231.847 86.9409 234.714 92.6291 236.027L99.619 250.336L106.399 236.127C111.469 235.04 116.188 232.707 120.129 229.337C123.28 226.656 125.872 223.38 127.758 219.697C129.644 216.014 130.784 211.997 131.117 207.873C131.788 199.544 129.123 191.29 123.709 184.926C118.295 178.562 110.574 174.61 102.245 173.938C93.916 173.266 85.6624 175.932 79.2984 181.346H79.3084Z" fill="white"/>
<path d="M79.3085 181.346C74.8621 185.129 71.548 190.067 69.7324 195.615C69.2776 196.995 68.9107 198.403 68.634 199.829C68.3949 201.263 68.2448 202.71 68.1846 204.163C68.0487 207.075 68.321 209.993 68.9934 212.83C69.6544 215.674 70.7063 218.413 72.1189 220.968C72.8333 222.242 73.6375 223.463 74.5254 224.623C75.3831 225.806 76.3312 226.921 77.3613 227.958C81.5254 232.152 86.7791 235.099 92.5293 236.466L92.2197 236.226L99.1297 250.575L99.629 251.624L100.128 250.575L106.958 236.396L106.539 236.725C112.489 235.436 117.946 232.468 122.263 228.175C126.58 223.882 129.577 218.441 130.899 212.498C132.221 206.555 131.814 200.357 129.725 194.639C127.636 188.921 123.953 183.919 119.111 180.227C115.27 177.349 110.835 175.363 106.13 174.416C101.425 173.469 96.5676 173.593 91.9212 174.793C87.2748 175.993 82.962 178.234 79.3085 181.346ZM79.3085 181.346C82.9372 178.248 87.2288 176.025 91.8525 174.847C96.4762 173.669 101.308 173.57 105.977 174.555C110.646 175.54 115.025 177.584 118.779 180.529C122.533 183.474 125.56 187.241 127.628 191.541C129.69 195.792 130.756 200.457 130.744 205.181C130.686 209.883 129.609 214.516 127.588 218.762C125.54 222.986 122.559 226.69 118.871 229.596C115.176 232.487 110.88 234.514 106.299 235.527L106 235.597L105.88 235.867L99.1397 250.096H100.138L93.0385 235.837L92.9487 235.637H92.739C87.0941 234.401 81.9065 231.614 77.7607 227.589C76.7309 226.584 75.7796 225.503 74.9149 224.353C74.0212 223.225 73.2103 222.034 72.4884 220.789C71.0407 218.291 69.9516 215.602 69.2531 212.8C68.529 209.998 68.2195 207.105 68.3344 204.213C68.3862 202.768 68.5228 201.328 68.7438 199.899C69.0139 198.477 69.3707 197.073 69.8122 195.695C71.5915 190.127 74.8784 185.16 79.3085 181.346Z" fill="#454056"/>
<path d="M108.376 197.343C108.027 196.987 107.638 196.672 107.217 196.404C106.66 196.043 106.076 195.726 105.47 195.455C104.003 194.79 102.432 194.385 100.827 194.257V203.244L101.655 203.414C103.086 203.755 104.496 204.175 105.879 204.672C107.019 205.073 108.093 205.641 109.065 206.36C109.91 207.01 110.594 207.848 111.062 208.806C111.562 209.916 111.805 211.124 111.771 212.341C111.811 213.692 111.53 215.033 110.952 216.255C110.418 217.327 109.638 218.258 108.675 218.971C107.656 219.714 106.509 220.263 105.29 220.589C103.943 220.96 102.554 221.158 101.156 221.178V225.731H98.9095V221.088C96.8642 220.965 94.8469 220.551 92.9181 219.86C91.0601 219.192 89.3207 218.231 87.7656 217.014L89.9724 212.86C90.3901 213.289 90.8558 213.667 91.3604 213.988C92.0366 214.429 92.7441 214.82 93.4773 215.157C94.3402 215.555 95.2314 215.889 96.1435 216.155C97.1224 216.445 98.1248 216.649 99.1391 216.764V207.778L98.5999 207.628C98.4171 207.59 98.237 207.54 98.0607 207.478C96.7062 207.128 95.3727 206.701 94.0665 206.2C93.0382 205.817 92.08 205.267 91.2306 204.572C90.4995 203.969 89.9155 203.208 89.5231 202.345C89.1022 201.366 88.9011 200.306 88.9339 199.24C88.9064 197.947 89.1585 196.662 89.6729 195.475C90.1526 194.391 90.8611 193.424 91.7499 192.64C92.6684 191.826 93.7321 191.192 94.8853 190.772C96.1701 190.304 97.515 190.022 98.8795 189.933V185.55H101.126V189.933C102.91 190.024 104.667 190.405 106.329 191.062C107.821 191.644 109.233 192.412 110.533 193.348L108.376 197.343ZM94.0765 198.461C94.041 198.988 94.1397 199.515 94.3632 199.994C94.5867 200.473 94.9278 200.886 95.3546 201.197C96.5457 201.946 97.856 202.487 99.229 202.795V194.257C97.8259 194.223 96.4515 194.659 95.3247 195.495C94.9093 195.866 94.5817 196.324 94.3658 196.837C94.1499 197.35 94.051 197.905 94.0765 198.461ZM106.628 212.85C106.655 212.279 106.528 211.711 106.261 211.205C105.994 210.699 105.597 210.275 105.11 209.974C103.785 209.186 102.352 208.594 100.857 208.217V216.794C102.347 216.867 103.827 216.521 105.13 215.796C105.617 215.48 106.011 215.041 106.274 214.524C106.537 214.007 106.659 213.429 106.628 212.85Z" fill="#A237EE" fill-opacity="0.75"/>
</svg>
