<svg width="526" height="500" viewBox="0 0 526 500" fill="none" xmlns="http://www.w3.org/2000/svg">
<path d="M473.789 226.508H437.411V270.692H428.048V245.675H381.781V285.283H375.659V192.328H335.451V217.85H314.843V249.588H308.604V229.621H272.047V289.207H261.359V240.762H227.926V203.984H205.193V183.039H178.903V275.952H170.066V237.175H126.745V292.678H120.759V247.379H76.828V206.562H52.211V396.658H473.789V226.508Z" fill="#F5F4F8"/>
<path d="M463.175 240.51H469.329V232.062H463.175V240.51Z" fill="white"/>
<path d="M452.507 240.51H458.662V232.062H452.507V240.51Z" fill="white"/>
<path d="M441.83 240.51H447.984V232.062H441.83V240.51Z" fill="white"/>
<path d="M463.175 253.218H469.329V244.77H463.175V253.218Z" fill="white"/>
<path d="M452.507 253.218H458.662V244.77H452.507V253.218Z" fill="white"/>
<path d="M441.83 253.218H447.984V244.77H441.83V253.218Z" fill="white"/>
<path d="M463.175 265.926H469.329V257.478H463.175V265.926Z" fill="white"/>
<path d="M452.507 265.926H458.662V257.478H452.507V265.926Z" fill="white"/>
<path d="M441.83 265.926H447.984V257.478H441.83V265.926Z" fill="white"/>
<path d="M463.175 278.645H469.329V270.197H463.175V278.645Z" fill="white"/>
<path d="M452.507 278.645H458.662V270.197H452.507V278.645Z" fill="white"/>
<path d="M441.83 278.645H447.984V270.197H441.83V278.645Z" fill="white"/>
<path d="M250.071 253.859H256.225V246.811H250.071V253.859V253.859Z" fill="white"/>
<path d="M239.404 253.859H245.558V246.811H239.404V253.859V253.859Z" fill="white"/>
<path d="M228.726 253.859H234.88V246.811H228.726V253.859V253.859Z" fill="white"/>
<path d="M250.071 264.453H256.225V257.405H250.071V264.453V264.453Z" fill="white"/>
<path d="M239.404 264.453H245.558V257.405H239.404V264.453V264.453Z" fill="white"/>
<path d="M228.726 264.453H234.88V257.405H228.726V264.453V264.453Z" fill="white"/>
<path d="M250.071 275.057H256.225V268.009H250.071V275.057V275.057Z" fill="white"/>
<path d="M239.404 275.057H245.558V268.009H239.404V275.057V275.057Z" fill="white"/>
<path d="M228.726 275.057H234.88V268.009H228.726V275.057V275.057Z" fill="white"/>
<path d="M250.071 285.661H256.225V278.613H250.071V285.661V285.661Z" fill="white"/>
<path d="M239.404 285.661H245.558V278.613H239.404V285.661V285.661Z" fill="white"/>
<path d="M228.726 285.661H234.88V278.613H228.726V285.661V285.661Z" fill="white"/>
<path d="M250.071 296.529H256.225V289.48H250.071V296.529V296.529Z" fill="white"/>
<path d="M239.404 296.529H245.558V289.48H239.404V296.529V296.529Z" fill="white"/>
<path d="M228.726 296.529H234.88V289.48H228.726V296.529V296.529Z" fill="white"/>
<path d="M250.071 307.396H256.225V300.347H250.071V307.396V307.396Z" fill="white"/>
<path d="M239.404 307.396H245.558V300.347H239.404V307.396V307.396Z" fill="white"/>
<path d="M228.726 307.396H234.88V300.347H228.726V307.396V307.396Z" fill="white"/>
<path d="M250.071 318.252H256.225V311.204H250.071V318.252V318.252Z" fill="white"/>
<path d="M239.404 318.252H245.558V311.204H239.404V318.252V318.252Z" fill="white"/>
<path d="M228.726 318.252H234.88V311.204H228.726V318.252V318.252Z" fill="white"/>
<path d="M250.071 329.12H256.225V322.071H250.071V329.12V329.12Z" fill="white"/>
<path d="M239.404 329.12H245.558V322.071H239.404V329.12V329.12Z" fill="white"/>
<path d="M228.726 329.12H234.88V322.071H228.726V329.12V329.12Z" fill="white"/>
<path d="M387.357 256.374H422.788V251.093H387.357V256.374Z" fill="white"/>
<path d="M387.357 266.631H422.788V261.35H387.357V266.631Z" fill="white"/>
<path d="M387.357 276.877H422.788V271.596H387.357V276.877Z" fill="white"/>
<path d="M387.357 287.124H422.788V281.843H387.357V287.124Z" fill="white"/>
<path d="M387.357 297.381H422.788V292.1H387.357V297.381Z" fill="white"/>
<path d="M387.357 307.627H422.788V302.346H387.357V307.627Z" fill="white"/>
<path d="M387.357 317.884H422.788V312.603H387.357V317.884Z" fill="white"/>
<path d="M387.357 328.12H422.788V322.839H387.357V328.12Z" fill="white"/>
<path d="M132.237 247.379H164.817V242.098H132.237V247.379V247.379Z" fill="white"/>
<path d="M132.237 257.636H164.817V252.355H132.237V257.636V257.636Z" fill="white"/>
<path d="M132.237 267.893H164.817V262.612H132.237V267.893V267.893Z" fill="white"/>
<path d="M132.237 278.14H164.817V272.859H132.237V278.14V278.14Z" fill="white"/>
<path d="M132.237 288.386H164.817V283.105H132.237V288.386V288.386Z" fill="white"/>
<path d="M132.237 298.643H164.817V293.362H132.237V298.643V298.643Z" fill="white"/>
<path d="M132.237 308.89H164.817V303.609H132.237V308.89V308.89Z" fill="white"/>
<path d="M132.237 319.147H164.817V313.866H132.237V319.147V319.147Z" fill="white"/>
<path d="M132.237 328.878H164.817V323.597H132.237V328.878V328.878Z" fill="white"/>
<path d="M132.237 338.619H164.817V333.338H132.237V338.619V338.619Z" fill="white"/>
<path d="M132.237 348.361H164.817V343.08H132.237V348.361V348.361Z" fill="white"/>
<path d="M132.237 358.092H164.817V352.811H132.237V358.092V358.092Z" fill="white"/>
<path d="M132.237 367.833H164.817V362.552H132.237V367.833V367.833Z" fill="white"/>
<path d="M79.574 259.761H113.985V254.48H79.575V259.761H79.574Z" fill="white"/>
<path d="M79.574 270.018H113.985V264.737H79.575V270.018H79.574Z" fill="white"/>
<path d="M79.574 280.275H113.985V274.994H79.575V280.275H79.574Z" fill="white"/>
<path d="M79.574 290.522H113.985V285.241H79.575V290.522H79.574Z" fill="white"/>
<path d="M79.574 300.768H113.985V295.487H79.575V300.768H79.574Z" fill="white"/>
<path d="M79.574 311.025H113.985V305.744H79.575V311.025H79.574Z" fill="white"/>
<path d="M79.574 321.272H113.985V315.991H79.575V321.272H79.574Z" fill="white"/>
<path d="M79.574 331.529H113.985V326.248H79.575V331.529H79.574Z" fill="white"/>
<path d="M79.574 340.702H113.985V335.421H79.575V340.702H79.574Z" fill="white"/>
<path d="M79.574 349.876H113.985V344.595H79.575V349.876H79.574Z" fill="white"/>
<path d="M79.574 359.049H113.985V353.768H79.575V359.049H79.574Z" fill="white"/>
<path d="M286.965 239.51H297.906V234.408H286.965V239.51Z" fill="white"/>
<path d="M286.965 249.41H297.906V244.307H286.965V249.41Z" fill="white"/>
<path d="M286.965 259.309H297.906V254.207H286.965V259.309Z" fill="white"/>
<path d="M286.965 269.208H297.906V264.106H286.965V269.208Z" fill="white"/>
<path d="M286.965 279.108H297.906V274.005H286.965V279.108Z" fill="white"/>
<path d="M286.965 289.007H297.906V283.905H286.965V289.007Z" fill="white"/>
<path d="M286.965 298.906H297.906V293.804H286.965V298.906Z" fill="white"/>
<path d="M286.965 308.806H297.906V303.703H286.965V308.806Z" fill="white"/>
<path d="M272.079 239.51H283.02V234.408H272.079V239.51Z" fill="white"/>
<path d="M272.079 249.41H283.02V244.307H272.079V249.41Z" fill="white"/>
<path d="M272.079 259.309H283.02V254.207H272.079V259.309Z" fill="white"/>
<path d="M272.079 269.208H283.02V264.106H272.079V269.208Z" fill="white"/>
<path d="M272.079 279.108H283.02V274.005H272.079V279.108Z" fill="white"/>
<path d="M272.079 289.007H283.02V283.905H272.079V289.007Z" fill="white"/>
<path d="M272.079 298.906H283.02V293.804H272.079V298.906Z" fill="white"/>
<path d="M272.079 308.806H283.02V303.703H272.079V308.806Z" fill="white"/>
<path d="M358.154 205.73H369.557V197.683H358.154V205.73Z" fill="white"/>
<path d="M341.164 205.73H352.567V197.683H341.164V205.73Z" fill="white"/>
<path d="M358.154 217.545H369.557V209.497H358.154V217.545Z" fill="white"/>
<path d="M341.164 217.545H352.567V209.497H341.164V217.545Z" fill="white"/>
<path d="M358.154 229.369H369.557V221.321H358.154V229.369Z" fill="white"/>
<path d="M341.164 229.369H352.567V221.321H341.164V229.369Z" fill="white"/>
<path d="M358.154 241.183H369.557V233.135H358.154V241.183Z" fill="white"/>
<path d="M341.164 241.183H352.567V233.135H341.164V241.183Z" fill="white"/>
<path d="M358.154 253.007H369.557V244.96H358.154V253.007Z" fill="white"/>
<path d="M341.164 253.007H352.567V244.96H341.164V253.007Z" fill="white"/>
<path d="M358.154 264.832H369.557V256.784H358.154V264.832Z" fill="white"/>
<path d="M341.164 264.832H352.567V256.784H341.164V264.832Z" fill="white"/>
<path d="M358.154 276.646H369.557V268.598H358.154V276.646Z" fill="white"/>
<path d="M341.164 276.646H352.567V268.598H341.164V276.646Z" fill="white"/>
<path d="M358.154 288.47H369.557V280.423H358.154V288.47Z" fill="white"/>
<path d="M341.164 288.47H352.567V280.423H341.164V288.47Z" fill="white"/>
<path d="M320.092 229.369H331.496V221.321H320.092V229.369Z" fill="white"/>
<path d="M320.092 241.183H331.496V233.135H320.092V241.183Z" fill="white"/>
<path d="M320.092 253.007H331.496V244.96H320.092V253.007Z" fill="white"/>
<path d="M320.092 264.832H331.496V256.784H320.092V264.832Z" fill="white"/>
<path d="M320.092 276.646H331.496V268.598H320.092V276.646Z" fill="white"/>
<path d="M320.092 288.47H331.496V280.423H320.092V288.47ZM358.154 300.148H369.557V292.1H358.154V300.148ZM341.164 300.148H352.567V292.1H341.164V300.148ZM320.092 300.148H331.496V292.1H320.092V300.148Z" fill="white"/>
<path d="M358.154 311.814H369.557V303.766H358.154V311.814Z" fill="white"/>
<path d="M341.164 311.814H352.567V303.766H341.164V311.814Z" fill="white"/>
<path d="M320.092 311.814H331.496V303.766H320.092V311.814Z" fill="white"/>
<path d="M358.154 323.491H369.557V315.444H358.154V323.491Z" fill="white"/>
<path d="M341.164 323.491H352.567V315.444H341.164V323.491Z" fill="white"/>
<path d="M320.092 323.491H331.496V315.444H320.092V323.491Z" fill="white"/>
<path d="M358.154 335.169H369.557V327.121H358.154V335.169Z" fill="white"/>
<path d="M341.164 335.169H352.567V327.121H341.164V335.169Z" fill="white"/>
<path d="M320.092 335.169H331.496V327.121H320.092V335.169Z" fill="white"/>
<path d="M358.154 346.846H369.557V338.798H358.154V346.846Z" fill="white"/>
<path d="M341.164 346.846H352.567V338.798H341.164V346.846Z" fill="white"/>
<path d="M320.092 346.846H331.496V338.798H320.092V346.846Z" fill="white"/>
<path d="M217.133 216.208H223.287V209.16H217.133V216.208V216.208Z" fill="white"/>
<path d="M206.466 216.208H212.62V209.16H206.466V216.208V216.208Z" fill="white"/>
<path d="M217.133 226.813H223.287V219.764H217.133V226.813V226.813Z" fill="white"/>
<path d="M206.466 226.813H212.62V219.764H206.466V226.813V226.813Z" fill="white"/>
<path d="M217.133 237.417H223.287V230.368H217.133V237.417V237.417Z" fill="white"/>
<path d="M206.466 237.417H212.62V230.368H206.466V237.417V237.417Z" fill="white"/>
<path d="M217.133 248.031H223.287V240.983H217.133V248.031V248.031Z" fill="white"/>
<path d="M206.466 248.031H212.62V240.983H206.466V248.031V248.031Z" fill="white"/>
<path d="M217.133 258.899H223.287V251.85H217.133V258.899V258.899Z" fill="white"/>
<path d="M206.466 258.899H212.62V251.85H206.466V258.899V258.899Z" fill="white"/>
<path d="M217.133 269.755H223.287V262.707H217.133V269.755V269.755Z" fill="white"/>
<path d="M206.466 269.755H212.62V262.707H206.466V269.755V269.755Z" fill="white"/>
<path d="M217.133 280.622H223.287V273.574H217.133V280.622V280.622Z" fill="white"/>
<path d="M206.466 280.622H212.62V273.574H206.466V280.622V280.622Z" fill="white"/>
<path d="M217.133 291.49H223.287V284.441H217.133V291.49V291.49Z" fill="white"/>
<path d="M206.466 291.49H212.62V284.441H206.466V291.49V291.49Z" fill="white"/>
<path d="M217.133 302.472H223.287V295.424H217.133V302.472V302.472Z" fill="white"/>
<path d="M206.466 302.472H212.62V295.424H206.466V302.472V302.472Z" fill="white"/>
<path d="M217.133 313.445H223.287V306.396H217.133V313.445V313.445Z" fill="white"/>
<path d="M206.466 313.445H212.62V306.396H206.466V313.445V313.445Z" fill="white"/>
<path d="M217.133 324.428H223.287V317.379H217.133V324.428V324.428Z" fill="white"/>
<path d="M206.466 324.428H212.62V317.379H206.466V324.428V324.428Z" fill="white"/>
<path d="M217.133 335.421H223.287V328.373H217.133V335.421V335.421Z" fill="white"/>
<path d="M206.466 335.421H212.62V328.373H206.466V335.421V335.421Z" fill="white"/>
<path d="M66.813 218.607H72.967V210.307H66.813V218.607Z" fill="white"/>
<path d="M56.156 218.607H62.31V210.307H56.156V218.607Z" fill="white"/>
<path d="M66.813 231.105H72.967V222.804H66.813V231.105Z" fill="white"/>
<path d="M56.156 231.105H62.31V222.804H56.156V231.105Z" fill="white"/>
<path d="M66.813 243.592H72.967V235.292H66.813V243.592Z" fill="white"/>
<path d="M56.156 243.592H62.31V235.292H56.156V243.592Z" fill="white"/>
<path d="M66.813 256.09H72.967V247.79H66.813V256.09Z" fill="white"/>
<path d="M56.156 256.09H62.31V247.79H56.156V256.09Z" fill="white"/>
<path d="M66.813 268.893H72.967V260.592H66.813V268.893Z" fill="white"/>
<path d="M56.156 268.893H62.31V260.592H56.156V268.893Z" fill="white"/>
<path d="M66.813 281.695H72.967V273.395H66.813V281.695Z" fill="white"/>
<path d="M56.156 281.695H62.31V273.395H56.156V281.695Z" fill="white"/>
<path d="M66.813 294.488H72.967V286.188H66.813V294.488Z" fill="white"/>
<path d="M56.156 294.488H62.31V286.188H56.156V294.488Z" fill="white"/>
<path d="M66.813 307.301H72.967V299.001H66.813V307.301Z" fill="white"/>
<path d="M56.156 307.301H62.31V299.001H56.156V307.301Z" fill="white"/>
<path d="M66.813 320.241H72.967V311.94H66.813V320.241Z" fill="white"/>
<path d="M56.156 320.241H62.31V311.94H56.156V320.241Z" fill="white"/>
<path d="M66.813 333.17H72.967V324.87H66.813V333.17Z" fill="white"/>
<path d="M56.156 333.17H62.31V324.87H56.156V333.17Z" fill="white"/>
<path d="M66.813 346.109H72.967V337.809H66.813V346.109Z" fill="white"/>
<path d="M56.156 346.109H62.31V337.809H56.156V346.109Z" fill="white"/>
<path d="M66.813 359.049H72.967V350.749H66.813V359.049Z" fill="white"/>
<path d="M56.156 359.049H62.31V350.749H56.156V359.049Z" fill="white"/>
<path d="M194.305 216.208H200.459V209.16H194.305V216.208V216.208Z" fill="white"/>
<path d="M183.637 216.208H189.791V209.16H183.637V216.208V216.208Z" fill="white"/>
<path d="M194.305 205.341H200.459V198.293H194.305V205.341V205.341Z" fill="white"/>
<path d="M183.637 205.341H189.791V198.293H183.637V205.341V205.341Z" fill="white"/>
<path d="M194.305 194.474H200.459V187.426H194.305V194.474V194.474Z" fill="white"/>
<path d="M183.637 194.474H189.791V187.426H183.637V194.474V194.474Z" fill="white"/>
<path d="M194.305 226.813H200.459V219.764H194.305V226.813V226.813Z" fill="white"/>
<path d="M183.637 226.813H189.791V219.764H183.637V226.813V226.813Z" fill="white"/>
<path d="M194.305 237.417H200.459V230.368H194.305V237.417V237.417Z" fill="white"/>
<path d="M183.637 237.417H189.791V230.368H183.637V237.417V237.417Z" fill="white"/>
<path d="M194.305 248.031H200.459V240.983H194.305V248.031V248.031Z" fill="white"/>
<path d="M183.637 248.031H189.791V240.983H183.637V248.031V248.031Z" fill="white"/>
<path d="M194.305 258.899H200.459V251.85H194.305V258.899V258.899Z" fill="white"/>
<path d="M183.637 258.899H189.791V251.85H183.637V258.899V258.899Z" fill="white"/>
<path d="M194.305 269.755H200.459V262.707H194.305V269.755V269.755Z" fill="white"/>
<path d="M183.637 269.755H189.791V262.707H183.637V269.755V269.755Z" fill="white"/>
<path d="M194.305 280.622H200.459V273.574H194.305V280.622V280.622Z" fill="white"/>
<path d="M183.637 280.622H189.791V273.574H183.637V280.622V280.622Z" fill="white"/>
<path d="M194.305 291.49H200.459V284.441H194.305V291.49V291.49Z" fill="white"/>
<path d="M183.637 291.49H189.791V284.441H183.637V291.49V291.49Z" fill="white"/>
<path d="M194.305 302.472H200.459V295.424H194.305V302.472V302.472Z" fill="white"/>
<path d="M183.637 302.472H189.791V295.424H183.637V302.472V302.472Z" fill="white"/>
<path d="M194.305 313.445H200.459V306.396H194.305V313.445V313.445Z" fill="white"/>
<path d="M183.637 313.445H189.791V306.396H183.637V313.445V313.445Z" fill="white"/>
<path d="M194.305 324.428H200.459V317.379H194.305V324.428V324.428Z" fill="white"/>
<path d="M183.637 324.428H189.791V317.379H183.637V324.428V324.428Z" fill="white"/>
<path d="M194.305 335.421H200.459V328.373H194.305V335.421V335.421Z" fill="white"/>
<path d="M183.637 335.421H189.791V328.373H183.637V335.421V335.421Z" fill="white"/>
<path d="M469.308 167.89H356.039C356.039 167.89 367.274 137.214 384.559 137.214C401.844 137.214 407.25 158.391 407.25 158.391C407.25 158.391 418.917 146.882 428.501 146.882C438.085 146.882 446.385 162.083 446.385 162.083C446.385 162.083 459.945 153.909 469.308 167.89ZM405.914 107.221H352.978C352.978 107.221 364.802 90.084 374.123 90.084C383.444 90.084 386.2 101.509 386.2 101.509C386.2 101.509 392.775 96.175 398.824 97.133C404.873 98.091 405.914 107.221 405.914 107.221ZM159.799 158.759H56.703C56.703 158.759 70.821 127.199 85.928 125.263C101.035 123.327 108.252 148.681 108.252 148.681C108.252 148.681 117.993 139.707 125.652 139.707C133.311 139.707 139.233 151.531 139.233 151.531C139.233 151.531 154.54 143.431 159.8 158.759H159.799ZM257.793 80.732H188.14C188.14 80.732 200.101 57.893 213.083 57.588C226.065 57.283 232.881 74.872 232.881 74.872C232.881 74.872 253.069 58.64 257.793 80.732ZM305.354 451.331C400.081 451.331 476.872 446.249 476.872 439.979C476.872 433.709 400.081 428.628 305.354 428.628C210.627 428.628 133.836 433.71 133.836 439.979C133.836 446.248 210.627 451.331 305.354 451.331Z" fill="#EFECF3"/>
<path d="M509.526 396.658L447.889 396.911L386.263 397.005L263 397.174L139.737 397.005L78.111 396.911L16.474 396.658L78.111 396.395L139.737 396.3L263 396.132L386.263 396.3L447.889 396.395L509.526 396.658Z" fill="#1F1B2D"/>
<path d="M255.311 233.945C273.11 252.461 326.583 334.864 330.749 337.325C330.749 337.325 330.749 391.219 300.967 380.457C271.185 369.695 243.886 273.006 238.058 242.182C234.986 225.908 240.772 218.839 255.311 233.945Z" fill="#E3A59D"/>
<path d="M250.776 297.654L305.354 291.448C305.354 291.448 271.501 246.538 254.006 230.505C235.764 213.799 226.822 216.145 235.28 247.79C243.781 279.623 250.776 297.654 250.776 297.654Z" fill="#A237EE"/>
<path d="M248.21 267.925C247.61 269.431 247.227 271.014 247.073 272.627C248.977 269.996 250.163 266.914 250.513 263.685C249.54 264.977 248.763 266.405 248.21 267.925ZM278.865 269.156C277.363 268.555 275.783 268.172 274.173 268.02C276.799 269.926 279.878 271.112 283.104 271.46C281.814 270.484 280.385 269.707 278.865 269.156ZM270.733 290.385C270.091 288.901 269.241 287.516 268.208 286.272C268.45 287.869 268.917 289.424 269.597 290.89C270.218 292.383 271.062 293.773 272.1 295.014C271.865 293.414 271.404 291.856 270.733 290.385ZM238.71 222.005L237.847 220.29C237.473 220.254 237.096 220.254 236.722 220.29L237.574 222.531C238.206 224.021 239.053 225.411 240.088 226.655C239.851 225.048 239.387 223.482 238.71 222.005ZM301.609 286.535L300.557 286.956C299.068 287.596 297.676 288.442 296.423 289.47C298.027 289.232 299.588 288.768 301.062 288.092L302.303 287.482L301.609 286.535ZM259.529 243.182C258.044 243.819 256.656 244.662 255.405 245.686C257.009 245.455 258.572 244.995 260.045 244.318C261.531 243.68 262.92 242.833 264.168 241.804C262.556 242.035 260.987 242.499 259.508 243.182H259.529ZM255.868 243.276L255.689 243.413H255.879C255.879 243.413 255.847 243.308 255.847 243.276H255.868Z" fill="white"/>
<path d="M253.396 287.839C254.669 287.545 256.005 287.429 257.299 287.25L261.317 286.693L269.449 285.641L285.745 283.81L290.237 283.4L294.971 283.168C295.066 283.168 295.066 283.305 294.971 283.316L290.973 284.031C290.973 284.031 288.217 284.431 286.839 284.599L278.696 285.567L262.632 287.229L258.151 287.608L253.417 287.965C253.405 287.961 253.394 287.953 253.386 287.943C253.378 287.933 253.372 287.921 253.37 287.908C253.368 287.895 253.369 287.883 253.373 287.87C253.377 287.857 253.386 287.847 253.396 287.839Z" fill="#1F1B2D"/>
<path opacity="0.1" d="M277.255 294.646L250.787 297.654C250.787 297.654 243.791 279.623 235.28 247.79C231.693 234.366 231.241 226.213 233.303 222.542L277.255 294.646Z" fill="#1F1B2D"/>
<path d="M265.915 409.903H182.901L180.892 402.013L178.672 393.302L178.188 391.419L176.579 385.107L175.643 381.404L174.706 377.754L174.464 376.817L174.212 375.765L173.896 374.535L173.57 373.262L172.97 370.905L172.118 367.57L171.761 366.161L171.193 363.941L170.835 362.521L169.467 357.156L169.131 355.862L168.605 353.758L168.289 352.527L167.3 348.645L167.069 347.761L166.553 345.731L166.374 345.047L166.206 344.384C166.206 344.237 166.132 344.09 166.101 343.963L165.954 343.395C165.955 343.307 165.933 343.22 165.891 343.143L165.701 342.396H246.505L253.427 366.361L256.226 376.07L265.915 409.903Z" fill="#454056"/>
<path d="M196.493 409.903H194.389L185.458 371.684L183.354 362.363L183.164 361.49C183.161 361.46 183.168 361.429 183.185 361.404C183.202 361.379 183.228 361.361 183.258 361.353C183.288 361.345 183.319 361.349 183.346 361.362C183.373 361.375 183.395 361.399 183.406 361.427C183.406 361.521 183.459 361.616 183.49 361.711L186.278 371.736L196.493 409.903Z" fill="#1F1B2D"/>
<path d="M243.886 342.406L240.32 360.29L237.395 374.934L232.419 399.888L231.904 402.444L231.051 406.705L230.389 409.903H182.891L180.892 402.013L178.672 393.302L178.188 391.419L176.579 385.107L175.643 381.404L174.706 377.754L174.464 376.817L174.212 375.765L173.896 374.535L173.57 373.262L172.97 370.905L172.118 367.57L171.761 366.161L171.193 363.941L170.835 362.521L169.467 357.156L169.131 355.862L168.605 353.758L168.289 352.527L167.3 348.645L167.069 347.761L166.553 345.731L166.374 345.047L166.206 344.384C166.206 344.237 166.132 344.09 166.101 343.963L165.954 343.395C165.955 343.307 165.933 343.22 165.891 343.143L165.701 342.396L243.886 342.406Z" fill="#1F1B2D"/>
<path d="M243.896 342.375C243.896 342.817 243.56 347.635 242.781 354.999L241.992 362.026C241.519 366.013 240.94 370.442 240.204 375.061C238.962 383.172 237.342 392.019 235.238 400.666C234.501 403.758 233.687 406.831 232.798 409.882H128.492L131.743 368.275L133.847 342.343H228.463L243.896 342.375Z" fill="#454056"/>
<path d="M243.675 351.959L243.16 363.131C242.907 367.16 242.539 371.179 242.013 375.197C242.013 375.345 242.013 375.492 241.961 375.639C241.47 379.405 240.905 383.162 240.267 386.906C239.667 390.399 239.215 394.165 237.679 397.426C237.095 398.677 236.265 399.797 235.238 400.719C234.299 401.579 233.148 402.174 231.903 402.444C231.7 402.495 231.492 402.531 231.283 402.549H231.104C231.142 402.571 231.174 402.604 231.194 402.643C231.214 402.682 231.224 402.726 231.22 402.77C231.22 404.022 231.22 405.295 231.072 406.536V406.694C230.946 407.746 230.746 408.851 230.546 409.924H228.758V409.861C229.074 408.682 229.337 407.494 229.631 406.305C229.925 405.116 230.347 403.906 230.631 402.676C230.646 402.629 230.676 402.589 230.715 402.56C229.58 402.614 228.455 402.319 227.492 401.716C226.529 401.112 225.774 400.228 225.328 399.183C224.88 397.583 224.851 395.895 225.244 394.281L226.212 387.874C226.822 383.95 227.611 380.068 228.316 376.165L228.632 374.387C230.031 366.445 231.493 358.502 233.25 350.633C233.313 350.307 233.387 349.981 233.46 349.655C233.533 349.329 233.86 349.497 233.839 349.707L233.671 351.296L232.619 360.322C232.114 363.846 231.767 367.391 231.272 370.916L230.757 374.514L228.116 391.882C227.653 394.565 226.012 399.372 229.842 400.203C230.726 400.399 231.652 400.284 232.461 399.877C234.166 398.85 235.441 397.239 236.048 395.343C236.996 392.186 237.682 388.956 238.1 385.686C238.734 382.16 239.295 378.621 239.783 375.071L241.761 361.805L242.813 355.052L243.318 351.896C243.328 351.675 243.675 351.738 243.675 351.959ZM151.373 379.689C155.717 379.644 160.039 379.061 164.239 377.953L169.993 376.218C171.88 375.697 173.646 374.811 175.19 373.609C178.115 371.084 179.472 367.118 180.745 363.583C182.127 359.603 183.248 355.538 184.101 351.412C184.101 351.212 184.437 351.285 184.448 351.475C184.549 356.14 183.957 360.795 182.691 365.287C181.639 369.106 180.229 373.356 177.147 376.028C174.065 378.7 169.509 379.837 165.354 380.342C160.695 380.884 155.984 380.82 151.341 380.152C151.311 380.15 151.281 380.142 151.254 380.128C151.226 380.115 151.202 380.096 151.182 380.073C151.142 380.027 151.122 379.966 151.126 379.905C151.13 379.844 151.158 379.786 151.205 379.746C151.228 379.726 151.254 379.71 151.283 379.701C151.312 379.691 151.343 379.687 151.373 379.689ZM144.125 351.538L143.388 369.064L141.421 409.903H139.464L142.294 369.001L143.62 351.527C143.621 351.46 143.649 351.397 143.697 351.35C143.721 351.327 143.749 351.309 143.78 351.297C143.811 351.285 143.844 351.279 143.877 351.28C143.944 351.281 144.008 351.309 144.054 351.358C144.1 351.407 144.126 351.471 144.125 351.538Z" fill="#1F1B2D"/>
<path d="M261.854 385.581L120.349 374.85C120.349 374.85 148.816 262.023 205.025 220.543C219.395 209.949 235.123 216.745 242.203 224.667C260.192 244.844 262.275 385.128 261.854 385.581Z" fill="#A237EE"/>
<path d="M211.568 225.677C210.975 227.181 210.592 228.76 210.432 230.369C211.401 229.084 212.18 227.667 212.747 226.161C213.34 224.657 213.723 223.078 213.883 221.469C212.918 222.756 212.139 224.173 211.568 225.677ZM196.209 286.545C195.604 288.049 195.225 289.633 195.083 291.248C196.979 288.613 198.16 285.532 198.513 282.306C197.547 283.602 196.771 285.029 196.209 286.545ZM145.65 312.645C145.051 314.151 144.669 315.735 144.514 317.348C146.418 314.717 147.603 311.635 147.954 308.406C146.996 309.707 146.221 311.134 145.65 312.645ZM186.457 351.096C185.846 352.595 185.463 354.176 185.321 355.788C187.216 353.153 188.397 350.072 188.75 346.846C187.785 348.145 187.013 349.577 186.457 351.096ZM248.209 267.904C247.61 269.41 247.227 270.993 247.073 272.606C248.977 269.975 250.163 266.893 250.513 263.664C249.538 264.962 248.761 266.398 248.209 267.925V267.904ZM223.025 344.437C222.413 345.936 222.026 347.517 221.878 349.129C222.845 347.845 223.621 346.427 224.182 344.921C224.78 343.418 225.163 341.839 225.318 340.229C224.354 341.513 223.582 342.931 223.025 344.437ZM172.034 265.042C171.434 266.544 171.052 268.124 170.898 269.734C172.805 267.105 173.988 264.022 174.328 260.792C173.359 262.089 172.586 263.521 172.034 265.042ZM228.569 244.844C227.069 244.238 225.488 243.855 223.877 243.708C225.163 244.669 226.58 245.441 228.085 246.001C229.588 246.61 231.172 246.992 232.787 247.137C231.499 246.173 230.078 245.401 228.569 244.844ZM244.601 295.561C243.1 294.957 241.52 294.575 239.909 294.425C241.192 295.39 242.61 296.163 244.117 296.718C245.617 297.325 247.198 297.711 248.809 297.865C247.524 296.91 246.106 296.148 244.601 295.603V295.561ZM248.904 356.177C247.402 355.577 245.822 355.195 244.212 355.041C245.495 356.01 246.913 356.786 248.42 357.345C249.923 357.942 251.502 358.325 253.112 358.481C251.822 357.534 250.405 356.773 248.904 356.219V356.177ZM148.175 351.191C146.673 350.59 145.093 350.207 143.483 350.055C146.109 351.961 149.188 353.147 152.414 353.495C151.117 352.542 149.689 351.78 148.175 351.233V351.191ZM184.585 312.267C183.083 311.664 181.503 311.277 179.893 311.12C181.178 312.088 182.595 312.867 184.101 313.434C185.605 314.028 187.184 314.41 188.793 314.571C187.505 313.617 186.088 312.852 184.585 312.298V312.267ZM238.71 221.974L238.258 221.048L236.627 219.912C236.887 220.793 237.204 221.658 237.574 222.5C238.206 223.99 239.053 225.379 240.088 226.623C239.848 225.027 239.384 223.472 238.71 222.005V221.974ZM197.356 254.691C196.721 253.202 195.875 251.813 194.842 250.567C195.347 253.776 196.69 256.795 198.734 259.32C198.502 257.718 198.038 256.159 197.356 254.691ZM233.871 379.174C233.236 377.687 232.393 376.299 231.367 375.05C231.6 376.65 232.06 378.209 232.735 379.679C233.334 381.062 234.108 382.363 235.038 383.55H235.207C234.964 382.037 234.515 380.565 233.871 379.174ZM220.437 305.86C219.797 304.374 218.95 302.986 217.922 301.736C218.445 304.938 219.782 307.952 221.804 310.489C221.571 308.889 221.111 307.33 220.437 305.86ZM124.052 361.763L123.853 362.416L124.242 362.868C124.2 362.507 124.136 362.149 124.052 361.795V361.763ZM166.132 333.696C165.494 332.212 164.647 330.827 163.618 329.583C164.127 332.788 165.469 335.803 167.511 338.325C167.26 336.734 166.785 335.186 166.101 333.727L166.132 333.696ZM175.159 374.198C174.52 372.711 173.674 371.323 172.644 370.074C173.165 373.282 174.506 376.3 176.537 378.837C176.289 377.245 175.815 375.697 175.127 374.24L175.159 374.198ZM245.927 325.469C244.441 326.11 243.053 326.956 241.803 327.984C243.404 327.747 244.963 327.283 246.432 326.605C247.924 325.971 249.316 325.124 250.566 324.091C248.949 324.332 247.375 324.807 245.895 325.501L245.927 325.469ZM134.309 331.613L133.773 333.065C134.907 332.517 135.968 331.828 136.929 331.013C136.026 331.131 135.137 331.343 134.278 331.645L134.309 331.613ZM206.456 366.666C204.969 367.299 203.58 368.142 202.332 369.169C203.935 368.935 205.497 368.475 206.971 367.802C208.457 367.157 209.845 366.307 211.095 365.277C209.476 365.515 207.902 365.994 206.424 366.697L206.456 366.666ZM141.936 376.049L141.211 376.397L143.683 376.586C144.716 376.064 145.684 375.422 146.565 374.671C144.953 374.918 143.384 375.393 141.905 376.081L141.936 376.049ZM166.722 289.543C165.24 290.191 163.852 291.037 162.598 292.058C165.804 291.54 168.823 290.203 171.361 288.176C169.744 288.413 168.171 288.884 166.69 289.575L166.722 289.543ZM202.995 329.835C201.507 330.477 200.119 331.327 198.871 332.36C202.08 331.845 205.1 330.503 207.634 328.467C206.018 328.709 204.445 329.18 202.963 329.867L202.995 329.835ZM221.931 274.447C220.447 275.092 219.059 275.938 217.807 276.962C221.013 276.453 224.03 275.115 226.559 273.08C224.936 273.318 223.356 273.789 221.867 274.479L221.931 274.447Z" fill="white"/>
<path d="M234.186 248.242C226.023 247.032 217.733 230.558 216.302 219.323C216.208 218.544 228.926 194.274 230.915 189.214C231.325 188.162 259.687 209.581 259.687 209.581C259.687 209.581 252.323 218.965 248.883 227.833C248.641 228.57 242.076 249.399 234.186 248.242Z" fill="#E3A59D"/>
<path opacity="0.4" d="M259.729 209.581C259.729 209.581 252.365 218.965 248.914 227.823L247.736 231.168C233.155 223.804 227.212 210.654 224.813 201.975L230.957 189.214C231.367 188.173 259.729 209.581 259.729 209.581Z" fill="#1F1B2D"/>
<path d="M237.469 149.796C229.168 159.401 220.868 194.043 225.613 204.689C232.503 220.111 250.861 229.38 265.715 219.522C280.159 209.96 290.174 164.618 284.209 154.225C275.435 138.908 249.714 135.615 237.469 149.796Z" fill="#E3A59D"/>
<path d="M259.645 177.937C258.593 178.021 257.541 177.937 256.489 177.937C255.372 178.089 254.236 177.867 253.259 177.306C252.986 177.069 252.8 176.749 252.727 176.395C252.655 176.041 252.701 175.674 252.859 175.349C253.27 174.756 253.832 174.283 254.487 173.98C255.141 173.676 255.865 173.553 256.583 173.624C258.059 173.537 259.514 174.002 260.665 174.928C260.909 175.158 261.081 175.452 261.162 175.777C261.243 176.102 261.229 176.443 261.122 176.76C261.014 177.077 260.818 177.357 260.556 177.565C260.294 177.773 259.978 177.903 259.645 177.937ZM258.719 183.018C258.719 182.923 258.509 183.092 258.488 183.197C258.098 185.564 257.246 188.215 254.963 188.573C254.89 188.573 254.869 188.699 254.963 188.709C257.625 188.857 258.719 185.332 258.719 183.018Z" fill="#1F1B2D"/>
<path d="M257.099 180.136C253.364 179.084 251.555 186.647 254.995 187.605C258.435 188.563 260.223 181.009 257.099 180.136ZM272.29 185.932C272.29 185.848 272.448 186.09 272.426 186.185C271.795 188.499 271.459 191.266 273.384 192.497C273.447 192.497 273.384 192.654 273.331 192.623C270.838 191.697 271.322 188.036 272.29 185.932Z" fill="#1F1B2D"/>
<path d="M274.962 183.996C278.791 184.607 277.287 192.212 273.742 191.644C270.197 191.076 271.753 183.481 274.962 183.996ZM278.844 180.251C277.877 179.802 276.936 179.3 276.024 178.747C274.955 178.352 274.048 177.611 273.447 176.643C273.315 176.304 273.3 175.932 273.402 175.583C273.505 175.235 273.721 174.931 274.015 174.718C275.309 173.876 276.803 174.265 278.128 174.918C279.48 175.533 280.556 176.627 281.148 177.989C281.272 178.31 281.3 178.659 281.228 178.995C281.155 179.331 280.986 179.638 280.741 179.879C280.496 180.12 280.185 180.283 279.848 180.35C279.511 180.416 279.162 180.381 278.844 180.251ZM250.892 203.269C251.313 203.953 251.692 204.836 252.523 205.11C253.4 205.299 254.307 205.299 255.184 205.11C255.202 205.108 255.22 205.112 255.235 205.121C255.25 205.13 255.262 205.144 255.269 205.161C255.276 205.178 255.278 205.195 255.274 205.213C255.27 205.231 255.261 205.246 255.247 205.257C254.805 205.636 254.268 205.887 253.694 205.985C253.12 206.084 252.529 206.025 251.986 205.815C251.538 205.579 251.171 205.214 250.931 204.768C250.691 204.322 250.59 203.815 250.64 203.311C250.64 203.174 250.829 203.164 250.892 203.269ZM255.016 196.862C255.391 197.927 255.982 198.904 256.751 199.731C257.52 200.559 258.452 201.218 259.487 201.67C260.387 202.076 261.339 202.352 262.317 202.491C262.5 202.532 262.687 202.553 262.874 202.554C263.053 202.565 263.232 202.565 263.411 202.554C263.541 202.562 263.67 202.525 263.777 202.451C263.884 202.376 263.962 202.268 264 202.143C264.005 202.059 264.005 201.975 264 201.891V201.68C264.473 199.892 264.957 197.115 264.957 197.115C265.536 197.599 268.524 199.913 268.702 198.956C270.102 191.066 271.648 182.292 271.375 174.139C271.375 174.081 271.351 174.024 271.31 173.983C271.29 173.962 271.265 173.946 271.238 173.935C271.211 173.923 271.183 173.918 271.154 173.918C271.124 173.918 271.096 173.923 271.069 173.935C271.042 173.946 271.017 173.962 270.997 173.983C270.956 174.024 270.933 174.081 270.933 174.139C269.292 181.671 268.986 189.446 267.451 197.041C266.422 196.196 265.278 195.502 264.053 194.979C263.779 194.979 263.222 200.365 262.937 201.144C262.94 201.172 262.94 201.2 262.937 201.228C259.781 200.891 257.762 199.429 255.31 196.705C255.153 196.526 254.921 196.641 255.016 196.862Z" fill="#1F1B2D"/>
<path d="M261.475 201.323C260.179 202.369 258.636 203.064 256.994 203.343C256.095 203.468 255.179 203.31 254.374 202.89C252.628 201.954 252.986 200.229 253.68 198.84C254.058 198.108 254.52 197.423 255.058 196.799C256.659 198.954 258.908 200.539 261.475 201.323Z" fill="#1F1B2D"/>
<path d="M256.994 203.343C256.095 203.468 255.179 203.31 254.374 202.89C252.628 201.954 252.986 200.229 253.68 198.84C255.637 199.524 257.288 201.365 256.994 203.343Z" fill="#FF548A"/>
<path d="M287.386 167.711C272.658 173.876 257.762 156.823 257.762 156.823C256.074 159.411 253.595 161.385 250.695 162.45C247.795 163.516 244.628 163.616 241.666 162.735C241.666 162.735 234.597 184.059 228.832 182.776C220.069 180.903 223.572 150.543 227.538 145.262C231.504 139.981 239.289 140.002 239.289 140.002C239.289 140.002 240.772 135.573 247.063 132.554C254.006 129.208 273.363 139.697 273.363 139.697C275.12 137.177 277.444 135.105 280.148 133.648C280.801 133.281 281.521 133.05 282.266 132.97C283.011 132.89 283.764 132.961 284.48 133.181C285.196 133.4 285.86 133.762 286.432 134.246C287.004 134.73 287.472 135.324 287.807 135.994C286.37 137.376 285.266 139.067 284.577 140.938C282.21 147.124 287.439 148.207 288.606 142.39C289.114 140.231 288.83 137.961 287.807 135.994C291.173 132.732 295.644 132.375 297.78 134.942C301.704 139.644 299.642 162.599 287.386 167.711Z" fill="#1F1B2D"/>
<path d="M251.26 194.727C249.448 194.146 247.835 193.067 246.606 191.615C245.377 190.162 244.58 188.393 244.306 186.51C244.033 184.627 244.293 182.705 245.059 180.962C245.824 179.22 247.063 177.727 248.635 176.655C250.207 175.582 252.049 174.973 253.951 174.896C255.852 174.819 257.737 175.277 259.391 176.218C261.045 177.16 262.401 178.547 263.305 180.221C264.209 181.895 264.625 183.791 264.505 185.69C264.406 187.232 263.956 188.732 263.19 190.074C262.425 191.417 261.364 192.568 260.087 193.439C258.81 194.31 257.352 194.878 255.822 195.102C254.293 195.326 252.732 195.197 251.26 194.727ZM257.067 176.685C256.385 176.464 255.679 176.326 254.963 176.275C252.721 176.115 250.503 176.818 248.76 178.239C247.018 179.659 245.883 181.691 245.589 183.92C245.294 186.148 245.86 188.405 247.172 190.23C248.484 192.055 250.443 193.312 252.649 193.742C254.855 194.171 257.142 193.743 259.044 192.545C260.946 191.346 262.319 189.468 262.883 187.292C263.447 185.116 263.159 182.807 262.078 180.835C260.997 178.863 259.205 177.38 257.067 176.685ZM273.678 198.977C270.038 197.609 268.145 192.665 269.47 187.5C270.035 185.029 271.364 182.798 273.268 181.124C274.037 180.348 274.995 179.786 276.047 179.491C277.098 179.196 278.209 179.18 279.269 179.443C280.329 179.706 281.303 180.24 282.095 180.992C282.887 181.744 283.47 182.688 283.788 183.733C284.68 186.107 284.808 188.7 284.156 191.15C282.81 196.578 278.423 200.187 274.373 199.177C274.136 199.131 273.903 199.064 273.678 198.977ZM279.37 180.935L278.875 180.788C278.025 180.616 277.147 180.652 276.313 180.892C275.48 181.132 274.717 181.569 274.089 182.166C272.408 183.657 271.235 185.636 270.733 187.826C269.565 192.539 271.301 197.041 274.636 197.862C277.971 198.683 281.61 195.526 282.778 190.824C283.364 188.653 283.253 186.353 282.463 184.249C282.209 183.511 281.802 182.834 281.269 182.263C280.736 181.692 280.089 181.239 279.37 180.935Z" fill="#454056"/>
<path d="M263.947 186.784L263.295 185.595C265.052 184.617 268.881 183.607 270.806 186.647L269.649 187.363C267.934 184.638 264.105 186.689 263.947 186.784ZM219.048 180.577L217.996 179.736C218.396 179.241 221.941 174.897 225.002 175.002C227.874 175.107 245.401 180.262 246.148 180.525L245.758 181.829C240.73 180.335 227.18 176.432 224.96 176.359C222.919 176.285 220.005 179.378 219.048 180.577Z" fill="#454056"/>
<path d="M232.587 180.798C232.587 180.798 229.757 167.248 223.908 167.827C218.059 168.406 217.07 185.837 221.752 190.287C222.311 190.899 222.988 191.391 223.742 191.735C224.496 192.078 225.312 192.265 226.141 192.285C226.969 192.304 227.793 192.156 228.563 191.849C229.333 191.542 230.033 191.082 230.62 190.498L232.587 180.798Z" fill="#E3A59D"/>
<path d="M223.751 172.835C223.666 172.782 223.593 172.898 223.656 172.971C226.886 176.211 227.38 180.704 227.222 185.059C226.675 183.123 225.434 181.65 222.909 182.208C222.783 182.208 222.814 182.429 222.909 182.46C223.688 182.532 224.425 182.846 225.017 183.357C225.609 183.868 226.027 184.551 226.212 185.311C226.521 186.58 226.693 187.878 226.728 189.183C226.728 189.614 227.464 189.698 227.506 189.183C227.501 189.148 227.501 189.112 227.506 189.077C229.757 184.217 228.874 175.612 223.751 172.835Z" fill="#1F1B2D"/>
<path d="M304.712 275.899C307.374 268.893 369.084 281.58 366.623 292.321C357.586 331.666 332.401 366.823 326.036 374.861C317.684 385.381 301.062 383.045 295.002 376.67C286.218 367.423 302.082 282.842 304.712 275.899Z" fill="#E3A59D"/>
<path d="M300.368 295.214C298.996 298.984 297.909 302.853 297.117 306.786C296.223 310.678 295.444 314.592 294.813 318.526C293.565 326.485 292.862 334.52 292.709 342.575C292.593 347.077 292.709 351.569 292.709 356.072C292.709 356.177 292.877 356.167 292.877 356.072C292.877 352.085 293.119 348.066 293.445 344.09C293.771 340.114 294.171 336.063 294.687 332.076C295.686 324.239 296.791 316.412 298.211 308.637L299.442 302.115C299.894 299.864 300.41 297.623 300.704 295.34C300.704 295.172 300.441 295.024 300.368 295.214Z" fill="#1F1B2D"/>
<path d="M289.827 165.008C289.42 170.365 288.619 175.685 287.428 180.924L286.786 183.639C285.903 187.236 284.851 190.855 283.63 194.337C283.35 195.179 283.055 196.01 282.747 196.831C279.012 206.919 274.078 215.598 268.524 219.28C267.113 220.226 265.616 221.036 264.053 221.7C256.09 217.056 249.44 210.463 244.728 202.54C240.016 194.617 237.399 185.625 237.121 176.411L235.438 175.949L236.238 174.676C236.539 174.173 236.83 173.664 237.111 173.15C237.532 159.606 243.003 146.709 252.449 136.993C265.673 133.437 281.505 138.518 288.164 150.122C289.785 152.994 290.279 158.401 289.827 165.008Z" fill="#E3A59D"/>
<path d="M262.106 175.233C260.989 175.291 259.868 175.291 258.751 175.233C257.457 175.233 256.426 175.328 255.321 174.56C255.024 174.308 254.82 173.963 254.744 173.581C254.668 173.199 254.723 172.803 254.9 172.456C255.71 171.025 257.288 170.657 258.845 170.625C260.407 170.533 261.948 171.024 263.169 172.004C263.44 172.243 263.634 172.557 263.728 172.906C263.823 173.255 263.813 173.624 263.7 173.968C263.587 174.312 263.375 174.614 263.092 174.839C262.809 175.064 262.467 175.201 262.106 175.233ZM261.128 180.672C261.128 180.577 260.907 180.756 260.886 180.851C260.476 183.365 259.571 186.174 257.151 186.553C257.078 186.553 257.057 186.689 257.151 186.7C259.971 186.805 261.128 183.071 261.128 180.672Z" fill="#1F1B2D"/>
<path d="M259.413 177.569C255.458 176.464 253.543 184.459 257.204 185.48C260.865 186.501 262.727 178.494 259.413 177.569ZM275.509 183.702C275.509 183.618 275.677 183.87 275.646 183.975C274.972 186.426 274.594 189.351 276.698 190.708C276.761 190.708 276.698 190.876 276.645 190.845C273.973 189.803 274.478 185.932 275.509 183.702Z" fill="#1F1B2D"/>
<path d="M278.339 181.65C282.389 182.303 280.79 190.361 277.034 189.761C273.278 189.161 274.941 181.103 278.339 181.65ZM282.442 177.684C281.39 177.232 280.474 176.632 279.464 176.096C278.337 175.682 277.376 174.909 276.729 173.897C276.591 173.54 276.575 173.147 276.684 172.78C276.792 172.413 277.019 172.092 277.329 171.867C278.707 170.973 280.285 171.383 281.684 172.077C283.102 172.733 284.227 173.891 284.84 175.328C284.96 175.661 284.981 176.021 284.902 176.366C284.823 176.711 284.647 177.026 284.395 177.274C284.142 177.522 283.824 177.692 283.478 177.765C283.132 177.838 282.772 177.809 282.442 177.684ZM252.838 202.07C253.291 202.785 253.69 203.721 254.574 204.016C255.499 204.221 256.458 204.221 257.383 204.016C257.401 204.015 257.42 204.02 257.436 204.03C257.452 204.04 257.464 204.054 257.472 204.07C257.48 204.086 257.482 204.106 257.48 204.124C257.477 204.142 257.469 204.16 257.457 204.174C256.987 204.576 256.417 204.843 255.807 204.946C255.198 205.05 254.572 204.987 253.995 204.763C253.523 204.511 253.136 204.125 252.883 203.653C252.63 203.181 252.523 202.645 252.575 202.112C252.565 201.964 252.765 201.964 252.838 202.07ZM257.215 195.274C257.607 196.404 258.229 197.441 259.042 198.319C259.855 199.197 260.841 199.898 261.938 200.376C262.891 200.806 263.901 201.096 264.936 201.239C265.133 201.283 265.334 201.308 265.536 201.312C265.722 201.324 265.908 201.324 266.093 201.312C266.232 201.321 266.369 201.284 266.483 201.205C266.597 201.126 266.683 201.013 266.725 200.881C266.736 200.797 266.736 200.712 266.725 200.629V200.408L267.777 195.568C268.387 196.084 271.553 198.535 271.732 197.525C273.216 189.109 274.888 179.862 274.573 171.225C274.573 171.164 274.548 171.105 274.505 171.061C274.462 171.017 274.403 170.994 274.341 170.994C274.311 170.994 274.281 171 274.253 171.011C274.225 171.023 274.199 171.04 274.178 171.061C274.134 171.105 274.11 171.164 274.11 171.225C272.363 179.199 272.006 187.436 270.417 195.421C269.291 194.55 268.048 193.842 266.725 193.317C266.441 193.317 265.841 199.019 265.546 199.85C265.551 199.878 265.551 199.906 265.546 199.934C262.254 199.576 260.066 198.041 257.478 195.137C257.351 194.927 257.109 195.042 257.215 195.274Z" fill="#1F1B2D"/>
<path d="M264.053 200.008C262.679 201.106 261.044 201.831 259.308 202.112C258.358 202.248 257.389 202.079 256.541 201.628C254.679 200.639 255.069 198.808 255.805 197.346C256.202 196.569 256.689 195.842 257.257 195.179C258.948 197.473 261.33 199.166 264.053 200.008Z" fill="#1F1B2D"/>
<path d="M259.298 202.143C258.347 202.28 257.378 202.11 256.531 201.659C254.669 200.671 255.058 198.84 255.794 197.378C257.856 198.104 259.613 200.039 259.298 202.143Z" fill="#FF548A"/>
<path d="M291.489 164.408L289.827 165.008C274.762 169.679 260.108 152.868 260.108 152.868C258.328 155.618 255.707 157.718 252.635 158.856C249.563 159.994 246.206 160.107 243.065 159.18C241.431 163.994 239.43 168.675 237.079 173.182C237.362 164.236 239.85 155.499 244.32 147.745C248.79 139.991 255.106 133.461 262.706 128.735C267.505 130.419 272.174 132.451 276.677 134.815C278.542 132.147 281.006 129.953 283.872 128.409C284.563 128.02 285.325 127.775 286.113 127.689C286.901 127.603 287.699 127.678 288.457 127.909C289.215 128.14 289.919 128.522 290.525 129.033C291.131 129.544 291.627 130.173 291.983 130.881C295.553 127.451 300.284 127.074 302.503 129.839C306.648 134.7 304.481 158.99 291.489 164.408ZM263.39 174.507C261.639 173.048 259.469 172.186 257.194 172.046C256.509 172.001 255.822 172.026 255.142 172.119C253.437 172.34 251.81 172.966 250.397 173.945C248.984 174.924 247.826 176.228 247.021 177.747C246.788 178.172 246.591 178.615 246.432 179.073C246.066 180.045 245.85 181.066 245.79 182.103C245.643 184.49 246.294 186.858 247.64 188.835C248.986 190.812 250.952 192.285 253.227 193.022C254.081 193.291 254.964 193.457 255.857 193.517H256.531C259.11 193.522 261.605 192.602 263.564 190.925C265.523 189.248 266.816 186.924 267.209 184.375C267.209 184.07 267.282 183.765 267.303 183.449C267.324 183.133 267.303 182.986 267.303 182.765C267.3 181.186 266.947 179.626 266.271 178.198C265.595 176.77 264.61 175.51 263.39 174.507ZM255.942 192.076C253.68 191.932 251.548 190.968 249.945 189.365C248.343 187.762 247.379 185.63 247.235 183.368C247.091 181.106 247.776 178.869 249.161 177.076C250.547 175.282 252.538 174.055 254.763 173.624C255.535 173.474 256.324 173.424 257.109 173.476C257.882 173.527 258.645 173.672 259.382 173.908C260.321 174.21 261.205 174.661 262.001 175.244C263.636 176.428 264.842 178.111 265.438 180.04C266.033 181.969 265.985 184.039 265.301 185.938C264.618 187.837 263.335 189.463 261.647 190.57C259.958 191.677 257.956 192.206 255.942 192.076ZM287.617 181.377L287.428 180.924C286.784 179.445 285.676 178.216 284.272 177.421C283.819 177.169 283.334 176.978 282.831 176.853C282.098 176.675 281.338 176.632 280.59 176.727C279.065 176.94 277.635 177.595 276.477 178.61C275.607 179.351 274.855 180.22 274.247 181.187C273.783 181.904 273.392 182.665 273.079 183.46C272.864 183.972 272.688 184.499 272.553 185.038C272.515 185.145 272.483 185.254 272.458 185.364C271.834 187.749 271.9 190.263 272.647 192.612C272.959 193.7 273.509 194.705 274.256 195.555C275.004 196.405 275.931 197.078 276.971 197.525C277.192 197.606 277.416 197.676 277.644 197.735C278.516 197.933 279.418 197.955 280.297 197.8C281.177 197.644 282.017 197.315 282.768 196.831C285.447 195.08 287.335 192.35 288.028 189.225C288.714 186.63 288.571 183.886 287.617 181.377ZM286.565 188.878C286.087 190.93 285.066 192.815 283.609 194.338C282.923 195.137 282.039 195.742 281.046 196.093C280.053 196.444 278.985 196.528 277.95 196.336C274.415 195.463 272.574 190.698 273.815 185.711C274.346 183.393 275.585 181.297 277.36 179.715C278.029 179.083 278.839 178.62 279.723 178.365C280.607 178.111 281.539 178.072 282.442 178.252C282.617 178.294 282.789 178.347 282.957 178.41C283.719 178.735 284.404 179.215 284.969 179.82C285.535 180.425 285.967 181.142 286.239 181.924C286.464 182.477 286.633 183.052 286.744 183.639C287.08 185.374 287.034 187.162 286.608 188.878H286.565Z" fill="#1F1B2D"/>
<path d="M266.662 184.606L265.978 183.344C267.84 182.292 271.901 181.24 273.931 184.501L272.711 185.259C270.891 182.334 266.84 184.512 266.662 184.606ZM247.799 177.979L247.389 179.357L246.432 179.073L237.09 176.401L235.407 175.938L236.206 174.665L237.058 174.907L247.021 177.747L247.799 177.979Z" fill="#1F1B2D"/>
<g opacity="0.3">
<path opacity="0.54" d="M302.977 227.791C292.495 230.099 281.565 229.248 271.568 225.344C261.571 221.44 252.956 214.66 246.812 205.859C240.668 197.058 237.273 186.635 237.054 175.905C236.836 165.175 239.804 154.62 245.584 145.577C251.363 136.534 259.695 129.408 269.524 125.1C279.354 120.792 290.241 119.495 300.807 121.375C311.374 123.255 321.146 128.225 328.887 135.658C336.628 143.091 341.992 152.654 344.299 163.135C345.832 170.094 345.979 177.286 344.732 184.302C343.485 191.318 340.868 198.019 337.031 204.023C333.194 210.027 328.211 215.216 322.368 219.294C316.525 223.373 309.936 226.26 302.977 227.791Z" fill="white"/>
<path opacity="0.5" d="M243.717 200.849C250.591 213.396 262.139 222.723 275.852 226.803C289.564 230.883 304.333 229.385 316.947 222.636L243.717 200.849ZM245.274 146.114L345.572 175.959C345.659 171.65 345.235 167.345 344.31 163.135C343.261 158.306 341.543 153.646 339.207 149.291L265.168 127.251C257.033 131.734 250.183 138.229 245.274 146.114ZM237.447 181.135L332.98 209.539C335.256 206.805 337.261 203.856 338.965 200.734L237.237 170.457C236.944 174.014 237.014 177.592 237.447 181.135ZM241.803 152.678L344.899 183.365L345.172 181.408L242.623 150.9L241.803 152.678ZM282.336 121.297L328.098 134.91L324.364 131.754L287.197 120.708C285.567 120.821 283.945 121.018 282.336 121.297Z" fill="white"/>
</g>
<path d="M310.445 294.869L324.377 291.801L310.885 230.538L296.954 233.606L310.445 294.869Z" fill="#EFECF3"/>
<path d="M350.232 161.831C347.667 150.179 341.704 139.551 333.097 131.288C324.49 123.025 313.628 117.501 301.882 115.413C290.136 113.324 278.034 114.766 267.107 119.555C256.18 124.344 246.919 132.266 240.494 142.319C234.069 152.371 230.77 164.103 231.013 176.031C231.256 187.959 235.03 199.547 241.859 209.33C248.688 219.113 258.264 226.651 269.377 230.991C280.49 235.331 292.64 236.279 304.292 233.714C319.913 230.269 333.528 220.762 342.143 207.283C350.758 193.804 353.667 177.455 350.232 161.831ZM302.977 227.791C292.496 230.102 281.565 229.252 271.567 225.35C261.568 221.447 252.952 214.668 246.807 205.868C240.662 197.068 237.265 186.645 237.045 175.914C236.825 165.183 239.791 154.629 245.57 145.585C251.349 136.541 259.68 129.413 269.51 125.104C279.34 120.795 290.226 119.498 300.793 121.377C311.36 123.256 321.133 128.225 328.875 135.658C336.617 143.091 341.981 152.653 344.289 163.135C345.822 170.093 345.969 177.285 344.723 184.3C343.476 191.315 340.86 198.016 337.024 204.02C333.188 210.024 328.207 215.213 322.365 219.292C316.523 223.371 309.935 226.259 302.977 227.791Z" fill="#666276"/>
<path d="M316.2 337.978L337.272 333.338L325.321 279.023L304.239 283.663L316.2 337.978Z" fill="#454056"/>
<path opacity="0.2" d="M325.395 180.094C325.372 180.156 325.355 180.219 325.342 180.283C325.09 181.188 325.616 179.41 325.426 179.999L324.7 182.103C323.78 184.544 322.654 186.902 321.334 189.152L320.776 190.099C320.713 190.204 321.239 189.362 320.776 190.025L320.408 190.593L318.914 192.697C317.775 194.237 316.534 195.699 315.201 197.073L314.233 198.041C313.791 198.473 314.748 197.568 314.138 198.125L313.528 198.683L311.088 200.661L308.289 202.586L306.953 203.375C306.175 203.827 307.29 203.217 306.711 203.512L305.88 203.932C303.367 205.169 300.738 206.156 298.032 206.878H297.895L297.601 206.941L296.391 207.204L294.024 207.614L288.985 208.077C288.517 208.13 288.063 208.275 287.651 208.504C287.239 208.733 286.875 209.039 286.582 209.408C285.989 210.153 285.716 211.103 285.824 212.049C285.932 212.995 286.41 213.859 287.155 214.452C287.9 215.044 288.849 215.317 289.795 215.21C300.544 214.877 310.823 210.726 318.788 203.501C324.08 198.545 328.218 192.487 330.907 185.754C331.523 184.251 332.036 182.708 332.443 181.136C332.589 180.196 332.356 179.236 331.796 178.468C331.236 177.7 330.395 177.183 329.455 177.033C328.518 176.907 327.569 177.147 326.805 177.704C326.041 178.261 325.52 179.09 325.353 180.02L325.395 180.094Z" fill="white"/>
<path d="M326.868 178.263C326.974 178.955 327.284 179.599 327.757 180.115C328.231 180.63 328.847 180.994 329.527 181.159C330.207 181.324 330.921 181.284 331.578 181.043C332.235 180.802 332.806 180.371 333.218 179.805C333.63 179.239 333.865 178.564 333.893 177.865C333.921 177.166 333.74 176.474 333.375 175.877C333.009 175.28 332.474 174.805 331.838 174.513C331.202 174.22 330.494 174.123 329.803 174.234C328.88 174.38 328.053 174.887 327.503 175.642C326.953 176.397 326.724 177.34 326.868 178.263Z" fill="white"/>
<path d="M362.478 304.619C362.478 304.619 377.542 279.855 358.785 256.227C351.064 246.506 332.843 229.075 295.876 231.505C287.102 232.083 275.014 239.121 289.679 243.382C300.094 246.411 307.616 245.181 313.36 248.042C313.36 248.042 299.042 258.825 299.968 267.588C300.378 271.502 300.683 280.054 302.945 288.197C302.945 288.197 305.912 290.301 308.321 289.943C308.321 289.943 314.812 308.669 338.156 314.423L362.478 304.619Z" fill="#E3A59D"/>
<path d="M350.864 253.05C344.825 250.641 331.928 245.759 319.987 245.423C306.722 245.054 281.063 247.926 280.906 257.72C280.779 264.906 290.668 264.664 290.668 264.664C290.668 264.664 280.316 268.083 281.632 274.595C282.82 280.528 290.458 279.855 290.458 279.855C290.458 279.855 284.535 283.011 286.786 288.502C289.49 295.109 301.451 287.45 309.93 291.742C311.887 292.752 350.864 253.05 350.864 253.05Z" fill="#E3A59D"/>
<path d="M321.913 259.498C315.864 258.173 301.335 258.678 290.794 264.432C290.552 264.559 290.521 264.811 290.794 264.737C300.923 261.784 311.372 260.067 321.913 259.625C322.007 259.625 322.007 259.572 321.913 259.498ZM321.176 272.88C315.832 272.27 300.883 273.458 290.405 279.655C290.163 279.791 290.153 280.044 290.405 279.96C300.373 276.486 310.703 274.153 321.197 273.006C321.214 273.003 321.229 272.994 321.239 272.98C321.249 272.966 321.253 272.949 321.25 272.932C321.247 272.915 321.238 272.901 321.224 272.891C321.21 272.881 321.193 272.877 321.176 272.88ZM342.711 316.033C337.355 314.762 332.186 312.807 327.33 310.215C322.441 307.569 318.114 303.996 314.591 299.695C313.539 298.38 312.487 297.013 311.571 295.614C310.655 294.215 309.646 292.626 308.563 291.237C308.479 291.132 308.279 291.237 308.342 291.332C309.561 294.252 311.062 297.046 312.823 299.674C314.403 302.132 316.291 304.376 318.441 306.354C322.686 310.132 327.716 312.92 333.169 314.518C336.265 315.38 339.435 315.954 342.637 316.233C342.795 316.275 342.858 316.064 342.711 316.033Z" fill="#1F1B2D"/>
<path d="M189.15 236.786C162.051 273.174 116.825 368.012 110.177 381.962C105.664 391.43 155.139 416.362 157.233 409.482C159.926 400.666 204.162 284.294 210.359 241.867C213.746 218.607 198.524 224.193 189.15 236.786Z" fill="#E3A59D"/>
<path d="M158.569 404.748C157.422 413.322 151.594 430.596 147.26 433.236C142.926 435.876 120.15 435.34 108.672 435.34C97.194 435.34 94.996 432.132 95.133 428.187C95.27 424.242 119.403 423.484 119.403 423.484C119.403 423.484 87.232 432.658 79.143 434.204C71.054 435.75 52.422 440.411 49.687 433.71C48.477 430.68 53.579 427.618 53.579 427.618C53.579 427.618 45.763 429.901 44.511 426.019C43.101 421.59 49.319 419.16 49.319 419.16C49.319 419.16 44.427 420.139 44.312 416.53C44.102 408.43 74.694 404.474 74.694 404.474C74.694 404.474 51.277 415.878 50.498 409.293C49.446 400.193 97.459 390.209 102.456 386.243C106.092 383.212 109.492 379.91 112.629 376.365L158.57 404.748H158.569Z" fill="#E3A59D"/>
<path d="M95.301 430.143C95.22 429.585 95.273 429.014 95.456 428.48C95.639 427.946 95.9465 427.463 96.353 427.071C97.1779 426.316 98.1237 425.704 99.151 425.262C101.273 424.36 103.474 423.656 105.726 423.158C110.249 422.011 114.889 421.201 119.507 420.002C114.746 419.931 109.996 420.461 105.368 421.58C103.003 422.122 100.726 422.993 98.604 424.168C97.5048 424.772 96.5415 425.596 95.774 426.588C95.3967 427.09 95.1551 427.681 95.0722 428.304C94.9894 428.926 95.0682 429.56 95.301 430.143ZM53.653 427.576C56.967 426.766 60.228 425.841 63.479 424.894L73.21 421.98L82.899 418.95C86.129 417.898 89.358 416.93 92.619 415.952C89.2332 416.324 85.8765 416.925 82.572 417.751C79.248 418.508 75.986 419.455 72.736 420.444C69.486 421.433 66.266 422.548 63.089 423.726C59.912 424.904 56.704 426.146 53.653 427.576ZM84.813 407.904C81.6924 408.1 78.5907 408.529 75.534 409.187C72.4668 409.797 69.4358 410.577 66.455 411.523C63.467 412.449 60.5342 413.545 57.671 414.805C54.7975 416.033 52.0166 417.468 49.35 419.097L58.124 415.941L66.94 413.048L75.829 410.376L84.813 407.904ZM80.079 400.245C75.053 400.65 70.1016 401.711 65.351 403.401C60.5544 404.99 55.9881 407.205 51.77 409.987L65.877 404.927L80.079 400.245Z" fill="#1F1B2D"/>
<path d="M200.67 299.159L145.755 297.644C145.755 297.644 175.685 250.009 191.717 232.536C208.454 214.336 217.565 215.903 211.852 248.147C206.098 280.612 200.67 299.159 200.67 299.159Z" fill="#A237EE"/>
<path d="M166.69 289.575C165.208 290.223 163.821 291.069 162.566 292.089C165.773 291.572 168.791 290.234 171.329 288.207C169.725 288.438 168.163 288.898 166.69 289.575ZM197.356 254.691C196.722 253.202 195.875 251.813 194.842 250.567C195.347 253.776 196.69 256.795 198.734 259.32C198.503 257.718 198.038 256.158 197.356 254.691ZM172.034 265.042C171.434 266.544 171.052 268.124 170.898 269.734C172.805 267.105 173.988 264.022 174.328 260.792C173.359 262.089 172.586 263.521 172.034 265.042ZM196.23 286.545C195.625 288.049 195.246 289.633 195.105 291.248C197 288.613 198.181 285.532 198.534 282.306C197.561 283.601 196.778 285.028 196.209 286.545H196.23ZM212.326 224.004L211.589 225.677C210.996 227.181 210.613 228.76 210.453 230.369C211.422 229.084 212.201 227.667 212.768 226.161L212.904 225.761C212.754 225.159 212.554 224.572 212.305 224.004H212.326Z" fill="white"/>
<path d="M197.23 289.607C195.925 289.417 194.589 289.417 193.285 289.354L189.234 289.133L181.039 288.807L164.649 288.376H160.136L155.402 288.544C155.307 288.544 155.318 288.691 155.402 288.691L159.452 289.06L163.608 289.28L171.813 289.543L187.951 289.827H192.517L197.251 289.775C197.293 289.743 197.314 289.617 197.23 289.607ZM211.316 263.443C211.316 263.338 211.19 263.275 211.137 263.38C210.118 265.256 209.246 267.208 208.528 269.219L209.117 266.336L210.874 257.037C210.867 257.018 210.855 257.002 210.839 256.991C210.823 256.979 210.804 256.973 210.785 256.973C210.765 256.973 210.746 256.979 210.73 256.991C210.714 257.003 210.702 257.019 210.695 257.037C209.275 262.36 207.623 267.63 206.361 272.996L202.647 289.112C202.006 292.089 201.427 295.803 200.775 298.77C199.186 298.959 197.145 298.77 195.431 298.99C195.283 298.99 195.325 299.253 195.431 299.253C197.24 299.306 199.397 299.716 201.301 299.601C201.543 299.601 206.15 280.465 208.065 271.302C209.243 268.693 210.337 266.084 211.316 263.443ZM250.377 233.693L247.736 241.12C246.902 243.309 245.877 245.421 244.675 247.432C242.402 251.019 238.91 253.986 234.481 253.975C230.273 253.975 226.423 251.535 223.729 248.421C220.784 245.023 218.827 240.762 217.07 236.659C216.018 234.124 214.966 231.536 214.125 228.917C213.693 227.591 213.241 226.266 212.862 224.919C212.483 223.572 212.157 222.215 211.695 220.9C211.695 220.795 211.463 220.806 211.495 220.9C212.273 223.93 214.535 233.524 215.44 235.965C217.102 240.436 218.974 245.054 221.973 248.821C224.813 252.376 228.674 255.069 233.292 255.511C237.91 255.953 241.866 253.523 244.412 249.862C245.909 247.556 247.077 245.053 247.883 242.424C248.862 239.542 249.682 236.586 250.429 233.63C250.471 233.672 250.377 233.661 250.377 233.693Z" fill="#1F1B2D"/>
<path d="M422.756 437.886H347.317L343.951 371.568H422.756V437.886Z" fill="#EFECF3"/>
<path d="M422.756 371.568L449.856 337.641L471.422 371.568L468.056 437.886H422.756V371.568Z" fill="#EFECF3"/>
<path d="M370.283 326.868H450.813L479.859 374.25H470.507L450.813 341.449L428.101 378.164H337.302L370.283 326.868Z" fill="#BBB7C5"/>
<path d="M379.614 341.859H362.298L353.061 352.927H373.049L379.614 341.859Z" fill="#D5D2DC"/>
<path d="M366.496 351.033V364.509H356.859V351.033L361.677 345.005L366.496 351.033Z" fill="#EFECF3"/>
<path d="M366.495 351.022H374.07L366.495 364.509V351.022Z" fill="#EFECF3"/>
<path d="M364.171 351.243H358.69V360.49H364.171V351.243Z" fill="white"/>
<path d="M361.13 351.885H359.363V354.862H361.13V351.885ZM363.487 351.885H361.719V354.862H363.487V351.885ZM361.13 355.399H359.363V359.807H361.13V355.399ZM363.487 355.399H361.719V359.807H363.487V355.399Z" fill="#A237EE"/>
<path d="M422.009 341.859H404.694L396.025 352.927H415.403L422.009 341.859Z" fill="#D5D2DC"/>
<path d="M408.891 351.033V364.509H399.255V351.033L404.073 345.005L408.891 351.033Z" fill="#EFECF3"/>
<path d="M408.891 351.022H416.476L408.891 364.509V351.022Z" fill="#EFECF3"/>
<path d="M406.566 351.243H401.085V360.49H406.566V351.243Z" fill="white"/>
<path d="M403.526 351.885H401.759V354.862H403.526V351.885ZM405.893 351.885H404.126V354.862H405.893V351.885ZM403.526 355.399H401.759V359.807H403.526V355.399ZM405.893 355.399H404.126V359.807H405.893V355.399Z" fill="#A237EE"/>
<path d="M436.369 324.954H426.733V337.641H436.369V324.954Z" fill="#EFECF3"/>
<path d="M436.369 324.954H443.944V326.995L436.369 337.641V324.954Z" fill="#EFECF3"/>
<path d="M436.369 320.641H425.649V324.954H436.369V320.641Z" fill="#BBB7C5"/>
<path d="M444.775 320.641H436.369V324.954H444.775V320.641Z" fill="#D5D2DC"/>
<path d="M367.221 383.592H355.292V403.738H367.221V383.592Z" fill="white"/>
<path d="M360.604 384.991H356.764V391.482H360.604V384.991Z" fill="#F5F4F8"/>
<path d="M365.749 384.991H361.909V391.482H365.749V384.991Z" fill="#F5F4F8"/>
<path d="M360.604 392.65H356.764V402.265H360.604V392.65Z" fill="#F5F4F8"/>
<path d="M365.749 392.65H361.909V402.265H365.749V392.65Z" fill="#F5F4F8"/>
<path d="M411.532 383.592H399.602V403.738H411.532V383.592Z" fill="white"/>
<path d="M404.915 384.991H401.075V391.482H404.915V384.991Z" fill="#A237EE"/>
<path d="M410.059 384.991H406.219V391.482H410.059V384.991Z" fill="#A237EE"/>
<path d="M404.915 392.65H401.075V402.265H404.915V392.65Z" fill="#A237EE"/>
<path d="M410.059 392.65H406.219V402.265H410.059V392.65Z" fill="#A237EE"/>
<path d="M367.221 411.586H355.292V431.732H367.221V411.586Z" fill="white"/>
<path d="M360.604 412.985H356.764V419.476H360.604V412.985Z" fill="#F5F4F8"/>
<path d="M365.749 412.985H361.909V419.476H365.749V412.985Z" fill="#F5F4F8"/>
<path d="M360.604 420.644H356.764V430.259H360.604V420.644Z" fill="#F5F4F8"/>
<path d="M365.749 420.644H361.909V430.259H365.749V420.644Z" fill="#F5F4F8"/>
<path d="M411.532 411.586H399.602V431.732H411.532V411.586Z" fill="white"/>
<path d="M404.915 412.985H401.075V419.476H404.915V412.985Z" fill="#A237EE"/>
<path d="M410.059 412.985H406.219V419.476H410.059V412.985Z" fill="#A237EE"/>
<path d="M404.915 420.644H401.075V430.259H404.915V420.644Z" fill="#A237EE"/>
<path d="M410.059 420.644H406.219V430.259H410.059V420.644Z" fill="#A237EE"/>
<path d="M389.313 383.592H377.384V403.738H389.313V383.592Z" fill="white"/>
<path d="M382.696 384.991H378.856V391.482H382.696V384.991Z" fill="#F5F4F8"/>
<path d="M387.851 384.991H384.011V391.482H387.851V384.991Z" fill="#F5F4F8"/>
<path d="M382.696 392.65H378.856V402.265H382.696V392.65Z" fill="#F5F4F8"/>
<path d="M387.851 392.65H384.011V402.265H387.851V392.65Z" fill="#F5F4F8"/>
<path d="M389.313 411.723H377.384V431.869H389.313V411.723Z" fill="white"/>
<path d="M382.696 413.111H378.856V419.602H382.696V413.111Z" fill="#F5F4F8"/>
<path d="M387.851 413.111H384.011V419.602H387.851V413.111Z" fill="#F5F4F8"/>
<path d="M382.696 420.781H378.856V430.396H382.696V420.781Z" fill="#F5F4F8"/>
<path d="M387.851 420.781H384.011V430.396H387.851V420.781Z" fill="#F5F4F8"/>
<path d="M444.196 403.738H456.126V383.592H444.196V403.738Z" fill="white"/>
<path d="M454.653 384.991H450.813V391.482H454.653V384.991Z" fill="#A237EE"/>
<path d="M449.498 384.991H445.658V391.482H449.498V384.991Z" fill="#A237EE"/>
<path d="M454.653 392.65H450.813V402.265H454.653V392.65Z" fill="#A237EE"/>
<path d="M449.498 392.65H445.658V402.265H449.498V392.65Z" fill="#A237EE"/>
<path d="M444.196 372.599H456.126V355.546H444.196V372.599Z" fill="white"/>
<path d="M454.653 356.935H450.813V363.425H454.653V356.935ZM449.498 356.935H445.658V363.425H449.498V356.935Z" fill="#A237EE"/>
<path d="M454.653 364.667H450.813V371.158H454.653V364.667Z" fill="#A237EE"/>
<path d="M449.498 364.667H445.658V371.158H449.498V364.667Z" fill="#A237EE"/>
<path d="M442.499 438.009L456.964 438.078L457.087 411.809L442.623 411.741L442.499 438.009Z" fill="white"/>
<path d="M448.277 413.56L448.259 417.494L451.373 417.509L451.391 413.575L448.277 413.56ZM444.208 413.539L444.189 417.473L447.303 417.488L447.322 413.553L444.208 413.539Z" fill="#A237EE"/>
<path d="M446.47 431.779L453.045 431.81L453.05 430.864L446.475 430.833L446.47 431.779ZM450.224 411.555V415.489H453.338V411.555H450.224ZM448.267 418.528L448.248 422.462L451.362 422.477L451.38 418.543L448.267 418.528ZM444.166 418.496L444.147 422.431L447.261 422.445L447.279 418.511L444.166 418.496ZM452.346 418.549L452.328 422.484L455.442 422.498L455.46 418.564L452.346 418.549ZM448.245 423.506L448.227 427.441L451.341 427.455L451.359 423.521L448.245 423.506ZM444.155 423.485L444.136 427.419L447.25 427.434L447.269 423.5L444.155 423.485ZM452.325 423.527L452.307 427.462L455.421 427.476L455.439 423.542L452.325 423.527Z" fill="#A237EE"/>
<path d="M215.134 438.065H148.121L145.123 405.59H215.134V438.065Z" fill="#EFECF3"/>
<path d="M215.113 405.548L239.182 375.418L258.35 405.548L255.352 438.023H215.113V405.548Z" fill="#EFECF3"/>
<path d="M168.12 365.887H240.908L267.87 411.449H260.517L239.919 377.154L220.131 411.449H139.484L168.12 365.887Z" fill="#BBB7C5"/>
<path d="M165.963 417.646H155.359V432.794H165.963V417.646Z" fill="white"/>
<path d="M160.072 418.887H156.664V424.652H160.072V418.887Z" fill="#A237EE"/>
<path d="M164.648 418.887H161.24V424.652H164.648V418.887Z" fill="#A237EE"/>
<path d="M160.072 425.746H156.664V431.511H160.072V425.746Z" fill="#A237EE"/>
<path d="M164.648 425.746H161.24V431.511H164.648V425.746Z" fill="#A237EE"/>
<path d="M204.908 417.646H194.304V432.794H204.908V417.646Z" fill="white"/>
<path d="M199.017 418.887H195.609V424.652H199.017V418.887Z" fill="#A237EE"/>
<path d="M203.593 418.887H200.185V424.652H203.593V418.887Z" fill="#A237EE"/>
<path d="M199.017 425.746H195.609V431.511H199.017V425.746Z" fill="#A237EE"/>
<path d="M203.593 425.746H200.185V431.511H203.593V425.746Z" fill="#A237EE"/>
<path d="M185.499 416.835H173.811V438.065H185.499V416.835Z" fill="white"/>
<path d="M180.912 418.298H178.398V421.475H180.912V418.298Z" fill="#A237EE"/>
<path d="M184.215 418.298H181.701V421.475H184.215V418.298Z" fill="#A237EE"/>
<path d="M182.311 432.237H176.999V433.005H182.311V432.237Z" fill="#EFECF3"/>
<path d="M177.609 418.298H175.095V421.475H177.609V418.298Z" fill="#A237EE"/>
<path d="M180.912 422.316H178.398V425.493H180.912V422.316Z" fill="#A237EE"/>
<path d="M184.215 422.316H181.701V425.493H184.215V422.316Z" fill="#A237EE"/>
<path d="M177.609 422.316H175.095V425.493H177.609V422.316Z" fill="#A237EE"/>
<path d="M180.912 426.335H178.398V429.512H180.912V426.335Z" fill="#A237EE"/>
<path d="M184.215 426.335H181.701V429.512H184.215V426.335Z" fill="#A237EE"/>
<path d="M177.609 426.335H175.095V429.512H177.609V426.335Z" fill="#A237EE"/>
<path d="M183.521 364.067H174.958V375.334H183.521V364.067Z" fill="#EFECF3"/>
<path d="M183.521 364.067H190.254V365.877L183.521 375.334V364.067Z" fill="#EFECF3"/>
<path d="M183.521 360.227H174.001V364.057H183.521V360.227Z" fill="#BBB7C5"/>
<path d="M190.99 360.227H183.521V364.057H190.99V360.227Z" fill="#D5D2DC"/>
<path d="M241.623 438.075H263.357L265.43 415.678H241.623V438.075Z" fill="#EFECF3"/>
<path d="M241.623 415.678L230.882 410.829L231.124 438.075H241.623V415.678Z" fill="#EFECF3"/>
<path d="M258.266 421.475H249.124V438.065H258.266V421.475Z" fill="white"/>
<path d="M254.678 422.611H252.711V425.094H254.678V422.611ZM257.256 422.611H255.289V425.094H257.256V422.611ZM255.772 432.395H251.617V432.994H255.772V432.395ZM252.101 422.611H250.134V425.094H252.101V422.611Z" fill="#EFECF3"/>
<path d="M229.241 409.714H260.822L271.026 417.477H240.708L229.241 409.714Z" fill="#BBB7C5"/>
<path d="M240.708 417.477H229.241V409.714L240.708 417.477Z" fill="#EFECF3"/>
<path d="M233.922 398.362C233.922 399.434 234.24 400.482 234.836 401.373C235.432 402.264 236.278 402.959 237.269 403.369C238.26 403.779 239.35 403.885 240.401 403.675C241.452 403.465 242.418 402.948 243.175 402.19C243.932 401.431 244.447 400.465 244.655 399.413C244.863 398.362 244.754 397.272 244.343 396.282C243.931 395.292 243.235 394.447 242.343 393.853C241.45 393.258 240.402 392.943 239.33 392.945C238.619 392.946 237.916 393.087 237.26 393.36C236.604 393.632 236.008 394.032 235.506 394.535C234.492 395.551 233.923 396.927 233.922 398.362Z" fill="white"/>
<path d="M235.132 398.362C235.132 399.478 235.576 400.549 236.365 401.338C237.154 402.127 238.224 402.57 239.34 402.57C239.695 402.573 240.049 402.527 240.392 402.434C241.372 402.168 242.223 401.556 242.787 400.712C243.351 399.868 243.592 398.849 243.464 397.842C243.336 396.835 242.848 395.907 242.09 395.232C241.332 394.557 240.356 394.177 239.34 394.165C238.985 394.163 238.631 394.209 238.288 394.302C237.798 394.421 237.337 394.635 236.931 394.933C236.379 395.319 235.928 395.832 235.615 396.429C235.302 397.026 235.136 397.688 235.132 398.362Z" fill="#A237EE"/>
<path d="M238.751 403.307H239.919V393.334H238.751V403.307Z" fill="white"/>
<path d="M244.327 398.899V397.731H234.354V398.899H244.327Z" fill="white"/>
<path d="M272.594 438.075H238.73L236.416 413.027H272.594V438.075Z" fill="#D5D2DC"/>
<path opacity="0.2" d="M272.594 438.075H238.73L236.416 413.027H272.594V438.075Z" fill="#1F1B2D"/>
<path d="M272.594 413.027L291.162 389.778L305.942 413.027L303.638 438.075H272.594V413.027Z" fill="#D5D2DC"/>
<path d="M274.835 416.089H228.883L256.835 380.941H291.351L312.097 416.089H306.826L291.351 392.008L274.835 416.089V416.089Z" fill="#D5D2DC"/>
<path opacity="0.4" d="M274.835 416.089H228.883L256.835 380.941H291.351L312.097 416.089H306.826L291.351 392.008L274.835 416.089V416.089Z" fill="#1F1B2D"/>
<path d="M321.207 349.855H311.634V362.458H321.207V349.855Z" fill="#D5D2DC"/>
<path opacity="0.2" d="M321.207 349.855H311.634V362.458H321.207V349.855Z" fill="#1F1B2D"/>
<path d="M328.739 349.855H321.207V362.458H328.739V349.855ZM321.207 345.562H310.561V349.844H321.207V345.562Z" fill="#D5D2DC"/>
<path opacity="0.5" d="M321.207 345.562H310.561V349.844H321.207V345.562Z" fill="#1F1B2D"/>
<path d="M329.56 345.562H321.207V349.844H329.56V345.562Z" fill="#D5D2DC"/>
<path opacity="0.4" d="M329.56 345.562H321.207V349.844H329.56V345.562Z" fill="#1F1B2D"/>
<path d="M354.85 438.044H279.895L276.539 401.718H354.85V438.044Z" fill="#D5D2DC"/>
<path opacity="0.2" d="M354.85 438.044H279.895L276.539 401.718H354.85V438.044Z" fill="#1F1B2D"/>
<path d="M354.85 401.718L381.771 368.002L403.21 401.718L399.854 438.044H354.85V401.718Z" fill="#D5D2DC"/>
<path d="M381.444 370.137L403.578 404.369H411.311L382.107 357.303H302.376L261.979 408.272H359.363L381.444 370.137V370.137Z" fill="#D5D2DC"/>
<path opacity="0.5" d="M381.444 370.137L403.578 404.369H411.311L382.107 357.303H302.376L261.979 408.272H359.363L381.444 370.137V370.137Z" fill="black"/>
<path d="M374.775 406.821H386.631V389.873H374.775V406.821Z" fill="white"/>
<path d="M385.168 391.251H381.35V397.7H385.168V391.251Z" fill="#A237EE"/>
<path d="M380.056 391.251H376.237V397.7H380.056V391.251Z" fill="#A237EE"/>
<path d="M385.168 398.93H381.35V405.379H385.168V398.93Z" fill="#A237EE"/>
<path d="M380.056 398.93H376.237V405.379H380.056V398.93Z" fill="#A237EE"/>
<path d="M299.841 415.194H287.985V432.142H299.841V415.194Z" fill="white"/>
<path d="M293.266 416.583H289.447V423.032H293.266V416.583Z" fill="#A237EE"/>
<path d="M298.389 416.583H294.57V423.032H298.389V416.583Z" fill="#A237EE"/>
<path d="M293.266 424.263H289.447V430.711H293.266V424.263Z" fill="#A237EE"/>
<path d="M298.389 424.263H294.57V430.711H298.389V424.263Z" fill="#A237EE"/>
<path d="M321.628 415.194H309.772V432.142H321.628V415.194Z" fill="white"/>
<path d="M315.042 416.583H311.223V423.032H315.042V416.583Z" fill="#A237EE"/>
<path d="M320.165 416.583H316.347V423.032H320.165V416.583Z" fill="#A237EE"/>
<path d="M315.042 424.263H311.223V430.711H315.042V424.263Z" fill="#A237EE"/>
<path d="M320.165 424.263H316.347V430.711H320.165V424.263Z" fill="#A237EE"/>
<path d="M343.404 415.194H331.548V432.142H343.404V415.194Z" fill="white"/>
<path d="M336.829 416.583H333.01V423.032H336.829V416.583Z" fill="#A237EE"/>
<path d="M341.942 416.583H338.123V423.032H341.942V416.583Z" fill="#A237EE"/>
<path d="M336.829 424.263H333.01V430.711H336.829V424.263Z" fill="#A237EE"/>
<path d="M341.942 424.263H338.123V430.711H341.942V424.263Z" fill="#A237EE"/>
<path d="M374.164 438.033H387.241V414.29H374.164V438.033Z" fill="white"/>
<path d="M382.118 415.931H379.298V419.487H382.118V415.931Z" fill="#A237EE"/>
<path d="M378.425 415.931H375.606V419.487H378.425V415.931ZM377.731 432.384H383.675V431.521H377.731V432.384Z" fill="#A237EE"/>
<path d="M385.8 415.931H382.98V419.487H385.8V415.931Z" fill="#A237EE"/>
<path d="M382.118 420.423H379.298V423.979H382.118V420.423Z" fill="#A237EE"/>
<path d="M378.425 420.423H375.606V423.979H378.425V420.423Z" fill="#A237EE"/>
<path d="M385.8 420.423H382.98V423.979H385.8V420.423Z" fill="#A237EE"/>
<path d="M382.118 424.915H379.298V428.471H382.118V424.915Z" fill="#A237EE"/>
<path d="M378.425 424.915H375.606V428.471H378.425V424.915Z" fill="#A237EE"/>
<path d="M385.8 424.915H382.98V428.471H385.8V424.915Z" fill="#A237EE"/>
<path d="M333.242 369.506H316.031L307.184 380.552H326.667L333.242 369.506Z" fill="#D5D2DC"/>
<path opacity="0.4" d="M333.242 369.506H316.031L307.184 380.552H326.667L333.242 369.506Z" fill="#1F1B2D"/>
<path d="M320.207 378.616V392.008H310.624V378.616L315.421 372.63L320.207 378.616Z" fill="#D5D2DC"/>
<path opacity="0.2" d="M320.207 378.616V392.008H310.624V378.616L315.421 372.63L320.207 378.616Z" fill="#1F1B2D"/>
<path d="M320.207 378.616H327.74L320.207 392.008V378.616Z" fill="#D5D2DC"/>
<path d="M317.883 378.827H312.444V388.011H317.883V378.827Z" fill="white"/>
<path d="M314.874 379.458H313.117V382.414H314.874V379.458ZM317.22 379.458H315.463V382.414H317.22V379.458ZM314.874 382.961H313.117V387.348H314.874V382.961ZM317.22 382.961H315.463V387.348H317.22V382.961Z" fill="#A237EE"/>
<path d="M433.025 241.604C437.71 245.588 441.196 250.796 443.093 256.646C444.99 262.496 445.224 268.759 443.768 274.734C442.312 280.709 439.225 286.163 434.85 290.485C430.474 294.807 424.984 297.828 418.991 299.211L411.627 314.286L404.484 299.316C399.143 298.172 394.171 295.713 390.019 292.163C386.699 289.338 383.969 285.888 381.982 282.008C379.996 278.128 378.794 273.895 378.443 269.55C378.093 265.205 378.602 260.834 379.941 256.686C381.28 252.538 383.423 248.695 386.248 245.375C391.952 238.671 400.086 234.507 408.861 233.799C413.206 233.449 417.577 233.958 421.725 235.297C425.873 236.636 429.716 238.779 433.036 241.604H433.025Z" fill="white"/>
<path d="M433.025 241.604C437.709 245.589 441.201 250.792 443.114 256.637C443.593 258.091 443.979 259.573 444.271 261.076C444.523 262.587 444.681 264.112 444.744 265.642C444.887 268.711 444.601 271.784 443.892 274.773C443.196 277.77 442.088 280.655 440.599 283.347C439.847 284.689 438.999 285.976 438.064 287.197C437.161 288.444 436.162 289.619 435.076 290.711C430.689 295.13 425.154 298.234 419.097 299.674L419.423 299.422L412.143 314.539L411.617 315.644L411.091 314.539L403.895 299.601L404.337 299.948C398.068 298.589 392.32 295.463 387.772 290.94C383.223 286.416 380.066 280.685 378.673 274.424C377.28 268.163 377.709 261.633 379.91 255.608C382.111 249.583 385.991 244.314 391.092 240.426C395.138 237.393 399.811 235.301 404.768 234.303C409.724 233.3 414.842 233.436 419.737 234.7C424.632 235.964 429.176 238.326 433.025 241.604ZM433.025 241.604C429.202 238.34 424.681 235.998 419.81 234.757C414.939 233.517 409.848 233.412 404.929 234.449C400.011 235.487 395.397 237.64 391.442 240.743C387.487 243.846 384.297 247.815 382.119 252.345C379.947 256.823 378.824 261.738 378.836 266.715C378.898 271.668 380.032 276.549 382.161 281.022C384.319 285.473 387.459 289.376 391.345 292.436C395.237 295.483 399.763 297.618 404.589 298.685L404.905 298.759L405.031 299.043L412.132 314.034H411.08L418.56 299.011L418.655 298.801H418.876C424.823 297.499 430.288 294.563 434.656 290.322C435.741 289.264 436.743 288.124 437.654 286.913C438.596 285.725 439.45 284.47 440.21 283.158C441.735 280.526 442.883 277.693 443.619 274.742C444.381 271.79 444.707 268.742 444.586 265.695C444.532 264.173 444.388 262.655 444.155 261.15C443.871 259.652 443.495 258.173 443.03 256.721C441.155 250.855 437.692 245.622 433.025 241.604Z" fill="#666276"/>
<path d="M420.538 258.457C420.17 258.082 419.761 257.75 419.317 257.468C418.731 257.088 418.115 256.754 417.476 256.469C415.931 255.768 414.276 255.341 412.585 255.206V264.674L413.458 264.853C414.965 265.213 416.45 265.655 417.908 266.179C419.109 266.601 420.24 267.2 421.264 267.956C422.154 268.642 422.874 269.524 423.368 270.534C423.895 271.703 424.15 272.976 424.115 274.258C424.157 275.682 423.861 277.095 423.252 278.382C422.689 279.511 421.867 280.492 420.853 281.243C419.78 282.026 418.571 282.604 417.287 282.947C415.868 283.338 414.404 283.547 412.932 283.568V288.365H410.565V283.473C408.41 283.343 406.285 282.908 404.253 282.179C402.295 281.475 400.463 280.463 398.824 279.181L401.149 274.805C401.589 275.256 402.08 275.655 402.612 275.994C403.324 276.458 404.07 276.869 404.842 277.224C405.751 277.644 406.69 277.996 407.651 278.277C408.682 278.582 409.738 278.797 410.807 278.918V269.45L410.239 269.292C410.046 269.252 409.857 269.2 409.671 269.135C408.244 268.766 406.839 268.316 405.463 267.788C404.379 267.385 403.37 266.805 402.475 266.073C401.705 265.438 401.089 264.636 400.676 263.727C400.233 262.695 400.021 261.578 400.055 260.456C400.026 259.093 400.292 257.74 400.834 256.49C401.339 255.348 402.086 254.328 403.022 253.502C403.99 252.644 405.11 251.977 406.325 251.535C407.679 251.042 409.096 250.744 410.533 250.651V246.033H412.9V250.651C414.78 250.747 416.631 251.148 418.381 251.84C419.953 252.453 421.441 253.262 422.81 254.249L420.538 258.457ZM405.473 259.635C405.436 260.19 405.54 260.746 405.775 261.25C406.011 261.754 406.37 262.19 406.82 262.518C408.075 263.307 409.455 263.876 410.901 264.201V255.206C409.423 255.17 407.975 255.629 406.788 256.511C406.35 256.901 406.005 257.384 405.778 257.924C405.551 258.464 405.446 259.049 405.473 259.635ZM418.697 274.794C418.725 274.193 418.591 273.594 418.31 273.062C418.029 272.53 417.61 272.081 417.098 271.765C415.701 270.934 414.192 270.311 412.616 269.913V278.95C414.186 279.026 415.746 278.662 417.119 277.898C417.631 277.564 418.046 277.102 418.323 276.557C418.6 276.012 418.729 275.405 418.697 274.794Z" fill="#A237EE"/>
</svg>
