<svg width="152" height="151" viewBox="0 0 152 151" fill="none" xmlns="http://www.w3.org/2000/svg">
<g clip-path="url(#clip0_93_5199)">
<mask id="mask0_93_5199" style="mask-type:luminance" maskUnits="userSpaceOnUse" x="0" y="0" width="152" height="151">
<path d="M152 0H0V150.108H152V0Z" fill="white"/>
</mask>
<g mask="url(#mask0_93_5199)">
<mask id="mask1_93_5199" style="mask-type:luminance" maskUnits="userSpaceOnUse" x="0" y="0" width="152" height="151">
<path d="M0 0H152V150.108H0V0Z" fill="white"/>
</mask>
<g mask="url(#mask1_93_5199)">
<g filter="url(#filter0_dd_93_5199)">
<path d="M137.747 152.02L137.167 149.701C137.167 149.667 137.133 149.599 137.167 149.565C137.167 149.531 137.202 149.462 137.202 149.428L137.304 149.326C137.338 149.292 137.372 149.292 137.406 149.258H137.542C137.576 149.258 137.645 149.292 137.679 149.292L137.781 149.394C137.815 149.428 137.815 149.462 137.849 149.531L138.258 151.168L139.894 150.759C139.996 150.724 140.064 150.759 140.166 150.793C140.235 150.827 140.303 150.929 140.303 150.997C140.337 151.1 140.303 151.168 140.269 151.27C140.235 151.338 140.166 151.406 140.064 151.44L137.747 152.02Z" fill="#5D3CF2"/>
<path d="M136.487 146.05C136.419 146.05 136.35 146.016 136.316 145.948C136.248 145.914 136.214 145.846 136.214 145.778L135.26 141.89C135.26 141.856 135.226 141.788 135.26 141.753C135.26 141.719 135.294 141.651 135.294 141.617L135.396 141.515C135.43 141.481 135.464 141.481 135.498 141.447H135.635C135.669 141.447 135.737 141.481 135.771 141.481L135.873 141.583C135.907 141.617 135.907 141.651 135.942 141.719L136.895 145.641C136.895 145.675 136.929 145.743 136.895 145.778C136.895 145.812 136.861 145.88 136.861 145.914L136.759 146.016C136.725 146.05 136.691 146.05 136.657 146.084C136.555 146.05 136.521 146.05 136.487 146.05ZM134.544 138.241C134.476 138.241 134.408 138.207 134.374 138.173C134.306 138.139 134.272 138.071 134.272 138.003L133.317 134.081C133.317 134.047 133.283 133.979 133.317 133.945C133.317 133.911 133.317 133.843 133.351 133.808L133.454 133.706C133.491 133.67 133.539 133.646 133.59 133.638H133.726C133.777 133.646 133.825 133.67 133.862 133.706L133.964 133.808C133.999 133.843 133.999 133.911 133.999 133.945L134.953 137.832C134.987 137.935 134.953 138.003 134.919 138.105C134.885 138.173 134.817 138.241 134.714 138.275C134.646 138.241 134.612 138.241 134.544 138.241ZM132.602 130.432C132.533 130.432 132.465 130.398 132.431 130.329C132.363 130.295 132.329 130.227 132.329 130.159L131.375 126.272V126.135C131.375 126.101 131.409 126.033 131.409 125.999L131.511 125.896C131.545 125.862 131.579 125.862 131.613 125.828H131.749C131.784 125.828 131.852 125.862 131.886 125.862L131.988 125.965C132.023 125.999 132.023 126.033 132.057 126.101L133.011 130.023C133.045 130.125 133.01 130.193 132.976 130.295C132.942 130.364 132.874 130.432 132.772 130.466C132.704 130.432 132.67 130.432 132.602 130.432Z" fill="#5D3CF2"/>
<path d="M130.693 122.624C130.624 122.624 130.556 122.59 130.522 122.522C130.454 122.488 130.42 122.42 130.42 122.352L129.84 120.032L132.158 119.453C132.26 119.453 132.329 119.453 132.397 119.521C132.465 119.555 132.499 119.657 132.533 119.726C132.567 119.795 132.533 119.896 132.499 119.964C132.465 120.032 132.397 120.101 132.295 120.135L130.658 120.544L131.067 122.181V122.318C131.067 122.352 131.034 122.42 130.999 122.454L130.897 122.556C130.863 122.59 130.795 122.59 130.761 122.624H130.693Z" fill="#5D3CF2"/>
<path d="M87.5799 105.948C87.5117 105.914 87.4777 105.846 87.4436 105.778C87.4267 105.74 87.418 105.7 87.418 105.659C87.418 105.618 87.4267 105.577 87.4436 105.539C87.482 105.467 87.5413 105.407 87.6139 105.369C87.682 105.334 87.7508 105.334 87.853 105.334L89.5224 105.642L89.829 103.97C89.829 103.868 89.8977 103.8 89.9658 103.732C90.0339 103.664 90.1361 103.664 90.2383 103.664C90.328 103.688 90.4101 103.735 90.4767 103.8C90.5448 103.868 90.5448 103.97 90.5448 104.073L90.1361 106.392L87.7842 105.982C87.648 105.982 87.6139 105.948 87.5799 105.948Z" fill="#5D3CF2"/>
<path d="M94.8717 76.5505C94.8036 76.5164 94.7696 76.4483 94.7355 76.4143C94.7014 76.3462 94.7014 76.2774 94.7014 76.2093L95.008 74.5386L93.3379 74.2314C93.2697 74.2314 93.2357 74.1973 93.2016 74.1973L93.0995 74.0952C93.0654 74.0611 93.0312 74.0271 93.0312 73.9589V73.8221C93.0398 73.7709 93.0636 73.7234 93.0995 73.6858L93.2016 73.5837C93.2357 73.5496 93.2697 73.5496 93.3038 73.5156H93.44L95.7579 73.9249L95.3485 76.2433C95.3485 76.3462 95.2804 76.4143 95.2123 76.4824C95.1442 76.5505 95.042 76.5505 94.9398 76.5505C94.9398 76.5846 94.9058 76.5846 94.8717 76.5505Z" fill="#5D3CF2"/>
<path d="M90.6469 100.317C90.5788 100.283 90.5447 100.215 90.5107 100.181C90.4766 100.113 90.4766 100.045 90.4766 99.9762L91.1925 96.0204C91.201 95.9692 91.2247 95.9217 91.2606 95.8842L91.3628 95.7814C91.3968 95.7473 91.4649 95.7473 91.499 95.7133H91.6352C91.7374 95.7473 91.8055 95.7814 91.8396 95.8501C91.9083 95.9183 91.9077 96.0204 91.9077 96.1226L91.1925 100.079C91.1925 100.113 91.1584 100.181 91.1584 100.215L91.0563 100.317C91.0222 100.352 90.9534 100.352 90.9194 100.386H90.7832C90.715 100.386 90.681 100.352 90.6469 100.317ZM92.0439 92.4059C91.9758 92.3712 91.9418 92.3031 91.9077 92.269C91.8736 92.2009 91.8736 92.1328 91.8736 92.0646L92.5895 88.1089C92.5895 88.0748 92.6236 88.0067 92.6236 87.9726L92.7257 87.8698C92.7598 87.8358 92.7938 87.8358 92.8279 87.8017H92.9648C92.9988 87.8017 93.0669 87.8358 93.101 87.8358L93.2032 87.9386C93.2372 87.9726 93.2372 88.0067 93.2713 88.0748C93.3053 88.1429 93.2713 88.177 93.2713 88.211L92.5895 92.1668C92.5649 92.2567 92.518 92.3389 92.4533 92.4059C92.3851 92.474 92.283 92.474 92.1808 92.474C92.1127 92.4399 92.0786 92.4399 92.0439 92.4059ZM93.4416 84.4943C93.3735 84.4602 93.3394 84.3915 93.3053 84.3574C93.2713 84.2893 93.2713 84.2212 93.2713 84.1531L93.9871 80.1973C93.9957 80.1461 94.0194 80.0986 94.0553 80.0611L94.1574 79.9583C94.1915 79.9242 94.2596 79.9242 94.2937 79.8901C94.3277 79.8561 94.3958 79.8901 94.4299 79.8901C94.498 79.8901 94.5321 79.9242 94.5661 79.9242L94.6683 80.027C94.7024 80.0611 94.7024 80.0951 94.7364 80.1632V80.2995L94.0212 84.2553C93.9966 84.3451 93.9497 84.4273 93.885 84.4943C93.8162 84.5624 93.714 84.5624 93.6119 84.5624C93.5097 84.5283 93.4756 84.4943 93.4416 84.4943Z" fill="#5D3CF2"/>
<path d="M139.79 22.0234H78.4807C74.1181 22.0234 70.5742 25.5699 70.5742 29.935V181.172C70.5742 185.537 74.1181 189.084 78.4807 189.084H139.79C144.186 189.084 147.696 185.537 147.696 181.172V29.935C147.696 25.5699 144.152 22.0234 139.79 22.0234Z" fill="white"/>
<path d="M140.504 19.125H77.7294C74.9354 19.125 72.2429 20.2502 70.3003 22.194C68.3237 24.1719 67.1992 26.8316 67.1992 29.6282V181.824C67.1992 184.62 68.3237 187.28 70.3003 189.258C71.2752 190.234 72.4335 191.007 73.7084 191.534C74.9834 192.061 76.3499 192.33 77.7294 192.327H140.504C143.299 192.327 145.991 191.236 147.968 189.258C149.945 187.28 151.069 184.62 151.069 181.824V29.6282C151.069 26.8316 149.945 24.1719 147.968 22.194C145.991 20.2161 143.299 19.125 140.504 19.125ZM147.696 181.349C147.696 183.429 146.878 185.441 145.378 186.941C143.879 188.408 141.868 189.26 139.789 189.26H78.4793C76.3665 189.26 74.3558 188.442 72.8907 186.941C71.3908 185.475 70.5728 183.463 70.5728 181.349V30.1056C70.5728 28.0255 71.4249 26.0136 72.8907 24.5131C74.3729 23.0305 76.3828 22.1964 78.4793 22.194H86.2156C86.6249 22.194 87.0336 22.3643 87.3061 22.6374C87.5785 22.9105 87.7494 23.3192 87.7494 23.7285V24.4103C87.7494 25.5015 88.1922 26.5245 88.9421 27.275C89.692 28.0255 90.7484 28.4683 91.8389 28.4683H126.395C126.941 28.4683 127.452 28.3661 127.963 28.1618C128.44 27.9574 128.918 27.6503 129.292 27.275C129.675 26.8967 129.977 26.444 130.178 25.9448C130.383 25.4674 130.485 24.9218 130.485 24.3763V23.7285C130.485 23.3192 130.655 22.9446 130.928 22.6374C131.221 22.3544 131.612 22.1955 132.019 22.194H139.755C141.868 22.194 143.879 23.0127 145.344 24.5131C146.843 25.9795 147.662 27.9915 147.662 30.1056L147.696 181.349Z" fill="url(#paint0_linear_93_5199)"/>
<path d="M70.5781 30.1069V49.3403H147.701V30.1069C147.701 29.0682 147.496 28.0396 147.099 27.08C146.701 26.1204 146.118 25.2486 145.383 24.5144C143.884 23.048 141.873 22.1953 139.794 22.1953H132.058C131.649 22.1953 131.274 22.3656 130.967 22.6387C130.695 22.9112 130.525 23.3205 130.525 23.7298V24.4116C130.525 24.9572 130.422 25.4687 130.217 25.9802C130.013 26.4576 129.707 26.9351 129.332 27.3103C128.957 27.6856 128.514 27.9921 128.002 28.1971C127.526 28.4015 126.98 28.5043 126.435 28.5043H91.8783C90.7878 28.5043 89.7654 28.0609 88.9815 27.311C88.1975 26.5611 87.7888 25.5034 87.7888 24.4463V23.7986C87.7888 23.3892 87.6185 23.0146 87.3454 22.7075C87.073 22.4344 86.6643 22.2641 86.2549 22.2641H78.4853C77.4464 22.2607 76.4172 22.464 75.4576 22.8621C74.4981 23.2603 73.6273 23.8453 72.896 24.5832C72.1634 25.3048 71.5813 26.1648 71.1836 27.1131C70.7858 28.0614 70.5795 29.0786 70.5781 30.1069Z" fill="#EFECF3"/>
<path d="M120.537 37.1328H95.9321C94.8069 37.1328 93.8867 38.0536 93.8867 39.1788C93.8867 40.304 94.8069 41.2248 95.9321 41.2248H120.537C121.662 41.2248 122.582 40.304 122.582 39.1788C122.582 38.0536 121.662 37.1328 120.537 37.1328Z" fill="#D5D2DC"/>
<path d="M136.116 43.1672C138.331 43.1672 140.137 41.3596 140.137 39.1773C140.137 36.961 138.365 35.1875 136.116 35.1875C133.901 35.1875 132.094 36.9951 132.094 39.1773C132.128 41.3942 133.901 43.1672 136.116 43.1672Z" fill="white"/>
<path d="M135.637 37.8125L137 39.1767L135.637 40.541" stroke="#FF9812" stroke-width="0.917" stroke-linecap="round" stroke-linejoin="round"/>
<path d="M79.912 43.1672C82.1277 43.1672 83.9334 41.3596 83.9334 39.1773C83.9334 36.961 82.1277 35.1875 79.912 35.1875C77.6963 35.1875 75.8906 36.9951 75.8906 39.1773C75.8906 41.3942 77.697 43.1672 79.912 43.1672Z" fill="white"/>
<path d="M80.3902 37.8125L79.0273 39.1767L80.3902 40.541" stroke="#5D3CF2" stroke-width="0.917" stroke-linecap="round" stroke-linejoin="round"/>
<path d="M139.141 91.0079H87.9869C87.8028 91.0058 87.6201 91.0405 87.4496 91.11C87.2791 91.1795 87.1243 91.2823 86.9941 91.4126C86.8639 91.5428 86.7611 91.6977 86.6917 91.8682C86.6223 92.0387 86.5877 92.2214 86.5899 92.4055V101.306C86.5899 102.091 87.2376 102.704 87.9869 102.704H139.141C139.325 102.706 139.508 102.672 139.678 102.602C139.849 102.533 140.004 102.43 140.134 102.299C140.264 102.169 140.367 102.014 140.436 101.843C140.506 101.673 140.54 101.49 140.538 101.306V92.4055C140.538 91.6556 139.925 91.0079 139.141 91.0079Z" fill="#FFF2D6"/>
<path d="M83.8652 87.5312H77.186C76.4702 87.5312 75.8906 88.1109 75.8906 88.8274C75.8906 89.5439 76.4702 90.1228 77.186 90.1228H83.8652C84.5811 90.1228 85.1607 89.5432 85.1607 88.8274C85.1607 88.1115 84.5811 87.5312 83.8652 87.5312Z" fill="#EFECF3"/>
<path d="M87.9908 102.736H89.695V91.0391H87.9908C87.6162 91.0391 87.2756 91.1753 87.0025 91.4484C86.7294 91.7215 86.5938 92.0621 86.5938 92.4374V101.304C86.5938 101.474 86.6279 101.679 86.696 101.85C86.7654 102.028 86.8696 102.19 87.0025 102.327C87.1338 102.467 87.2978 102.573 87.4799 102.634C87.6161 102.668 87.8205 102.736 87.9908 102.736Z" fill="#F23C49"/>
<path opacity="0.2" d="M139.141 139.024H87.9869C87.8028 139.022 87.6201 139.057 87.4496 139.126C87.2791 139.196 87.1243 139.299 86.9941 139.429C86.8639 139.559 86.7611 139.714 86.6917 139.885C86.6223 140.055 86.5877 140.238 86.5899 140.422V149.323C86.5899 150.107 87.2376 150.721 87.9869 150.721H139.141C139.325 150.723 139.508 150.688 139.678 150.619C139.849 150.549 140.004 150.446 140.134 150.316C140.264 150.186 140.367 150.031 140.436 149.86C140.506 149.689 140.54 149.507 140.538 149.323V140.422C140.538 139.672 139.925 139.024 139.141 139.024Z" fill="#3C76F2"/>
<path d="M83.8652 135.547H77.186C76.4702 135.547 75.8906 136.127 75.8906 136.843C75.8906 137.559 76.4702 138.139 77.186 138.139H83.8652C84.5811 138.139 85.1607 137.56 85.1607 136.843C85.1607 136.127 84.5811 135.547 83.8652 135.547Z" fill="#EFECF3"/>
<path d="M87.9908 150.723H89.695V138.992H87.9908C87.6162 138.992 87.2756 139.128 87.0025 139.401C86.7294 139.674 86.5938 140.015 86.5938 140.39V149.291C86.5938 149.495 86.6279 149.665 86.696 149.836C86.7654 150.014 86.8696 150.176 87.0025 150.314C87.1338 150.454 87.2978 150.559 87.4799 150.62C87.6161 150.688 87.7865 150.723 87.9908 150.723Z" fill="#FDBC31"/>
<path d="M139.141 62.1251H87.987C87.8029 62.123 87.6202 62.1577 87.4496 62.2273C87.2791 62.2968 87.1242 62.3997 86.994 62.53C86.8639 62.6603 86.7611 62.8153 86.6917 62.9859C86.6223 63.1565 86.5877 63.3392 86.59 63.5234V82.2106C86.59 82.9952 87.2377 83.6088 87.987 83.6088H139.141C139.325 83.6109 139.508 83.5762 139.678 83.5067C139.849 83.4371 140.004 83.3342 140.134 83.2039C140.264 83.0736 140.367 82.9186 140.436 82.7481C140.506 82.5775 140.54 82.3947 140.538 82.2106V63.5234C140.54 63.3392 140.506 63.1565 140.436 62.9859C140.367 62.8153 140.264 62.6603 140.134 62.53C140.004 62.3997 139.849 62.2968 139.678 62.2273C139.508 62.1577 139.325 62.123 139.141 62.1251Z" fill="#F5F4F8"/>
<path d="M83.8652 58.6484H77.186C76.4702 58.6484 75.8906 59.228 75.8906 59.9445C75.8906 60.661 76.4702 61.2406 77.186 61.2406H83.8652C84.5811 61.2406 85.1607 60.661 85.1607 59.9445C85.1607 59.228 84.5811 58.6484 83.8652 58.6484Z" fill="#EFECF3"/>
<path d="M87.9908 83.6087H89.695V62.125H87.9908C87.6162 62.125 87.2756 62.2612 87.0025 62.5343C86.7294 62.8074 86.5938 63.148 86.5938 63.5232V82.2104C86.5938 82.3813 86.6279 82.5857 86.696 82.756C86.7651 82.9341 86.8694 83.0964 87.0025 83.2334C87.1394 83.3703 87.2756 83.4725 87.4459 83.5406C87.6162 83.5746 87.8205 83.6087 87.9908 83.6087Z" fill="#FD5631"/>
<path d="M83.8652 107.992H77.186C76.4702 107.992 75.8906 108.571 75.8906 109.288C75.8906 110.004 76.4702 110.583 77.186 110.583H83.8652C84.5811 110.583 85.1607 110.004 85.1607 109.288C85.1607 108.605 84.5811 107.992 83.8652 107.992Z" fill="#EFECF3"/>
<path d="M139.141 111.508H87.987C87.8029 111.506 87.6202 111.54 87.4496 111.61C87.2791 111.679 87.1242 111.782 86.994 111.913C86.8639 112.043 86.7611 112.198 86.6917 112.368C86.6223 112.539 86.5877 112.722 86.59 112.906V128.865C86.59 129.649 87.2377 130.264 87.987 130.264H139.141C139.325 130.266 139.508 130.231 139.678 130.161C139.849 130.092 140.004 129.989 140.134 129.859C140.264 129.728 140.367 129.573 140.436 129.403C140.506 129.232 140.54 129.049 140.538 128.865V112.906C140.54 112.722 140.506 112.539 140.436 112.368C140.367 112.198 140.264 112.043 140.134 111.913C140.004 111.782 139.849 111.679 139.678 111.61C139.508 111.54 139.325 111.506 139.141 111.508Z" fill="#F5F4F8"/>
<path d="M87.9908 130.266H89.695V111.477H87.9908C87.6162 111.477 87.2756 111.613 87.0025 111.885C86.8715 112.014 86.7677 112.168 86.6975 112.338C86.6273 112.508 86.592 112.69 86.5938 112.874V128.834C86.5938 129.004 86.6279 129.209 86.696 129.38C86.7654 129.558 86.8696 129.72 87.0025 129.857C87.1338 129.997 87.2979 130.103 87.48 130.164C87.6162 130.232 87.8205 130.266 87.9908 130.266Z" fill="#FD5631"/>
<path d="M91.5988 68.8414H91.5307C91.4967 68.8414 91.4626 68.8073 91.4626 68.8073C91.4286 68.7733 91.4286 68.7733 91.4286 68.7392C91.4286 68.7052 91.3945 68.6711 91.3945 68.6711C91.3945 68.6371 91.3945 68.603 91.4286 68.603C91.5648 68.2277 91.7698 67.8525 92.0082 67.4778C92.0422 67.4438 92.0763 67.4097 92.1444 67.375C92.2125 67.375 92.2466 67.375 92.3147 67.4091C92.3488 67.4438 92.3828 67.4778 92.4169 67.5459C92.4169 67.614 92.4169 67.6481 92.3828 67.7162C92.1785 68.0234 91.9741 68.3986 91.8379 68.7392C91.8379 68.7733 91.8038 68.8073 91.7698 68.8073C91.7017 68.8414 91.667 68.8414 91.5988 68.8414Z" fill="#5D3CF2"/>
<path d="M131.465 144.259L123.457 142.008C123.423 142.042 123.423 142.076 123.423 142.076C123.354 142.247 123.354 142.452 123.423 142.622L127.035 151.42C127.103 151.591 127.24 151.761 127.41 151.83L131.465 144.259Z" fill="#3C76F2"/>
<path d="M136.689 79.7266L136.586 79.8282C136.654 79.8282 136.689 79.7607 136.689 79.7266Z" fill="#EFECF3"/>
<path d="M132.671 135.703L128.547 142.932L136.76 145.489C136.76 145.523 136.726 145.591 136.692 145.626C136.757 145.524 136.792 145.406 136.794 145.285C136.794 145.149 136.794 145.046 136.726 144.944L133.114 136.18C133.078 136.078 133.02 135.984 132.943 135.907C132.909 135.805 132.773 135.737 132.671 135.703Z" fill="#3C76F2"/>
<path d="M120.844 116.961H96.2039C95.4881 116.961 94.875 117.541 94.875 118.257C94.875 118.974 95.454 119.553 96.2039 119.553H120.844C121.559 119.553 122.173 118.973 122.173 118.257C122.139 117.541 121.559 116.961 120.844 116.961Z" fill="#A998F5"/>
<path d="M110.483 122.219H96.2039C95.4881 122.219 94.875 122.799 94.875 123.515C94.875 124.23 95.454 124.811 96.2039 124.811H110.483C111.199 124.811 111.812 124.231 111.812 123.515C111.778 122.799 111.199 122.219 110.483 122.219Z" fill="#A998F5"/>
<path d="M122.861 76.8543C125.111 76.8543 126.934 75.0296 126.934 72.7787C126.934 70.5278 125.111 68.7031 122.861 68.7031C120.612 68.7031 118.789 70.5278 118.789 72.7787C118.789 75.0296 120.612 76.8543 122.861 76.8543Z" fill="#FF9812"/>
<path d="M110.647 76.8543C112.896 76.8543 114.719 75.0296 114.719 72.7787C114.719 70.5278 112.896 68.7031 110.647 68.7031C108.397 68.7031 106.574 70.5278 106.574 72.7787C106.574 75.0296 108.397 76.8543 110.647 76.8543Z" fill="#FF9812"/>
<path d="M97.7482 76.8543C99.9974 76.8543 101.82 75.0296 101.82 72.7787C101.82 70.5278 99.9974 68.7031 97.7482 68.7031C95.4991 68.7031 93.6758 70.5278 93.6758 72.7787C93.6758 75.0296 95.4991 76.8543 97.7482 76.8543Z" fill="#FF9812"/>
</g>
<g filter="url(#filter1_dd_93_5199)">
<path d="M78.4225 152.273L77.7785 149.696C77.7785 149.658 77.7407 149.582 77.7785 149.544C77.7785 149.507 77.8164 149.43 77.8164 149.392L77.9299 149.279C77.9677 149.241 78.0056 149.241 78.0434 149.203H78.1948C78.2326 149.203 78.309 149.241 78.3468 149.241L78.4603 149.355C78.4982 149.392 78.4982 149.431 78.536 149.507L78.9907 151.326L80.8091 150.871C80.9226 150.833 80.9983 150.871 81.1118 150.909C81.1881 150.947 81.2638 151.061 81.2638 151.136C81.3016 151.25 81.2638 151.326 81.2253 151.44C81.1875 151.515 81.1124 151.592 80.9983 151.63L78.4225 152.273Z" fill="#5D3CF2"/>
<path d="M77.0225 145.643C76.9834 145.644 76.9449 145.634 76.9115 145.614C76.878 145.593 76.8509 145.564 76.8333 145.529C76.7985 145.512 76.7694 145.484 76.7494 145.451C76.7293 145.418 76.719 145.379 76.7197 145.34L75.6589 141.019C75.6589 140.981 75.621 140.904 75.6589 140.867C75.6589 140.829 75.6967 140.753 75.6967 140.715L75.8102 140.602C75.8481 140.564 75.8859 140.564 75.9238 140.526H76.0758C76.1136 140.526 76.1893 140.564 76.2271 140.564L76.3407 140.677C76.3785 140.715 76.3785 140.753 76.4164 140.829L77.4772 145.188C77.4772 145.226 77.515 145.302 77.4772 145.34C77.4772 145.378 77.4394 145.454 77.4394 145.491L77.3258 145.605C77.288 145.643 77.2501 145.643 77.2123 145.681C77.0981 145.643 77.0603 145.643 77.0225 145.643ZM74.8629 136.962C74.7872 136.962 74.7116 136.925 74.6737 136.886C74.639 136.868 74.6099 136.841 74.5898 136.808C74.5697 136.774 74.5595 136.736 74.5602 136.697L73.4993 132.337C73.4993 132.3 73.4615 132.224 73.4993 132.186C73.4993 132.148 73.4993 132.072 73.5372 132.034L73.6507 131.921C73.6886 131.883 73.7649 131.845 73.8027 131.845H73.9541C73.9919 131.845 74.0676 131.883 74.1055 131.921L74.219 132.034C74.2568 132.072 74.2568 132.148 74.2568 132.186L75.3177 136.507C75.3555 136.621 75.3177 136.697 75.2798 136.81C75.242 136.887 75.1663 136.962 75.0528 137C74.9771 136.962 74.9392 136.962 74.8629 136.962ZM72.704 128.281C72.6649 128.282 72.6264 128.272 72.5928 128.252C72.5592 128.232 72.532 128.203 72.5142 128.168C72.4385 128.129 72.4007 128.054 72.4007 127.978L71.3398 123.656V123.505C71.3398 123.467 71.3777 123.391 71.3777 123.353L71.4918 123.24C71.5297 123.202 71.5675 123.202 71.6053 123.164H71.7567C71.7946 123.164 71.8702 123.202 71.9081 123.202L72.0222 123.315C72.0601 123.353 72.0601 123.392 72.0979 123.467L73.1581 127.827C73.1966 127.94 73.1581 128.016 73.1203 128.13C73.0824 128.206 73.0068 128.281 72.8932 128.319C72.8176 128.281 72.7797 128.281 72.704 128.281Z" fill="#5D3CF2"/>
<path d="M70.5762 119.603C70.5372 119.603 70.4988 119.593 70.4653 119.573C70.4319 119.553 70.4047 119.524 70.387 119.489C70.3113 119.451 70.2728 119.376 70.2728 119.299L69.6289 116.722L72.2053 116.078C72.3189 116.078 72.3945 116.078 72.4702 116.153C72.5459 116.191 72.5838 116.305 72.6216 116.38C72.6594 116.456 72.6216 116.57 72.5838 116.646C72.5459 116.722 72.4702 116.798 72.3567 116.836L70.5384 117.291L70.9925 119.11V119.261C70.9925 119.299 70.9553 119.376 70.9174 119.413L70.8033 119.527C70.7654 119.565 70.6897 119.565 70.6519 119.603H70.5762Z" fill="#5D3CF2"/>
<path d="M22.6522 101.063C22.5765 101.025 22.538 100.95 22.5008 100.874C22.4636 100.798 22.463 100.684 22.5008 100.608C22.5387 100.533 22.6144 100.457 22.69 100.419C22.7657 100.381 22.8414 100.381 22.9556 100.381L24.8117 100.723L25.1529 98.8646C25.1529 98.751 25.2286 98.6754 25.3043 98.5997C25.38 98.524 25.4935 98.5234 25.6071 98.5234C25.7069 98.551 25.7982 98.6032 25.8726 98.6754C25.9483 98.751 25.9483 98.8646 25.9483 98.9787L25.4935 101.556L22.8793 101.102C22.7279 101.102 22.69 101.063 22.6522 101.063Z" fill="#5D3CF2"/>
<path d="M30.7635 68.3893C30.6879 68.3514 30.65 68.2757 30.6122 68.2379C30.5743 68.1622 30.5743 68.0859 30.5743 68.0102L30.9155 66.1528L29.0594 65.8116C28.9837 65.8116 28.9458 65.7737 28.908 65.7737L28.7945 65.6602C28.7566 65.6224 28.7188 65.5845 28.7188 65.5088V65.3568C28.7188 65.319 28.7566 65.2433 28.7945 65.2055L28.908 65.0913C28.9458 65.0535 28.9837 65.0535 29.0215 65.0156H29.1729L31.7493 65.4704L31.2945 68.0481C31.2945 68.1622 31.2189 68.2379 31.1432 68.3136C31.0675 68.3893 30.954 68.3893 30.8399 68.3893C30.8399 68.4271 30.8014 68.4271 30.7635 68.3893Z" fill="#5D3CF2"/>
<path d="M26.0642 94.8094C25.9885 94.7716 25.95 94.6959 25.9128 94.6581C25.875 94.5818 25.875 94.5061 25.875 94.4304L26.6703 90.0331C26.6703 89.9953 26.7081 89.9196 26.746 89.8811L26.8595 89.7676C26.8974 89.7297 26.973 89.7297 27.0109 89.6919H27.1623C27.2758 89.7297 27.3515 89.7676 27.3899 89.8433C27.4656 89.9196 27.4656 90.0331 27.4656 90.1466L26.6703 94.5439C26.6703 94.5818 26.6325 94.6581 26.6325 94.6959L26.5189 94.8094C26.4811 94.8473 26.4054 94.8473 26.3676 94.8851H26.2162C26.1405 94.8851 26.102 94.8473 26.0642 94.8094ZM27.617 86.0149C27.5413 85.977 27.5035 85.9014 27.4656 85.8635C27.4278 85.7872 27.4278 85.7115 27.4278 85.6358L28.2231 81.2385C28.2231 81.2007 28.2609 81.1244 28.2609 81.0866L28.3745 80.973C28.4123 80.9352 28.4502 80.9352 28.488 80.8973H28.6394C28.6772 80.8973 28.7529 80.9352 28.7907 80.9352L28.9043 81.0487C28.9421 81.0866 28.9421 81.125 28.9799 81.2007C29.0178 81.2764 28.9799 81.3142 28.9799 81.3521L28.2225 85.7494C28.1846 85.8635 28.1468 85.9392 28.0711 86.0149C27.9954 86.0906 27.8819 86.0906 27.7684 86.0906C27.6927 86.0527 27.6548 86.0527 27.617 86.0149ZM29.1704 77.2203C29.0947 77.1825 29.0569 77.1068 29.0191 77.0683C28.9812 76.9926 28.9812 76.917 28.9812 76.8413L29.7765 72.444C29.7765 72.4062 29.8144 72.3298 29.8522 72.292L29.9657 72.1785C30.0036 72.1406 30.0793 72.1406 30.1171 72.1028C30.155 72.0649 30.2306 72.1028 30.2685 72.1028C30.3442 72.1028 30.382 72.1406 30.4198 72.1406L30.5334 72.2542C30.5712 72.292 30.5712 72.3298 30.6091 72.4062V72.5575L29.8137 76.9548C29.7866 77.0547 29.7345 77.1461 29.6624 77.2203C29.5867 77.296 29.4732 77.296 29.359 77.296C29.2455 77.2582 29.2083 77.2203 29.1704 77.2203Z" fill="#5D3CF2"/>
<path d="M80.6929 7.77344H12.5389C7.69002 7.77344 3.75 11.716 3.75 16.568V184.689C3.75 189.541 7.69002 193.483 12.5389 193.483H80.6929C85.5802 193.483 89.4824 189.541 89.4824 184.689V16.568C89.4824 11.716 85.5424 7.77344 80.6929 7.77344Z" fill="white"/>
<path d="M81.4871 4.54688H11.7059C8.59967 4.54688 5.60697 5.79756 3.44744 7.95836C1.25006 10.157 0 13.1137 0 16.2225V185.403C0 188.511 1.25006 191.468 3.44744 193.667C5.64481 195.865 8.59967 197.078 11.7059 197.078H81.4871C84.5934 197.078 87.5861 195.865 89.7834 193.667C91.9808 191.468 93.2309 188.511 93.2309 185.403V16.2225C93.2309 13.1137 91.9808 10.157 89.7834 7.95836C87.5861 5.75972 84.5934 4.54688 81.4871 4.54688ZM89.4807 184.878C89.4809 186.033 89.2534 187.176 88.8113 188.243C88.3692 189.31 87.7212 190.279 86.9043 191.095C85.2373 192.725 83.0021 193.672 80.6912 193.672H12.5372C10.1884 193.672 7.95319 192.762 6.32408 191.095C4.65713 189.464 3.74765 187.228 3.74765 184.878V16.7573C3.74765 14.4451 4.69497 12.2087 6.32408 10.5404C7.95319 8.91009 10.1884 7.96278 12.5372 7.96278H21.1368C21.5916 7.96278 22.0457 8.15199 22.349 8.45536C22.6524 8.75873 22.8416 9.21345 22.8416 9.66819V10.4263C22.8416 11.6391 23.3342 12.7763 24.1674 13.6107C25.0005 14.4451 26.1749 14.9377 27.3871 14.9377H65.8009C66.3984 14.9381 66.9903 14.8222 67.5435 14.5965C68.0739 14.3688 68.6043 14.0276 69.0206 13.6107C69.4369 13.1938 69.7787 12.7012 70.0058 12.1323C70.2335 11.6019 70.347 10.9952 70.347 10.3884V9.66819C70.347 9.21345 70.5362 8.79657 70.8389 8.45536C71.1645 8.14074 71.5991 7.96423 72.0518 7.96278H80.6508C82.9996 7.96278 85.2354 8.87225 86.8639 10.5404C88.5309 12.1702 89.4403 14.4067 89.4403 16.7573L89.4782 184.878H89.4807Z" fill="url(#paint1_linear_93_5199)"/>
<path d="M3.75 16.7555V38.1358H89.4818V16.7555C89.4818 14.4433 88.5723 12.2069 86.9053 10.5386C85.2384 8.90826 83.0032 7.96094 80.6923 7.96094H72.0932C71.6385 7.96094 71.2216 8.15016 70.8804 8.45353C70.5776 8.75689 70.3884 9.21163 70.3884 9.66637V10.4245C70.3884 11.0312 70.2743 11.5995 70.0472 12.1684C69.8201 12.6988 69.4789 13.2299 69.062 13.6468C68.6451 14.0637 68.1532 14.4049 67.5849 14.6326C67.0545 14.8602 66.4484 14.9738 65.8423 14.9738H27.4279C26.2157 14.9738 25.0792 14.4812 24.2082 13.6468C23.3372 12.8123 22.8824 11.6373 22.8824 10.4623V9.74206C22.8824 9.28732 22.6932 8.87042 22.3898 8.52921C22.0645 8.21475 21.6301 8.03825 21.1776 8.03663H12.5401C10.1914 8.03663 7.99402 8.94674 6.32707 10.6143C4.69795 12.2062 3.75 14.4427 3.75 16.7555Z" fill="#EFECF3"/>
<path d="M59.289 24.5625H31.9372C30.6871 24.5625 29.6641 25.5861 29.6641 26.8368C29.6641 28.0875 30.6871 29.1111 31.9372 29.1111H59.289C60.539 29.1111 61.562 28.0875 61.562 26.8368C61.562 25.5861 60.539 24.5625 59.289 24.5625Z" fill="#D5D2DC"/>
<path d="M76.5994 31.2686C79.0616 31.2686 81.0698 29.2598 81.0698 26.8335C81.0698 24.3693 79.1001 22.3984 76.5994 22.3984C74.1371 22.3984 72.1289 24.4078 72.1289 26.8335C72.1668 29.2977 74.1371 31.2686 76.5994 31.2686Z" fill="white"/>
<path d="M76.0703 25.3203L77.5859 26.8365L76.0703 28.3527" stroke="#FF9812" stroke-width="0.917" stroke-linecap="round" stroke-linejoin="round"/>
<path d="M14.1306 31.2686C16.5928 31.2686 18.601 29.2598 18.601 26.8335C18.601 24.3693 16.5935 22.3984 14.1306 22.3984C11.6676 22.3984 9.66016 24.4078 9.66016 26.8335C9.66016 29.2977 11.6683 31.2686 14.1306 31.2686Z" fill="white"/>
<path d="M14.6601 25.3203L13.1445 26.8365L14.6601 28.3527" stroke="#FF9812" stroke-width="0.917" stroke-linecap="round" stroke-linejoin="round"/>
<path d="M79.9719 84.4531H23.1081C22.2365 84.4531 21.5547 85.1348 21.5547 86.0071V95.901C21.5547 96.7726 22.2743 97.455 23.1081 97.455H79.9719C80.8429 97.455 81.5253 96.7726 81.5253 95.901V86.0071C81.5253 85.1733 80.8429 84.4531 79.9719 84.4531Z" fill="#FFCBCE"/>
<path d="M18.5253 80.5859H11.1C10.3047 80.5859 9.66016 81.2305 9.66016 82.0265C9.66016 82.8224 10.3041 83.467 11.1 83.467H18.5253C19.3206 83.467 19.9652 82.8224 19.9652 82.0265C19.9652 81.2305 19.3213 80.5859 18.5253 80.5859Z" fill="#EFECF3"/>
<path d="M23.1121 97.502H25.0061V84.5H23.1121C22.6952 84.5 22.3168 84.6514 22.0134 84.9548C21.8676 85.098 21.7522 85.2692 21.674 85.4581C21.5959 85.647 21.5567 85.8497 21.5587 86.0541V95.9101C21.5587 96.1 21.5965 96.327 21.6722 96.5169C21.7494 96.7147 21.8654 96.8951 22.0134 97.0473C22.1648 97.1993 22.3162 97.3128 22.5439 97.3885C22.6952 97.4264 22.9229 97.502 23.1121 97.502Z" fill="#F23C49"/>
<path d="M79.9719 137.836H23.1081C22.2365 137.836 21.5547 138.519 21.5547 139.39V149.285C21.5547 150.157 22.2743 150.839 23.1081 150.839H79.9719C80.8429 150.839 81.5253 150.157 81.5253 149.285V139.39C81.5253 138.557 80.8429 137.836 79.9719 137.836Z" fill="#FDBC31" fill-opacity="0.2"/>
<path d="M18.5253 133.969H11.1C10.3047 133.969 9.66016 134.614 9.66016 135.41C9.66016 136.206 10.3041 136.85 11.1 136.85H18.5253C19.3206 136.85 19.9652 136.206 19.9652 135.41C19.9652 134.614 19.3213 133.969 18.5253 133.969Z" fill="#EFECF3"/>
<path d="M23.1121 150.829H25.0061V137.789H23.1121C22.6952 137.789 22.3168 137.94 22.0134 138.243C21.8676 138.387 21.7522 138.558 21.674 138.747C21.5959 138.936 21.5567 139.138 21.5587 139.343V149.237C21.556 149.444 21.5946 149.651 21.6722 149.843C21.7479 150.033 21.8614 150.222 22.0134 150.374C22.1654 150.526 22.3162 150.639 22.5439 150.715C22.6952 150.791 22.8851 150.829 23.1121 150.829Z" fill="#FDBC31"/>
<path d="M79.9719 52.3516H23.1081C22.2365 52.3516 21.5547 53.0341 21.5547 53.9057V74.6792C21.5547 75.5515 22.2743 76.2333 23.1081 76.2333H79.9719C80.8429 76.2333 81.5253 75.5515 81.5253 74.6792V53.9057C81.5253 53.0341 80.8429 52.3516 79.9719 52.3516Z" fill="#F5F4F8"/>
<path d="M18.5253 48.4844H11.1C10.3047 48.4844 9.66016 49.129 9.66016 49.9249C9.66016 50.7209 10.3041 51.3654 11.1 51.3654H18.5253C19.3206 51.3654 19.9652 50.7209 19.9652 49.9249C19.9652 49.129 19.3213 48.4844 18.5253 48.4844Z" fill="#EFECF3"/>
<path d="M23.112 76.2332H25.006V52.3516H23.112C22.6951 52.3516 22.3167 52.5036 22.0133 52.8063C21.71 53.1091 21.5586 53.4887 21.5586 53.9056V74.6792C21.5586 74.869 21.5964 75.0961 21.6721 75.2859C21.7493 75.4837 21.8653 75.6641 22.0133 75.8163C22.1647 75.9683 22.3161 76.0819 22.5059 76.1576C22.6951 76.1954 22.9228 76.2332 23.112 76.2332Z" fill="#FF9812"/>
<path d="M18.5253 103.336H11.1C10.3047 103.336 9.66016 103.98 9.66016 104.776C9.66016 105.572 10.3041 106.217 11.1 106.217H18.5253C19.3206 106.217 19.9652 105.572 19.9652 104.776C19.9652 104.018 19.3213 103.336 18.5253 103.336Z" fill="#EFECF3"/>
<path d="M79.9719 107.234H23.1081C22.2365 107.234 21.5547 107.916 21.5547 108.789V126.529C21.5547 127.401 22.2743 128.083 23.1081 128.083H79.9719C80.8429 128.083 81.5253 127.401 81.5253 126.529V108.789C81.5253 107.916 80.8429 107.234 79.9719 107.234Z" fill="#F5F4F8"/>
<path d="M23.1121 128.09H25.0061V107.203H23.1121C22.6952 107.203 22.3168 107.354 22.0134 107.658C21.8676 107.801 21.7522 107.972 21.674 108.161C21.5959 108.35 21.5567 108.553 21.5587 108.757V126.498C21.5596 126.705 21.5981 126.911 21.6722 127.104C21.7479 127.294 21.8614 127.483 22.0134 127.635C22.1654 127.787 22.3162 127.9 22.5439 127.976C22.6952 128.052 22.9229 128.09 23.1121 128.09Z" fill="#FF9812"/>
<path d="M27.1216 59.8166H27.0459C27.008 59.8166 26.9702 59.7787 26.9702 59.7787C26.9324 59.7409 26.9324 59.7409 26.9324 59.7031C26.9324 59.6652 26.8945 59.6274 26.8945 59.6274C26.8945 59.5895 26.8945 59.5517 26.9324 59.5517C27.0837 59.1348 27.3114 58.7179 27.5763 58.301C27.6142 58.2632 27.652 58.2253 27.7277 58.1875C27.8034 58.1875 27.8412 58.1875 27.9169 58.2253C27.9636 58.2685 28.0021 58.3197 28.0304 58.3767C28.0304 58.4524 28.0304 58.4902 27.9926 58.5659C27.7655 58.9071 27.5378 59.324 27.3865 59.7031C27.385 59.7226 27.3766 59.7411 27.3627 59.755C27.3488 59.7688 27.3304 59.7773 27.3108 59.7787C27.2527 59.8093 27.187 59.8225 27.1216 59.8166Z" fill="#FF9812"/>
<path d="M63.9863 72.1356H63.9106L63.6078 72.022L61.2969 71.2261C61.2591 71.1883 61.1834 71.1498 61.1834 71.1119C61.1456 71.0741 61.1456 70.9984 61.1834 70.9227C61.1834 70.847 61.2591 70.8092 61.2969 70.8092C61.3348 70.7707 61.4105 70.7707 61.4483 70.8092L63.7592 71.6051L64.0626 71.7187C64.1004 71.7187 64.1004 71.7565 64.1383 71.7565L64.2139 71.8322C64.2139 71.87 64.2518 71.9086 64.2518 71.9086V71.9842C64.2518 72.022 64.2139 72.06 64.1761 72.0978C64.0626 72.1357 64.0241 72.1356 63.9863 72.1356ZM58.8347 70.2025H58.7211C57.8731 69.8127 57.0507 69.3695 56.2589 68.8755C56.221 68.8755 56.221 68.8376 56.1832 68.7998C56.1832 68.7619 56.1453 68.7619 56.1453 68.7241V68.6484C56.1453 68.6099 56.1832 68.5721 56.1832 68.5721C56.221 68.5342 56.2589 68.4964 56.3345 68.4586C56.3999 68.4527 56.4656 68.4658 56.5238 68.4964C57.2812 68.9896 58.0772 69.4444 58.9103 69.8235C58.986 69.8613 59.0239 69.8991 59.0239 69.9369C59.0617 69.9748 59.0617 70.0506 59.0239 70.1269C58.986 70.1647 58.986 70.2025 58.9482 70.2025H58.8347ZM54.175 67.208H54.0615C54.0236 67.208 54.0236 67.17 53.9858 67.17C53.2662 66.5254 52.6601 65.843 52.1296 65.0471C52.0918 65.0092 52.0918 65.0093 52.0918 64.9709V64.8573C52.0918 64.8195 52.0918 64.7816 52.1296 64.7816C52.1296 64.7438 52.1675 64.7438 52.2053 64.706C52.2432 64.6681 52.281 64.668 52.3188 64.668H52.4324C52.4702 64.668 52.5081 64.706 52.5459 64.706L52.6216 64.7816C53.152 65.5398 53.7581 66.2221 54.4021 66.8667C54.4399 66.9045 54.4777 66.9424 54.4777 66.9803V67.0937C54.4399 67.1316 54.4399 67.1701 54.4021 67.208H54.175ZM50.9931 62.6964C50.9553 62.6964 50.9174 62.6964 50.8796 62.6586C50.8417 62.6207 50.8039 62.5829 50.8039 62.5451C50.4248 61.6734 50.1599 60.7633 50.0086 59.8538C50.0086 59.7782 50.0086 59.7403 50.0464 59.6646C50.0843 59.6268 50.1221 59.5889 50.1978 59.5511H50.3113C50.3491 59.5511 50.387 59.5889 50.387 59.5889C50.4248 59.5889 50.4248 59.6268 50.4627 59.6646C50.4627 59.7025 50.5005 59.7025 50.5005 59.7403C50.6519 60.612 50.9174 61.4842 51.258 62.318C51.258 62.3559 51.2958 62.3937 51.2958 62.3937C51.2958 62.3937 51.2958 62.4694 51.258 62.4694C51.258 62.5072 51.2202 62.5072 51.2202 62.5451C51.2202 62.5829 51.1823 62.5829 51.1445 62.5829L50.9931 62.6964ZM52.3945 59.7018C51.8641 59.7397 51.3715 59.7018 50.8411 59.664C50.8033 59.664 50.7654 59.664 50.7654 59.6262C50.7276 59.6262 50.7276 59.5883 50.6897 59.5505C50.6519 59.5126 50.6519 59.4369 50.6519 59.3991C50.6519 59.3234 50.6897 59.2856 50.7276 59.2477C50.7654 59.2099 50.8411 59.2099 50.8789 59.2099C51.3715 59.2477 51.8641 59.2856 52.3567 59.2477L53.5689 59.1342H53.6446C53.6824 59.1342 53.7203 59.1342 53.7203 59.172C53.7581 59.172 53.7581 59.2099 53.796 59.2477C53.796 59.2856 53.8338 59.2856 53.8338 59.3234V59.3991C53.8338 59.4369 53.796 59.4748 53.796 59.4748L53.7203 59.5505C53.6824 59.5505 53.6824 59.5883 53.6446 59.5883L52.3945 59.7018ZM48.1518 59.0573H48.0761C47.1666 58.7917 46.2956 58.4505 45.4624 58.0715C45.4246 58.0715 45.3868 58.0336 45.3868 58.0336L45.3111 57.9579V57.8066C45.3111 57.7687 45.3489 57.7687 45.3868 57.7309C45.3868 57.693 45.4246 57.693 45.4624 57.693H45.6517L48.2281 58.641C48.2659 58.641 48.3038 58.6788 48.3038 58.6788C48.3416 58.6788 48.3416 58.7167 48.3416 58.7545C48.3795 58.7924 48.3795 58.7924 48.3795 58.8302C48.3795 58.868 48.3795 58.9059 48.3416 58.9059C48.3416 58.9437 48.3038 58.9816 48.2659 59.0194C48.2281 59.0573 48.1896 59.0573 48.1518 59.0573ZM56.221 58.6025C56.1832 58.6025 56.1453 58.6025 56.1075 58.5647C56.0696 58.5268 56.0318 58.5268 55.994 58.489C55.9561 58.4512 55.9561 58.3755 55.9561 58.2998C55.9561 58.2241 55.994 58.1863 56.0696 58.1484C56.4865 57.9207 56.8271 57.618 57.2062 57.2768C57.5095 56.9734 57.7366 56.6322 57.9258 56.291L58.0393 56.1775H58.2285C58.2664 56.2153 58.3421 56.2531 58.3421 56.3288C58.3799 56.4045 58.3421 56.4424 58.3421 56.5187C58.1202 56.9243 57.8394 57.2947 57.5089 57.618C57.1677 57.997 56.7514 58.3004 56.2967 58.5659C56.2967 58.6038 56.2589 58.6038 56.221 58.6038V58.6025ZM50.0079 57.2755C49.9701 57.2755 49.9323 57.2755 49.9323 57.2377C49.8944 57.2377 49.8566 57.1998 49.8566 57.1998C49.8187 57.162 49.8187 57.162 49.8187 57.1242V57.0485C49.8944 56.1005 50.1221 55.1532 50.5005 54.2809C50.5384 54.2431 50.5762 54.1674 50.614 54.1674C50.6519 54.1674 50.7276 54.1296 50.8033 54.1674C50.8411 54.2052 50.9168 54.2431 50.9168 54.2809C50.9546 54.3566 50.9168 54.3945 50.9168 54.4701C50.5756 55.304 50.3485 56.1762 50.2728 57.0478C50.2728 57.1235 50.2728 57.1614 50.1971 57.1992C50.1453 57.2465 50.0781 57.274 50.0079 57.2755ZM42.9617 57.01H42.8482L41.9387 56.6309L40.2717 56.0243C40.2339 56.0243 40.2339 55.9864 40.1961 55.9864L40.1204 55.9107C40.1204 55.8728 40.0825 55.8728 40.0825 55.835V55.7593C40.0825 55.7215 40.1204 55.7215 40.1204 55.6836C40.1204 55.6458 40.1582 55.6458 40.1961 55.6458C40.2339 55.6458 40.2339 55.6079 40.2717 55.6079H40.3474L42.0522 56.2525L42.9617 56.6316C42.9995 56.6316 42.9995 56.6694 43.0374 56.6694C43.0374 56.7073 43.0752 56.7073 43.0752 56.7451V56.8965C43.0374 56.9343 43.0374 56.9721 42.9995 56.9721C43.0752 56.9721 43.0374 57.01 42.9617 57.01ZM29.6645 56.6688C29.6267 56.6688 29.551 56.6688 29.551 56.6309L29.4375 56.5174V56.366C29.4753 56.3282 29.4753 56.2904 29.551 56.2525C30.3463 55.7221 31.218 55.3046 32.1274 55.0397H32.2031C32.241 55.0397 32.2788 55.0397 32.3166 55.0775C32.3545 55.0775 32.3545 55.1154 32.3923 55.1154C32.3923 55.1532 32.4302 55.1532 32.4302 55.191C32.4302 55.2289 32.468 55.2667 32.4302 55.2667C32.4302 55.3046 32.4302 55.3424 32.3923 55.3424C32.3923 55.3802 32.3545 55.3803 32.3166 55.4181C32.2788 55.4559 32.2788 55.4559 32.241 55.4559C31.3693 55.7215 30.5362 56.1005 29.8165 56.6309C29.8165 56.6688 29.7402 56.6688 29.6645 56.6688ZM37.6959 55.3039H37.6203C36.7108 55.1526 35.8019 55.0384 34.8924 55.0763H34.7789C34.7411 55.0763 34.7411 55.0384 34.7032 55.0384C34.6654 55.0006 34.6654 55.0006 34.6654 54.9627C34.6654 54.9249 34.6276 54.9249 34.6276 54.887C34.6276 54.8114 34.6654 54.7735 34.7032 54.7357C34.7411 54.6978 34.8168 54.66 34.8546 54.66C35.7938 54.6589 36.7314 54.7351 37.6581 54.8877C37.6959 54.8877 37.7338 54.8877 37.7338 54.9255C37.7716 54.9255 37.7716 54.9634 37.8095 55.0012C37.8473 55.039 37.8473 55.0391 37.8473 55.077V55.1526C37.8473 55.1904 37.8095 55.2283 37.7716 55.2661C37.8095 55.2661 37.7716 55.3039 37.6959 55.3039ZM58.759 54.0154C58.6833 54.0154 58.6454 54.0154 58.6076 53.9397C58.5698 53.9019 58.5319 53.8262 58.5319 53.7884C58.4941 53.0681 58.1913 52.3857 57.6609 51.8931C57.5474 51.7796 57.4339 51.7039 57.3197 51.6276C57.2819 51.5897 57.244 51.5519 57.244 51.4762C57.244 51.4383 57.244 51.3627 57.2819 51.3248C57.3197 51.287 57.3575 51.2491 57.4332 51.2491H57.5846C57.736 51.3627 57.8501 51.4383 57.9637 51.5525C58.5698 52.1214 58.911 52.9173 58.9867 53.7511C58.9867 53.8268 58.9488 53.8647 58.911 53.9025C58.911 53.9782 58.8347 54.0154 58.759 54.0154ZM52.3182 52.3857C52.2804 52.3857 52.2425 52.3857 52.2047 52.3478C52.1851 52.3464 52.1667 52.3379 52.1528 52.324C52.1389 52.3101 52.1305 52.2917 52.129 52.2721C52.0912 52.2343 52.0912 52.2343 52.0912 52.1964V52.1208C52.0912 52.0829 52.0912 52.0451 52.129 52.0451C52.129 52.0072 52.1668 52.0072 52.2047 51.9694C52.9243 51.3627 53.8338 50.9079 54.7805 50.7188C54.8562 50.7188 54.894 50.7187 54.9319 50.7566C55.0075 50.7944 55.0075 50.8322 55.0454 50.9079C55.0454 50.9836 55.0454 51.0214 55.0075 51.0971C54.9697 51.1728 54.9319 51.1728 54.8562 51.1728C53.9845 51.362 53.1514 51.7411 52.4696 52.31C52.3939 52.3478 52.3561 52.3478 52.3182 52.3857Z" fill="#FF9812"/>
<path d="M67.8134 73.7995C67.7377 73.7995 67.6999 73.7995 67.6621 73.7617C67.3209 73.4968 66.9418 73.2691 66.5634 73.1177C66.5255 73.0793 66.4492 73.0414 66.4492 73.0036V72.8144C66.4877 72.7765 66.5255 72.7002 66.5634 72.7002C66.6012 72.6624 66.6769 72.6624 66.7147 72.7002C67.1695 72.8901 67.5485 73.1177 67.927 73.4205C67.927 73.4583 67.9648 73.4583 67.9648 73.4968V73.6482C67.9648 73.686 67.927 73.686 67.927 73.7238C67.8891 73.7617 67.8513 73.7617 67.8134 73.7995Z" fill="#5D3CF2"/>
<path d="M66.3327 68.2706C66.1813 68.2327 66.0293 68.2327 65.878 68.2706C65.7266 68.3462 65.6131 68.4226 65.5752 68.5739L60.1953 78.7712C60.3088 78.809 60.423 78.8469 60.5365 78.8469C60.65 78.8469 60.7636 78.8469 60.8777 78.7712L76.8642 72.2131C76.9779 72.1729 77.0815 72.1083 77.1676 72.0239C77.2519 71.9377 77.3164 71.8342 77.3568 71.7205L66.3327 68.2706Z" fill="#FF9812" fill-opacity="0.5"/>
<path d="M66.5209 70.8831C66.6723 70.9209 66.8236 70.9209 66.9372 70.8452C67.0513 70.8074 67.2027 70.6932 67.2405 70.5797L72.7712 60.875H72.5063C72.4306 60.8372 72.2786 60.875 72.1651 60.9129L56.1786 67.471C56.0846 67.5087 55.9991 67.5651 55.9275 67.6368C55.8558 67.7084 55.7994 67.7938 55.7617 67.8879L66.5209 70.8831Z" fill="white"/>
<path d="M64.6649 70.3536L55.7625 67.8516C55.7247 67.8901 55.7247 67.9279 55.7247 67.9279C55.649 68.1171 55.649 68.3448 55.7247 68.534L59.7404 78.3143C59.816 78.5042 59.968 78.6934 60.1573 78.7691L64.6649 70.3536Z" fill="#EFECF3"/>
<path d="M77.2424 71.9141L77.1289 72.0277C77.2046 72.0277 77.2424 71.952 77.2424 71.9141Z" fill="#EFECF3"/>
<path d="M72.7715 60.8365L68.1875 68.873L77.3176 71.7162C77.3176 71.754 77.2798 71.8297 77.2419 71.8676C77.3139 71.754 77.3532 71.6229 77.3555 71.4885C77.3555 71.3372 77.3555 71.223 77.2798 71.1095L73.2641 61.367C73.2239 61.2532 73.1593 61.1497 73.0749 61.0636C73.037 60.9501 72.885 60.875 72.7715 60.8365Z" fill="#EFECF3"/>
<path d="M50.5352 137.836C50.72 139.805 51.6399 141.633 53.1116 142.954C54.5765 144.276 56.4797 145.008 58.4531 145.008C60.4264 145.008 62.3296 144.276 63.7945 142.954C65.2716 141.628 66.1811 139.808 66.3709 137.836H50.5352Z" fill="#FDBC31"/>
<path d="M59.6291 113.305H32.2395C31.4441 113.305 30.7617 113.95 30.7617 114.746C30.7617 115.542 31.4057 116.186 32.2395 116.186H59.6291C60.4244 116.186 61.1068 115.542 61.1068 114.746C61.069 113.95 60.4244 113.305 59.6291 113.305Z" fill="#D5D2DC"/>
<path d="M48.1124 119.148H32.2395C31.4441 119.148 30.7617 119.791 30.7617 120.588C30.7617 121.385 31.4057 122.029 32.2395 122.029H48.1124C48.9077 122.029 49.5902 121.384 49.5902 120.588C49.5523 119.791 48.9084 119.148 48.1124 119.148Z" fill="#D5D2DC"/>
<path d="M42.1656 94.0888H39.3621C38.4527 94.0888 37.5816 93.7476 36.8999 93.103C36.2181 92.4584 35.839 91.6246 35.7633 90.7152L35.3086 82.451C35.3086 82.3753 35.3086 82.2997 35.3464 82.224C35.3843 82.1483 35.4221 82.1098 35.46 82.0341C35.5356 81.9963 35.5735 81.9206 35.6492 81.9206C35.7249 81.8828 35.8005 81.8828 35.8769 81.8828H45.6887C45.7644 81.8828 45.8401 81.8828 45.8779 81.9206C45.9536 81.9585 45.9915 81.9963 46.0672 82.0341C46.105 82.072 46.1428 82.1477 46.1807 82.224C46.2185 82.3003 46.2185 82.3753 46.2185 82.451L45.7638 90.7152C45.7259 91.6246 45.3091 92.4969 44.6651 93.103C43.9455 93.7098 43.0366 94.0888 42.1656 94.0888Z" fill="#F23C49"/>
<path d="M46.0674 83.7344L45.9917 84.9851C46.5979 85.0986 47.1283 85.4398 47.4695 85.933C47.8485 86.4256 47.9999 87.0323 47.9999 87.6384C47.9621 88.2452 47.6965 88.8141 47.2803 89.2688C46.8685 89.7187 46.2978 89.9906 45.689 90.0269L45.6133 91.2776C46.5606 91.2398 47.4695 90.8607 48.1134 90.2161C48.7952 89.5722 49.2121 88.6621 49.25 87.7141C49.2878 86.7662 48.9851 85.8567 48.4168 85.0986C47.8485 84.3783 47.0141 83.8857 46.0674 83.7344Z" fill="#F23C49"/>
<path d="M41.4846 79.9474C41.4846 79.9474 39.0981 77.7489 39.1737 76.1185C39.2873 73.6171 41.5225 72.6692 40.6893 70.3564C40.2724 69.257 38.6055 65.6562 38.6055 65.6562C38.6055 65.6562 41.3711 68.3854 42.3563 70.0915C43.2279 71.6455 43.1138 74.034 42.1671 75.209C40.0454 77.711 41.4846 79.9474 41.4846 79.9474Z" fill="#D5D2DC"/>
<path d="M48.5657 139.797C47.6183 139.797 46.7473 140.062 45.9135 140.555C45.1103 141.018 44.4438 141.685 43.9817 142.488C43.6405 143.171 43.5269 143.967 43.7162 144.725C43.7918 144.99 44.1331 146.203 44.6256 145.748C45.8379 144.611 47.2393 143.663 48.8306 143.057C49.588 142.754 49.5123 139.835 48.5657 139.797Z" fill="#FDBC31"/>
<path d="M52.8474 145.039C51.8622 146.555 51.1047 148.223 50.65 149.967C50.4608 150.763 50.5365 151.636 50.8392 152.394C51.0284 152.811 51.4832 153.227 51.8622 152.696C52.317 151.938 52.6197 151.105 52.8852 150.233L53.7947 147.731C54.0596 146.973 54.0596 146.177 53.7947 145.457C53.6433 145.115 53.2264 144.433 52.8474 145.039Z" fill="#FDBC31"/>
<path d="M66.905 144.696L70.8067 148.412C71.4128 148.942 71.7161 148.146 71.7918 147.615C71.9053 146.895 71.8297 145.531 71.2236 145.038L67.2835 141.626C66.7153 141.134 66.4504 141.854 66.4125 142.346C66.3368 142.991 66.3746 144.204 66.905 144.696Z" fill="#FDBC31"/>
<path d="M59.7412 147.227C59.6655 149.046 60.2338 151.055 60.7642 152.837C60.9534 153.406 61.4838 154.467 62.0899 153.634C62.696 152.8 62.5825 151.434 62.3555 150.487C62.1662 149.729 61.9007 148.971 61.6737 148.25C61.4466 147.492 61.2946 146.507 60.6507 145.938C60.0446 145.369 59.779 147.037 59.7412 147.227Z" fill="#FDBC31"/>
</g>
</g>
</g>
</g>
<defs>
<filter id="filter0_dd_93_5199" x="51.1992" y="11.125" width="115.871" height="205.203" filterUnits="userSpaceOnUse" color-interpolation-filters="sRGB">
<feFlood flood-opacity="0" result="BackgroundImageFix"/>
<feColorMatrix in="SourceAlpha" type="matrix" values="0 0 0 0 0 0 0 0 0 0 0 0 0 0 0 0 0 0 127 0" result="hardAlpha"/>
<feOffset dy="8"/>
<feGaussianBlur stdDeviation="8"/>
<feColorMatrix type="matrix" values="0 0 0 0 0.121569 0 0 0 0 0.105882 0 0 0 0 0.176471 0 0 0 0.16 0"/>
<feBlend mode="normal" in2="BackgroundImageFix" result="effect1_dropShadow_93_5199"/>
<feColorMatrix in="SourceAlpha" type="matrix" values="0 0 0 0 0 0 0 0 0 0 0 0 0 0 0 0 0 0 127 0" result="hardAlpha"/>
<feOffset dy="4"/>
<feGaussianBlur stdDeviation="6"/>
<feColorMatrix type="matrix" values="0 0 0 0 0.121569 0 0 0 0 0.105882 0 0 0 0 0.176471 0 0 0 0.2 0"/>
<feBlend mode="normal" in2="effect1_dropShadow_93_5199" result="effect2_dropShadow_93_5199"/>
<feBlend mode="normal" in="SourceGraphic" in2="effect2_dropShadow_93_5199" result="shape"/>
</filter>
<filter id="filter1_dd_93_5199" x="-16" y="-3.45312" width="125.23" height="224.531" filterUnits="userSpaceOnUse" color-interpolation-filters="sRGB">
<feFlood flood-opacity="0" result="BackgroundImageFix"/>
<feColorMatrix in="SourceAlpha" type="matrix" values="0 0 0 0 0 0 0 0 0 0 0 0 0 0 0 0 0 0 127 0" result="hardAlpha"/>
<feOffset dy="8"/>
<feGaussianBlur stdDeviation="8"/>
<feColorMatrix type="matrix" values="0 0 0 0 0.121569 0 0 0 0 0.105882 0 0 0 0 0.176471 0 0 0 0.16 0"/>
<feBlend mode="normal" in2="BackgroundImageFix" result="effect1_dropShadow_93_5199"/>
<feColorMatrix in="SourceAlpha" type="matrix" values="0 0 0 0 0 0 0 0 0 0 0 0 0 0 0 0 0 0 127 0" result="hardAlpha"/>
<feOffset dy="4"/>
<feGaussianBlur stdDeviation="6"/>
<feColorMatrix type="matrix" values="0 0 0 0 0.121569 0 0 0 0 0.105882 0 0 0 0 0.176471 0 0 0 0.2 0"/>
<feBlend mode="normal" in2="effect1_dropShadow_93_5199" result="effect2_dropShadow_93_5199"/>
<feBlend mode="normal" in="SourceGraphic" in2="effect2_dropShadow_93_5199" result="shape"/>
</filter>
<linearGradient id="paint0_linear_93_5199" x1="67.2036" y1="125.104" x2="181.014" y2="3.78122" gradientUnits="userSpaceOnUse">
<stop stop-color="#454056"/>
<stop offset="1" stop-color="#8D8A97"/>
</linearGradient>
<linearGradient id="paint1_linear_93_5199" x1="2.3987e-06" y1="122.355" x2="93.3444" y2="13.2424" gradientUnits="userSpaceOnUse">
<stop stop-color="#454056"/>
<stop offset="1" stop-color="#8D8A97"/>
</linearGradient>
<clipPath id="clip0_93_5199">
<rect width="152" height="151" fill="white"/>
</clipPath>
</defs>
</svg>
