<svg width="152" height="151" viewBox="0 0 152 151" fill="none" xmlns="http://www.w3.org/2000/svg">
<g clip-path="url(#clip0_3_2287)">
<mask id="mask0_3_2287" style="mask-type:luminance" maskUnits="userSpaceOnUse" x="0" y="0" width="152" height="151">
<path d="M0 0H152V150.108H0V0Z" fill="white"/>
</mask>
<g mask="url(#mask0_3_2287)">
<g filter="url(#filter0_dd_3_2287)">
<path d="M137.746 152.019L137.166 149.7C137.166 149.666 137.132 149.598 137.166 149.564C137.166 149.53 137.201 149.461 137.201 149.427L137.303 149.325C137.337 149.291 137.371 149.291 137.405 149.257H137.541C137.575 149.257 137.644 149.291 137.678 149.291L137.78 149.393C137.814 149.427 137.814 149.461 137.848 149.53L138.257 151.167L139.893 150.758C139.995 150.723 140.063 150.758 140.165 150.792C140.234 150.826 140.302 150.928 140.302 150.996C140.336 151.099 140.302 151.167 140.268 151.269C140.234 151.337 140.165 151.405 140.063 151.439L137.746 152.019Z" fill="#5D3CF2"/>
<path d="M136.485 146.052C136.417 146.052 136.348 146.018 136.314 145.95C136.246 145.916 136.212 145.848 136.212 145.78L135.258 141.892C135.258 141.858 135.224 141.79 135.258 141.755C135.258 141.721 135.292 141.653 135.292 141.619L135.394 141.517C135.428 141.483 135.462 141.483 135.496 141.449H135.633C135.667 141.449 135.735 141.483 135.769 141.483L135.871 141.585C135.905 141.619 135.905 141.653 135.94 141.721L136.893 145.643C136.893 145.677 136.927 145.745 136.893 145.78C136.893 145.814 136.859 145.882 136.859 145.916L136.757 146.018C136.723 146.052 136.689 146.052 136.655 146.086C136.553 146.052 136.519 146.052 136.485 146.052ZM134.542 138.243C134.474 138.243 134.406 138.209 134.372 138.175C134.304 138.141 134.27 138.073 134.27 138.005L133.315 134.083C133.315 134.049 133.281 133.981 133.315 133.947C133.315 133.913 133.315 133.845 133.349 133.81L133.452 133.708C133.489 133.672 133.537 133.648 133.588 133.64H133.724C133.775 133.648 133.823 133.672 133.86 133.708L133.962 133.81C133.997 133.845 133.997 133.913 133.997 133.947L134.951 137.834C134.985 137.937 134.951 138.005 134.917 138.107C134.883 138.175 134.815 138.243 134.712 138.277C134.644 138.243 134.61 138.243 134.542 138.243ZM132.6 130.434C132.531 130.434 132.463 130.4 132.429 130.331C132.361 130.297 132.327 130.229 132.327 130.161L131.373 126.274V126.137C131.373 126.103 131.407 126.035 131.407 126.001L131.509 125.898C131.543 125.864 131.577 125.864 131.611 125.83H131.747C131.782 125.83 131.85 125.864 131.884 125.864L131.986 125.967C132.021 126.001 132.021 126.035 132.055 126.103L133.009 130.025C133.043 130.127 133.008 130.195 132.974 130.297C132.94 130.366 132.872 130.434 132.77 130.468C132.702 130.434 132.668 130.434 132.6 130.434Z" fill="#5D3CF2"/>
<path d="M130.689 122.628C130.62 122.628 130.552 122.594 130.518 122.526C130.45 122.492 130.416 122.424 130.416 122.356L129.836 120.036L132.154 119.457C132.256 119.457 132.325 119.457 132.393 119.525C132.461 119.559 132.495 119.661 132.529 119.73C132.563 119.799 132.529 119.9 132.495 119.968C132.461 120.036 132.393 120.105 132.291 120.139L130.654 120.548L131.063 122.185V122.322C131.063 122.356 131.03 122.424 130.995 122.458L130.893 122.56C130.859 122.594 130.791 122.594 130.757 122.628H130.689Z" fill="#5D3CF2"/>
<path d="M87.5798 105.952C87.5116 105.918 87.4776 105.85 87.4435 105.782C87.4266 105.744 87.4179 105.704 87.4179 105.663C87.4179 105.622 87.4266 105.581 87.4435 105.543C87.4819 105.471 87.5412 105.411 87.6138 105.373C87.6819 105.338 87.7507 105.338 87.8529 105.338L89.5223 105.646L89.8289 103.974C89.8289 103.872 89.8976 103.804 89.9657 103.736C90.0338 103.668 90.136 103.668 90.2382 103.668C90.3279 103.692 90.41 103.739 90.4766 103.804C90.5447 103.872 90.5447 103.974 90.5447 104.077L90.136 106.396L87.7841 105.986C87.6479 105.986 87.6138 105.952 87.5798 105.952Z" fill="#5D3CF2"/>
<path d="M94.8707 76.555C94.8026 76.5209 94.7686 76.4528 94.7345 76.4188C94.7004 76.3507 94.7004 76.2819 94.7004 76.2138L95.007 74.5431L93.3369 74.2359C93.2687 74.2359 93.2347 74.2018 93.2006 74.2018L93.0985 74.0997C93.0644 74.0656 93.0303 74.0316 93.0303 73.9634V73.8266C93.0388 73.7754 93.0626 73.7279 93.0985 73.6903L93.2006 73.5882C93.2347 73.5541 93.2687 73.5541 93.3028 73.5201H93.439L95.7569 73.9294L95.3475 76.2478C95.3475 76.3507 95.2794 76.4188 95.2113 76.4869C95.1432 76.555 95.041 76.555 94.9388 76.555C94.9388 76.5891 94.9048 76.5891 94.8707 76.555Z" fill="#5D3CF2"/>
<path d="M90.645 100.32C90.5769 100.286 90.5428 100.218 90.5088 100.184C90.4747 100.116 90.4747 100.048 90.4747 99.9794L91.1906 96.0236C91.1991 95.9724 91.2228 95.9249 91.2587 95.8874L91.3609 95.7846C91.3949 95.7505 91.463 95.7505 91.4971 95.7165H91.6333C91.7355 95.7505 91.8036 95.7846 91.8377 95.8533C91.9064 95.9215 91.9058 96.0236 91.9058 96.1258L91.1906 100.082C91.1906 100.116 91.1565 100.184 91.1565 100.218L91.0544 100.32C91.0203 100.355 90.9515 100.355 90.9175 100.389H90.7813C90.7131 100.389 90.6791 100.355 90.645 100.32ZM92.042 92.4091C91.9739 92.3744 91.9399 92.3063 91.9058 92.2722C91.8717 92.2041 91.8717 92.136 91.8717 92.0678L92.5876 88.1121C92.5876 88.078 92.6217 88.0099 92.6217 87.9758L92.7238 87.873C92.7579 87.839 92.7919 87.839 92.826 87.8049H92.9629C92.9969 87.8049 93.065 87.839 93.0991 87.839L93.2013 87.9418C93.2353 87.9758 93.2353 88.0099 93.2694 88.078C93.3034 88.1461 93.2694 88.1802 93.2694 88.2142L92.5876 92.17C92.563 92.2599 92.5161 92.3421 92.4514 92.4091C92.3832 92.4772 92.2811 92.4772 92.1789 92.4772C92.1108 92.4431 92.0767 92.4431 92.042 92.4091ZM93.4397 84.4975C93.3716 84.4634 93.3375 84.3947 93.3034 84.3606C93.2694 84.2925 93.2694 84.2244 93.2694 84.1563L93.9852 80.2005C93.9938 80.1493 94.0175 80.1018 94.0534 80.0643L94.1555 79.9615C94.1896 79.9274 94.2577 79.9274 94.2918 79.8933C94.3258 79.8593 94.3939 79.8933 94.428 79.8933C94.4961 79.8933 94.5302 79.9274 94.5642 79.9274L94.6664 80.0302C94.7005 80.0643 94.7005 80.0983 94.7345 80.1664V80.3027L94.0193 84.2585C93.9947 84.3483 93.9478 84.4305 93.8831 84.4975C93.8143 84.5656 93.7121 84.5656 93.61 84.5656C93.5078 84.5315 93.4737 84.4975 93.4397 84.4975Z" fill="#5D3CF2"/>
<path d="M139.79 22.0267H78.4806C74.118 22.0267 70.5741 25.5732 70.5741 29.9383V181.175C70.5741 185.54 74.118 189.087 78.4806 189.087H139.79C144.186 189.087 147.696 185.54 147.696 181.175V29.9383C147.696 25.5732 144.152 22.0267 139.79 22.0267Z" fill="white"/>
<path d="M140.502 19.128H77.7275C74.9335 19.128 72.241 20.2532 70.2984 22.197C68.3218 24.1749 67.1973 26.8346 67.1973 29.6312V181.827C67.1973 184.623 68.3218 187.283 70.2984 189.261C71.2733 190.237 72.4316 191.01 73.7065 191.537C74.9815 192.064 76.348 192.333 77.7275 192.33H140.502C143.297 192.33 145.989 191.239 147.966 189.261C149.943 187.283 151.067 184.623 151.067 181.827V29.6312C151.067 26.8346 149.943 24.1749 147.966 22.197C145.989 20.2191 143.297 19.128 140.502 19.128ZM147.694 181.352C147.694 183.432 146.876 185.444 145.376 186.944C143.877 188.411 141.866 189.263 139.787 189.263H78.4774C76.3646 189.263 74.3539 188.445 72.8888 186.944C71.3889 185.478 70.5709 183.466 70.5709 181.352V30.1086C70.5709 28.0285 71.423 26.0166 72.8888 24.5161C74.371 23.0335 76.3809 22.1994 78.4774 22.197H86.2137C86.623 22.197 87.0317 22.3673 87.3042 22.6404C87.5766 22.9135 87.7475 23.3222 87.7475 23.7315V24.4133C87.7475 25.5045 88.1903 26.5275 88.9402 27.278C89.6901 28.0285 90.7465 28.4713 91.837 28.4713H126.393C126.939 28.4713 127.45 28.3691 127.961 28.1648C128.438 27.9604 128.916 27.6533 129.29 27.278C129.673 26.8997 129.975 26.447 130.176 25.9478C130.381 25.4704 130.483 24.9248 130.483 24.3793V23.7315C130.483 23.3222 130.653 22.9476 130.926 22.6404C131.219 22.3574 131.61 22.1985 132.017 22.197H139.753C141.866 22.197 143.877 23.0157 145.342 24.5161C146.841 25.9825 147.66 27.9945 147.66 30.1086L147.694 181.352Z" fill="url(#paint0_linear_3_2287)"/>
<path d="M70.5759 30.1086V49.342H147.699V30.1086C147.699 29.0699 147.494 28.0413 147.097 27.0817C146.699 26.1221 146.116 25.2503 145.381 24.5161C143.882 23.0497 141.871 22.197 139.792 22.197H132.056C131.647 22.197 131.272 22.3673 130.965 22.6404C130.693 22.9129 130.523 23.3222 130.523 23.7315V24.4133C130.523 24.9589 130.42 25.4704 130.215 25.9819C130.011 26.4593 129.705 26.9368 129.33 27.312C128.955 27.6873 128.512 27.9938 128 28.1988C127.524 28.4032 126.978 28.506 126.433 28.506H91.8761C90.7856 28.506 89.7632 28.0626 88.9793 27.3127C88.1953 26.5628 87.7866 25.5051 87.7866 24.448V23.8003C87.7866 23.3909 87.6163 23.0163 87.3432 22.7092C87.0708 22.4361 86.6621 22.2658 86.2527 22.2658H78.4831C77.4442 22.2624 76.415 22.4657 75.4554 22.8638C74.4959 23.262 73.6251 23.847 72.8938 24.5849C72.1612 25.3065 71.5791 26.1665 71.1814 27.1148C70.7836 28.0631 70.578 29.0809 70.5766 30.1092L70.5759 30.1086Z" fill="#EFECF3"/>
<path d="M120.534 37.1334H95.9291C94.8039 37.1334 93.8837 38.0542 93.8837 39.1794C93.8837 40.3046 94.8039 41.2254 95.9291 41.2254H120.534C121.659 41.2254 122.579 40.3046 122.579 39.1794C122.579 38.0542 121.659 37.1334 120.534 37.1334Z" fill="#D5D2DC"/>
<path d="M136.113 43.1693C138.328 43.1693 140.134 41.3617 140.134 39.1794C140.134 36.9631 138.362 35.1896 136.113 35.1896C133.898 35.1896 132.091 36.9972 132.091 39.1794C132.125 41.3963 133.898 43.1693 136.113 43.1693Z" fill="white"/>
<path d="M135.633 37.8158L136.996 39.18L135.633 40.5443" stroke="#A237EE" stroke-opacity="0.75" stroke-width="0.917" stroke-linecap="round" stroke-linejoin="round"/>
<path d="M79.9104 43.1693C82.1261 43.1693 83.9318 41.3617 83.9318 39.1794C83.9318 36.9631 82.1261 35.1896 79.9104 35.1896C77.6947 35.1896 75.889 36.9972 75.889 39.1794C75.889 41.3963 77.6954 43.1693 79.9104 43.1693Z" fill="white"/>
<path d="M80.3897 37.8158L79.0268 39.18L80.3897 40.5443" stroke="#5D3CF2" stroke-width="0.917" stroke-linecap="round" stroke-linejoin="round"/>
<path d="M139.14 91.0108H87.986C87.8019 91.0087 87.6192 91.0434 87.4487 91.1129C87.2782 91.1824 87.1234 91.2852 86.9932 91.4155C86.863 91.5457 86.7602 91.7006 86.6908 91.8711C86.6214 92.0416 86.5868 92.2243 86.589 92.4084V101.309C86.589 102.094 87.2367 102.707 87.986 102.707H139.14C139.324 102.709 139.507 102.675 139.677 102.605C139.848 102.536 140.003 102.433 140.133 102.302C140.263 102.172 140.366 102.017 140.435 101.846C140.505 101.676 140.539 101.493 140.537 101.309V92.4084C140.537 91.6585 139.924 91.0108 139.14 91.0108Z" fill="#FFF2D6"/>
<path d="M83.8649 87.5356H77.1857C76.4699 87.5356 75.8903 88.1152 75.8903 88.8317C75.8903 89.5482 76.4699 90.1272 77.1857 90.1272H83.8649C84.5808 90.1272 85.1604 89.5475 85.1604 88.8317C85.1604 88.1158 84.5808 87.5356 83.8649 87.5356Z" fill="#EFECF3"/>
<path d="M87.9897 102.742H89.6939V91.0455H87.9897C87.6151 91.0455 87.2745 91.1817 87.0014 91.4548C86.7283 91.7279 86.5927 92.0685 86.5927 92.4438V101.31C86.5927 101.48 86.6268 101.685 86.6949 101.856C86.7643 102.034 86.8685 102.196 87.0014 102.333C87.1327 102.473 87.2968 102.579 87.4789 102.64C87.6151 102.674 87.8194 102.742 87.9897 102.742Z" fill="#F23C49"/>
<path opacity="0.2" d="M139.14 139.026H87.986C87.8019 139.024 87.6192 139.059 87.4487 139.128C87.2782 139.198 87.1234 139.301 86.9932 139.431C86.863 139.561 86.7602 139.716 86.6908 139.887C86.6214 140.057 86.5868 140.24 86.589 140.424V149.325C86.589 150.109 87.2367 150.723 87.986 150.723H139.14C139.324 150.725 139.507 150.69 139.677 150.621C139.848 150.551 140.003 150.448 140.133 150.318C140.263 150.188 140.366 150.033 140.435 149.862C140.505 149.691 140.539 149.509 140.537 149.325V140.424C140.537 139.674 139.924 139.026 139.14 139.026Z" fill="#3C76F2"/>
<path d="M83.8649 135.551H77.1857C76.4699 135.551 75.8903 136.131 75.8903 136.847C75.8903 137.563 76.4699 138.143 77.1857 138.143H83.8649C84.5808 138.143 85.1604 137.564 85.1604 136.847C85.1604 136.131 84.5808 135.551 83.8649 135.551Z" fill="#EFECF3"/>
<path d="M87.9897 150.726H89.6939V138.995H87.9897C87.6151 138.995 87.2745 139.131 87.0014 139.404C86.7283 139.677 86.5927 140.018 86.5927 140.393V149.294C86.5927 149.498 86.6268 149.668 86.6949 149.839C86.7643 150.017 86.8685 150.179 87.0014 150.317C87.1327 150.457 87.2968 150.562 87.4789 150.623C87.6151 150.691 87.7854 150.726 87.9897 150.726Z" fill="#FDBC31"/>
<path d="M139.14 62.1295H87.9859C87.8018 62.1274 87.6191 62.1621 87.4485 62.2317C87.278 62.3012 87.1231 62.4041 86.9929 62.5344C86.8628 62.6647 86.76 62.8197 86.6906 62.9903C86.6212 63.1609 86.5866 63.3436 86.5889 63.5278V82.215C86.5889 82.9996 87.2366 83.6132 87.9859 83.6132H139.14C139.324 83.6153 139.507 83.5806 139.677 83.5111C139.848 83.4415 140.003 83.3386 140.133 83.2083C140.263 83.078 140.366 82.923 140.435 82.7525C140.505 82.5819 140.539 82.3991 140.537 82.215V63.5278C140.539 63.3436 140.505 63.1609 140.435 62.9903C140.366 62.8197 140.263 62.6647 140.133 62.5344C140.003 62.4041 139.848 62.3012 139.677 62.2317C139.507 62.1621 139.324 62.1274 139.14 62.1295Z" fill="#F5F4F8"/>
<path d="M83.8649 58.6512H77.1857C76.4699 58.6512 75.8903 59.2308 75.8903 59.9473C75.8903 60.6638 76.4699 61.2434 77.1857 61.2434H83.8649C84.5808 61.2434 85.1604 60.6638 85.1604 59.9473C85.1604 59.2308 84.5808 58.6512 83.8649 58.6512Z" fill="#EFECF3"/>
<path d="M87.9897 83.6126H89.6939V62.1289H87.9897C87.6151 62.1289 87.2745 62.2651 87.0014 62.5382C86.7283 62.8113 86.5927 63.1519 86.5927 63.5271V82.2143C86.5927 82.3852 86.6268 82.5896 86.6949 82.7599C86.764 82.938 86.8683 83.1003 87.0014 83.2373C87.1383 83.3742 87.2745 83.4764 87.4448 83.5445C87.6151 83.5785 87.8194 83.6126 87.9897 83.6126Z" fill="#FD5631"/>
<path d="M83.8649 107.996H77.1857C76.4699 107.996 75.8903 108.575 75.8903 109.292C75.8903 110.008 76.4699 110.587 77.1857 110.587H83.8649C84.5808 110.587 85.1604 110.008 85.1604 109.292C85.1604 108.609 84.5808 107.996 83.8649 107.996Z" fill="#EFECF3"/>
<path d="M139.14 111.509H87.9859C87.8018 111.507 87.6191 111.541 87.4485 111.611C87.278 111.68 87.1231 111.783 86.9929 111.914C86.8628 112.044 86.76 112.199 86.6906 112.369C86.6212 112.54 86.5866 112.723 86.5889 112.907V128.866C86.5889 129.65 87.2366 130.265 87.9859 130.265H139.14C139.324 130.267 139.507 130.232 139.677 130.162C139.848 130.093 140.003 129.99 140.133 129.86C140.263 129.729 140.366 129.574 140.435 129.404C140.505 129.233 140.539 129.05 140.537 128.866V112.907C140.539 112.723 140.505 112.54 140.435 112.369C140.366 112.199 140.263 112.044 140.133 111.914C140.003 111.783 139.848 111.68 139.677 111.611C139.507 111.541 139.324 111.507 139.14 111.509Z" fill="#F5F4F8"/>
<path d="M87.9897 130.266H89.6939V111.477H87.9897C87.6151 111.477 87.2745 111.613 87.0014 111.885C86.8704 112.014 86.7666 112.168 86.6964 112.338C86.6262 112.508 86.5909 112.69 86.5927 112.874V128.834C86.5927 129.004 86.6268 129.209 86.6949 129.38C86.7643 129.558 86.8685 129.72 87.0014 129.857C87.1327 129.997 87.2968 130.103 87.4789 130.164C87.6151 130.232 87.8194 130.266 87.9897 130.266Z" fill="#FD5631"/>
<path d="M91.5973 68.8478H91.5292C91.4952 68.8478 91.4611 68.8137 91.4611 68.8137C91.4271 68.7797 91.4271 68.7797 91.4271 68.7456C91.4271 68.7116 91.393 68.6775 91.393 68.6775C91.393 68.6435 91.393 68.6094 91.4271 68.6094C91.5633 68.2341 91.7683 67.8589 92.0067 67.4842C92.0407 67.4502 92.0748 67.4161 92.1429 67.3814C92.211 67.3814 92.2451 67.3814 92.3132 67.4155C92.3473 67.4502 92.3813 67.4842 92.4154 67.5523C92.4154 67.6204 92.4154 67.6545 92.3813 67.7226C92.177 68.0298 91.9726 68.405 91.8364 68.7456C91.8364 68.7797 91.8023 68.8137 91.7683 68.8137C91.7002 68.8478 91.6655 68.8478 91.5973 68.8478Z" fill="#5D3CF2"/>
<path d="M131.464 144.261L123.456 142.01C123.422 142.044 123.422 142.078 123.422 142.078C123.353 142.249 123.353 142.454 123.422 142.624L127.034 151.422C127.102 151.593 127.239 151.763 127.409 151.832L131.464 144.261Z" fill="#3C76F2"/>
<path d="M136.687 79.7274L136.584 79.829C136.652 79.829 136.687 79.7615 136.687 79.7274Z" fill="#EFECF3"/>
<path d="M132.669 135.703L128.545 142.932L136.758 145.489C136.758 145.523 136.724 145.591 136.69 145.626C136.755 145.524 136.79 145.406 136.792 145.285C136.792 145.149 136.792 145.046 136.724 144.944L133.112 136.18C133.076 136.078 133.018 135.984 132.941 135.907C132.907 135.805 132.771 135.737 132.669 135.703Z" fill="#3C76F2"/>
<path d="M120.843 116.964H96.2034C95.4876 116.964 94.8745 117.544 94.8745 118.26C94.8745 118.977 95.4535 119.556 96.2034 119.556H120.843C121.558 119.556 122.172 118.976 122.172 118.26C122.138 117.544 121.558 116.964 120.843 116.964Z" fill="#A998F5"/>
<path d="M110.481 122.218H96.2015C95.4857 122.218 94.8726 122.798 94.8726 123.514C94.8726 124.229 95.4516 124.81 96.2015 124.81H110.481C111.197 124.81 111.81 124.23 111.81 123.514C111.776 122.798 111.197 122.218 110.481 122.218Z" fill="#A998F5"/>
<path d="M122.861 76.859C125.111 76.859 126.934 75.0343 126.934 72.7834C126.934 70.5325 125.111 68.7078 122.861 68.7078C120.612 68.7078 118.789 70.5325 118.789 72.7834C118.789 75.0343 120.612 76.859 122.861 76.859Z" fill="#A237EE" fill-opacity="0.75"/>
<path d="M110.645 76.859C112.894 76.859 114.717 75.0343 114.717 72.7834C114.717 70.5325 112.894 68.7078 110.645 68.7078C108.395 68.7078 106.572 70.5325 106.572 72.7834C106.572 75.0343 108.395 76.859 110.645 76.859Z" fill="#A237EE" fill-opacity="0.75"/>
<path d="M97.7467 76.859C99.9959 76.859 101.819 75.0343 101.819 72.7834C101.819 70.5325 99.9959 68.7078 97.7467 68.7078C95.4976 68.7078 93.6743 70.5325 93.6743 72.7834C93.6743 75.0343 95.4976 76.859 97.7467 76.859Z" fill="#A237EE" fill-opacity="0.75"/>
</g>
<g filter="url(#filter1_dd_3_2287)">
<path d="M78.4219 152.277L77.7779 149.7C77.7779 149.662 77.7401 149.586 77.7779 149.548C77.7779 149.511 77.8158 149.434 77.8158 149.396L77.9293 149.283C77.9671 149.245 78.005 149.245 78.0428 149.207H78.1942C78.232 149.207 78.3084 149.245 78.3462 149.245L78.4597 149.359C78.4976 149.396 78.4976 149.435 78.5354 149.511L78.9901 151.33L80.8085 150.875C80.922 150.837 80.9977 150.875 81.1112 150.913C81.1875 150.951 81.2632 151.065 81.2632 151.14C81.301 151.254 81.2632 151.33 81.2247 151.444C81.1869 151.519 81.1118 151.596 80.9977 151.634L78.4219 152.277Z" fill="#5D3CF2"/>
<path d="M77.0218 145.642C76.9827 145.643 76.9442 145.633 76.9108 145.613C76.8773 145.592 76.8502 145.563 76.8326 145.528C76.7978 145.511 76.7687 145.483 76.7487 145.45C76.7286 145.417 76.7183 145.378 76.719 145.339L75.6582 141.018C75.6582 140.98 75.6203 140.903 75.6582 140.866C75.6582 140.828 75.696 140.752 75.696 140.714L75.8095 140.601C75.8474 140.563 75.8852 140.563 75.9231 140.525H76.0751C76.1129 140.525 76.1886 140.563 76.2264 140.563L76.34 140.676C76.3778 140.714 76.3778 140.752 76.4157 140.828L77.4765 145.187C77.4765 145.225 77.5143 145.301 77.4765 145.339C77.4765 145.377 77.4387 145.453 77.4387 145.49L77.3251 145.604C77.2873 145.642 77.2494 145.642 77.2116 145.68C77.0974 145.642 77.0596 145.642 77.0218 145.642ZM74.8622 136.961C74.7865 136.961 74.7109 136.924 74.673 136.885C74.6383 136.867 74.6092 136.84 74.5891 136.807C74.569 136.773 74.5588 136.735 74.5595 136.696L73.4986 132.336C73.4986 132.299 73.4608 132.223 73.4986 132.185C73.4986 132.147 73.4986 132.071 73.5365 132.033L73.65 131.92C73.6879 131.882 73.7642 131.844 73.802 131.844H73.9534C73.9912 131.844 74.0669 131.882 74.1048 131.92L74.2183 132.033C74.2561 132.071 74.2561 132.147 74.2561 132.185L75.317 136.506C75.3548 136.62 75.317 136.696 75.2791 136.809C75.2413 136.886 75.1656 136.961 75.0521 136.999C74.9764 136.961 74.9385 136.961 74.8622 136.961ZM72.7033 128.28C72.6642 128.281 72.6257 128.271 72.5921 128.251C72.5585 128.231 72.5313 128.202 72.5135 128.167C72.4378 128.128 72.4 128.053 72.4 127.977L71.3391 123.655V123.504C71.3391 123.466 71.377 123.39 71.377 123.352L71.4911 123.239C71.529 123.201 71.5668 123.201 71.6046 123.163H71.756C71.7939 123.163 71.8695 123.201 71.9074 123.201L72.0215 123.314C72.0594 123.352 72.0594 123.391 72.0972 123.466L73.1574 127.826C73.1959 127.939 73.1574 128.015 73.1196 128.129C73.0817 128.205 73.0061 128.28 72.8925 128.318C72.8169 128.28 72.779 128.28 72.7033 128.28Z" fill="#5D3CF2"/>
<path d="M70.5759 119.601C70.5369 119.601 70.4985 119.591 70.465 119.571C70.4316 119.551 70.4044 119.522 70.3867 119.487C70.311 119.449 70.2725 119.374 70.2725 119.297L69.6286 116.72L72.205 116.076C72.3186 116.076 72.3942 116.076 72.4699 116.151C72.5456 116.189 72.5835 116.303 72.6213 116.378C72.6591 116.454 72.6213 116.568 72.5835 116.644C72.5456 116.72 72.4699 116.796 72.3564 116.834L70.5381 117.289L70.9922 119.108V119.259C70.9922 119.297 70.955 119.374 70.9171 119.411L70.803 119.525C70.7651 119.563 70.6894 119.563 70.6516 119.601H70.5759Z" fill="#5D3CF2"/>
<path d="M22.6537 101.064C22.578 101.026 22.5395 100.951 22.5023 100.875C22.4651 100.799 22.4645 100.685 22.5023 100.609C22.5402 100.534 22.6159 100.458 22.6915 100.42C22.7672 100.382 22.8429 100.382 22.9571 100.382L24.8132 100.724L25.1544 98.8656C25.1544 98.752 25.2301 98.6764 25.3058 98.6007C25.3815 98.525 25.495 98.5244 25.6086 98.5244C25.7084 98.552 25.7997 98.6042 25.8741 98.6764C25.9498 98.752 25.9498 98.8656 25.9498 98.9797L25.495 101.557L22.8808 101.103C22.7294 101.103 22.6915 101.064 22.6537 101.064Z" fill="#5D3CF2"/>
<path d="M30.7626 68.3874C30.687 68.3495 30.6491 68.2738 30.6113 68.236C30.5734 68.1603 30.5734 68.084 30.5734 68.0083L30.9146 66.1509L29.0585 65.8097C28.9828 65.8097 28.9449 65.7718 28.9071 65.7718L28.7936 65.6583C28.7557 65.6205 28.7179 65.5826 28.7179 65.5069V65.3549C28.7179 65.3171 28.7557 65.2414 28.7936 65.2036L28.9071 65.0894C28.9449 65.0516 28.9828 65.0516 29.0206 65.0137H29.172L31.7484 65.4685L31.2937 68.0462C31.2937 68.1603 31.218 68.236 31.1423 68.3117C31.0666 68.3874 30.9531 68.3874 30.839 68.3874C30.839 68.4252 30.8005 68.4252 30.7626 68.3874Z" fill="#5D3CF2"/>
<path d="M26.0633 94.8076C25.9876 94.7698 25.9491 94.6941 25.9119 94.6563C25.8741 94.58 25.8741 94.5043 25.8741 94.4286L26.6694 90.0313C26.6694 89.9935 26.7072 89.9178 26.7451 89.8793L26.8586 89.7658C26.8965 89.7279 26.9721 89.7279 27.01 89.6901H27.1614C27.2749 89.7279 27.3506 89.7658 27.389 89.8415C27.4647 89.9178 27.4647 90.0313 27.4647 90.1448L26.6694 94.5421C26.6694 94.58 26.6316 94.6563 26.6316 94.6941L26.518 94.8076C26.4802 94.8455 26.4045 94.8455 26.3667 94.8833H26.2153C26.1396 94.8833 26.1011 94.8455 26.0633 94.8076ZM27.6161 86.0131C27.5404 85.9752 27.5026 85.8996 27.4647 85.8617C27.4269 85.7854 27.4269 85.7097 27.4269 85.634L28.2222 81.2367C28.2222 81.1989 28.26 81.1226 28.26 81.0848L28.3736 80.9712C28.4114 80.9334 28.4493 80.9334 28.4871 80.8955H28.6385C28.6763 80.8955 28.752 80.9334 28.7898 80.9334L28.9034 81.0469C28.9412 81.0848 28.9412 81.1232 28.979 81.1989C29.0169 81.2746 28.979 81.3124 28.979 81.3503L28.2216 85.7476C28.1837 85.8617 28.1459 85.9374 28.0702 86.0131C27.9945 86.0888 27.881 86.0888 27.7675 86.0888C27.6918 86.0509 27.6539 86.0509 27.6161 86.0131ZM29.1695 77.2185C29.0938 77.1807 29.056 77.105 29.0182 77.0665C28.9803 76.9908 28.9803 76.9152 28.9803 76.8395L29.7756 72.4422C29.7756 72.4044 29.8135 72.328 29.8513 72.2902L29.9648 72.1767C30.0027 72.1388 30.0784 72.1388 30.1162 72.101C30.1541 72.0631 30.2297 72.101 30.2676 72.101C30.3433 72.101 30.3811 72.1388 30.4189 72.1388L30.5325 72.2524C30.5703 72.2902 30.5703 72.328 30.6082 72.4044V72.5557L29.8128 76.953C29.7857 77.0529 29.7336 77.1443 29.6615 77.2185C29.5858 77.2942 29.4723 77.2942 29.3581 77.2942C29.2446 77.2564 29.2074 77.2185 29.1695 77.2185Z" fill="#5D3CF2"/>
<path d="M80.6925 7.77155H12.5385C7.68959 7.77155 3.74957 11.7141 3.74957 16.5661V184.687C3.74957 189.539 7.68959 193.481 12.5385 193.481H80.6925C85.5798 193.481 89.482 189.539 89.482 184.687V16.5661C89.482 11.7141 85.542 7.77155 80.6925 7.77155Z" fill="white"/>
<path d="M81.4871 4.54865H11.7059C8.59967 4.54865 5.60697 5.79933 3.44744 7.96013C1.25006 10.1588 0 13.1155 0 16.2243V185.405C0 188.513 1.25006 191.47 3.44744 193.669C5.64481 195.867 8.59967 197.08 11.7059 197.08H81.4871C84.5934 197.08 87.5861 195.867 89.7834 193.669C91.9808 191.47 93.2309 188.513 93.2309 185.405V16.2243C93.2309 13.1155 91.9808 10.1588 89.7834 7.96013C87.5861 5.76149 84.5934 4.54865 81.4871 4.54865ZM89.4807 184.88C89.4809 186.035 89.2534 187.178 88.8113 188.245C88.3692 189.312 87.7212 190.281 86.9043 191.097C85.2373 192.727 83.0021 193.674 80.6912 193.674H12.5372C10.1884 193.674 7.95319 192.764 6.32408 191.097C4.65713 189.466 3.74765 187.23 3.74765 184.88V16.7591C3.74765 14.4469 4.69497 12.2105 6.32408 10.5422C7.95319 8.91186 10.1884 7.96455 12.5372 7.96455H21.1368C21.5916 7.96455 22.0457 8.15376 22.349 8.45713C22.6524 8.7605 22.8416 9.21523 22.8416 9.66997V10.4281C22.8416 11.6409 23.3342 12.7781 24.1674 13.6125C25.0005 14.4469 26.1749 14.9395 27.3871 14.9395H65.8009C66.3984 14.9399 66.9903 14.824 67.5435 14.5983C68.0739 14.3706 68.6043 14.0294 69.0206 13.6125C69.4369 13.1956 69.7787 12.703 70.0058 12.1341C70.2335 11.6037 70.347 10.997 70.347 10.3902V9.66997C70.347 9.21523 70.5362 8.79834 70.8389 8.45713C71.1645 8.14251 71.5991 7.966 72.0518 7.96455H80.6508C82.9996 7.96455 85.2354 8.87402 86.8639 10.5422C88.5309 12.172 89.4403 14.4085 89.4403 16.7591L89.4782 184.88H89.4807Z" fill="url(#paint1_linear_3_2287)"/>
<path d="M3.74957 16.7553V38.1356H89.4814V16.7553C89.4814 14.4431 88.5719 12.2067 86.9049 10.5384C85.238 8.90807 83.0028 7.96075 80.6919 7.96075H72.0928C71.6381 7.96075 71.2212 8.14997 70.88 8.45334C70.5772 8.7567 70.388 9.21144 70.388 9.66618V10.4243C70.388 11.031 70.2739 11.5993 70.0468 12.1682C69.8197 12.6986 69.4785 13.2297 69.0616 13.6466C68.6447 14.0635 68.1528 14.4047 67.5845 14.6324C67.0541 14.86 66.448 14.9736 65.8419 14.9736H27.4275C26.2153 14.9736 25.0788 14.481 24.2078 13.6466C23.3368 12.8121 22.882 11.6371 22.882 10.4621V9.74187C22.882 9.28713 22.6928 8.87023 22.3894 8.52902C22.0641 8.21456 21.6297 8.03806 21.1772 8.03644H12.5397C10.191 8.03644 7.99359 8.94655 6.32664 10.6141C4.69752 12.206 3.74957 14.4425 3.74957 16.7553Z" fill="#EFECF3"/>
<path d="M59.2876 24.5641H31.9358C30.6857 24.5641 29.6627 25.5877 29.6627 26.8384C29.6627 28.0891 30.6857 29.1127 31.9358 29.1127H59.2876C60.5376 29.1127 61.5606 28.0891 61.5606 26.8384C61.5606 25.5877 60.5376 24.5641 59.2876 24.5641Z" fill="#D5D2DC"/>
<path d="M76.5992 31.2735C79.0614 31.2735 81.0696 29.2647 81.0696 26.8384C81.0696 24.3742 79.0999 22.4033 76.5992 22.4033C74.1369 22.4033 72.1287 24.4127 72.1287 26.8384C72.1666 29.3026 74.1369 31.2735 76.5992 31.2735Z" fill="white"/>
<path d="M76.0694 25.3222L77.585 26.8384L76.0694 28.3546" stroke="#A237EE" stroke-opacity="0.75" stroke-width="0.917" stroke-linecap="round" stroke-linejoin="round"/>
<path d="M14.1304 31.2735C16.5926 31.2735 18.6008 29.2647 18.6008 26.8384C18.6008 24.3742 16.5933 22.4033 14.1304 22.4033C11.6674 22.4033 9.65991 24.4127 9.65991 26.8384C9.65991 29.3026 11.6681 31.2735 14.1304 31.2735Z" fill="white"/>
<path d="M14.6614 25.3222L13.1458 26.8384L14.6614 28.3546" stroke="#A237EE" stroke-opacity="0.75" stroke-width="0.917" stroke-linecap="round" stroke-linejoin="round"/>
<path d="M79.9735 84.4578H23.1097C22.2381 84.4578 21.5563 85.1395 21.5563 86.0118V95.9057C21.5563 96.7773 22.2759 97.4597 23.1097 97.4597H79.9735C80.8445 97.4597 81.5269 96.7773 81.5269 95.9057V86.0118C81.5269 85.178 80.8445 84.4578 79.9735 84.4578Z" fill="#FFCBCE"/>
<path d="M18.5251 80.5915H11.0998C10.3045 80.5915 9.65991 81.2361 9.65991 82.0321C9.65991 82.828 10.3039 83.4726 11.0998 83.4726H18.5251C19.3204 83.4726 19.965 82.828 19.965 82.0321C19.965 81.2361 19.3211 80.5915 18.5251 80.5915V80.5915Z" fill="#EFECF3"/>
<path d="M23.1103 97.5007H25.0043V84.4987H23.1103C22.6934 84.4987 22.315 84.6501 22.0116 84.9535C21.8658 85.0967 21.7504 85.2679 21.6722 85.4568C21.5941 85.6457 21.5549 85.8484 21.5569 86.0528V95.9088C21.5569 96.0987 21.5947 96.3257 21.6704 96.5156C21.7476 96.7134 21.8636 96.8938 22.0116 97.046C22.163 97.198 22.3144 97.3115 22.5421 97.3872C22.6934 97.4251 22.9211 97.5007 23.1103 97.5007Z" fill="#F23C49"/>
<path d="M79.9735 137.834H23.1097C22.2381 137.834 21.5563 138.517 21.5563 139.388V149.283C21.5563 150.155 22.2759 150.837 23.1097 150.837H79.9735C80.8445 150.837 81.5269 150.155 81.5269 149.283V139.388C81.5269 138.555 80.8445 137.834 79.9735 137.834Z" fill="#FDBC31" fill-opacity="0.2"/>
<path d="M18.5251 133.968H11.0998C10.3045 133.968 9.65991 134.613 9.65991 135.409C9.65991 136.205 10.3039 136.849 11.0998 136.849H18.5251C19.3204 136.849 19.965 136.205 19.965 135.409C19.965 134.613 19.3211 133.968 18.5251 133.968Z" fill="#EFECF3"/>
<path d="M23.1103 150.833H25.0043V137.793H23.1103C22.6934 137.793 22.315 137.944 22.0116 138.247C21.8658 138.391 21.7504 138.562 21.6722 138.751C21.5941 138.94 21.5549 139.142 21.5569 139.347V149.241C21.5542 149.448 21.5928 149.655 21.6704 149.847C21.7461 150.037 21.8596 150.226 22.0116 150.378C22.1636 150.53 22.3144 150.643 22.5421 150.719C22.6934 150.795 22.8833 150.833 23.1103 150.833Z" fill="#FDBC31"/>
<path d="M79.9735 52.3504H23.1097C22.2381 52.3504 21.5563 53.0329 21.5563 53.9045V74.678C21.5563 75.5503 22.2759 76.2321 23.1097 76.2321H79.9735C80.8445 76.2321 81.5269 75.5503 81.5269 74.678V53.9045C81.5269 53.0329 80.8445 52.3504 79.9735 52.3504Z" fill="#F5F4F8"/>
<path d="M18.5251 48.4836H11.0998C10.3045 48.4836 9.65991 49.1282 9.65991 49.9241C9.65991 50.7201 10.3039 51.3646 11.0998 51.3646H18.5251C19.3204 51.3646 19.965 50.7201 19.965 49.9241C19.965 49.1282 19.3211 48.4836 18.5251 48.4836Z" fill="#EFECF3"/>
<path d="M23.1103 76.2333H25.0043V52.3517H23.1103C22.6934 52.3517 22.315 52.5037 22.0116 52.8064C21.7083 53.1092 21.5569 53.4888 21.5569 53.9057V74.6793C21.5569 74.8691 21.5947 75.0962 21.6704 75.286C21.7476 75.4838 21.8636 75.6642 22.0116 75.8164C22.163 75.9684 22.3144 76.082 22.5042 76.1577C22.6934 76.1955 22.9211 76.2333 23.1103 76.2333Z" fill="#A237EE" fill-opacity="0.75"/>
<path d="M18.5251 103.335H11.0998C10.3045 103.335 9.65991 103.979 9.65991 104.775C9.65991 105.571 10.3039 106.216 11.0998 106.216H18.5251C19.3204 106.216 19.965 105.571 19.965 104.775C19.965 104.017 19.3211 103.335 18.5251 103.335Z" fill="#EFECF3"/>
<path d="M79.9735 107.239H23.1097C22.2381 107.239 21.5563 107.921 21.5563 108.794V126.534C21.5563 127.406 22.2759 128.088 23.1097 128.088H79.9735C80.8445 128.088 81.5269 127.406 81.5269 126.534V108.794C81.5269 107.921 80.8445 107.239 79.9735 107.239Z" fill="#F5F4F8"/>
<path d="M23.1103 128.09H25.0043V107.203H23.1103C22.6934 107.203 22.315 107.354 22.0116 107.658C21.8658 107.801 21.7504 107.972 21.6722 108.161C21.5941 108.35 21.5549 108.553 21.5569 108.757V126.498C21.5578 126.705 21.5963 126.911 21.6704 127.104C21.7461 127.294 21.8596 127.483 22.0116 127.635C22.1636 127.787 22.3144 127.9 22.5421 127.976C22.6934 128.052 22.9211 128.09 23.1103 128.09Z" fill="#A237EE" fill-opacity="0.75"/>
<path d="M27.1235 59.818H27.0478C27.0099 59.818 26.9721 59.7801 26.9721 59.7801C26.9343 59.7423 26.9343 59.7423 26.9343 59.7045C26.9343 59.6666 26.8964 59.6288 26.8964 59.6288C26.8964 59.5909 26.8964 59.5531 26.9343 59.5531C27.0856 59.1362 27.3133 58.7193 27.5782 58.3024C27.6161 58.2646 27.6539 58.2267 27.7296 58.1889C27.8053 58.1889 27.8431 58.1889 27.9188 58.2267C27.9655 58.2699 28.004 58.3211 28.0323 58.3781C28.0323 58.4538 28.0323 58.4916 27.9945 58.5673C27.7674 58.9085 27.5397 59.3254 27.3884 59.7045C27.3869 59.724 27.3785 59.7425 27.3646 59.7564C27.3507 59.7702 27.3323 59.7787 27.3127 59.7801C27.2546 59.8107 27.1889 59.8239 27.1235 59.818Z" fill="#5D3CF2"/>
<path d="M63.9851 72.1401H63.9094L63.6066 72.0265L61.2957 71.2306C61.2579 71.1928 61.1822 71.1543 61.1822 71.1164C61.1444 71.0786 61.1444 71.0029 61.1822 70.9272C61.1822 70.8515 61.2579 70.8137 61.2957 70.8137C61.3336 70.7752 61.4093 70.7752 61.4471 70.8137L63.758 71.6096L64.0614 71.7232C64.0992 71.7232 64.0992 71.761 64.1371 71.761L64.2127 71.8367C64.2127 71.8745 64.2506 71.913 64.2506 71.913V71.9887C64.2506 72.0265 64.2127 72.0644 64.1749 72.1022C64.0614 72.1401 64.0229 72.1401 63.9851 72.1401ZM58.8335 70.207H58.7199C57.8719 69.8172 57.0495 69.374 56.2577 68.88C56.2198 68.88 56.2198 68.8421 56.182 68.8043C56.182 68.7664 56.1441 68.7664 56.1441 68.7286V68.6529C56.1441 68.6144 56.182 68.5766 56.182 68.5766C56.2198 68.5387 56.2577 68.5009 56.3333 68.4631C56.3987 68.4572 56.4644 68.4703 56.5226 68.5009C57.28 68.9941 58.076 69.4488 58.9091 69.8279C58.9848 69.8657 59.0227 69.9036 59.0227 69.9414C59.0605 69.9793 59.0605 70.055 59.0227 70.1313C58.9848 70.1691 58.9848 70.207 58.947 70.207H58.8335ZM54.1738 67.2124H54.0603C54.0224 67.2124 54.0224 67.1745 53.9846 67.1745C53.265 66.5299 52.6589 65.8475 52.1284 65.0516C52.0906 65.0137 52.0906 65.0137 52.0906 64.9753V64.8617C52.0906 64.8239 52.0906 64.786 52.1284 64.786C52.1284 64.7482 52.1663 64.7482 52.2041 64.7104C52.242 64.6725 52.2798 64.6725 52.3176 64.6725H52.4312C52.469 64.6725 52.5069 64.7104 52.5447 64.7104L52.6204 64.786C53.1508 65.5442 53.7569 66.2266 54.4009 66.8712C54.4387 66.909 54.4765 66.9468 54.4765 66.9847V67.0982C54.4387 67.1361 54.4387 67.1745 54.4009 67.2124H54.1738ZM50.9919 62.7009C50.9541 62.7009 50.9162 62.7009 50.8784 62.6631C50.8405 62.6252 50.8027 62.5874 50.8027 62.5496C50.4236 61.6779 50.1587 60.7678 50.0074 59.8583C50.0074 59.7827 50.0074 59.7448 50.0452 59.6691C50.0831 59.6313 50.1209 59.5934 50.1966 59.5556H50.3101C50.3479 59.5556 50.3858 59.5934 50.3858 59.5934C50.4236 59.5934 50.4236 59.6313 50.4615 59.6691C50.4615 59.707 50.4993 59.707 50.4993 59.7448C50.6507 60.6165 50.9162 61.4887 51.2568 62.3225C51.2568 62.3604 51.2946 62.3982 51.2946 62.3982C51.2946 62.3982 51.2946 62.4739 51.2568 62.4739C51.2568 62.5117 51.219 62.5117 51.219 62.5496C51.219 62.5874 51.1811 62.5874 51.1433 62.5874L50.9919 62.7009ZM52.3933 59.7063C51.8629 59.7442 51.3703 59.7063 50.8399 59.6685C50.8021 59.6685 50.7642 59.6685 50.7642 59.6307C50.7264 59.6307 50.7264 59.5928 50.6885 59.555C50.6507 59.5171 50.6507 59.4414 50.6507 59.4036C50.6507 59.3279 50.6885 59.2901 50.7264 59.2522C50.7642 59.2144 50.8399 59.2144 50.8777 59.2144C51.3703 59.2522 51.8629 59.2901 52.3555 59.2522L53.5677 59.1387H53.6434C53.6812 59.1387 53.7191 59.1387 53.7191 59.1765C53.7569 59.1765 53.7569 59.2144 53.7948 59.2522C53.7948 59.2901 53.8326 59.2901 53.8326 59.3279V59.4036C53.8326 59.4414 53.7948 59.4793 53.7948 59.4793L53.7191 59.555C53.6812 59.555 53.6812 59.5928 53.6434 59.5928L52.3933 59.7063ZM48.1506 59.0618H48.0749C47.1654 58.7962 46.2944 58.455 45.4612 58.076C45.4234 58.076 45.3856 58.0381 45.3856 58.0381L45.3099 57.9624V57.8111C45.3099 57.7732 45.3477 57.7732 45.3856 57.7354C45.3856 57.6975 45.4234 57.6975 45.4612 57.6975H45.6505L48.2269 58.6455C48.2647 58.6455 48.3026 58.6833 48.3026 58.6833C48.3404 58.6833 48.3404 58.7212 48.3404 58.759C48.3783 58.7969 48.3783 58.7969 48.3783 58.8347C48.3783 58.8725 48.3783 58.9104 48.3404 58.9104C48.3404 58.9482 48.3026 58.9861 48.2647 59.0239C48.2269 59.0618 48.1884 59.0618 48.1506 59.0618ZM56.2198 58.607C56.182 58.607 56.1441 58.607 56.1063 58.5692C56.0684 58.5313 56.0306 58.5313 55.9928 58.4935C55.9549 58.4557 55.9549 58.38 55.9549 58.3043C55.9549 58.2286 55.9928 58.1908 56.0684 58.1529C56.4853 57.9252 56.8259 57.6225 57.205 57.2813C57.5083 56.9779 57.7354 56.6367 57.9246 56.2955L58.0381 56.182H58.2273C58.2652 56.2198 58.3409 56.2576 58.3409 56.3333C58.3787 56.409 58.3409 56.4469 58.3409 56.5232C58.119 56.9288 57.8382 57.2992 57.5077 57.6225C57.1665 58.0015 56.7502 58.3049 56.2955 58.5704C56.2955 58.6083 56.2577 58.6083 56.2198 58.6083V58.607ZM50.0067 57.28C49.9689 57.28 49.9311 57.28 49.9311 57.2422C49.8932 57.2422 49.8554 57.2043 49.8554 57.2043C49.8175 57.1665 49.8175 57.1665 49.8175 57.1287V57.053C49.8932 56.105 50.1209 55.1577 50.4993 54.2854C50.5372 54.2476 50.575 54.1719 50.6128 54.1719C50.6507 54.1719 50.7264 54.1341 50.8021 54.1719C50.8399 54.2097 50.9156 54.2476 50.9156 54.2854C50.9534 54.3611 50.9156 54.399 50.9156 54.4746C50.5744 55.3084 50.3473 56.1807 50.2716 57.0523C50.2716 57.128 50.2716 57.1659 50.1959 57.2037C50.1441 57.251 50.0769 57.2785 50.0067 57.28ZM42.9605 57.0145H42.847L41.9375 56.6354L40.2705 56.0287C40.2327 56.0287 40.2327 55.9909 40.1949 55.9909L40.1192 55.9152C40.1192 55.8773 40.0813 55.8773 40.0813 55.8395V55.7638C40.0813 55.726 40.1192 55.726 40.1192 55.6881C40.1192 55.6503 40.157 55.6503 40.1949 55.6503C40.2327 55.6503 40.2327 55.6124 40.2705 55.6124H40.3462L42.051 56.257L42.9605 56.6361C42.9983 56.6361 42.9983 56.6739 43.0362 56.6739C43.0362 56.7118 43.074 56.7118 43.074 56.7496V56.901C43.0362 56.9388 43.0362 56.9766 42.9983 56.9766C43.074 56.9766 43.0362 57.0145 42.9605 57.0145ZM29.6633 56.6733C29.6255 56.6733 29.5498 56.6733 29.5498 56.6354L29.4363 56.5219V56.3705C29.4741 56.3327 29.4741 56.2949 29.5498 56.257C30.3451 55.7266 31.2168 55.3091 32.1262 55.0442H32.2019C32.2398 55.0442 32.2776 55.0442 32.3154 55.082C32.3533 55.082 32.3533 55.1199 32.3911 55.1199C32.3911 55.1577 32.429 55.1577 32.429 55.1955C32.429 55.2334 32.4668 55.2712 32.429 55.2712C32.429 55.3091 32.429 55.3469 32.3911 55.3469C32.3911 55.3847 32.3533 55.3848 32.3154 55.4226C32.2776 55.4604 32.2776 55.4604 32.2398 55.4604C31.3681 55.726 30.535 56.105 29.8153 56.6354C29.8153 56.6733 29.739 56.6733 29.6633 56.6733ZM37.6947 55.3084H37.6191C36.7096 55.1571 35.8007 55.0429 34.8912 55.0808H34.7777C34.7399 55.0808 34.7399 55.0429 34.702 55.0429C34.6642 55.0051 34.6642 55.0051 34.6642 54.9672C34.6642 54.9294 34.6264 54.9294 34.6264 54.8915C34.6264 54.8159 34.6642 54.778 34.702 54.7402C34.7399 54.7023 34.8156 54.6645 34.8534 54.6645C35.7926 54.6634 36.7302 54.7396 37.6569 54.8922C37.6947 54.8922 37.7326 54.8922 37.7326 54.93C37.7704 54.93 37.7704 54.9679 37.8083 55.0057C37.8461 55.0435 37.8461 55.0435 37.8461 55.0814V55.1571C37.8461 55.1949 37.8083 55.2328 37.7704 55.2706C37.8083 55.2706 37.7704 55.3084 37.6947 55.3084ZM58.7578 54.0199C58.6821 54.0199 58.6442 54.0199 58.6064 53.9442C58.5686 53.9064 58.5307 53.8307 58.5307 53.7929C58.4929 53.0726 58.1901 52.3902 57.6597 51.8976C57.5462 51.7841 57.4327 51.7084 57.3185 51.6321C57.2807 51.5942 57.2428 51.5564 57.2428 51.4807C57.2428 51.4428 57.2428 51.3672 57.2807 51.3293C57.3185 51.2915 57.3563 51.2536 57.432 51.2536H57.5834C57.7348 51.3672 57.8489 51.4428 57.9625 51.557C58.5686 52.1259 58.9098 52.9218 58.9855 53.7556C58.9855 53.8313 58.9476 53.8692 58.9098 53.907C58.9098 53.9827 58.8341 54.0205 58.7584 54.0205L58.7578 54.0199ZM52.317 52.3902C52.2792 52.3902 52.2413 52.3902 52.2035 52.3523C52.1839 52.3509 52.1655 52.3424 52.1516 52.3285C52.1377 52.3146 52.1293 52.2962 52.1278 52.2766C52.09 52.2388 52.09 52.2388 52.09 52.2009V52.1253C52.09 52.0874 52.09 52.0496 52.1278 52.0496C52.1278 52.0117 52.1656 52.0117 52.2035 51.9739C52.9231 51.3672 53.8326 50.9124 54.7793 50.7232C54.855 50.7232 54.8928 50.7232 54.9307 50.7611C55.0063 50.7989 55.0063 50.8367 55.0442 50.9124C55.0442 50.9881 55.0442 51.0259 55.0063 51.1016C54.9685 51.1773 54.9307 51.1773 54.855 51.1773C53.9833 51.3665 53.1502 51.7456 52.4684 52.3145C52.3927 52.3523 52.3549 52.3523 52.317 52.3902Z" fill="#5D3CF2"/>
<path d="M67.8134 73.8051C67.7377 73.8051 67.6999 73.8051 67.6621 73.7673C67.3209 73.5024 66.9418 73.2747 66.5634 73.1233C66.5255 73.0849 66.4492 73.047 66.4492 73.0092V72.82C66.4877 72.7821 66.5255 72.7058 66.5634 72.7058C66.6012 72.668 66.6769 72.668 66.7147 72.7058C67.1695 72.8957 67.5485 73.1233 67.927 73.4261C67.927 73.4639 67.9648 73.4639 67.9648 73.5024V73.6538C67.9648 73.6916 67.927 73.6916 67.927 73.7294C67.8891 73.7673 67.8513 73.7673 67.8134 73.8051Z" fill="#5D3CF2"/>
<path d="M66.3313 68.2739C66.1799 68.236 66.0279 68.236 65.8766 68.2739C65.7252 68.3495 65.6117 68.4259 65.5738 68.5772L60.1939 78.7745C60.3074 78.8123 60.4216 78.8502 60.5351 78.8502C60.6486 78.8502 60.7622 78.8502 60.8763 78.7745L76.8628 72.2164C76.9765 72.1762 77.0801 72.1116 77.1662 72.0272C77.2505 71.941 77.315 71.8375 77.3554 71.7238L66.3313 68.2739Z" fill="#5D3CF2" fill-opacity="0.5"/>
<path d="M66.5205 70.885C66.6719 70.9228 66.8232 70.9228 66.9368 70.8471C67.0509 70.8093 67.2023 70.6951 67.2401 70.5816L72.7708 60.8769H72.5059C72.4302 60.8391 72.2782 60.8769 72.1647 60.9148L56.1782 67.4729C56.0842 67.5106 55.9987 67.567 55.9271 67.6387C55.8554 67.7103 55.799 67.7957 55.7613 67.8898L66.5205 70.885Z" fill="white"/>
<path d="M64.6662 70.3552L55.7638 67.8532C55.726 67.8917 55.726 67.9295 55.726 67.9295C55.6503 68.1187 55.6503 68.3464 55.726 68.5356L59.7417 78.3159C59.8173 78.5058 59.9693 78.695 60.1586 78.7707L64.6662 70.3552Z" fill="#EFECF3"/>
<path d="M77.2425 71.913L77.129 72.0266C77.2047 72.0266 77.2425 71.9509 77.2425 71.913Z" fill="#EFECF3"/>
<path d="M72.7708 60.8416L68.1868 68.8781L77.3169 71.7213C77.3169 71.7591 77.2791 71.8348 77.2412 71.8727C77.3132 71.7591 77.3525 71.628 77.3548 71.4936C77.3548 71.3423 77.3548 71.2281 77.2791 71.1146L73.2634 61.3721C73.2232 61.2583 73.1586 61.1548 73.0742 61.0687C73.0363 60.9552 72.8843 60.8795 72.7708 60.841V60.8416Z" fill="#EFECF3"/>
<path d="M50.5353 137.834C50.7201 139.803 51.64 141.631 53.1117 142.952C54.5766 144.274 56.4798 145.006 58.4532 145.006C60.4265 145.006 62.3297 144.274 63.7946 142.952C65.2717 141.626 66.1812 139.806 66.371 137.834H50.5353Z" fill="#FDBC31"/>
<path d="M59.6288 113.306H32.2392C31.4438 113.306 30.7614 113.951 30.7614 114.747C30.7614 115.543 31.4054 116.187 32.2392 116.187H59.6288C60.4241 116.187 61.1065 115.543 61.1065 114.747C61.0687 113.951 60.4241 113.306 59.6288 113.306Z" fill="#D5D2DC"/>
<path d="M48.1121 119.147H32.2392C31.4438 119.147 30.7614 119.79 30.7614 120.587C30.7614 121.384 31.4054 122.028 32.2392 122.028H48.1121C48.9074 122.028 49.5899 121.383 49.5899 120.587C49.552 119.79 48.9081 119.147 48.1121 119.147Z" fill="#D5D2DC"/>
<path d="M42.1639 94.0886H39.3604C38.451 94.0886 37.5799 93.7474 36.8982 93.1028C36.2164 92.4582 35.8373 91.6244 35.7616 90.715L35.3069 82.4508C35.3069 82.3751 35.3069 82.2995 35.3447 82.2238C35.3826 82.1481 35.4204 82.1096 35.4583 82.0339C35.5339 81.9961 35.5718 81.9204 35.6475 81.9204C35.7232 81.8826 35.7988 81.8826 35.8752 81.8826H45.687C45.7627 81.8826 45.8384 81.8826 45.8762 81.9204C45.9519 81.9583 45.9898 81.9961 46.0655 82.0339C46.1033 82.0718 46.1411 82.1475 46.179 82.2238C46.2168 82.3001 46.2168 82.3751 46.2168 82.4508L45.7621 90.715C45.7242 91.6244 45.3074 92.4967 44.6634 93.1028C43.9438 93.7096 43.0349 94.0886 42.1639 94.0886Z" fill="#F23C49"/>
<path d="M46.0673 83.7388L45.9916 84.9895C46.5978 85.103 47.1282 85.4442 47.4694 85.9374C47.8484 86.43 47.9998 87.0367 47.9998 87.6428C47.962 88.2496 47.6964 88.8185 47.2802 89.2732C46.8684 89.7231 46.2977 89.995 45.6889 90.0313L45.6132 91.282C46.5605 91.2442 47.4694 90.8651 48.1133 90.2205C48.7951 89.5766 49.212 88.6665 49.2499 87.7185C49.2877 86.7706 48.985 85.8611 48.4167 85.103C47.8484 84.3827 47.014 83.8901 46.0673 83.7388Z" fill="#F23C49"/>
<path d="M41.4827 79.9482C41.4827 79.9482 39.0962 77.7496 39.1718 76.1192C39.2854 73.6178 41.5206 72.6699 40.6874 70.3571C40.2705 69.2577 38.6036 65.657 38.6036 65.657C38.6036 65.657 41.3692 68.3861 42.3544 70.0922C43.226 71.6462 43.1119 74.0347 42.1652 75.2097C40.0435 77.7117 41.4827 79.9482 41.4827 79.9482Z" fill="#D5D2DC"/>
<path d="M48.5675 139.802C47.6201 139.802 46.7491 140.067 45.9153 140.56C45.1121 141.023 44.4456 141.69 43.9835 142.493C43.6423 143.176 43.5287 143.972 43.718 144.73C43.7936 144.995 44.1349 146.208 44.6274 145.753C45.8397 144.616 47.2411 143.668 48.8324 143.062C49.5898 142.759 49.5141 139.84 48.5675 139.802Z" fill="#FDBC31"/>
<path d="M52.8481 145.037C51.8629 146.553 51.1054 148.221 50.6507 149.965C50.4615 150.761 50.5372 151.634 50.8399 152.392C51.0291 152.809 51.4839 153.225 51.8629 152.694C52.3177 151.936 52.6204 151.103 52.8859 150.231L53.7954 147.729C54.0603 146.971 54.0603 146.175 53.7954 145.455C53.644 145.113 53.2271 144.431 52.8481 145.037Z" fill="#FDBC31"/>
<path d="M66.9052 144.696L70.8068 148.412C71.4129 148.942 71.7162 148.146 71.7919 147.615C71.9054 146.895 71.8298 145.531 71.2237 145.038L67.2836 141.626C66.7154 141.134 66.4505 141.854 66.4126 142.346C66.3369 142.991 66.3748 144.204 66.9052 144.696Z" fill="#FDBC31"/>
<path d="M59.7417 147.232C59.666 149.051 60.2343 151.06 60.7647 152.842C60.9539 153.411 61.4843 154.472 62.0904 153.639C62.6965 152.805 62.583 151.439 62.356 150.492C62.1667 149.734 61.9012 148.976 61.6742 148.255C61.4471 147.497 61.2951 146.512 60.6512 145.943C60.0451 145.374 59.7795 147.042 59.7417 147.232Z" fill="#FDBC31"/>
</g>
</g>
</g>
<defs>
<filter id="filter0_dd_3_2287" x="51.1973" y="11.128" width="115.87" height="205.202" filterUnits="userSpaceOnUse" color-interpolation-filters="sRGB">
<feFlood flood-opacity="0" result="BackgroundImageFix"/>
<feColorMatrix in="SourceAlpha" type="matrix" values="0 0 0 0 0 0 0 0 0 0 0 0 0 0 0 0 0 0 127 0" result="hardAlpha"/>
<feOffset dy="8"/>
<feGaussianBlur stdDeviation="8"/>
<feColorMatrix type="matrix" values="0 0 0 0 0.121569 0 0 0 0 0.105882 0 0 0 0 0.176471 0 0 0 0.16 0"/>
<feBlend mode="normal" in2="BackgroundImageFix" result="effect1_dropShadow_3_2287"/>
<feColorMatrix in="SourceAlpha" type="matrix" values="0 0 0 0 0 0 0 0 0 0 0 0 0 0 0 0 0 0 127 0" result="hardAlpha"/>
<feOffset dy="4"/>
<feGaussianBlur stdDeviation="6"/>
<feColorMatrix type="matrix" values="0 0 0 0 0.121569 0 0 0 0 0.105882 0 0 0 0 0.176471 0 0 0 0.2 0"/>
<feBlend mode="normal" in2="effect1_dropShadow_3_2287" result="effect2_dropShadow_3_2287"/>
<feBlend mode="normal" in="SourceGraphic" in2="effect2_dropShadow_3_2287" result="shape"/>
</filter>
<filter id="filter1_dd_3_2287" x="-16" y="-3.45135" width="125.231" height="224.532" filterUnits="userSpaceOnUse" color-interpolation-filters="sRGB">
<feFlood flood-opacity="0" result="BackgroundImageFix"/>
<feColorMatrix in="SourceAlpha" type="matrix" values="0 0 0 0 0 0 0 0 0 0 0 0 0 0 0 0 0 0 127 0" result="hardAlpha"/>
<feOffset dy="8"/>
<feGaussianBlur stdDeviation="8"/>
<feColorMatrix type="matrix" values="0 0 0 0 0.121569 0 0 0 0 0.105882 0 0 0 0 0.176471 0 0 0 0.16 0"/>
<feBlend mode="normal" in2="BackgroundImageFix" result="effect1_dropShadow_3_2287"/>
<feColorMatrix in="SourceAlpha" type="matrix" values="0 0 0 0 0 0 0 0 0 0 0 0 0 0 0 0 0 0 127 0" result="hardAlpha"/>
<feOffset dy="4"/>
<feGaussianBlur stdDeviation="6"/>
<feColorMatrix type="matrix" values="0 0 0 0 0.121569 0 0 0 0 0.105882 0 0 0 0 0.176471 0 0 0 0.2 0"/>
<feBlend mode="normal" in2="effect1_dropShadow_3_2287" result="effect2_dropShadow_3_2287"/>
<feBlend mode="normal" in="SourceGraphic" in2="effect2_dropShadow_3_2287" result="shape"/>
</filter>
<linearGradient id="paint0_linear_3_2287" x1="67.2017" y1="125.107" x2="181.012" y2="3.78422" gradientUnits="userSpaceOnUse">
<stop stop-color="#454056"/>
<stop offset="1" stop-color="#8D8A97"/>
</linearGradient>
<linearGradient id="paint1_linear_3_2287" x1="3.51439e-06" y1="122.357" x2="93.3444" y2="13.2442" gradientUnits="userSpaceOnUse">
<stop stop-color="#454056"/>
<stop offset="1" stop-color="#8D8A97"/>
</linearGradient>
<clipPath id="clip0_3_2287">
<rect width="152" height="150.108" fill="white"/>
</clipPath>
</defs>
</svg>
