<svg width="108" height="83" viewBox="0 0 108 83" fill="none" xmlns="http://www.w3.org/2000/svg">
<g filter="url(#filter0_d_82_158)">
<path d="M58.191 49.9545L71.702 54.4343C73.668 55.1198 74.9594 56.6741 74.9785 58.3655L74.3426 74.8981H53.1414C53.1414 74.8981 45.4898 64.9937 44.7957 64.293C44.3332 63.7748 44.1789 62.7998 44.1789 62.7998C43.9477 61.9311 43.9285 53.6727 43.9285 53.6727C43.9285 52.3012 45.3934 51.1586 47.1086 51.1586C48.8434 51.1586 50.2887 52.3167 50.2887 53.6727V59.6304C50.2887 59.9658 50.6164 60.24 51.0598 60.24C51.1562 60.24 51.2719 60.2249 51.3488 60.1943C51.6187 60.0878 51.8309 59.8744 51.8309 59.6153V39.4868C51.9273 38.2525 53.2957 37.2318 54.934 37.2318H55.0109C56.8227 37.2318 58.191 38.3899 58.191 39.7459V49.9545ZM27.1031 32.5368L18.4602 24.8377L33.2906 14.3431L29.2805 11.4464L4.82031 28.755L8.53906 32.0677L12.3102 29.3761V48.3042H28.7723V31.3457L27.1031 32.5368ZM81.6848 25.3373L68.7055 15.9971V5.15851H61.1488V10.5029L52.3672 4.15948L22.8629 25.0378L27.3484 29.0336L31.8973 25.787V48.3045H48.7055V39.4865V39.4102L48.7113 39.3342C48.9117 36.7698 51.6445 34.7606 54.9336 34.7606H55.0105C58.4871 34.7606 61.3156 36.9968 61.3156 39.7453L61.3262 48.303L72.616 48.3122L72.6055 25.9865L77.0813 29.2331L81.6848 25.3373ZM92.4156 21.26V12.2743H86.1508V16.7049L78.8703 11.4461L72.8973 15.6729L86.1293 25.195L77.2504 32.7092L75.7305 31.6067V48.3045H95.6488V29.5419L99.3594 32.2336L103.176 29.0036L92.4156 21.26Z" fill="url(#paint0_linear_82_158)"/>
<path d="M40.94 52.6637H21.7195C21.5162 52.6637 21.3213 52.7556 21.1776 52.919C21.0339 53.0824 20.9531 53.3043 20.9531 53.536V67.5895C20.9531 67.8207 21.0339 68.0426 21.1776 68.2065C21.3213 68.3699 21.5162 68.4618 21.7195 68.4618H40.94C41.1433 68.4618 41.3382 68.3699 41.4819 68.2065C41.6256 68.0426 41.7064 67.8207 41.7064 67.5895V53.536C41.7064 53.3043 41.6256 53.0824 41.4819 52.919C41.3382 52.7556 41.1433 52.6637 40.94 52.6637Z" fill="#1F1B2D"/>
<path d="M23.3398 45.4854L31.1425 53.626L39.9709 45.4854" stroke="#D58D2F" stroke-miterlimit="10"/>
<path d="M18.413 41.3613H14.2517C13.9551 41.3613 13.7148 41.6011 13.7148 41.8967V73.2865C13.7148 73.5821 13.9551 73.822 14.2517 73.822H18.413C18.7096 73.822 18.9498 73.5821 18.9498 73.2865V41.8967C18.9498 41.6011 18.7096 41.3613 18.413 41.3613Z" fill="#B57B2F"/>
<path d="M18.2706 41.9791H14.3936C14.3583 41.9791 14.3233 41.9859 14.2907 41.9994C14.258 42.0128 14.2284 42.0326 14.2034 42.0574C14.1785 42.0823 14.1587 42.1118 14.1452 42.1443C14.1318 42.1768 14.1249 42.2116 14.125 42.2468V72.4199C14.1249 72.4549 14.1318 72.49 14.1452 72.5223C14.1587 72.5547 14.1785 72.5843 14.2034 72.6095C14.2284 72.6342 14.258 72.654 14.2907 72.6674C14.3233 72.6809 14.3583 72.6877 14.3936 72.6877H18.2706C18.3059 72.6877 18.3409 72.6809 18.3735 72.6674C18.4062 72.654 18.4358 72.6342 18.4608 72.6095C18.4858 72.5843 18.5055 72.5547 18.519 72.5223C18.5324 72.49 18.5393 72.4549 18.5392 72.4199V42.2468C18.5393 42.2116 18.5324 42.1768 18.519 42.1443C18.5055 42.1118 18.4858 42.0823 18.4608 42.0574C18.4358 42.0326 18.4062 42.0128 18.3735 41.9994C18.3409 41.9859 18.3059 41.9791 18.2706 41.9791Z" fill="#B57B2F"/>
<path d="M43.2557 42.7025H12.9157C12.6192 42.7025 12.3789 42.9424 12.3789 43.238V47.8349C12.3789 48.1305 12.6192 48.3703 12.9157 48.3703H43.2557C43.5522 48.3703 43.7925 48.1305 43.7925 47.8349V43.238C43.7925 42.9424 43.5522 42.7025 43.2557 42.7025Z" fill="#B57B2F"/>
<path d="M16.3808 46.4121C16.8913 46.4121 17.3047 45.9967 17.3047 45.4846C17.3047 44.9724 16.8909 44.5571 16.3808 44.5571C15.8709 44.5571 15.457 44.9724 15.457 45.4846C15.457 45.9967 15.8705 46.4121 16.3808 46.4121Z" fill="#BBB7C5"/>
<path d="M16.3825 46.2061C16.7795 46.2061 17.101 45.8831 17.101 45.4849C17.101 45.0868 16.7795 44.7634 16.3825 44.7634C15.9856 44.7634 15.6641 45.0864 15.6641 45.4849C15.6641 45.8835 15.9856 46.2061 16.3825 46.2061ZM41.1231 46.2061C41.5201 46.2061 41.8416 45.8831 41.8416 45.4849C41.8416 45.0868 41.5197 44.7634 41.1231 44.7634C40.7265 44.7634 40.4046 45.0864 40.4046 45.4849C40.4046 45.8835 40.7265 46.2061 41.1231 46.2061Z" fill="white"/>
<path d="M37.5119 55.2823H23.3558C23.2542 55.2823 23.1567 55.3228 23.0849 55.3942C23.013 55.4656 22.9727 55.5627 22.9727 55.6638V55.8614C22.9727 55.9625 23.013 56.0596 23.0849 56.131C23.1567 56.2024 23.2542 56.2428 23.3558 56.2428H37.5119C37.6136 56.2428 37.711 56.2024 37.7829 56.131C37.8547 56.0596 37.8951 55.9625 37.8951 55.8614V55.6638C37.8951 55.5627 37.8547 55.4656 37.7829 55.3942C37.711 55.3228 37.6136 55.2823 37.5119 55.2823ZM35.5857 58.162H26.2431C26.1414 58.162 26.044 58.202 25.9721 58.2735C25.9003 58.3449 25.8599 58.4419 25.8599 58.543V58.7407C25.8599 58.8418 25.9003 58.9388 25.9721 59.0102C26.044 59.0821 26.1414 59.1221 26.2431 59.1221H35.5857C35.6873 59.1221 35.7848 59.0821 35.8566 59.0102C35.9285 58.9388 35.9689 58.8418 35.9689 58.7407V58.543C35.9689 58.4419 35.9285 58.3449 35.8566 58.2735C35.7848 58.202 35.6873 58.162 35.5857 58.162ZM36.5494 61.0449H24.8C24.6984 61.0449 24.6009 61.0853 24.5291 61.1567C24.4572 61.2282 24.4169 61.3252 24.4169 61.4263V61.6235C24.4169 61.7246 24.4572 61.8216 24.5291 61.8931C24.6009 61.9645 24.6984 62.0049 24.8 62.0049H36.5494C36.651 62.0049 36.7485 61.9645 36.8203 61.8931C36.8922 61.8216 36.9325 61.7246 36.9325 61.6235V61.4263C36.9325 61.3252 36.8922 61.2282 36.8203 61.1567C36.7485 61.0853 36.651 61.0449 36.5494 61.0449ZM37.5119 63.9241H23.3558C23.2542 63.9241 23.1567 63.9646 23.0849 64.036C23.013 64.1074 22.9727 64.2045 22.9727 64.3055V64.5032C22.9727 64.6043 23.013 64.7013 23.0849 64.7728C23.1567 64.8442 23.2542 64.8846 23.3558 64.8846H37.5119C37.6136 64.8846 37.711 64.8442 37.7829 64.7728C37.8547 64.7013 37.8951 64.6043 37.8951 64.5032V64.3055C37.8951 64.2045 37.8547 64.1074 37.7829 64.036C37.711 63.9646 37.6136 63.9241 37.5119 63.9241Z" fill="#B57B2F"/>
</g>
<defs>
<filter id="filter0_d_82_158" x="0" y="0" width="108" height="87.0576" filterUnits="userSpaceOnUse" color-interpolation-filters="sRGB">
<feFlood flood-opacity="0" result="BackgroundImageFix"/>
<feColorMatrix in="SourceAlpha" type="matrix" values="0 0 0 0 0 0 0 0 0 0 0 0 0 0 0 0 0 0 127 0" result="hardAlpha"/>
<feOffset dy="4"/>
<feGaussianBlur stdDeviation="2"/>
<feComposite in2="hardAlpha" operator="out"/>
<feColorMatrix type="matrix" values="0 0 0 0 0 0 0 0 0 0 0 0 0 0 0 0 0 0 0.25 0"/>
<feBlend mode="normal" in2="BackgroundImageFix" result="effect1_dropShadow_82_158"/>
<feBlend mode="normal" in="SourceGraphic" in2="effect1_dropShadow_82_158" result="shape"/>
</filter>
<linearGradient id="paint0_linear_82_158" x1="53.998" y1="4.15948" x2="53.998" y2="74.8981" gradientUnits="userSpaceOnUse">
<stop stop-color="#D58D2F"/>
<stop offset="1" stop-color="#2F2F2F"/>
</linearGradient>
</defs>
</svg>
