<svg width="100" height="80" viewBox="0 0 100 80" fill="none" xmlns="http://www.w3.org/2000/svg">
<g clip-path="url(#clip0_82_162)">
<path d="M87.5 2.77938H77.3438V0.617645H56.25V2.77938H46.0938V43.2346H63.2813V34.5877H70.3125V43.2346H87.5V2.77938ZM59.7656 29.9554H52.3438V24.7055H59.7656V29.9554ZM59.7656 21.9261H52.3438V16.0586H59.7656V21.9261ZM59.7656 13.588H52.3438V8.33811H59.7656V13.588ZM70.3125 29.9554H63.2813V24.7055H70.3125V29.9554ZM70.3125 21.9261H63.2813V16.0586H66.5234H66.5625H70.2734V21.9261H70.3125ZM70.3125 13.588H66.6016H66.5625H63.2813V8.33811H66.5234H66.5625H70.2734V13.588H70.3125ZM81.25 29.9554H74.2188V24.7055H81.25V29.9554ZM81.25 21.9261H74.2969H74.2188V16.0586H81.25V21.9261ZM81.25 13.588H74.2188V8.33811H81.25V13.588ZM99.4531 48.2684C98.1641 45.489 93.4375 43.9449 89.9609 44.964L64.9609 52.283C65.1563 53.6418 65.1172 55.9271 64.375 57.1624C62.3047 60.7447 56.2109 62.3505 51.7187 60.7138L35.0391 54.7844L36.1719 52.5301L52.8516 58.4594C56.25 59.5711 60.3516 58.3667 61.6797 55.68C62.1875 54.8462 62.3828 53.8889 62.2266 53.0859C62.2656 52.1904 61.8359 51.2639 61.25 50.5536C60.4297 49.7507 59.4531 49.1331 58.1641 48.639L27.8516 38.0156C25.1953 36.8112 21.9922 36.348 18.7891 36.9347C18.0859 37.0583 17.4219 37.2127 16.7969 37.4597L16.7188 37.4906L16.6406 37.5524L11.1719 41.2273L0 48.7007V71.7386L14.2578 61.0226L44.4141 68.2181C46.9531 68.8666 49.8437 68.8975 52.1094 68.2181L95 55.6491C99.8438 54.2903 100.781 51.0477 99.4531 48.2684Z" fill="url(#paint0_linear_82_162)"/>
<path d="M78.6065 17.7548C77.6741 16.7853 76.5567 16.0123 75.3208 15.4807C74.0845 14.9491 72.7544 14.6701 71.4087 14.66C70.0635 14.6499 68.7294 14.9088 67.4852 15.4217C66.2413 15.9343 65.1124 16.6907 64.1652 17.6462C60.3466 21.4926 60.2818 27.7552 64.0165 31.6805C65.6572 33.4069 67.8566 34.4977 70.225 34.7594C72.5929 35.0211 74.9768 34.4369 76.9559 33.1096L84.2495 40.6869C84.2941 40.7332 84.3474 40.7706 84.4066 40.7966C84.4655 40.8226 84.5291 40.8363 84.5939 40.8376C84.6583 40.8389 84.7223 40.8275 84.7824 40.8041C84.8424 40.7808 84.8973 40.7455 84.9438 40.7006L86.7611 38.9547C86.8076 38.9102 86.845 38.8569 86.8708 38.7979C86.8967 38.7389 86.9106 38.675 86.9122 38.6107C86.9134 38.5459 86.9018 38.482 86.8784 38.4221C86.8549 38.3622 86.8195 38.3071 86.775 38.2609L79.4818 30.6835C80.8795 28.7702 81.5583 26.4248 81.3984 24.0599C81.2382 21.6951 80.2496 19.4624 78.6065 17.7548ZM76.3348 29.939C75.3061 30.9276 74.0074 31.5893 72.6025 31.8404C71.1976 32.0915 69.7502 31.9205 68.4419 31.3492C67.1348 30.7787 66.0258 29.8328 65.2556 28.6314C64.4861 27.431 64.0901 26.0287 64.1179 24.6031C64.1457 23.1771 64.5959 21.7912 65.411 20.6215C66.2274 19.451 67.3722 18.5489 68.7004 18.0292C70.0297 17.5091 71.4827 17.3944 72.8769 17.6997C74.271 18.0049 75.5435 18.7165 76.5328 19.7441C77.1897 20.4264 77.7055 21.2315 78.0514 22.1135C78.397 22.9951 78.5652 23.9361 78.5469 24.8829C78.5286 25.8291 78.3238 26.7631 77.9445 27.631C77.5647 28.4988 77.0175 29.2826 76.3348 29.939ZM66.4628 21.1602C65.6731 20.9726 65.3808 22.198 66.1721 22.3862C66.9631 22.5744 67.2533 21.348 66.4628 21.1602ZM72.8967 18.5422C70.7832 17.9894 68.5962 18.5954 67.1861 19.9622C66.7261 20.4069 67.5691 21.0969 68.0264 20.6542C69.1935 19.5249 71.0131 19.0611 72.7504 19.5233C74.5728 20.005 75.9932 21.4497 76.5316 23.1141C76.7364 23.7458 77.7329 23.4524 77.5301 22.8246C76.8768 20.8036 75.0802 19.1136 72.8967 18.5422Z" fill="#36332F"/>
</g>
<defs>
<linearGradient id="paint0_linear_82_162" x1="50.0006" y1="0.617645" x2="50.0006" y2="71.7386" gradientUnits="userSpaceOnUse">
<stop stop-color="#D58D2F"/>
<stop offset="1" stop-color="#2F2F2F"/>
</linearGradient>
<clipPath id="clip0_82_162">
<rect width="100" height="79.0576" fill="white"/>
</clipPath>
</defs>
</svg>
