<svg width="72" height="88" viewBox="0 0 72 88" fill="none" xmlns="http://www.w3.org/2000/svg">
<g clip-path="url(#clip0_102_7285)">
<mask id="mask0_102_7285" style="mask-type:luminance" maskUnits="userSpaceOnUse" x="0" y="0" width="72" height="88">
<path d="M72 0H0V88H72V0Z" fill="white"/>
</mask>
<g mask="url(#mask0_102_7285)">
<path d="M69.3 87.9031C71.4 87.9031 72.7 85.5031 71.5 83.8031C69.8 81.2031 66.8 79.5031 63.5 79.5031C62.6 79.5031 61.8 79.6031 61 79.8031C58.8 75.8031 54.6 73.1031 49.8 73.1031C49.3 73.1031 48.9 73.1031 48.4 73.2031V68.7031H23.6V74.3031C19 74.3031 15.1 76.8031 13 80.5031C11.7 79.8031 10.1 79.4031 8.49998 79.4031C5.09998 79.4031 2.19998 81.1031 0.499976 83.7031C-0.700024 85.5031 0.599976 87.8031 2.69998 87.8031H69.3V87.9031Z" fill="url(#paint0_linear_102_7285)"/>
<path opacity="0.07" d="M49.7996 73.1031C49.2996 73.1031 48.8996 73.1031 48.3996 73.2031V68.7031H23.5996V74.3031H44.5996C48.8996 74.3031 52.8996 76.8031 54.6996 80.8031C54.7996 80.9031 54.7996 81.0031 54.7996 81.2031C54.8996 81.3031 54.8996 81.5031 54.9996 81.6031C55.2996 82.4031 56.2996 82.7031 56.9996 82.1031C58.0996 81.0031 59.4996 80.2031 61.0996 79.8031C58.8996 75.8031 54.6996 73.1031 49.7996 73.1031ZM10.8996 85.4031C11.1996 85.4031 11.4996 85.2031 11.5996 84.8031C11.7996 83.3031 12.2996 81.8031 12.9996 80.5031C11.6996 79.8031 10.0996 79.4031 8.49961 79.4031C7.29961 79.4031 6.09961 79.6031 5.09961 80.0031C7.39961 80.9031 9.29961 82.7031 10.3996 84.9031C10.3996 85.3031 10.5996 85.4031 10.8996 85.4031Z" fill="black"/>
<path d="M14.1009 42.5063L11.2009 45.4062C7.40092 49.2062 5.30092 54.3063 5.30092 59.7063C5.29691 60.1539 5.38212 60.5978 5.55157 61.0121C5.72102 61.4265 5.97131 61.8029 6.28783 62.1194C6.60435 62.4359 6.98076 62.6862 7.39507 62.8556C7.80939 63.0251 8.25331 63.1103 8.70092 63.1063H22.3009V39.9062H20.6009C18.1009 39.9062 15.8009 40.9063 14.1009 42.5063Z" fill="url(#paint1_linear_102_7285)"/>
<path d="M57.9008 42.5063L60.8008 45.4062C64.6008 49.2062 66.7008 54.3063 66.7008 59.7063C66.7048 60.1539 66.6196 60.5978 66.4501 61.0121C66.2807 61.4265 66.0304 61.8029 65.7139 62.1194C65.3973 62.4359 65.0209 62.6862 64.6066 62.8556C64.1923 63.0251 63.7484 63.1103 63.3008 63.1063H49.8008V39.9062H51.5008C53.9008 39.9062 56.2008 40.9063 57.9008 42.5063Z" fill="url(#paint2_linear_102_7285)"/>
<path d="M54.3996 30.9014V60.0014H17.5996V30.9014C17.5996 21.4014 21.3996 12.3014 28.0996 5.60132L31.8996 1.80131C33.0187 0.697182 34.5275 0.078125 36.0996 0.078125C37.6717 0.078125 39.1805 0.697182 40.2996 1.80131L44.0996 5.60132C50.6996 12.3014 54.3996 21.4014 54.3996 30.9014Z" fill="url(#paint3_linear_102_7285)"/>
<path opacity="0.07" d="M43.9 5.60329L40.1 1.80329C38 -0.29671 34.8 -0.496711 32.5 1.20329C32.8 1.40329 33 1.60329 33.2 1.80329L37 5.60329C43.7 12.3033 47.5 21.4033 47.5 30.9033V60.0033H54.4V30.9033C54.4 21.4033 50.7 12.3033 43.9 5.60329Z" fill="black"/>
<path d="M31.8008 1.80313L28.0008 5.60313C24.0008 9.70313 21.0008 14.6031 19.3008 20.0031H52.7008C51.0008 14.6031 48.0008 9.70313 43.9008 5.60313L40.1008 1.80313C37.9008 -0.496876 34.1008 -0.496876 31.8008 1.80313Z" fill="url(#paint4_linear_102_7285)"/>
<path d="M36.0008 52.9C43.6008 52.9 49.7008 46.8 49.7008 39.2C49.7008 31.6 43.6008 25.5 36.0008 25.5C28.4008 25.5 22.3008 31.6 22.3008 39.2C22.3008 46.8 28.4008 52.9 36.0008 52.9Z" fill="url(#paint5_linear_102_7285)"/>
<path opacity="0.05" d="M35.9996 25.6016C34.7996 25.6016 33.6996 25.8016 32.5996 26.0016C38.4996 27.5016 42.7996 32.9016 42.7996 39.2016C42.7996 45.6016 38.4996 50.9016 32.5996 52.4016C33.6996 52.7016 34.8996 52.8016 35.9996 52.8016C43.5996 52.8016 49.6996 46.7016 49.6996 39.1016C49.6996 31.7016 43.5996 25.6016 35.9996 25.6016Z" fill="black"/>
<path d="M35.9996 47.1047C40.2996 47.1047 43.8996 43.6047 43.8996 39.2047C43.8996 34.8047 40.3996 31.3047 35.9996 31.3047C31.5996 31.3047 28.0996 34.8047 28.0996 39.2047C28.0996 43.6047 31.6996 47.1047 35.9996 47.1047Z" fill="url(#paint6_linear_102_7285)"/>
<path opacity="0.1" d="M36.0008 31.4062C35.2573 31.4076 34.5174 31.5085 33.8008 31.7062C37.1008 32.6062 39.5008 35.7062 39.5008 39.3062C39.5008 42.9062 37.1008 45.9062 33.8008 46.9062C34.5008 47.1062 35.2008 47.2063 36.0008 47.2063C38.0944 47.201 40.1007 46.3669 41.5811 44.8865C43.0615 43.4061 43.8955 41.3998 43.9008 39.3062C43.8955 37.2126 43.0615 35.2064 41.5811 33.726C40.1007 32.2456 38.0944 31.4115 36.0008 31.4062Z" fill="black"/>
<path d="M17.5996 58V65.9C17.5996 68.2 19.3996 70 21.6996 70H50.2996C52.5996 70 54.3996 68.2 54.3996 65.9V58H17.5996Z" fill="url(#paint7_linear_102_7285)"/>
<path opacity="0.1" d="M47.5 70.0033H50.3C52.6 70.0033 54.4 68.2033 54.4 65.9033V58.0033H47.5V70.0033ZM43.9 5.60329L40.1 1.80329C38 -0.29671 34.8 -0.496711 32.5 1.20329C32.8 1.40329 33 1.60329 33.2 1.80329L37 5.60329C41.1 9.70329 44.1 14.6033 45.8 20.0033H52.7C51 14.6033 48 9.70329 43.9 5.60329Z" fill="black"/>
</g>
</g>
<defs>
<linearGradient id="paint0_linear_102_7285" x1="36" y1="72.5021" x2="36" y2="95.5021" gradientUnits="userSpaceOnUse">
<stop stop-color="white"/>
<stop offset="0.416" stop-color="#F5F4F8"/>
<stop offset="1" stop-color="#EFECF3"/>
</linearGradient>
<linearGradient id="paint1_linear_102_7285" x1="4.53892" y1="51.5403" x2="19.8129" y2="51.5403" gradientUnits="userSpaceOnUse">
<stop stop-color="#FF9812"/>
<stop offset="1" stop-color="#E58910"/>
</linearGradient>
<linearGradient id="paint2_linear_102_7285" x1="49.0708" y1="51.5403" x2="64.3438" y2="51.5403" gradientUnits="userSpaceOnUse">
<stop stop-color="#CD7808"/>
<stop offset="1" stop-color="#F59211"/>
</linearGradient>
<linearGradient id="paint3_linear_102_7285" x1="17.4816" y1="30.0264" x2="53.9236" y2="30.0264" gradientUnits="userSpaceOnUse">
<stop stop-color="white"/>
<stop offset="0.416" stop-color="#F5F4F8"/>
<stop offset="1" stop-color="#EFECF3"/>
</linearGradient>
<linearGradient id="paint4_linear_102_7285" x1="17.8368" y1="10.0421" x2="48.0028" y2="10.0421" gradientUnits="userSpaceOnUse">
<stop stop-color="#FF9812"/>
<stop offset="1" stop-color="#CD7809"/>
</linearGradient>
<linearGradient id="paint5_linear_102_7285" x1="19.5018" y1="39.107" x2="49.5388" y2="39.348" gradientUnits="userSpaceOnUse">
<stop stop-color="#FF9812"/>
<stop offset="0.606" stop-color="#FF9812"/>
<stop offset="1" stop-color="#E58910"/>
</linearGradient>
<linearGradient id="paint6_linear_102_7285" x1="28.1876" y1="39.2487" x2="43.6346" y2="39.2487" gradientUnits="userSpaceOnUse">
<stop stop-color="#F3F3F3"/>
<stop offset="1" stop-color="#FCFCFC"/>
</linearGradient>
<linearGradient id="paint7_linear_102_7285" x1="15.9886" y1="64.031" x2="49.2246" y2="64.031" gradientUnits="userSpaceOnUse">
<stop stop-color="#DF840C"/>
<stop offset="1" stop-color="#C47206"/>
</linearGradient>
<clipPath id="clip0_102_7285">
<rect width="72" height="88" fill="white"/>
</clipPath>
</defs>
</svg>
