<svg width="72" height="88" viewBox="0 0 72 88" fill="none" xmlns="http://www.w3.org/2000/svg">
<path d="M40.0008 59.2969L35.8008 63.4969C38.2008 66.1969 42.3008 66.2969 44.9008 63.7969C45.7008 62.8969 45.2008 61.4969 44.0008 61.2969C42.5008 61.0969 41.0008 60.3969 40.0008 59.2969Z" fill="url(#paint0_linear_102_7259)"/>
<path d="M37.3992 61.7969L47.9992 72.3969C48.8151 73.2224 49.2726 74.3363 49.2726 75.4969C49.2726 76.6576 48.8151 77.7714 47.9992 78.5969C47.1737 79.4128 46.0599 79.8703 44.8992 79.8703C43.7386 79.8703 42.6247 79.4128 41.7992 78.5969L31.1992 68.0969L37.3992 61.7969Z" fill="url(#paint1_linear_102_7259)"/>
<path opacity="0.07" d="M31.1992 68.0969L31.7992 68.6969C33.3992 70.2969 35.9992 70.2969 37.6992 68.6969L38.5992 67.7969L45.5992 74.7969C46.8992 76.0969 47.1992 77.9969 46.5992 79.5969C47.0992 79.3969 47.5992 79.0969 47.9992 78.5969C48.8151 77.7714 49.2726 76.6576 49.2726 75.4969C49.2726 74.3363 48.8151 73.2224 47.9992 72.3969L37.3992 61.7969L31.1992 68.0969Z" fill="black"/>
<path d="M45.3992 45.1031C53.4992 45.1031 60.0992 38.5031 60.0992 30.4031C60.0992 22.3031 53.4992 15.7031 45.3992 15.7031C37.2992 15.7031 30.6992 22.3031 30.6992 30.4031C30.6992 38.5031 37.2992 45.1031 45.3992 45.1031Z" fill="url(#paint2_linear_102_7259)"/>
<path opacity="0.05" d="M34.5 20.6L55.3 41.4L55.9 40.8C58 38.7 59.3 36.1 59.9 33.4L42.4 16C39.7 16.6 37.1 17.9 35 20C34.8 20.2 34.7 20.4 34.5 20.6Z" fill="black"/>
<path d="M20.1984 29.6016L9.59845 40.2016C7.88712 41.9065 6.52923 43.9324 5.6027 46.1633C4.67617 48.3941 4.19922 50.786 4.19922 53.2016C4.19922 55.6172 4.67617 58.0091 5.6027 60.2399C6.52923 62.4708 7.88712 64.4967 9.59845 66.2016C11.3033 67.9129 13.3292 69.2708 15.5601 70.1973C17.7909 71.1239 20.1828 71.6008 22.5984 71.6008C25.014 71.6008 27.4059 71.1239 29.6367 70.1973C31.8676 69.2708 33.8935 67.9129 35.5984 66.2016L46.1984 55.6016C48.2102 53.6433 50.6455 52.1738 53.3158 51.3069C55.9861 50.4399 58.8199 50.1986 61.5984 50.6016L64.1984 48.0016L27.7984 11.6016L25.1984 14.2016C25.6014 16.9801 25.3601 19.814 24.4931 22.4843C23.6262 25.1546 22.1567 27.5898 20.1984 29.6016Z" fill="url(#paint3_linear_102_7259)"/>
<path opacity="0.07" d="M27.8 11.6016L64.2 48.0016L61.6 50.6016C58.4 50.1016 55.1 50.5016 52.1 51.7016L24 23.7016C25.2 20.7016 25.6 17.4016 25.1 14.2016L27.8 11.6016Z" fill="black"/>
<path d="M14.9984 66.9969L12.0985 69.8969C11.273 70.7128 10.159 71.1703 8.99843 71.1703C7.83778 71.1703 6.72393 70.7128 5.89843 69.8969C5.08256 69.0714 4.625 67.9576 4.625 66.7969C4.625 65.6363 5.08256 64.5224 5.89843 63.6969L8.79843 60.7969L14.9984 66.9969Z" fill="url(#paint4_linear_102_7259)"/>
<path d="M36.1985 65.7031L10.1984 39.7031L9.59845 40.3031C7.88712 42.0079 6.52923 44.0339 5.6027 46.2648C4.67617 48.4956 4.19922 50.8875 4.19922 53.3031C4.19922 55.7187 4.67617 58.1106 5.6027 60.3414C6.52923 62.5723 7.88712 64.5982 9.59845 66.3031C11.3033 68.0144 13.3292 69.3723 15.5601 70.2988C17.7909 71.2254 20.1828 71.7023 22.5984 71.7023C25.014 71.7023 27.4059 71.2254 29.6367 70.2988C31.8676 69.3723 33.8935 68.0144 35.5984 66.3031L36.1985 65.7031Z" fill="url(#paint5_linear_102_7259)"/>
<path d="M60.3023 50.8969L24.9023 15.4969C24.0864 14.6714 23.6289 13.5575 23.6289 12.3969C23.6289 11.2362 24.0864 10.1224 24.9023 9.29686C25.7278 8.48099 26.8416 8.02344 28.0023 8.02344C29.1629 8.02344 30.2768 8.48099 31.1023 9.29686L66.5023 44.6969C67.3182 45.5224 67.7757 46.6362 67.7757 47.7969C67.7757 48.9575 67.3182 50.0714 66.5023 50.8969C64.8023 52.6969 62.0023 52.6969 60.3023 50.8969Z" fill="url(#paint6_linear_102_7259)"/>
<path d="M55.5992 15C54.7992 15 54.1992 14.4 54.1992 13.6V9.9C54.1992 9.1 54.7992 8.5 55.5992 8.5C56.3992 8.5 56.9992 9.1 56.9992 9.9V13.6C56.9992 14.4 56.2992 15 55.5992 15Z" fill="url(#paint7_linear_102_7259)"/>
<path d="M65.9008 21.6984H62.2008C61.4008 21.6984 60.8008 21.0984 60.8008 20.2984C60.8008 19.4984 61.4008 18.8984 62.2008 18.8984H65.9008C66.7008 18.8984 67.3008 19.4984 67.3008 20.2984C67.3008 20.9984 66.7008 21.6984 65.9008 21.6984Z" fill="url(#paint8_linear_102_7259)"/>
<path d="M59.2977 16.5031C58.6977 15.9031 58.6977 15.1031 59.2977 14.5031L61.8977 11.9031C62.4977 11.3031 63.2977 11.3031 63.8977 11.9031C64.4977 12.5031 64.4977 13.3031 63.8977 13.9031L61.2977 16.5031C60.6977 17.1031 59.7977 17.1031 59.2977 16.5031Z" fill="url(#paint9_linear_102_7259)"/>
<defs>
<linearGradient id="paint0_linear_102_7259" x1="43.0688" y1="57.7949" x2="40.0688" y2="64.2949" gradientUnits="userSpaceOnUse">
<stop stop-color="#FF9812"/>
<stop offset="0.624" stop-color="#FF9812"/>
<stop offset="1" stop-color="#FF9812"/>
</linearGradient>
<linearGradient id="paint1_linear_102_7259" x1="31.1372" y1="70.9149" x2="49.1072" y2="70.9149" gradientUnits="userSpaceOnUse">
<stop stop-color="white"/>
<stop offset="0.416" stop-color="#F5F4F8"/>
<stop offset="1" stop-color="#EFECF3"/>
</linearGradient>
<linearGradient id="paint2_linear_102_7259" x1="32.7792" y1="30.3811" x2="60.0112" y2="30.3811" gradientUnits="userSpaceOnUse">
<stop stop-color="#FF9812"/>
<stop offset="0.624" stop-color="#FF9812"/>
<stop offset="1" stop-color="#FF9812"/>
</linearGradient>
<linearGradient id="paint3_linear_102_7259" x1="4.01245" y1="41.6146" x2="63.4234" y2="41.6146" gradientUnits="userSpaceOnUse">
<stop stop-color="white"/>
<stop offset="0.416" stop-color="#F5F4F8"/>
<stop offset="1" stop-color="#EFECF3"/>
</linearGradient>
<linearGradient id="paint4_linear_102_7259" x1="4.13743" y1="66.0019" x2="13.5624" y2="66.0019" gradientUnits="userSpaceOnUse">
<stop stop-color="#FF9812"/>
<stop offset="1" stop-color="#FF9812"/>
</linearGradient>
<linearGradient id="paint5_linear_102_7259" x1="2.79445" y1="55.6541" x2="31.6444" y2="55.6541" gradientUnits="userSpaceOnUse">
<stop stop-color="#FF9812"/>
<stop offset="1" stop-color="#FF9812"/>
</linearGradient>
<linearGradient id="paint6_linear_102_7259" x1="21.6703" y1="30.1149" x2="61.5803" y2="30.1149" gradientUnits="userSpaceOnUse">
<stop stop-color="#FF9812"/>
<stop offset="1" stop-color="#FF9812"/>
</linearGradient>
<linearGradient id="paint7_linear_102_7259" x1="54.3502" y1="11.76" x2="56.9612" y2="11.76" gradientUnits="userSpaceOnUse">
<stop stop-color="#FF9812"/>
<stop offset="0.645833" stop-color="#FF9812"/>
<stop offset="1" stop-color="#FF9812"/>
</linearGradient>
<linearGradient id="paint8_linear_102_7259" x1="61.2658" y1="20.2494" x2="67.2728" y2="20.2494" gradientUnits="userSpaceOnUse">
<stop stop-color="#FF9812"/>
<stop offset="0.624" stop-color="#FF9812"/>
<stop offset="1" stop-color="#FF9812"/>
</linearGradient>
<linearGradient id="paint9_linear_102_7259" x1="59.2377" y1="14.2521" x2="64.2507" y2="14.2521" gradientUnits="userSpaceOnUse">
<stop stop-color="#FF9812"/>
<stop offset="0.624" stop-color="#FF9812"/>
<stop offset="1" stop-color="#FF9812"/>
</linearGradient>
</defs>
</svg>
