<svg width="86" height="86" viewBox="0 0 86 86" fill="none" xmlns="http://www.w3.org/2000/svg">
<mask id="mask0_116_462" style="mask-type:alpha" maskUnits="userSpaceOnUse" x="0" y="21" width="86" height="64">
<path d="M0 31.001C0 25.478 4.477 21.001 10 21.001H76C81.523 21.001 86 25.478 86 31.001V74.291C86 79.814 81.523 84.291 76 84.291H10C4.477 84.291 0 79.814 0 74.291V31.001Z" fill="url(#paint0_linear_116_462)"/>
</mask>
<g mask="url(#mask0_116_462)">
<path d="M0 29.001C0 26.8792 0.842855 24.8444 2.34315 23.3441C3.84344 21.8438 5.87827 21.001 8 21.001H78C80.1217 21.001 82.1566 21.8438 83.6569 23.3441C85.1571 24.8444 86 26.8792 86 29.001V76.291C86 78.4127 85.1571 80.4475 83.6569 81.9478C82.1566 83.4481 80.1217 84.291 78 84.291H8C5.87827 84.291 3.84344 83.4481 2.34315 81.9478C0.842855 80.4475 0 78.4127 0 76.291V29.001Z" fill="url(#paint1_linear_116_462)"/>
<path opacity="0.07" d="M5.191 78.8691V26.7851C5.19575 25.3008 5.78748 23.8787 6.83703 22.8291C7.88658 21.7796 9.30872 21.1879 10.793 21.1831H5.602C4.11772 21.1879 2.69558 21.7796 1.64603 22.8291C0.596479 23.8787 0.00474637 25.3008 0 26.7851L0 78.8701C0.00474637 80.3544 0.596479 81.7765 1.64603 82.8261C2.69558 83.8756 4.11772 84.4674 5.602 84.4721H10.793C9.30872 84.4674 7.88658 83.8756 6.83703 82.8261C5.78748 81.7765 5.19575 80.3534 5.191 78.8691Z" fill="black"/>
<path d="M80.398 21.1831H5.602C4.11772 21.1879 2.69558 21.7796 1.64603 22.8291C0.596479 23.8787 0.00474637 25.3008 0 26.7851L0 34.8021C0 37.7021 1.665 40.3451 4.28 41.5971L37.032 57.2821C37.4045 55.987 38.1882 54.8483 39.2648 54.0377C40.3414 53.2272 41.6524 52.7888 43 52.7888C44.3476 52.7888 45.6586 53.2272 46.7352 54.0377C47.8118 54.8483 48.5955 55.987 48.968 57.2821L81.72 41.5971C84.335 40.3441 86 37.7021 86 34.8021V26.7851C85.9953 25.3008 85.4035 23.8787 84.354 22.8291C83.3044 21.7796 81.8823 21.1879 80.398 21.1831Z" fill="url(#paint2_linear_116_462)"/>
<path opacity="0.07" d="M80.398 21.001H5.602C4.11772 21.0057 2.69558 21.5975 1.64603 22.647C0.596479 23.6966 0.00474637 25.1187 0 26.603L0 34.62C0 37.52 1.665 40.163 4.28 41.415L37.032 57.1C37.4045 55.8049 38.1882 54.6661 39.2648 53.8556C40.3414 53.045 41.6524 52.6067 43 52.6067C44.3476 52.6067 45.6586 53.045 46.7352 53.8556C47.8118 54.6661 48.5955 55.8049 48.968 57.1L81.72 41.415C84.335 40.162 86 37.52 86 34.62V26.603C85.9953 25.1187 85.4035 23.6966 84.354 22.647C83.3044 21.5975 81.8823 21.0057 80.398 21.001Z" fill="black"/>
<path opacity="0.07" d="M4.28 41.5961L5.191 42.0331V26.7851C5.19575 25.3008 5.78748 23.8787 6.83703 22.8291C7.88658 21.7796 9.30872 21.1879 10.793 21.1831H5.602C4.11772 21.1879 2.69558 21.7796 1.64603 22.8291C0.596479 23.8787 0.00474637 25.3008 0 26.7851L0 34.8021C0 37.7021 1.665 40.3441 4.28 41.5961Z" fill="#1F1B2D"/>
</g>
<path d="M58.6792 1.52783H26.3302C24.0645 1.53127 21.8925 2.43286 20.2904 4.03499C18.6882 5.63712 17.7866 7.80908 17.7832 10.0748V18.4058H23.8402V10.0748C23.8402 8.70183 24.9572 7.58483 26.3302 7.58483H58.6792C60.0522 7.58483 61.1692 8.70183 61.1692 10.0748V18.4058H67.2262V10.0748C67.2228 7.80908 66.3212 5.63712 64.719 4.03499C63.1169 2.43286 60.945 1.53127 58.6792 1.52783Z" fill="url(#paint3_linear_116_462)"/>
<path opacity="0.5" d="M30.9592 1.52783H26.3302C24.0645 1.53127 21.8925 2.43286 20.2904 4.03499C18.6882 5.63712 17.7866 7.80908 17.7832 10.0748V18.4058H22.4122V10.0748C22.4156 7.80908 23.3172 5.63712 24.9194 4.03499C26.5215 2.43286 28.6935 1.53127 30.9592 1.52783Z" fill="#F23C49"/>
<path opacity="0.07" d="M63.3106 7.58398H58.6816C60.0546 7.58398 61.1716 8.70098 61.1716 10.074V18.405H65.8006V10.074C65.8006 8.70098 64.6836 7.58398 63.3106 7.58398Z" fill="black"/>
<path d="M43.0001 52.6118C41.3085 52.6142 39.6869 53.2872 38.4907 54.4834C37.2946 55.6796 36.6215 57.3012 36.6191 58.9928C36.6215 60.6844 37.2946 62.3061 38.4907 63.5022C39.6869 64.6984 41.3085 65.3714 43.0001 65.3738C44.6918 65.3714 46.3134 64.6984 47.5096 63.5022C48.7057 62.3061 49.3788 60.6844 49.3811 58.9928C49.3788 57.3012 48.7057 55.6796 47.5096 54.4834C46.3134 53.2872 44.6918 52.6142 43.0001 52.6118Z" fill="url(#paint4_linear_116_462)"/>
<g opacity="0.12">
<path d="M41.8111 58.9928C41.8111 56.3988 43.3681 54.1628 45.5961 53.1658C44.8021 52.8108 43.9241 52.6118 43.0001 52.6118C41.3085 52.6142 39.6869 53.2872 38.4907 54.4834C37.2946 55.6796 36.6215 57.3012 36.6191 58.9928C36.6215 60.6844 37.2946 62.3061 38.4907 63.5022C39.6869 64.6984 41.3085 65.3714 43.0001 65.3738C43.9241 65.3738 44.8021 65.1748 45.5961 64.8198C44.4704 64.3172 43.514 63.4997 42.8424 62.4657C42.1708 61.4318 41.8127 60.2257 41.8111 58.9928Z" fill="#9714F4"/>
<path d="M43.5493 60.2889H42.4523C42.1082 60.2883 41.7784 60.1514 41.5351 59.9081C41.2917 59.6648 41.1548 59.335 41.1543 58.9909C41.1548 58.6468 41.2917 58.3169 41.5351 58.0736C41.7784 57.8303 42.1082 57.6934 42.4523 57.6929H43.5493C43.8934 57.6934 44.2232 57.8303 44.4665 58.0736C44.7098 58.3169 44.8468 58.6468 44.8473 58.9909C44.8468 59.335 44.7098 59.6648 44.4665 59.9081C44.2232 60.1514 43.8934 60.2883 43.5493 60.2889Z" fill="#FD5631"/>
</g>
<path d="M27.0519 17.8862H16.5539C15.9118 17.8881 15.2966 18.144 14.8426 18.598C14.3886 19.052 14.1327 19.6672 14.1309 20.3092V22.0592C14.1327 22.7013 14.3886 23.3165 14.8426 23.7705C15.2966 24.2245 15.9118 24.4804 16.5539 24.4822H27.0519C27.6939 24.4804 28.3091 24.2245 28.7631 23.7705C29.2171 23.3165 29.473 22.7013 29.4749 22.0592V20.3092C29.473 19.6672 29.2171 19.052 28.7631 18.598C28.3091 18.144 27.6939 17.8881 27.0519 17.8862Z" fill="url(#paint5_linear_116_462)"/>
<path d="M69.4464 17.8862H58.9484C58.3063 17.8881 57.6911 18.144 57.2371 18.598C56.7831 19.052 56.5272 19.6672 56.5254 20.3092V22.0592C56.5272 22.7013 56.7831 23.3165 57.2371 23.7705C57.6911 24.2245 58.3063 24.4804 58.9484 24.4822H69.4464C70.0884 24.4804 70.7037 24.2245 71.1577 23.7705C71.6117 23.3165 71.8675 22.7013 71.8694 22.0592V20.3092C71.8675 19.6672 71.6117 19.052 71.1577 18.598C70.7037 18.144 70.0884 17.8881 69.4464 17.8862Z" fill="url(#paint6_linear_116_462)"/>
<path opacity="0.5" d="M19.3219 22.0578V20.3078C19.3237 19.6657 19.5796 19.0505 20.0336 18.5965C20.4876 18.1425 21.1028 17.8866 21.7449 17.8848H16.5539C15.9118 17.8866 15.2966 18.1425 14.8426 18.5965C14.3886 19.0505 14.1327 19.6657 14.1309 20.3078V22.0578C14.1327 22.6998 14.3886 23.315 14.8426 23.769C15.2966 24.223 15.9118 24.4789 16.5539 24.4808H21.7449C21.1028 24.4789 20.4876 24.223 20.0336 23.769C19.5796 23.315 19.3237 22.6998 19.3219 22.0578V22.0578Z" fill="#9714F4"/>
<path opacity="0.5" d="M61.7183 22.0578V20.3078C61.7202 19.6657 61.9761 19.0505 62.4301 18.5965C62.8841 18.1425 63.4993 17.8866 64.1413 17.8848H58.9503C58.3083 17.8866 57.6931 18.1425 57.2391 18.5965C56.7851 19.0505 56.5292 19.6657 56.5273 20.3078V22.0578C56.5292 22.6998 56.7851 23.315 57.2391 23.769C57.6931 24.223 58.3083 24.4789 58.9503 24.4808H64.1413C63.4993 24.4789 62.8841 24.223 62.4301 23.769C61.9761 23.315 61.7202 22.6998 61.7183 22.0578V22.0578Z" fill="#9714F4"/>
<defs>
<linearGradient id="paint0_linear_116_462" x1="3698" y1="1676.41" x2="3698" y2="5384.45" gradientUnits="userSpaceOnUse">
<stop stop-color="white"/>
<stop offset="0.416" stop-color="#F5F4F8"/>
<stop offset="1" stop-color="#EFECF3"/>
</linearGradient>
<linearGradient id="paint1_linear_116_462" x1="3698" y1="1676.41" x2="3698" y2="5384.45" gradientUnits="userSpaceOnUse">
<stop stop-color="white"/>
<stop offset="0.416" stop-color="#F5F4F8"/>
<stop offset="1" stop-color="#EFECF3"/>
</linearGradient>
<linearGradient id="paint2_linear_116_462" x1="3697.83" y1="1043.47" x2="3697.83" y2="2604.46" gradientUnits="userSpaceOnUse">
<stop stop-color="white"/>
<stop offset="0.416" stop-color="#F5F4F8"/>
<stop offset="1" stop-color="#EFECF3"/>
</linearGradient>
<linearGradient id="paint3_linear_116_462" x1="791.269" y1="169.751" x2="2996.77" y2="169.751" gradientUnits="userSpaceOnUse">
<stop stop-color="#9714F4"/>
<stop offset="1" stop-color="#A237EE"/>
</linearGradient>
<linearGradient id="paint4_linear_116_462" x1="515.373" y1="805.481" x2="701.992" y2="807.165" gradientUnits="userSpaceOnUse">
<stop stop-color="#9714F4"/>
<stop offset="0.517" stop-color="#A237EE"/>
<stop offset="1" stop-color="#FFFDF9"/>
</linearGradient>
<linearGradient id="paint5_linear_116_462" x1="220.753" y1="157.616" x2="433.16" y2="157.616" gradientUnits="userSpaceOnUse">
<stop stop-color="#9714F4"/>
<stop offset="1" stop-color="#A237EE"/>
</linearGradient>
<linearGradient id="paint6_linear_116_462" x1="913.672" y1="157.616" x2="1126.08" y2="157.616" gradientUnits="userSpaceOnUse">
<stop stop-color="#9714F4"/>
<stop offset="1" stop-color="#A237EE"/>
</linearGradient>
</defs>
</svg>
