<svg width="86" height="86" viewBox="0 0 86 86" fill="none" xmlns="http://www.w3.org/2000/svg">
<mask id="mask0_102_7303" style="mask-type:alpha" maskUnits="userSpaceOnUse" x="0" y="21" width="86" height="64">
<path d="M0 31C0 25.477 4.477 21 10 21H76C81.523 21 86 25.477 86 31V74.29C86 79.813 81.523 84.29 76 84.29H10C4.477 84.29 0 79.813 0 74.29V31Z" fill="url(#paint0_linear_102_7303)"/>
</mask>
<g mask="url(#mask0_102_7303)">
<path d="M0 29C0 26.8782 0.842855 24.8434 2.34315 23.3431C3.84344 21.8428 5.87827 21 8 21H78C80.1217 21 82.1566 21.8428 83.6569 23.3431C85.1571 24.8434 86 26.8782 86 29V76.29C86 78.4117 85.1571 80.4465 83.6569 81.9468C82.1566 83.4471 80.1217 84.29 78 84.29H8C5.87827 84.29 3.84344 83.4471 2.34315 81.9468C0.842855 80.4465 0 78.4117 0 76.29V29Z" fill="url(#paint1_linear_102_7303)"/>
<path opacity="0.07" d="M5.191 78.8657V26.7817C5.19575 25.2974 5.78748 23.8753 6.83703 22.8257C7.88658 21.7762 9.30872 21.1845 10.793 21.1797H5.602C4.11772 21.1845 2.69558 21.7762 1.64603 22.8257C0.596479 23.8753 0.00474637 25.2974 0 26.7817V78.8667C0.00474637 80.351 0.596479 81.7731 1.64603 82.8227C2.69558 83.8722 4.11772 84.464 5.602 84.4687H10.793C9.30872 84.464 7.88658 83.8722 6.83703 82.8227C5.78748 81.7731 5.19575 80.35 5.191 78.8657Z" fill="black"/>
<path d="M80.398 21.1797H5.602C4.11772 21.1845 2.69558 21.7762 1.64603 22.8257C0.596479 23.8753 0.00474637 25.2974 0 26.7817V34.7987C0 37.6987 1.665 40.3417 4.28 41.5937L37.032 57.2787C37.4045 55.9836 38.1882 54.8449 39.2648 54.0343C40.3414 53.2238 41.6524 52.7854 43 52.7854C44.3476 52.7854 45.6586 53.2238 46.7352 54.0343C47.8118 54.8449 48.5955 55.9836 48.968 57.2787L81.72 41.5937C84.335 40.3407 86 37.6987 86 34.7987V26.7817C85.9953 25.2974 85.4035 23.8753 84.354 22.8257C83.3044 21.7762 81.8823 21.1845 80.398 21.1797Z" fill="url(#paint2_linear_102_7303)"/>
<path opacity="0.07" d="M80.398 21H5.602C4.11772 21.0047 2.69558 21.5965 1.64603 22.646C0.596479 23.6956 0.00474637 25.1177 0 26.602V34.619C0 37.519 1.665 40.162 4.28 41.414L37.032 57.099C37.4045 55.8039 38.1882 54.6651 39.2648 53.8546C40.3414 53.044 41.6524 52.6057 43 52.6057C44.3476 52.6057 45.6586 53.044 46.7352 53.8546C47.8118 54.6651 48.5955 55.8039 48.968 57.099L81.72 41.414C84.335 40.161 86 37.519 86 34.619V26.602C85.9953 25.1177 85.4035 23.6956 84.354 22.646C83.3044 21.5965 81.8823 21.0047 80.398 21Z" fill="black"/>
<path opacity="0.07" d="M4.28 41.5927L5.191 42.0297V26.7817C5.19575 25.2974 5.78748 23.8753 6.83703 22.8257C7.88658 21.7762 9.30872 21.1845 10.793 21.1797H5.602C4.11772 21.1845 2.69558 21.7762 1.64603 22.8257C0.596479 23.8753 0.00474637 25.2974 0 26.7817V34.7987C0 37.6987 1.665 40.3407 4.28 41.5927Z" fill="#1F1B2D"/>
</g>
<path d="M58.6792 1.53125H26.3302C24.0645 1.53469 21.8925 2.43628 20.2904 4.03841C18.6882 5.64054 17.7866 7.8125 17.7832 10.0782V18.4092H23.8402V10.0782C23.8402 8.70525 24.9572 7.58825 26.3302 7.58825H58.6792C60.0522 7.58825 61.1692 8.70525 61.1692 10.0782V18.4092H67.2262V10.0782C67.2228 7.8125 66.3212 5.64054 64.719 4.03841C63.1169 2.43628 60.945 1.53469 58.6792 1.53125Z" fill="url(#paint3_linear_102_7303)"/>
<path opacity="0.5" d="M30.9592 1.53125H26.3302C24.0645 1.53469 21.8925 2.43628 20.2904 4.03841C18.6882 5.64054 17.7866 7.8125 17.7832 10.0782V18.4092H22.4122V10.0782C22.4156 7.8125 23.3172 5.64054 24.9194 4.03841C26.5215 2.43628 28.6935 1.53469 30.9592 1.53125Z" fill="#E5870D"/>
<path opacity="0.07" d="M63.3106 7.58594H58.6816C60.0546 7.58594 61.1716 8.70294 61.1716 10.076V18.407H65.8006V10.076C65.8006 8.70294 64.6836 7.58594 63.3106 7.58594Z" fill="black"/>
<path d="M43.0001 52.6094C41.3085 52.6118 39.6869 53.2848 38.4907 54.481C37.2946 55.6772 36.6215 57.2988 36.6191 58.9904C36.6215 60.682 37.2946 62.3037 38.4907 63.4998C39.6869 64.696 41.3085 65.369 43.0001 65.3714C44.6918 65.369 46.3134 64.696 47.5096 63.4998C48.7057 62.3037 49.3788 60.682 49.3811 58.9904C49.3788 57.2988 48.7057 55.6772 47.5096 54.481C46.3134 53.2848 44.6918 52.6118 43.0001 52.6094Z" fill="url(#paint4_linear_102_7303)"/>
<g opacity="0.12">
<path d="M41.8111 58.9904C41.8111 56.3964 43.3681 54.1604 45.5961 53.1634C44.8021 52.8084 43.9241 52.6094 43.0001 52.6094C41.3085 52.6118 39.6869 53.2848 38.4907 54.481C37.2946 55.6772 36.6215 57.2988 36.6191 58.9904C36.6215 60.682 37.2946 62.3037 38.4907 63.4998C39.6869 64.696 41.3085 65.369 43.0001 65.3714C43.9241 65.3714 44.8021 65.1724 45.5961 64.8174C44.4704 64.3148 43.514 63.4973 42.8424 62.4633C42.1708 61.4294 41.8127 60.2233 41.8111 58.9904Z" fill="#B96C08"/>
<path d="M43.5493 60.2835H42.4523C42.1082 60.2829 41.7784 60.146 41.5351 59.9027C41.2917 59.6594 41.1548 59.3296 41.1543 58.9855C41.1548 58.6414 41.2917 58.3115 41.5351 58.0682C41.7784 57.8249 42.1082 57.688 42.4523 57.6875H43.5493C43.8934 57.688 44.2232 57.8249 44.4665 58.0682C44.7098 58.3115 44.8468 58.6414 44.8473 58.9855C44.8468 59.3296 44.7098 59.6594 44.4665 59.9027C44.2232 60.146 43.8934 60.2829 43.5493 60.2835Z" fill="#E1850D"/>
</g>
<path d="M27.0519 17.8828H16.5539C15.9118 17.8847 15.2966 18.1406 14.8426 18.5946C14.3886 19.0486 14.1327 19.6638 14.1309 20.3058V22.0558C14.1327 22.6979 14.3886 23.3131 14.8426 23.7671C15.2966 24.2211 15.9118 24.477 16.5539 24.4788H27.0519C27.6939 24.477 28.3091 24.2211 28.7631 23.7671C29.2171 23.3131 29.473 22.6979 29.4749 22.0558V20.3058C29.473 19.6638 29.2171 19.0486 28.7631 18.5946C28.3091 18.1406 27.6939 17.8847 27.0519 17.8828Z" fill="url(#paint5_linear_102_7303)"/>
<path d="M69.4464 17.8828H58.9484C58.3063 17.8847 57.6911 18.1406 57.2371 18.5946C56.7831 19.0486 56.5272 19.6638 56.5254 20.3058V22.0558C56.5272 22.6979 56.7831 23.3131 57.2371 23.7671C57.6911 24.2211 58.3063 24.477 58.9484 24.4788H69.4464C70.0884 24.477 70.7037 24.2211 71.1577 23.7671C71.6117 23.3131 71.8675 22.6979 71.8694 22.0558V20.3058C71.8675 19.6638 71.6117 19.0486 71.1577 18.5946C70.7037 18.1406 70.0884 17.8847 69.4464 17.8828Z" fill="url(#paint6_linear_102_7303)"/>
<path opacity="0.5" d="M19.3219 22.0558V20.3058C19.3237 19.6637 19.5796 19.0485 20.0336 18.5945C20.4876 18.1405 21.1028 17.8846 21.7449 17.8828H16.5539C15.9118 17.8846 15.2966 18.1405 14.8426 18.5945C14.3886 19.0485 14.1327 19.6637 14.1309 20.3058V22.0558C14.1327 22.6978 14.3886 23.313 14.8426 23.767C15.2966 24.221 15.9118 24.4769 16.5539 24.4788H21.7449C21.1028 24.4769 20.4876 24.221 20.0336 23.767C19.5796 23.313 19.3237 22.6978 19.3219 22.0558Z" fill="#B96C08"/>
<path opacity="0.5" d="M61.7183 22.0558V20.3058C61.7202 19.6637 61.9761 19.0485 62.4301 18.5945C62.8841 18.1405 63.4993 17.8846 64.1413 17.8828H58.9503C58.3083 17.8846 57.6931 18.1405 57.2391 18.5945C56.7851 19.0485 56.5292 19.6637 56.5273 20.3058V22.0558C56.5292 22.6978 56.7851 23.313 57.2391 23.767C57.6931 24.221 58.3083 24.4769 58.9503 24.4788H64.1413C63.4993 24.4769 62.8841 24.221 62.4301 23.767C61.9761 23.313 61.7202 22.6978 61.7183 22.0558Z" fill="#B96C08"/>
<defs>
<linearGradient id="paint0_linear_102_7303" x1="3698" y1="1676.41" x2="3698" y2="5384.45" gradientUnits="userSpaceOnUse">
<stop stop-color="white"/>
<stop offset="0.416" stop-color="#F5F4F8"/>
<stop offset="1" stop-color="#EFECF3"/>
</linearGradient>
<linearGradient id="paint1_linear_102_7303" x1="3698" y1="1676.41" x2="3698" y2="5384.45" gradientUnits="userSpaceOnUse">
<stop stop-color="white"/>
<stop offset="0.416" stop-color="#F5F4F8"/>
<stop offset="1" stop-color="#EFECF3"/>
</linearGradient>
<linearGradient id="paint2_linear_102_7303" x1="3697.83" y1="1043.47" x2="3697.83" y2="2604.46" gradientUnits="userSpaceOnUse">
<stop stop-color="white"/>
<stop offset="0.416" stop-color="#F5F4F8"/>
<stop offset="1" stop-color="#EFECF3"/>
</linearGradient>
<linearGradient id="paint3_linear_102_7303" x1="791.269" y1="169.754" x2="2996.77" y2="169.754" gradientUnits="userSpaceOnUse">
<stop stop-color="#B96C08"/>
<stop offset="1" stop-color="#EE8D0F"/>
</linearGradient>
<linearGradient id="paint4_linear_102_7303" x1="515.373" y1="805.479" x2="701.992" y2="807.163" gradientUnits="userSpaceOnUse">
<stop stop-color="#E5870D"/>
<stop offset="0.517" stop-color="#BD6F09"/>
<stop offset="1" stop-color="#FFFDF9"/>
<stop offset="1" stop-color="#FFFDF9"/>
</linearGradient>
<linearGradient id="paint5_linear_102_7303" x1="220.753" y1="157.613" x2="433.16" y2="157.613" gradientUnits="userSpaceOnUse">
<stop stop-color="#E2850D"/>
<stop offset="1" stop-color="#BE7009"/>
</linearGradient>
<linearGradient id="paint6_linear_102_7303" x1="913.672" y1="157.613" x2="1126.08" y2="157.613" gradientUnits="userSpaceOnUse">
<stop stop-color="#F08F0F"/>
<stop offset="1" stop-color="#B96D08"/>
</linearGradient>
</defs>
</svg>
