<svg width="72" height="88" viewBox="0 0 72 88" fill="none" xmlns="http://www.w3.org/2000/svg">
<g clip-path="url(#clip0_102_7273)">
<path d="M36 80C55.9 80 72 63.9 72 44C72 24.1 55.9 8 36 8C16.1 8 0 24.1 0 44C0 63.9 16.1 80 36 80Z" fill="url(#paint0_linear_102_7273)"/>
<path opacity="0.1" d="M36.0004 8L33.2004 8.1C41.5004 8.7 48.9004 12.2 54.7004 17.5L53.4004 18.8C52.3004 19.9 51.8004 21.6 52.2004 23.1L53.3004 27.7L35.3004 45.8L33.5004 44V48.5C33.4921 48.8174 33.5486 49.1332 33.6663 49.4281C33.784 49.723 33.9604 49.9909 34.185 50.2154C34.4095 50.4399 34.6774 50.6164 34.9723 50.7341C35.2672 50.8518 35.583 50.9083 35.9004 50.9C36.5004 50.9 37.2004 50.7 37.6004 50.2L55.3004 32.5L59.9004 33.6C61.4004 34 63.1004 33.5 64.2004 32.4C65.4004 36 66.1004 39.9 66.1004 44C66.1004 62.9 51.5004 78.4 32.9004 79.9C34.1004 80 35.0004 80 36.0004 80C55.9004 80 72.0004 63.9 72.0004 44C72.0004 24.1 55.9004 8 36.0004 8Z" fill="black"/>
<path d="M36.0008 48.1969C38.3008 48.1969 40.2008 46.2969 40.2008 43.9969C40.2008 41.6969 38.3008 39.7969 36.0008 39.7969C33.7008 39.7969 31.8008 41.6969 31.8008 43.9969C31.8008 46.2969 33.7008 48.1969 36.0008 48.1969Z" fill="url(#paint1_linear_102_7273)"/>
<path d="M35.9977 18.6016C21.9977 18.6016 10.5977 30.0016 10.5977 44.0016C10.5977 58.0016 21.9977 69.4016 35.9977 69.4016C49.9977 69.4016 61.3977 58.0016 61.3977 44.0016C61.3977 30.0016 49.9977 18.6016 35.9977 18.6016ZM35.9977 58.8016C34.053 58.8055 32.1267 58.4254 30.3293 57.6831C28.5319 56.9407 26.8988 55.8507 25.5237 54.4756C24.1486 53.1005 23.0586 51.4674 22.3162 49.67C21.5739 47.8726 21.1938 45.9463 21.1977 44.0016C21.1938 42.0569 21.5739 40.1306 22.3162 38.3332C23.0586 36.5358 24.1486 34.9027 25.5237 33.5276C26.8988 32.1525 28.5319 31.0625 30.3293 30.3201C32.1267 29.5778 34.053 29.1976 35.9977 29.2016C37.9424 29.1976 39.8687 29.5778 41.6661 30.3201C43.4635 31.0625 45.0966 32.1525 46.4717 33.5276C47.8468 34.9027 48.9368 36.5358 49.6792 38.3332C50.4215 40.1306 50.8017 42.0569 50.7977 44.0016C50.8017 45.9463 50.4215 47.8726 49.6792 49.67C48.9368 51.4674 47.8468 53.1005 46.4717 54.4756C45.0966 55.8507 43.4635 56.9407 41.6661 57.6831C39.8687 58.4254 37.9424 58.8055 35.9977 58.8016Z" fill="url(#paint2_linear_102_7273)"/>
<path d="M35.3 45.8016L33.5 44.0016V47.4016C34.2 47.9016 35 48.2016 36 48.2016C37.1115 48.1937 38.1752 47.7487 38.9612 46.9628C39.7471 46.1768 40.1921 45.1131 40.2 44.0016C40.2 43.1016 39.9 42.3016 39.4 41.6016L35.3 45.8016Z" fill="url(#paint3_linear_102_7273)"/>
<path opacity="0.1" d="M52.7 24.7969L53.4 27.6969L47 33.9969C48.1 35.1969 49.1 36.6969 49.7 38.2969L55.5 32.4969L59.1 33.3969C57.6 30.0969 55.4 27.1969 52.7 24.7969Z" fill="black"/>
<path d="M70.5009 17.6982L64.0009 15.9983L62.4009 9.49827C62.3052 9.15605 62.1217 8.84478 61.8687 8.59527C61.6157 8.34576 61.3018 8.16667 60.9583 8.07574C60.6148 7.9848 60.2535 7.98518 59.9102 8.07683C59.5668 8.16849 59.2534 8.34823 59.0009 8.59827L52.0009 15.5982C50.9009 16.6982 50.4009 18.3982 50.8009 19.8982L52.6009 27.2982L60.0009 29.0982C61.5009 29.4982 63.2009 28.9982 64.3009 27.8982L71.3009 20.8982C72.5009 19.8982 72.0009 17.9982 70.5009 17.6982Z" fill="url(#paint4_linear_102_7273)"/>
<path d="M70.5009 17.6982L64.0009 15.9983L62.4009 9.49827C62.3052 9.15605 62.1217 8.84478 61.8687 8.59527C61.6157 8.34576 61.3018 8.16667 60.9583 8.07574C60.6148 7.9848 60.2535 7.98518 59.9102 8.07683C59.5668 8.16849 59.2534 8.34823 59.0009 8.59827L52.0009 15.5982C50.9009 16.6982 50.4009 18.3982 50.8009 19.8982L52.6009 27.2982L60.0009 29.0982C61.5009 29.4982 63.2009 28.9982 64.3009 27.8982L71.3009 20.8982C72.5009 19.8982 72.0009 17.9982 70.5009 17.6982Z" fill="url(#paint5_linear_102_7273)"/>
<path d="M70.5005 17.6982L64.0005 15.9983L62.4005 9.49827C62.3048 9.15605 62.1213 8.84478 61.8683 8.59527C61.6153 8.34576 61.3015 8.16667 60.9579 8.07574C60.6144 7.9848 60.2531 7.98518 59.9098 8.07683C59.5664 8.16849 59.253 8.34823 59.0005 8.59827L55.1005 12.4983C54.0005 13.5983 53.5005 15.2982 53.9005 16.7982L55.7005 24.1982L63.1005 25.9982C64.6005 26.3982 66.3005 25.8982 67.4005 24.7982L71.3005 20.8982C72.5005 19.8982 72.0005 17.9982 70.5005 17.6982Z" fill="url(#paint6_linear_102_7273)"/>
<path d="M70.5005 17.6982L64.0005 15.9983L62.4005 9.49827C62.3048 9.15605 62.1213 8.84478 61.8683 8.59527C61.6153 8.34576 61.3015 8.16667 60.9579 8.07574C60.6144 7.9848 60.2531 7.98518 59.9098 8.07683C59.5664 8.16849 59.253 8.34823 59.0005 8.59827L58.1005 9.49827C57.0005 10.5983 56.5005 12.2983 56.9005 13.7983L58.7005 21.1982L66.1005 22.9983C67.6005 23.3983 69.3005 22.8982 70.4005 21.7982L71.3005 20.8982C72.5005 19.8982 72.0005 17.9982 70.5005 17.6982Z" fill="url(#paint7_linear_102_7273)"/>
<path d="M36.0008 46.5C35.4008 46.5 34.7008 46.3 34.3008 45.8C33.3008 44.8 33.3008 43.3 34.3008 42.3L62.1008 14.5C63.1008 13.5 64.6008 13.5 65.6008 14.5C66.6008 15.5 66.6008 17 65.6008 18L37.7008 45.7C37.3008 46.2 36.6008 46.5 36.0008 46.5Z" fill="url(#paint8_linear_102_7273)"/>
</g>
<defs>
<linearGradient id="paint0_linear_102_7273" x1="-3.116" y1="44" x2="61.841" y2="44" gradientUnits="userSpaceOnUse">
<stop stop-color="#FF9812"/>
<stop offset="1" stop-color="#FF9812"/>
</linearGradient>
<linearGradient id="paint1_linear_102_7273" x1="10.4468" y1="43.9989" x2="60.7238" y2="43.9989" gradientUnits="userSpaceOnUse">
<stop stop-color="#F2FBFF"/>
<stop offset="0.593" stop-color="#FAF7F7"/>
<stop offset="1" stop-color="#F3EAE6"/>
</linearGradient>
<linearGradient id="paint2_linear_102_7273" x1="10.4437" y1="44.0036" x2="60.7207" y2="44.0036" gradientUnits="userSpaceOnUse">
<stop stop-color="white"/>
<stop offset="0.416" stop-color="#F5F4F8"/>
<stop offset="1" stop-color="#EFECF3"/>
</linearGradient>
<linearGradient id="paint3_linear_102_7273" x1="29.226" y1="44.9016" x2="60.871" y2="44.9016" gradientUnits="userSpaceOnUse">
<stop stop-color="#F3EAE6"/>
<stop offset="1" stop-color="#CDBFBA"/>
</linearGradient>
<linearGradient id="paint4_linear_102_7273" x1="48.7529" y1="18.6433" x2="63.8119" y2="18.6433" gradientUnits="userSpaceOnUse">
<stop stop-color="#FFF9DF"/>
<stop offset="0.593" stop-color="#FFE177"/>
<stop offset="1" stop-color="#FEB137"/>
</linearGradient>
<linearGradient id="paint5_linear_102_7273" x1="48.7529" y1="18.6433" x2="63.8119" y2="18.6433" gradientUnits="userSpaceOnUse">
<stop stop-color="#D17B0A"/>
<stop offset="0.0001" stop-color="#CE790A"/>
<stop offset="1" stop-color="#CF790A"/>
</linearGradient>
<linearGradient id="paint6_linear_102_7273" x1="48.7525" y1="17.1142" x2="63.8115" y2="17.1142" gradientUnits="userSpaceOnUse">
<stop stop-color="#B86800"/>
<stop offset="0.541667" stop-color="#E58910"/>
<stop offset="1" stop-color="#B86800"/>
</linearGradient>
<linearGradient id="paint7_linear_102_7273" x1="48.7525" y1="15.5852" x2="63.8115" y2="15.5852" gradientUnits="userSpaceOnUse">
<stop stop-color="#D97B00"/>
<stop offset="1" stop-color="#D37800"/>
</linearGradient>
<linearGradient id="paint8_linear_102_7273" x1="33.6318" y1="30.1" x2="65.7968" y2="30.1" gradientUnits="userSpaceOnUse">
<stop stop-color="#B86903"/>
<stop offset="1" stop-color="#E58910"/>
</linearGradient>
<clipPath id="clip0_102_7273">
<rect width="72" height="88" fill="white"/>
</clipPath>
</defs>
</svg>
