<svg width="344" height="404" viewBox="0 0 344 404" fill="none" xmlns="http://www.w3.org/2000/svg">
<path opacity="0.12" d="M237.912 86.228L29.4434 108.152L57.4174 373.58L265.886 351.655L237.912 86.228Z" fill="white"/>
<path opacity="0.2" d="M245.862 91.9082L39.4727 122.831L75.9197 365.574L282.309 334.651L245.862 91.9082Z" fill="#F5F4F8"/>
<path opacity="0.2" d="M327.041 113.828C327.041 113.828 318.843 108.431 308.912 127.941C298.981 147.451 295.181 158.691 295.181 158.691C295.181 158.691 292.549 162.737 289.738 160.107C286.927 157.477 283.071 149.846 278.292 151.206C273.334 152.622 271.698 158.149 272.621 166.273C273.544 174.397 274.986 192.265 275.108 193.884C275.23 195.503 274.298 197.808 272.111 196.311C269.924 194.814 257.197 180.669 250.846 187.094C244.495 193.519 250.846 215.708 251.503 218.152C252.16 220.596 251.673 221.632 250.506 222.198C249.339 222.764 245.524 217.65 241.749 213.782C237.974 209.914 232.912 206.087 229.558 210.092C226.204 214.097 225.135 230.76 240.996 257.836L249.178 269.917L263.759 269.108C294.93 265.475 307.6 254.591 308.782 249.493C309.964 244.395 303.865 242.679 298.495 241.991C293.125 241.303 286.708 241.368 286.489 240.082C286.27 238.796 286.822 237.784 289.163 236.845C291.504 235.906 313.068 227.596 314.372 218.662C315.676 209.728 296.737 208.142 294.193 207.26C291.649 206.378 292.978 204.282 294.315 203.416C295.652 202.55 310.816 192.897 317.879 188.77C324.942 184.643 328.37 180.006 326.523 175.199C324.733 170.562 316.348 172.059 312.517 171.428C308.686 170.797 310.37 166.233 310.37 166.233C310.37 166.233 317.102 156.442 326.701 136.745C336.3 117.048 326.823 113.739 326.823 113.739" fill="white"/>
<path opacity="0.7" d="M318.099 131.289L317.913 131.709L317.346 132.931L315.11 137.649L306.75 154.78L278.551 210.939L250.199 267.09L241.71 284.157L239.458 288.794L238.842 289.999L238.623 290.396C238.623 290.396 238.68 290.25 238.802 289.975L239.377 288.753L241.612 284.084L249.964 266.953L278.171 210.737L306.523 154.594L315.004 137.528L317.321 132.891L317.929 131.693L318.099 131.289Z" fill="white"/>
<path opacity="0.7" d="M283.254 162.081C283.417 162.393 283.543 162.725 283.627 163.068L284.437 165.811L286.778 174.963L288.925 184.164L289.589 186.948C289.692 187.282 289.763 187.626 289.8 187.975C289.636 187.662 289.508 187.331 289.419 186.988L288.609 184.245L286.333 175.068L284.121 165.892L283.441 163.116C283.347 162.777 283.284 162.431 283.254 162.081ZM291.143 188.235C291.143 188.114 297.712 186.115 305.894 183.76C314.076 181.405 320.743 179.609 320.775 179.714C320.807 179.819 314.205 181.843 306.024 184.189L291.143 188.235ZM272.566 221.102C272.923 221.046 273.284 221.03 273.644 221.054H276.568L286.208 220.908L295.832 220.334L298.748 220.107C299.105 220.063 299.467 220.063 299.825 220.107C299.481 220.207 299.129 220.274 298.772 220.309L295.864 220.682L286.224 221.394H276.56L273.636 221.24C273.275 221.232 272.917 221.186 272.566 221.102ZM260.226 199.015C260.445 199.261 260.635 199.533 260.793 199.824L262.203 202.131C263.377 204.089 264.333 207.447 266.707 209.818L271.097 217.578L272.385 219.949C272.562 220.232 272.701 220.537 272.799 220.856C272.579 220.608 272.388 220.337 272.231 220.047L270.822 217.74L266.318 210.053L261.927 202.301L260.639 199.962C260.46 199.666 260.321 199.348 260.226 199.015ZM240.141 225.952C240.414 226.278 240.656 226.631 240.862 227.004L242.676 229.949L248.533 239.765L254.268 249.637L255.961 252.664C256.183 253.024 256.373 253.403 256.528 253.797C256.256 253.472 256.015 253.122 255.807 252.753L253.993 249.799L248.144 239.991L242.401 230.111L240.708 227.093C240.486 226.729 240.296 226.348 240.141 225.952ZM256.323 253.019C256.774 252.952 257.229 252.919 257.684 252.922L261.394 252.809L273.61 252.226C278.373 251.919 282.691 251.53 285.81 251.223L289.504 250.867C289.954 250.8 290.409 250.773 290.864 250.786C290.425 250.9 289.978 250.984 289.528 251.037C288.302 251.226 287.073 251.393 285.842 251.538C282.731 251.927 278.422 252.348 273.642 252.671C269.564 252.942 265.48 253.093 261.394 253.125H257.684C257.228 253.134 256.772 253.098 256.323 253.019Z" fill="white"/>
<path d="M14.1926 246.958C15.6356 246.226 17.2116 245.792 18.8266 245.684C20.4413 245.576 22.0612 245.794 23.5896 246.326C26.6506 247.408 29.4216 249.177 31.6906 251.497C36.1786 255.835 38.9816 262.446 40.6016 268.491C33.7966 269.85 26.7576 265.95 23.3146 263.749C17.8626 260.269 10.1266 250.68 14.2016 246.974M52.4216 269.896C50.8061 269.094 49.4311 267.88 48.4356 266.376C47.4396 264.873 46.8586 263.134 46.7516 261.335C46.6722 259.531 46.953 257.729 47.5776 256.034C48.202 254.339 49.1575 252.785 50.3886 251.463C51.5066 250.225 52.9886 249.092 54.6496 249.173C55.427 249.26 56.1675 249.551 56.7956 250.017C57.4233 250.483 57.9158 251.108 58.2226 251.827C58.813 253.28 59.0059 254.863 58.7816 256.415C58.2716 261.732 56.8046 266.781 52.4636 269.896" fill="#A237EE"/>
<path d="M63.4137 286.806C63.0871 286.529 62.7887 286.219 62.5227 285.883L60.1737 283.285C58.2457 281.068 55.4267 277.969 53.6117 273.761C52.0046 270.198 51.3727 266.272 51.7807 262.384C51.9118 261.217 52.1838 260.071 52.5907 258.969C52.7022 258.669 52.8294 258.375 52.9717 258.087C53.0607 257.892 53.1177 257.787 53.1337 257.795C52.6247 259.299 52.2697 260.849 52.0727 262.424C51.7687 266.255 52.4437 270.1 54.0327 273.599C55.7987 277.726 58.5447 280.834 60.4157 283.099L62.6517 285.794C62.9367 286.106 63.1927 286.445 63.4137 286.806Z" fill="white"/>
<path d="M20.7422 253.74C20.9132 253.822 21.0752 253.919 21.2282 254.031L22.5482 254.929L27.3602 258.328C31.4102 261.233 36.9272 265.32 42.9212 269.973C48.9152 274.626 54.2622 278.963 58.0772 282.151L62.5652 285.963L63.7642 287.023C64.0402 287.273 64.1772 287.403 64.1612 287.419C64 287.326 63.848 287.217 63.7072 287.095L62.4512 286.1L57.8742 282.402L42.6122 270.361L27.1402 258.619L22.4172 255.107L21.1372 254.136C20.9899 254.02 20.8567 253.887 20.7402 253.74H20.7422Z" fill="white"/>
<path d="M49.9036 279.365C46.5361 277.573 42.7907 276.608 38.9766 276.549C35.1626 276.49 31.3886 277.339 27.9676 279.025C26.2426 279.899 24.4196 281.372 24.5736 283.298C24.7276 285.224 26.7766 286.397 28.6236 286.947C32.5306 288.016 36.6666 287.904 40.5106 286.627C44.3532 285.35 47.7318 282.964 50.2206 279.77" fill="#A237EE"/>
<path d="M33.1523 281.947C33.4844 281.716 33.8401 281.521 34.2133 281.365C34.6323 281.141 35.0653 280.944 35.5093 280.774C36.0853 280.525 36.6753 280.309 37.2753 280.127C37.9953 279.881 38.7283 279.676 39.4703 279.512C40.323 279.313 41.1856 279.159 42.0543 279.05C44.0513 278.827 46.0673 278.827 48.0653 279.05C50.0603 279.298 52.0203 279.776 53.9063 280.475C54.7363 280.783 55.5473 281.14 56.3363 281.543C57.0198 281.886 57.6851 282.264 58.3293 282.676C58.9373 283.024 59.4153 283.436 59.8683 283.752C60.254 284.028 60.6221 284.328 60.9703 284.65C61.2865 284.892 61.5795 285.163 61.8453 285.459C61.7723 285.54 60.5173 284.351 58.1593 282.918C57.5173 282.528 56.8543 282.171 56.1743 281.85C55.3998 281.467 54.6046 281.126 53.7923 280.831C51.9341 280.167 50.008 279.711 48.0493 279.471C46.0839 279.261 44.1018 279.261 42.1363 279.471C41.2793 279.568 40.4273 279.708 39.5843 279.892C38.7743 280.03 38.0613 280.256 37.3973 280.434C34.7243 281.227 33.1933 282.036 33.1523 281.947Z" fill="white"/>
<path opacity="0.9" d="M260.192 311.103C254.522 307.462 252.48 302.793 251.589 296.117C251.168 292.768 251.469 289.367 252.474 286.144C253.479 282.92 255.163 279.95 257.413 277.432C261.188 273.272 266.486 270.432 269.232 265.528C272.149 260.301 271.776 253.39 275.94 249.061C278.807 246.107 283.125 245.185 286.657 243.081C289.549 241.365 291.882 238.881 294.498 236.785C297.114 234.689 300.258 232.909 303.611 233.03C308.674 233.216 312.798 238.015 313.227 243.056C313.656 248.097 311.032 253.034 307.297 256.457C304.592 258.933 301.214 260.883 299.504 264.136C296.264 270.23 300.209 278.387 296.734 284.367C294.199 288.712 288.155 290.978 287.499 295.971C287.256 297.808 287.848 299.645 287.904 301.498C288.083 307.284 282.849 312.147 277.187 313.393C271.525 314.639 265.644 313.078 260.176 311.127" fill="#9691A4"/>
<path opacity="0.7" d="M293.462 253.776C293.298 254.021 293.111 254.249 292.903 254.456L291.193 256.293L288.52 259.23L285.11 263.228L281.222 268.269L279.164 271.158L277.098 274.298C274.119 279.012 271.498 283.943 269.257 289.05C267.077 294.182 265.303 299.477 263.951 304.886C263.376 307.395 262.817 309.741 262.493 312.04L261.626 318.335C261.407 320.269 261.334 322.025 261.205 323.571C261.076 325.117 261.067 326.444 261.051 327.536L260.994 330.045C261.001 330.338 260.977 330.631 260.921 330.919C260.867 330.631 260.845 330.337 260.856 330.045C260.856 329.397 260.816 328.564 260.784 327.528C260.739 326.204 260.739 324.879 260.784 323.555C260.84 322.009 260.865 320.229 261.099 318.287C261.333 316.345 261.48 314.241 261.91 311.943C262.34 309.645 262.72 307.265 263.311 304.741C264.646 299.284 266.42 293.945 268.617 288.775C270.874 283.634 273.531 278.677 276.564 273.95L278.662 270.81C279.342 269.791 280.087 268.86 280.76 267.929C282.104 266.06 283.49 264.426 284.737 262.92C285.984 261.414 287.167 260.129 288.229 258.971C289.291 257.813 290.213 256.868 290.999 256.107L292.805 254.359C293.004 254.143 293.224 253.948 293.462 253.776Z" fill="white"/>
<path d="M265.25 106.213H56.5527V351.672H265.251V106.213H265.25Z" fill="white"/>
<path d="M265.256 351.671L265.061 106.213L265.256 106.399H56.5749L56.7859 106.188V351.647L56.6079 351.469L265.314 351.647L56.6079 351.825H56.3809V351.647V106.188V105.978H56.6159H265.297H265.484V106.172L265.256 351.671Z" fill="white"/>
<path d="M157.503 219.617V219.164V217.853V212.788L157.422 193.909L157.559 194.038L75.6703 194.119L75.8813 193.909V219.617L75.6783 219.415L134.205 219.504L151.346 219.561H155.955H157.154H157.567H157.178H155.939H151.378L134.286 219.625L75.6133 219.714H75.4023V193.698H75.6133L157.503 193.771H157.64V193.909L157.567 212.868V217.902V219.188C157.567 219.488 157.503 219.617 157.503 219.617ZM248.149 254.437V252.746V247.802L248.092 228.728L248.198 228.834L75.6533 228.939L75.8643 228.728V254.437L75.6533 254.235L198.411 254.324L234.864 254.38H244.722H247.282H248.165H247.315H244.779H234.969L198.516 254.445L75.6133 254.534H75.4023V228.518H75.6213L248.165 228.623H248.27V228.728L248.206 247.866V252.786L248.149 254.437Z" fill="#1F1B2D"/>
<path d="M248.149 289.022V287.331V282.386L248.092 263.313L248.198 263.41L75.6533 263.524L75.8643 263.313V289.022L75.6533 288.812L198.411 288.901L234.864 288.965H244.722H247.282H248.165H247.315H244.779H234.969L198.516 289.022L75.6133 289.119H75.4023V263.079H75.6213L248.165 263.192H248.27V263.297L248.206 282.427V287.347L248.149 289.022ZM248.147 219.616V219.163V217.852V212.786L248.074 193.907L248.212 194.037L166.322 194.118L166.533 193.907V219.616L166.322 219.414L224.858 219.503L241.999 219.559H246.608H247.807H248.22H247.831H246.584H242.023L224.931 219.624L166.249 219.713H166.047V219.511V193.802V193.592H166.266L248.155 193.665H248.293V193.802L248.212 212.762V217.795V219.082C248.212 219.381 248.147 219.616 248.147 219.616Z" fill="#1F1B2D"/>
<path d="M92.7626 210.483C92.5557 210.51 92.3473 210.524 92.1386 210.524L90.2916 210.58L83.5676 210.726H83.3086L83.3896 210.483C83.625 209.659 84.0718 208.912 84.6856 208.314C85.3786 207.692 86.242 207.292 87.1646 207.165L87.1156 207.562C86.5968 207.335 86.1497 206.971 85.8226 206.509C85.4956 206.047 85.3016 205.504 85.2606 204.94C85.2046 204.306 85.3409 203.67 85.6516 203.114C85.9626 202.559 86.4333 202.109 87.0026 201.824C87.5466 201.576 88.1563 201.51 88.7406 201.637C89.3246 201.764 89.8526 202.077 90.2436 202.529C90.5912 202.928 90.8357 203.405 90.9556 203.92C91.0756 204.435 91.0676 204.971 90.9326 205.482C90.8212 205.927 90.609 206.34 90.3126 206.689C90.0162 207.039 89.6432 207.315 89.2226 207.497V207.214C89.9446 207.32 90.6306 207.598 91.2236 208.023C91.6589 208.349 92.0276 208.756 92.3096 209.221C92.5638 209.607 92.7322 210.043 92.8036 210.499L92.6496 210.184C92.5136 209.881 92.3537 209.588 92.1716 209.31C91.8343 208.809 91.3908 208.389 90.8726 208.079C90.3546 207.768 89.7746 207.575 89.1736 207.513L88.6306 207.449L89.1406 207.23C89.5105 207.058 89.8363 206.804 90.0932 206.487C90.35 206.17 90.5311 205.799 90.6226 205.401C90.7372 204.948 90.7395 204.474 90.6294 204.02C90.5193 203.566 90.3 203.146 89.9906 202.796C89.6476 202.418 89.1956 202.158 88.6966 202.052C88.1976 201.946 87.6786 202 87.2116 202.205C86.7213 202.455 86.3173 202.846 86.0516 203.328C85.786 203.81 85.671 204.36 85.7216 204.908C85.7565 205.4 85.926 205.873 86.2116 206.275C86.4975 206.678 86.8883 206.994 87.3416 207.19L88.0306 207.465L87.2936 207.586C86.4496 207.697 85.6586 208.061 85.0256 208.63C84.4536 209.174 84.0316 209.857 83.8026 210.613L83.6246 210.378L90.2186 210.435H92.1146C92.3316 210.436 92.5476 210.453 92.7626 210.483ZM188.763 210.479C188.559 210.507 188.353 210.521 188.148 210.52L186.293 210.577L179.569 210.722H179.318L179.391 210.479C179.626 209.656 180.073 208.908 180.687 208.311C181.377 207.682 182.241 207.276 183.166 207.145L183.117 207.542C182.599 207.315 182.153 206.95 181.828 206.488C181.502 206.026 181.309 205.484 181.27 204.92C181.209 204.287 181.343 203.65 181.653 203.094C181.962 202.537 182.433 202.088 183.004 201.805C183.547 201.557 184.157 201.492 184.741 201.619C185.324 201.746 185.852 202.058 186.244 202.509C186.59 202.908 186.833 203.386 186.952 203.901C187.07 204.416 187.061 204.952 186.924 205.462C186.812 205.907 186.601 206.32 186.305 206.669C186.008 207.019 185.635 207.295 185.215 207.477V207.194C185.937 207.3 186.623 207.578 187.216 208.003C187.653 208.327 188.022 208.734 188.302 209.201C188.556 209.587 188.724 210.023 188.796 210.479L188.642 210.164C188.512 209.858 188.352 209.565 188.164 209.29C187.828 208.79 187.386 208.369 186.869 208.059C186.353 207.748 185.774 207.555 185.175 207.493L184.632 207.429L185.134 207.21C185.503 207.037 185.829 206.783 186.088 206.466C186.346 206.149 186.53 205.778 186.625 205.381C186.737 204.928 186.738 204.454 186.627 204C186.515 203.546 186.294 203.126 185.985 202.776C185.647 202.394 185.196 202.13 184.697 202.023C184.198 201.917 183.678 201.974 183.214 202.185C182.721 202.433 182.314 202.823 182.047 203.305C181.78 203.788 181.664 204.339 181.716 204.888C181.751 205.38 181.92 205.853 182.206 206.255C182.492 206.658 182.882 206.974 183.336 207.17L184.024 207.445L183.287 207.566C182.443 207.677 181.652 208.041 181.019 208.61C180.449 209.155 180.03 209.838 179.804 210.593L179.626 210.358L186.212 210.415H188.115C188.332 210.421 188.549 210.443 188.763 210.479ZM91.2156 273.939C91.1766 273.766 91.1526 273.59 91.1426 273.413C91.1475 272.985 91.0473 272.563 90.8506 272.183C90.6958 271.911 90.4811 271.678 90.2227 271.502C89.9644 271.325 89.6692 271.21 89.3596 271.164C88.9858 271.114 88.6055 271.171 88.2626 271.328C87.9196 271.486 87.6286 271.738 87.4236 272.054C87.2446 272.325 87.1386 272.637 87.1156 272.96V273.947L86.9216 273.745C88.3659 273.737 89.8098 273.802 91.2476 273.939C89.8113 274.097 88.3664 274.165 86.9216 274.142H86.7186V273.939V272.928C86.7405 272.535 86.8665 272.155 87.0836 271.827C87.3306 271.443 87.6846 271.14 88.1016 270.954C88.5191 270.768 88.9817 270.709 89.4326 270.783C89.7953 270.842 90.1386 270.988 90.4336 271.207C90.7283 271.427 90.9656 271.715 91.1256 272.046C91.3336 272.487 91.3987 272.982 91.3116 273.462C91.2796 273.81 91.2156 273.964 91.2156 273.939ZM89.8116 279.199C89.6595 278.893 89.5295 278.577 89.4226 278.252V278.163L89.5116 278.098C89.6405 277.997 89.7281 277.853 89.758 277.692C89.7878 277.532 89.7578 277.365 89.6736 277.225C89.6314 277.137 89.569 277.06 89.4916 277.001C89.4146 276.941 89.3236 276.901 89.2276 276.883C89.1316 276.865 89.0328 276.87 88.939 276.896C88.8451 276.923 88.7587 276.971 88.6866 277.037C88.6151 277.104 88.5599 277.186 88.5256 277.277C88.4916 277.369 88.4796 277.467 88.4906 277.564C88.5016 277.661 88.5346 277.754 88.5876 277.835C88.6406 277.916 88.7126 277.985 88.7976 278.034L88.9276 278.107L88.8876 278.244L88.6446 279.207L88.4906 279.013C88.9419 279.034 89.3913 279.085 89.8356 279.167C89.3985 279.291 88.9446 279.345 88.4906 279.328H88.2966V279.118L88.4746 278.139L88.5636 278.349C88.4346 278.271 88.3246 278.165 88.2416 278.039C88.1588 277.913 88.105 277.77 88.0841 277.621C88.0631 277.471 88.0756 277.319 88.1206 277.175C88.1656 277.031 88.2426 276.898 88.3446 276.788C88.4571 276.664 88.5992 276.569 88.7577 276.514C88.9162 276.459 89.086 276.444 89.2516 276.472C89.4037 276.496 89.5483 276.555 89.6746 276.643C89.8006 276.732 89.9056 276.847 89.9806 276.982C90.1025 277.202 90.1344 277.46 90.0696 277.703C90.0046 277.946 89.8476 278.155 89.6326 278.285L89.6976 278.131C89.8019 278.477 89.8402 278.839 89.8106 279.199H89.8116Z" fill="#A237EE"/>
<path d="M91.8185 273.948C91.9361 273.925 92.0569 273.925 92.1745 273.948C92.4682 274.037 92.7308 274.207 92.9315 274.439C93.1318 274.671 93.2625 274.956 93.3085 275.259V276.133V278.253V279.483C93.3392 279.945 93.3228 280.408 93.2595 280.867C93.1885 281.124 93.0584 281.361 92.8795 281.559C92.7006 281.757 92.4785 281.91 92.2305 282.008C91.9735 282.111 91.6965 282.155 91.4205 282.137H90.6105H87.3705H86.5115C86.2627 282.149 86.0142 282.108 85.7823 282.017C85.5505 281.926 85.3406 281.787 85.1665 281.609C84.9927 281.43 84.8587 281.217 84.7735 280.983C84.6883 280.749 84.6538 280.5 84.6725 280.252V276.61V275.744C84.6473 275.435 84.6858 275.124 84.7855 274.83C84.895 274.539 85.0805 274.283 85.3226 274.088C85.5648 273.892 85.8548 273.766 86.1625 273.721L86.0005 273.907V272.775C86.0376 272.395 86.1505 272.026 86.3325 271.69C86.7147 271.045 87.3289 270.57 88.0495 270.363C88.5925 270.167 89.1825 270.139 89.7425 270.283C90.3025 270.427 90.8045 270.738 91.1845 271.172C91.4309 271.444 91.6202 271.762 91.7413 272.108C91.8624 272.454 91.9128 272.821 91.8895 273.187C91.8825 273.442 91.8575 273.696 91.8165 273.948C91.7764 273.699 91.7599 273.447 91.7675 273.195C91.7635 272.499 91.4945 271.831 91.0145 271.326C90.7278 271.025 90.3738 270.796 89.9815 270.658C89.5885 270.52 89.1695 270.478 88.7575 270.534C88.3453 270.59 87.9522 270.743 87.6109 270.98C87.2695 271.218 86.9897 271.534 86.7945 271.901C86.6385 272.198 86.5424 272.522 86.5115 272.856V273.964V274.126H86.3495C86.1118 274.164 85.8883 274.264 85.7015 274.416C85.515 274.568 85.3721 274.767 85.2875 274.992C85.2088 275.254 85.1813 275.529 85.2065 275.801V276.667V280.308C85.184 280.568 85.237 280.83 85.3592 281.061C85.4814 281.292 85.6676 281.483 85.8955 281.611C86.1201 281.729 86.371 281.787 86.6245 281.781H90.7395C91.2215 281.827 91.7075 281.799 92.1815 281.7C92.3775 281.624 92.5525 281.503 92.6925 281.347C92.8325 281.191 92.9355 281.004 92.9915 280.802C93.0505 280.376 93.0725 279.945 93.0565 279.515V278.285V276.165V275.307C93.0355 275.08 92.9605 274.861 92.8375 274.668C92.5922 274.316 92.2308 274.061 91.8165 273.948H91.8185ZM95.3645 247.03L95.3235 246.407L95.2665 244.716L95.1125 238.711L95.2825 238.881L82.9375 239.043L83.1155 238.8V239.885V240.977V243.105V247.095L82.9215 246.909H91.7595H94.3195C94.636 246.901 94.9528 246.914 95.2675 246.949C94.9829 246.988 94.6957 247.004 94.4085 246.998L91.8895 247.079L82.9225 247.257H82.7365V247.062L82.6875 243.065V240.937V239.852V238.76L82.8985 238.541L95.2435 238.46H95.4135V238.63V244.74V246.358C95.4275 246.583 95.4115 246.809 95.3645 247.03Z" fill="#A237EE"/>
<path d="M95.2659 238.714C94.7479 239.247 94.1749 239.725 93.5569 240.138L89.2639 243.326H88.9799L88.8989 243.27L88.7369 243.156L88.4209 242.938L87.8049 242.509L86.6469 241.7L84.6949 240.292C84.0739 239.884 83.4939 239.418 82.9609 238.9C83.6309 239.221 84.2689 239.606 84.8649 240.049L86.8659 241.384L88.0399 242.193L88.6639 242.622L88.9799 242.841L89.1339 242.946L89.2149 243.003H89.2549H89.0279L93.4019 239.911C93.9859 239.457 94.6099 239.056 95.2659 238.714Z" fill="#FD5631"/>
<path d="M83.2588 247.144C83.7678 246.155 84.402 245.236 85.1458 244.409C85.7818 243.491 86.5298 242.657 87.3738 241.925C86.8643 242.919 86.2269 243.841 85.4778 244.668C84.8448 245.583 84.0998 246.415 83.2588 247.144ZM91.4008 241.925C92.2182 242.638 92.9398 243.454 93.5478 244.352C94.2669 245.165 94.8767 246.068 95.3618 247.039C94.5438 246.327 93.8221 245.51 93.2148 244.611C92.4938 243.8 91.8848 242.896 91.4008 241.925Z" fill="#A237EE"/>
<path d="M245.995 302.317H77.7683C76.5783 302.317 75.6133 303.281 75.6133 304.469V326.44C75.6133 327.628 76.5783 328.592 77.7683 328.592H245.995C247.185 328.592 248.15 327.628 248.15 326.44V304.469C248.15 303.281 247.185 302.317 245.995 302.317Z" fill="#9617F1"/>
<path d="M245.995 298.66H77.7683C76.5783 298.66 75.6133 299.624 75.6133 300.813V322.783C75.6133 323.972 76.5783 324.935 77.7683 324.935H245.995C247.185 324.935 248.149 323.972 248.149 322.783V300.813C248.149 299.624 247.185 298.66 245.995 298.66Z" fill="#A237EE"/>
<path d="M147.311 312.363C147.306 311.984 147.379 311.608 147.525 311.257C147.671 310.907 147.888 310.591 148.161 310.327C148.434 310.063 148.758 309.858 149.113 309.724C149.468 309.59 149.848 309.53 150.227 309.547C150.618 309.532 151.007 309.601 151.37 309.748C151.732 309.896 152.057 310.12 152.325 310.405L151.815 310.899C151.522 310.589 151.142 310.374 150.726 310.282C150.31 310.189 149.875 310.224 149.479 310.382C149.082 310.539 148.742 310.812 148.503 311.164C148.264 311.517 148.136 311.933 148.136 312.36C148.136 312.786 148.264 313.202 148.503 313.555C148.743 313.908 149.082 314.18 149.479 314.337C149.876 314.494 150.31 314.529 150.726 314.437C151.142 314.345 151.522 314.13 151.815 313.82L152.325 314.314C152.057 314.601 151.73 314.826 151.367 314.976C151.003 315.126 150.612 315.195 150.219 315.18C149.84 315.196 149.462 315.135 149.108 315.001C148.754 314.867 148.43 314.661 148.158 314.397C147.886 314.133 147.67 313.817 147.524 313.468C147.378 313.118 147.306 312.742 147.311 312.363ZM157.129 315.111L155.938 313.42H155.598H154.229V315.095H153.418V309.592H155.573C156.999 309.592 157.866 310.312 157.866 311.51C157.884 311.892 157.776 312.27 157.558 312.585C157.339 312.899 157.023 313.133 156.659 313.25L157.963 315.095L157.129 315.111ZM157.129 311.526C157.129 310.717 156.602 310.296 155.598 310.296H154.253V312.773H155.598C156.578 312.773 157.104 312.311 157.104 311.526H157.129ZM163.164 314.43V315.11H159.163V309.607H163.051V310.295H159.948V311.986H162.719V312.65H159.948V314.43H163.164ZM167.954 313.734H165.021L164.414 315.11H163.603L166.099 309.607H166.909L169.412 315.11H168.602L167.954 313.734ZM167.678 313.111L166.487 310.408L165.297 313.111H167.678ZM171.013 310.295H169.125V309.607H173.686V310.295H171.791V315.11H170.981L171.013 310.295ZM178.539 314.43V315.11H174.537V309.607H178.426V310.295H175.323V311.986H178.085V312.65H175.323V314.43H178.539Z" fill="white"/>
<path opacity="0.3" d="M137.143 147.799C159.398 125.567 159.398 89.5222 137.143 67.2902C114.888 45.0582 78.8037 45.0582 56.5487 67.2902C34.2937 89.5222 34.2937 125.567 56.5487 147.799C78.8037 170.031 114.887 170.03 137.143 147.799Z" fill="white"/>
<path d="M129.495 30.5978C128.499 31.8468 127.891 33.3608 127.747 34.9518C127.603 36.5426 127.929 38.1406 128.685 39.5478C129.398 40.8268 130.484 41.9758 130.646 43.4238C130.913 45.7788 128.629 47.8988 129.026 50.2458C129.277 51.8638 130.646 52.9728 131.391 54.4048C131.852 55.3358 132.037 56.3798 131.927 57.4128C131.817 58.4458 131.414 59.4258 130.767 60.2398C129.73 61.5018 128.102 62.3028 127.43 63.7998C126.928 64.9008 127.049 66.2278 126.62 67.3358C126.237 68.2041 125.636 68.9585 124.875 69.5257C124.114 70.093 123.219 70.4537 122.278 70.5728C120.383 70.7999 118.464 70.693 116.607 70.2568L117.02 68.2098C116.669 68.7538 116.19 69.2038 115.626 69.5208C115.061 69.8381 114.427 70.0131 113.78 70.0308C112.483 70.0568 111.191 69.8648 109.957 69.4648C109.187 65.9938 108.434 62.3278 109.519 58.9448C110.508 55.9018 112.84 53.5228 114.785 50.9818C116.943 48.1608 118.67 45.0355 119.912 41.7078C120.803 39.3208 121.443 36.8528 122.691 34.5868C123.939 32.3208 125.931 30.3628 128.426 29.8848" fill="#1F1B2D"/>
<path d="M166.558 78.4191L155.282 79.2281L155.169 76.3311C155.018 74.8953 155.361 73.4509 156.141 72.2361C156.265 72.0221 156.356 71.7901 156.408 71.5481C156.489 70.6901 155.225 66.3851 154.788 64.8071C154.237 62.9131 155.314 61.9101 155.736 62.6871C156.497 64.1031 158.514 70.1801 159.146 70.7791C159.778 71.3781 159.413 68.1981 159.413 68.1981C158.425 61.5061 157.996 60.5351 159.187 60.2841C160.556 59.9931 162.062 69.9541 162.062 69.9541C162.062 69.9541 161.86 68.5621 162.929 68.2791C163.998 67.9961 164.492 69.3631 164.492 69.3631C164.355 68.6591 165.367 68.5541 165.367 68.5541C167.895 68.9021 166.582 78.5071 166.582 78.5071L155.306 79.3161L149.903 116.985L144.136 108.156L129.084 118.886L142.653 135.071C143.832 136.472 145.315 137.586 146.99 138.327C148.664 139.069 150.486 139.419 152.317 139.351C155.31 139.243 158.154 138.021 160.292 135.924C162.429 133.829 163.705 131.01 163.869 128.022L166.558 78.4191Z" fill="#EB996E"/>
<path d="M157.738 78.5209C157.689 78.4639 158.288 77.9379 159.09 76.9509C159.556 76.3729 159.978 75.7619 160.354 75.1219C160.578 74.7441 160.784 74.3553 160.97 73.9569C161.197 73.5849 161.331 73.1629 161.359 72.7269C161.355 72.6259 161.323 72.5279 161.266 72.4449C161.208 72.3618 161.128 72.2969 161.035 72.2579C160.813 72.2205 160.585 72.2574 160.387 72.3629C159.944 72.571 159.523 72.8232 159.131 73.1159C158.497 73.5945 157.949 74.1775 157.511 74.8399L157.381 75.0259L157.284 74.8319C157.052 74.4149 156.751 74.0399 156.393 73.7229C156.393 73.7229 157.009 73.8689 157.535 74.7429H157.308C157.723 74.0195 158.273 73.3823 158.928 72.8659C159.337 72.5485 159.78 72.2772 160.249 72.0569C160.537 71.9049 160.87 71.8589 161.188 71.9279C161.359 71.9872 161.51 72.0955 161.621 72.2394C161.732 72.3834 161.798 72.5567 161.812 72.7379C161.798 73.2589 161.647 73.7659 161.375 74.2109C161.178 74.6139 160.959 75.0049 160.719 75.3839C160.318 76.0336 159.86 76.6457 159.35 77.2129C158.887 77.7345 158.343 78.1773 157.738 78.5239V78.5209ZM162.201 70.4849C162.27 71.1738 162.27 71.8679 162.201 72.5569C162.201 73.2369 162.128 73.9889 162.08 74.7899C162.047 75.2152 162.047 75.6425 162.08 76.0679C162.08 76.4649 162.46 76.8039 162.744 76.6429C163.028 76.4819 163.189 75.9959 163.311 75.5669L163.619 74.2969L164.048 72.1039C164.127 71.4158 164.288 70.7395 164.526 70.0889C164.525 70.781 164.462 71.4717 164.34 72.1529L163.999 74.3779L163.708 75.6809C163.669 75.9474 163.577 76.2035 163.438 76.4339C163.299 76.6649 163.116 76.8649 162.898 77.0239C162.75 77.0915 162.585 77.1129 162.424 77.0854C162.264 77.058 162.116 76.9829 161.999 76.8699C161.791 76.6743 161.664 76.4088 161.642 76.1249C161.617 75.6709 161.633 75.2159 161.691 74.7659L161.909 72.5329C161.935 71.8419 162.033 71.1549 162.201 70.4849Z" fill="#D1734A"/>
<path d="M164.129 73.3587C164.193 73.3587 164.031 73.8277 164.08 74.5567C164.095 74.9583 164.215 75.349 164.428 75.6897C164.566 75.8277 164.663 75.8357 164.793 75.6897C164.939 75.47 165.064 75.2369 165.165 74.9937C165.68 73.7171 166.084 72.3986 166.372 71.0527C166.499 72.4748 166.218 73.9036 165.562 75.1717C165.446 75.4548 165.302 75.7257 165.133 75.9807C165.074 76.057 164.998 76.1191 164.911 76.1627C164.824 76.2061 164.729 76.2293 164.631 76.2307C164.539 76.2272 164.448 76.2037 164.366 76.1617C164.283 76.1198 164.211 76.0604 164.153 75.9877C163.991 75.7727 163.888 75.5187 163.853 75.2517C163.811 75.0387 163.792 74.8218 163.796 74.6047C163.772 73.7627 164.056 73.3347 164.129 73.3587Z" fill="#D1734A"/>
<path d="M116.641 144.171L117.694 160.55C85.6235 172.826 61.7995 152.458 61.7995 152.458L66.5955 137.803L67.4055 112.216L61.2485 119.037L58.3405 116.61L43.6705 104.407L40.5195 101.777L55.7735 85.6982C75.0595 64.9582 90.0705 71.2942 90.0705 71.2942L112.623 73.4062C112.623 73.4062 128.225 75.6152 135.775 89.2752L148.614 112.168L129.286 125.925L123.138 114.644L116.641 144.171Z" fill="#454056"/>
<path d="M39.8613 107.328L39.9183 110.217C40.0513 114.017 40.5673 117.793 41.4573 121.489V121.595C41.5703 122.056 41.7003 122.509 41.8303 122.962C42.3323 124.742 42.9963 126.312 43.6283 128.036C43.7085 128.253 43.7922 128.468 43.8793 128.683C45.9203 128.149 51.3403 123.019 57.9583 116.327L43.2713 104.091C41.3843 106.147 40.4923 107.085 39.8613 107.328ZM110.573 75.5338L112.299 64.0918C112.299 64.0918 119.662 63.8898 122.449 54.7128C125.106 45.9568 126.499 25.0878 126.499 25.0878C121.672 22.3329 116.119 21.1187 110.582 21.6078C105.045 22.0968 99.7903 24.2648 95.5223 27.8228L89.8523 73.2598C89.1963 78.5278 93.2143 83.2938 98.8763 83.9578C104.587 84.6208 109.852 80.8508 110.573 75.5338Z" fill="#EB996E"/>
<path d="M121.591 40.8628C121.55 41.1768 121.389 41.4628 121.141 41.6608C120.893 41.8588 120.578 41.9528 120.262 41.9228C120.107 41.9136 119.955 41.8735 119.815 41.8048C119.676 41.7362 119.551 41.6403 119.449 41.5226C119.347 41.4049 119.27 41.2679 119.222 41.1198C119.174 40.972 119.156 40.8158 119.169 40.6608C119.212 40.3479 119.374 40.0637 119.621 39.8678C119.869 39.6718 120.183 39.5788 120.497 39.6088C120.652 39.6178 120.803 39.6578 120.943 39.7258C121.083 39.7944 121.207 39.8899 121.308 40.0068C121.41 40.124 121.487 40.2599 121.536 40.4068C121.585 40.554 121.603 40.7083 121.591 40.8628ZM123.726 39.7848C123.556 39.9228 122.738 39.1218 121.442 38.9758C120.146 38.8298 119.101 39.3238 119.011 39.1458C118.921 38.9678 119.141 38.7978 119.595 38.5548C120.211 38.2456 120.907 38.1326 121.588 38.2308C122.264 38.3231 122.893 38.6261 123.386 39.0968C123.718 39.4208 123.807 39.7358 123.726 39.7848ZM108.287 39.2638C108.246 39.5778 108.085 39.8628 107.837 40.0598C107.589 40.256 107.274 40.3478 106.958 40.3158C106.804 40.3079 106.652 40.2688 106.512 40.2008C106.373 40.133 106.248 40.0378 106.145 39.9208C106.043 39.8038 105.966 39.6674 105.918 39.5198C105.87 39.3718 105.852 39.2168 105.865 39.0618C105.906 38.7471 106.067 38.4605 106.315 38.2626C106.562 38.0647 106.878 37.9712 107.193 38.0018C107.348 38.0123 107.5 38.0532 107.639 38.1224C107.778 38.1916 107.902 38.2875 108.004 38.4048C108.106 38.5218 108.183 38.6588 108.232 38.8058C108.281 38.9528 108.299 39.1088 108.287 39.2638Z" fill="#1F1B2D"/>
<path d="M110.137 38.393C109.967 38.531 109.148 37.73 107.852 37.584C106.556 37.438 105.511 37.924 105.422 37.746C105.333 37.568 105.552 37.406 106.005 37.163C106.621 36.854 107.316 36.741 107.998 36.839C108.675 36.9252 109.306 37.2291 109.796 37.705C110.12 38.029 110.218 38.336 110.137 38.393ZM113.904 48.434C114.576 48.356 115.259 48.337 115.938 48.376C116.251 48.376 116.556 48.376 116.639 48.228C116.705 48.007 116.676 47.779 116.556 47.569L115.961 45.841C115.146 43.386 114.605 41.378 114.75 41.352C114.895 41.326 115.672 43.307 116.479 45.762L117.036 47.495C117.107 47.6269 117.145 47.7745 117.145 47.9245C117.145 48.0745 117.107 48.2222 117.036 48.354C116.969 48.4305 116.887 48.4916 116.794 48.533C116.695 48.579 116.582 48.61 116.464 48.623C116.285 48.639 116.103 48.639 115.923 48.623C115.241 48.617 114.563 48.555 113.904 48.434Z" fill="#1F1B2D"/>
<path d="M112.28 64.0932C107.837 63.5588 103.63 61.7992 100.129 59.0112C100.129 59.0112 102.292 65.8732 111.811 66.2942L112.28 64.0932Z" fill="#D1734A"/>
<path d="M116.757 22.1911C117.365 23.6721 116.409 25.4281 115.056 26.2371C113.628 26.9761 112.066 27.4167 110.463 27.5321C108.858 27.6582 107.323 28.2423 106.04 29.2151C103.837 31.2141 104.42 34.0701 102.193 36.6681C101.674 37.3982 100.961 37.9685 100.135 38.3145C99.3085 38.6605 98.402 38.7685 97.5177 38.6261C95.7357 38.3751 93.4267 38.7881 92.5277 40.8431C91.6287 42.8981 92.7137 44.4121 93.7107 46.2971C94.7077 48.1821 94.4397 50.1161 93.8727 52.1801C93.4677 53.6691 92.1877 54.8341 91.9047 56.3561C91.4507 58.7841 93.5247 61.4861 92.1237 63.4771C90.7227 65.4681 87.1657 64.5861 85.6027 66.4391C85.0357 67.0951 84.7117 68.0571 83.8777 68.3161C83.3587 68.3891 82.8307 68.2921 82.3707 68.0411L75.0797 64.9581L75.6547 62.6921C75.1159 63.2445 74.4533 63.6607 73.7217 63.9061C72.9897 64.1511 72.2107 64.2191 71.4467 64.1041C70.6827 63.9891 69.9587 63.6931 69.3327 63.2421C68.7067 62.7911 68.1967 62.1981 67.8457 61.5111C69.3729 60.6251 70.7872 59.5573 72.0577 58.3311C73.3119 57.0838 74.0742 55.4261 74.2047 53.6621C74.2777 51.5261 73.1197 49.3651 73.7677 47.3341C74.6997 44.4291 78.6277 43.7011 80.3617 41.2081C81.9817 38.8771 81.4387 35.4951 83.1157 33.1891C85.0677 30.5191 89.1907 30.3971 91.4267 27.9531C92.9417 26.3351 93.2897 23.9071 94.3917 21.9411C95.8187 19.6301 98.0477 17.9241 100.653 17.1501C103.242 16.3951 105.939 16.0811 108.633 16.2191C110.654 16.1241 112.668 16.5271 114.497 17.3921C116.255 18.3711 117.584 20.3781 117.171 22.3521" fill="#1F1B2D"/>
<path d="M97.5218 38.6478C96.5468 38.2938 95.4918 38.2178 94.4758 38.4288C93.9678 38.5338 93.4858 38.7368 93.0578 39.0288C92.6297 39.3204 92.2637 39.6939 91.9808 40.1278C91.4626 41.0349 91.3065 42.1044 91.5438 43.1218C91.7868 44.1308 92.2518 45.0738 92.9048 45.8808C93.3228 46.4868 93.8778 46.9858 94.5248 47.3378C94.8538 47.5148 95.2208 47.6078 95.5938 47.6078C95.9668 47.6078 96.3348 47.5148 96.6628 47.3378" fill="#EB996E"/>
<path d="M96.1284 44.6539C96.2424 44.7109 95.7154 45.2609 94.8324 44.8809C94.3721 44.6544 94.0157 44.2605 93.8364 43.7799C93.6324 43.2239 93.5414 42.6319 93.5694 42.0399C93.5804 41.4099 93.8154 40.8039 94.2334 40.3319C94.4101 40.1309 94.6305 39.9731 94.8777 39.8706C95.1249 39.7682 95.3923 39.7238 95.6594 39.7409C96.6074 39.8459 96.8094 40.5499 96.7044 40.5499C96.5994 40.5499 96.2994 40.2339 95.6594 40.2909C95.2624 40.3859 94.9124 40.6189 94.6724 40.9479C94.4324 41.2769 94.3164 41.6809 94.3474 42.0869C94.3474 43.1389 94.5824 44.1339 95.1004 44.4499C95.6184 44.7659 96.0804 44.5879 96.1294 44.6519L96.1284 44.6539Z" fill="#D1734A"/>
<path d="M116.793 22.7391C116.424 23.7511 116.416 24.8591 116.77 25.8771C117.124 26.8951 117.819 27.7581 118.737 28.3231C119.79 28.9301 121.086 29.1321 121.977 29.9411C122.807 30.8401 123.289 32.0051 123.338 33.2261C123.38 34.4349 123.607 35.6301 124.011 36.7701C124.232 37.333 124.628 37.8098 125.142 38.1301C125.655 38.4502 126.258 38.5977 126.862 38.5511L128.895 32.5551C129.64 30.3541 130.394 27.9991 129.859 25.7251C129.098 22.4881 125.89 20.3681 122.682 19.4861C121.212 18.9641 119.606 18.9791 118.146 19.5261C116.752 20.1821 115.805 21.9541 116.526 23.3291M110.662 35.1711C110.581 35.2681 110.297 35.1711 109.852 35.0331C109.254 34.8954 108.642 34.8249 108.029 34.8231C107.413 34.8163 106.798 34.8814 106.198 35.0171C105.737 35.1221 105.453 35.2441 105.388 35.1551C105.323 35.0661 105.493 34.7501 105.988 34.4671C106.625 34.1423 107.33 33.9729 108.045 33.9729C108.76 33.9729 109.465 34.1423 110.103 34.4671C110.524 34.7741 110.702 35.0981 110.662 35.1711ZM122.452 36.7681C122.411 36.9951 121.569 37.0671 120.556 36.9221C119.543 36.7771 118.758 36.5011 118.758 36.2341C118.758 35.9671 119.641 35.9431 120.654 36.0881C121.667 36.2331 122.484 36.5411 122.452 36.7681ZM94.1025 47.0811C94.1622 47.1561 94.2303 47.2239 94.3055 47.2831C94.4795 47.4961 94.6275 47.7301 94.7435 47.9791C95.1627 48.9067 95.287 49.9406 95.0995 50.9411C94.8366 52.3973 94.3473 53.8033 93.6495 55.1081C93.2627 55.8549 93.1373 56.7098 93.2935 57.5361C93.5792 58.4036 93.9708 59.2326 94.4595 60.0041C94.9497 60.8144 95.1641 61.7617 95.0705 62.7041C94.9775 63.6461 94.5805 64.5331 93.9415 65.2321C93.3955 65.855 92.6716 66.2954 91.8675 66.4941C91.1875 66.6351 90.4965 66.7111 89.8015 66.7211C88.8269 66.6943 87.8642 66.9409 87.0225 67.4331C86.7338 67.643 86.4798 67.8967 86.2695 68.1851C86.2695 68.1851 86.2695 68.0801 86.3745 67.9181C86.5155 67.6785 86.7028 67.4694 86.9255 67.3031C87.7593 66.7366 88.7445 66.4348 89.7525 66.4371C90.4261 66.4077 91.0958 66.3184 91.7535 66.1701C92.4919 65.9757 93.1534 65.5606 93.6495 64.9801C94.1925 64.3482 94.5412 63.5727 94.6535 62.7471C94.7425 61.8561 94.5435 60.9601 94.0865 60.1901C93.5865 59.3834 93.1917 58.516 92.9115 57.6091C92.7509 56.7092 92.8933 55.7814 93.3165 54.9711L94.2805 52.8351C94.5217 52.2055 94.7061 51.5556 94.8315 50.8931C95.0326 49.9421 94.9566 48.9533 94.6125 48.0441C94.3285 47.4051 94.0695 47.1051 94.1025 47.0811Z" fill="#1F1B2D"/>
<path d="M131.724 68.8653C131.562 68.9403 131.384 68.9733 131.206 68.9623C130.949 68.9465 130.696 68.8788 130.465 68.7633C130.234 68.6477 130.029 68.4868 129.861 68.2903C129.583 67.9879 129.379 67.6254 129.263 67.231C129.148 66.8366 129.126 66.4209 129.197 66.0163C129.45 64.9713 129.995 64.0203 130.769 63.2733C131.694 62.4313 132.51 61.4773 133.199 60.4333C133.529 59.8406 133.688 59.1687 133.66 58.4913C133.613 57.7693 133.443 57.0603 133.158 56.3953C132.43 54.9564 131.781 53.4789 131.214 51.9693C130.962 51.1135 130.962 50.2031 131.214 49.3473C131.534 48.5203 131.939 47.7283 132.421 46.9843C132.882 46.2883 133.067 45.4463 132.94 44.6213C132.721 43.8373 132.289 43.1283 131.692 42.5743L129.999 40.7783C129.477 40.1511 129.101 39.4157 128.897 38.6253C128.581 37.1724 128.604 35.6663 128.962 34.2233L129.877 30.5413C130.388 28.771 130.297 26.8812 129.618 25.1683C129.336 24.5683 128.952 24.0203 128.484 23.5493L128.598 23.6223C128.702 23.6963 128.8 23.7803 128.889 23.8733C129.259 24.2469 129.556 24.686 129.764 25.1683C130.112 25.8923 130.324 26.6743 130.388 27.4743C130.461 28.5299 130.379 29.5904 130.145 30.6223L129.278 34.3123C128.957 35.7047 128.957 37.1519 129.278 38.5443C129.46 39.279 129.806 39.9626 130.291 40.5433C130.785 41.1503 131.392 41.6923 131.976 42.3073C132.625 42.9057 133.098 43.6694 133.345 44.5163C133.486 45.4369 133.287 46.3773 132.786 47.1623C132.31 47.8804 131.909 48.645 131.587 49.4443C131.354 50.2363 131.354 51.0793 131.587 51.8723C132.141 53.3663 132.774 54.8303 133.482 56.2583C133.782 56.9673 133.954 57.7233 133.993 58.4913C134.018 59.2322 133.838 59.9655 133.474 60.6113C132.759 61.6713 131.913 62.6363 130.955 63.4843C130.204 64.1823 129.665 65.0763 129.4 66.0653C129.32 66.4373 129.329 66.8233 129.426 67.1923C129.523 67.5613 129.705 67.9013 129.958 68.1853C130.26 68.5693 130.699 68.8216 131.182 68.8893C131.546 68.8653 131.724 68.8163 131.724 68.8653Z" fill="#1F1B2D"/>
<path d="M163.512 79.774C162.985 79.0908 162.396 78.4568 161.754 77.88C161.03 77.414 160.269 77.008 159.478 76.666C159.938 76.6382 160.399 76.7018 160.834 76.853C161.269 77.0044 161.67 77.2406 162.013 77.548C162.401 77.7979 162.735 78.1242 162.992 78.507C163.25 78.89 163.426 79.32 163.512 79.774ZM151.43 124.121C150.848 122.968 150.452 121.731 150.255 120.455C149.929 119.202 149.811 117.903 149.907 116.611C150.23 117.848 150.485 119.101 150.669 120.366C150.997 121.601 151.251 122.855 151.43 124.121Z" fill="#D1734A"/>
<path opacity="0.7" d="M99.7731 115.046C101.194 114.573 102.445 113.695 103.372 112.52C104.299 111.346 104.861 109.926 104.99 108.435C105.428 104.219 102.56 100.473 98.6801 100.06C94.8001 99.6469 91.2271 102.746 90.7901 106.962C90.6101 108.461 90.8771 109.979 91.5571 111.326C92.2378 112.674 93.3012 113.791 94.6141 114.537C88.5391 114.852 85.5981 118.583 84.1641 121.917C86.4101 125.076 89.7201 127.322 93.4881 128.245L97.8621 128.698C101.792 128.563 105.537 126.998 108.393 124.296C107.672 120.743 105.557 116.527 99.7731 115.046Z" fill="white"/>
<path opacity="0.09" d="M67.4681 112.214L71.0651 108.508C71.0651 108.508 69.5101 135.293 68.4481 138.513C67.3861 141.733 61.8301 152.456 61.8301 152.456L66.6261 137.801L67.4681 112.214Z" fill="black"/>
<path d="M75.4302 103.97C75.5112 104.051 72.3522 107.474 68.3662 111.617C64.3802 115.76 61.0752 119.062 60.9862 118.981C60.8972 118.9 64.0722 115.477 68.0582 111.325C72.0442 107.173 75.3492 103.889 75.4302 103.97ZM125.711 101.875C125.726 102.146 125.712 102.417 125.67 102.685L125.403 104.959L124.107 112.387L122.325 119.727L121.661 121.92C121.597 122.203 121.493 122.475 121.353 122.729C121.374 122.455 121.423 122.184 121.499 121.92L122.033 119.702L123.694 112.355L125.111 104.959L125.508 102.709C125.536 102.423 125.604 102.142 125.711 101.875Z" fill="white"/>
<path d="M109.576 49.0202C109.787 49.0202 109.576 50.4442 110.662 51.6012C111.748 52.7582 113.254 52.8232 113.238 53.0172C113.222 53.2112 112.865 53.2442 112.225 53.1712C111.399 53.0719 110.635 52.6816 110.071 52.0702C109.531 51.4852 109.241 50.7132 109.26 49.9182C109.277 49.3192 109.479 48.9962 109.576 49.0202ZM91.6011 28.0592C92.5279 26.9141 93.1243 25.5375 93.3261 24.0782C93.3308 23.0339 92.9553 22.0235 92.2697 21.2357C91.584 20.448 90.6351 19.9366 89.6001 19.7972C88.554 19.724 87.5148 20.0144 86.6581 20.6192C85.8019 21.2235 85.1812 22.1054 84.9011 23.1152C84.681 24.1402 84.7989 25.2089 85.2371 26.1612C85.6757 27.1137 86.4106 27.8988 87.3321 28.3992C88.2734 28.8614 89.3336 29.0247 90.3703 28.867C91.407 28.7093 92.3708 28.2384 93.1321 27.5172" fill="#1F1B2D"/>
<path d="M93.4557 23.856C93.5657 24.912 93.2767 25.971 92.6457 26.826C92.1257 27.754 91.2757 28.453 90.2637 28.784C91.0116 28.1238 91.6901 27.389 92.2887 26.591C92.77 25.7217 93.1617 24.8052 93.4557 23.856Z" fill="#FD5631"/>
<path d="M119.516 176.415C130.875 176.415 140.084 167.216 140.084 155.869C140.084 144.522 130.875 135.323 119.516 135.323C108.157 135.323 98.9492 144.521 98.9492 155.869C98.9492 167.217 108.157 176.415 119.516 176.415V176.415Z" fill="#9A20F0"/>
<path d="M119.516 172.604C130.875 172.604 140.084 163.405 140.084 152.058C140.084 140.711 130.875 131.512 119.516 131.512C108.157 131.512 98.9492 140.711 98.9492 152.058C98.9492 163.405 108.158 172.604 119.516 172.604Z" fill="#A237EE"/>
<path d="M119.518 164.21C118.935 164.21 118.457 158.764 118.457 152.072C118.457 145.38 118.935 139.934 119.518 139.934C120.101 139.934 120.571 145.38 120.571 152.072C120.571 158.764 120.093 164.21 119.518 164.21Z" fill="white"/>
<path d="M131.716 152.058C131.716 152.64 126.272 153.11 119.565 153.11C112.858 153.11 107.414 152.64 107.414 152.058C107.414 151.476 112.857 151.006 119.565 151.006C126.273 151.006 131.716 151.475 131.716 152.058Z" fill="white"/>
</svg>
