<svg width="344" height="403" viewBox="0 0 344 403" fill="none" xmlns="http://www.w3.org/2000/svg">
<path d="M237.914 86.0146L29.4453 107.884L57.4193 372.655L265.888 350.785L237.914 86.0146Z" fill="#EFECF3"/>
<path d="M245.861 91.6816L39.4727 122.528L75.9197 364.67L282.309 333.824L245.862 91.6816H245.861Z" fill="#F5F4F8"/>
<path d="M327.045 113.547C327.045 113.547 318.847 108.164 308.916 127.625C298.985 147.087 295.185 158.299 295.185 158.299C295.185 158.299 292.553 162.335 289.742 159.712C286.931 157.088 283.075 149.476 278.295 150.833C273.338 152.245 271.702 157.759 272.625 165.862C273.548 173.966 274.99 191.79 275.112 193.405C275.234 195.02 274.302 197.319 272.115 195.826C269.928 194.333 257.201 180.223 250.85 186.632C244.499 193.041 250.85 215.175 251.507 217.613C252.164 220.051 251.677 221.084 250.51 221.649C249.343 222.214 245.528 217.112 241.753 213.254C237.978 209.395 232.916 205.578 229.562 209.573C226.208 213.568 225.139 230.19 241 257.199L249.182 269.25L263.763 268.443C294.934 264.819 307.604 253.962 308.786 248.876C309.968 243.791 303.869 242.079 298.498 241.393C293.127 240.707 286.712 240.772 286.493 239.489C286.274 238.206 286.825 237.195 289.167 236.26C291.509 235.324 313.072 227.033 314.376 218.122C315.68 209.211 296.741 207.628 294.197 206.748C291.653 205.868 292.982 203.777 294.319 202.914C295.656 202.05 310.82 192.42 317.883 188.304C324.946 184.188 328.374 179.561 326.527 174.766C324.737 170.141 316.352 171.634 312.521 171.005C308.69 170.375 310.374 165.823 310.374 165.823C310.374 165.823 317.106 156.055 326.705 136.408C336.304 116.76 326.826 113.459 326.826 113.459" fill="#F5F4F8"/>
<path opacity="0.1" d="M318.101 130.964L317.914 131.384L317.347 132.603L315.112 137.308L306.752 154.397L278.553 210.418L250.201 266.43L241.711 283.453L239.459 288.079L238.844 289.282L238.625 289.677C238.625 289.677 238.682 289.532 238.803 289.257L239.378 288.039L241.614 283.381L249.966 266.292L278.172 210.215L306.525 154.211L315.006 137.187L317.323 132.562L317.931 131.368L318.101 130.964Z" fill="black"/>
<path opacity="0.1" d="M283.254 161.681C283.417 161.993 283.542 162.324 283.627 162.665L284.437 165.402L286.778 174.532L288.924 183.709L289.589 186.486C289.692 186.82 289.763 187.163 289.799 187.512C289.635 187.199 289.507 186.869 289.419 186.527L288.608 183.79L286.332 174.637L284.121 165.482L283.44 162.714C283.347 162.376 283.285 162.03 283.254 161.681ZM291.145 187.77C291.145 187.649 297.714 185.655 305.896 183.306C314.078 180.957 320.744 179.165 320.777 179.27C320.81 179.375 314.207 181.394 306.025 183.734L291.145 187.77ZM272.566 220.556C272.923 220.499 273.284 220.483 273.644 220.507H276.568L286.208 220.362L295.831 219.788L298.748 219.562C299.105 219.518 299.467 219.518 299.825 219.562C299.481 219.662 299.129 219.73 298.772 219.765L295.864 220.136L286.224 220.846H276.56L273.636 220.692C273.275 220.684 272.917 220.638 272.566 220.556ZM260.227 198.523C260.446 198.77 260.636 199.041 260.794 199.33L262.203 201.631C263.378 203.584 264.334 206.934 266.707 209.3L271.098 217.04L272.386 219.405C272.562 219.688 272.7 219.991 272.799 220.309C272.579 220.063 272.389 219.792 272.232 219.502L270.822 217.202L266.318 209.533L261.928 201.8L260.64 199.467C260.46 199.172 260.321 198.855 260.227 198.523ZM240.141 225.394C240.414 225.72 240.656 226.071 240.862 226.443L242.676 229.382L248.533 239.172L254.268 249.021L255.961 252.039C256.183 252.399 256.373 252.777 256.528 253.17C256.256 252.845 256.015 252.497 255.807 252.128L253.993 249.183L248.144 239.399L242.401 229.542L240.708 226.532C240.486 226.17 240.296 225.789 240.141 225.394ZM256.324 252.394C256.774 252.326 257.229 252.294 257.685 252.297L261.395 252.183L273.611 251.603C278.374 251.295 282.692 250.908 285.811 250.601L289.505 250.246C289.955 250.179 290.41 250.152 290.865 250.165C290.426 250.28 289.98 250.364 289.529 250.415C288.303 250.605 287.074 250.772 285.843 250.916C282.732 251.303 278.423 251.723 273.643 252.046C268.863 252.37 264.538 252.474 261.395 252.498H257.685C257.229 252.507 256.773 252.472 256.324 252.394Z" fill="black"/>
<path d="M14.1945 246.346C15.6375 245.616 17.2135 245.184 18.8285 245.075C20.4435 244.966 22.0635 245.185 23.5915 245.716C26.6525 246.796 29.4236 248.56 31.6926 250.875C36.1806 255.201 38.9835 261.796 40.6035 267.826C33.7996 269.182 26.7595 265.291 23.3165 263.095C17.8645 259.625 10.1285 250.059 14.2035 246.362M52.4255 269.228C50.8104 268.428 49.4354 267.217 48.4395 265.717C47.4445 264.218 46.8626 262.483 46.7556 260.688C46.6766 258.888 46.9566 257.09 47.5816 255.399C48.2062 253.709 49.1617 252.159 50.3926 250.84C51.5106 249.605 52.9925 248.475 54.6535 248.555C55.4315 248.642 56.1715 248.932 56.7995 249.397C57.4273 249.862 57.9197 250.485 58.2266 251.203C58.8169 252.652 59.0099 254.231 58.7855 255.779C58.2755 261.083 56.8085 266.121 52.4675 269.228" fill="#A237EE"/>
<path d="M63.4137 286.094C63.0871 285.817 62.7887 285.509 62.5227 285.173L60.1737 282.583C58.2457 280.37 55.4267 277.279 53.6117 273.081C52.0046 269.527 51.3727 265.61 51.7807 261.732C51.9118 260.568 52.1838 259.425 52.5907 258.326C52.7022 258.026 52.8294 257.732 52.9717 257.446C53.0607 257.251 53.1177 257.147 53.1337 257.155C52.6247 258.655 52.2697 260.201 52.0727 261.772C51.7687 265.594 52.4437 269.429 54.0327 272.92C55.7987 277.036 58.5447 280.137 60.4157 282.396L62.6517 285.084C62.9367 285.396 63.1927 285.734 63.4137 286.094Z" fill="#1F1B2D"/>
<path d="M20.7422 253.11C20.9132 253.192 21.0752 253.289 21.2282 253.401L22.5482 254.297L27.3602 257.687C32.6179 261.464 37.8057 265.337 42.9212 269.303C48.0436 273.264 53.0964 277.314 58.0772 281.452L62.5652 285.253L63.7642 286.31L64.1612 286.706C64.0002 286.613 63.8482 286.505 63.7072 286.383L62.4512 285.391L57.8742 281.702L42.6122 269.69L27.1402 257.978L22.4172 254.474L21.1372 253.506C20.9902 253.389 20.8572 253.256 20.7402 253.11H20.7422Z" fill="#1F1B2D"/>
<path d="M49.9055 278.673C46.5381 276.885 42.7926 275.922 38.9785 275.864C35.1635 275.805 31.3905 276.652 27.9695 278.334C26.2445 279.205 24.4215 280.675 24.5755 282.596C24.7295 284.517 26.7785 285.687 28.6255 286.236C32.5325 287.302 36.6685 287.191 40.5125 285.917C44.3551 284.643 47.7337 282.263 50.2225 279.077" fill="#A237EE"/>
<path d="M33.1563 281.247C33.4883 281.017 33.844 280.822 34.2173 280.667C34.6366 280.444 35.0694 280.247 35.5133 280.077C36.0893 279.829 36.6793 279.613 37.2793 279.432C37.9989 279.187 38.7317 278.982 39.4743 278.818C40.3273 278.62 41.1893 278.466 42.0583 278.359C44.0553 278.135 46.0713 278.135 48.0693 278.359C50.0645 278.605 52.0243 279.082 53.9093 279.779C54.7393 280.086 55.5513 280.442 56.3393 280.844C57.0233 281.186 57.6883 281.564 58.3323 281.975C58.9403 282.322 59.4173 282.733 59.8713 283.048C60.257 283.323 60.625 283.622 60.9733 283.944C61.2895 284.185 61.5824 284.455 61.8483 284.751C61.7753 284.831 60.5203 283.645 58.1623 282.217C57.52 281.827 56.8574 281.471 56.1773 281.151C55.4033 280.769 54.6083 280.428 53.7953 280.134C51.937 279.472 50.011 279.017 48.0523 278.777C46.0866 278.568 44.104 278.568 42.1383 278.777C41.281 278.874 40.4292 279.014 39.5863 279.197C38.7763 279.335 38.0633 279.561 37.3993 279.738C34.7263 280.529 33.1953 281.337 33.1543 281.247H33.1563Z" fill="#1F1B2D"/>
<path d="M260.194 310.332C254.523 306.7 252.482 302.042 251.591 295.383C251.169 292.042 251.471 288.649 252.476 285.435C253.481 282.22 255.165 279.256 257.415 276.744C261.19 272.594 266.488 269.762 269.234 264.87C272.151 259.656 271.778 252.762 275.942 248.443C278.809 245.497 283.127 244.577 286.659 242.478C289.551 240.766 291.884 238.289 294.5 236.198C297.116 234.107 300.26 232.331 303.613 232.452C308.676 232.638 312.8 237.425 313.229 242.453C313.658 247.482 311.034 252.407 307.299 255.821C304.594 258.291 301.216 260.236 299.506 263.481C296.266 269.56 300.211 277.697 296.736 283.662C294.2 287.996 288.157 290.257 287.501 295.237C287.258 297.07 287.85 298.902 287.906 300.751C288.084 306.522 282.851 311.373 277.189 312.616C271.527 313.859 265.646 312.302 260.178 310.356" fill="#EFECF3"/>
<path opacity="0.2" d="M293.466 253.147C293.303 253.391 293.115 253.619 292.907 253.825L291.198 255.658L288.525 258.587L285.114 262.576L281.226 267.604L279.168 270.486L277.103 273.618C274.123 278.321 271.502 283.24 269.261 288.334C267.081 293.453 265.307 298.735 263.955 304.13C263.38 306.633 262.821 308.973 262.497 311.267L261.63 317.546C261.412 319.475 261.339 321.227 261.209 322.769C261.079 324.311 261.071 325.635 261.055 326.724L260.999 329.227C261.006 329.519 260.981 329.812 260.926 330.099C260.871 329.812 260.849 329.519 260.861 329.227C260.861 328.581 260.82 327.75 260.788 326.716C260.743 325.396 260.743 324.074 260.788 322.753C260.845 321.211 260.869 319.436 261.104 317.498C261.339 315.561 261.485 313.462 261.914 311.17C262.343 308.878 262.724 306.504 263.315 303.986C264.65 298.542 266.425 293.217 268.621 288.059C270.879 282.931 273.536 277.986 276.568 273.271L278.666 270.139C279.347 269.122 280.092 268.194 280.764 267.265C282.109 265.401 283.494 263.771 284.742 262.268C285.99 260.766 287.172 259.484 288.233 258.33C289.294 257.176 290.218 256.231 291.003 255.472L292.81 253.729C293.008 253.513 293.228 253.318 293.466 253.147Z" fill="black"/>
<path d="M265.252 105.95H56.5547V350.801H265.252V105.95Z" fill="white"/>
<path d="M265.258 350.801L265.064 105.95L265.258 106.136H56.5768L56.7878 105.926V350.777L56.6098 350.599L265.315 350.777L56.6098 350.954H56.3828V350.777V105.926V105.717H56.6178H265.299H265.485V105.91L265.258 350.801ZM157.506 219.075V218.623V217.315V212.262L157.425 193.43L157.563 193.559L75.6738 193.64L75.8848 193.43V219.075L75.6818 218.873L134.209 218.962L151.35 219.019H155.959H157.158H157.571H157.182H155.943H151.382L134.29 219.083L75.6168 219.171H75.4058V193.22H75.6168L157.506 193.292H157.644V193.43L157.571 212.342V217.364V218.647C157.571 218.946 157.506 219.075 157.506 219.075ZM248.153 253.807V252.12V247.188L248.096 228.162L248.202 228.267L75.6568 228.371L75.8678 228.162V253.807L75.6568 253.605L198.415 253.694L234.868 253.75H244.726H247.286H248.169H247.319H244.783H234.973L198.52 253.815L75.6168 253.904H75.4058V227.952H75.6248L248.169 228.057H248.274V228.162L248.21 247.253V252.16L248.153 253.807ZM248.153 288.308V286.621V281.689L248.096 262.663L248.202 262.76L75.6568 262.873L75.8678 262.663V288.308L75.6568 288.098L198.415 288.187L234.868 288.252H244.726H247.286H248.169H247.319H244.783H234.973L198.52 288.308L75.6168 288.404H75.4058V262.429H75.6248L248.169 262.542H248.274V262.647L248.21 281.729V286.637L248.153 288.308ZM248.151 219.073V218.621V217.313V212.259L248.078 193.427L248.216 193.557L166.326 193.638L166.537 193.427V219.073L166.326 218.871L224.862 218.96L242.003 219.016H246.612H247.811H248.224H247.835H246.588H242.027L224.934 219.08L166.253 219.169H166.051V218.968V193.322V193.113H166.269L248.159 193.186H248.297V193.322L248.216 212.235V217.256V218.54C248.216 218.838 248.151 219.073 248.151 219.073Z" fill="#1F1B2D"/>
<path d="M92.7655 209.963C92.5586 209.99 92.3501 210.003 92.1415 210.003L90.2945 210.06L83.5715 210.204H83.3125L83.3935 209.963C83.6289 209.141 84.0757 208.395 84.6895 207.799C85.3815 207.178 86.2455 206.779 87.1685 206.653L87.1195 207.048C86.6007 206.822 86.1536 206.459 85.8265 205.998C85.4995 205.537 85.3055 204.996 85.2645 204.433C85.2087 203.8 85.345 203.166 85.6555 202.612C85.9665 202.057 86.4365 201.61 87.0065 201.325C87.5505 201.077 88.1595 201.011 88.7445 201.138C89.3289 201.264 89.8564 201.576 90.2475 202.027C90.5947 202.425 90.8389 202.902 90.959 203.415C91.0791 203.929 91.0714 204.464 90.9365 204.974C90.8255 205.417 90.6135 205.829 90.3175 206.177C90.021 206.526 89.648 206.802 89.2275 206.984V206.701C89.9495 206.807 90.6356 207.084 91.2285 207.509C91.6634 207.834 92.0317 208.239 92.3135 208.703C92.5678 209.088 92.7363 209.523 92.8075 209.979L92.6535 209.664C92.517 209.361 92.3572 209.07 92.1755 208.792C91.8379 208.292 91.3945 207.873 90.8765 207.564C90.3585 207.255 89.7785 207.062 89.1775 207L88.6345 206.935L89.1445 206.718C89.5145 206.545 89.8395 206.292 90.0965 205.976C90.3531 205.66 90.5343 205.29 90.6265 204.893C90.7413 204.441 90.7437 203.968 90.6336 203.515C90.5234 203.062 90.3041 202.643 89.9945 202.294C89.6518 201.918 89.1991 201.658 88.7005 201.553C88.2015 201.447 87.6825 201.5 87.2155 201.704C86.7255 201.954 86.3205 202.345 86.0555 202.825C85.7899 203.305 85.675 203.854 85.7255 204.401C85.7613 204.891 85.9312 205.363 86.2168 205.764C86.5024 206.166 86.8927 206.481 87.3455 206.677L88.0345 206.951L87.2975 207.073C86.4535 207.183 85.6625 207.546 85.0295 208.113C84.4577 208.657 84.0364 209.338 83.8065 210.091L83.6285 209.857L90.2225 209.914H92.1185C92.3354 209.916 92.5508 209.932 92.7655 209.963ZM188.766 209.959C188.562 209.987 188.355 210.001 188.149 210L186.294 210.056L179.57 210.201H179.32L179.393 209.959C179.628 209.138 180.075 208.392 180.688 207.796C181.379 207.169 182.243 206.764 183.167 206.633L183.119 207.029C182.601 206.803 182.155 206.439 181.829 205.978C181.503 205.517 181.311 204.976 181.272 204.414C181.212 203.782 181.345 203.147 181.654 202.592C181.964 202.037 182.435 201.589 183.005 201.306C183.549 201.059 184.159 200.994 184.742 201.121C185.326 201.247 185.854 201.559 186.245 202.009C186.592 202.407 186.834 202.883 186.953 203.397C187.072 203.911 187.062 204.445 186.926 204.954C186.815 205.398 186.603 205.81 186.307 206.158C186.011 206.506 185.637 206.783 185.217 206.964V206.682C185.939 206.788 186.625 207.065 187.218 207.489C187.655 207.812 188.024 208.218 188.303 208.684C188.558 209.069 188.726 209.503 188.798 209.959L188.643 209.645C188.514 209.338 188.353 209.046 188.165 208.773C187.83 208.273 187.388 207.854 186.871 207.545C186.355 207.235 185.776 207.042 185.176 206.98L184.633 206.916L185.136 206.698C185.506 206.525 185.832 206.271 186.09 205.956C186.348 205.64 186.531 205.269 186.626 204.873C186.74 204.421 186.74 203.948 186.628 203.496C186.517 203.043 186.297 202.624 185.986 202.275C185.649 201.893 185.198 201.629 184.699 201.523C184.2 201.417 183.681 201.474 183.216 201.685C182.723 201.933 182.317 202.322 182.049 202.804C181.782 203.284 181.667 203.834 181.717 204.382C181.752 204.872 181.922 205.344 182.208 205.745C182.494 206.147 182.884 206.463 183.337 206.658L184.026 206.932L183.289 207.053C182.444 207.164 181.653 207.527 181.02 208.094C180.451 208.638 180.032 209.319 179.805 210.073L179.628 209.838L186.214 209.895H188.117C188.335 209.901 188.551 209.923 188.766 209.959ZM91.2185 273.261C91.1798 273.088 91.1554 272.913 91.1455 272.736C91.1504 272.309 91.0501 271.888 90.8535 271.509C90.6989 271.238 90.4844 271.005 90.2262 270.829C89.968 270.652 89.673 270.537 89.3635 270.492C88.9896 270.442 88.6091 270.499 88.2665 270.656C87.9235 270.814 87.6325 271.064 87.4275 271.379C87.2485 271.65 87.1425 271.961 87.1195 272.284V273.269L86.9255 273.067C88.3698 273.059 89.8137 273.123 91.2515 273.261C89.8151 273.418 88.3703 273.485 86.9255 273.462H86.7225V273.261V272.251C86.7448 271.86 86.8704 271.481 87.0865 271.154C87.3334 270.771 87.6874 270.468 88.1048 270.283C88.5222 270.098 88.9848 270.038 89.4355 270.113C89.7985 270.171 90.1419 270.316 90.4365 270.535C90.7305 270.755 90.9685 271.041 91.1285 271.371C91.3365 271.811 91.4025 272.305 91.3145 272.784C91.2825 273.131 91.2185 273.285 91.2185 273.261ZM89.8145 278.509C89.6623 278.204 89.5323 277.888 89.4255 277.564V277.475L89.5145 277.41C89.6434 277.31 89.731 277.166 89.7609 277.006C89.7907 276.845 89.7607 276.679 89.6765 276.54C89.6343 276.452 89.5719 276.375 89.4945 276.316C89.4175 276.256 89.3265 276.216 89.2305 276.198C89.1346 276.18 89.0357 276.185 88.9419 276.212C88.848 276.238 88.7616 276.286 88.6895 276.352C88.618 276.418 88.5628 276.5 88.5285 276.591C88.4945 276.683 88.4825 276.781 88.4935 276.878C88.5044 276.974 88.538 277.067 88.5915 277.148C88.6445 277.23 88.7165 277.298 88.8015 277.347L88.9315 277.419L88.8915 277.556L88.6485 278.517L88.4945 278.323C88.9458 278.344 89.3952 278.395 89.8395 278.477C89.4024 278.6 88.9485 278.655 88.4945 278.637H88.2995V278.428L88.4775 277.451L88.5665 277.661C88.4375 277.583 88.3275 277.477 88.2445 277.352C88.1614 277.226 88.1075 277.083 88.0865 276.934C88.0655 276.784 88.0785 276.633 88.1235 276.49C88.1685 276.346 88.2455 276.213 88.3475 276.104C88.46 275.979 88.6021 275.885 88.7606 275.83C88.9191 275.775 89.0889 275.761 89.2545 275.788C89.4066 275.813 89.5512 275.871 89.6775 275.959C89.8035 276.048 89.9085 276.163 89.9835 276.297C90.1054 276.516 90.1373 276.774 90.0725 277.016C90.0075 277.259 89.8505 277.467 89.6355 277.597L89.7005 277.443C89.8048 277.788 89.8441 278.15 89.8145 278.509Z" fill="#9714F4"/>
<path d="M91.8194 273.271C91.937 273.248 92.0578 273.248 92.1754 273.271C92.4691 273.359 92.7317 273.529 92.9324 273.761C93.1327 273.992 93.2634 274.276 93.3094 274.579V275.45V277.565V278.792C93.3401 279.253 93.3237 279.715 93.2604 280.173C93.1894 280.429 93.0593 280.666 92.8804 280.863C92.7016 281.06 92.4794 281.213 92.2314 281.311C91.9744 281.414 91.6974 281.457 91.4214 281.439H90.6114H87.3714H86.5124C86.2636 281.452 86.0151 281.411 85.7832 281.32C85.5514 281.229 85.3415 281.091 85.1674 280.913C84.9936 280.735 84.8596 280.522 84.7744 280.288C84.6892 280.055 84.6547 279.807 84.6734 279.559V275.926V275.062C84.6482 274.754 84.6867 274.444 84.7864 274.151C84.8959 273.86 85.0814 273.605 85.3235 273.41C85.5657 273.215 85.8557 273.089 86.1634 273.044L86.0014 273.23V272.101C86.0385 271.721 86.1514 271.353 86.3334 271.018C86.7156 270.375 87.3298 269.901 88.0504 269.695C88.5934 269.499 89.1834 269.471 89.7434 269.615C90.3034 269.758 90.8054 270.069 91.1854 270.502C91.4318 270.773 91.6211 271.09 91.7422 271.435C91.8633 271.781 91.9137 272.147 91.8904 272.512C91.8828 272.766 91.8584 273.02 91.8174 273.271C91.7776 273.022 91.7612 272.771 91.7684 272.52C91.7644 271.825 91.4954 271.159 91.0154 270.655C90.7287 270.355 90.3747 270.126 89.9824 269.989C89.5904 269.851 89.1704 269.809 88.7584 269.865C88.346 269.921 87.9528 270.074 87.6114 270.311C87.2704 270.548 86.9904 270.863 86.7954 271.229C86.6392 271.524 86.5427 271.848 86.5114 272.18V273.287V273.448H86.3494C86.1117 273.486 85.8882 273.586 85.7014 273.738C85.5149 273.889 85.372 274.088 85.2874 274.312C85.2087 274.574 85.1812 274.847 85.2064 275.119V275.983V279.615C85.1839 279.875 85.2369 280.136 85.3591 280.366C85.4813 280.597 85.6675 280.787 85.8954 280.915C86.12 281.032 86.3709 281.091 86.6244 281.084H90.7394C91.2214 281.13 91.7074 281.102 92.1814 281.004C92.3774 280.928 92.5524 280.806 92.6924 280.651C92.8324 280.497 92.9354 280.309 92.9914 280.108C93.0504 279.683 93.0724 279.253 93.0564 278.824V277.597V275.482V274.626C93.0354 274.4 92.9604 274.182 92.8374 273.989C92.5921 273.638 92.2317 273.383 91.8174 273.271H91.8194ZM95.3684 246.419C95.3444 246.213 95.3314 246.005 95.3284 245.797L95.2714 244.11L95.1174 238.121L95.2874 238.291L82.9424 238.452L83.1204 238.21V239.291V240.381V242.504V246.483L82.9264 246.298H91.7644H94.3244C94.6404 246.29 94.9574 246.304 95.2724 246.339C94.9878 246.377 94.7006 246.393 94.4134 246.386L91.8944 246.467L82.9264 246.645H82.7404V246.451L82.6914 242.463V240.34V239.259V238.169L82.9024 237.951L95.2474 237.871H95.4174V238.04V244.134V245.749C95.4315 245.974 95.415 246.199 95.3684 246.419Z" fill="#9714F4"/>
<path d="M95.2698 238.124C94.7518 238.656 94.1788 239.133 93.5608 239.545L89.2678 242.725H88.9838L88.9028 242.669L88.7408 242.555L88.4249 242.338L87.8088 241.91L86.6508 241.103L84.6988 239.698C84.0781 239.291 83.4975 238.826 82.9648 238.31C83.6348 238.63 84.2729 239.014 84.8689 239.456L86.8699 240.787L88.0448 241.594L88.6688 242.022L88.9848 242.241L89.1388 242.346L89.2198 242.402H89.2608H89.0338L93.4078 239.318C93.9918 238.865 94.6149 238.465 95.2709 238.124H95.2698Z" fill="#9714F4"/>
<path d="M83.2627 246.533C83.7717 245.547 84.4059 244.63 85.1497 243.805C85.7857 242.889 86.5337 242.057 87.3777 241.327C86.8682 242.318 86.2308 243.238 85.4817 244.063C84.8487 244.976 84.1037 245.806 83.2627 246.533ZM91.4027 241.327C92.2201 242.038 92.9418 242.852 93.5497 243.748C94.2688 244.559 94.8787 245.46 95.3637 246.428C94.5457 245.718 93.824 244.903 93.2167 244.007C92.4957 243.198 91.8867 242.296 91.4027 241.327Z" fill="#9714F4"/>
<path d="M245.998 301.569H77.7722C76.5822 301.569 75.6172 302.531 75.6172 303.717V325.633C75.6172 326.819 76.5822 327.779 77.7722 327.779H245.998C247.188 327.779 248.153 326.819 248.153 325.633V303.717C248.153 302.531 247.188 301.569 245.998 301.569Z" fill="#9714F4"/>
<path d="M245.998 297.921H77.7722C76.5822 297.921 75.6172 298.883 75.6172 300.069V321.984C75.6172 323.17 76.5822 324.131 77.7722 324.131H245.998C247.188 324.131 248.153 323.17 248.153 321.984V300.069C248.153 298.883 247.188 297.921 245.998 297.921Z" fill="#A237EE"/>
<path d="M147.313 311.591C147.308 311.212 147.381 310.837 147.527 310.488C147.673 310.138 147.889 309.822 148.162 309.559C148.435 309.296 148.76 309.091 149.115 308.957C149.47 308.824 149.85 308.764 150.229 308.782C150.619 308.766 151.009 308.834 151.371 308.982C151.733 309.13 152.059 309.354 152.327 309.638L151.817 310.13C151.524 309.82 151.144 309.606 150.728 309.514C150.312 309.422 149.877 309.457 149.481 309.614C149.185 309.731 148.919 309.913 148.703 310.147C148.487 310.38 148.326 310.659 148.232 310.963C148.138 311.267 148.114 311.587 148.161 311.902C148.208 312.216 148.325 312.516 148.504 312.779C148.744 313.131 149.084 313.402 149.481 313.56C149.877 313.717 150.312 313.752 150.728 313.66C151.145 313.568 151.524 313.354 151.817 313.044L152.327 313.536C152.059 313.822 151.732 314.048 151.368 314.196C151.005 314.346 150.613 314.415 150.221 314.4C149.842 314.417 149.464 314.356 149.109 314.221C148.755 314.087 148.432 313.883 148.16 313.62C147.887 313.357 147.671 313.041 147.526 312.692C147.381 312.343 147.308 311.969 147.313 311.591ZM157.132 314.333L155.941 312.645H155.601H154.232V314.316H153.422V308.828H155.577C157.002 308.828 157.869 309.546 157.869 310.741C157.888 311.122 157.779 311.498 157.561 311.812C157.342 312.126 157.026 312.359 156.662 312.476L157.966 314.316L157.132 314.333ZM157.132 310.757C157.132 309.95 156.605 309.53 155.601 309.53H154.256V312H155.601C156.581 312 157.108 311.54 157.108 310.757H157.132ZM163.17 313.652V314.33H159.168V308.841H163.056V309.527H159.954V311.214H162.724V311.876H159.954V313.652H163.17ZM167.956 312.958H165.023L164.416 314.33H163.605L166.1 308.841H166.911L169.414 314.33H168.604L167.956 312.958ZM167.68 312.336L166.489 309.641L165.299 312.336H167.68ZM171.016 309.527H169.129V308.841H173.69V309.527H171.794V314.33H170.984L171.016 309.527ZM178.541 313.652V314.33H174.539V308.841H178.427V309.527H175.325V311.214H178.087V311.876H175.325V313.652H178.541Z" fill="white"/>
<path d="M137.144 147.433C159.399 125.256 159.399 89.3005 137.144 67.1245C114.889 44.9486 78.8056 44.9476 56.5506 67.1245C34.2956 89.3015 34.2956 125.256 56.5506 147.433C78.8056 169.61 114.889 169.61 137.144 147.433Z" fill="#EFECF3"/>
<path d="M129.495 30.5232C128.499 31.7692 127.891 33.2794 127.747 34.8665C127.603 36.4533 127.929 38.0474 128.685 39.4511C129.398 40.7269 130.483 41.8731 130.646 43.3175C130.913 45.6667 128.628 47.7814 129.025 50.1226C129.276 51.7366 130.646 52.8429 131.391 54.2713C131.851 55.2006 132.036 56.2411 131.926 57.2714C131.815 58.3018 131.413 59.2796 130.767 60.0909C129.73 61.3498 128.102 62.1498 127.43 63.6431C126.927 64.7413 127.049 66.065 126.619 67.1703C126.237 68.0362 125.636 68.7886 124.875 69.3539C124.114 69.9195 123.219 70.2796 122.278 70.3983C120.383 70.6247 118.464 70.519 116.607 70.0831L117.02 68.0411C116.669 68.5838 116.19 69.0327 115.626 69.3489C115.062 69.6651 114.427 69.8397 113.78 69.8576C112.483 69.8836 111.19 69.6927 109.956 69.293C109.187 65.8296 108.433 62.1737 109.519 58.7991C110.507 55.7636 112.84 53.3905 114.784 50.8558C116.943 48.0418 118.671 44.9245 119.912 41.6047C120.803 39.2237 121.443 36.7618 122.691 34.5014C123.939 32.241 125.931 30.2878 128.426 29.812" fill="#1F1B2D"/>
<path d="M166.56 78.2238L155.283 79.0308L155.17 76.141C155.02 74.7095 155.362 73.2691 156.142 72.0561C156.267 71.8426 156.357 71.6112 156.409 71.3698C156.49 70.5139 155.227 66.2196 154.789 64.6455C154.238 62.7562 155.316 61.7557 155.737 62.5307C156.499 63.9432 158.516 70.0052 159.147 70.6027C159.778 71.2002 159.415 68.0281 159.415 68.0281C158.427 61.3527 157.997 60.3841 159.188 60.1337C160.557 59.8434 162.064 69.7797 162.064 69.7797C162.064 69.7797 161.861 68.3912 162.931 68.1089C164.001 67.8266 164.494 69.1902 164.494 69.1902C164.356 68.4879 165.369 68.3832 165.369 68.3832C167.896 68.7303 166.584 78.3116 166.584 78.3116L155.308 79.1186L149.905 116.694L144.137 107.888L129.086 118.592L142.655 134.736C143.834 136.134 145.317 137.245 146.991 137.984C148.666 138.725 150.488 139.074 152.319 139.006C155.311 138.898 158.155 137.679 160.293 135.587C162.431 133.497 163.706 130.685 163.87 127.705L166.56 78.2238Z" fill="#EB996E"/>
<path d="M157.739 78.3267C157.691 78.2698 158.29 77.7451 159.092 76.7605C159.558 76.184 159.98 75.5745 160.356 74.9361L160.971 73.774C161.199 73.4028 161.332 72.9816 161.36 72.547C161.357 72.446 161.325 72.348 161.268 72.2648C161.21 72.1817 161.129 72.1172 161.036 72.0792C160.815 72.0423 160.587 72.0792 160.388 72.1839C159.945 72.3915 159.524 72.6432 159.133 72.935C158.499 73.4126 157.95 73.9942 157.512 74.6548L157.383 74.8403L157.286 74.6468C157.053 74.2305 156.752 73.8565 156.395 73.5405C156.395 73.5405 157.01 73.6862 157.537 74.558H157.31C157.725 73.8364 158.275 73.2008 158.93 72.6857C159.339 72.3692 159.781 72.0986 160.25 71.8787C160.538 71.7271 160.871 71.6816 161.19 71.75C161.361 71.8102 161.511 71.9186 161.621 72.0619C161.732 72.2053 161.799 72.3776 161.814 72.558C161.799 73.0777 161.648 73.5834 161.377 74.0273C161.179 74.4288 160.959 74.8194 160.72 75.1974C160.32 75.8457 159.861 76.4564 159.351 77.0219C158.888 77.5426 158.344 77.9844 157.739 78.3297V78.3267ZM162.204 70.3096C162.272 70.9968 162.272 71.6891 162.204 72.3764C162.204 73.0547 162.131 73.8049 162.082 74.6039C162.05 75.0286 162.05 75.4551 162.082 75.8797C162.082 76.2757 162.463 76.6139 162.746 76.4533C163.029 76.2927 163.192 75.8079 163.313 75.38L163.621 74.1131L164.051 71.9255C164.13 71.2392 164.29 70.5646 164.528 69.9155C164.527 70.6056 164.464 71.2943 164.342 71.9734L164.002 74.1929L163.71 75.4927C163.671 75.7585 163.58 76.0139 163.441 76.2438C163.301 76.474 163.117 76.6742 162.9 76.8324C162.752 76.8998 162.587 76.9212 162.426 76.8938C162.266 76.8664 162.118 76.7915 162.001 76.6788C161.794 76.4835 161.667 76.2187 161.645 75.9356C161.619 75.4827 161.635 75.0288 161.693 74.58L161.912 72.3525C161.938 71.6632 162.036 70.9779 162.204 70.3096Z" fill="#D1734A"/>
<path d="M164.13 73.1772C164.195 73.1772 164.033 73.6451 164.082 74.3723C164.097 74.7729 164.217 75.1627 164.43 75.5025C164.568 75.6401 164.665 75.6481 164.795 75.5025C164.94 75.283 165.065 75.0506 165.167 74.8082C165.681 73.5346 166.085 72.2193 166.374 70.877C166.501 72.2955 166.22 73.7208 165.564 74.9858C165.448 75.2681 165.304 75.5384 165.135 75.7928C165.075 75.8696 164.999 75.9314 164.912 75.9753C164.826 76.0187 164.73 76.0419 164.633 76.0431C164.541 76.0396 164.45 76.0161 164.368 75.9743C164.285 75.9324 164.213 75.8732 164.155 75.8007C163.993 75.5853 163.89 75.3329 163.855 75.0666C163.813 74.8541 163.794 74.6376 163.798 74.4212C163.774 73.5812 164.058 73.1533 164.13 73.1772Z" fill="#D1734A"/>
<path d="M116.641 143.815L117.694 160.153C85.6235 172.398 61.7995 152.081 61.7995 152.081L66.5955 137.462L67.4055 111.938L61.2485 118.743L58.3405 116.321L43.6705 104.149L40.5195 101.525L55.7735 85.486C75.0615 64.7973 90.0715 71.1176 90.0715 71.1176L112.624 73.2244C112.624 73.2244 128.226 75.4279 135.776 89.0541L148.616 111.89L129.288 125.612L123.139 114.36L116.641 143.815Z" fill="#666276"/>
<path d="M39.8633 107.063L39.9203 109.945C40.0533 113.735 40.5693 117.503 41.4593 121.189V121.294C41.5723 121.754 41.7023 122.206 41.8323 122.659C42.3343 124.434 42.9983 126 43.6303 127.719C43.7105 127.936 43.7941 128.151 43.8813 128.366C45.9223 127.833 51.3423 122.715 57.9603 116.039L43.2743 103.834C41.3873 105.884 40.4943 106.821 39.8633 107.063ZM110.577 75.3471L112.302 63.9335C112.302 63.9335 119.666 63.732 122.452 54.5777C125.109 45.8434 126.503 25.026 126.503 25.026C121.676 22.2783 116.122 21.0671 110.585 21.5546C105.049 22.0417 99.7951 24.2048 95.5263 27.7542L89.8553 73.0788C89.1993 78.3337 93.2173 83.0879 98.8793 83.7503C104.59 84.4117 109.856 80.651 110.577 75.3471Z" fill="#EB996E"/>
<path d="M121.594 40.7617C121.554 41.0752 121.392 41.3606 121.145 41.5578C120.897 41.7553 120.582 41.849 120.266 41.8191C120.11 41.8102 119.958 41.7702 119.819 41.7014C119.679 41.6326 119.554 41.5367 119.452 41.4191C119.35 41.3017 119.273 41.1649 119.225 41.0171C119.177 40.8695 119.159 40.7138 119.172 40.5592C119.215 40.247 119.377 39.9637 119.624 39.7682C119.871 39.5727 120.186 39.4799 120.501 39.5098C120.734 39.5242 120.957 39.6076 121.142 39.7495C121.327 39.8913 121.465 40.0851 121.539 40.3059C121.588 40.4526 121.606 40.6076 121.594 40.7617ZM123.73 39.6874C123.56 39.8251 122.742 39.026 121.446 38.8804C120.15 38.7348 119.105 39.2275 119.016 39.05C118.927 38.8724 119.145 38.7028 119.599 38.4604C120.215 38.152 120.91 38.0392 121.592 38.1372C122.267 38.2293 122.897 38.5316 123.39 39.0011C123.722 39.3243 123.811 39.6385 123.73 39.6874ZM108.29 39.1667C108.249 39.4797 108.087 39.7644 107.839 39.9607C107.591 40.1572 107.276 40.248 106.961 40.2161C106.806 40.2081 106.654 40.1691 106.514 40.1014C106.375 40.0335 106.25 39.9388 106.148 39.8221C106.046 39.7051 105.969 39.5692 105.92 39.4221C105.872 39.2744 105.854 39.1198 105.868 38.9652C105.908 38.6518 106.069 38.3663 106.317 38.1692C106.565 37.9717 106.88 37.8779 107.196 37.9078C107.351 37.9182 107.502 37.9591 107.642 38.0281C107.781 38.0971 107.905 38.1928 108.007 38.3098C108.109 38.4267 108.186 38.5627 108.234 38.7098C108.283 38.8575 108.302 39.0121 108.29 39.1667Z" fill="#1F1B2D"/>
<path d="M110.136 38.2978C109.966 38.4344 109.148 37.6354 107.852 37.4908C106.556 37.3461 105.511 37.8299 105.422 37.6524C105.333 37.4748 105.552 37.3132 106.005 37.0708C106.621 36.7626 107.316 36.6499 107.998 36.7476C108.675 36.8336 109.306 37.1367 109.796 37.6115C110.12 37.9347 110.217 38.2409 110.136 38.2978ZM113.906 48.3149C114.578 48.2371 115.262 48.2172 115.941 48.2571C116.253 48.2571 116.558 48.2571 116.642 48.1094C116.674 48 116.683 47.8851 116.669 47.772C116.654 47.6589 116.616 47.55 116.558 47.4521L115.963 45.7283C115.148 43.2794 114.607 41.2764 114.752 41.2504C114.897 41.2245 115.674 43.2006 116.482 45.6495L117.038 47.3782C117.109 47.5098 117.147 47.657 117.147 47.8067C117.147 47.9563 117.109 48.1036 117.038 48.2351C116.978 48.3069 116.895 48.3678 116.796 48.4137C116.692 48.4617 116.58 48.4921 116.466 48.5035C116.287 48.5194 116.105 48.5194 115.925 48.5035C115.244 48.4975 114.565 48.4346 113.906 48.3139V48.3149Z" fill="#1F1B2D"/>
<path d="M112.28 63.9351C107.837 63.402 103.63 61.6468 100.129 58.8657C100.129 58.8657 102.292 65.7107 111.81 66.1307L112.28 63.9351Z" fill="#D1734A"/>
<path d="M116.76 22.1359C117.368 23.6132 116.412 25.3649 115.059 26.1719C113.631 26.909 112.069 27.3485 110.466 27.4637C108.861 27.5894 107.326 28.1721 106.043 29.1425C103.84 31.1365 104.423 33.9855 102.195 36.577C101.677 37.3052 100.964 37.874 100.139 38.219C99.3122 38.5644 98.4053 38.6722 97.5207 38.5302C95.7387 38.2798 93.4297 38.6918 92.5307 40.7417C91.6317 42.7916 92.7167 44.3019 93.7137 46.1822C94.7107 48.0625 94.4427 49.9918 93.8757 52.0506C93.4707 53.536 92.1907 54.6981 91.9067 56.2163C91.4527 58.6383 93.5267 61.3336 92.1257 63.3197C90.7247 65.3058 87.1677 64.4259 85.6047 66.2744C85.0377 66.9287 84.7137 67.8883 83.8797 68.1467C83.3607 68.2195 82.8327 68.1228 82.3727 67.8724L75.0817 64.797L75.6567 62.5366C75.1178 63.0876 74.4552 63.5028 73.7237 63.7476C72.9917 63.992 72.2127 64.0598 71.4487 63.9451C70.6847 63.8304 69.9607 63.5352 69.3347 63.0853C68.7087 62.6354 68.1987 62.0439 67.8477 61.3586C69.3749 60.4747 70.7892 59.4095 72.0597 58.1864C73.3137 56.9415 74.0757 55.2876 74.2067 53.529C74.2797 51.3983 73.1217 49.2426 73.7697 47.2166C74.7017 44.3188 78.6297 43.5926 80.3637 41.1058C81.9837 38.7806 81.4407 35.4069 83.1177 33.1067C85.0697 30.4433 89.1927 30.3216 91.4287 27.8836C92.9437 26.2696 93.2917 23.8476 94.3937 21.8865C95.8207 19.5812 98.0497 17.8794 100.655 17.1074C103.243 16.3545 105.941 16.0406 108.634 16.1787C110.656 16.0839 112.67 16.4859 114.499 17.3488C116.257 18.3253 117.586 20.3274 117.173 22.2965" fill="#1F1B2D"/>
<path d="M97.5237 38.5522C96.5487 38.1991 95.4937 38.1233 94.4777 38.3338C93.9697 38.4385 93.4877 38.641 93.0597 38.9323C92.6317 39.2232 92.2656 39.5958 91.9827 40.0286C91.4645 40.9335 91.3084 42.0003 91.5457 43.0152C91.7887 44.0217 92.2537 44.9623 92.9067 45.7673C93.3247 46.3718 93.8797 46.8696 94.5267 47.2207C94.8557 47.3973 95.2227 47.4901 95.5957 47.4901C95.9687 47.4901 96.3367 47.3973 96.6647 47.2207" fill="#EB996E"/>
<path d="M96.1304 44.5435C96.2434 44.6004 95.7174 45.149 94.8344 44.77C94.3734 44.5445 94.0174 44.1515 93.8384 43.6727C93.6344 43.1181 93.5434 42.5275 93.5714 41.937C93.5824 41.3085 93.8174 40.704 94.2354 40.2342C94.412 40.0337 94.6325 39.8763 94.8797 39.7741C95.1269 39.6719 95.3943 39.6276 95.6614 39.6447C96.6094 39.7494 96.8114 40.4517 96.7064 40.4517C96.6014 40.4517 96.3014 40.1365 95.6614 40.1933C95.2644 40.2881 94.9144 40.5205 94.6744 40.8487C94.4344 41.1769 94.3184 41.5799 94.3494 41.9849C94.3494 43.0343 94.5844 44.0268 95.1024 44.342C95.6204 44.6572 96.0824 44.4797 96.1314 44.5435H96.1304Z" fill="#D1734A"/>
<path d="M116.796 22.6837C116.427 23.6932 116.419 24.7985 116.773 25.813C117.127 26.8279 117.822 27.6897 118.74 28.2529C119.794 28.8584 121.09 29.0599 121.981 29.8679C122.809 30.7648 123.291 31.9261 123.342 33.1448C123.383 34.3505 123.61 35.5427 124.014 36.68C124.236 37.2412 124.633 37.7166 125.146 38.0363C125.659 38.356 126.261 38.5033 126.865 38.4566L128.899 32.4754C129.644 30.2799 130.397 27.9307 129.863 25.6623C129.101 22.4333 125.893 20.3186 122.685 19.4388C121.216 18.9191 119.609 18.933 118.149 19.4797C116.756 20.1341 115.808 21.9017 116.529 23.2733M110.662 35.084C110.581 35.1807 110.297 35.084 109.852 34.9463C109.254 34.8089 108.642 34.7386 108.029 34.7368C107.413 34.73 106.798 34.795 106.198 34.9303C105.737 35.0351 105.453 35.1568 105.388 35.068C105.323 34.9792 105.493 34.664 105.988 34.3817C106.625 34.0577 107.33 33.8887 108.045 33.8887C108.76 33.8887 109.465 34.0577 110.103 34.3817C110.524 34.6879 110.702 35.0111 110.662 35.084ZM122.452 36.677C122.411 36.9034 121.569 36.9753 120.556 36.8306C119.543 36.686 118.758 36.4107 118.758 36.1443C118.758 35.878 119.641 35.854 120.653 35.9987C121.665 36.1433 122.484 36.4506 122.452 36.677ZM94.1025 46.9635C94.1622 47.0382 94.2303 47.1059 94.3055 47.165C94.4795 47.3774 94.6263 47.6106 94.7425 47.8593C95.1617 48.7845 95.286 49.8159 95.0985 50.8139C94.8355 52.2663 94.3465 53.6688 93.6485 54.9716C93.2617 55.7165 93.1363 56.5693 93.2925 57.3936C93.5782 58.259 93.9698 59.0858 94.4585 59.8555C94.9485 60.6635 95.1625 61.6091 95.0695 62.5488C94.9765 63.4885 94.5795 64.3733 93.9405 65.0706C93.3945 65.6919 92.6707 66.1312 91.8665 66.3294C91.1866 66.4701 90.4948 66.546 89.8005 66.5559C88.8262 66.5293 87.8639 66.7753 87.0225 67.2661C86.7342 67.4758 86.4801 67.7288 86.2695 68.0162C86.2695 68.0162 86.2695 67.9115 86.3745 67.7499C86.5155 67.5109 86.7028 67.3023 86.9255 67.1364C87.7593 66.5713 88.7445 66.2703 89.7525 66.2726C90.4265 66.2436 91.0955 66.1539 91.7535 66.0062C92.4916 65.8121 93.1527 65.398 93.6485 64.8192C94.1919 64.1889 94.5409 63.4153 94.6535 62.5917C94.7425 61.7029 94.5435 60.8091 94.0865 60.041C93.5865 59.2363 93.1917 58.3711 92.9115 57.4664C92.7509 56.5687 92.8933 55.6432 93.3165 54.835L94.2805 52.7042C94.5217 52.0762 94.7061 51.4279 94.8315 50.767C95.0326 49.8183 94.9566 48.832 94.6125 47.9251C94.3285 47.2877 94.0695 46.9874 94.1025 46.9635Z" fill="#1F1B2D"/>
<path d="M131.725 68.6946C131.563 68.7687 131.385 68.802 131.206 68.7913C130.949 68.7756 130.696 68.708 130.465 68.5928C130.234 68.4774 130.029 68.317 129.861 68.121C129.583 67.8193 129.379 67.4577 129.263 67.0643C129.148 66.6708 129.126 66.2562 129.197 65.8526C129.45 64.8102 129.995 63.8615 130.769 63.1164C131.694 62.2765 132.51 61.3248 133.199 60.2834C133.529 59.6923 133.689 59.022 133.661 58.3462C133.613 57.6259 133.443 56.919 133.158 56.2554C132.431 54.82 131.782 53.3456 131.214 51.8404C130.963 50.9865 130.963 50.0787 131.214 49.2249C131.535 48.3999 131.939 47.6099 132.421 46.8677C132.883 46.1734 133.068 45.3335 132.94 44.5106C132.721 43.7285 132.289 43.0213 131.692 42.4686L129.999 40.6771C129.477 40.0516 129.101 39.3184 128.898 38.5294C128.581 37.08 128.604 35.5777 128.962 34.1383L129.878 30.4654C130.388 28.6998 130.297 26.8145 129.618 25.1057C129.336 24.5072 128.952 23.9606 128.484 23.4907L128.598 23.5635C128.703 23.6376 128.801 23.7215 128.889 23.8139C129.259 24.1866 129.556 24.6246 129.764 25.1057C130.112 25.8279 130.324 26.608 130.388 27.406C130.461 28.459 130.379 29.5169 130.145 30.5462L129.278 34.2271C128.958 35.6162 128.958 37.0595 129.278 38.4486C129.46 39.1813 129.807 39.8632 130.291 40.4427C130.785 41.0482 131.393 41.5888 131.976 42.2023C132.625 42.7989 133.098 43.5608 133.345 44.4058C133.486 45.3245 133.288 46.2622 132.786 47.0453C132.31 47.7615 131.909 48.5246 131.587 49.3216C131.354 50.1117 131.354 50.9526 131.587 51.7436C132.142 53.2339 132.774 54.6943 133.483 56.1188C133.782 56.826 133.955 57.5801 133.993 58.3462C134.018 59.0853 133.839 59.8169 133.474 60.461C132.759 61.5184 131.913 62.481 130.955 63.3269C130.204 64.0231 129.665 64.9149 129.4 65.9015C129.32 66.2726 129.329 66.6576 129.426 67.0257C129.524 67.393 129.706 67.7323 129.959 68.0162C130.26 68.3993 130.698 68.6507 131.182 68.7185C131.546 68.6946 131.725 68.6457 131.725 68.6946Z" fill="#1F1B2D"/>
<path d="M163.515 79.5764C162.988 78.895 162.399 78.2627 161.757 77.6871C161.033 77.2223 160.271 76.8173 159.48 76.4761C159.94 76.4482 160.401 76.512 160.837 76.6627C161.273 76.8134 161.673 77.0491 162.016 77.3559C162.404 77.6051 162.737 77.9306 162.994 78.3126C163.252 78.6942 163.429 79.1242 163.515 79.5764ZM151.43 123.814C150.849 122.664 150.452 121.43 150.256 120.157C149.929 118.906 149.811 117.611 149.907 116.322C150.231 117.556 150.485 118.806 150.669 120.068C150.997 121.3 151.251 122.551 151.43 123.814Z" fill="#D1734A"/>
<path d="M99.7741 114.762C101.195 114.291 102.446 113.415 103.373 112.242C104.3 111.071 104.862 109.654 104.991 108.167C105.428 103.962 102.561 100.224 98.6801 99.8122C94.7991 99.4002 91.2271 102.493 90.7901 106.698C90.6102 108.193 90.8771 109.707 91.5571 111.051C92.2379 112.396 93.3013 113.509 94.6141 114.253C88.5381 114.569 85.5981 118.289 84.1641 121.615C86.4101 124.766 89.7201 127.008 93.4881 127.927L97.8621 128.379C101.793 128.245 105.538 126.684 108.393 123.988C107.672 120.445 105.558 116.239 99.7741 114.762Z" fill="white"/>
<path opacity="0.09" d="M67.47 111.936L71.067 108.239C71.067 108.239 69.512 134.958 68.45 138.17C67.388 141.382 61.832 152.078 61.832 152.078L66.628 137.46L67.47 111.936Z" fill="black"/>
<path d="M75.4341 103.713C75.5151 103.793 72.3561 107.208 68.3701 111.341C64.3841 115.473 61.0791 118.767 60.9901 118.686C60.9011 118.606 64.0761 115.191 68.0621 111.05C72.0481 106.91 75.3531 103.632 75.4341 103.713ZM125.714 101.623C125.728 101.892 125.715 102.163 125.673 102.43L125.406 104.698L124.11 112.109L122.328 119.43L121.663 121.617C121.6 121.899 121.496 122.172 121.355 122.424C121.376 122.151 121.425 121.88 121.501 121.617L122.036 119.406L123.697 112.076L125.114 104.698L125.511 102.454C125.539 102.169 125.607 101.889 125.714 101.623ZM109.579 48.8996C109.789 48.8996 109.579 50.3201 110.664 51.4742C111.749 52.6283 113.256 52.6932 113.24 52.8867C113.224 53.0802 112.867 53.1131 112.227 53.0403C111.401 52.9412 110.637 52.5519 110.073 51.942C109.533 51.3585 109.243 50.5881 109.263 49.7944C109.279 49.1968 109.481 48.8756 109.579 48.8996ZM91.6041 27.9885C92.5308 26.8461 93.1273 25.473 93.3291 24.0173C93.3341 22.9759 92.9591 21.9684 92.2731 21.1824C91.5871 20.3963 90.6381 19.8866 89.6021 19.7469C88.556 19.6739 87.5168 19.9635 86.6601 20.5669C85.8039 21.1697 85.1831 22.0494 84.9031 23.0567C84.683 24.0791 84.8008 25.1452 85.2391 26.0952C85.6777 27.0453 86.4126 27.8284 87.3341 28.3276C88.2754 28.7887 89.3356 28.9515 90.3723 28.7942C91.409 28.637 92.3727 28.1671 93.1341 27.4478" fill="#1F1B2D"/>
<path d="M93.4576 23.7969C93.5676 24.8503 93.2786 25.9066 92.6476 26.7595C92.1276 27.6852 91.2776 28.3825 90.2656 28.7127C91.0136 28.0543 91.6926 27.3211 92.2906 26.5251C92.7719 25.6579 93.1636 24.7437 93.4576 23.7969Z" fill="#666276"/>
<path d="M119.521 175.977C130.88 175.977 140.088 166.801 140.088 155.482C140.088 144.163 130.88 134.987 119.521 134.987C108.162 134.987 98.9531 144.163 98.9531 155.482C98.9531 166.801 108.162 175.977 119.521 175.977Z" fill="#9513F0"/>
<path d="M119.521 172.176C130.88 172.176 140.088 163.001 140.088 151.682C140.088 140.363 130.88 131.187 119.521 131.187C108.162 131.187 98.9531 140.362 98.9531 151.682C98.9531 163.002 108.162 172.176 119.521 172.176Z" fill="#A237EE"/>
<path d="M119.522 163.803C118.939 163.803 118.461 158.371 118.461 151.695C118.461 145.02 118.939 139.587 119.522 139.587C120.105 139.587 120.575 145.02 120.575 151.695C120.575 158.371 120.097 163.803 119.522 163.803Z" fill="white"/>
<path d="M131.72 151.681C131.72 152.262 126.276 152.731 119.569 152.731C112.862 152.731 107.418 152.262 107.418 151.681C107.418 151.101 112.862 150.632 119.569 150.632C126.276 150.632 131.72 151.1 131.72 151.681Z" fill="white"/>
</svg>
