<svg width="344" height="292" viewBox="0 0 344 292" fill="none" xmlns="http://www.w3.org/2000/svg">
<path d="M318.999 195.4H206.199V130.1H318.999V195.4ZM206.899 194.7H318.299V130.8H206.899V194.7Z" fill="#D5D2DC"/>
<path d="M295.701 164.9H221.301V167.1H295.701V164.9ZM300.901 173.1H221.401V175.5H300.901V173.1ZM300.901 181.3H221.401V183.7H300.901V181.3ZM247.301 153.1H221.301V158.8H247.301V153.1Z" fill="#F5F4F8"/>
<path d="M318.7 130.5H206.6V140.9H318.7V130.5Z" fill="#D5D2DC"/>
<path d="M307.7 139.3C307.6 139.2 309 137.4 310.9 135.4C312.8 133.4 314.5 131.9 314.6 132C314.7 132.1 313.3 133.9 311.4 135.9C309.5 137.9 307.8 139.4 307.7 139.3Z" fill="white"/>
<path d="M314.701 139.3C314.601 139.4 312.901 137.9 311.001 135.9C309.101 133.9 307.601 132.1 307.801 132C308.001 131.9 309.601 133.4 311.501 135.4C313.401 137.4 314.801 139.2 314.701 139.3Z" fill="white"/>
<path d="M180.2 1.2002H68.0996V65.8002H180.2V1.2002Z" fill="#F9F8FA"/>
<path d="M157.3 35.5998H82.9004V37.7998H157.3V35.5998ZM162.4 43.7998H82.9004V46.1998H162.4V43.7998ZM162.4 51.9998H82.9004V54.3998H162.4V51.9998ZM108.9 23.7998H82.9004V29.4998H108.9V23.7998Z" fill="#EFECF3"/>
<path d="M180.2 1.2002H68.0996V11.6002H180.2V1.2002Z" fill="#D5D2DC"/>
<path d="M171.2 10C171.1 9.90003 172.5 8.10003 174.4 6.10003C176.3 4.10003 178 2.60003 178.1 2.70003C178.2 2.80003 176.8 4.60003 174.9 6.60003C173 8.60003 171.4 10.1 171.2 10Z" fill="white"/>
<path d="M178.201 10C178.101 10.1 176.401 8.60003 174.501 6.60003C172.601 4.60003 171.101 2.80003 171.301 2.70003C171.501 2.60003 173.101 4.10003 175.001 6.10003C176.901 8.10003 178.301 9.80003 178.201 10Z" fill="white"/>
<path d="M137.8 121.2H25V55.8999H137.8V121.2ZM25.7 120.5H137.1V56.5999H25.7V120.5Z" fill="#D5D2DC"/>
<path d="M114.5 90.6999H40.0996V92.8999H114.5V90.6999ZM119.6 98.7999H40.0996V101.2H119.6V98.7999ZM119.6 107.1H40.0996V109.5H119.6V107.1ZM66.0996 78.8999H40.0996V84.5999H66.0996V78.8999Z" fill="#F5F4F8"/>
<path d="M137.401 56.2002H25.3008V66.6002H137.401V56.2002Z" fill="#D5D2DC"/>
<path d="M267.9 136.1H135.6V254.6H267.9V136.1Z" fill="#F9F8FA"/>
<path d="M142.2 98.7998H38.5996V206.5H142.3V98.7998H142.2Z" fill="#F5F4F8"/>
<path d="M142.2 98.7998H38.5996V110.5H142.3V98.7998H142.2Z" fill="#D5D2DC"/>
<path d="M47.0992 104.6C47.0992 105 46.8992 105.4 46.6992 105.8C46.4992 106.2 46.0992 106.4 45.6992 106.6C45.2992 106.7 44.8992 106.8 44.4992 106.7C44.0992 106.6 43.6992 106.4 43.3992 106.1C43.0992 105.8 42.8992 105.4 42.7992 105C42.6992 104.6 42.7992 104.1 42.8992 103.8C43.0992 103.4 43.2992 103.1 43.6992 102.8C44.0992 102.6 44.4992 102.4 44.8992 102.4C45.4992 102.4 45.9992 102.7 46.4992 103.1C46.8992 103.4 47.0992 104 47.0992 104.6ZM55.8992 104.6C55.8992 105.5 55.2992 106.2 54.4992 106.6C54.0992 106.8 53.6992 106.8 53.1992 106.7C52.7992 106.6 52.3992 106.4 52.0992 106.1C51.7992 105.8 51.5992 105.4 51.4992 105C51.3992 104.6 51.4992 104.1 51.5992 103.8C51.7992 103.4 51.9992 103.1 52.3992 102.8C52.7992 102.6 53.1992 102.4 53.5992 102.4C54.1992 102.4 54.6992 102.7 55.1992 103.1C55.6992 103.4 55.9992 104 55.8992 104.6ZM64.7992 104.6C64.7992 105.5 64.1992 106.2 63.3992 106.6C62.5992 106.9 61.6992 106.7 61.0992 106.1C60.7992 105.8 60.5992 105.4 60.4992 105C60.3992 104.6 60.4992 104.1 60.5992 103.8C60.7992 103.4 60.9992 103.1 61.3992 102.8C61.7992 102.6 62.1992 102.4 62.5992 102.4C63.1992 102.4 63.6992 102.7 64.1992 103.1C64.5992 103.4 64.7992 104 64.7992 104.6Z" fill="white"/>
<path d="M304.2 24.7002H171.9V156.6H304.2V24.7002Z" fill="#F5F4F8"/>
<path d="M304.2 24.7002H171.9V40.2002H304.2V24.7002Z" fill="#D5D2DC"/>
<path d="M183.101 32.2998C183.101 32.8998 182.901 33.3998 182.601 33.8998C181.901 34.7998 180.801 35.2998 179.601 34.9998C179.101 34.8998 178.601 34.5998 178.201 34.1998C177.801 33.7998 177.501 33.2998 177.401 32.6998C177.301 32.0998 177.401 31.5998 177.601 31.0998C177.801 30.5998 178.201 30.0998 178.701 29.7998C179.201 29.4998 179.701 29.2998 180.301 29.2998C181.901 29.2998 183.201 30.6998 183.101 32.2998Z" fill="white"/>
<path d="M193.9 30.2998C194.3 30.6998 194.5 31.1998 194.6 31.7998C194.7 32.3998 194.6 32.8998 194.4 33.3998C194.2 33.8998 193.8 34.2998 193.3 34.5998C192.3 35.1998 191.1 35.1998 190.1 34.4998C189.6 34.1998 189.3 33.6998 189.1 33.1998C188.9 32.6998 188.8 32.0998 189 31.5998C189.1 30.9998 189.4 30.4998 189.8 30.0998C190.4 29.5998 191.1 29.2998 191.9 29.2998C192.7 29.2998 193.4 29.6998 193.9 30.2998Z" fill="white"/>
<path d="M206.401 32.2998C206.401 32.8998 206.201 33.3998 205.901 33.8998C205.201 34.7998 204.101 35.2998 202.901 34.9998C202.401 34.8998 201.901 34.5998 201.501 34.1998C201.101 33.7998 200.801 33.2998 200.701 32.6998C200.601 32.0998 200.701 31.5998 200.901 31.0998C201.101 30.5998 201.501 30.0998 202.001 29.7998C202.501 29.4998 203.001 29.2998 203.601 29.2998C205.101 29.2998 206.401 30.6998 206.401 32.2998Z" fill="white"/>
<path d="M275.599 289.7C275.599 289.8 227.799 289.9 168.899 289.9C109.999 289.9 62.1992 289.8 62.1992 289.7C62.1992 289.6 109.999 289.5 168.899 289.5L275.599 289.7Z" fill="#1F1B2D"/>
<path d="M229 205.4C218.4 198 216 184.2 216.4 171.8C216.5 169.7 216.2 167.5 217.2 165.7C218.2 163.9 220.5 162.6 222.3 163.5C223.8 164.2 224.5 166 225.4 167.5C226.5 169.5 228.2 171.1 230.3 172.1C231.6 172.8 233.2 173.2 234.5 172.5C236.3 171.5 236.5 169.1 236.5 167L236.4 155.5C236.3 153.4 236.5 151.4 237 149.4C237.6 147.4 239.1 145.6 241 145.1C242.9 144.6 245.4 145.7 245.8 147.7C245.9 148.6 245.9 149.4 245.9 150.3C246 151.2 246.4 152.1 247.2 152.4C248 152.7 248.8 152.1 249.5 151.5C251.6 149.4 253.1 146.7 254.4 144.1C255.7 141.5 257.1 138.7 259 136.4C260.9 134.1 263.6 132.3 266.6 132.2C269.6 132.1 272.7 133.9 273.4 136.8C274.1 139.7 272.5 142.6 270.6 145C267.9 148.5 264.6 151.6 261 154.1C260.3 154.5 259.7 155.1 259.4 155.8C259 157.2 260.3 158.6 261.6 159C263.1 159.5 264.8 159.4 266.4 159.5C268 159.6 269.7 160.4 270.4 161.9C271.2 164 269.5 166.2 267.8 167.7C264.3 170.6 260.4 172.9 256.2 174.4C254.7 175 253.1 175.4 251.9 176.5C250.7 177.6 249.9 179.4 250.7 180.9C251.5 182.4 253.3 182.8 254.9 182.5C256.5 182.2 257.9 181.4 259.4 180.8C262.2 179.7 265.9 179.9 267.7 182.4C268.3 183.2 268.6 184.2 268.7 185.2C268.8 186.2 268.7 187.2 268.4 188.2C267.7 190.1 266.7 191.8 265.3 193.3C260.8 198.7 254.9 202.8 248.3 205.2C241.6 207.2 235.6 207.8 229 205.4Z" fill="#A237EE"/>
<path d="M270.401 133.8C270.401 133.8 270.301 133.9 270.201 134L269.601 134.5L267.301 136.6C264.501 139.2 261.801 142.1 259.401 145.1C257.901 147 256.301 149.2 254.601 151.5C252.801 154 251.101 156.5 249.401 159.1C247.601 161.9 245.901 164.9 244.301 167.9C243.501 169.5 242.801 171.1 242.101 172.8L240.001 177.9C237.201 184.4 234.701 191 232.701 197.7C231.001 203.2 229.901 208.9 229.301 214.6C228.901 218.5 228.801 222.4 229.101 226.2C229.201 227.6 229.301 228.6 229.401 229.3L229.501 230.1V230.4C229.501 230.3 229.501 230.2 229.401 230.1L229.301 229.3C229.201 228.6 229.001 227.5 228.901 226.1C228.601 222.2 228.601 218.3 229.001 214.4C229.601 208.7 230.701 203 232.401 197.4C234.501 190.6 236.901 184 239.701 177.5L241.901 172.4C242.601 170.7 243.301 169.1 244.101 167.5C245.601 164.5 247.301 161.5 249.201 158.7C251.001 155.9 252.701 153.5 254.401 151.1C256.101 148.7 257.701 146.6 259.201 144.7C261.601 141.7 264.301 138.9 267.201 136.3C268.201 135.4 269.001 134.7 269.601 134.2L270.201 133.7C270.201 133.9 270.301 133.8 270.401 133.8Z" fill="#1F1B2D"/>
<path d="M244.101 167.7C244.001 167.4 243.901 167.1 243.901 166.8L243.501 164.4L242.601 156.4L241.601 148.4L241.201 146C241.101 145.7 241.101 145.4 241.101 145.1C241.201 145.4 241.301 145.7 241.401 146C241.601 146.6 241.701 147.4 241.901 148.4C242.301 150.5 242.701 153.3 243.001 156.4L243.801 164.4L244.101 166.8C244.101 167.1 244.101 167.4 244.101 167.7ZM270.501 162.8C270.201 162.9 269.801 162.9 269.501 162.9L266.601 163.2L257.201 164.6L247.901 166.7L245.101 167.5C244.801 167.6 244.401 167.7 244.101 167.7C244.401 167.5 244.701 167.4 245.101 167.3L247.901 166.4C250.201 165.7 253.501 164.9 257.201 164.2C260.301 163.6 263.401 163.2 266.601 162.9L269.501 162.7C269.801 162.7 270.201 162.7 270.501 162.8ZM232.601 197.1C232.501 197 232.501 196.9 232.401 196.8L231.901 195.8L230.301 192.2C229.001 189.2 227.401 184.9 225.701 180.2L221.201 168.2L219.801 164.6L219.401 163.6C219.301 163.5 219.301 163.4 219.301 163.2C219.401 163.3 219.401 163.4 219.501 163.5L220.001 164.5C220.401 165.3 220.901 166.6 221.601 168.1C222.901 171.1 224.501 175.4 226.201 180.1L230.701 192.1L232.101 195.7C232.301 196.1 232.401 196.4 232.501 196.7C232.501 196.9 232.501 197 232.601 197.1Z" fill="#1F1B2D"/>
<path d="M267.7 185.8C267.6 185.9 267.5 185.9 267.3 185.9L266.3 186.2L262.5 187.4L250.1 191.5L237.7 195.5L233.9 196.6L232.9 196.9C232.8 196.9 232.7 197 232.5 197C232.6 196.9 232.7 196.9 232.9 196.9L233.9 196.6L237.7 195.4L250.1 191.3L262.5 187.3L266.3 186.2L267.3 185.9C267.5 185.8 267.6 185.8 267.7 185.8Z" fill="#1F1B2D"/>
<path d="M253.4 18.8002L249.9 20.1002L248.4 15.5002C245.6 7.00017 236.7 2.40017 228.5 5.30017C220.3 8.20017 216 17.6002 218.8 26.1002L220.3 30.7002L216.7 32.0002C213.9 33.1002 212.4 36.2002 213.4 39.1002L223.3 69.2002C223.5 69.9002 223.8 70.5002 224.3 71.1002C224.8 71.7002 225.3 72.1002 225.9 72.4002C226.5 72.7002 227.2 72.9002 227.9 73.0002C228.6 73.1002 229.3 73.0002 230 72.7002L266.7 59.6002C268.1 59.1002 269.2 58.0002 269.8 56.7002C270.4 55.4002 270.5 53.8002 270 52.5002L260.1 22.4002C259.9 21.7002 259.5 21.1002 259.1 20.5002C258.6 20.0002 258.1 19.5002 257.4 19.2002C256.8 18.9002 256.1 18.7002 255.4 18.6002C254.7 18.5002 254.1 18.6002 253.4 18.8002ZM225.4 23.6002C224.6 21.4002 224.8 19.0002 225.8 16.8002C226.8 14.7002 228.6 13.0002 230.8 12.2002C231.9 11.8002 233 11.7002 234.2 11.8002C235.3 11.9002 236.5 12.2002 237.5 12.7002C238.5 13.2002 239.4 13.9002 240.2 14.8002C240.9 15.7002 241.5 16.7002 241.8 17.8002L243.3 22.4002L227.1 28.2002L225.4 23.6002ZM246 50.4002L248.5 58.1002C248.5 58.3002 248.5 58.4002 248.5 58.6002C248.5 58.8002 248.3 58.9002 248.1 58.9002L244.6 60.2002C244.5 60.2002 244.3 60.2002 244.2 60.2002C244.1 60.2002 244 60.0002 243.9 59.9002L241.4 52.2002C238.5 52.0002 236.1 50.1002 235.2 47.4002C234.6 45.6002 234.7 43.7002 235.5 42.0002C236.3 40.3002 237.7 39.0002 239.5 38.3002C241.2 37.7002 243.1 37.8002 244.8 38.7002C245.6 39.1002 246.3 39.7002 246.9 40.4002C247.5 41.1002 247.9 41.9002 248.2 42.8002C248.6 44.2002 248.7 45.6002 248.3 47.0002C247.9 48.4002 247.1 49.4002 246 50.4002Z" fill="#A237EE"/>
<path d="M249.7 20C249.7 20.1 243.1 22.6 235 25.5L220.1 30.7C220.1 30.6 226.7 28.1 234.9 25.2L249.7 20ZM257.5 21.3C257.5 21.4 257.6 21.4 257.6 21.5L257.8 22L258.5 24.1L261.1 31.8L265 43.2L267.3 50C267.7 51.2 267.9 52.5 267.8 53.8C267.7 54.5 267.6 55.1 267.2 55.7C266.9 56.3 266.4 56.8 265.9 57.2C264.8 58 263.7 58.6 262.4 59L258.9 60.3L252.2 62.7L240.8 66.7L233.1 69.4L231 70.1L230.4 70.3C230.3 70.3 230.3 70.3 230.2 70.3C230.2 70.3 230.3 70.3 230.4 70.2L230.9 70L233 69.2L240.6 66.4L251.9 62.3L258.6 59.9L262.1 58.6C263.3 58.2 264.5 57.6 265.5 56.9C266 56.5 266.4 56 266.7 55.5C267 55 267.2 54.3 267.2 53.7C267.3 52.5 267.1 51.2 266.7 50.1L264.5 43.3L260.7 31.9L258.2 24.2L257.5 22.1L257.3 21.5C257.5 21.3 257.5 21.3 257.5 21.3Z" fill="#1F1B2D"/>
<path d="M238.1 11.7998L237.1 11.2998C236.1 10.8998 235.1 10.6998 234.1 10.6998C232.6 10.5998 231.1 10.8998 229.7 11.4998C228 12.2998 226.5 13.4998 225.5 14.9998C224.5 16.4998 223.9 18.3998 223.9 20.1998C223.9 21.6998 224.1 23.1998 224.6 24.6998L225.6 27.5998C225.7 27.9998 225.9 28.2998 226 28.6998C225.8 28.3998 225.6 27.9998 225.5 27.6998L224.4 24.7998C223.9 23.2998 223.6 21.7998 223.6 20.1998C223.6 18.2998 224.2 16.3998 225.3 14.7998C226.4 13.1998 227.9 11.8998 229.7 11.1998C231.1 10.5998 232.7 10.2998 234.3 10.3998C235.4 10.4998 236.4 10.6998 237.3 11.0998C237.6 11.1998 237.8 11.3998 238 11.4998C237.9 11.5998 238 11.6998 238.1 11.7998ZM238.4 38.6998C238.5 38.5998 238.6 38.5998 238.7 38.4998C239 38.2998 239.4 38.1998 239.8 38.0998C240.4 37.8998 241 37.7998 241.6 37.7998C242.4 37.7998 243.2 37.8998 244 38.1998C245.8 38.7998 247.4 40.5998 248.2 42.9998C248.6 44.2998 248.6 45.6998 248.2 46.9998C247.8 48.3998 247 49.6998 246 50.6998V50.4998L248.9 58.5998L249 58.7998L248.8 58.8998L247.2 59.3998L243.8 60.5998L243.6 60.6998L243.5 60.4998L240.7 52.3998L240.9 52.4998C239.6 52.3998 238.3 51.8998 237.2 50.9998C236.2 50.2998 235.5 49.2998 234.9 48.1998C234.4 47.1998 234.1 46.1998 234.2 45.0998C234.2 43.9998 234.5 42.8998 235 41.8998C235.5 40.8998 236.2 40.0998 237.1 39.3998C237.5 39.0998 237.9 38.8998 238.4 38.6998C238 38.8998 237.6 39.1998 237.2 39.3998C236.2 40.1998 235.5 41.1998 235.1 42.3998C234.7 43.2998 234.5 44.1998 234.6 45.1998C234.6 46.1998 234.9 47.0998 235.3 47.9998C235.8 48.9998 236.6 49.8998 237.5 50.5998C238.5 51.3998 239.7 51.8998 241 51.9998H241.1V52.0998L243.9 60.1998L243.7 60.0998L247.1 58.8998L248.7 58.3998L248.6 58.5998L245.7 50.4998V50.3998L245.8 50.2998C246.8 49.2998 247.5 48.0998 248 46.6998C248.4 45.4998 248.4 44.1998 248 42.8998C247.2 40.5998 245.7 38.7998 244 38.1998C243.3 37.8998 242.5 37.7998 241.7 37.7998C241.1 37.7998 240.5 37.8998 239.9 37.9998L238.4 38.6998Z" fill="#1F1B2D"/>
<path d="M217.101 237.5L148.401 237.2C144.401 237.2 140.601 235.6 137.801 232.8C135.001 230 133.401 226.2 133.501 222.2L134.201 49.8C134.201 47.8 134.601 45.9 135.401 44.1C136.201 42.3 137.301 40.6 138.701 39.3C140.101 38 141.801 36.8 143.601 36.1C145.401 35.4 147.401 35 149.301 35L218.001 35.3C222.001 35.3 225.801 36.9 228.601 39.7C231.401 42.5 233.001 46.3 232.901 50.3L232.201 222.7C232.201 224.7 231.801 226.6 231.001 228.4C230.201 230.2 229.101 231.9 227.701 233.2C226.301 234.5 224.601 235.7 222.801 236.4C221.001 237.1 219.101 237.5 217.101 237.5Z" fill="#666276"/>
<path d="M217.9 41.0999H204.6C203.7 41.0999 202.9 41.4999 202.3 42.0999C202 42.3999 201.8 42.7999 201.6 43.1999C201.4 43.5999 201.4 43.9999 201.4 44.4999V46.8999C201.4 47.2999 201.3 47.7999 201.2 48.1999C200.9 48.9999 200.2 49.6999 199.4 49.9999C199 50.1999 198.6 50.2999 198.1 50.2999L172.1 50.1999C170.3 50.0999 168.8 48.5999 168.9 46.7999V44.3999C168.9 43.4999 168.6 42.6999 168 41.9999C167.4 41.3999 166.6 40.9999 165.7 40.9999H161L149.3 40.8999C146.5 40.8999 143.9 41.9999 141.9 43.8999C139.9 45.7999 138.8 48.4999 138.8 51.2999L138.1 219.6C138.1 221 138.4 222.3 138.9 223.6C139.4 224.9 140.2 226 141.2 227C142.2 228 143.3 228.8 144.6 229.3C145.9 229.8 147.2 230.1 148.6 230.1L217.2 230.4C218.6 230.4 219.9 230.1 221.2 229.6C222.5 229.1 223.6 228.3 224.6 227.3C226.6 225.3 227.7 222.7 227.7 219.9L228.4 51.5999C228.4 48.7999 227.3 46.0999 225.4 44.1999C223.5 42.2999 220.7 41.0999 217.9 41.0999Z" fill="white"/>
<path d="M165.501 100.4L147.801 100.3V103.5L165.501 103.6V100.4Z" fill="#A237EE"/>
<path d="M217.4 120.3C217.5 120.3 217.7 120.3 217.8 120.2C218 120.1 218.2 120 218.3 119.8C218.4 119.6 218.5 119.4 218.5 119.2V114.5V111.1V110.1C218.5 109.8 218.5 109.5 218.3 109.2C218.2 109.1 218.1 109 217.9 108.9C217.8 108.8 217.6 108.8 217.4 108.8H216.3H206.4L148.8 108.6C148.7 108.6 148.5 108.6 148.4 108.7C148.3 108.8 148.2 108.9 148.1 109C147.9 109.3 147.9 109.6 147.9 109.9V112V116.1V118.2C147.9 118.5 147.9 118.8 147.9 119.2C147.9 119.3 148 119.5 148.1 119.6C148.2 119.7 148.3 119.8 148.4 119.8C148.5 119.9 148.7 119.9 148.8 119.9H152.3L167.6 120L193.5 120.2L210.9 120.3L215.6 120.4H216.8L217.4 120.3L217 120.2H215.8H211H193.6L167.7 120.1L152.4 120H148.9C148.7 120 148.5 120 148.3 119.9C148.1 119.8 148 119.7 147.8 119.6C147.6 119.5 147.6 119.3 147.5 119.1C147.5 118.9 147.4 118.7 147.5 118.5V118V116V111.9V109.8C147.5 109.6 147.5 109.4 147.5 109.2C147.5 109 147.6 108.8 147.7 108.6C147.8 108.4 148 108.3 148.2 108.2C148.4 108.1 148.6 108.1 148.8 108.1L206.4 108.4L216.3 108.5H217.4C217.6 108.5 217.8 108.5 217.9 108.6C218.1 108.7 218.2 108.8 218.3 109C218.5 109.3 218.6 109.7 218.5 110V111V114.4L218.4 119.2C218.4 119.6 218.1 120 217.7 120.2C217.7 120.3 217.5 120.3 217.4 120.3Z" fill="#D5D2DC"/>
<path d="M185.5 112.1H153.1V115.1H185.5V112.1Z" fill="#A237EE"/>
<path d="M165.399 130L147.699 129.9V133.1L165.399 133.2V130Z" fill="#A237EE"/>
<path d="M216.9 150C217 150 217.2 150 217.3 149.9C217.5 149.8 217.7 149.7 217.8 149.6C217.9 149.5 218.1 149.3 218.1 149.1C218.2 148.8 218.3 148.5 218.2 148.2V147.1V144.3V140C218.2 139.7 218.2 139.4 218 139.1C217.8 138.8 217.6 138.6 217.2 138.5C216.9 138.4 216.5 138.4 216.2 138.4H206.3L148.9 138.2C148.6 138.2 148.3 138.3 148.1 138.5C147.9 138.7 147.7 139 147.7 139.3V141.4V145.5V147.6C147.7 147.9 147.7 148.2 147.7 148.6C147.8 148.9 148 149.1 148.2 149.3C148.5 149.5 148.8 149.5 149.1 149.5H150.1H152.1L167.3 149.6L193.1 149.8L210.5 149.9L215.2 150H216.4H216.9H216.5H215.3H210.6H193.2H167.4L152.2 149.9H149.2C148.8 149.9 148.5 149.8 148.1 149.6C147.8 149.4 147.6 149.1 147.5 148.7C147.4 148.4 147.4 148 147.4 147.6V145.5V141.4V139.3C147.5 138.9 147.6 138.5 147.9 138.3C148.2 138 148.6 137.9 149 137.9L206.4 138.2L216.3 138.3C216.7 138.3 217 138.3 217.4 138.4C217.8 138.5 218.1 138.8 218.2 139.1C218.4 139.4 218.5 139.8 218.4 140.1V141.1V144.5V147.3V148.4C218.4 148.7 218.4 149 218.3 149.3C218.2 149.5 218.1 149.7 217.9 149.8C217.7 149.9 217.6 150 217.3 150.1C217.2 150 217.1 150 216.9 150Z" fill="#D5D2DC"/>
<path d="M165.2 161L147.5 160.9V164.1L165.2 164.2V161Z" fill="#A237EE"/>
<path d="M216.801 180.9C216.901 180.9 217.101 180.9 217.201 180.8C217.401 180.7 217.601 180.6 217.701 180.5C217.801 180.4 218.001 180.2 218.101 180C218.201 179.7 218.201 179.4 218.201 179.1V178V175.2V171C218.201 170.7 218.201 170.4 218.001 170.1C217.801 169.8 217.601 169.6 217.201 169.5C216.901 169.4 216.501 169.4 216.201 169.4H206.301L148.901 169.2C148.601 169.2 148.301 169.3 148.101 169.5C147.901 169.7 147.701 170 147.701 170.3V172.4V176.5V178.6C147.701 178.9 147.701 179.2 147.701 179.6C147.801 179.9 148.001 180.1 148.201 180.3C148.501 180.5 148.801 180.5 149.101 180.5H152.101L167.301 180.6L193.101 180.8L210.501 180.9L215.201 181H216.401L216.801 180.9H216.401H215.201H210.501H193.101L167.301 180.8L152.101 180.7H149.101C148.701 180.7 148.401 180.6 148.001 180.4C147.701 180.2 147.501 179.9 147.401 179.5C147.301 179.2 147.301 178.8 147.301 178.4V176.3V172.2V170.1C147.301 169.7 147.501 169.3 147.801 169.1C148.101 168.8 148.501 168.7 148.901 168.7L206.301 169L216.201 169.1C216.601 169.1 216.901 169.1 217.301 169.2C217.701 169.3 218.001 169.6 218.101 169.9C218.301 170.2 218.401 170.6 218.301 170.9V171.9V175.3V178.1V179.2C218.301 179.5 218.301 179.8 218.201 180.1C218.101 180.3 218.001 180.5 217.801 180.6C217.601 180.7 217.501 180.8 217.201 180.9C217.101 180.9 217.001 180.9 216.801 180.9Z" fill="#D5D2DC"/>
<path d="M184.8 142.6L152.4 142.5V145.5L184.8 145.6V142.6Z" fill="#A237EE"/>
<path d="M155.301 175.3C155.301 175.6 155.201 175.8 155.001 176.1C154.701 176.5 154.101 176.7 153.501 176.6C153.201 176.5 153.001 176.4 152.801 176.2C152.301 175.6 152.301 174.7 152.901 174.2C153.201 174 153.501 173.8 153.901 173.8C154.301 173.8 154.601 174 154.901 174.3C155.201 174.5 155.401 174.9 155.301 175.3ZM159.701 175.3C159.701 175.5 159.701 175.7 159.601 175.9C159.501 176.1 159.401 176.3 159.301 176.4C159.001 176.7 158.701 176.9 158.301 176.9C158.101 176.9 157.901 176.9 157.701 176.8C157.501 176.7 157.401 176.6 157.201 176.5C157.101 176.4 157.001 176.2 156.901 176C156.801 175.8 156.801 175.6 156.801 175.4C156.801 175.2 156.801 175 156.901 174.8C157.001 174.6 157.101 174.4 157.201 174.3C157.301 174.2 157.501 174 157.701 174C157.901 173.9 158.101 173.9 158.301 173.9C158.501 173.9 158.701 173.9 158.901 174C159.101 174.1 159.201 174.2 159.401 174.3C159.501 174.4 159.601 174.6 159.701 174.8C159.701 174.9 159.701 175.1 159.701 175.3ZM164.101 175.3C164.101 175.9 163.701 176.4 163.101 176.5C162.801 176.6 162.601 176.6 162.301 176.5C162.001 176.4 161.801 176.3 161.601 176.1C161.201 175.7 161.101 175.1 161.401 174.6C161.501 174.3 161.701 174.1 161.901 174C162.101 173.9 162.401 173.8 162.701 173.8C163.101 173.8 163.401 174 163.701 174.3C164.001 174.6 164.101 174.9 164.101 175.3ZM168.501 175.3C168.501 175.6 168.401 175.8 168.201 176.1C168.001 176.3 167.801 176.5 167.501 176.6C167.201 176.7 167.001 176.7 166.701 176.6C166.401 176.5 166.201 176.4 166.001 176.2C165.801 176 165.701 175.7 165.601 175.5C165.601 175.2 165.601 174.9 165.701 174.7C165.801 174.4 166.001 174.2 166.201 174.1C166.401 174 166.701 173.9 167.001 173.9C167.401 173.9 167.701 174.1 168.001 174.4C168.401 174.6 168.501 175 168.501 175.3ZM172.901 175.4C172.901 175.7 172.801 175.9 172.601 176.2C172.401 176.4 172.201 176.6 171.901 176.7C171.601 176.8 171.401 176.8 171.101 176.7C170.801 176.6 170.601 176.5 170.401 176.3C170.201 176.1 170.101 175.8 170.001 175.6C170.001 175.3 170.001 175 170.101 174.8C170.201 174.5 170.401 174.3 170.601 174.2C170.801 174.1 171.101 174 171.401 174C171.801 174 172.101 174.2 172.401 174.5C172.801 174.6 172.901 175 172.901 175.4ZM177.301 175.4C177.301 175.7 177.201 175.9 177.001 176.2C176.801 176.4 176.601 176.6 176.301 176.7C176.001 176.8 175.801 176.8 175.501 176.7C175.201 176.6 175.001 176.5 174.801 176.3C174.601 176.1 174.501 175.8 174.401 175.6C174.301 174.8 174.801 174.1 175.501 174C175.601 174 175.701 174 175.801 174C176.201 174 176.601 174.2 176.801 174.5C177.101 174.6 177.301 175 177.301 175.4ZM181.701 175.4C181.701 175.6 181.701 175.8 181.601 176C181.501 176.2 181.401 176.4 181.301 176.5C181.201 176.6 181.001 176.8 180.801 176.8C180.601 176.9 180.401 176.9 180.201 176.9C180.001 176.9 179.801 176.9 179.601 176.8C179.401 176.7 179.301 176.6 179.101 176.5C179.001 176.4 178.901 176.2 178.801 176C178.701 175.8 178.701 175.6 178.701 175.4C178.701 175.2 178.701 175 178.801 174.8C178.901 174.6 179.001 174.4 179.101 174.3C179.201 174.2 179.401 174 179.601 174C179.801 173.9 180.001 173.9 180.201 173.9C180.401 173.9 180.601 173.9 180.801 174C181.001 174.1 181.101 174.2 181.301 174.3C181.401 174.4 181.501 174.6 181.601 174.8C181.601 175 181.701 175.2 181.701 175.4ZM186.001 175.4C186.001 175.7 185.901 175.9 185.701 176.2C185.401 176.6 184.801 176.9 184.201 176.7C183.901 176.6 183.701 176.5 183.501 176.3C183.301 176.1 183.201 175.8 183.101 175.6C183.101 175.3 183.101 175 183.201 174.8C183.301 174.5 183.501 174.3 183.701 174.2C183.901 174 184.201 174 184.501 174C184.901 174 185.301 174.2 185.501 174.5C185.901 174.7 186.101 175 186.001 175.4ZM190.401 175.4C190.401 175.7 190.301 175.9 190.101 176.2C189.901 176.5 189.701 176.6 189.401 176.7C189.101 176.8 188.901 176.8 188.601 176.7C188.301 176.6 188.101 176.5 187.901 176.3C187.701 176.1 187.601 175.8 187.501 175.6C187.501 175.3 187.501 175 187.601 174.8C187.701 174.5 187.901 174.3 188.101 174.2C188.301 174.1 188.601 174 188.901 174C189.301 174 189.601 174.2 189.901 174.5C190.301 174.7 190.401 175.1 190.401 175.4Z" fill="#A237EE"/>
<path d="M186.599 66.2C187.099 66 187.499 65.6 187.799 65.2C188.099 64.8 188.199 64.2 188.199 63.7C188.199 63.4 188.199 63 187.999 62.7C187.899 62.4 187.699 62.1 187.499 61.8C187.299 61.6 186.999 61.4 186.699 61.2C186.399 61.1 186.099 61 185.699 61C184.999 61 184.399 61.3 183.899 61.8C183.699 62 183.499 62.3 183.399 62.7C183.299 63 183.199 63.4 183.199 63.7C183.199 64.2 183.299 64.7 183.599 65.2C183.899 65.6 184.299 66 184.799 66.2C180.899 66.8 181.099 71 181.099 71H190.199C190.199 71 190.399 66.8 186.599 66.2Z" fill="#FD5631"/>
<path d="M186.599 66.2C187.099 66 187.499 65.6 187.799 65.2C188.099 64.8 188.199 64.2 188.199 63.7C188.199 63.4 188.199 63 187.999 62.7C187.899 62.4 187.699 62.1 187.499 61.8C187.299 61.6 186.999 61.4 186.699 61.2C186.399 61.1 186.099 61 185.699 61C184.999 61 184.399 61.3 183.899 61.8C183.699 62 183.499 62.3 183.399 62.7C183.299 63 183.199 63.4 183.199 63.7C183.199 64.2 183.299 64.7 183.599 65.2C183.899 65.6 184.299 66 184.799 66.2C180.899 66.8 181.099 71 181.099 71H190.199C190.199 71 190.399 66.8 186.599 66.2Z" fill="#A237EE"/>
<path d="M201.4 73.7001L168.9 73.6001V77.5001L201.4 77.6001V73.7001Z" fill="#A237EE"/>
<path d="M88.8992 286.4V280.5L78.2992 280.4L78.1992 289.3H78.8992C81.7992 289.5 93.6992 289.8 95.6992 289.2C97.8992 288.5 88.8992 286.4 88.8992 286.4Z" fill="#A237EE"/>
<path d="M96.0004 288.6C96.0004 288.7 92.1004 288.8 87.2004 288.8C82.3004 288.8 78.4004 288.7 78.4004 288.6C78.4004 288.5 82.3004 288.4 87.2004 288.4L96.0004 288.6ZM89.1004 287.6C89.0004 287.6 89.1004 287.2 89.3004 286.9C89.5004 286.6 89.8004 286.4 89.9004 286.5C90.0004 286.6 89.8004 286.8 89.6004 287.1C89.4004 287.4 89.2004 287.6 89.1004 287.6Z" fill="white"/>
<path d="M89.7999 288C89.6999 288 89.7999 287.6 89.9999 287.2C90.1999 286.8 90.4998 286.6 90.5998 286.7C90.6998 286.8 90.5999 287.1 90.3999 287.4C90.1999 287.7 89.8999 288 89.7999 288ZM81.4999 288.6C81.4999 288.6 81.2998 288.5 81.0998 288.2C80.7998 287.9 80.4998 287.6 80.1998 287.3C79.8998 287 79.4998 286.9 79.0998 286.8C78.7998 286.8 78.5999 286.8 78.4999 286.8C78.3999 286.8 78.6998 286.6 79.0998 286.6C79.5998 286.6 80.0999 286.8 80.4999 287.1C80.8999 287.4 81.1999 287.8 81.3999 288.2C81.4999 288.4 81.5999 288.6 81.4999 288.6ZM89.1998 286.5C89.1998 286.6 89.0999 286.8 88.7999 286.9C88.4999 287 88.1998 287 88.1998 286.9C88.1998 286.8 88.3998 286.7 88.6998 286.6C88.9998 286.5 89.0998 286.4 89.1998 286.5ZM88.9999 285.9C88.9999 286 88.6999 286.1 88.3999 286.1C88.0999 286.1 87.7999 286 87.7999 285.9C87.7999 285.8 88.0999 285.7 88.3999 285.7C88.6999 285.7 88.9999 285.8 88.9999 285.9Z" fill="white"/>
<path d="M114.899 286.4V280.5L104.299 280.4L104.199 289.2H104.899C107.799 289.4 119.699 289.8 121.699 289.1C123.899 288.5 114.899 286.4 114.899 286.4Z" fill="#A237EE"/>
<path d="M121.901 288.7C121.901 288.8 118.001 288.9 113.101 288.9C108.201 288.9 104.301 288.8 104.301 288.7C104.301 288.6 108.201 288.5 113.101 288.5L121.901 288.7ZM115.101 287.6C115.001 287.6 115.101 287.2 115.301 286.9C115.501 286.6 115.801 286.4 115.901 286.5C116.001 286.6 115.801 286.8 115.601 287.1C115.401 287.4 115.201 287.6 115.101 287.6Z" fill="white"/>
<path d="M115.8 288C115.7 288 115.8 287.6 116 287.2C116.2 286.8 116.5 286.6 116.6 286.7C116.7 286.8 116.5 287.1 116.4 287.4C116.3 287.7 115.9 288 115.8 288ZM107.5 288.6C107.5 288.6 107.3 288.5 107.1 288.2C106.8 287.9 106.5 287.6 106.2 287.3C105.9 287 105.5 286.9 105.1 286.8C104.8 286.8 104.6 286.8 104.5 286.8C104.4 286.8 104.7 286.6 105.1 286.6C105.6 286.6 106.1 286.8 106.5 287.1C106.9 287.4 107.2 287.8 107.4 288.2C107.5 288.4 107.5 288.6 107.5 288.6ZM115.1 286.5C115.1 286.6 115 286.8 114.7 286.9C114.4 287 114.1 287 114.1 286.9C114.1 286.8 114.3 286.7 114.6 286.6C114.9 286.5 115.1 286.4 115.1 286.5ZM115 285.9C115 286 114.7 286.1 114.4 286.1C114.1 286.1 113.8 286 113.8 285.9C113.8 285.8 114.1 285.7 114.4 285.7C114.7 285.7 115 285.8 115 285.9Z" fill="white"/>
<path d="M153.8 111.6C153.5 111.3 152.8 111.5 152.8 111.5C152.9 111.1 152.9 110.7 152.8 110.3C152.7 109.9 151.8 110 151.8 110C151.8 109.7 151.8 109.3 151.8 109C151.8 108.9 151.8 108.9 151.8 108.8C151.8 108.7 151.7 108.7 151.6 108.7C151.2 108.5 150.7 108.5 150.3 108.5C149.8 108.1 151.9 105.1 152.7 104.1C153.5 103.1 153.4 102.4 152.6 102.4C152.1 102.4 149.6 105.3 148.8 106.3C148 107.3 146 110 145.9 107.8C145.8 105.6 145 104 144.4 103.7C143.8 103.4 143.3 104.1 143.6 104.7C143.9 105.4 144 106.1 144.1 106.8C144.2 107.4 144.1 108 144 108.5C143.8 109.6 143.5 110.6 143.1 111.6H143L127.1 127C126.1 127.9 106.6 125.9 102.7 125.5C101.4 125.3 99.9996 125.2 98.6996 125.2C96.9996 125.3 96.6996 125.5 94.9996 125.5C90.6996 125.5 86.4996 125.9 82.1996 126.6C80.2996 126.9 78.4996 127.8 76.9996 129C75.4996 130.3 74.3996 131.9 73.8996 133.8C69.9996 146.2 60.9996 175.4 59.3996 191.7C58.1996 193.9 57.0996 196.1 56.1996 198.4C55.0996 201.4 55.3996 201.5 55.6996 201.6C56.6996 201.8 57.7996 196.4 58.2996 197.7C58.7996 199 56.0996 204.1 57.1996 204.3C58.5996 204.5 59.6996 198.8 59.7996 198.3C59.8996 197.8 60.5996 198 60.4996 198.4C60.2996 199 58.3996 205.4 59.6996 205.6C60.3996 205.7 60.4996 204.4 60.4996 204.4C60.4996 204.4 61.8996 198.3 62.4996 198.4C63.0996 198.5 62.4996 202.2 62.0996 203.4C61.6996 204.6 62.1996 205.2 62.8996 204.9C63.2996 204.7 64.3996 201 64.6996 199.8C64.9996 198.6 65.6996 195.3 66.6996 197.2C67.6996 199.1 69.0996 200.2 69.6996 200.3C69.7996 200.3 69.9996 200.2 70.0996 200.1C70.2996 199.9 70.3996 199.6 70.2996 199.4C70.2996 199.3 70.1996 199.2 70.0996 199.1C69.5996 198.6 69.0996 198 68.7996 197.4C68.4996 196.9 68.1996 196.4 68.0996 195.8C67.7996 194.7 67.6996 193.5 67.5996 192.3L67.4996 191.6C68.9996 184 73.4996 161.6 79.8996 147.2L82.4996 152.6L83.5996 156.6L76.5996 173.9L106.5 173.5L102 156.3L107.4 138.4C113.3 138.5 128.3 138.8 130.8 137.6C134 136.2 150.3 115.6 150.3 115.6C151.4 114.8 152.4 113.9 153.3 113C153.4 113 154.4 112.2 153.8 111.6Z" fill="#FFBE9D"/>
<path d="M75.3 161.1L80.6 143.5C80.6 143.5 82.8 155.4 82.2 156.9C81.7 158.1 81 159.3 80.3 160.5C75.3 168.1 76 172 76 172L106.5 171.1C106.6 166.8 104 156.9 103.5 155.3C103 153.7 104.7 148.5 104.7 148.5C104.7 148.5 108.1 145 108 143.2C107.9 141.6 107.7 140 107.4 138.4L126 139.1L125.4 126.5L98.7 123.8C97.8 126.4 89.4 125.1 89.4 125.1C80.3 125.4 79.8 127.1 76 130C72.2 132.9 66 158.1 66 158.1L75.3 161.1Z" fill="#A237EE"/>
<path d="M93.4004 158.1C92.9004 158.2 92.3004 158.2 91.8004 158.2C90.8004 158.2 89.4004 158.1 87.9004 158L84.1004 157.4C83.6004 157.3 83.0004 157.2 82.5004 157C83.0004 157 83.6004 157.1 84.1004 157.2L87.9004 157.6L91.7004 157.9C92.3004 158 92.9004 158 93.4004 158.1ZM95.5004 155.5C95.0004 155.8 94.4004 156 93.8004 156.1C91.1004 156.8 88.2004 157.2 85.4004 157.1C84.8004 157.1 84.2004 157.1 83.7004 156.9C84.3004 156.8 84.9004 156.8 85.4004 156.8L89.6004 156.5L93.7004 155.8C94.3004 155.7 94.9004 155.6 95.5004 155.5ZM105.7 143.9C105.7 144.4 105.6 144.9 105.5 145.5L104.7 149.2L103.7 152.8C103.6 153.3 103.4 153.8 103.2 154.3C103.2 153.8 103.3 153.3 103.5 152.8L104.4 149.1L105.3 145.4C105.4 144.9 105.5 144.4 105.7 143.9ZM75.7004 159.4C74.1004 159.2 72.5004 158.8 71.0004 158.3C69.4004 157.9 67.9004 157.4 66.4004 156.9C68.0004 157.1 69.6004 157.5 71.1004 158C72.6004 158.3 74.2004 158.8 75.7004 159.4ZM107.8 138.2C107.5 138.2 107.3 138.2 107 138.2C106.3 138.1 105.6 138 104.9 137.7C103.8 137.3 102.7 136.6 101.9 135.8C101.1 135 100.4 133.9 99.9004 132.8C99.4004 131.6 99.2004 130.2 99.3004 128.9C99.3004 127.8 99.7004 126.7 100.2 125.8C100.6 125.2 101.2 124.7 101.9 124.5C102.1 124.4 102.3 124.4 102.5 124.4H102.7C102.7 124.4 102.4 124.4 101.9 124.6C101.2 124.8 100.7 125.3 100.3 125.9C99.4004 127.4 99.1004 130.1 100.1 132.6C100.6 133.8 101.3 134.8 102.2 135.7C103 136.4 103.8 137 104.8 137.4C105.9 137.8 106.9 138.1 107.8 138.2ZM123.9 138.8C123.7 136.7 123.7 134.6 123.7 132.5C123.6 130.4 123.7 128.3 123.9 126.2C124.1 128.3 124.1 130.4 124.1 132.5C124.1 134.6 124 136.7 123.9 138.8Z" fill="#1F1B2D"/>
<path d="M98.6008 124.6L98.8008 121.3C98.8008 121.3 102.601 120.9 102.801 117C103.001 113.1 102.801 104 102.801 104L95.9008 100.5L88.3008 106.5L89.5008 126.1L96.5008 126.5C97.0008 126.5 97.6008 126.3 97.9008 125.9C98.4008 125.6 98.6008 125.1 98.6008 124.6Z" fill="#FFBE9D"/>
<path d="M99.2996 113.8C99.2996 113.8 99.2996 113.9 99.1996 114C99.0996 114.1 99.0996 114.1 98.9996 114.2C98.8996 114.2 98.7996 114.2 98.7996 114.2C98.3996 114.2 97.8996 113.7 97.7996 113.1C97.6996 112.8 97.6996 112.5 97.7996 112.2C97.7996 112.1 97.8996 112 97.8996 111.9C97.8996 111.8 98.0996 111.7 98.1996 111.7C98.2996 111.7 98.3996 111.7 98.4996 111.7C98.5996 111.7 98.5996 111.8 98.6996 111.9C98.6996 112 98.6996 112.1 98.6996 112.1C98.6996 112.1 98.6996 112 98.5996 112L98.4996 111.9C98.4996 111.9 98.3996 111.9 98.2996 111.9C98.1996 112 98.0996 112 98.0996 112.1C98.0996 112.2 97.9996 112.3 97.9996 112.4C97.8996 112.7 97.8996 112.9 97.9996 113.2C98.0996 113.7 98.4996 114.2 98.7996 114.2C98.8996 114.2 98.8996 114.2 98.9996 114.2C99.0996 114.2 99.0996 114.2 99.1996 114.1C99.1996 113.9 99.2996 113.8 99.2996 113.8Z" fill="#EB996E"/>
<path d="M105.2 101.8C104.7 99.9999 102.8 99.0999 101 98.5999C98.2998 97.7999 95.4998 97.4999 92.8998 98.4999C90.2998 99.4999 87.1998 101.1 87.1998 104C85.6998 103.9 84.7998 105.2 84.1998 106.9C83.7998 107.9 83.5998 109 83.4998 110.1C83.2998 113.9 82.2998 119 79.7998 121.8C78.3998 123.3 76.4998 124.4 75.6998 126.3C74.9998 128 75.3998 129.9 74.6998 131.6C74.0998 133.1 72.8998 134.1 71.8998 135.4C70.9998 136.9 70.3998 138.5 70.2998 140.3C70.1998 142 70.4998 143.8 71.2998 145.3C71.9998 146.8 73.0998 148.2 74.3998 149.3C75.6998 150.4 77.1998 151.3 78.7998 151.8C81.9998 152.8 85.3998 152.8 88.6998 151.9C91.0998 151.3 93.3998 150.2 95.2998 148.6C97.2998 147 98.5998 144.7 99.0998 142.2C99.5998 139.4 98.7998 136.5 98.1998 133.7C96.3998 124.9 96.8998 124.4 99.1998 116.2C99.2998 116.1 99.2998 115.9 99.2998 115.8L99.3998 115.5C99.4998 115.2 99.4998 114.8 99.4998 114.5C99.1998 114.6 98.7998 114.7 98.3998 114.6C97.9998 114.5 97.6998 114.4 97.4998 114.1C96.9998 113.5 96.7998 112.8 96.9998 112C97.1998 111.6 97.3998 111.3 97.6998 111C97.9998 110.7 98.3998 110.5 98.7998 110.4C99.5998 110.1 100.4 109.9 101.1 109.6C102.7 108.8 103.8 107.3 104.5 105.6C105.3 104.4 105.5 103.1 105.2 101.8Z" fill="#1F1B2D"/>
<path d="M99.5996 114C99.6996 114.2 99.8996 114.4 99.9996 114.7L100.8 116.5L100.9 116.6H100.8L100.1 116.7C99.5996 116.7 99.1996 116.8 98.7996 116.8C98.7996 116.8 98.6996 116.8 98.6996 116.7L98.5996 116.6C98.5996 116.5 98.5996 116.5 98.5996 116.4C98.5996 116.3 98.5996 116.2 98.6996 116.1L98.7996 115.6C98.8996 115.3 98.9996 115 99.0996 114.7C99.0996 115 98.9996 115.4 98.9996 115.7L98.8996 116.2C98.8996 116.4 98.7996 116.6 98.8996 116.6C99.1996 116.6 99.6996 116.5 100.2 116.5L100.9 116.4L100.8 116.6L100.1 114.8C99.6996 114.5 99.5996 114.3 99.5996 114Z" fill="#FD5631"/>
<path d="M75.9997 172L106.5 171.1L119.8 223L117.4 282.5H101.3L103.3 224.3L91.4997 188.2L93.2997 284.8L76.9997 285L75.2997 194.2C75.1997 191.7 74.3997 186 74.6997 183.5C74.5997 183.4 75.9997 172 75.9997 172Z" fill="#1F1B2D"/>
<path d="M95.5008 188.8C95.0008 188.8 94.5008 188.8 94.0008 188.7L90.4008 188.1L86.9008 187.3C86.4008 187.2 86.0008 187 85.5008 186.8C85.5008 186.7 87.7008 187.2 90.5008 187.8L95.5008 188.8ZM117.201 279.1C117.201 279.2 113.501 279.3 109.001 279.3C104.501 279.3 100.801 279.2 100.801 279.1C100.801 279 104.501 278.9 109.001 278.9L117.201 279.1ZM93.1008 282.2C93.1008 282.3 89.5008 282.4 85.2008 282.4C80.9008 282.4 77.3008 282.3 77.3008 282.2C77.3008 282.1 80.9008 282 85.2008 282L93.1008 282.2Z" fill="#666276"/>
<path d="M91.0004 281.9C90.9004 281.9 90.5004 260.8 90.0004 234.7L89.4004 187.5C89.5004 187.5 89.9004 208.6 90.4004 234.7L91.0004 281.9ZM115 279.1C115 279 115 278.9 115 278.8V278L115.1 274.8L115.5 263.1L117 224.7V224.3L107.7 187.2L104.9 176L104.2 172.9L104 172.1C104 172 104 171.9 104 171.8C104 171.9 104.1 172 104.1 172.1L104.3 172.9L105.1 175.9L108 187.1L117.4 224.2V224.6L115.8 263L115.3 274.6L115.1 277.8C115.1 278.2 115.1 278.4 115.1 278.6C115.1 278.9 115.1 279 115 279.1ZM109.8 223.1C108.6 223.5 107.4 223.7 106.2 223.9L102.9 224.4V224.3C103.1 224.4 103.2 224.4 103.2 224.4C103.2 224.4 103.1 224.4 102.9 224.4H102.5L102.9 224.3C103.4 224.1 104.7 223.9 106.2 223.6C107.3 223.3 108.5 223.2 109.8 223.1ZM109.5 225.1C108.4 225.1 107.4 225.1 106.3 225C105.2 225 104.2 224.9 103.1 224.6C105.2 224.4 107.4 224.6 109.5 225.1Z" fill="#666276"/>
<path opacity="0.2" d="M75.9004 173.1C76.3004 173.6 76.7004 173.9 77.2004 174.2C77.7004 174.5 78.3004 174.6 78.9004 174.7C80.1004 174.8 81.4004 174.8 82.6004 174.6C90.5004 173.7 98.8004 172.9 106.5 171C96.5004 171.6 86.0004 171.4 76.0004 171.9L75.9004 172.8" fill="black"/>
<path opacity="0.04" d="M86.2012 187.1L91.8012 209L91.4012 188.1L86.2012 187.1Z" fill="black"/>
</svg>
