<svg width="344" height="292" viewBox="0 0 344 292" fill="none" xmlns="http://www.w3.org/2000/svg">
<path opacity="0.2" d="M319.002 195.396H206.215V130.108H319.002V195.396ZM206.904 194.708H318.314V130.797H206.904V194.708Z" fill="white"/>
<path opacity="0.4" d="M295.731 164.919H221.318V167.102H295.731V164.919ZM300.858 173.058H221.318V175.44H300.858V173.058ZM300.858 181.289H221.318V183.67H300.858V181.289Z" fill="white"/>
<path opacity="0.2" d="M247.324 153.102H221.318V158.768H247.324V153.102Z" fill="white"/>
<path opacity="0.12" d="M318.653 130.454H206.576V140.848H318.653V130.454Z" fill="white"/>
<path d="M307.676 139.296C307.531 139.158 308.976 137.416 310.896 135.406C312.816 133.396 314.502 131.875 314.64 132.005C314.778 132.135 313.339 133.885 311.419 135.902C309.499 137.919 307.813 139.433 307.676 139.296Z" fill="white"/>
<path d="M314.657 139.292C314.519 139.43 312.84 137.915 310.913 135.898C308.986 133.881 307.548 132.14 307.692 132.002C307.836 131.864 309.509 133.379 311.436 135.403C313.363 137.427 314.787 139.154 314.657 139.292Z" fill="white"/>
<path opacity="0.04" d="M180.217 1.16406H68.1387V65.7701H180.217V1.16406Z" fill="white"/>
<path opacity="0.6" d="M157.298 35.6419H82.8848V37.8239H157.298V35.6419ZM162.425 43.7759H82.8848V46.1579H162.425V43.7759ZM162.425 52.0109H82.8848V54.3929H162.425V52.0109ZM108.891 23.8159H82.8848V29.4819H108.891V23.8159Z" fill="white"/>
<path opacity="0.12" d="M180.217 1.16406H68.1387V11.5591H180.217V1.16406Z" fill="white"/>
<path d="M171.213 9.9571C171.069 9.8261 172.514 8.0781 174.434 6.0681C176.354 4.0581 178.04 2.5371 178.178 2.6741C178.316 2.8111 176.877 4.5531 174.957 6.5631C173.037 8.5731 171.351 10.0811 171.213 9.9571Z" fill="white"/>
<path d="M178.178 9.95714C178.04 10.0951 176.361 8.58014 174.434 6.56314C172.507 4.54614 171.069 2.81114 171.213 2.67414C171.357 2.53714 173.03 4.05114 174.957 6.06814C176.884 8.08514 178.322 9.82714 178.178 9.95714Z" fill="white"/>
<path opacity="0.2" d="M137.767 121.183H25.002V55.8892H137.767V121.183ZM25.69 120.495H137.079V56.5772H25.69V120.495Z" fill="white"/>
<path opacity="0.5" d="M114.508 90.7042H40.0938V92.8862H114.508V90.7042ZM66.1007 78.8872H40.0938V84.5532H66.0998L66.1007 78.8872Z" fill="white"/>
<path opacity="0.12" d="M137.423 56.23H25.3457V66.625H137.423V56.23ZM267.908 136.138H135.57V254.653H267.908V136.138Z" fill="white"/>
<path opacity="0.04" d="M142.229 98.8052H38.5605V206.547H142.229V98.8052Z" fill="white"/>
<path opacity="0.12" d="M142.229 98.8052H38.5605V110.542H142.229V98.8052Z" fill="white"/>
<path d="M47.118 104.555C47.0986 104.981 46.955 105.391 46.705 105.736C46.455 106.081 46.1094 106.345 45.711 106.495C45.3124 106.645 44.8783 106.675 44.463 106.58C44.048 106.486 43.669 106.271 43.375 105.964C43.0808 105.656 42.8833 105.269 42.8069 104.85C42.7304 104.431 42.7785 103.998 42.945 103.606C43.1116 103.214 43.3899 102.879 43.7454 102.644C44.1009 102.409 44.5178 102.284 44.944 102.284C45.533 102.298 46.092 102.545 46.5 102.971C46.9075 103.397 47.129 103.966 47.118 104.555ZM55.949 104.555C55.9318 104.983 55.789 105.396 55.5384 105.743C55.2878 106.09 54.9406 106.356 54.54 106.507C54.14 106.659 53.7041 106.689 53.287 106.594C52.8697 106.5 52.4894 106.285 52.1935 105.976C51.8976 105.667 51.6992 105.277 51.623 104.856C51.547 104.435 51.596 104.001 51.764 103.607C51.9322 103.214 52.2125 102.878 52.5699 102.643C52.9273 102.408 53.3461 102.283 53.774 102.284C54.363 102.298 54.922 102.545 55.33 102.971C55.7375 103.397 55.96 103.966 55.949 104.555ZM64.781 104.555C64.7638 104.983 64.6212 105.396 64.3708 105.743C64.1204 106.09 63.7734 106.356 63.373 106.507C62.973 106.659 62.5371 106.689 62.12 106.594C61.8078 106.524 61.515 106.385 61.2623 106.189C61.0096 105.993 60.8032 105.743 60.6579 105.458C60.5125 105.173 60.4317 104.859 60.4212 104.539C60.4106 104.219 60.4707 103.901 60.597 103.607C60.765 103.213 61.046 102.878 61.403 102.643C61.7604 102.408 62.1791 102.283 62.607 102.284C63.196 102.298 63.755 102.545 64.163 102.971C64.5705 103.397 64.792 103.966 64.781 104.555Z" fill="white"/>
<path opacity="0.04" d="M304.199 24.7271H171.861V156.666H304.199V24.7271Z" fill="white"/>
<path opacity="0.12" d="M304.199 24.7271H171.861V40.1821H304.199V24.7271Z" fill="white"/>
<path opacity="0.7" d="M183.129 32.2992C183.105 32.8612 182.916 33.4032 182.587 33.8592C182.258 34.3146 181.801 34.6631 181.275 34.8615C180.749 35.0599 180.177 35.0994 179.628 34.9752C179.079 34.8512 178.58 34.5682 178.191 34.1622C177.802 33.7564 177.541 33.2453 177.439 32.6922C177.338 32.1392 177.402 31.5682 177.622 31.0512C177.843 30.5339 178.21 30.0927 178.679 29.7825C179.148 29.4723 179.698 29.3066 180.26 29.3062C181.037 29.3248 181.775 29.6502 182.313 30.2112C182.85 30.7722 183.144 31.5223 183.129 32.2992ZM193.918 30.2742C194.299 30.6889 194.55 31.2063 194.64 31.7622C194.73 32.3185 194.654 32.8889 194.422 33.4022C194.19 33.9156 193.811 34.3493 193.334 34.6492C192.858 34.9488 192.303 35.1015 191.74 35.0884C191.177 35.0752 190.631 34.8967 190.168 34.5752C189.705 34.2532 189.348 33.8032 189.14 33.2792C188.932 32.7552 188.882 32.1822 188.998 31.6312C189.114 31.0802 189.388 30.5742 189.789 30.1782C190.35 29.6442 191.099 29.3547 191.873 29.3732C192.647 29.3918 193.383 29.7151 193.918 30.2742ZM206.379 32.2992C206.361 32.7192 206.251 33.1302 206.057 33.503C205.863 33.8758 205.589 34.2014 205.255 34.4567C204.92 34.7119 204.534 34.8907 204.124 34.9803C203.713 35.0699 203.287 35.0681 202.877 34.9752C202.329 34.8507 201.829 34.5678 201.44 34.1618C201.051 33.7557 200.79 33.2444 200.689 32.6912C200.588 32.1382 200.651 31.5672 200.872 31.0502C201.093 30.533 201.46 30.092 201.929 29.7818C202.398 29.4715 202.947 29.3058 203.509 29.3052C204.286 29.3235 205.024 29.6488 205.562 30.2099C206.1 30.7709 206.394 31.5221 206.379 32.2992ZM275.606 289.658C275.606 289.754 227.818 289.837 168.889 289.837C109.96 289.837 62.1523 289.754 62.1523 289.658C62.1523 289.562 109.932 289.479 168.889 289.479L275.606 289.658Z" fill="white"/>
<path d="M229.047 205.383C218.414 197.955 216.006 184.167 216.426 171.768C216.494 169.703 216.267 167.514 217.251 165.704C218.235 163.894 220.534 162.647 222.385 163.515C223.92 164.237 224.587 166.027 225.448 167.507C226.595 169.478 228.277 171.085 230.299 172.14C231.614 172.829 233.245 173.242 234.545 172.526C236.335 171.541 236.541 169.084 236.527 167.018L236.459 155.508C236.335 153.451 236.544 151.386 237.078 149.395C237.718 147.44 239.143 145.63 241.09 145.079C243.037 144.528 245.467 145.664 245.907 147.674C245.983 148.526 246.004 149.381 245.969 150.235C246.024 151.096 246.424 152.039 247.229 152.3C248.034 152.561 248.873 151.963 249.493 151.357C251.612 149.292 253.058 146.601 254.4 143.943C255.742 141.285 257.056 138.553 258.983 136.288C260.91 134.023 263.573 132.227 266.553 132.055C269.533 131.883 272.636 133.714 273.38 136.605C274.124 139.496 272.437 142.449 270.627 144.797C267.896 148.281 264.676 151.353 261.068 153.918C260.364 154.303 259.802 154.904 259.465 155.632C259.017 157.009 260.318 158.386 261.674 158.82C263.208 159.329 264.874 159.171 266.491 159.363C268.108 159.555 269.829 160.258 270.441 161.773C271.281 163.879 269.519 166.082 267.792 167.528C264.323 170.419 260.385 172.694 256.148 174.254C254.634 174.804 253.044 175.293 251.819 176.353C250.594 177.413 249.864 179.265 250.601 180.718C251.338 182.171 253.23 182.631 254.819 182.335C256.408 182.039 257.82 181.186 259.334 180.614C262.162 179.547 265.81 179.74 267.592 182.184C268.144 183.026 268.493 183.984 268.613 184.984C268.733 185.984 268.619 186.998 268.28 187.946C267.591 189.833 266.531 191.563 265.163 193.033C260.655 198.42 254.799 202.513 248.192 204.894C241.634 207.166 235.557 207.786 229.04 205.397" fill="#A237EE"/>
<path d="M270.352 133.758C270.352 133.758 270.29 133.827 270.152 133.951L269.54 134.495L267.214 136.608C264.384 139.236 261.757 142.073 259.355 145.096C257.82 147.003 256.23 149.165 254.537 151.512C252.844 153.859 251.096 156.393 249.362 159.085C247.513 161.923 245.82 164.86 244.29 167.882C243.492 169.459 242.79 171.104 242.067 172.784L239.934 177.912C237.122 184.372 234.673 190.984 232.598 197.718C230.927 203.227 229.775 208.88 229.157 214.604C228.757 218.467 228.692 222.357 228.964 226.231C229.075 227.608 229.178 228.661 229.274 229.377L229.37 230.196V230.479C229.341 230.389 229.321 230.297 229.309 230.203L229.178 229.391C229.054 228.703 228.923 227.615 228.799 226.238C228.467 222.357 228.49 218.454 228.868 214.577C229.447 208.828 230.574 203.148 232.233 197.614C234.291 190.862 236.734 184.233 239.549 177.761L241.737 172.653C242.46 170.98 243.169 169.321 243.974 167.738C245.514 164.706 247.221 161.762 249.087 158.919C250.849 156.166 252.624 153.674 254.296 151.347C255.968 149.02 257.586 146.845 259.114 144.945C261.541 141.93 264.203 139.112 267.076 136.519C268.095 135.603 268.907 134.915 269.457 134.454L270.097 133.937C270.176 133.869 270.262 133.809 270.352 133.758Z" fill="white"/>
<path d="M244.064 167.718C243.967 167.434 243.9 167.141 243.865 166.843L243.486 164.42L242.564 156.393L241.573 148.38L241.181 145.971C241.106 145.678 241.066 145.378 241.064 145.076C241.182 145.352 241.268 145.641 241.319 145.937C241.47 146.501 241.642 147.313 241.835 148.339C242.227 150.404 242.612 153.213 242.936 156.352L243.748 164.386L244.009 166.823C244.063 167.118 244.081 167.418 244.064 167.718ZM270.547 162.778C270.212 162.851 269.871 162.892 269.528 162.901L266.652 163.184L257.244 164.616L247.947 166.681L245.194 167.445C244.86 167.564 244.514 167.647 244.162 167.693C244.48 167.533 244.812 167.401 245.153 167.3L247.906 166.419C250.252 165.731 253.535 164.912 257.203 164.209C260.31 163.615 263.446 163.179 266.597 162.901L269.487 162.743C269.841 162.719 270.196 162.731 270.547 162.778ZM232.568 197.131C232.495 197.031 232.435 196.922 232.389 196.807L231.935 195.85L230.38 192.277C229.1 189.248 227.469 185.008 225.735 180.299L221.193 168.287L219.747 164.672L219.362 163.688C219.309 163.574 219.272 163.454 219.252 163.33C219.325 163.43 219.385 163.539 219.431 163.654L219.885 164.611C220.27 165.443 220.807 166.676 221.44 168.183C222.72 171.212 224.351 175.453 226.086 180.161L230.628 192.174L232.066 195.788C232.224 196.181 232.355 196.477 232.458 196.773C232.512 196.886 232.549 197.007 232.568 197.131Z" fill="white"/>
<path d="M267.721 185.792C267.611 185.855 267.493 185.903 267.37 185.936L266.352 186.28L262.588 187.499L250.201 191.629L237.772 195.663L233.973 196.772L232.934 197.04C232.813 197.078 232.689 197.104 232.562 197.116C232.672 197.052 232.79 197.004 232.913 196.971L233.932 196.627L237.697 195.409L250.083 191.278L262.506 187.244L266.311 186.136L267.351 185.867C267.471 185.828 267.595 185.803 267.721 185.792Z" fill="white"/>
<path d="M253.381 18.805L249.836 20.072L248.315 15.439C245.521 6.89598 236.616 2.35898 228.434 5.24398C220.252 8.12898 215.895 17.498 218.689 26.041L220.21 30.674L216.652 31.948C215.295 32.4748 214.194 33.5041 213.576 34.822C212.958 36.1399 212.872 37.6451 213.335 39.025L223.197 69.17C223.402 69.853 223.741 70.488 224.196 71.037C224.651 71.586 225.212 72.038 225.845 72.366C226.478 72.6941 227.17 72.8917 227.881 72.947C228.592 73.002 229.306 72.914 229.982 72.687L266.711 59.546C268.085 59.02 269.203 57.982 269.828 56.65C270.453 55.318 270.537 53.794 270.062 52.401L260.194 22.256C259.984 21.575 259.638 20.943 259.179 20.398C258.72 19.853 258.155 19.4061 257.519 19.084C256.883 18.762 256.189 18.572 255.478 18.524C254.767 18.476 254.054 18.573 253.381 18.807V18.805ZM225.385 23.624C224.632 21.4026 224.767 18.9757 225.763 16.852C226.758 14.728 228.537 13.072 230.726 12.231C231.807 11.8611 232.951 11.7128 234.09 11.795C235.23 11.877 236.341 12.188 237.357 12.709C238.374 13.2299 239.276 13.9506 240.008 14.828C240.74 15.705 241.288 16.721 241.619 17.814L243.133 22.447L226.899 28.257L225.385 23.624ZM246.031 50.375L248.549 58.071C248.596 58.225 248.581 58.392 248.508 58.535C248.435 58.678 248.309 58.789 248.157 58.842L244.627 60.102C244.486 60.141 244.336 60.124 244.208 60.055C244.08 59.986 243.983 59.869 243.939 59.73L241.399 52.068C239.999 51.9917 238.655 51.4892 237.548 50.628C236.441 49.7667 235.624 48.5877 235.206 47.249C234.607 45.479 234.716 43.546 235.51 41.855C236.304 40.164 237.722 38.845 239.465 38.176C240.326 37.8819 241.238 37.7641 242.146 37.8297C243.053 37.8954 243.938 38.143 244.748 38.558C245.558 38.973 246.276 39.547 246.859 40.245C247.442 40.9434 247.879 41.7522 248.143 42.623C248.586 43.983 248.623 45.443 248.249 46.823C247.875 48.203 247.106 49.445 246.038 50.395L246.031 50.375Z" fill="#A237EE"/>
<path d="M249.68 19.9912C249.68 20.0872 243.108 22.5592 234.932 25.4982L220.053 30.7302C220.019 30.6612 226.626 28.1692 234.808 25.2232L249.68 19.9912ZM257.485 21.2582C257.516 21.3182 257.541 21.3802 257.561 21.4442L257.761 21.9812L258.497 24.0462L261.14 31.7422L265.014 43.1692L267.271 49.9292C267.676 51.1462 267.851 52.4272 267.787 53.7082C267.729 54.3744 267.54 55.0226 267.23 55.6152C266.899 56.2062 266.458 56.7272 265.929 57.1502C264.866 57.9266 263.686 58.5285 262.433 58.9332L258.889 60.2072L252.179 62.6092L240.817 66.6572L233.144 69.3562L231.08 70.0442L230.529 70.2232C230.47 70.2492 230.407 70.2662 230.343 70.2712C230.343 70.2712 230.398 70.2712 230.515 70.1882L231.052 69.9752L233.117 69.1972L240.749 66.3882L252.09 62.2582L258.786 59.8352L262.33 58.5552C263.547 58.1669 264.693 57.5832 265.723 56.8272C266.214 56.4342 266.626 55.9502 266.934 55.4022C267.225 54.8542 267.401 54.2522 267.45 53.6332C267.513 52.399 267.346 51.1637 266.955 49.9912L264.718 43.2312L260.919 31.7832L258.387 24.0522L257.699 21.9392L257.533 21.3882C257.513 21.3461 257.497 21.3033 257.485 21.2582Z" fill="white"/>
<path d="M238.106 11.7652L237.067 11.3112C236.105 10.9421 235.088 10.7372 234.059 10.7052C232.533 10.6534 231.015 10.9402 229.614 11.5452C227.909 12.2992 226.452 13.5182 225.409 15.0632C224.359 16.6037 223.795 18.4239 223.792 20.2882C223.806 21.8162 224.038 23.3345 224.48 24.7972L225.457 27.7432C225.603 28.0962 225.723 28.4602 225.815 28.8312C225.62 28.501 225.456 28.1531 225.326 27.7922L224.239 24.8662C223.749 23.3882 223.482 21.8452 223.448 20.2882C223.429 18.3534 224.005 16.4596 225.099 14.8632C226.179 13.2622 227.696 12.0052 229.469 11.2422C230.914 10.6335 232.48 10.3649 234.046 10.4572C235.097 10.5109 236.13 10.7559 237.094 11.1802C237.352 11.299 237.6 11.4371 237.838 11.5932C237.935 11.6364 238.026 11.6944 238.106 11.7652ZM238.425 38.6982C238.535 38.6317 238.65 38.5742 238.769 38.5262C239.113 38.3707 239.47 38.2439 239.836 38.1472C240.416 37.9759 241.014 37.8742 241.619 37.8442C242.44 37.8001 243.262 37.9243 244.034 38.2092C245.796 38.8292 247.413 40.6252 248.211 43.0282C248.594 44.3174 248.594 45.69 248.211 46.9792C247.787 48.3788 247.026 49.6531 245.995 50.6902L246.037 50.5042L248.982 58.5862L249.044 58.7582L248.872 58.8202L247.296 59.3432L243.855 60.4932L243.683 60.5482L243.628 60.3762L240.875 52.2602L241.027 52.3772C239.681 52.2654 238.398 51.76 237.338 50.9242C236.378 50.1847 235.592 49.2449 235.033 48.1702C234.528 47.2172 234.276 46.1504 234.303 45.0722C234.335 43.9702 234.61 42.8892 235.109 41.9062C235.607 40.9232 236.317 40.0626 237.187 39.3862C237.545 39.0957 237.946 38.8635 238.377 38.6982C237.988 38.9287 237.612 39.179 237.249 39.4482C236.293 40.257 235.561 41.2975 235.122 42.4702C234.746 43.3546 234.57 44.3112 234.607 45.2715C234.643 46.2319 234.892 47.1722 235.335 48.0252C235.885 49.0592 236.653 49.9612 237.586 50.6692C238.598 51.4632 239.821 51.9422 241.102 52.0462H241.219L241.254 52.1492L244.007 60.2522L243.779 60.1422L247.22 58.9922L248.789 58.4622L248.679 58.6962L245.755 50.6072V50.5042L245.837 50.4212C246.838 49.4272 247.584 48.2062 248.012 46.8622C248.377 45.629 248.377 44.3164 248.012 43.0832C247.262 40.7702 245.713 39.0152 244.034 38.3952C243.29 38.1086 242.497 37.9753 241.701 38.0032C241.106 38.0169 240.515 38.0977 239.939 38.2442L238.425 38.6982Z" fill="white"/>
<path opacity="0.8" d="M217.145 237.468L148.403 237.151C144.433 237.129 140.633 235.531 137.84 232.71C135.047 229.889 133.487 226.074 133.504 222.102L134.233 49.7198C134.241 47.7528 134.637 45.8058 135.397 43.9918C136.157 42.1778 137.269 40.5308 138.666 39.1458C140.063 37.7608 141.719 36.6658 143.54 35.9208C145.361 35.1766 147.31 34.7987 149.277 34.8088L218.012 35.1258C221.982 35.1459 225.782 36.7414 228.577 39.5618C231.372 42.3826 232.933 46.197 232.918 50.1678L232.189 222.544C232.181 224.512 231.785 226.459 231.025 228.274C230.265 230.089 229.154 231.737 227.757 233.123C226.36 234.509 224.704 235.606 222.883 236.352C221.062 237.097 219.112 237.476 217.145 237.468Z" fill="#1F1B2D"/>
<path d="M217.913 41.053H204.59C204.155 41.061 203.726 41.155 203.327 41.329C202.928 41.503 202.569 41.754 202.267 42.067C201.965 42.3803 201.728 42.75 201.569 43.155C201.411 43.5601 201.333 43.9922 201.341 44.427V46.843C201.35 47.2776 201.272 47.7096 201.113 48.114C200.954 48.518 200.717 48.888 200.415 49.2C200.114 49.5127 199.753 49.7628 199.355 49.936C198.956 50.109 198.528 50.202 198.093 50.209L172.121 50.092C171.242 50.069 170.409 49.697 169.804 49.06C169.199 48.423 168.871 47.571 168.894 46.692V44.276C168.916 43.398 168.589 42.548 167.986 41.91C167.382 41.2728 166.551 40.9006 165.673 40.875H160.986L149.322 40.82C146.547 40.803 143.879 41.887 141.902 43.834C139.925 45.781 138.799 48.432 138.772 51.208L138.084 219.467C138.077 220.844 138.342 222.209 138.863 223.483C139.384 224.758 140.151 225.917 141.119 226.895C142.087 227.873 143.24 228.651 144.509 229.183C145.778 229.715 147.14 229.994 148.516 230L217.114 230.317C218.492 230.324 219.857 230.059 221.132 229.537C222.407 229.016 223.567 228.248 224.545 227.278C225.523 226.308 226.301 225.155 226.834 223.885C227.367 222.614 227.644 221.251 227.651 219.873L228.339 51.615C228.355 48.832 227.266 46.156 225.311 44.176C223.356 42.196 220.695 41.073 217.913 41.055V41.053Z" fill="white"/>
<path d="M165.494 100.397L147.794 100.316L147.779 103.566L165.479 103.646L165.494 100.397Z" fill="#A237EE"/>
<path d="M217.377 120.344C217.516 120.33 217.652 120.297 217.783 120.247C217.974 120.173 218.139 120.046 218.261 119.882C218.383 119.718 218.455 119.522 218.471 119.318V114.575V111.133V110.176C218.516 109.862 218.448 109.542 218.279 109.274C218.184 109.146 218.06 109.041 217.919 108.968C217.776 108.895 217.619 108.856 217.46 108.854H216.386H206.442L148.882 108.641C148.735 108.638 148.589 108.671 148.458 108.737C148.327 108.803 148.212 108.9 148.125 109.019C147.959 109.289 147.896 109.609 147.947 109.921V111.986V116.117V118.182C147.918 118.503 147.918 118.825 147.947 119.146C147.983 119.283 148.05 119.411 148.143 119.518C148.236 119.625 148.352 119.71 148.483 119.765C148.614 119.82 148.764 119.845 148.91 119.841H152.413L167.697 119.924L193.573 120.082L211.018 120.22L215.76 120.275H211.018H193.573L167.697 120.192L152.413 120.13H148.91C148.717 120.138 148.525 120.105 148.346 120.034C148.164 119.957 148.003 119.839 147.875 119.69C147.746 119.54 147.652 119.364 147.602 119.173C147.562 118.992 147.549 118.807 147.561 118.623V118.113V116.048V111.918V109.852C147.548 109.669 147.548 109.485 147.561 109.302C147.587 109.099 147.665 108.907 147.788 108.744C147.911 108.581 148.064 108.443 148.246 108.351C148.427 108.258 148.629 108.211 148.834 108.214L206.394 108.531L216.338 108.599H217.412C217.601 108.6 217.787 108.645 217.955 108.733C218.123 108.82 218.267 108.947 218.375 109.102C218.569 109.401 218.647 109.761 218.595 110.114V111.071V114.513L218.533 119.263C218.516 119.475 218.44 119.678 218.312 119.847C218.183 120.016 218.01 120.146 217.811 120.22C217.68 120.3 217.53 120.343 217.377 120.344Z" fill="#D5D2DC"/>
<path opacity="0.8" d="M185.478 112.096H153.105V115.132H185.478V112.096Z" fill="#A237EE"/>
<path d="M165.37 130.039L147.67 129.959L147.656 133.208L165.356 133.289L165.37 130.039Z" fill="#A237EE"/>
<path d="M216.931 149.994C217.07 149.977 217.207 149.951 217.343 149.918C217.536 149.857 217.713 149.755 217.862 149.62C218.012 149.484 218.131 149.318 218.211 149.133C218.319 148.855 218.361 148.556 218.334 148.259V147.171V144.418V140.046C218.367 139.73 218.297 139.411 218.135 139.138C217.965 138.857 217.698 138.649 217.385 138.553C217.043 138.491 216.693 138.473 216.346 138.498H206.443L149.083 138.284C148.774 138.284 148.476 138.396 148.244 138.6C148.012 138.804 147.863 139.086 147.823 139.392V141.458V145.588V147.653C147.798 147.975 147.812 148.299 147.865 148.617C147.95 148.896 148.127 149.139 148.367 149.305C148.621 149.467 148.92 149.544 149.22 149.526H150.177H152.166L167.395 149.601L193.181 149.76L210.565 149.897L215.293 149.953H210.565H193.181L167.381 149.925L152.152 149.87H149.158C148.786 149.892 148.417 149.793 148.105 149.588C147.792 149.37 147.564 149.052 147.458 148.686C147.397 148.336 147.378 147.98 147.403 147.626V145.561V141.43V139.365C147.454 138.971 147.646 138.61 147.943 138.347C148.241 138.085 148.624 137.94 149.021 137.94L206.381 138.257L216.284 138.332C216.652 138.31 217.023 138.335 217.385 138.408C217.743 138.525 218.044 138.77 218.231 139.096C218.409 139.4 218.486 139.752 218.451 140.102V141.058V144.5V147.254V148.349C218.476 148.656 218.427 148.966 218.307 149.25C218.218 149.44 218.088 149.609 217.928 149.744C217.768 149.879 217.58 149.979 217.378 150.035C217.228 150.048 217.077 150.034 216.931 149.994Z" fill="#D5D2DC"/>
<path d="M165.236 160.968L147.536 160.888L147.521 164.137L165.221 164.217L165.236 160.968Z" fill="#A237EE"/>
<path d="M216.789 180.904C216.928 180.887 217.066 180.862 217.201 180.828C217.393 180.767 217.569 180.666 217.719 180.532C217.868 180.397 217.988 180.233 218.069 180.05C218.176 179.772 218.219 179.473 218.192 179.176V178.081V175.328V170.956C218.225 170.64 218.155 170.321 217.993 170.048C217.819 169.772 217.554 169.567 217.243 169.469C216.901 169.406 216.552 169.385 216.204 169.407H206.301L148.941 169.194C148.633 169.194 148.335 169.307 148.103 169.511C147.871 169.715 147.721 169.996 147.681 170.302V172.367V176.498V178.563C147.656 178.882 147.669 179.204 147.722 179.52C147.805 179.801 147.983 180.044 148.225 180.208C148.477 180.373 148.777 180.451 149.078 180.429H152.072L167.301 180.511L193.088 180.67L210.471 180.807L215.199 180.862H210.471H193.088L167.301 180.787L152.072 180.725H149.078C148.706 180.749 148.335 180.65 148.025 180.442C147.712 180.225 147.484 179.907 147.378 179.541C147.317 179.191 147.298 178.835 147.323 178.48V176.415V172.285V170.185C147.372 169.792 147.562 169.43 147.859 169.168C148.156 168.906 148.538 168.761 148.934 168.76L206.294 169.077L216.197 169.153C216.566 169.13 216.936 169.155 217.298 169.228C217.656 169.345 217.957 169.59 218.144 169.917C218.322 170.22 218.399 170.572 218.364 170.922V171.879V175.321V178.074V179.169C218.391 179.477 218.341 179.786 218.22 180.071C218.131 180.261 218.002 180.429 217.841 180.564C217.681 180.7 217.493 180.799 217.291 180.855C217.13 180.911 216.957 180.927 216.789 180.904Z" fill="#D5D2DC"/>
<path opacity="0.8" d="M184.788 142.602L152.416 142.455L152.402 145.49L184.774 145.637L184.788 142.602Z" fill="#A237EE"/>
<path opacity="0.8" d="M155.341 175.288C155.32 175.565 155.219 175.83 155.05 176.05C154.881 176.27 154.65 176.435 154.388 176.525C154.126 176.615 153.842 176.627 153.573 176.558C153.304 176.489 153.062 176.342 152.876 176.136C152.69 175.93 152.568 175.674 152.526 175.399C152.484 175.125 152.523 174.844 152.639 174.592C152.755 174.34 152.943 174.127 153.178 173.98C153.413 173.834 153.687 173.759 153.964 173.767C154.348 173.788 154.707 173.96 154.965 174.245C155.223 174.53 155.358 174.904 155.341 175.288ZM159.729 175.312C159.742 175.506 159.716 175.701 159.651 175.885C159.586 176.068 159.484 176.236 159.351 176.378C159.219 176.521 159.059 176.635 158.88 176.712C158.702 176.789 158.509 176.829 158.315 176.829C158.121 176.829 157.928 176.789 157.749 176.712C157.571 176.634 157.411 176.521 157.278 176.378C157.145 176.236 157.043 176.068 156.978 175.885C156.913 175.701 156.887 175.506 156.9 175.312C156.887 175.118 156.913 174.923 156.978 174.74C157.043 174.557 157.145 174.389 157.278 174.246C157.411 174.104 157.571 173.991 157.749 173.913C157.928 173.835 158.12 173.795 158.315 173.795C158.51 173.795 158.702 173.835 158.88 173.913C159.058 173.991 159.219 174.104 159.351 174.246C159.484 174.389 159.586 174.557 159.651 174.74C159.716 174.923 159.742 175.118 159.729 175.312ZM164.119 175.329C164.098 175.606 163.997 175.871 163.828 176.091C163.659 176.311 163.429 176.477 163.166 176.567C162.903 176.657 162.62 176.668 162.351 176.599C162.082 176.53 161.84 176.383 161.654 176.177C161.467 175.971 161.346 175.715 161.304 175.441C161.262 175.167 161.302 174.886 161.418 174.634C161.533 174.382 161.721 174.169 161.956 174.022C162.191 173.875 162.465 173.801 162.742 173.808C163.125 173.831 163.483 174.003 163.741 174.288C163.999 174.573 164.134 174.946 164.119 175.329ZM168.504 175.346C168.484 175.623 168.383 175.888 168.214 176.108C168.044 176.328 167.814 176.493 167.551 176.583C167.289 176.674 167.006 176.686 166.737 176.616C166.468 176.546 166.226 176.4 166.039 176.194C165.853 175.988 165.731 175.732 165.689 175.458C165.647 175.183 165.686 174.903 165.802 174.65C165.918 174.398 166.106 174.185 166.341 174.038C166.577 173.892 166.851 173.818 167.128 173.825C167.511 173.849 167.868 174.022 168.125 174.306C168.382 174.59 168.518 174.963 168.504 175.346ZM172.886 175.364C172.867 175.641 172.767 175.907 172.599 176.128C172.43 176.349 172.2 176.515 171.938 176.607C171.675 176.698 171.392 176.71 171.122 176.642C170.853 176.573 170.61 176.427 170.423 176.221C170.236 176.016 170.114 175.76 170.071 175.485C170.028 175.21 170.067 174.929 170.183 174.676C170.299 174.424 170.486 174.211 170.722 174.064C170.958 173.917 171.232 173.843 171.51 173.85C171.891 173.873 172.249 174.044 172.506 174.327C172.763 174.61 172.899 174.982 172.886 175.364ZM177.276 175.389C177.257 175.665 177.158 175.929 176.991 176.149C176.824 176.369 176.596 176.536 176.336 176.629C176.075 176.721 175.794 176.735 175.525 176.67C175.256 176.604 175.013 176.461 174.824 176.259C174.636 176.057 174.511 175.804 174.464 175.531C174.418 175.258 174.452 174.978 174.562 174.725C174.672 174.472 174.855 174.256 175.087 174.105C175.319 173.954 175.589 173.873 175.865 173.874C176.057 173.881 176.246 173.926 176.421 174.006C176.595 174.086 176.753 174.199 176.883 174.34C177.148 174.624 177.289 175.001 177.276 175.389ZM181.66 175.408C181.673 175.602 181.647 175.797 181.582 175.98C181.517 176.164 181.415 176.332 181.282 176.474C181.15 176.616 180.989 176.73 180.811 176.807C180.632 176.885 180.44 176.925 180.245 176.925C179.952 176.926 179.666 176.836 179.426 176.666C179.187 176.497 179.006 176.257 178.909 175.98C178.844 175.797 178.818 175.602 178.831 175.408C178.818 175.214 178.844 175.019 178.909 174.836C179.006 174.559 179.187 174.319 179.426 174.15C179.666 173.981 179.952 173.89 180.245 173.891C180.44 173.891 180.632 173.931 180.811 174.009C180.989 174.087 181.15 174.2 181.282 174.342C181.415 174.484 181.517 174.653 181.582 174.836C181.647 175.019 181.673 175.214 181.66 175.408ZM186.043 175.422C186.025 175.698 185.926 175.962 185.759 176.183C185.593 176.404 185.365 176.571 185.104 176.664C184.843 176.756 184.561 176.77 184.292 176.703C184.024 176.638 183.78 176.495 183.592 176.293C183.404 176.091 183.279 175.838 183.232 175.565C183.186 175.293 183.219 175.012 183.33 174.758C183.441 174.505 183.623 174.289 183.854 174.138C184.086 173.987 184.356 173.907 184.633 173.908C185.02 173.924 185.386 174.092 185.65 174.375C185.914 174.659 186.055 175.035 186.043 175.422ZM190.429 175.448C190.411 175.726 190.312 175.992 190.143 176.212C189.974 176.433 189.744 176.6 189.481 176.69C189.218 176.782 188.935 176.794 188.665 176.725C188.396 176.656 188.153 176.51 187.966 176.305C187.779 176.099 187.657 175.843 187.614 175.568C187.571 175.294 187.61 175.013 187.726 174.76C187.842 174.507 188.029 174.294 188.265 174.147C188.501 174 188.775 173.926 189.053 173.933C189.434 173.956 189.792 174.127 190.049 174.41C190.306 174.694 190.442 175.066 190.429 175.448Z" fill="#A237EE"/>
<path d="M186.559 66.1871C187.037 65.9761 187.442 65.6301 187.725 65.1901C188.008 64.7507 188.155 64.2376 188.148 63.7151C188.166 63.3751 188.115 63.0361 187.997 62.7171C187.879 62.3982 187.697 62.1066 187.464 61.8599C187.23 61.6132 186.948 61.4167 186.636 61.2821C186.323 61.1481 185.987 61.0791 185.647 61.0791C185.307 61.0791 184.97 61.1481 184.658 61.2821C184.345 61.4167 184.064 61.6133 183.83 61.8601C183.596 62.1071 183.414 62.3981 183.297 62.7181C183.18 63.0381 183.128 63.3771 183.145 63.7171C183.135 64.2451 183.281 64.7641 183.565 65.2081C183.849 65.6527 184.259 66.0031 184.742 66.2151C180.888 66.7931 181.06 70.9791 181.06 70.9791L190.172 71.0201C190.172 71.0201 190.385 66.7591 186.559 66.1881V66.1871Z" fill="#A237EE"/>
<path opacity="0.8" d="M201.365 73.7169L168.89 73.5688L168.873 77.4519L201.348 77.5988L201.365 73.7169Z" fill="#A237EE"/>
<path d="M99.0628 43.7349H98.7398L97.8038 43.8039C97.2973 43.8339 96.7936 43.9008 96.2968 44.0039C95.9748 44.0489 95.6558 44.1109 95.3398 44.1899L94.2728 44.4859C92.4571 45.0432 90.7441 45.892 89.2008 46.9989C87.1618 48.4799 85.4588 50.3749 84.2048 52.5609C83.4678 53.8209 82.8808 55.1629 82.4568 56.5609C82.0112 58.0792 81.7546 59.6467 81.6928 61.2279C81.6517 62.0585 81.6654 62.891 81.7338 63.7199C81.7338 64.1399 81.8508 64.5599 81.9058 64.9869C81.9521 65.4173 82.0327 65.8433 82.1468 66.2609C82.7656 69.023 84.0212 71.6023 85.8135 73.7932C87.6058 75.9841 89.8851 77.7259 92.4698 78.8799C94.3404 79.6874 96.3455 80.1381 98.3818 80.2089C100.485 80.3247 102.59 80.0229 104.576 79.3209L105.181 79.0939H105.264L105.333 79.1349L114.011 83.5409L113.756 83.7609L111.065 75.4179V75.3149L111.141 75.2389C113.246 73.1178 114.809 70.5204 115.697 67.6669C116.501 65.0578 116.736 62.3064 116.385 59.5989C116.073 57.1925 115.299 54.869 114.107 52.7559C113.079 50.9409 111.753 49.3119 110.185 47.9369C108.89 46.8492 107.458 45.9373 105.925 45.2249C104.765 44.7244 103.556 44.3438 102.319 44.0889L100.942 43.8619L99.9438 43.7859L99.3378 43.7449H99.1318C99.2008 43.7369 99.2698 43.7369 99.3378 43.7449H99.9498L100.948 43.7859L102.324 43.9859C103.577 44.2219 104.802 44.589 105.979 45.0809C107.538 45.7845 108.996 46.6943 110.314 47.7859C111.912 49.1543 113.266 50.7837 114.319 52.6049C115.546 54.7404 116.343 57.0953 116.666 59.5369C117.046 62.2864 116.828 65.0855 116.026 67.7429C115.133 70.656 113.546 73.3089 111.402 75.4739L111.443 75.2949L114.147 83.6319L114.278 84.0519L113.886 83.8519L105.208 79.4529H105.359L104.74 79.6799C102.716 80.3919 100.572 80.7009 98.4288 80.5889C96.3489 80.5095 94.3022 80.0425 92.3938 79.2119C88.7528 77.6518 85.7238 74.941 83.7708 71.4949C82.8721 69.903 82.2156 68.1862 81.8228 66.4009C81.7153 65.9727 81.6348 65.5381 81.5818 65.0999L81.4168 63.8129C81.2305 61.3633 81.4894 58.9002 82.1808 56.5429C82.6158 55.1269 83.2188 53.7679 83.9768 52.4949C85.2606 50.289 86.9987 48.3811 89.0758 46.8979C90.6443 45.7882 92.3859 44.9461 94.2298 44.4059L95.3108 44.1309C95.6286 44.0571 95.9501 43.9997 96.2738 43.9589C96.7759 43.8659 97.2844 43.8108 97.7948 43.7939L98.7378 43.7599C98.8448 43.7453 98.9527 43.7383 99.0608 43.7389L99.0628 43.7349ZM102.982 59.7899H101.709L98.9568 55.9209V53.3809C98.9568 53.3809 96.9888 53.2569 97.2228 56.5819C97.4568 59.9069 97.2228 59.0599 97.2228 59.0599C97.2228 59.0599 93.0458 59.0599 92.7018 59.4389C92.3578 59.8179 92.3368 63.8519 92.2888 66.1029C92.2624 66.6456 92.418 67.1816 92.7308 67.6259C93.0438 68.0699 93.4958 68.3969 94.0158 68.5539C94.1618 68.5939 94.3118 68.6149 94.4628 68.6159C95.5088 68.6159 100.828 67.7689 100.828 67.7689H103.024L102.982 59.7899ZM106.627 59.1099L105.843 67.8109H103.668V59.2889L106.627 59.1099ZM88.9398 286.357V280.471L78.3898 280.395L78.3008 289.296L78.9548 289.344C81.8658 289.53 93.7648 289.805 95.7188 289.2C97.8938 288.525 88.9398 286.357 88.9398 286.357Z" fill="#A237EE"/>
<path d="M95.9679 288.651C95.9679 288.747 92.0179 288.83 87.1519 288.83C82.2859 288.83 78.3359 288.747 78.3359 288.651C78.3359 288.555 82.2859 288.472 87.1519 288.472L95.9679 288.651ZM89.1299 287.563C89.0399 287.514 89.1299 287.205 89.3429 286.874C89.5559 286.543 89.8449 286.406 89.9139 286.475C89.9829 286.544 89.8379 286.805 89.6319 287.087C89.4259 287.369 89.2189 287.611 89.1299 287.563Z" fill="white"/>
<path d="M89.802 287.95C89.706 287.95 89.754 287.565 89.96 287.2C90.166 286.835 90.442 286.615 90.517 286.67C90.592 286.725 90.469 287.035 90.276 287.358C90.083 287.681 89.892 287.985 89.802 287.95ZM81.517 288.623C81.476 288.623 81.317 288.499 81.09 288.238C80.8126 287.902 80.5039 287.593 80.168 287.315C79.8375 287.051 79.4439 286.878 79.026 286.813C78.703 286.771 78.496 286.813 78.476 286.771C78.456 286.729 78.655 286.586 79.033 286.558C79.5323 286.548 80.0194 286.713 80.409 287.026C80.774 287.324 81.082 287.685 81.317 288.093C81.475 288.396 81.558 288.596 81.517 288.623ZM89.163 286.451C89.211 286.534 89.032 286.74 88.729 286.851C88.426 286.962 88.158 286.919 88.144 286.851C88.13 286.783 88.344 286.637 88.605 286.541C88.866 286.445 89.108 286.369 89.163 286.451ZM88.996 285.885C88.996 285.989 88.721 286.071 88.363 286.078C88.005 286.085 87.723 286.002 87.73 285.906C87.737 285.81 88.019 285.72 88.363 285.713C88.707 285.706 88.982 285.789 88.996 285.885Z" fill="white"/>
<path d="M114.918 286.357V280.471L104.368 280.395L104.279 289.207L104.933 289.255C107.844 289.441 119.749 289.806 121.697 289.2C123.871 288.525 114.918 286.357 114.918 286.357Z" fill="#A237EE"/>
<path d="M121.948 288.667C121.948 288.764 118.005 288.846 113.132 288.846C108.259 288.846 104.324 288.764 104.324 288.667C104.324 288.57 108.267 288.488 113.132 288.488L121.948 288.667ZM115.107 287.563C115.025 287.514 115.107 287.205 115.321 286.874C115.535 286.543 115.823 286.406 115.892 286.475C115.961 286.544 115.816 286.805 115.61 287.087C115.404 287.369 115.197 287.611 115.107 287.563Z" fill="white"/>
<path d="M115.783 287.95C115.693 287.95 115.735 287.565 115.948 287.2C116.161 286.835 116.43 286.615 116.505 286.67C116.58 286.725 116.45 287.035 116.258 287.358C116.066 287.681 115.879 287.985 115.783 287.95ZM107.497 288.623C107.456 288.623 107.304 288.499 107.07 288.238C106.793 287.902 106.484 287.593 106.148 287.315C105.817 287.051 105.423 286.878 105.006 286.813C104.689 286.771 104.476 286.813 104.455 286.771C104.434 286.729 104.634 286.586 105.013 286.558C105.512 286.548 105.999 286.713 106.389 287.026C106.756 287.322 107.064 287.684 107.297 288.093C107.456 288.396 107.538 288.596 107.497 288.623ZM115.143 286.451C115.191 286.534 115.012 286.74 114.709 286.851C114.406 286.962 114.138 286.919 114.124 286.851C114.11 286.783 114.324 286.637 114.585 286.541C114.846 286.445 115.088 286.369 115.143 286.451ZM114.99 285.885C114.99 285.989 114.715 286.071 114.357 286.078C113.999 286.085 113.724 286.002 113.731 285.906C113.738 285.81 114.013 285.72 114.357 285.713C114.701 285.706 114.99 285.789 114.99 285.885Z" fill="white"/>
<path d="M153.788 111.572C153.513 111.29 152.832 111.428 152.832 111.428C152.9 111.031 152.9 110.626 152.832 110.23C152.708 109.844 151.841 109.92 151.841 109.92C151.801 109.595 151.801 109.267 151.841 108.942C151.848 108.87 151.833 108.798 151.797 108.735C151.761 108.672 151.707 108.622 151.641 108.591C151.231 108.424 150.79 108.344 150.347 108.357C149.817 107.979 151.965 104.97 152.763 104.007C153.561 103.044 153.417 102.292 152.708 102.292C152.219 102.292 149.714 105.184 148.943 106.154C148.172 107.124 146.129 109.824 146.06 107.669C145.991 105.514 145.124 103.89 144.58 103.614C144.036 103.338 143.459 103.986 143.754 104.585C144.015 105.265 144.177 105.979 144.236 106.705C144.311 107.283 144.285 107.87 144.161 108.44C143.932 109.5 143.622 110.54 143.231 111.551H143.176L127.073 126.985C126.103 127.908 106.586 125.891 102.67 125.478C101.34 125.283 99.996 125.191 98.6512 125.202C96.9512 125.278 96.6482 125.519 94.9552 125.54C90.6802 125.587 86.4142 125.962 82.1962 126.662C80.2862 126.987 78.5022 127.83 77.0382 129.1C75.5745 130.37 74.4876 132.018 73.8962 133.863C69.9532 146.185 61.0202 175.352 59.4442 191.736C58.2535 193.896 57.1783 196.119 56.2232 198.393C55.1152 201.408 55.3832 201.512 55.7552 201.58C56.7602 201.766 57.9022 196.355 58.3292 197.663C58.7562 198.971 56.1612 204.114 57.2142 204.265C58.5902 204.458 59.6842 198.758 59.8152 198.304C59.9462 197.85 60.6272 197.994 60.5032 198.421C60.3032 199.026 58.3702 205.449 59.7182 205.656C60.4612 205.766 60.5442 204.41 60.5442 204.41C60.5442 204.41 61.9202 198.262 62.5472 198.386C63.1742 198.51 62.5062 202.138 62.1892 203.35C61.8722 204.562 62.3132 205.174 62.9602 204.878C63.4002 204.671 64.4532 200.988 64.7422 199.791C65.0312 198.594 65.7542 195.275 66.7242 197.195C67.6942 199.115 69.1672 200.231 69.7732 200.259C69.9092 200.243 70.0382 200.187 70.1422 200.097C70.2462 200.007 70.3212 199.889 70.3582 199.757C70.3945 199.624 70.3902 199.484 70.346 199.354C70.3018 199.223 70.2197 199.109 70.1102 199.026C69.5892 198.517 69.1422 197.938 68.7822 197.305C68.4614 196.812 68.2287 196.267 68.0942 195.695C67.8168 194.553 67.6553 193.386 67.6122 192.211L67.5022 191.523C69.0432 183.889 73.4822 161.481 79.8892 147.169L82.5182 152.58L83.6602 156.587L76.6542 173.886L106.535 173.494L102.075 156.325L107.491 138.427C113.348 138.557 128.384 138.778 130.889 137.642C134.041 136.265 150.344 115.668 150.344 115.668C151.407 114.842 152.425 113.96 153.393 113.025C153.393 113.025 154.384 112.192 153.785 111.572H153.788Z" fill="#FFBE9D"/>
<path d="M75.3421 161.102L80.6621 143.506C80.6621 143.506 82.8501 155.436 82.2721 156.875C81.7405 158.107 81.1122 159.295 80.3931 160.427C75.3421 168.117 76.0021 171.965 76.0021 171.965L106.523 171.035C106.592 166.767 104.067 156.841 103.544 155.257C103.021 153.673 104.762 148.49 104.762 148.49C104.762 148.49 108.203 144.986 108.079 143.183C108.013 141.563 107.813 139.951 107.48 138.364L126.061 139.052L125.476 126.455L98.7881 123.784C97.8591 126.406 89.4561 125.119 89.4561 125.119C80.3861 125.422 79.8211 127.088 76.0501 130.021C72.2791 132.954 66.0371 158.121 66.0371 158.121L75.3421 161.102Z" fill="#A237EE"/>
<path d="M93.3885 158.125C92.8597 158.219 92.3211 158.247 91.7855 158.207C90.7875 158.207 89.4185 158.139 87.9105 157.987L84.0705 157.43C83.5354 157.361 83.0108 157.227 82.5085 157.03C83.0465 157.03 83.5835 157.081 84.1115 157.182L87.9445 157.629L91.7915 157.953C92.328 157.96 92.8628 158.017 93.3885 158.125ZM95.4805 155.528C94.9515 155.787 94.3921 155.979 93.8155 156.099C91.0695 156.821 88.2375 157.157 85.3995 157.097C84.8125 157.117 84.2245 157.061 83.6515 156.932C84.2311 156.859 84.8154 156.829 85.3995 156.843L89.6045 156.54L93.7335 155.851C94.3065 155.698 94.8905 155.59 95.4805 155.528ZM105.747 143.948C105.733 144.473 105.661 144.995 105.533 145.504L104.728 149.201L103.737 152.849C103.615 153.362 103.435 153.858 103.2 154.329C103.239 153.806 103.336 153.289 103.489 152.787L104.377 149.118L105.285 145.449C105.379 144.932 105.534 144.428 105.747 143.948ZM75.6665 159.35C74.0745 159.104 72.5035 158.738 70.9665 158.255C69.3959 157.888 67.8546 157.405 66.3555 156.81C67.9467 157.06 69.5175 157.425 71.0555 157.904C72.6265 158.27 74.1675 158.753 75.6665 159.35ZM107.812 138.214C107.553 138.259 107.287 138.259 107.027 138.214C106.309 138.14 105.603 137.971 104.928 137.711C103.802 137.288 102.777 136.634 101.919 135.791C101.062 134.948 100.39 133.935 99.9465 132.817C99.4565 131.587 99.2475 130.263 99.3345 128.941C99.365 127.851 99.6909 126.79 100.277 125.871C100.689 125.252 101.305 124.796 102.018 124.584C102.209 124.531 102.406 124.506 102.603 124.508H102.809C102.809 124.508 102.52 124.508 102.059 124.694C101.405 124.935 100.851 125.389 100.483 125.981C99.5475 127.454 99.2865 130.146 100.284 132.659C100.749 133.843 101.476 134.907 102.41 135.77C103.177 136.476 104.059 137.044 105.018 137.45C105.919 137.806 106.857 138.062 107.813 138.214H107.812ZM123.854 138.805C123.683 136.694 123.627 134.575 123.689 132.458C123.635 130.343 123.699 128.226 123.881 126.118C124.054 128.227 124.109 130.344 124.047 132.458C124.104 134.576 124.04 136.695 123.854 138.805Z" fill="#1F1B2D"/>
<path d="M98.6126 124.556L98.8466 121.286C98.8466 121.286 102.646 120.866 102.873 116.942C103.1 113.018 102.873 103.966 102.873 103.966L95.9906 100.441L88.3516 106.451L89.5286 126.07L96.5346 126.518C97.0696 126.532 97.5896 126.334 97.9796 125.966C98.3695 125.599 98.5966 125.091 98.6126 124.556Z" fill="#FFBE9D"/>
<path d="M99.2896 113.835C99.2896 113.835 99.2896 113.91 99.2276 114C99.1763 114.065 99.1101 114.117 99.0346 114.15C98.9586 114.183 98.8766 114.198 98.7936 114.193C98.3536 114.193 97.9266 113.683 97.7746 113.091C97.7028 112.804 97.7028 112.504 97.7746 112.217C97.7886 112.092 97.8336 111.972 97.9056 111.868C97.9776 111.764 98.0746 111.681 98.1866 111.625C98.2791 111.587 98.383 111.587 98.4756 111.625C98.5446 111.659 98.5996 111.715 98.6336 111.783C98.6816 111.9 98.6336 111.976 98.6336 111.969C98.6336 111.962 98.6336 111.9 98.5646 111.831C98.5285 111.782 98.4759 111.748 98.4166 111.735C98.3566 111.722 98.2946 111.732 98.2416 111.763C98.157 111.814 98.0868 111.886 98.0376 111.971C97.9886 112.056 97.9616 112.153 97.9596 112.251C97.9016 112.507 97.9016 112.773 97.9596 113.029C98.0976 113.566 98.4686 114 98.7996 114.041C98.8646 114.05 98.9296 114.045 98.9926 114.027C99.0556 114.009 99.1136 113.979 99.1646 113.938C99.2466 113.883 99.2756 113.828 99.2896 113.835Z" fill="#EB996E"/>
<path d="M105.232 101.845C104.702 100.042 102.782 99.1468 101.034 98.6508C98.3697 97.8938 95.4937 97.5628 92.8917 98.5198C90.2897 99.4768 87.1657 101.157 87.1657 104.028C85.6307 103.904 84.7497 105.246 84.1447 106.912C83.7577 107.927 83.5257 108.995 83.4567 110.079C83.2637 113.837 82.2107 119.028 79.7747 121.781C78.3987 123.317 76.4917 124.377 75.7077 126.291C75.0197 127.95 75.3777 129.918 74.7377 131.598C74.1667 133.078 72.9067 134.131 71.9847 135.419C71.0449 136.879 70.4919 138.554 70.3777 140.287C70.2634 142.02 70.5913 143.753 71.3307 145.325C72.0752 146.856 73.1239 148.219 74.4127 149.331C75.7011 150.444 77.2026 151.282 78.8257 151.796C82.0401 152.774 85.4678 152.807 88.7007 151.892C91.1267 151.312 93.3907 150.189 95.3207 148.608C97.2964 146.995 98.6531 144.747 99.1607 142.248C99.6497 139.439 98.8647 136.582 98.2797 133.787C96.4487 124.955 96.9717 124.494 99.2847 116.295C99.3397 116.15 99.3677 115.999 99.4087 115.854L99.4977 115.531C99.5637 115.207 99.5977 114.877 99.6007 114.546C99.2627 114.672 98.8967 114.699 98.5437 114.623C98.1907 114.547 97.8677 114.373 97.6117 114.12C97.3548 113.85 97.1758 113.515 97.0934 113.151C97.011 112.788 97.0284 112.408 97.1437 112.054C97.3057 111.667 97.5477 111.318 97.8537 111.029C98.1595 110.741 98.5223 110.521 98.9187 110.382C99.6827 110.065 100.502 109.9 101.252 109.549C102.842 108.791 103.943 107.222 104.693 105.577C105.31 104.436 105.5 103.113 105.23 101.845H105.232Z" fill="#1F1B2D"/>
<path d="M99.5698 114.022C99.7148 114.237 99.8358 114.468 99.9278 114.71L100.712 116.466L100.767 116.597H100.623L99.9348 116.659C99.4598 116.659 99.0608 116.748 98.5928 116.741C98.5518 116.732 98.5148 116.713 98.4828 116.685C98.4508 116.657 98.4278 116.622 98.4138 116.583C98.3933 116.52 98.3933 116.453 98.4138 116.39C98.4298 116.297 98.4508 116.205 98.4758 116.115L98.5998 115.626C98.6618 115.3 98.7588 114.981 98.8888 114.676C98.8758 115.008 98.8272 115.338 98.7438 115.66L98.6478 116.149C98.6138 116.314 98.5518 116.569 98.6478 116.548C98.9918 116.548 99.4808 116.473 99.9348 116.445L100.623 116.383L100.533 116.535L99.8448 114.752C99.7183 114.523 99.6257 114.277 99.5698 114.022Z" fill="#FD5631"/>
<path d="M76.0042 171.965L106.525 171.036L119.807 222.9L117.364 282.392H101.226L103.201 224.167L91.3992 188.06L93.2162 284.698L76.9062 284.939L75.1922 194.104C75.1162 191.578 74.2912 185.885 74.6002 183.379L76.0042 171.965Z" fill="#1F1B2D"/>
<path d="M95.4607 188.796C94.9612 188.827 94.4598 188.797 93.9677 188.706L90.4027 188.128L86.8857 187.281C86.4077 187.176 85.9447 187.01 85.5097 186.786C85.5097 186.683 87.7527 187.219 90.5057 187.777L95.4607 188.796ZM117.198 279.126C117.198 279.223 113.544 279.305 109.036 279.305C104.528 279.305 100.868 279.223 100.868 279.126C100.868 279.029 104.522 278.947 109.036 278.947L117.198 279.126ZM93.0697 282.189C93.0697 282.292 89.5187 282.368 85.1417 282.368C80.7647 282.368 77.2207 282.292 77.2207 282.189C77.2207 282.086 80.7717 282.01 85.1417 282.01L93.0697 282.189Z" fill="white" fill-opacity="0.4"/>
<path d="M90.9642 281.938C90.8682 281.938 90.4412 260.825 90.0072 234.782L89.4082 187.613C89.4982 187.613 89.9382 208.72 90.3652 234.776L90.9642 281.938ZM115.031 279.127C115.024 279.033 115.024 278.939 115.031 278.845V278.019L115.128 274.852L115.534 263.198L117 224.75V224.344V224.392L107.744 187.322L104.991 176.094L104.261 173.038L104.075 172.239C104.049 172.149 104.033 172.057 104.027 171.964C104.063 172.051 104.091 172.14 104.11 172.232L104.33 173.017L105.128 176.06L107.998 187.26L117.357 224.31V224.358V224.764L115.781 263.204L115.265 274.852L115.107 278.019C115.107 278.37 115.066 278.645 115.059 278.845C115.06 278.94 115.051 279.034 115.031 279.127ZM109.765 223.136C108.606 223.517 107.412 223.782 106.2 223.927L102.876 224.389V224.251C103.062 224.306 103.158 224.34 103.158 224.368C103.158 224.396 103.041 224.368 102.848 224.368H102.436L102.848 224.244C103.385 224.086 104.651 223.824 106.138 223.556C107.33 223.297 108.545 223.156 109.765 223.136ZM109.484 225.113C108.411 225.163 107.335 225.114 106.27 224.969C105.195 224.947 104.124 224.829 103.07 224.618C105.221 224.442 107.386 224.61 109.484 225.113Z" fill="white" fill-opacity="0.4"/>
<path opacity="0.2" d="M75.875 173.06C76.2367 173.524 76.6918 173.907 77.211 174.184C77.73 174.46 78.302 174.624 78.889 174.664C80.118 174.81 81.362 174.786 82.585 174.595C90.465 173.721 98.812 172.915 106.527 171.036C96.541 171.594 85.991 171.408 76.006 171.965L75.903 172.819" fill="black"/>
<path opacity="0.04" d="M86.1621 187.139L91.7911 208.989L91.3991 188.062L86.1621 187.139Z" fill="black"/>
</svg>
